<?xml version="1.0" standalone="no"?><!DOCTYPE svg PUBLIC "-//W3C//DTD SVG 1.1//EN" "http://www.w3.org/Graphics/SVG/1.1/DTD/svg11.dtd" ><svg version="1.1" xmlns="http://www.w3.org/2000/svg"><defs><font horiz-adv-x="0" id="font"><font-face ascent="750" bbox="-182 -270 2054 955" cap-height="750" descent="-250" font-family="Optic Sans" font-stretch="normal" font-style="normal" font-weight="600" units-per-em="1000" x-height="500" /><missing-glyph d="M65 750H815V0H65ZM440 422 702 684H178ZM178 66H702L440 328ZM744 118V632L487 375ZM136 632V118L393 375Z" horiz-adv-x="880" /><glyph glyph-name=".null" horiz-adv-x="0" /><glyph d="M20 0 228 754H412L620 0H450L415 154H225L190 0ZM256 281H384L320 565Z" glyph-name="A" horiz-adv-x="640" unicode="A" /><glyph d="M923 312H637L660 150H952V0H500L482 152H259L196 0H10L363 750H952V600H597L616 462H923ZM318 292H466L434 571Z" glyph-name="AE" horiz-adv-x="987" unicode="&#198;" /><glyph d="M20 0 228 754H412L620 0H450L415 154H225L190 0ZM256 281H384L320 565ZM265 790 315 910H485L385 790Z" glyph-name="Aacute" horiz-adv-x="640" unicode="&#193;" /><glyph d="M20 0 228 754H412L620 0H450L415 154H225L190 0ZM320 870Q358 870 369 878.5Q380 887 380 910H508Q508 840 466.5 807Q425 774 320 774Q215 774 173.5 807Q132 840 132 910H260Q260 887 271 878.5Q282 870 320 870ZM256 281H384L320 565Z" glyph-name="Abreve" horiz-adv-x="640" unicode="&#258;" /><glyph d="M20 0 228 754H412L620 0H450L415 154H225L190 0ZM122 790 245 910H395L518 790H385L320 835L255 790ZM256 281H384L320 565Z" glyph-name="Acircumflex" horiz-adv-x="640" unicode="&#194;" /><glyph d="M20 0 228 754H412L620 0H450L415 154H225L190 0ZM256 281H384L320 565ZM110 870Q110 910 131.5 932.5Q153 955 200 955Q245 955 267.5 932.5Q290 910 290 870Q290 829 267.5 807Q245 785 200 785Q153 785 131.5 807Q110 829 110 870ZM350 870Q350 910 371.5 932.5Q393 955 440 955Q485 955 507.5 932.5Q530 910 530 870Q530 829 507.5 807Q485 785 440 785Q393 785 371.5 807Q350 829 350 870Z" glyph-name="Adieresis" horiz-adv-x="640" unicode="&#196;" /><glyph d="M20 0 228 754H412L620 0H450L415 154H225L190 0ZM256 281H384L320 565ZM255 790 155 910H325L375 790Z" glyph-name="Agrave" horiz-adv-x="640" unicode="&#192;" /><glyph d="M20 0 228 754H412L620 0H450L415 154H225L190 0ZM476 790H164V910H476ZM256 281H384L320 565Z" glyph-name="Amacron" horiz-adv-x="640" unicode="&#256;" /><glyph d="M190 0H20L228 754H412L620 0H450L320 565Z" glyph-name="Anocross" horiz-adv-x="640" unicode="&#59185;" /><glyph d="M20 0 228 754H412L620 0Q568 -14 542.5 -45.5Q517 -77 517 -105Q517 -131 531.5 -142Q546 -153 562 -153Q581 -153 594 -147.5Q607 -142 614 -137L662 -216Q645 -230 615.5 -242.5Q586 -255 540 -255Q512 -255 486 -248Q460 -241 440.5 -226Q421 -211 409 -187.5Q397 -164 397 -132Q397 -94 412.5 -65Q428 -36 453 -15L415 154H225L190 0ZM256 281H384L320 565Z" glyph-name="Aogonek" horiz-adv-x="640" unicode="&#260;" /><glyph d="M20 0 228 754H412L620 0H450L415 154H225L190 0ZM426 860Q426 806 397 785.5Q368 765 320 765Q272 765 243 785.5Q214 806 214 860Q214 914 243 934.5Q272 955 320 955Q368 955 397 934.5Q426 914 426 860ZM256 281H384L320 565ZM298 860Q298 849 320 849Q342 849 342 860Q342 871 320 871Q298 871 298 860Z" glyph-name="Aring" horiz-adv-x="640" unicode="&#197;" /><glyph d="M20 0 228 754H412L620 0H450L415 154H225L190 0ZM105 790Q105 935 235 935Q267 935 290.5 925.5Q314 916 333 904.5Q352 893 369 883.5Q386 874 404 874Q427 874 437.5 884.5Q448 895 448 910H535Q535 765 405 765Q373 765 349.5 774.5Q326 784 307 795.5Q288 807 271 816.5Q254 826 236 826Q213 826 202.5 815.5Q192 805 192 790ZM256 281H384L320 565Z" glyph-name="Atilde" horiz-adv-x="640" unicode="&#195;" /><glyph d="M46 750H315Q386 750 433 734Q480 718 507.5 689.5Q535 661 546 622.5Q557 584 557 538Q557 490 535 453Q513 416 476 396Q518 382 548.5 340.5Q579 299 579 229Q579 180 566.5 138.5Q554 97 524 66Q494 35 444 17.5Q394 0 319 0H46ZM206 136H317Q368 136 388.5 162Q409 188 409 230Q409 272 388 297.5Q367 323 317 323H206ZM387 533Q387 546 384 560.5Q381 575 373 587Q365 599 349.5 606.5Q334 614 309 614H206V453H309Q334 453 349 460.5Q364 468 372.5 480Q381 492 384 506Q387 520 387 533Z" glyph-name="B" horiz-adv-x="601" unicode="B" /><glyph d="M46 750H315Q386 750 433 734Q480 718 507.5 689.5Q535 661 546 622.5Q557 584 557 538Q557 490 535 453Q513 416 476 396Q518 382 548.5 340.5Q579 299 579 229Q579 180 566.5 138.5Q554 97 524 66Q494 35 444 17.5Q394 0 319 0H46ZM206 136H317Q368 136 388.5 162Q409 188 409 230Q409 272 388 297.5Q367 323 317 323H206ZM387 533Q387 546 384 560.5Q381 575 373 587Q365 599 349.5 606.5Q334 614 309 614H206V453H309Q334 453 349 460.5Q364 468 372.5 480Q381 492 384 506Q387 520 387 533ZM205 870Q205 910 226.5 932.5Q248 955 295 955Q340 955 362.5 932.5Q385 910 385 870Q385 829 362.5 807Q340 785 295 785Q248 785 226.5 807Q205 829 205 870Z" glyph-name="Bdotaccent" horiz-adv-x="601" unicode="&#7682;" /><glyph d="M41 375Q41 563 119 663.5Q197 764 365 764Q404 764 436.5 756.5Q469 749 495 738Q521 727 539.5 714.5Q558 702 569 691L500 576Q486 587 454 600.5Q422 614 383 614Q287 614 245 556.5Q203 499 203 375Q203 251 245 193.5Q287 136 383 136Q422 136 454 149.5Q486 163 500 174L569 59Q558 48 539.5 35.5Q521 23 495 12Q469 1 436.5 -6.5Q404 -14 365 -14Q197 -14 119 87Q41 188 41 375Z" glyph-name="C" horiz-adv-x="562" unicode="C" /><glyph d="M265 790 315 910H485L385 790ZM41 375Q41 563 119 663.5Q197 764 365 764Q404 764 436.5 756.5Q469 749 495 738Q521 727 539.5 714.5Q558 702 569 691L500 576Q486 587 454 600.5Q422 614 383 614Q287 614 245 556.5Q203 499 203 375Q203 251 245 193.5Q287 136 383 136Q422 136 454 149.5Q486 163 500 174L569 59Q558 48 539.5 35.5Q521 23 495 12Q469 1 436.5 -6.5Q404 -14 365 -14Q197 -14 119 87Q41 188 41 375Z" glyph-name="Cacute" horiz-adv-x="562" unicode="&#262;" /><glyph d="M528 910 405 790H255L132 910H265L330 865L395 910ZM41 375Q41 563 119 663.5Q197 764 365 764Q404 764 436.5 756.5Q469 749 495 738Q521 727 539.5 714.5Q558 702 569 691L500 576Q486 587 454 600.5Q422 614 383 614Q287 614 245 556.5Q203 499 203 375Q203 251 245 193.5Q287 136 383 136Q422 136 454 149.5Q486 163 500 174L569 59Q558 48 539.5 35.5Q521 23 495 12Q469 1 436.5 -6.5Q404 -14 365 -14Q197 -14 119 87Q41 188 41 375Z" glyph-name="Ccaron" horiz-adv-x="562" unicode="&#268;" /><glyph d="M331 -155Q351 -155 362.5 -150Q374 -145 374 -132Q374 -122 362 -111.5Q350 -101 303 -94L312 -11Q172 5 106.5 104Q41 203 41 375Q41 563 119 663.5Q197 764 365 764Q404 764 436.5 756.5Q469 749 495 738Q521 727 539.5 714.5Q558 702 569 691L500 576Q486 587 454 600.5Q422 614 383 614Q287 614 245 556.5Q203 499 203 375Q203 251 245 193.5Q287 136 383 136Q422 136 454 149.5Q486 163 500 174L569 59Q559 49 542 37Q525 25 501.5 14.5Q478 4 448.5 -3.5Q419 -11 384 -13L387 -57Q433 -68 455 -89.5Q477 -111 477 -152Q477 -204 441.5 -229.5Q406 -255 348 -255Q302 -255 272.5 -242.5Q243 -230 226 -216L274 -137Q281 -142 295.5 -148.5Q310 -155 331 -155Z" glyph-name="Ccedilla" horiz-adv-x="562" unicode="&#199;" /><glyph d="M132 790 255 910H405L528 790H395L330 835L265 790ZM41 375Q41 563 119 663.5Q197 764 365 764Q404 764 436.5 756.5Q469 749 495 738Q521 727 539.5 714.5Q558 702 569 691L500 576Q486 587 454 600.5Q422 614 383 614Q287 614 245 556.5Q203 499 203 375Q203 251 245 193.5Q287 136 383 136Q422 136 454 149.5Q486 163 500 174L569 59Q558 48 539.5 35.5Q521 23 495 12Q469 1 436.5 -6.5Q404 -14 365 -14Q197 -14 119 87Q41 188 41 375Z" glyph-name="Ccircumflex" horiz-adv-x="562" unicode="&#264;" /><glyph d="M41 375Q41 563 119 663.5Q197 764 365 764Q404 764 436.5 756.5Q469 749 495 738Q521 727 539.5 714.5Q558 702 569 691L500 576Q486 587 454 600.5Q422 614 383 614Q287 614 245 556.5Q203 499 203 375Q203 251 245 193.5Q287 136 383 136Q422 136 454 149.5Q486 163 500 174L569 59Q558 48 539.5 35.5Q521 23 495 12Q469 1 436.5 -6.5Q404 -14 365 -14Q197 -14 119 87Q41 188 41 375ZM240 870Q240 910 261.5 932.5Q283 955 330 955Q375 955 397.5 932.5Q420 910 420 870Q420 829 397.5 807Q375 785 330 785Q283 785 261.5 807Q240 829 240 870Z" glyph-name="Cdotaccent" horiz-adv-x="562" unicode="&#266;" /><glyph d="M46 0V750H289Q384 750 446 721.5Q508 693 544 642.5Q580 592 594.5 523.5Q609 455 609 375Q609 295 594.5 226.5Q580 158 544 107.5Q508 57 446 28.5Q384 0 289 0ZM206 146H292Q336 146 365 161.5Q394 177 411.5 206Q429 235 436 278Q443 321 443 375Q443 429 436 471.5Q429 514 411.5 543.5Q394 573 365 588.5Q336 604 292 604H206Z" glyph-name="D" horiz-adv-x="645" unicode="D" /><glyph d="M493 910 370 790H220L97 910H230L295 865L360 910ZM46 0V750H289Q384 750 446 721.5Q508 693 544 642.5Q580 592 594.5 523.5Q609 455 609 375Q609 295 594.5 226.5Q580 158 544 107.5Q508 57 446 28.5Q384 0 289 0ZM206 146H292Q336 146 365 161.5Q394 177 411.5 206Q429 235 436 278Q443 321 443 375Q443 429 436 471.5Q429 514 411.5 543.5Q394 573 365 588.5Q336 604 292 604H206Z" glyph-name="Dcaron" horiz-adv-x="645" unicode="&#270;" /><glyph d="M109 0V317H25V437H109V750H352Q447 750 509 721.5Q571 693 607 642.5Q643 592 657.5 523.5Q672 455 672 375Q672 295 657.5 226.5Q643 158 607 107.5Q571 57 509 28.5Q447 0 352 0ZM269 437H399V317H269V146H355Q399 146 428 161.5Q457 177 474.5 206Q492 235 499 278Q506 321 506 375Q506 429 499 471.5Q492 514 474.5 543.5Q457 573 428 588.5Q399 604 355 604H269Z" glyph-name="Dcroat" horiz-adv-x="708" unicode="&#272;" /><glyph d="M46 0V750H289Q384 750 446 721.5Q508 693 544 642.5Q580 592 594.5 523.5Q609 455 609 375Q609 295 594.5 226.5Q580 158 544 107.5Q508 57 446 28.5Q384 0 289 0ZM206 146H292Q336 146 365 161.5Q394 177 411.5 206Q429 235 436 278Q443 321 443 375Q443 429 436 471.5Q429 514 411.5 543.5Q394 573 365 588.5Q336 604 292 604H206ZM205 870Q205 910 226.5 932.5Q248 955 295 955Q340 955 362.5 932.5Q385 910 385 870Q385 829 362.5 807Q340 785 295 785Q248 785 226.5 807Q205 829 205 870Z" glyph-name="Ddotaccent" horiz-adv-x="645" unicode="&#7690;" /><glyph d="M10 109 334 764H486L810 109V0H10ZM614 150 410 586 206 150Z" glyph-name="Delta" horiz-adv-x="820" unicode="&#8710;" /><glyph d="M495 316H206V146H524V0H46V750H524V604H206V459H495Z" glyph-name="E" horiz-adv-x="560" unicode="E" /><glyph d="M230 790 280 910H450L350 790ZM495 316H206V146H524V0H46V750H524V604H206V459H495Z" glyph-name="Eacute" horiz-adv-x="560" unicode="&#201;" /><glyph d="M295 870Q333 870 344 878.5Q355 887 355 910H483Q483 840 441.5 807Q400 774 295 774Q190 774 148.5 807Q107 840 107 910H235Q235 887 246 878.5Q257 870 295 870ZM495 316H206V146H524V0H46V750H524V604H206V459H495Z" glyph-name="Ebreve" horiz-adv-x="560" unicode="&#276;" /><glyph d="M493 910 370 790H220L97 910H230L295 865L360 910ZM495 316H206V146H524V0H46V750H524V604H206V459H495Z" glyph-name="Ecaron" horiz-adv-x="560" unicode="&#282;" /><glyph d="M97 790 220 910H370L493 790H360L295 835L230 790ZM495 316H206V146H524V0H46V750H524V604H206V459H495Z" glyph-name="Ecircumflex" horiz-adv-x="560" unicode="&#202;" /><glyph d="M495 316H206V146H524V0H46V750H524V604H206V459H495ZM85 870Q85 910 106.5 932.5Q128 955 175 955Q220 955 242.5 932.5Q265 910 265 870Q265 829 242.5 807Q220 785 175 785Q128 785 106.5 807Q85 829 85 870ZM325 870Q325 910 346.5 932.5Q368 955 415 955Q460 955 482.5 932.5Q505 910 505 870Q505 829 482.5 807Q460 785 415 785Q368 785 346.5 807Q325 829 325 870Z" glyph-name="Edieresis" horiz-adv-x="560" unicode="&#203;" /><glyph d="M495 316H206V146H524V0H46V750H524V604H206V459H495ZM205 870Q205 910 226.5 932.5Q248 955 295 955Q340 955 362.5 932.5Q385 910 385 870Q385 829 362.5 807Q340 785 295 785Q248 785 226.5 807Q205 829 205 870Z" glyph-name="Edotaccent" horiz-adv-x="560" unicode="&#278;" /><glyph d="M241 790 141 910H311L361 790ZM495 316H206V146H524V0H46V750H524V604H206V459H495Z" glyph-name="Egrave" horiz-adv-x="560" unicode="&#200;" /><glyph d="M451 790H139V910H451ZM495 316H206V146H524V0H46V750H524V604H206V459H495Z" glyph-name="Emacron" horiz-adv-x="560" unicode="&#274;" /><glyph d="M345 -123Q399 -120 420 -96Q441 -72 441 -37V2L200 448L204 0H46V750H204L446 302L442 750H600V-62Q600 -113 581 -150Q562 -187 529.5 -211.5Q497 -236 454 -248.5Q411 -261 363 -263Z" glyph-name="Eng" horiz-adv-x="645" unicode="&#330;" /><glyph d="M495 316H206V146H524V0Q472 -14 446.5 -45.5Q421 -77 421 -105Q421 -131 435.5 -142Q450 -153 466 -153Q485 -153 498 -147.5Q511 -142 518 -137L566 -216Q549 -230 519.5 -242.5Q490 -255 444 -255Q416 -255 390 -248Q364 -241 344.5 -226Q325 -211 313 -187.5Q301 -164 301 -132Q301 -86 322.5 -54Q344 -22 376 0H46V750H524V604H206V459H495Z" glyph-name="Eogonek" horiz-adv-x="560" unicode="&#280;" /><glyph d="M428 294Q403 297 372 303Q341 309 309 317V399L440 590Q422 607 394.5 613Q367 619 335 619Q307 619 282.5 615Q258 611 240 598.5Q222 586 211.5 563.5Q201 541 201 505V0H41V513Q41 590 65.5 639Q90 688 130.5 716Q171 744 224 754Q277 764 335 764Q386 764 432.5 756.5Q479 749 517 728.5Q555 708 582.5 673Q610 638 622 582L516 427Q567 415 602 396.5Q637 378 658.5 351.5Q680 325 689.5 290Q699 255 699 210Q699 108 636.5 47Q574 -14 450 -14Q376 -14 326 5Q276 24 247 53L323 180Q340 166 372 152Q404 138 435 138Q480 138 507.5 157Q535 176 535 212Q535 253 511 269.5Q487 286 428 294Z" glyph-name="Eszett" horiz-adv-x="717" unicode="&#7838;" /><glyph d="M109 0V317H25V437H109V750H352Q447 750 509 721.5Q571 693 607 642.5Q643 592 657.5 523.5Q672 455 672 375Q672 295 657.5 226.5Q643 158 607 107.5Q571 57 509 28.5Q447 0 352 0ZM269 437H399V317H269V146H355Q399 146 428 161.5Q457 177 474.5 206Q492 235 499 278Q506 321 506 375Q506 429 499 471.5Q492 514 474.5 543.5Q457 573 428 588.5Q399 604 355 604H269Z" glyph-name="Eth" horiz-adv-x="708" unicode="&#208;" /><glyph d="M14 236V356H81V394H14V514H94Q108 582 136.5 629.5Q165 677 205.5 707Q246 737 297 750.5Q348 764 407 764Q452 764 485.5 756.5Q519 749 542 739Q565 729 578.5 718Q592 707 598 701L529 583Q515 595 488.5 607Q462 619 415 619Q364 619 322 596.5Q280 574 258 514H510L468 394H239V356H455L413 236H258Q280 176 322 153.5Q364 131 415 131Q462 131 488.5 143Q515 155 529 167L598 49Q592 43 578.5 32Q565 21 542 11Q519 1 485.5 -6.5Q452 -14 407 -14Q348 -14 297 0Q246 14 205.5 44Q165 74 136.5 121.5Q108 169 94 236Z" glyph-name="Euro" horiz-adv-x="600" unicode="&#8364;" /><glyph d="M21 310H84Q99 410 168 462Q237 514 364 514Q412 514 448 508Q484 502 509.5 493Q535 484 552.5 473Q570 462 582 452L512 334Q499 345 468 357.5Q437 370 375 370Q321 370 290 356Q259 342 247 310H462L420 190H247Q259 158 290 144Q321 130 375 130Q437 130 468 143Q499 156 512 166L582 48Q570 38 552.5 27Q535 16 509.5 7Q484 -2 448 -8Q412 -14 364 -14Q237 -14 168 38Q99 90 84 190H21Z" glyph-name="Euro.OP" horiz-adv-x="620" unicode="&#59805;" /><glyph d="M489 306H206V0H46V750H519V604H206V449H489Z" glyph-name="F" horiz-adv-x="536" unicode="F" /><glyph d="M489 306H206V0H46V750H519V604H206V449H489ZM205 870Q205 910 226.5 932.5Q248 955 295 955Q340 955 362.5 932.5Q385 910 385 870Q385 829 362.5 807Q340 785 295 785Q248 785 226.5 807Q205 829 205 870Z" glyph-name="Fdotaccent" horiz-adv-x="536" unicode="&#7710;" /><glyph d="M358 -14Q270 -14 209 13Q148 40 111 90Q74 140 57.5 212.5Q41 285 41 375Q41 561 123.5 662.5Q206 764 384 764Q430 764 466 755.5Q502 747 529 734.5Q556 722 574.5 708Q593 694 604 683L534 565Q519 579 485 596.5Q451 614 396 614Q291 614 247 554.5Q203 495 203 375Q203 250 242.5 193Q282 136 370 136Q394 136 413 139.5Q432 143 439 148V291H340V434H599V46Q562 20 500.5 3Q439 -14 358 -14Z" glyph-name="G" horiz-adv-x="641" unicode="G" /><glyph d="M350 870Q388 870 399 878.5Q410 887 410 910H538Q538 840 496.5 807Q455 774 350 774Q245 774 203.5 807Q162 840 162 910H290Q290 887 301 878.5Q312 870 350 870ZM358 -14Q270 -14 209 13Q148 40 111 90Q74 140 57.5 212.5Q41 285 41 375Q41 561 123.5 662.5Q206 764 384 764Q430 764 466 755.5Q502 747 529 734.5Q556 722 574.5 708Q593 694 604 683L534 565Q519 579 485 596.5Q451 614 396 614Q291 614 247 554.5Q203 495 203 375Q203 250 242.5 193Q282 136 370 136Q394 136 413 139.5Q432 143 439 148V291H340V434H599V46Q562 20 500.5 3Q439 -14 358 -14Z" glyph-name="Gbreve" horiz-adv-x="641" unicode="&#286;" /><glyph d="M152 790 275 910H425L548 790H415L350 835L285 790ZM358 -14Q270 -14 209 13Q148 40 111 90Q74 140 57.5 212.5Q41 285 41 375Q41 561 123.5 662.5Q206 764 384 764Q430 764 466 755.5Q502 747 529 734.5Q556 722 574.5 708Q593 694 604 683L534 565Q519 579 485 596.5Q451 614 396 614Q291 614 247 554.5Q203 495 203 375Q203 250 242.5 193Q282 136 370 136Q394 136 413 139.5Q432 143 439 148V291H340V434H599V46Q562 20 500.5 3Q439 -14 358 -14Z" glyph-name="Gcircumflex" horiz-adv-x="641" unicode="&#284;" /><glyph d="M259 -250 273 -51H451L390 -250ZM358 -14Q270 -14 209 13Q148 40 111 90Q74 140 57.5 212.5Q41 285 41 375Q41 561 123.5 662.5Q206 764 384 764Q430 764 466 755.5Q502 747 529 734.5Q556 722 574.5 708Q593 694 604 683L534 565Q519 579 485 596.5Q451 614 396 614Q291 614 247 554.5Q203 495 203 375Q203 250 242.5 193Q282 136 370 136Q394 136 413 139.5Q432 143 439 148V291H340V434H599V46Q562 20 500.5 3Q439 -14 358 -14Z" glyph-name="Gcommaaccent" horiz-adv-x="641" unicode="&#290;" /><glyph d="M358 -14Q270 -14 209 13Q148 40 111 90Q74 140 57.5 212.5Q41 285 41 375Q41 561 123.5 662.5Q206 764 384 764Q430 764 466 755.5Q502 747 529 734.5Q556 722 574.5 708Q593 694 604 683L534 565Q519 579 485 596.5Q451 614 396 614Q291 614 247 554.5Q203 495 203 375Q203 250 242.5 193Q282 136 370 136Q394 136 413 139.5Q432 143 439 148V291H340V434H599V46Q562 20 500.5 3Q439 -14 358 -14ZM260 870Q260 910 281.5 932.5Q303 955 350 955Q395 955 417.5 932.5Q440 910 440 870Q440 829 417.5 807Q395 785 350 785Q303 785 281.5 807Q260 829 260 870Z" glyph-name="Gdotaccent" horiz-adv-x="641" unicode="&#288;" /><glyph d="M434 0V314H206V0H46V750H206V460H434V750H594V0Z" glyph-name="H" horiz-adv-x="640" unicode="H" /><glyph d="M434 0V314H206V0H46V750H206V665H434V750H594V0ZM434 460V545H206V460Z" glyph-name="Hbar" horiz-adv-x="640" unicode="&#294;" /><glyph d="M122 790 245 910H395L518 790H385L320 835L255 790ZM434 0V314H206V0H46V750H206V460H434V750H594V0Z" glyph-name="Hcircumflex" horiz-adv-x="640" unicode="&#292;" /><glyph d="M57 0V750H217V0Z" glyph-name="I" horiz-adv-x="274" unicode="I" /><glyph d="M57 0V750H217V0ZM307 160Q325 139 358 139Q381 139 393.5 151Q406 163 406 189V750H568V162Q568 84 519.5 35Q471 -14 375 -14Q324 -14 290.5 4.5Q257 23 240 46Z" glyph-name="IJ" horiz-adv-x="609" unicode="&#306;" /><glyph d="M75 790 125 910H295L195 790ZM57 0V750H217V0Z" glyph-name="Iacute" horiz-adv-x="274" unicode="&#205;" /><glyph d="M137 870Q175 870 186 878.5Q197 887 197 910H325Q325 840 283.5 807Q242 774 137 774Q32 774 -9.5 807Q-51 840 -51 910H77Q77 887 88 878.5Q99 870 137 870ZM57 0V750H217V0Z" glyph-name="Ibreve" horiz-adv-x="274" unicode="&#300;" /><glyph d="M-61 790 62 910H212L335 790H202L137 835L72 790ZM57 0V750H217V0Z" glyph-name="Icircumflex" horiz-adv-x="274" unicode="&#206;" /><glyph d="M57 0V750H217V0ZM-73 870Q-73 910 -51.5 932.5Q-30 955 17 955Q62 955 84.5 932.5Q107 910 107 870Q107 829 84.5 807Q62 785 17 785Q-30 785 -51.5 807Q-73 829 -73 870ZM167 870Q167 910 188.5 932.5Q210 955 257 955Q302 955 324.5 932.5Q347 910 347 870Q347 829 324.5 807Q302 785 257 785Q210 785 188.5 807Q167 829 167 870Z" glyph-name="Idieresis" horiz-adv-x="274" unicode="&#207;" /><glyph d="M57 0V750H217V0ZM47 870Q47 910 68.5 932.5Q90 955 137 955Q182 955 204.5 932.5Q227 910 227 870Q227 829 204.5 807Q182 785 137 785Q90 785 68.5 807Q47 829 47 870Z" glyph-name="Idotaccent" horiz-adv-x="274" unicode="&#304;" /><glyph d="M80 790 -20 910H150L200 790ZM57 0V750H217V0Z" glyph-name="Igrave" horiz-adv-x="274" unicode="&#204;" /><glyph d="M293 790H-19V910H293ZM57 0V750H217V0Z" glyph-name="Imacron" horiz-adv-x="274" unicode="&#298;" /><glyph d="M217 0Q165 -14 139.5 -45.5Q114 -77 114 -105Q114 -131 128.5 -142Q143 -153 159 -153Q178 -153 191 -147.5Q204 -142 211 -137L259 -216Q242 -230 212.5 -242.5Q183 -255 137 -255Q109 -255 83 -248Q57 -241 37.5 -226Q18 -211 6 -187.5Q-6 -164 -6 -132Q-6 -90 12 -60Q30 -30 57 -9V750H217Z" glyph-name="Iogonek" horiz-adv-x="274" unicode="&#302;" /><glyph d="M-78 790Q-78 935 52 935Q84 935 107.5 925.5Q131 916 150 904.5Q169 893 186 883.5Q203 874 221 874Q244 874 254.5 884.5Q265 895 265 910H352Q352 765 222 765Q190 765 166.5 774.5Q143 784 124 795.5Q105 807 88 816.5Q71 826 53 826Q30 826 19.5 815.5Q9 805 9 790ZM57 0V750H217V0Z" glyph-name="Itilde" horiz-adv-x="274" unicode="&#296;" /><glyph d="M67 160Q85 139 118 139Q141 139 153.5 151Q166 163 166 189V750H328V162Q328 84 279.5 35Q231 -14 135 -14Q84 -14 50.5 4.5Q17 23 0 46Z" glyph-name="J" horiz-adv-x="369" unicode="J" /><glyph d="M49 790 172 910H322L445 790H312L247 835L182 790ZM67 160Q85 139 118 139Q141 139 153.5 151Q166 163 166 189V750H328V162Q328 84 279.5 35Q231 -14 135 -14Q84 -14 50.5 4.5Q17 23 0 46Z" glyph-name="Jcircumflex" horiz-adv-x="369" unicode="&#308;" /><glyph d="M259 295 204 225V0H46V750H204V430L427 750H620L360 422L638 0H439Z" glyph-name="K" horiz-adv-x="645" unicode="K" /><glyph d="M209 -250 223 -51H401L340 -250ZM259 295 204 225V0H46V750H204V430L427 750H620L360 422L638 0H439Z" glyph-name="Kcommaaccent" horiz-adv-x="645" unicode="&#310;" /><glyph d="M206 146H509V0H46V750H206Z" glyph-name="L" horiz-adv-x="520" unicode="L" /><glyph d="M206 146H509V0H46V750H206ZM64 790 114 910H284L184 790Z" glyph-name="Lacute" horiz-adv-x="520" unicode="&#313;" /><glyph d="M206 146H509V0H46V750H206ZM400 750 352 550H286L302 750Z" glyph-name="Lcaron" horiz-adv-x="520" unicode="&#317;" /><glyph d="M184 -250 198 -51H376L315 -250ZM206 146H509V0H46V750H206Z" glyph-name="Lcommaaccent" horiz-adv-x="520" unicode="&#315;" /><glyph d="M206 146H509V0H46V750H206ZM296 387Q296 425 322 451Q348 477 386 477Q424 477 450 451Q476 425 476 387Q476 349 450 323Q424 297 386 297Q348 297 322 323Q296 349 296 387Z" glyph-name="Ldot" horiz-adv-x="520" unicode="&#319;" /><glyph d="M245 428 417 514V412L245 326V146H548V0H85V247L0 205V307L85 349V750H245Z" glyph-name="Lslash" horiz-adv-x="559" unicode="&#321;" /><glyph d="M507 0H325L199 454L204 0H46V750H272L416 212L560 750H786V0H628L633 454Z" glyph-name="M" horiz-adv-x="832" unicode="M" /><glyph d="M507 0H325L199 454L204 0H46V750H272L416 212L560 750H786V0H628L633 454ZM326 870Q326 910 347.5 932.5Q369 955 416 955Q461 955 483.5 932.5Q506 910 506 870Q506 829 483.5 807Q461 785 416 785Q369 785 347.5 807Q326 829 326 870Z" glyph-name="Mdotaccent" horiz-adv-x="832" unicode="&#7744;" /><glyph d="M442 0 200 448 204 0H46V750H204L446 302L442 750H600V0Z" glyph-name="N" horiz-adv-x="646" unicode="N" /><glyph d="M258 790 308 910H478L378 790ZM442 0 200 448 204 0H46V750H204L446 302L442 750H600V0Z" glyph-name="Nacute" horiz-adv-x="646" unicode="&#323;" /><glyph d="M521 910 398 790H248L125 910H258L323 865L388 910ZM442 0 200 448 204 0H46V750H204L446 302L442 750H600V0Z" glyph-name="Ncaron" horiz-adv-x="646" unicode="&#327;" /><glyph d="M232 -250 246 -51H424L363 -250ZM442 0 200 448 204 0H46V750H204L446 302L442 750H600V0Z" glyph-name="Ncommaaccent" horiz-adv-x="646" unicode="&#325;" /><glyph d="M108 790Q108 935 238 935Q270 935 293.5 925.5Q317 916 336 904.5Q355 893 372 883.5Q389 874 407 874Q430 874 440.5 884.5Q451 895 451 910H538Q538 765 408 765Q376 765 352.5 774.5Q329 784 310 795.5Q291 807 274 816.5Q257 826 239 826Q216 826 205.5 815.5Q195 805 195 790ZM442 0 200 448 204 0H46V750H204L446 302L442 750H600V0Z" glyph-name="Ntilde" horiz-adv-x="646" unicode="&#209;" /><glyph d="M340 -14Q252 -14 194 14.5Q136 43 102 94.5Q68 146 54.5 217.5Q41 289 41 375Q41 461 54.5 532.5Q68 604 102 655.5Q136 707 194 735.5Q252 764 340 764Q429 764 486.5 735.5Q544 707 578 655.5Q612 604 625.5 532.5Q639 461 639 375Q639 289 625.5 217.5Q612 146 578 94.5Q544 43 486.5 14.5Q429 -14 340 -14ZM340 619Q266 619 234.5 562.5Q203 506 203 375Q203 244 234.5 187.5Q266 131 340 131Q414 131 445.5 187.5Q477 244 477 375Q477 506 445.5 562.5Q414 619 340 619Z" glyph-name="O" horiz-adv-x="680" unicode="O" /><glyph d="M828 316H569V146H857V0H356Q261 0 199 28.5Q137 57 101 107.5Q65 158 50.5 226.5Q36 295 36 375Q36 455 50.5 523.5Q65 592 101 642.5Q137 693 199 721.5Q261 750 356 750H857V604H569V459H828ZM409 604H353Q309 604 280 588.5Q251 573 233.5 544Q216 515 209 472Q202 429 202 375Q202 321 209 278.5Q216 236 233.5 206.5Q251 177 280 161.5Q309 146 353 146H409Z" glyph-name="OE" horiz-adv-x="893" unicode="&#338;" /><glyph d="M275 790 325 910H495L395 790ZM340 -14Q252 -14 194 14.5Q136 43 102 94.5Q68 146 54.5 217.5Q41 289 41 375Q41 461 54.5 532.5Q68 604 102 655.5Q136 707 194 735.5Q252 764 340 764Q429 764 486.5 735.5Q544 707 578 655.5Q612 604 625.5 532.5Q639 461 639 375Q639 289 625.5 217.5Q612 146 578 94.5Q544 43 486.5 14.5Q429 -14 340 -14ZM340 619Q266 619 234.5 562.5Q203 506 203 375Q203 244 234.5 187.5Q266 131 340 131Q414 131 445.5 187.5Q477 244 477 375Q477 506 445.5 562.5Q414 619 340 619Z" glyph-name="Oacute" horiz-adv-x="680" unicode="&#211;" /><glyph d="M340 870Q378 870 389 878.5Q400 887 400 910H528Q528 840 486.5 807Q445 774 340 774Q235 774 193.5 807Q152 840 152 910H280Q280 887 291 878.5Q302 870 340 870ZM340 -14Q252 -14 194 14.5Q136 43 102 94.5Q68 146 54.5 217.5Q41 289 41 375Q41 461 54.5 532.5Q68 604 102 655.5Q136 707 194 735.5Q252 764 340 764Q429 764 486.5 735.5Q544 707 578 655.5Q612 604 625.5 532.5Q639 461 639 375Q639 289 625.5 217.5Q612 146 578 94.5Q544 43 486.5 14.5Q429 -14 340 -14ZM340 619Q266 619 234.5 562.5Q203 506 203 375Q203 244 234.5 187.5Q266 131 340 131Q414 131 445.5 187.5Q477 244 477 375Q477 506 445.5 562.5Q414 619 340 619Z" glyph-name="Obreve" horiz-adv-x="680" unicode="&#334;" /><glyph d="M142 790 265 910H415L538 790H405L340 835L275 790ZM340 -14Q252 -14 194 14.5Q136 43 102 94.5Q68 146 54.5 217.5Q41 289 41 375Q41 461 54.5 532.5Q68 604 102 655.5Q136 707 194 735.5Q252 764 340 764Q429 764 486.5 735.5Q544 707 578 655.5Q612 604 625.5 532.5Q639 461 639 375Q639 289 625.5 217.5Q612 146 578 94.5Q544 43 486.5 14.5Q429 -14 340 -14ZM340 619Q266 619 234.5 562.5Q203 506 203 375Q203 244 234.5 187.5Q266 131 340 131Q414 131 445.5 187.5Q477 244 477 375Q477 506 445.5 562.5Q414 619 340 619Z" glyph-name="Ocircumflex" horiz-adv-x="680" unicode="&#212;" /><glyph d="M340 -14Q252 -14 194 14.5Q136 43 102 94.5Q68 146 54.5 217.5Q41 289 41 375Q41 461 54.5 532.5Q68 604 102 655.5Q136 707 194 735.5Q252 764 340 764Q429 764 486.5 735.5Q544 707 578 655.5Q612 604 625.5 532.5Q639 461 639 375Q639 289 625.5 217.5Q612 146 578 94.5Q544 43 486.5 14.5Q429 -14 340 -14ZM340 619Q266 619 234.5 562.5Q203 506 203 375Q203 244 234.5 187.5Q266 131 340 131Q414 131 445.5 187.5Q477 244 477 375Q477 506 445.5 562.5Q414 619 340 619ZM130 870Q130 910 151.5 932.5Q173 955 220 955Q265 955 287.5 932.5Q310 910 310 870Q310 829 287.5 807Q265 785 220 785Q173 785 151.5 807Q130 829 130 870ZM370 870Q370 910 391.5 932.5Q413 955 460 955Q505 955 527.5 932.5Q550 910 550 870Q550 829 527.5 807Q505 785 460 785Q413 785 391.5 807Q370 829 370 870Z" glyph-name="Odieresis" horiz-adv-x="680" unicode="&#214;" /><glyph d="M286 790 186 910H356L406 790ZM340 -14Q252 -14 194 14.5Q136 43 102 94.5Q68 146 54.5 217.5Q41 289 41 375Q41 461 54.5 532.5Q68 604 102 655.5Q136 707 194 735.5Q252 764 340 764Q429 764 486.5 735.5Q544 707 578 655.5Q612 604 625.5 532.5Q639 461 639 375Q639 289 625.5 217.5Q612 146 578 94.5Q544 43 486.5 14.5Q429 -14 340 -14ZM340 619Q266 619 234.5 562.5Q203 506 203 375Q203 244 234.5 187.5Q266 131 340 131Q414 131 445.5 187.5Q477 244 477 375Q477 506 445.5 562.5Q414 619 340 619Z" glyph-name="Ograve" horiz-adv-x="680" unicode="&#210;" /><glyph d="M175 790 225 910H395L295 790ZM365 790 415 910H585L485 790ZM340 -14Q252 -14 194 14.5Q136 43 102 94.5Q68 146 54.5 217.5Q41 289 41 375Q41 461 54.5 532.5Q68 604 102 655.5Q136 707 194 735.5Q252 764 340 764Q429 764 486.5 735.5Q544 707 578 655.5Q612 604 625.5 532.5Q639 461 639 375Q639 289 625.5 217.5Q612 146 578 94.5Q544 43 486.5 14.5Q429 -14 340 -14ZM340 619Q266 619 234.5 562.5Q203 506 203 375Q203 244 234.5 187.5Q266 131 340 131Q414 131 445.5 187.5Q477 244 477 375Q477 506 445.5 562.5Q414 619 340 619Z" glyph-name="Ohungarumlaut" horiz-adv-x="680" unicode="&#336;" /><glyph d="M496 790H184V910H496ZM340 -14Q252 -14 194 14.5Q136 43 102 94.5Q68 146 54.5 217.5Q41 289 41 375Q41 461 54.5 532.5Q68 604 102 655.5Q136 707 194 735.5Q252 764 340 764Q429 764 486.5 735.5Q544 707 578 655.5Q612 604 625.5 532.5Q639 461 639 375Q639 289 625.5 217.5Q612 146 578 94.5Q544 43 486.5 14.5Q429 -14 340 -14ZM340 619Q266 619 234.5 562.5Q203 506 203 375Q203 244 234.5 187.5Q266 131 340 131Q414 131 445.5 187.5Q477 244 477 375Q477 506 445.5 562.5Q414 619 340 619Z" glyph-name="Omacron" horiz-adv-x="680" unicode="&#332;" /><glyph d="M340 -14Q290 -14 251 -5Q212 4 181 21L168 0H65L113 79Q72 131 56.5 206Q41 281 41 375Q41 461 54.5 532.5Q68 604 102 655.5Q136 707 194 735.5Q252 764 340 764Q441 764 506 724L522 750H625L572 663Q610 611 624.5 538Q639 465 639 375Q639 289 625.5 217.5Q612 146 578 94.5Q544 43 486.5 14.5Q429 -14 340 -14ZM340 619Q266 619 234.5 562.5Q203 506 203 375Q203 335 205.5 303Q208 271 214 245L424 590Q394 619 340 619ZM477 375Q477 444 468 493L262 154Q291 131 340 131Q414 131 445.5 187.5Q477 244 477 375Z" glyph-name="Oslash" horiz-adv-x="680" unicode="&#216;" /><glyph d="M125 790Q125 935 255 935Q287 935 310.5 925.5Q334 916 353 904.5Q372 893 389 883.5Q406 874 424 874Q447 874 457.5 884.5Q468 895 468 910H555Q555 765 425 765Q393 765 369.5 774.5Q346 784 327 795.5Q308 807 291 816.5Q274 826 256 826Q233 826 222.5 815.5Q212 805 212 790ZM340 -14Q252 -14 194 14.5Q136 43 102 94.5Q68 146 54.5 217.5Q41 289 41 375Q41 461 54.5 532.5Q68 604 102 655.5Q136 707 194 735.5Q252 764 340 764Q429 764 486.5 735.5Q544 707 578 655.5Q612 604 625.5 532.5Q639 461 639 375Q639 289 625.5 217.5Q612 146 578 94.5Q544 43 486.5 14.5Q429 -14 340 -14ZM340 619Q266 619 234.5 562.5Q203 506 203 375Q203 244 234.5 187.5Q266 131 340 131Q414 131 445.5 187.5Q477 244 477 375Q477 506 445.5 562.5Q414 619 340 619Z" glyph-name="Otilde" horiz-adv-x="680" unicode="&#213;" /><glyph d="M206 0H46V750H300Q375 750 426.5 729.5Q478 709 509.5 675.5Q541 642 555 597.5Q569 553 569 505Q569 456 555 412Q541 368 509.5 334Q478 300 426.5 280Q375 260 300 260H206ZM206 404H301Q331 404 349.5 414Q368 424 378.5 439Q389 454 392.5 471.5Q396 489 396 504Q396 519 392.5 536.5Q389 554 378.5 569Q368 584 349.5 594Q331 604 301 604H206Z" glyph-name="P" horiz-adv-x="580" unicode="P" /><glyph d="M206 0H46V750H300Q375 750 426.5 729.5Q478 709 509.5 675.5Q541 642 555 597.5Q569 553 569 505Q569 456 555 412Q541 368 509.5 334Q478 300 426.5 280Q375 260 300 260H206ZM206 404H301Q331 404 349.5 414Q368 424 378.5 439Q389 454 392.5 471.5Q396 489 396 504Q396 519 392.5 536.5Q389 554 378.5 569Q368 584 349.5 594Q331 604 301 604H206ZM205 870Q205 910 226.5 932.5Q248 955 295 955Q340 955 362.5 932.5Q385 910 385 870Q385 829 362.5 807Q340 785 295 785Q248 785 226.5 807Q205 829 205 870Z" glyph-name="Pdotaccent" horiz-adv-x="580" unicode="&#7766;" /><glyph d="M340 -14Q252 -14 194 14.5Q136 43 102 94.5Q68 146 54.5 217.5Q41 289 41 375Q41 461 54.5 532.5Q68 604 102 655.5Q136 707 194 735.5Q252 764 340 764Q429 764 486.5 735.5Q544 707 578 655.5Q612 604 625.5 532.5Q639 461 639 375Q639 260 614 172Q589 84 522 36L605 -105H465L409 -9Q393 -11 376 -12.5Q359 -14 340 -14ZM392 260 440 178Q460 207 468.5 255Q477 303 477 375Q477 506 445.5 562.5Q414 619 340 619Q266 619 234.5 562.5Q203 506 203 375Q203 250 231.5 193Q260 136 327 131L252 260Z" glyph-name="Q" horiz-adv-x="680" unicode="Q" /><glyph d="M206 0H46V750H301Q377 750 428 733.5Q479 717 510.5 686Q542 655 555.5 612Q569 569 569 515Q569 437 539.5 381.5Q510 326 437 300L607 0H427L278 281H206ZM206 426H315Q342 426 357.5 434Q373 442 381.5 455Q390 468 392.5 484Q395 500 395 515Q395 531 392.5 547Q390 563 381.5 575.5Q373 588 357.5 596Q342 604 315 604H206Z" glyph-name="R" horiz-adv-x="605" unicode="R" /><glyph d="M206 0H46V750H301Q377 750 428 733.5Q479 717 510.5 686Q542 655 555.5 612Q569 569 569 515Q569 437 539.5 381.5Q510 326 437 300L607 0H427L278 281H206ZM206 426H315Q342 426 357.5 434Q373 442 381.5 455Q390 468 392.5 484Q395 500 395 515Q395 531 392.5 547Q390 563 381.5 575.5Q373 588 357.5 596Q342 604 315 604H206ZM225 790 275 910H445L345 790Z" glyph-name="Racute" horiz-adv-x="620" unicode="&#340;" /><glyph d="M206 0H46V750H301Q377 750 428 733.5Q479 717 510.5 686Q542 655 555.5 612Q569 569 569 515Q569 437 539.5 381.5Q510 326 437 300L607 0H427L278 281H206ZM206 426H315Q342 426 357.5 434Q373 442 381.5 455Q390 468 392.5 484Q395 500 395 515Q395 531 392.5 547Q390 563 381.5 575.5Q373 588 357.5 596Q342 604 315 604H206ZM488 910 365 790H215L92 910H225L290 865L355 910Z" glyph-name="Rcaron" horiz-adv-x="620" unicode="&#344;" /><glyph d="M206 0H46V750H301Q377 750 428 733.5Q479 717 510.5 686Q542 655 555.5 612Q569 569 569 515Q569 437 539.5 381.5Q510 326 437 300L607 0H427L278 281H206ZM206 426H315Q342 426 357.5 434Q373 442 381.5 455Q390 468 392.5 484Q395 500 395 515Q395 531 392.5 547Q390 563 381.5 575.5Q373 588 357.5 596Q342 604 315 604H206ZM219 -250 233 -51H411L350 -250Z" glyph-name="Rcommaaccent" horiz-adv-x="620" unicode="&#342;" /><glyph d="M307 456Q369 447 417 434.5Q465 422 497.5 398.5Q530 375 547 337Q564 299 564 239Q564 169 543 121Q522 73 484.5 43Q447 13 394.5 -0.5Q342 -14 279 -14Q239 -14 200 -8Q161 -2 126 9.5Q91 21 63 36.5Q35 52 18 70L94 199Q104 191 122 180.5Q140 170 163 160.5Q186 151 213 144.5Q240 138 268 138Q342 138 371 162Q400 186 400 224Q400 267 378 284.5Q356 302 299 310Q228 319 178 335.5Q128 352 96.5 378.5Q65 405 50.5 444Q36 483 36 538Q36 589 52 630.5Q68 672 102 702Q136 732 188.5 748Q241 764 314 764Q368 764 409 755Q450 746 479 734Q508 722 526 709Q544 696 552 688L479 565Q454 583 420 597.5Q386 612 329 612Q266 612 233 593Q200 574 200 538Q200 497 224 480.5Q248 464 307 456Z" glyph-name="S" horiz-adv-x="595" unicode="S" /><glyph d="M235 790 285 910H455L355 790ZM307 456Q369 447 417 434.5Q465 422 497.5 398.5Q530 375 547 337Q564 299 564 239Q564 169 543 121Q522 73 484.5 43Q447 13 394.5 -0.5Q342 -14 279 -14Q239 -14 200 -8Q161 -2 126 9.5Q91 21 63 36.5Q35 52 18 70L94 199Q104 191 122 180.5Q140 170 163 160.5Q186 151 213 144.5Q240 138 268 138Q342 138 371 162Q400 186 400 224Q400 267 378 284.5Q356 302 299 310Q228 319 178 335.5Q128 352 96.5 378.5Q65 405 50.5 444Q36 483 36 538Q36 589 52 630.5Q68 672 102 702Q136 732 188.5 748Q241 764 314 764Q368 764 409 755Q450 746 479 734Q508 722 526 709Q544 696 552 688L479 565Q454 583 420 597.5Q386 612 329 612Q266 612 233 593Q200 574 200 538Q200 497 224 480.5Q248 464 307 456Z" glyph-name="Sacute" horiz-adv-x="595" unicode="&#346;" /><glyph d="M498 910 375 790H225L102 910H235L300 865L365 910ZM307 456Q369 447 417 434.5Q465 422 497.5 398.5Q530 375 547 337Q564 299 564 239Q564 169 543 121Q522 73 484.5 43Q447 13 394.5 -0.5Q342 -14 279 -14Q239 -14 200 -8Q161 -2 126 9.5Q91 21 63 36.5Q35 52 18 70L94 199Q104 191 122 180.5Q140 170 163 160.5Q186 151 213 144.5Q240 138 268 138Q342 138 371 162Q400 186 400 224Q400 267 378 284.5Q356 302 299 310Q228 319 178 335.5Q128 352 96.5 378.5Q65 405 50.5 444Q36 483 36 538Q36 589 52 630.5Q68 672 102 702Q136 732 188.5 748Q241 764 314 764Q368 764 409 755Q450 746 479 734Q508 722 526 709Q544 696 552 688L479 565Q454 583 420 597.5Q386 612 329 612Q266 612 233 593Q200 574 200 538Q200 497 224 480.5Q248 464 307 456Z" glyph-name="Scaron" horiz-adv-x="595" unicode="&#352;" /><glyph d="M271 -155Q291 -155 302.5 -150Q314 -145 314 -132Q314 -122 302 -111.5Q290 -101 243 -94L251 -13Q215 -11 180 -4Q145 3 114 13.5Q83 24 58.5 38.5Q34 53 18 70L94 199Q104 191 122 180.5Q140 170 163 160.5Q186 151 213 144.5Q240 138 268 138Q342 138 371 162Q400 186 400 224Q400 267 378 284.5Q356 302 299 310Q228 319 178 335.5Q128 352 96.5 378.5Q65 405 50.5 444Q36 483 36 538Q36 589 52 630.5Q68 672 102 702Q136 732 188.5 748Q241 764 314 764Q368 764 409 755Q450 746 479 734Q508 722 526 709Q544 696 552 688L479 565Q454 583 420 597.5Q386 612 329 612Q266 612 233 593Q200 574 200 538Q200 497 224 480.5Q248 464 307 456Q369 447 417 434.5Q465 422 497.5 398.5Q530 375 547 337Q564 299 564 239Q564 176 546.5 130Q529 84 497.5 54Q466 24 422 8Q378 -8 324 -12L327 -57Q373 -68 395 -89.5Q417 -111 417 -152Q417 -204 381.5 -229.5Q346 -255 288 -255Q242 -255 212.5 -242.5Q183 -230 166 -216L214 -137Q221 -142 235.5 -148.5Q250 -155 271 -155Z" glyph-name="Scedilla" horiz-adv-x="595" unicode="&#350;" /><glyph d="M652 375Q652 288 633 216Q614 144 574.5 93Q535 42 474.5 14Q414 -14 330 -14Q237 -14 179 16Q121 46 89 96Q57 146 46 213Q35 280 35 353L37 460H484Q476 531 436 572.5Q396 614 307 614Q267 614 236 606.5Q205 599 182 588.5Q159 578 144 567Q129 556 120 548L48 669Q65 685 88 702Q111 719 143 732.5Q175 746 217.5 755Q260 764 314 764Q404 764 468 736Q532 708 573 657Q614 606 633 534Q652 462 652 375ZM330 139Q371 139 400 151.5Q429 164 447.5 187Q466 210 475 242Q484 274 486 314H198Q198 278 202 246Q206 214 219.5 190Q233 166 259.5 152.5Q286 139 330 139Z" glyph-name="Schwa" horiz-adv-x="692" unicode="&#399;" /><glyph d="M102 790 225 910H375L498 790H365L300 835L235 790ZM307 456Q369 447 417 434.5Q465 422 497.5 398.5Q530 375 547 337Q564 299 564 239Q564 169 543 121Q522 73 484.5 43Q447 13 394.5 -0.5Q342 -14 279 -14Q239 -14 200 -8Q161 -2 126 9.5Q91 21 63 36.5Q35 52 18 70L94 199Q104 191 122 180.5Q140 170 163 160.5Q186 151 213 144.5Q240 138 268 138Q342 138 371 162Q400 186 400 224Q400 267 378 284.5Q356 302 299 310Q228 319 178 335.5Q128 352 96.5 378.5Q65 405 50.5 444Q36 483 36 538Q36 589 52 630.5Q68 672 102 702Q136 732 188.5 748Q241 764 314 764Q368 764 409 755Q450 746 479 734Q508 722 526 709Q544 696 552 688L479 565Q454 583 420 597.5Q386 612 329 612Q266 612 233 593Q200 574 200 538Q200 497 224 480.5Q248 464 307 456Z" glyph-name="Scircumflex" horiz-adv-x="595" unicode="&#348;" /><glyph d="M199 -250 213 -51H391L330 -250ZM307 456Q369 447 417 434.5Q465 422 497.5 398.5Q530 375 547 337Q564 299 564 239Q564 169 543 121Q522 73 484.5 43Q447 13 394.5 -0.5Q342 -14 279 -14Q239 -14 200 -8Q161 -2 126 9.5Q91 21 63 36.5Q35 52 18 70L94 199Q104 191 122 180.5Q140 170 163 160.5Q186 151 213 144.5Q240 138 268 138Q342 138 371 162Q400 186 400 224Q400 267 378 284.5Q356 302 299 310Q228 319 178 335.5Q128 352 96.5 378.5Q65 405 50.5 444Q36 483 36 538Q36 589 52 630.5Q68 672 102 702Q136 732 188.5 748Q241 764 314 764Q368 764 409 755Q450 746 479 734Q508 722 526 709Q544 696 552 688L479 565Q454 583 420 597.5Q386 612 329 612Q266 612 233 593Q200 574 200 538Q200 497 224 480.5Q248 464 307 456Z" glyph-name="Scommaaccent" horiz-adv-x="595" unicode="&#536;" /><glyph d="M356 604V0H196V604H15V750H537V604Z" glyph-name="T" horiz-adv-x="552" unicode="T" /><glyph d="M356 604V447H457V327H356V0H196V327H95V447H196V604H15V750H537V604Z" glyph-name="Tbar" horiz-adv-x="555" unicode="&#358;" /><glyph d="M474 910 351 790H201L78 910H211L276 865L341 910ZM356 604V0H196V604H15V750H537V604Z" glyph-name="Tcaron" horiz-adv-x="555" unicode="&#356;" /><glyph d="M172 -250 186 -51H364L303 -250ZM356 604V0H196V604H15V750H537V604Z" glyph-name="Tcommaaccent" horiz-adv-x="555" unicode="&#354;" /><glyph d="M356 604V0H196V604H15V750H537V604ZM186 870Q186 910 207.5 932.5Q229 955 276 955Q321 955 343.5 932.5Q366 910 366 870Q366 829 343.5 807Q321 785 276 785Q229 785 207.5 807Q186 829 186 870Z" glyph-name="Tdotaccent" horiz-adv-x="552" unicode="&#7786;" /><glyph d="M206 0H46V750H206V620H300Q375 620 426.5 599.5Q478 579 509.5 545.5Q541 512 555 467.5Q569 423 569 375Q569 326 555 282Q541 238 509.5 204Q478 170 426.5 150Q375 130 300 130H206ZM206 274H301Q331 274 349.5 284Q368 294 378.5 309Q389 324 392.5 341.5Q396 359 396 374Q396 389 392.5 406.5Q389 424 378.5 439Q368 454 349.5 464Q331 474 301 474H206Z" glyph-name="Thorn" horiz-adv-x="590" unicode="&#222;" /><glyph d="M567 342Q567 264 545.5 201Q524 138 478 93Q432 48 361 24Q290 0 191 0H115V305L34 260V337L115 382V410L34 365V442L115 487V750H274V575L405 648V571L274 498V470L405 543V466L274 393V153Q339 170 373 217Q407 264 407 342Z" glyph-name="Turkishlira" horiz-adv-x="600" /><glyph d="M498 218Q498 118 422.5 59Q347 0 190 0H104V142L28 100V177L104 219V247L28 205V282L104 324V500H263V412L384 479V402L263 335V307L384 374V297L263 230V142Q305 149 326 166.5Q347 184 347 218Z" glyph-name="Turkishlira.OP" horiz-adv-x="526" /><glyph d="M320 -14Q277 -14 228 -3.5Q179 7 137.5 34.5Q96 62 68.5 111Q41 160 41 237V750H201V245Q201 209 211.5 186.5Q222 164 239.5 151.5Q257 139 278 135Q299 131 320 131Q341 131 362 135Q383 139 400.5 151.5Q418 164 428.5 186.5Q439 209 439 245V750H599V237Q599 160 571.5 111Q544 62 502.5 34.5Q461 7 412 -3.5Q363 -14 320 -14Z" glyph-name="U" horiz-adv-x="640" unicode="U" /><glyph d="M254 790 304 910H474L374 790ZM320 -14Q277 -14 228 -3.5Q179 7 137.5 34.5Q96 62 68.5 111Q41 160 41 237V750H201V245Q201 209 211.5 186.5Q222 164 239.5 151.5Q257 139 278 135Q299 131 320 131Q341 131 362 135Q383 139 400.5 151.5Q418 164 428.5 186.5Q439 209 439 245V750H599V237Q599 160 571.5 111Q544 62 502.5 34.5Q461 7 412 -3.5Q363 -14 320 -14Z" glyph-name="Uacute" horiz-adv-x="640" unicode="&#218;" /><glyph d="M319 870Q357 870 368 878.5Q379 887 379 910H507Q507 840 465.5 807Q424 774 319 774Q214 774 172.5 807Q131 840 131 910H259Q259 887 270 878.5Q281 870 319 870ZM320 -14Q277 -14 228 -3.5Q179 7 137.5 34.5Q96 62 68.5 111Q41 160 41 237V750H201V245Q201 209 211.5 186.5Q222 164 239.5 151.5Q257 139 278 135Q299 131 320 131Q341 131 362 135Q383 139 400.5 151.5Q418 164 428.5 186.5Q439 209 439 245V750H599V237Q599 160 571.5 111Q544 62 502.5 34.5Q461 7 412 -3.5Q363 -14 320 -14Z" glyph-name="Ubreve" horiz-adv-x="640" unicode="&#364;" /><glyph d="M121 790 244 910H394L517 790H384L319 835L254 790ZM320 -14Q277 -14 228 -3.5Q179 7 137.5 34.5Q96 62 68.5 111Q41 160 41 237V750H201V245Q201 209 211.5 186.5Q222 164 239.5 151.5Q257 139 278 135Q299 131 320 131Q341 131 362 135Q383 139 400.5 151.5Q418 164 428.5 186.5Q439 209 439 245V750H599V237Q599 160 571.5 111Q544 62 502.5 34.5Q461 7 412 -3.5Q363 -14 320 -14Z" glyph-name="Ucircumflex" horiz-adv-x="640" unicode="&#219;" /><glyph d="M320 -14Q277 -14 228 -3.5Q179 7 137.5 34.5Q96 62 68.5 111Q41 160 41 237V750H201V245Q201 209 211.5 186.5Q222 164 239.5 151.5Q257 139 278 135Q299 131 320 131Q341 131 362 135Q383 139 400.5 151.5Q418 164 428.5 186.5Q439 209 439 245V750H599V237Q599 160 571.5 111Q544 62 502.5 34.5Q461 7 412 -3.5Q363 -14 320 -14ZM109 870Q109 910 130.5 932.5Q152 955 199 955Q244 955 266.5 932.5Q289 910 289 870Q289 829 266.5 807Q244 785 199 785Q152 785 130.5 807Q109 829 109 870ZM349 870Q349 910 370.5 932.5Q392 955 439 955Q484 955 506.5 932.5Q529 910 529 870Q529 829 506.5 807Q484 785 439 785Q392 785 370.5 807Q349 829 349 870Z" glyph-name="Udieresis" horiz-adv-x="640" unicode="&#220;" /><glyph d="M265 790 165 910H335L385 790ZM320 -14Q277 -14 228 -3.5Q179 7 137.5 34.5Q96 62 68.5 111Q41 160 41 237V750H201V245Q201 209 211.5 186.5Q222 164 239.5 151.5Q257 139 278 135Q299 131 320 131Q341 131 362 135Q383 139 400.5 151.5Q418 164 428.5 186.5Q439 209 439 245V750H599V237Q599 160 571.5 111Q544 62 502.5 34.5Q461 7 412 -3.5Q363 -14 320 -14Z" glyph-name="Ugrave" horiz-adv-x="640" unicode="&#217;" /><glyph d="M154 790 204 910H374L274 790ZM344 790 394 910H564L464 790ZM320 -14Q277 -14 228 -3.5Q179 7 137.5 34.5Q96 62 68.5 111Q41 160 41 237V750H201V245Q201 209 211.5 186.5Q222 164 239.5 151.5Q257 139 278 135Q299 131 320 131Q341 131 362 135Q383 139 400.5 151.5Q418 164 428.5 186.5Q439 209 439 245V750H599V237Q599 160 571.5 111Q544 62 502.5 34.5Q461 7 412 -3.5Q363 -14 320 -14Z" glyph-name="Uhungarumlaut" horiz-adv-x="640" unicode="&#368;" /><glyph d="M475 790H163V910H475ZM320 -14Q277 -14 228 -3.5Q179 7 137.5 34.5Q96 62 68.5 111Q41 160 41 237V750H201V245Q201 209 211.5 186.5Q222 164 239.5 151.5Q257 139 278 135Q299 131 320 131Q341 131 362 135Q383 139 400.5 151.5Q418 164 428.5 186.5Q439 209 439 245V750H599V237Q599 160 571.5 111Q544 62 502.5 34.5Q461 7 412 -3.5Q363 -14 320 -14Z" glyph-name="Umacron" horiz-adv-x="640" unicode="&#362;" /><glyph d="M599 237Q599 181 584 140Q569 99 544 70.5Q519 42 487 25Q455 8 421 -1Q371 -16 347 -47Q323 -78 323 -105Q323 -131 337.5 -142Q352 -153 368 -153Q387 -153 400 -147.5Q413 -142 420 -137L468 -216Q451 -230 421.5 -242.5Q392 -255 346 -255Q318 -255 292 -248Q266 -241 246.5 -226Q227 -211 215 -187.5Q203 -164 203 -132Q203 -91 220.5 -61.5Q238 -32 264 -10Q225 -5 185 9.5Q145 24 113 52.5Q81 81 61 126Q41 171 41 237V750H201V245Q201 209 211.5 186.5Q222 164 239.5 151.5Q257 139 278 135Q299 131 320 131Q341 131 362 135Q383 139 400.5 151.5Q418 164 428.5 186.5Q439 209 439 245V750H599Z" glyph-name="Uogonek" horiz-adv-x="640" unicode="&#370;" /><glyph d="M425 860Q425 806 396 785.5Q367 765 319 765Q271 765 242 785.5Q213 806 213 860Q213 914 242 934.5Q271 955 319 955Q367 955 396 934.5Q425 914 425 860ZM297 860Q297 849 319 849Q341 849 341 860Q341 871 319 871Q297 871 297 860ZM320 -14Q277 -14 228 -3.5Q179 7 137.5 34.5Q96 62 68.5 111Q41 160 41 237V750H201V245Q201 209 211.5 186.5Q222 164 239.5 151.5Q257 139 278 135Q299 131 320 131Q341 131 362 135Q383 139 400.5 151.5Q418 164 428.5 186.5Q439 209 439 245V750H599V237Q599 160 571.5 111Q544 62 502.5 34.5Q461 7 412 -3.5Q363 -14 320 -14Z" glyph-name="Uring" horiz-adv-x="640" unicode="&#366;" /><glyph d="M104 790Q104 935 234 935Q266 935 289.5 925.5Q313 916 332 904.5Q351 893 368 883.5Q385 874 403 874Q426 874 436.5 884.5Q447 895 447 910H534Q534 765 404 765Q372 765 348.5 774.5Q325 784 306 795.5Q287 807 270 816.5Q253 826 235 826Q212 826 201.5 815.5Q191 805 191 790ZM320 -14Q277 -14 228 -3.5Q179 7 137.5 34.5Q96 62 68.5 111Q41 160 41 237V750H201V245Q201 209 211.5 186.5Q222 164 239.5 151.5Q257 139 278 135Q299 131 320 131Q341 131 362 135Q383 139 400.5 151.5Q418 164 428.5 186.5Q439 209 439 245V750H599V237Q599 160 571.5 111Q544 62 502.5 34.5Q461 7 412 -3.5Q363 -14 320 -14Z" glyph-name="Utilde" horiz-adv-x="640" unicode="&#360;" /><glyph d="M620 750 412 -4H228L20 750H190L320 179L450 750Z" glyph-name="V" horiz-adv-x="640" unicode="V" /><glyph d="M550 750 633 227 694 750H865L749 -4H541L445 559L349 -4H141L25 750H196L257 227L340 750Z" glyph-name="W" horiz-adv-x="890" unicode="W" /><glyph d="M383 790 433 910H603L503 790ZM550 750 633 227 694 750H865L749 -4H541L445 559L349 -4H141L25 750H196L257 227L340 750Z" glyph-name="Wacute" horiz-adv-x="890" unicode="&#7810;" /><glyph d="M247 790 370 910H520L643 790H510L445 835L380 790ZM550 750 633 227 694 750H865L749 -4H541L445 559L349 -4H141L25 750H196L257 227L340 750Z" glyph-name="Wcircumflex" horiz-adv-x="890" unicode="&#372;" /><glyph d="M550 750 633 227 694 750H865L749 -4H541L445 559L349 -4H141L25 750H196L257 227L340 750ZM235 870Q235 910 256.5 932.5Q278 955 325 955Q370 955 392.5 932.5Q415 910 415 870Q415 829 392.5 807Q370 785 325 785Q278 785 256.5 807Q235 829 235 870ZM475 870Q475 910 496.5 932.5Q518 955 565 955Q610 955 632.5 932.5Q655 910 655 870Q655 829 632.5 807Q610 785 565 785Q518 785 496.5 807Q475 829 475 870Z" glyph-name="Wdieresis" horiz-adv-x="890" unicode="&#7812;" /><glyph d="M388 790 288 910H458L508 790ZM550 750 633 227 694 750H865L749 -4H541L445 559L349 -4H141L25 750H196L257 227L340 750Z" glyph-name="Wgrave" horiz-adv-x="890" unicode="&#7808;" /><glyph d="M338 269 207 0H19L226 390L32 750H216L338 482L460 750H644L450 390L657 0H469Z" glyph-name="X" horiz-adv-x="678" unicode="X" /><glyph d="M409 291V0H247V291L9 750H192L328 437L464 750H647Z" glyph-name="Y" horiz-adv-x="656" unicode="Y" /><glyph d="M263 790 313 910H483L383 790ZM409 291V0H247V291L9 750H192L328 437L464 750H647Z" glyph-name="Yacute" horiz-adv-x="656" unicode="&#221;" /><glyph d="M130 790 253 910H403L526 790H393L328 835L263 790ZM409 291V0H247V291L9 750H192L328 437L464 750H647Z" glyph-name="Ycircumflex" horiz-adv-x="656" unicode="&#374;" /><glyph d="M409 291V0H247V291L9 750H192L328 437L464 750H647ZM118 870Q118 910 139.5 932.5Q161 955 208 955Q253 955 275.5 932.5Q298 910 298 870Q298 829 275.5 807Q253 785 208 785Q161 785 139.5 807Q118 829 118 870ZM358 870Q358 910 379.5 932.5Q401 955 448 955Q493 955 515.5 932.5Q538 910 538 870Q538 829 515.5 807Q493 785 448 785Q401 785 379.5 807Q358 829 358 870Z" glyph-name="Ydieresis" horiz-adv-x="656" unicode="&#376;" /><glyph d="M273 790 173 910H343L393 790ZM9 750H192L328 437L464 750H647L409 291V0H247V291Z" glyph-name="Ygrave" horiz-adv-x="656" unicode="&#7922;" /><glyph d="M409 291V0H247V291L9 750H192L328 437L464 750H647ZM483 790H171V910H483Z" glyph-name="Ymacron" horiz-adv-x="656" unicode="&#562;" /><glyph d="M30 0V106L365 596L60 593V750H584V644L249 154L599 157V0Z" glyph-name="Z" horiz-adv-x="629" unicode="Z" /><glyph d="M255 790 305 910H475L375 790ZM30 0V106L365 596L60 593V750H584V644L249 154L599 157V0Z" glyph-name="Zacute" horiz-adv-x="630" unicode="&#377;" /><glyph d="M518 910 395 790H245L122 910H255L320 865L385 910ZM30 0V106L365 596L60 593V750H584V644L249 154L599 157V0Z" glyph-name="Zcaron" horiz-adv-x="630" unicode="&#381;" /><glyph d="M30 0V106L365 596L60 593V750H584V644L249 154L599 157V0ZM230 870Q230 910 251.5 932.5Q273 955 320 955Q365 955 387.5 932.5Q410 910 410 870Q410 829 387.5 807Q365 785 320 785Q273 785 251.5 807Q230 829 230 870Z" glyph-name="Zdotaccent" horiz-adv-x="630" unicode="&#379;" /><glyph d="M303 341Q303 361 286.5 373Q270 385 229 385Q193 385 155 371.5Q117 358 88 332L25 439Q38 450 57 463.5Q76 477 103 488Q130 499 166 506.5Q202 514 248 514Q308 514 348 500Q388 486 412.5 461.5Q437 437 447.5 403.5Q458 370 458 330V0H362L340 38Q313 14 275.5 0Q238 -14 193 -14Q145 -14 112.5 0.5Q80 15 60 37.5Q40 60 31.5 88.5Q23 117 23 145Q23 196 40 226.5Q57 257 84 274.5Q111 292 144.5 299Q178 306 212 309L303 318ZM236 222Q202 217 187.5 200.5Q173 184 173 155Q173 127 189 111.5Q205 96 231 96Q253 96 272 102Q291 108 303 120V231Z" glyph-name="a" horiz-adv-x="498" unicode="a" /><glyph d="M344 363Q335 369 324 374Q313 378 300.5 381Q288 384 273 384Q218 384 200.5 349Q183 314 183 250Q183 186 200.5 151Q218 116 273 116Q288 116 301 119.5Q314 123 324 127Q335 131 344 137ZM504 0H408L381 40Q355 17 317 1.5Q279 -14 219 -14Q121 -14 73 48.5Q25 111 25 250Q25 389 73 451.5Q121 514 219 514Q279 514 317 498.5Q355 483 381 460L408 500H504Z" glyph-name="a.school" horiz-adv-x="549" unicode="&#57681;" /><glyph d="M376 0 356 80H210L190 0H5L180 508H386L561 0ZM238 194H328L283 380Z" glyph-name="a.smcp" horiz-adv-x="566" unicode="&#57857;" /><glyph d="M185 550 250 750H410L305 550ZM303 341Q303 361 286.5 373Q270 385 229 385Q193 385 155 371.5Q117 358 88 332L25 439Q38 450 57 463.5Q76 477 103 488Q130 499 166 506.5Q202 514 248 514Q308 514 348 500Q388 486 412.5 461.5Q437 437 447.5 403.5Q458 370 458 330V0H362L340 38Q313 14 275.5 0Q238 -14 193 -14Q145 -14 112.5 0.5Q80 15 60 37.5Q40 60 31.5 88.5Q23 117 23 145Q23 196 40 226.5Q57 257 84 274.5Q111 292 144.5 299Q178 306 212 309L303 318ZM236 222Q202 217 187.5 200.5Q173 184 173 155Q173 127 189 111.5Q205 96 231 96Q253 96 272 102Q291 108 303 120V231Z" glyph-name="aacute" horiz-adv-x="498" unicode="&#225;" /><glyph d="M344 363Q335 369 324 374Q313 378 300.5 381Q288 384 273 384Q218 384 200.5 349Q183 314 183 250Q183 186 200.5 151Q218 116 273 116Q288 116 301 119.5Q314 123 324 127Q335 131 344 137ZM504 0H408L381 40Q355 17 317 1.5Q279 -14 219 -14Q121 -14 73 48.5Q25 111 25 250Q25 389 73 451.5Q121 514 219 514Q279 514 317 498.5Q355 483 381 460L408 500H504ZM205 550 270 750H430L325 550Z" glyph-name="aacute.school" horiz-adv-x="549" unicode="&#57683;" /><glyph d="M223 550 288 750H448L343 550ZM376 0 356 80H210L190 0H5L180 508H386L561 0ZM238 194H328L283 380Z" glyph-name="aacute.smcp" horiz-adv-x="566" unicode="&#57889;" /><glyph d="M250 664Q293 664 311.5 681Q330 698 330 750H448Q448 692 435.5 653.5Q423 615 398 592Q373 569 336 559.5Q299 550 250 550Q201 550 164 559.5Q127 569 102 592Q77 615 64.5 653.5Q52 692 52 750H170Q170 698 188.5 681Q207 664 250 664ZM303 341Q303 361 286.5 373Q270 385 229 385Q193 385 155 371.5Q117 358 88 332L25 439Q38 450 57 463.5Q76 477 103 488Q130 499 166 506.5Q202 514 248 514Q308 514 348 500Q388 486 412.5 461.5Q437 437 447.5 403.5Q458 370 458 330V0H362L340 38Q313 14 275.5 0Q238 -14 193 -14Q145 -14 112.5 0.5Q80 15 60 37.5Q40 60 31.5 88.5Q23 117 23 145Q23 196 40 226.5Q57 257 84 274.5Q111 292 144.5 299Q178 306 212 309L303 318ZM236 222Q202 217 187.5 200.5Q173 184 173 155Q173 127 189 111.5Q205 96 231 96Q253 96 272 102Q291 108 303 120V231Z" glyph-name="abreve" horiz-adv-x="498" unicode="&#259;" /><glyph d="M344 363Q335 369 324 374Q313 378 300.5 381Q288 384 273 384Q218 384 200.5 349Q183 314 183 250Q183 186 200.5 151Q218 116 273 116Q288 116 301 119.5Q314 123 324 127Q335 131 344 137ZM504 0H408L381 40Q355 17 317 1.5Q279 -14 219 -14Q121 -14 73 48.5Q25 111 25 250Q25 389 73 451.5Q121 514 219 514Q279 514 317 498.5Q355 483 381 460L408 500H504ZM270 664Q313 664 331.5 681Q350 698 350 750H468Q468 692 455.5 653.5Q443 615 418 592Q393 569 356 559.5Q319 550 270 550Q221 550 184 559.5Q147 569 122 592Q97 615 84.5 653.5Q72 692 72 750H190Q190 698 208.5 681Q227 664 270 664Z" glyph-name="abreve.school" horiz-adv-x="549" unicode="&#57690;" /><glyph d="M283 664Q326 664 344.5 681Q363 698 363 750H481Q481 692 468.5 653.5Q456 615 431 592Q406 569 369 559.5Q332 550 283 550Q234 550 197 559.5Q160 569 135 592Q110 615 97.5 653.5Q85 692 85 750H203Q203 698 221.5 681Q240 664 283 664ZM376 0 356 80H210L190 0H5L180 508H386L561 0ZM238 194H328L283 380Z" glyph-name="abreve.smcp" horiz-adv-x="566" unicode="&#57897;" /><glyph d="M42 550 175 750H325L458 550H335L250 645L165 550ZM303 341Q303 361 286.5 373Q270 385 229 385Q193 385 155 371.5Q117 358 88 332L25 439Q38 450 57 463.5Q76 477 103 488Q130 499 166 506.5Q202 514 248 514Q308 514 348 500Q388 486 412.5 461.5Q437 437 447.5 403.5Q458 370 458 330V0H362L340 38Q313 14 275.5 0Q238 -14 193 -14Q145 -14 112.5 0.5Q80 15 60 37.5Q40 60 31.5 88.5Q23 117 23 145Q23 196 40 226.5Q57 257 84 274.5Q111 292 144.5 299Q178 306 212 309L303 318ZM236 222Q202 217 187.5 200.5Q173 184 173 155Q173 127 189 111.5Q205 96 231 96Q253 96 272 102Q291 108 303 120V231Z" glyph-name="acircumflex" horiz-adv-x="498" unicode="&#226;" /><glyph d="M344 363Q335 369 324 374Q313 378 300.5 381Q288 384 273 384Q218 384 200.5 349Q183 314 183 250Q183 186 200.5 151Q218 116 273 116Q288 116 301 119.5Q314 123 324 127Q335 131 344 137ZM504 0H408L381 40Q355 17 317 1.5Q279 -14 219 -14Q121 -14 73 48.5Q25 111 25 250Q25 389 73 451.5Q121 514 219 514Q279 514 317 498.5Q355 483 381 460L408 500H504ZM62 550 195 750H345L478 550H355L270 645L185 550Z" glyph-name="acircumflex.school" horiz-adv-x="549" unicode="&#57684;" /><glyph d="M76 550 209 750H359L492 550H369L284 645L199 550ZM376 0 356 80H210L190 0H5L180 508H386L561 0ZM238 194H328L283 380Z" glyph-name="acircumflex.smcp" horiz-adv-x="566" unicode="&#57891;" /><glyph d="M185 550 250 750H410L305 550Z" glyph-name="acute" horiz-adv-x="500" unicode="&#180;" /><glyph d="M185 790 235 910H405L305 790Z" glyph-name="acute.cap" horiz-adv-x="500" unicode="&#58402;" /><glyph d="M303 341Q303 361 286.5 373Q270 385 229 385Q193 385 155 371.5Q117 358 88 332L25 439Q38 450 57 463.5Q76 477 103 488Q130 499 166 506.5Q202 514 248 514Q308 514 348 500Q388 486 412.5 461.5Q437 437 447.5 403.5Q458 370 458 330V0H362L340 38Q313 14 275.5 0Q238 -14 193 -14Q145 -14 112.5 0.5Q80 15 60 37.5Q40 60 31.5 88.5Q23 117 23 145Q23 196 40 226.5Q57 257 84 274.5Q111 292 144.5 299Q178 306 212 309L303 318ZM236 222Q202 217 187.5 200.5Q173 184 173 155Q173 127 189 111.5Q205 96 231 96Q253 96 272 102Q291 108 303 120V231ZM40 645Q40 683 66 709Q92 735 130 735Q168 735 194 709Q220 683 220 645Q220 607 194 581Q168 555 130 555Q92 555 66 581Q40 607 40 645ZM280 645Q280 683 306 709Q332 735 370 735Q408 735 434 709Q460 683 460 645Q460 607 434 581Q408 555 370 555Q332 555 306 581Q280 607 280 645Z" glyph-name="adieresis" horiz-adv-x="498" unicode="&#228;" /><glyph d="M344 363Q335 369 324 374Q313 378 300.5 381Q288 384 273 384Q218 384 200.5 349Q183 314 183 250Q183 186 200.5 151Q218 116 273 116Q288 116 301 119.5Q314 123 324 127Q335 131 344 137ZM504 0H408L381 40Q355 17 317 1.5Q279 -14 219 -14Q121 -14 73 48.5Q25 111 25 250Q25 389 73 451.5Q121 514 219 514Q279 514 317 498.5Q355 483 381 460L408 500H504ZM60 645Q60 683 86 709Q112 735 150 735Q188 735 214 709Q240 683 240 645Q240 607 214 581Q188 555 150 555Q112 555 86 581Q60 607 60 645ZM300 645Q300 683 326 709Q352 735 390 735Q428 735 454 709Q480 683 480 645Q480 607 454 581Q428 555 390 555Q352 555 326 581Q300 607 300 645Z" glyph-name="adieresis.school" horiz-adv-x="549" unicode="&#57685;" /><glyph d="M376 0 356 80H210L190 0H5L180 508H386L561 0ZM238 194H328L283 380ZM73 645Q73 683 99 709Q125 735 163 735Q201 735 227 709Q253 683 253 645Q253 607 227 581Q201 555 163 555Q125 555 99 581Q73 607 73 645ZM313 645Q313 683 339 709Q365 735 403 735Q441 735 467 709Q493 683 493 645Q493 607 467 581Q441 555 403 555Q365 555 339 581Q313 607 313 645Z" glyph-name="adieresis.smcp" horiz-adv-x="566" unicode="&#57892;" /><glyph d="M318 129Q314 142 310 164Q306 186 304 202H235Q206 202 189.5 189Q173 176 173 148Q173 129 187.5 112.5Q202 96 231 96Q260 96 281 105.5Q302 115 318 129ZM559 113Q607 113 647 127.5Q687 142 705 158L764 58Q751 46 731 33.5Q711 21 683.5 10.5Q656 0 622 -7Q588 -14 547 -14Q430 -14 371 42Q329 8 281.5 -3Q234 -14 193 -14Q145 -14 112.5 0.5Q80 15 60 37.5Q40 60 31.5 88.5Q23 117 23 145Q23 195 40 225Q57 255 84.5 272Q112 289 146.5 294.5Q181 300 216 300H303V337Q303 357 287 371Q271 385 229 385Q193 385 155 371.5Q117 358 88 332L25 439Q38 450 57 463.5Q76 477 103 488Q130 499 166 506.5Q202 514 248 514Q296 514 332 504Q368 494 393 477Q446 514 536 514Q616 514 661.5 487.5Q707 461 729 417Q751 373 754 317Q757 261 752 202H460Q460 156 486 134.5Q512 113 559 113ZM538 394Q497 394 478.5 371Q460 348 460 300H602Q609 342 596.5 368Q584 394 538 394Z" glyph-name="ae" horiz-adv-x="786" unicode="&#230;" /><glyph d="M703 187H506L517 132H731V0H376L362 80H209L181 0H0L225 500H731V368H469L480 313H703ZM248 194H339L309 371Z" glyph-name="ae.smcp" horiz-adv-x="770" unicode="&#57905;" /><glyph d="M213 453Q221 464 227.5 483Q234 502 238.5 524Q243 546 245.5 568Q248 590 248 608Q248 630 234 630Q224 630 218.5 616.5Q213 603 213 573ZM212 176Q212 147 226 131Q240 115 278 115Q294 115 307.5 117Q321 119 327 121V-4Q310 -9 286 -11.5Q262 -14 245 -14Q140 -14 96 30.5Q52 75 52 163V169L10 144V273L52 305V512Q52 586 65.5 634.5Q79 683 103 711.5Q127 740 159 752Q191 764 228 764Q304 764 335.5 722Q367 680 367 606Q367 552 353 504Q339 456 317 414.5Q295 373 267 338Q239 303 212 275Z" glyph-name="afii61289" horiz-adv-x="388" unicode="&#8467;" /><glyph d="M195 550 90 750H250L315 550ZM303 341Q303 361 286.5 373Q270 385 229 385Q193 385 155 371.5Q117 358 88 332L25 439Q38 450 57 463.5Q76 477 103 488Q130 499 166 506.5Q202 514 248 514Q308 514 348 500Q388 486 412.5 461.5Q437 437 447.5 403.5Q458 370 458 330V0H362L340 38Q313 14 275.5 0Q238 -14 193 -14Q145 -14 112.5 0.5Q80 15 60 37.5Q40 60 31.5 88.5Q23 117 23 145Q23 196 40 226.5Q57 257 84 274.5Q111 292 144.5 299Q178 306 212 309L303 318ZM236 222Q202 217 187.5 200.5Q173 184 173 155Q173 127 189 111.5Q205 96 231 96Q253 96 272 102Q291 108 303 120V231Z" glyph-name="agrave" horiz-adv-x="498" unicode="&#224;" /><glyph d="M344 363Q335 369 324 374Q313 378 300.5 381Q288 384 273 384Q218 384 200.5 349Q183 314 183 250Q183 186 200.5 151Q218 116 273 116Q288 116 301 119.5Q314 123 324 127Q335 131 344 137ZM504 0H408L381 40Q355 17 317 1.5Q279 -14 219 -14Q121 -14 73 48.5Q25 111 25 250Q25 389 73 451.5Q121 514 219 514Q279 514 317 498.5Q355 483 381 460L408 500H504ZM215 550 110 750H270L335 550Z" glyph-name="agrave.school" horiz-adv-x="549" unicode="&#57682;" /><glyph d="M219 550 114 750H274L339 550ZM376 0 356 80H210L190 0H5L180 508H386L561 0ZM238 194H328L283 380Z" glyph-name="agrave.smcp" horiz-adv-x="566" unicode="&#57890;" /><glyph d="M233 -155Q253 -155 264.5 -150Q276 -145 276 -132Q276 -122 264 -111.5Q252 -101 205 -94L211 -38Q264 -43 296.5 -53Q329 -63 347.5 -78Q366 -93 372.5 -112Q379 -131 379 -152Q379 -204 343.5 -229.5Q308 -255 250 -255Q204 -255 174.5 -242.5Q145 -230 128 -216L176 -137Q183 -142 197.5 -148.5Q212 -155 233 -155Z" glyph-name="altcedilla" horiz-adv-x="500" unicode="&#58390;" /><glyph d="M406 585H94V705H406ZM303 341Q303 361 286.5 373Q270 385 229 385Q193 385 155 371.5Q117 358 88 332L25 439Q38 450 57 463.5Q76 477 103 488Q130 499 166 506.5Q202 514 248 514Q308 514 348 500Q388 486 412.5 461.5Q437 437 447.5 403.5Q458 370 458 330V0H362L340 38Q313 14 275.5 0Q238 -14 193 -14Q145 -14 112.5 0.5Q80 15 60 37.5Q40 60 31.5 88.5Q23 117 23 145Q23 196 40 226.5Q57 257 84 274.5Q111 292 144.5 299Q178 306 212 309L303 318ZM236 222Q202 217 187.5 200.5Q173 184 173 155Q173 127 189 111.5Q205 96 231 96Q253 96 272 102Q291 108 303 120V231Z" glyph-name="amacron" horiz-adv-x="498" unicode="&#257;" /><glyph d="M426 585H114V705H426ZM344 363Q335 369 324 374Q313 378 300.5 381Q288 384 273 384Q218 384 200.5 349Q183 314 183 250Q183 186 200.5 151Q218 116 273 116Q288 116 301 119.5Q314 123 324 127Q335 131 344 137ZM504 0H408L381 40Q355 17 317 1.5Q279 -14 219 -14Q121 -14 73 48.5Q25 111 25 250Q25 389 73 451.5Q121 514 219 514Q279 514 317 498.5Q355 483 381 460L408 500H504Z" glyph-name="amacron.school" horiz-adv-x="549" unicode="&#57689;" /><glyph d="M439 585H127V705H439ZM376 0 356 80H210L190 0H5L180 508H386L561 0ZM238 194H328L283 380Z" glyph-name="amacron.smcp" horiz-adv-x="566" unicode="&#57896;" /><glyph d="M33 203Q33 287 62.5 338Q92 389 150 424Q122 492 122 559Q122 593 132.5 629Q143 665 167 695Q191 725 230.5 744.5Q270 764 328 764Q385 764 422.5 749.5Q460 735 482.5 709.5Q505 684 514 649.5Q523 615 523 575Q523 502 483 456Q443 410 368 372Q395 337 428 303.5Q461 270 499 239Q532 288 548.5 355Q565 422 565 500H727Q727 391 700.5 304.5Q674 218 628 154Q657 139 688 126.5Q719 114 745 106L669 -22Q639 -12 599.5 5.5Q560 23 520 49Q472 17 418.5 1.5Q365 -14 307 -14Q174 -14 103.5 42.5Q33 99 33 203ZM311 136Q346 136 377 145Q333 180 295 217Q257 254 225 296Q195 266 195 227Q195 179 228.5 157.5Q262 136 311 136ZM284 561Q284 531 298 492Q331 507 351.5 525Q372 543 372 573Q372 594 363 604Q354 614 330 614Q304 614 294 601Q284 588 284 561Z" glyph-name="ampersand" horiz-adv-x="765" unicode="&amp;" /><glyph d="M193 300 327 -200H172L40 300L172 800H327Z" glyph-name="anglebracketleft" horiz-adv-x="360" unicode="&#12296;" /><glyph d="M203 375 317 -50H162L50 375L162 800H317Z" glyph-name="anglebracketleft.cap" horiz-adv-x="360" unicode="&#58519;" /><glyph d="M219 250 300 -50H145L66 250L145 550H300Z" glyph-name="anglebracketleft.smcp" horiz-adv-x="360" unicode="&#58527;" /><glyph d="M33 800H188L320 300L188 -200H33L167 300Z" glyph-name="anglebracketright" horiz-adv-x="360" unicode="&#12297;" /><glyph d="M43 800H198L310 375L198 -50H43L157 375Z" glyph-name="anglebracketright.cap" horiz-adv-x="360" unicode="&#58520;" /><glyph d="M60 550H215L294 250L215 -50H60L141 250Z" glyph-name="anglebracketright.smcp" horiz-adv-x="360" unicode="&#58512;" /><glyph d="M190 0H5L180 508H386L561 0H376L283 380Z" glyph-name="anocross.smcp" horiz-adv-x="566" unicode="&#57888;" /><glyph d="M303 341Q303 361 286.5 373Q270 385 229 385Q193 385 155 371.5Q117 358 88 332L25 439Q38 450 57 463.5Q76 477 103 488Q130 499 166 506.5Q202 514 248 514Q308 514 348 500Q388 486 412.5 461.5Q437 437 447.5 403.5Q458 370 458 330V0Q406 -14 380.5 -45.5Q355 -77 355 -105Q355 -131 369.5 -142Q384 -153 400 -153Q419 -153 432 -147.5Q445 -142 452 -137L500 -216Q483 -230 453.5 -242.5Q424 -255 378 -255Q350 -255 324 -248Q298 -241 278.5 -226Q259 -211 247 -187.5Q235 -164 235 -132Q235 -102 244.5 -78Q254 -54 270 -35.5Q286 -17 306.5 -2.5Q327 12 349 22L340 38Q313 14 275.5 0Q238 -14 193 -14Q145 -14 112.5 0.5Q80 15 60 37.5Q40 60 31.5 88.5Q23 117 23 145Q23 196 40 226.5Q57 257 84 274.5Q111 292 144.5 299Q178 306 212 309L303 318ZM236 222Q202 217 187.5 200.5Q173 184 173 155Q173 127 189 111.5Q205 96 231 96Q253 96 272 102Q291 108 303 120V231Z" glyph-name="aogonek" horiz-adv-x="498" unicode="&#261;" /><glyph d="M504 0Q452 -14 426.5 -45.5Q401 -77 401 -105Q401 -131 415.5 -142Q430 -153 446 -153Q465 -153 478 -147.5Q491 -142 498 -137L546 -216Q529 -230 499.5 -242.5Q470 -255 424 -255Q396 -255 370 -248Q344 -241 324.5 -226Q305 -211 293 -187.5Q281 -164 281 -132Q281 -103 290.5 -79.5Q300 -56 315.5 -37Q331 -18 351 -3.5Q371 11 393 21L381 40Q355 17 317 1.5Q279 -14 219 -14Q121 -14 73 48.5Q25 111 25 250Q25 389 73 451.5Q121 514 219 514Q279 514 317 498.5Q355 483 381 460L408 500H504ZM344 363Q335 369 324 374Q313 378 300.5 381Q288 384 273 384Q218 384 200.5 349Q183 314 183 250Q183 186 200.5 151Q218 116 273 116Q288 116 301 119.5Q314 123 324 127Q335 131 344 137Z" glyph-name="aogonek.school" horiz-adv-x="549" unicode="&#57680;" /><glyph d="M561 0Q509 -14 483.5 -45.5Q458 -77 458 -105Q458 -131 472.5 -142Q487 -153 503 -153Q522 -153 535 -147.5Q548 -142 555 -137L603 -216Q586 -230 556.5 -242.5Q527 -255 481 -255Q453 -255 427 -248Q401 -241 381.5 -226Q362 -211 350 -187.5Q338 -164 338 -132Q338 -98 350 -71.5Q362 -45 382 -25L356 80H210L190 0H5L180 508H386ZM238 194H328L283 380Z" glyph-name="aogonek.smcp" horiz-adv-x="566" unicode="&#57903;" /><glyph d="M550 195Q537 183 507.5 172Q478 161 439 161Q396 161 361 172Q326 183 293 196Q260 209 227 220Q194 231 156 231Q120 231 90 218Q60 205 50 194V348Q63 360 92.5 371Q122 382 161 382Q204 382 239 371Q274 360 307 347Q340 334 373 323Q406 312 444 312Q480 312 510 325Q540 338 550 349ZM550 402Q537 390 507.5 379Q478 368 439 368Q396 368 361 379Q326 390 293 403Q260 416 227 427Q194 438 156 438Q120 438 90 425Q60 412 50 401V555Q63 567 92.5 578Q122 589 161 589Q204 589 239 578Q274 567 307 554Q340 541 373 530Q406 519 444 519Q480 519 510 532Q540 545 550 556Z" glyph-name="approxequal" horiz-adv-x="600" unicode="&#8776;" /><glyph d="M636 526Q664 526 692 532Q720 538 745 547.5Q770 557 790.5 570Q811 583 825 597V442Q797 415 746 394Q695 373 632 373Q588 373 554 383Q520 393 492 408.5Q464 424 439 441.5Q414 459 388 474.5Q362 490 332 500Q302 510 264 510Q236 510 208 504Q180 498 155 488.5Q130 479 109.5 466Q89 453 75 439V594Q103 621 154 642Q205 663 268 663Q312 663 345.5 653Q379 643 407.5 627.5Q436 612 461 594.5Q486 577 512.5 561.5Q539 546 568.5 536Q598 526 636 526ZM636 240Q664 240 692 246Q720 252 745 261.5Q770 271 790.5 284Q811 297 825 311V156Q797 129 746 108Q695 87 632 87Q588 87 554 97Q520 107 492 122.5Q464 138 439 155.5Q414 173 388 188.5Q362 204 332 214Q302 224 264 224Q236 224 208 218Q180 212 155 202.5Q130 193 109.5 180Q89 167 75 153V308Q103 335 154 356Q205 377 268 377Q312 377 345.5 367Q379 357 407.5 341.5Q436 326 461 308.5Q486 291 512.5 275.5Q539 260 568.5 250Q598 240 636 240Z" glyph-name="approxequal.cap" horiz-adv-x="863" unicode="&#61990;" /><glyph d="M356 650Q356 596 327 570.5Q298 545 250 545Q202 545 173 570.5Q144 596 144 650Q144 704 173 729.5Q202 755 250 755Q298 755 327 729.5Q356 704 356 650ZM228 650Q228 638 233.5 633.5Q239 629 250 629Q261 629 266.5 633.5Q272 638 272 650Q272 662 266.5 666.5Q261 671 250 671Q239 671 233.5 666.5Q228 662 228 650ZM303 341Q303 361 286.5 373Q270 385 229 385Q193 385 155 371.5Q117 358 88 332L25 439Q38 450 57 463.5Q76 477 103 488Q130 499 166 506.5Q202 514 248 514Q308 514 348 500Q388 486 412.5 461.5Q437 437 447.5 403.5Q458 370 458 330V0H362L340 38Q313 14 275.5 0Q238 -14 193 -14Q145 -14 112.5 0.5Q80 15 60 37.5Q40 60 31.5 88.5Q23 117 23 145Q23 196 40 226.5Q57 257 84 274.5Q111 292 144.5 299Q178 306 212 309L303 318ZM236 222Q202 217 187.5 200.5Q173 184 173 155Q173 127 189 111.5Q205 96 231 96Q253 96 272 102Q291 108 303 120V231Z" glyph-name="aring" horiz-adv-x="498" unicode="&#229;" /><glyph d="M376 650Q376 596 347 570.5Q318 545 270 545Q222 545 193 570.5Q164 596 164 650Q164 704 193 729.5Q222 755 270 755Q318 755 347 729.5Q376 704 376 650ZM248 650Q248 638 253.5 633.5Q259 629 270 629Q281 629 286.5 633.5Q292 638 292 650Q292 662 286.5 666.5Q281 671 270 671Q259 671 253.5 666.5Q248 662 248 650ZM344 363Q335 369 324 374Q313 378 300.5 381Q288 384 273 384Q218 384 200.5 349Q183 314 183 250Q183 186 200.5 151Q218 116 273 116Q288 116 301 119.5Q314 123 324 127Q335 131 344 137ZM504 0H408L381 40Q355 17 317 1.5Q279 -14 219 -14Q121 -14 73 48.5Q25 111 25 250Q25 389 73 451.5Q121 514 219 514Q279 514 317 498.5Q355 483 381 460L408 500H504Z" glyph-name="aring.school" horiz-adv-x="549" unicode="&#57687;" /><glyph d="M389 650Q389 596 360 570.5Q331 545 283 545Q235 545 206 570.5Q177 596 177 650Q177 704 206 729.5Q235 755 283 755Q331 755 360 729.5Q389 704 389 650ZM261 650Q261 638 266.5 633.5Q272 629 283 629Q294 629 299.5 633.5Q305 638 305 650Q305 662 299.5 666.5Q294 671 283 671Q272 671 266.5 666.5Q261 662 261 650ZM376 0 356 80H210L190 0H5L180 508H386L561 0ZM238 194H328L283 380Z" glyph-name="aring.smcp" horiz-adv-x="566" unicode="&#57894;" /><glyph d="M790 348 435 -8H395L40 348V568L337 270V750H493V270L790 568Z" glyph-name="arrowdown" horiz-adv-x="830" unicode="&#8595;" /><glyph d="M393 0 38 355V395L393 750H613L315 453H795V297H315L613 0Z" glyph-name="arrowleft" horiz-adv-x="830" unicode="&#8592;" /><glyph d="M437 750 792 395V355L437 0H217L515 297H35V453H515L217 750Z" glyph-name="arrowright" horiz-adv-x="830" unicode="&#8594;" /><glyph d="M40 403 395 758H435L790 403V183L493 481V0H337V481L40 183Z" glyph-name="arrowup" horiz-adv-x="830" unicode="&#8593;" /><glyph d="M22 375 179 750H321L478 375H318L250 580L182 375Z" glyph-name="asciicircum" horiz-adv-x="500" unicode="^" /><glyph d="M455 246Q444 235 420 226.5Q396 218 364 218Q329 218 300 228Q271 238 244 250Q217 262 190 272Q163 282 132 282Q103 282 78 271.5Q53 261 45 251V392Q56 403 80 411.5Q104 420 136 420Q171 420 200 410Q229 400 256 388Q283 376 310 366Q337 356 368 356Q397 356 422 366.5Q447 377 455 387Z" glyph-name="asciitilde" horiz-adv-x="500" unicode="~" /><glyph d="M396 750 378 609 507 670 566 487 429 461 525 357 369 244 300 369 231 244 75 357 171 461 34 487 93 670 222 609 204 750Z" glyph-name="asterisk" horiz-adv-x="600" unicode="*" /><glyph d="M525 50 513 83Q491 64 459 51.5Q427 39 389 39Q313 39 271 89Q229 139 229 251Q229 363 271 412.5Q313 462 389 462Q431 462 461 449.5Q491 437 513 419L521 451H631V155Q660 155 677 167.5Q694 180 703 202Q712 224 714.5 255Q717 286 717 322Q717 385 702.5 428.5Q688 472 656 500Q624 528 572 540.5Q520 553 445 553Q369 553 314.5 536Q260 519 225 482.5Q190 446 173.5 389Q157 332 157 251Q157 170 173.5 112.5Q190 55 226 18.5Q262 -18 319 -35Q376 -52 456 -52Q507 -52 552 -45.5Q597 -39 634.5 -28.5Q672 -18 701.5 -5Q731 8 750 20L775 -76Q753 -89 720.5 -102.5Q688 -116 647 -126.5Q606 -137 558 -143.5Q510 -150 456 -150Q346 -150 268 -123Q190 -96 140.5 -44.5Q91 7 68 81.5Q45 156 45 251Q45 346 68 420Q91 494 139.5 546Q188 598 263.5 625Q339 652 445 652Q547 652 619.5 630.5Q692 609 738.5 567.5Q785 526 806.5 464Q828 402 828 321Q828 266 816.5 216.5Q805 167 779 130Q753 93 711 71.5Q669 50 607 50ZM474 320Q467 325 457 330.5Q447 336 432 336Q409 336 398 316Q387 296 387 251Q387 206 398 185.5Q409 165 432 165Q447 165 457 170.5Q467 176 474 181Z" glyph-name="at" horiz-adv-x="873" unicode="@" /><glyph d="M525 175 513 208Q491 189 459 176.5Q427 164 389 164Q313 164 271 214Q229 264 229 376Q229 488 271 537.5Q313 587 389 587Q431 587 461 574.5Q491 562 513 544L521 576H631V280Q660 280 677 292.5Q694 305 703 327Q712 349 714.5 380Q717 411 717 447Q717 510 702.5 553.5Q688 597 656 625Q624 653 572 665.5Q520 678 445 678Q369 678 314.5 661Q260 644 225 607.5Q190 571 173.5 514Q157 457 157 376Q157 295 173.5 237.5Q190 180 226 143.5Q262 107 319 90Q376 73 456 73Q507 73 552 79.5Q597 86 634.5 96.5Q672 107 701.5 120Q731 133 750 145L775 49Q753 36 720.5 22.5Q688 9 647 -1.5Q606 -12 558 -18.5Q510 -25 456 -25Q346 -25 268 2Q190 29 140.5 80.5Q91 132 68 206.5Q45 281 45 376Q45 471 68 545Q91 619 139.5 671Q188 723 263.5 750Q339 777 445 777Q547 777 619.5 755.5Q692 734 738.5 692.5Q785 651 806.5 589Q828 527 828 446Q828 391 816.5 341.5Q805 292 779 255Q753 218 711 196.5Q669 175 607 175ZM474 445Q467 450 457 455.5Q447 461 432 461Q409 461 398 441Q387 421 387 376Q387 331 398 310.5Q409 290 432 290Q447 290 457 295.5Q467 301 474 306Z" glyph-name="at.cap" horiz-adv-x="873" unicode="&#58643;" /><glyph d="M35 573Q35 661 67.5 700.5Q100 740 165 740Q201 740 224 727.5Q247 715 264.5 699.5Q282 684 296.5 671.5Q311 659 329 659Q360 659 369 676.5Q378 694 378 717H465Q465 629 432 589.5Q399 550 335 550Q299 550 276 562.5Q253 575 236 590.5Q219 606 204 618.5Q189 631 171 631Q140 631 131 613.5Q122 596 122 573ZM303 341Q303 361 286.5 373Q270 385 229 385Q193 385 155 371.5Q117 358 88 332L25 439Q38 450 57 463.5Q76 477 103 488Q130 499 166 506.5Q202 514 248 514Q308 514 348 500Q388 486 412.5 461.5Q437 437 447.5 403.5Q458 370 458 330V0H362L340 38Q313 14 275.5 0Q238 -14 193 -14Q145 -14 112.5 0.5Q80 15 60 37.5Q40 60 31.5 88.5Q23 117 23 145Q23 196 40 226.5Q57 257 84 274.5Q111 292 144.5 299Q178 306 212 309L303 318ZM236 222Q202 217 187.5 200.5Q173 184 173 155Q173 127 189 111.5Q205 96 231 96Q253 96 272 102Q291 108 303 120V231Z" glyph-name="atilde" horiz-adv-x="498" unicode="&#227;" /><glyph d="M55 573Q55 661 87.5 700.5Q120 740 185 740Q221 740 244 727.5Q267 715 284.5 699.5Q302 684 316.5 671.5Q331 659 349 659Q380 659 389 676.5Q398 694 398 717H485Q485 629 452 589.5Q419 550 355 550Q319 550 296 562.5Q273 575 256 590.5Q239 606 224 618.5Q209 631 191 631Q160 631 151 613.5Q142 596 142 573ZM344 363Q335 369 324 374Q313 378 300.5 381Q288 384 273 384Q218 384 200.5 349Q183 314 183 250Q183 186 200.5 151Q218 116 273 116Q288 116 301 119.5Q314 123 324 127Q335 131 344 137ZM504 0H408L381 40Q355 17 317 1.5Q279 -14 219 -14Q121 -14 73 48.5Q25 111 25 250Q25 389 73 451.5Q121 514 219 514Q279 514 317 498.5Q355 483 381 460L408 500H504Z" glyph-name="atilde.school" horiz-adv-x="549" unicode="&#57686;" /><glyph d="M68 573Q68 661 100.5 700.5Q133 740 198 740Q234 740 257 727.5Q280 715 297.5 699.5Q315 684 329.5 671.5Q344 659 362 659Q393 659 402 676.5Q411 694 411 717H498Q498 629 465 589.5Q432 550 368 550Q332 550 309 562.5Q286 575 269 590.5Q252 606 237 618.5Q222 631 204 631Q173 631 164 613.5Q155 596 155 573ZM376 0 356 80H210L190 0H5L180 508H386L561 0ZM238 194H328L283 380Z" glyph-name="atilde.smcp" horiz-adv-x="566" unicode="&#57893;" /><glyph d="M45 0V750H205V482Q228 496 258 505Q288 514 330 514Q428 514 476 451.5Q524 389 524 250Q524 111 476 48.5Q428 -14 330 -14Q270 -14 232 1.5Q194 17 168 40L141 0ZM205 137Q214 131 226 127Q236 122 248.5 119Q261 116 276 116Q332 116 349 151Q366 186 366 250Q366 314 349 349Q332 384 276 384Q261 384 248 380.5Q235 377 226 374Q214 369 205 363Z" glyph-name="b" horiz-adv-x="549" unicode="b" /><glyph d="M55 500H309Q407 500 447.5 463.5Q488 427 488 365Q488 334 476 311Q464 288 451 280Q479 268 493.5 236Q508 204 508 169Q508 133 498.5 102Q489 71 467.5 48.5Q446 26 410.5 13Q375 0 323 0H55ZM341 164Q341 190 331.5 199.5Q322 209 304 209H213V120H304Q341 120 341 164ZM326 338Q326 361 316.5 370.5Q307 380 289 380H213V295H290Q307 295 316.5 305Q326 315 326 338Z" glyph-name="b.smcp" horiz-adv-x="530" unicode="&#57858;" /><glyph d="M539 -206 -50 816H108L697 -206Z" glyph-name="backslash" horiz-adv-x="566" unicode="\" /><glyph d="M449 -50 -41 800H117L607 -50Z" glyph-name="backslash.cap" horiz-adv-x="566" unicode="&#58466;" /><glyph d="M117 550 463 -50H305L-41 550Z" glyph-name="backslash.smcp" horiz-adv-x="422" unicode="&#58472;" /><glyph d="M80 500H580V0H80ZM249 336V164H411V336ZM274 311H386V189H274Z" glyph-name="ballotboxwithx" horiz-adv-x="660" unicode="&#9746;" /><glyph d="M57 -200V800H216V-200Z" glyph-name="bar" horiz-adv-x="273" unicode="|" /><glyph d="M57 -50V800H216V-50Z" glyph-name="bar.cap" horiz-adv-x="273" unicode="&#58467;" /><glyph d="M57 -50V550H216V-50Z" glyph-name="bar.smcp" horiz-adv-x="273" unicode="&#58473;" /><glyph d="M45 0V750H205V482Q228 496 258 505Q288 514 330 514Q428 514 476 451.5Q524 389 524 250Q524 111 476 48.5Q428 -14 330 -14Q270 -14 232 1.5Q194 17 168 40L141 0ZM205 137Q214 131 226 127Q236 122 248.5 119Q261 116 276 116Q332 116 349 151Q366 186 366 250Q366 314 349 349Q332 384 276 384Q261 384 248 380.5Q235 377 226 374Q214 369 205 363ZM35 870Q35 910 56.5 932.5Q78 955 125 955Q170 955 192.5 932.5Q215 910 215 870Q215 829 192.5 807Q170 785 125 785Q78 785 56.5 807Q35 829 35 870Z" glyph-name="bdotaccent" horiz-adv-x="549" unicode="&#7683;" /><glyph d="M55 500H309Q407 500 447.5 463.5Q488 427 488 365Q488 334 476 311Q464 288 451 280Q479 268 493.5 236Q508 204 508 169Q508 133 498.5 102Q489 71 467.5 48.5Q446 26 410.5 13Q375 0 323 0H55ZM341 164Q341 190 331.5 199.5Q322 209 304 209H213V120H304Q341 120 341 164ZM326 338Q326 361 316.5 370.5Q307 380 289 380H213V295H290Q307 295 316.5 305Q326 315 326 338ZM176 645Q176 683 202 709Q228 735 266 735Q304 735 330 709Q356 683 356 645Q356 607 330 581Q304 555 266 555Q228 555 202 581Q176 607 176 645Z" glyph-name="bdotaccent.smcp" horiz-adv-x="530" /><glyph d="M66 375Q66 456 96.5 526.5Q127 597 180 650Q233 703 303.5 733.5Q374 764 455 764Q536 764 606.5 733.5Q677 703 730 650Q783 597 813.5 526.5Q844 456 844 375Q844 294 813.5 223.5Q783 153 730 100Q677 47 606.5 16.5Q536 -14 455 -14Q374 -14 303.5 16.5Q233 47 180 100Q127 153 96.5 223.5Q66 294 66 375Z" glyph-name="blackcircle" horiz-adv-x="910" unicode="&#9679;" /><glyph d="M80 0V500H580V0Z" glyph-name="blacksmallsquare" horiz-adv-x="660" unicode="&#9642;" /><glyph d="M80 0V750H830V0Z" glyph-name="blacksquare" horiz-adv-x="910" unicode="&#9632;" /><glyph d="M203 300Q225 289 235 268Q245 247 243 224L226 -15Q223 -54 268 -54H292V-200H198Q172 -200 148.5 -194Q125 -188 108 -174.5Q91 -161 82 -140.5Q73 -120 75 -91L92 188Q95 227 55 227H30V373H55Q95 373 92 412L75 691Q73 720 82 740.5Q91 761 108 774.5Q125 788 148.5 794Q172 800 198 800H292V654H268Q223 654 226 615L243 376Q245 353 235 332Q225 311 203 300Z" glyph-name="braceleft" horiz-adv-x="330" unicode="{" /><glyph d="M92 263Q95 302 55 302H30V448H55Q95 448 92 487L78 691Q76 720 85 740.5Q94 761 111 774.5Q128 788 151.5 794Q175 800 201 800H295V654H271Q226 654 229 615L243 451Q245 428 235 407Q225 386 203 375Q225 364 235 343Q245 322 243 299L229 135Q226 96 271 96H295V-50H201Q175 -50 151.5 -44Q128 -38 111 -24.5Q94 -11 85 9.5Q76 30 78 59Z" glyph-name="braceleft.cap" horiz-adv-x="330" unicode="&#58517;" /><glyph d="M92 138Q95 177 55 177H30V323H55Q95 323 92 362L85 441Q82 470 91 490.5Q100 511 117.5 524.5Q135 538 158.5 544Q182 550 208 550H302V404H278Q233 404 238 365L243 326Q246 303 235.5 282Q225 261 203 250Q225 239 235.5 218Q246 197 243 174L238 135Q233 96 278 96H302V-50H208Q182 -50 158.5 -44Q135 -38 117.5 -24.5Q100 -11 91 9.5Q82 30 85 59Z" glyph-name="braceleft.smcp" horiz-adv-x="330" unicode="&#58525;" /><glyph d="M127 300Q105 311 95 332Q85 353 87 376L104 615Q107 654 62 654H38V800H132Q158 800 181.5 794Q205 788 222 774.5Q239 761 248 740.5Q257 720 255 691L238 412Q235 373 275 373H300V227H275Q235 227 238 188L255 -91Q257 -120 248 -140.5Q239 -161 222 -174.5Q205 -188 181.5 -194Q158 -200 132 -200H38V-54H62Q107 -54 104 -15L87 224Q85 247 95 268Q105 289 127 300Z" glyph-name="braceright" horiz-adv-x="330" unicode="}" /><glyph d="M252 59Q254 30 245 9.5Q236 -11 219 -24.5Q202 -38 178.5 -44Q155 -50 129 -50H35V96H59Q104 96 101 135L87 299Q85 322 95 343Q105 364 127 375Q105 386 95 407Q85 428 87 451L101 615Q104 654 59 654H35V800H129Q155 800 178.5 794Q202 788 219 774.5Q236 761 245 740.5Q254 720 252 691L238 487Q235 448 275 448H300V302H275Q235 302 238 263Z" glyph-name="braceright.cap" horiz-adv-x="330" unicode="&#58518;" /><glyph d="M247 59Q250 30 241 9.5Q232 -11 215 -24.5Q198 -38 174 -44Q150 -50 124 -50H30V96H54Q99 96 94 135L89 174Q86 197 96.5 218Q107 239 129 250Q107 261 96.5 282Q86 303 89 326L94 365Q99 404 54 404H30V550H124Q150 550 174 544Q198 538 215 524.5Q232 511 241 490.5Q250 470 247 441L240 362Q237 323 277 323H302V177H277Q237 177 240 138Z" glyph-name="braceright.smcp" horiz-adv-x="330" unicode="&#58526;" /><glyph d="M208 -54H272V-200H57V800H272V654H208Z" glyph-name="bracketleft" horiz-adv-x="310" unicode="[" /><glyph d="M208 96H272V-50H57V800H272V654H208Z" glyph-name="bracketleft.cap" horiz-adv-x="310" unicode="&#58515;" /><glyph d="M208 93H272V-50H57V550H272V407H208Z" glyph-name="bracketleft.smcp" horiz-adv-x="310" unicode="&#58523;" /><glyph d="M102 654H38V800H253V-200H38V-54H102Z" glyph-name="bracketright" horiz-adv-x="310" unicode="]" /><glyph d="M102 654H38V800H253V-50H38V96H102Z" glyph-name="bracketright.cap" horiz-adv-x="310" unicode="&#58516;" /><glyph d="M102 407H38V550H253V-50H38V93H102Z" glyph-name="bracketright.smcp" horiz-adv-x="310" unicode="&#58524;" /><glyph d="M250 664Q293 664 311.5 681Q330 698 330 750H448Q448 692 435.5 653.5Q423 615 398 592Q373 569 336 559.5Q299 550 250 550Q201 550 164 559.5Q127 569 102 592Q77 615 64.5 653.5Q52 692 52 750H170Q170 698 188.5 681Q207 664 250 664Z" glyph-name="breve" horiz-adv-x="500" unicode="&#728;" /><glyph d="M250 870Q288 870 299 878.5Q310 887 310 910H438Q438 840 396.5 807Q355 774 250 774Q145 774 103.5 807Q62 840 62 910H190Q190 887 201 878.5Q212 870 250 870Z" glyph-name="breve.cap" horiz-adv-x="500" unicode="&#58406;" /><glyph d="M57 -200V275H216V-200ZM57 325V800H216V325Z" glyph-name="brokenbar" horiz-adv-x="285" unicode="&#166;" /><glyph d="M57 -50V350H216V-50ZM57 400V800H216V400Z" glyph-name="brokenbar.cap" horiz-adv-x="273" unicode="&#58469;" /><glyph d="M57 -50V226H216V-50ZM57 276V550H216V276Z" glyph-name="brokenbar.smcp" horiz-adv-x="285" unicode="&#58475;" /><glyph d="M65 375Q65 403 75.5 427.5Q86 452 104.5 470.5Q123 489 147.5 499.5Q172 510 200 510Q228 510 252.5 499.5Q277 489 295.5 470.5Q314 452 324.5 427.5Q335 403 335 375Q335 347 324.5 322.5Q314 298 295.5 279.5Q277 261 252.5 250.5Q228 240 200 240Q172 240 147.5 250.5Q123 261 104.5 279.5Q86 298 75.5 322.5Q65 347 65 375Z" glyph-name="bullet" horiz-adv-x="400" unicode="&#8226;" /><glyph d="M65 375Q65 403 75.5 427.5Q86 452 104.5 470.5Q123 489 147.5 499.5Q172 510 200 510Q228 510 252.5 499.5Q277 489 295.5 470.5Q314 452 324.5 427.5Q335 403 335 375Q335 347 324.5 322.5Q314 298 295.5 279.5Q277 261 252.5 250.5Q228 240 200 240Q172 240 147.5 250.5Q123 261 104.5 279.5Q86 298 75.5 322.5Q65 347 65 375Z" glyph-name="bullet.cap" horiz-adv-x="400" unicode="&#58470;" /><glyph d="M65 250Q65 278 75.5 302.5Q86 327 104.5 345.5Q123 364 147.5 374.5Q172 385 200 385Q228 385 252.5 374.5Q277 364 295.5 345.5Q314 327 324.5 302.5Q335 278 335 250Q335 222 324.5 197.5Q314 173 295.5 154.5Q277 136 252.5 125.5Q228 115 200 115Q172 115 147.5 125.5Q123 136 104.5 154.5Q86 173 75.5 197.5Q65 222 65 250Z" glyph-name="bullet.smcp" horiz-adv-x="400" unicode="&#58476;" /><glyph d="M25 250Q25 310 38 358.5Q51 407 80 441.5Q109 476 155.5 495Q202 514 270 514Q331 514 370 493.5Q409 473 425 454L362 347Q354 356 334 366Q314 376 285 376Q229 376 206 342Q183 308 183 250Q183 192 206 158Q229 124 285 124Q314 124 334 134Q354 144 362 153L425 46Q409 27 370 6.5Q331 -14 270 -14Q202 -14 155.5 5Q109 24 80 58.5Q51 93 38 141.5Q25 190 25 250Z" glyph-name="c" horiz-adv-x="440" unicode="c" /><glyph d="M40 250Q40 380 103 447Q166 514 294 514Q333 514 362.5 508.5Q392 503 413.5 494Q435 485 449 474Q463 463 472 452L402 334Q394 345 372 357.5Q350 370 315 370Q258 370 228 342.5Q198 315 198 250Q198 185 228 157.5Q258 130 315 130Q350 130 372 142.5Q394 155 402 166L472 48Q463 37 449 26Q435 15 413.5 6Q392 -3 362.5 -8.5Q333 -14 294 -14Q166 -14 103 53Q40 120 40 250Z" glyph-name="c.smcp" horiz-adv-x="492" unicode="&#57859;" /><glyph d="M180 550 245 750H405L300 550ZM25 250Q25 310 38 358.5Q51 407 80 441.5Q109 476 155.5 495Q202 514 270 514Q331 514 370 493.5Q409 473 425 454L362 347Q354 356 334 366Q314 376 285 376Q229 376 206 342Q183 308 183 250Q183 192 206 158Q229 124 285 124Q314 124 334 134Q354 144 362 153L425 46Q409 27 370 6.5Q331 -14 270 -14Q202 -14 155.5 5Q109 24 80 58.5Q51 93 38 141.5Q25 190 25 250Z" glyph-name="cacute" horiz-adv-x="440" unicode="&#263;" /><glyph d="M205 550 270 750H430L325 550ZM40 250Q40 380 103 447Q166 514 294 514Q333 514 362.5 508.5Q392 503 413.5 494Q435 485 449 474Q463 463 472 452L402 334Q394 345 372 357.5Q350 370 315 370Q258 370 228 342.5Q198 315 198 250Q198 185 228 157.5Q258 130 315 130Q350 130 372 142.5Q394 155 402 166L472 48Q463 37 449 26Q435 15 413.5 6Q392 -3 362.5 -8.5Q333 -14 294 -14Q166 -14 103 53Q40 120 40 250Z" glyph-name="cacute.smcp" horiz-adv-x="493" unicode="&#57908;" /><glyph d="M458 750 325 550H175L42 750H165L250 655L335 750Z" glyph-name="caron" horiz-adv-x="500" unicode="&#711;" /><glyph d="M448 910 325 790H175L52 910H185L250 865L315 910Z" glyph-name="caron.cap" horiz-adv-x="500" unicode="&#58413;" /><glyph d="M404 750 356 550H290L306 750Z" glyph-name="caronSlovak" horiz-adv-x="500" unicode="&#58387;" /><glyph d="M453 750 320 550H170L37 750H160L245 655L330 750ZM25 250Q25 310 38 358.5Q51 407 80 441.5Q109 476 155.5 495Q202 514 270 514Q331 514 370 493.5Q409 473 425 454L362 347Q354 356 334 366Q314 376 285 376Q229 376 206 342Q183 308 183 250Q183 192 206 158Q229 124 285 124Q314 124 334 134Q354 144 362 153L425 46Q409 27 370 6.5Q331 -14 270 -14Q202 -14 155.5 5Q109 24 80 58.5Q51 93 38 141.5Q25 190 25 250Z" glyph-name="ccaron" horiz-adv-x="440" unicode="&#269;" /><glyph d="M478 750 345 550H195L62 750H185L270 655L355 750ZM40 250Q40 380 103 447Q166 514 294 514Q333 514 362.5 508.5Q392 503 413.5 494Q435 485 449 474Q463 463 472 452L402 334Q394 345 372 357.5Q350 370 315 370Q258 370 228 342.5Q198 315 198 250Q198 185 228 157.5Q258 130 315 130Q350 130 372 142.5Q394 155 402 166L472 48Q463 37 449 26Q435 15 413.5 6Q392 -3 362.5 -8.5Q333 -14 294 -14Q166 -14 103 53Q40 120 40 250Z" glyph-name="ccaron.smcp" horiz-adv-x="493" unicode="&#57910;" /><glyph d="M235 -155Q255 -155 266.5 -150Q278 -145 278 -132Q278 -122 266 -111.5Q254 -101 207 -94L216 -10Q164 -3 127.5 18.5Q91 40 68 74Q45 108 35 152.5Q25 197 25 250Q25 310 38 358.5Q51 407 80 441.5Q109 476 155.5 495Q202 514 270 514Q331 514 370 493.5Q409 473 425 454L362 347Q354 356 334 366Q314 376 285 376Q229 376 206 342Q183 308 183 250Q183 192 206 158Q229 124 285 124Q314 124 334 134Q354 144 362 153L425 46Q409 29 375 9.5Q341 -10 288 -13L291 -57Q337 -68 359 -89.5Q381 -111 381 -152Q381 -204 345.5 -229.5Q310 -255 252 -255Q206 -255 176.5 -242.5Q147 -230 130 -216L178 -137Q185 -142 199.5 -148.5Q214 -155 235 -155Z" glyph-name="ccedilla" horiz-adv-x="440" unicode="&#231;" /><glyph d="M256 -155Q276 -155 287.5 -150Q299 -145 299 -132Q299 -122 287 -111.5Q275 -101 228 -94L237 -10Q138 4 89 69.5Q40 135 40 250Q40 380 103 447Q166 514 294 514Q333 514 362.5 508.5Q392 503 413.5 494Q435 485 449 474Q463 463 472 452L402 334Q394 345 372 357.5Q350 370 315 370Q258 370 228 342.5Q198 315 198 250Q198 185 228 157.5Q258 130 315 130Q350 130 372 142.5Q394 155 402 166L472 48Q455 27 417.5 7.5Q380 -12 309 -14L312 -57Q358 -68 380 -89.5Q402 -111 402 -152Q402 -204 366.5 -229.5Q331 -255 273 -255Q227 -255 197.5 -242.5Q168 -230 151 -216L199 -137Q206 -142 220.5 -148.5Q235 -155 256 -155Z" glyph-name="ccedilla.smcp" horiz-adv-x="493" unicode="&#57912;" /><glyph d="M37 550 170 750H320L453 550H330L245 645L160 550ZM25 250Q25 310 38 358.5Q51 407 80 441.5Q109 476 155.5 495Q202 514 270 514Q331 514 370 493.5Q409 473 425 454L362 347Q354 356 334 366Q314 376 285 376Q229 376 206 342Q183 308 183 250Q183 192 206 158Q229 124 285 124Q314 124 334 134Q354 144 362 153L425 46Q409 27 370 6.5Q331 -14 270 -14Q202 -14 155.5 5Q109 24 80 58.5Q51 93 38 141.5Q25 190 25 250Z" glyph-name="ccircumflex" horiz-adv-x="440" unicode="&#265;" /><glyph d="M62 550 195 750H345L478 550H355L270 645L185 550ZM40 250Q40 380 103 447Q166 514 294 514Q333 514 362.5 508.5Q392 503 413.5 494Q435 485 449 474Q463 463 472 452L402 334Q394 345 372 357.5Q350 370 315 370Q258 370 228 342.5Q198 315 198 250Q198 185 228 157.5Q258 130 315 130Q350 130 372 142.5Q394 155 402 166L472 48Q463 37 449 26Q435 15 413.5 6Q392 -3 362.5 -8.5Q333 -14 294 -14Q166 -14 103 53Q40 120 40 250Z" glyph-name="ccircumflex.smcp" horiz-adv-x="493" unicode="&#57909;" /><glyph d="M25 250Q25 310 38 358.5Q51 407 80 441.5Q109 476 155.5 495Q202 514 270 514Q331 514 370 493.5Q409 473 425 454L362 347Q354 356 334 366Q314 376 285 376Q229 376 206 342Q183 308 183 250Q183 192 206 158Q229 124 285 124Q314 124 334 134Q354 144 362 153L425 46Q409 27 370 6.5Q331 -14 270 -14Q202 -14 155.5 5Q109 24 80 58.5Q51 93 38 141.5Q25 190 25 250ZM155 645Q155 683 181 709Q207 735 245 735Q283 735 309 709Q335 683 335 645Q335 607 309 581Q283 555 245 555Q207 555 181 581Q155 607 155 645Z" glyph-name="cdotaccent" horiz-adv-x="440" unicode="&#267;" /><glyph d="M40 250Q40 380 103 447Q166 514 294 514Q333 514 362.5 508.5Q392 503 413.5 494Q435 485 449 474Q463 463 472 452L402 334Q394 345 372 357.5Q350 370 315 370Q258 370 228 342.5Q198 315 198 250Q198 185 228 157.5Q258 130 315 130Q350 130 372 142.5Q394 155 402 166L472 48Q463 37 449 26Q435 15 413.5 6Q392 -3 362.5 -8.5Q333 -14 294 -14Q166 -14 103 53Q40 120 40 250ZM180 645Q180 683 206 709Q232 735 270 735Q308 735 334 709Q360 683 360 645Q360 607 334 581Q308 555 270 555Q232 555 206 581Q180 607 180 645Z" glyph-name="cdotaccent.smcp" horiz-adv-x="493" unicode="&#57911;" /><glyph d="M233 -155Q253 -155 264.5 -150Q276 -145 276 -132Q276 -122 264 -111.5Q252 -101 205 -94L215 0H285L289 -57Q335 -68 357 -89.5Q379 -111 379 -152Q379 -204 343.5 -229.5Q308 -255 250 -255Q204 -255 174.5 -242.5Q145 -230 128 -216L176 -137Q183 -142 197.5 -148.5Q212 -155 233 -155Z" glyph-name="cedilla" horiz-adv-x="500" unicode="&#184;" /><glyph d="M212 0V119Q40 159 40 375Q40 481 82.5 545.5Q125 610 212 630V750H341V636Q396 630 426.5 612.5Q457 595 472 577L402 459Q394 470 372 482.5Q350 495 315 495Q258 495 228 467.5Q198 440 198 375Q198 310 228 282.5Q258 255 315 255Q350 255 372 267.5Q394 280 402 291L472 173Q457 154 426.5 136.5Q396 119 341 113V0Z" glyph-name="cent" horiz-adv-x="492" unicode="&#162;" /><glyph d="M212 -125V-5Q125 15 82.5 79Q40 143 40 250Q40 356 82.5 420.5Q125 485 212 505V625H341V511Q396 505 426.5 487.5Q457 470 472 452L402 334Q394 345 372 357.5Q350 370 315 370Q258 370 228 342.5Q198 315 198 250Q198 185 228 157.5Q258 130 315 130Q350 130 372 142.5Q394 155 402 166L472 48Q457 29 426.5 12Q396 -5 341 -11V-125Z" glyph-name="cent.OP" horiz-adv-x="492" unicode="&#59807;" /><glyph d="M42 550 175 750H325L458 550H335L250 645L165 550Z" glyph-name="circumflex" horiz-adv-x="500" unicode="&#710;" /><glyph d="M52 790 175 910H325L448 790H315L250 835L185 790Z" glyph-name="circumflex.cap" horiz-adv-x="500" unicode="&#58403;" /><glyph d="M342 0Q360 36 373.5 70Q387 104 396 140.5Q405 177 411 217.5Q417 258 421 307L418 308Q406 278 388 250Q370 222 346 200.5Q322 179 292 166Q262 153 226 153Q190 153 159 166Q128 179 105 201.5Q82 224 69 254.5Q56 285 56 321Q56 359 68 390.5Q80 422 102.5 445Q125 468 156 481Q187 494 224 494Q249 494 268.5 487.5Q288 481 305 472L307 474Q291 498 280.5 526.5Q270 555 270 587Q270 623 283 654.5Q296 686 318.5 709.5Q341 733 372 746.5Q403 760 440 760Q477 760 508 746.5Q539 733 561.5 709.5Q584 686 597 654.5Q610 623 610 587Q610 555 599.5 526.5Q589 498 573 474L575 472Q592 481 611.5 487.5Q631 494 656 494Q694 494 724.5 481Q755 468 777.5 445Q800 422 812 390.5Q824 359 824 321Q824 285 811 254.5Q798 224 775 201.5Q752 179 721 166Q690 153 654 153Q618 153 588 166Q558 179 534 200.5Q510 222 492 250Q474 278 462 308L459 307Q463 258 469 217.5Q475 177 484 140.5Q493 104 506.5 70Q520 36 538 0Z" glyph-name="club" horiz-adv-x="880" unicode="&#9827;" /><glyph d="M30 78Q30 116 56 142Q82 168 120 168Q158 168 184 142Q210 116 210 78Q210 40 184 14Q158 -12 120 -12Q82 -12 56 14Q30 40 30 78ZM30 375Q30 413 56 439Q82 465 120 465Q158 465 184 439Q210 413 210 375Q210 337 184 311Q158 285 120 285Q82 285 56 311Q30 337 30 375Z" glyph-name="colon" horiz-adv-x="240" unicode=":" /><glyph d="M4 -125 35 150H205L113 -125Z" glyph-name="comma" horiz-adv-x="240" unicode="," /><glyph d="M159 -250 183 -50H341L280 -250Z" glyph-name="commaaccent" horiz-adv-x="500" unicode="&#58388;" /><glyph d="M381 910 331 790H161L261 910Z" glyph-name="commaaccent.cap" horiz-adv-x="500" unicode="&#58414;" /><glyph d="M340 -14Q272 -14 211 3.5Q150 21 104 60Q58 99 31 161Q4 223 4 312Q4 402 31 464Q58 526 104 565Q150 604 211 621.5Q272 639 340 639Q409 639 470.5 621.5Q532 604 578 565Q624 526 651 464Q678 402 678 312Q678 223 651 161Q624 99 578 60Q532 21 470.5 3.5Q409 -14 340 -14ZM342 63Q394 63 440.5 76.5Q487 90 522 119.5Q557 149 577.5 196.5Q598 244 598 312Q598 380 577.5 427.5Q557 475 522 505Q487 535 440.5 548.5Q394 562 342 562Q289 562 242 548.5Q195 535 160 505Q125 475 104.5 427.5Q84 380 84 312Q84 244 104.5 196.5Q125 149 160 119.5Q195 90 242 76.5Q289 63 342 63ZM273 312Q273 264 298.5 242.5Q324 221 362 221Q389 221 406 229.5Q423 238 430 245L479 161Q466 146 433.5 129.5Q401 113 347 113Q259 113 206.5 162Q154 211 154 312Q154 413 206.5 462Q259 511 347 511Q401 511 433.5 494.5Q466 478 479 463L430 379Q423 386 406 394.5Q389 403 362 403Q324 403 298.5 381.5Q273 360 273 312Z" glyph-name="copyright" horiz-adv-x="682" unicode="&#169;" /><glyph d="M696 375Q696 287 662 222L766 118L650 2L543 109Q509 93 477 85Q445 77 400 77Q355 77 323 85Q291 93 257 109L150 2L34 118L138 222Q104 288 104 375Q104 462 138 528L34 632L150 748L257 641Q291 657 323 665Q355 673 400 673Q445 673 477 665Q509 657 543 641L650 748L766 632L662 528Q696 463 696 375ZM512 375Q512 449 483.5 479.5Q455 510 400 510Q345 510 316.5 479.5Q288 449 288 375Q288 301 316.5 270.5Q345 240 400 240Q455 240 483.5 270.5Q512 301 512 375Z" glyph-name="currency" horiz-adv-x="800" unicode="&#164;" /><glyph d="M408 0 381 40Q355 17 317 1.5Q279 -14 219 -14Q121 -14 73 48.5Q25 111 25 250Q25 389 73 451.5Q121 514 219 514Q261 514 291 505Q321 496 344 482V750H504V0ZM344 363Q335 369 324 374Q313 378 300.5 381Q288 384 273 384Q218 384 200.5 349Q183 314 183 250Q183 186 200.5 151Q218 116 273 116Q288 116 301 119.5Q314 123 324 127Q335 131 344 137Z" glyph-name="d" horiz-adv-x="549" unicode="d" /><glyph d="M55 0V500H276Q342 500 388.5 482.5Q435 465 464.5 432.5Q494 400 508 353.5Q522 307 522 250Q522 193 508 146.5Q494 100 464.5 67.5Q435 35 388.5 17.5Q342 0 276 0ZM272 140Q325 140 344.5 172Q364 204 364 250Q364 297 344.5 328.5Q325 360 272 360H213V140Z" glyph-name="d.smcp" horiz-adv-x="558" unicode="&#57860;" /><glyph d="M279 636 393 652V470L278 485L304 284H104L130 485L15 470V653L129 636L113 750H295Z" glyph-name="dagger" horiz-adv-x="408" unicode="&#8224;" /><glyph d="M287 421 295 354 393 368V186L278 201L304 0H104L130 201L15 186V369L113 354L120 421L113 485L15 470V653L129 636L113 750H295L279 636L393 652V470L295 485Z" glyph-name="daggerdbl" horiz-adv-x="408" unicode="&#8225;" /><glyph d="M658 750 610 550H544L560 750ZM408 0 381 40Q355 17 317 1.5Q279 -14 219 -14Q121 -14 73 48.5Q25 111 25 250Q25 389 73 451.5Q121 514 219 514Q261 514 291 505Q321 496 344 482V750H504V0ZM344 363Q335 369 324 374Q313 378 300.5 381Q288 384 273 384Q218 384 200.5 349Q183 314 183 250Q183 186 200.5 151Q218 116 273 116Q288 116 301 119.5Q314 123 324 127Q335 131 344 137Z" glyph-name="dcaron" horiz-adv-x="549" unicode="&#271;" /><glyph d="M55 0V500H276Q342 500 388.5 482.5Q435 465 464.5 432.5Q494 400 508 353.5Q522 307 522 250Q522 193 508 146.5Q494 100 464.5 67.5Q435 35 388.5 17.5Q342 0 276 0ZM272 140Q325 140 344.5 172Q364 204 364 250Q364 297 344.5 328.5Q325 360 272 360H213V140ZM478 750 345 550H195L62 750H185L270 655L355 750Z" glyph-name="dcaron.smcp" horiz-adv-x="558" unicode="&#57913;" /><glyph d="M408 0 381 40Q355 17 317 1.5Q279 -14 219 -14Q121 -14 73 48.5Q25 111 25 250Q25 389 73 451.5Q121 514 219 514Q261 514 291 505Q321 496 344 482V550H242V670H344V750H504V670H584V550H504V0ZM344 363Q335 369 324 374Q313 378 300.5 381Q288 384 273 384Q218 384 200.5 349Q183 314 183 250Q183 186 200.5 151Q218 116 273 116Q288 116 301 119.5Q314 123 324 127Q335 131 344 137Z" glyph-name="dcroat" horiz-adv-x="549" unicode="&#273;" /><glyph d="M25 311H93V500H314Q380 500 426.5 482.5Q473 465 502.5 432.5Q532 400 546 353.5Q560 307 560 250Q560 193 546 146.5Q532 100 502.5 67.5Q473 35 426.5 17.5Q380 0 314 0H93V191H25ZM310 140Q363 140 382.5 172Q402 204 402 250Q402 297 382.5 328.5Q363 360 310 360H251V311H334V191H251V140Z" glyph-name="dcroat.smcp" horiz-adv-x="596" unicode="&#57916;" /><glyph d="M408 0 381 40Q355 17 317 1.5Q279 -14 219 -14Q121 -14 73 48.5Q25 111 25 250Q25 389 73 451.5Q121 514 219 514Q261 514 291 505Q321 496 344 482V750H504V0ZM344 363Q335 369 324 374Q313 378 300.5 381Q288 384 273 384Q218 384 200.5 349Q183 314 183 250Q183 186 200.5 151Q218 116 273 116Q288 116 301 119.5Q314 123 324 127Q335 131 344 137ZM334 870Q334 910 355.5 932.5Q377 955 424 955Q469 955 491.5 932.5Q514 910 514 870Q514 829 491.5 807Q469 785 424 785Q377 785 355.5 807Q334 829 334 870Z" glyph-name="ddotaccent" horiz-adv-x="549" unicode="&#7691;" /><glyph d="M55 0V500H276Q342 500 388.5 482.5Q435 465 464.5 432.5Q494 400 508 353.5Q522 307 522 250Q522 193 508 146.5Q494 100 464.5 67.5Q435 35 388.5 17.5Q342 0 276 0ZM272 140Q325 140 344.5 172Q364 204 364 250Q364 297 344.5 328.5Q325 360 272 360H213V140ZM177 645Q177 683 203 709Q229 735 267 735Q305 735 331 709Q357 683 357 645Q357 607 331 581Q305 555 267 555Q229 555 203 581Q177 607 177 645Z" glyph-name="ddotaccent.smcp" horiz-adv-x="558" /><glyph d="M379 608Q379 452 212 452Q45 452 45 608Q45 764 212 764Q379 764 379 608ZM172 608Q172 593 180.5 583Q189 573 212 573Q235 573 243.5 583Q252 593 252 608Q252 623 243.5 633Q235 643 212 643Q189 643 180.5 633Q172 623 172 608Z" glyph-name="degree" horiz-adv-x="424" unicode="&#176;" /><glyph d="M793 374Q742 334 692.5 288.5Q643 243 597.5 193.5Q552 144 512.5 92.5Q473 41 441 -10H439Q407 41 367.5 92.5Q328 144 282.5 193.5Q237 243 187.5 288.5Q138 334 87 374V376Q138 416 187.5 461.5Q237 507 282.5 556.5Q328 606 367.5 657.5Q407 709 439 760H441Q473 709 512.5 657.5Q552 606 597.5 556.5Q643 507 692.5 461.5Q742 416 793 376Z" glyph-name="diamond" horiz-adv-x="880" unicode="&#9830;" /><glyph d="M40 645Q40 683 66 709Q92 735 130 735Q168 735 194 709Q220 683 220 645Q220 607 194 581Q168 555 130 555Q92 555 66 581Q40 607 40 645ZM280 645Q280 683 306 709Q332 735 370 735Q408 735 434 709Q460 683 460 645Q460 607 434 581Q408 555 370 555Q332 555 306 581Q280 607 280 645Z" glyph-name="dieresis" horiz-adv-x="500" unicode="&#168;" /><glyph d="M40 870Q40 910 61.5 932.5Q83 955 130 955Q175 955 197.5 932.5Q220 910 220 870Q220 829 197.5 807Q175 785 130 785Q83 785 61.5 807Q40 829 40 870ZM280 870Q280 910 301.5 932.5Q323 955 370 955Q415 955 437.5 932.5Q460 910 460 870Q460 829 437.5 807Q415 785 370 785Q323 785 301.5 807Q280 829 280 870Z" glyph-name="dieresis.cap" horiz-adv-x="500" unicode="&#58409;" /><glyph d="M50 299V451H550V299ZM210 174Q210 212 236 238Q262 264 300 264Q338 264 364 238Q390 212 390 174Q390 136 364 110Q338 84 300 84Q262 84 236 110Q210 136 210 174ZM390 576Q390 538 364 512Q338 486 300 486Q262 486 236 512Q210 538 210 576Q210 614 236 640Q262 666 300 666Q338 666 364 640Q390 614 390 576Z" glyph-name="divide" horiz-adv-x="600" unicode="&#247;" /><glyph d="M75 451H825V299H75ZM360 78Q360 116 386 142Q412 168 450 168Q488 168 514 142Q540 116 540 78Q540 40 514 14Q488 -12 450 -12Q412 -12 386 14Q360 40 360 78ZM540 672Q540 634 514 608Q488 582 450 582Q412 582 386 608Q360 634 360 672Q360 710 386 736Q412 762 450 762Q488 762 514 736Q540 710 540 672Z" glyph-name="divide.cap" horiz-adv-x="900" unicode="&#58772;" /><glyph d="M237 -125V-12Q168 -7 108 15.5Q48 38 18 70L94 199Q104 191 122 180.5Q140 170 163 160.5Q186 151 213 144.5Q240 138 268 138Q342 138 371 162Q400 186 400 224Q400 267 378 284.5Q356 302 299 310Q228 319 178 335.5Q128 352 96.5 378.5Q65 405 50.5 444Q36 483 36 538Q36 625 84 683.5Q132 742 237 758V875H366V761Q407 757 438.5 747.5Q470 738 493 727.5Q516 717 530.5 706Q545 695 552 688L479 565Q454 583 420 597.5Q386 612 329 612Q266 612 233 593Q200 574 200 538Q200 497 224 480.5Q248 464 307 456Q369 447 417 434.5Q465 422 497.5 398.5Q530 375 547 337Q564 299 564 239Q564 125 510 67Q456 9 366 -7V-125Z" glyph-name="dollar" horiz-adv-x="595" unicode="$" /><glyph d="M187 -125V-11Q132 -6 88 11Q44 28 21 53L90 172Q108 155 148 140.5Q188 126 233 126Q272 126 288 134Q304 142 304 156Q304 173 289 181Q274 189 241 192Q183 198 145 208Q107 218 84.5 235.5Q62 253 52.5 279.5Q43 306 43 345Q43 484 187 509V625H316V510Q373 503 406 485.5Q439 468 456 451L388 335Q371 351 340 362.5Q309 374 266 374Q198 374 198 345Q198 328 212.5 321.5Q227 315 261 312Q321 306 359.5 296Q398 286 421 268.5Q444 251 453 223.5Q462 196 462 155Q462 95 429 51Q396 7 316 -7V-125Z" glyph-name="dollar.OP" horiz-adv-x="500" unicode="&#59806;" /><glyph d="M160 645Q160 683 186 709Q212 735 250 735Q288 735 314 709Q340 683 340 645Q340 607 314 581Q288 555 250 555Q212 555 186 581Q160 607 160 645Z" glyph-name="dotaccent" horiz-adv-x="500" unicode="&#729;" /><glyph d="M160 870Q160 910 181.5 932.5Q203 955 250 955Q295 955 317.5 932.5Q340 910 340 870Q340 829 317.5 807Q295 785 250 785Q203 785 181.5 807Q160 829 160 870Z" glyph-name="dotaccent.cap" horiz-adv-x="500" unicode="&#58408;" /><glyph d="M50 0V500H209V0Z" glyph-name="dotlessi" horiz-adv-x="260" unicode="&#305;" /><glyph d="M-46 -123Q8 -120 29 -96Q50 -72 50 -37V500H209V-62Q209 -113 190 -150Q171 -187 138.5 -211.5Q106 -236 63 -248.5Q20 -261 -28 -263Z" glyph-name="dotlessj" horiz-adv-x="260" unicode="&#567;" /><glyph d="M57 -200V800H216V-200ZM266 -200V800H425V-200Z" glyph-name="doublebar" horiz-adv-x="482" unicode="&#8214;" /><glyph d="M57 -50V800H216V-50ZM266 -50V800H425V-50Z" glyph-name="doublebar.cap" horiz-adv-x="482" unicode="&#58468;" /><glyph d="M57 -50V550H216V-50ZM266 -50V550H425V-50Z" glyph-name="doublebar.smcp" horiz-adv-x="482" unicode="&#58474;" /><glyph d="M286 550 181 750H341L406 550ZM106 550 1 750H161L226 550Z" glyph-name="doublegrave" horiz-adv-x="500" unicode="&#58386;" /><glyph d="M296 790 196 910H366L416 790ZM106 790 6 910H176L226 790Z" glyph-name="doublegrave.cap" horiz-adv-x="500" unicode="&#58412;" /><glyph d="M261 394Q220 394 201.5 368.5Q183 343 183 295H325Q332 336 319.5 365Q307 394 261 394ZM25 250Q25 386 83.5 450Q142 514 259 514Q339 514 384.5 486.5Q430 459 452 414.5Q474 370 477 313Q480 256 475 197H183Q183 182 186 167Q189 152 199.5 140Q210 128 229.5 120.5Q249 113 282 113Q330 113 370 127.5Q410 142 428 158L487 58Q474 46 454 33.5Q434 21 406.5 10.5Q379 0 345 -7Q311 -14 270 -14Q201 -14 154.5 5Q108 24 79 58.5Q50 93 37.5 141.5Q25 190 25 250Z" glyph-name="e" horiz-adv-x="509" unicode="e" /><glyph d="M424 187H213V132H452V0H55V500H452V368H213V313H424Z" glyph-name="e.smcp" horiz-adv-x="500" unicode="&#57861;" /><glyph d="M194 550 259 750H419L314 550ZM261 394Q220 394 201.5 368.5Q183 343 183 295H325Q332 336 319.5 365Q307 394 261 394ZM25 250Q25 386 83.5 450Q142 514 259 514Q339 514 384.5 486.5Q430 459 452 414.5Q474 370 477 313Q480 256 475 197H183Q183 182 186 167Q189 152 199.5 140Q210 128 229.5 120.5Q249 113 282 113Q330 113 370 127.5Q410 142 428 158L487 58Q474 46 454 33.5Q434 21 406.5 10.5Q379 0 345 -7Q311 -14 270 -14Q201 -14 154.5 5Q108 24 79 58.5Q50 93 37.5 141.5Q25 190 25 250Z" glyph-name="eacute" horiz-adv-x="509" unicode="&#233;" /><glyph d="M192 550 257 750H417L312 550ZM424 187H213V132H452V0H55V500H452V368H213V313H424Z" glyph-name="eacute.smcp" horiz-adv-x="500" unicode="&#57917;" /><glyph d="M259 664Q302 664 320.5 681Q339 698 339 750H457Q457 692 444.5 653.5Q432 615 407 592Q382 569 345 559.5Q308 550 259 550Q210 550 173 559.5Q136 569 111 592Q86 615 73.5 653.5Q61 692 61 750H179Q179 698 197.5 681Q216 664 259 664ZM261 394Q220 394 201.5 368.5Q183 343 183 295H325Q332 336 319.5 365Q307 394 261 394ZM25 250Q25 386 83.5 450Q142 514 259 514Q339 514 384.5 486.5Q430 459 452 414.5Q474 370 477 313Q480 256 475 197H183Q183 182 186 167Q189 152 199.5 140Q210 128 229.5 120.5Q249 113 282 113Q330 113 370 127.5Q410 142 428 158L487 58Q474 46 454 33.5Q434 21 406.5 10.5Q379 0 345 -7Q311 -14 270 -14Q201 -14 154.5 5Q108 24 79 58.5Q50 93 37.5 141.5Q25 190 25 250Z" glyph-name="ebreve" horiz-adv-x="509" unicode="&#277;" /><glyph d="M257 664Q300 664 318.5 681Q337 698 337 750H455Q455 692 442.5 653.5Q430 615 405 592Q380 569 343 559.5Q306 550 257 550Q208 550 171 559.5Q134 569 109 592Q84 615 71.5 653.5Q59 692 59 750H177Q177 698 195.5 681Q214 664 257 664ZM424 187H213V132H452V0H55V500H452V368H213V313H424Z" glyph-name="ebreve.smcp" horiz-adv-x="500" unicode="&#57923;" /><glyph d="M467 750 334 550H184L51 750H174L259 655L344 750ZM261 394Q220 394 201.5 368.5Q183 343 183 295H325Q332 336 319.5 365Q307 394 261 394ZM25 250Q25 386 83.5 450Q142 514 259 514Q339 514 384.5 486.5Q430 459 452 414.5Q474 370 477 313Q480 256 475 197H183Q183 182 186 167Q189 152 199.5 140Q210 128 229.5 120.5Q249 113 282 113Q330 113 370 127.5Q410 142 428 158L487 58Q474 46 454 33.5Q434 21 406.5 10.5Q379 0 345 -7Q311 -14 270 -14Q201 -14 154.5 5Q108 24 79 58.5Q50 93 37.5 141.5Q25 190 25 250Z" glyph-name="ecaron" horiz-adv-x="509" unicode="&#283;" /><glyph d="M465 750 332 550H182L49 750H172L257 655L342 750ZM424 187H213V132H452V0H55V500H452V368H213V313H424Z" glyph-name="ecaron.smcp" horiz-adv-x="500" unicode="&#57921;" /><glyph d="M51 550 184 750H334L467 550H344L259 645L174 550ZM261 394Q220 394 201.5 368.5Q183 343 183 295H325Q332 336 319.5 365Q307 394 261 394ZM25 250Q25 386 83.5 450Q142 514 259 514Q339 514 384.5 486.5Q430 459 452 414.5Q474 370 477 313Q480 256 475 197H183Q183 182 186 167Q189 152 199.5 140Q210 128 229.5 120.5Q249 113 282 113Q330 113 370 127.5Q410 142 428 158L487 58Q474 46 454 33.5Q434 21 406.5 10.5Q379 0 345 -7Q311 -14 270 -14Q201 -14 154.5 5Q108 24 79 58.5Q50 93 37.5 141.5Q25 190 25 250Z" glyph-name="ecircumflex" horiz-adv-x="509" unicode="&#234;" /><glyph d="M49 550 182 750H332L465 550H342L257 645L172 550ZM424 187H213V132H452V0H55V500H452V368H213V313H424Z" glyph-name="ecircumflex.smcp" horiz-adv-x="500" unicode="&#57919;" /><glyph d="M261 394Q220 394 201.5 368.5Q183 343 183 295H325Q332 336 319.5 365Q307 394 261 394ZM25 250Q25 386 83.5 450Q142 514 259 514Q339 514 384.5 486.5Q430 459 452 414.5Q474 370 477 313Q480 256 475 197H183Q183 182 186 167Q189 152 199.5 140Q210 128 229.5 120.5Q249 113 282 113Q330 113 370 127.5Q410 142 428 158L487 58Q474 46 454 33.5Q434 21 406.5 10.5Q379 0 345 -7Q311 -14 270 -14Q201 -14 154.5 5Q108 24 79 58.5Q50 93 37.5 141.5Q25 190 25 250ZM49 645Q49 683 75 709Q101 735 139 735Q177 735 203 709Q229 683 229 645Q229 607 203 581Q177 555 139 555Q101 555 75 581Q49 607 49 645ZM289 645Q289 683 315 709Q341 735 379 735Q417 735 443 709Q469 683 469 645Q469 607 443 581Q417 555 379 555Q341 555 315 581Q289 607 289 645Z" glyph-name="edieresis" horiz-adv-x="509" unicode="&#235;" /><glyph d="M424 187H213V132H452V0H55V500H452V368H213V313H424ZM47 645Q47 683 73 709Q99 735 137 735Q175 735 201 709Q227 683 227 645Q227 607 201 581Q175 555 137 555Q99 555 73 581Q47 607 47 645ZM287 645Q287 683 313 709Q339 735 377 735Q415 735 441 709Q467 683 467 645Q467 607 441 581Q415 555 377 555Q339 555 313 581Q287 607 287 645Z" glyph-name="edieresis.smcp" horiz-adv-x="500" unicode="&#57904;" /><glyph d="M261 394Q220 394 201.5 368.5Q183 343 183 295H325Q332 336 319.5 365Q307 394 261 394ZM25 250Q25 386 83.5 450Q142 514 259 514Q339 514 384.5 486.5Q430 459 452 414.5Q474 370 477 313Q480 256 475 197H183Q183 182 186 167Q189 152 199.5 140Q210 128 229.5 120.5Q249 113 282 113Q330 113 370 127.5Q410 142 428 158L487 58Q474 46 454 33.5Q434 21 406.5 10.5Q379 0 345 -7Q311 -14 270 -14Q201 -14 154.5 5Q108 24 79 58.5Q50 93 37.5 141.5Q25 190 25 250ZM169 645Q169 683 195 709Q221 735 259 735Q297 735 323 709Q349 683 349 645Q349 607 323 581Q297 555 259 555Q221 555 195 581Q169 607 169 645Z" glyph-name="edotaccent" horiz-adv-x="509" unicode="&#279;" /><glyph d="M424 187H213V132H452V0H55V500H452V368H213V313H424ZM167 645Q167 683 193 709Q219 735 257 735Q295 735 321 709Q347 683 347 645Q347 607 321 581Q295 555 257 555Q219 555 193 581Q167 607 167 645Z" glyph-name="edotaccent.smcp" horiz-adv-x="500" unicode="&#57926;" /><glyph d="M204 550 99 750H259L324 550ZM261 394Q220 394 201.5 368.5Q183 343 183 295H325Q332 336 319.5 365Q307 394 261 394ZM25 250Q25 386 83.5 450Q142 514 259 514Q339 514 384.5 486.5Q430 459 452 414.5Q474 370 477 313Q480 256 475 197H183Q183 182 186 167Q189 152 199.5 140Q210 128 229.5 120.5Q249 113 282 113Q330 113 370 127.5Q410 142 428 158L487 58Q474 46 454 33.5Q434 21 406.5 10.5Q379 0 345 -7Q311 -14 270 -14Q201 -14 154.5 5Q108 24 79 58.5Q50 93 37.5 141.5Q25 190 25 250Z" glyph-name="egrave" horiz-adv-x="509" unicode="&#232;" /><glyph d="M202 550 97 750H257L322 550ZM424 187H213V132H452V0H55V500H452V368H213V313H424Z" glyph-name="egrave.smcp" horiz-adv-x="500" unicode="&#57918;" /><glyph d="M275 324Q227 324 201 298Q175 272 175 225Q175 179 201 151Q227 123 275 123Q323 123 349 151Q375 179 375 225Q375 272 349 298Q323 324 275 324ZM275 -15Q209 -15 162 1.5Q115 18 85 48Q55 78 41 118.5Q27 159 27 207Q27 280 55 329.5Q83 379 131 396Q92 412 67.5 455Q43 498 43 553Q43 651 100.5 708Q158 765 275 765Q392 765 449.5 708Q507 651 507 553Q507 498 482.5 455Q458 412 419 396Q467 379 495 329.5Q523 280 523 207Q523 159 509 118.5Q495 78 465 48Q435 18 388 1.5Q341 -15 275 -15ZM275 451Q317 451 338 476.5Q359 502 359 539Q359 578 338 602.5Q317 627 275 627Q233 627 212 602.5Q191 578 191 539Q191 502 212 476.5Q233 451 275 451Z" glyph-name="eight" horiz-adv-x="550" unicode="8" /><glyph d="M275 324Q227 324 201 298Q175 272 175 225Q175 179 201 151Q227 123 275 123Q323 123 349 151Q375 179 375 225Q375 272 349 298Q323 324 275 324ZM275 -15Q209 -15 162 1.5Q115 18 85 48Q55 78 41 118.5Q27 159 27 207Q27 280 55 329.5Q83 379 131 396Q92 412 67.5 455Q43 498 43 553Q43 651 100.5 708Q158 765 275 765Q392 765 449.5 708Q507 651 507 553Q507 498 482.5 455Q458 412 419 396Q467 379 495 329.5Q523 280 523 207Q523 159 509 118.5Q495 78 465 48Q435 18 388 1.5Q341 -15 275 -15ZM275 451Q317 451 338 476.5Q359 502 359 539Q359 578 338 602.5Q317 627 275 627Q233 627 212 602.5Q191 578 191 539Q191 502 212 476.5Q233 451 275 451Z" glyph-name="eight.LT" horiz-adv-x="550" unicode="&#58696;" /><glyph d="M275 324Q227 324 201 298Q175 272 175 225Q175 179 201 151Q227 123 275 123Q323 123 349 151Q375 179 375 225Q375 272 349 298Q323 324 275 324ZM275 -15Q209 -15 162 1.5Q115 18 85 48Q55 78 41 118.5Q27 159 27 207Q27 280 55 329.5Q83 379 131 396Q92 412 67.5 455Q43 498 43 553Q43 651 100.5 708Q158 765 275 765Q392 765 449.5 708Q507 651 507 553Q507 498 482.5 455Q458 412 419 396Q467 379 495 329.5Q523 280 523 207Q523 159 509 118.5Q495 78 465 48Q435 18 388 1.5Q341 -15 275 -15ZM275 451Q317 451 338 476.5Q359 502 359 539Q359 578 338 602.5Q317 627 275 627Q233 627 212 602.5Q191 578 191 539Q191 502 212 476.5Q233 451 275 451Z" glyph-name="eight.OP" horiz-adv-x="550" unicode="&#58707;" /><glyph d="M225 -136Q269 -136 269 -114Q269 -90 225 -90Q181 -90 181 -114Q181 -136 225 -136ZM225 13Q266 13 266 31Q266 50 225 50Q207 50 195.5 45Q184 40 184 31Q184 22 195.5 17.5Q207 13 225 13ZM225 -264Q124 -264 74.5 -232.5Q25 -201 25 -132Q25 -100 41.5 -69Q58 -38 91 -26Q70 -22 55 -1Q40 20 40 53Q40 114 87.5 143.5Q135 173 225 173Q314 173 361.5 143.5Q409 114 409 53Q409 20 394 -1Q379 -22 358 -26Q392 -38 408.5 -69Q425 -100 425 -132Q425 -201 375.5 -232.5Q326 -264 225 -264Z" glyph-name="eight.inf" horiz-adv-x="450" unicode="&#58745;" /><glyph d="M296 341H154V621L35 617V711L232 764H296ZM646 341H504V621L385 617V711L582 764H646ZM518 0 1050 750H1182L650 0ZM1296 0H1154V280L1035 276V370L1232 423H1296ZM1621 296Q1609 296 1592 294.5Q1575 293 1559 288Q1543 283 1531.5 273Q1520 263 1518 245Q1529 259 1558 269.5Q1587 280 1622 280Q1669 280 1700.5 270.5Q1732 261 1750.5 243Q1769 225 1777 199.5Q1785 174 1785 141Q1785 71 1737 28.5Q1689 -14 1576 -14Q1465 -14 1417.5 41Q1370 96 1370 205Q1370 317 1425 370Q1480 423 1603 423Q1678 423 1720.5 410.5Q1763 398 1782 383L1721 277Q1707 285 1682.5 290.5Q1658 296 1621 296ZM1582 110Q1605 110 1615.5 119Q1626 128 1626 139Q1626 149 1619.5 158.5Q1613 168 1592 168Q1568 168 1555.5 159Q1543 150 1538 144Q1540 127 1553.5 118.5Q1567 110 1582 110Z" glyph-name="elevensixteenths" horiz-adv-x="1800" unicode="&#61984;" /><glyph d="M296 341H154V621L35 617V711L232 764H296ZM646 341H504V621L385 617V711L582 764H646ZM518 0 1050 750H1182L650 0ZM1191 119Q1217 119 1232 120.5Q1247 122 1255 124.5Q1263 127 1265.5 130.5Q1268 134 1268 138Q1268 146 1261.5 151Q1255 156 1244 156H1121V254H1235Q1250 254 1255 259.5Q1260 265 1260 271Q1260 279 1246 285Q1232 291 1191 291Q1149 291 1125.5 282.5Q1102 274 1090 268L1027 376Q1036 383 1051 391Q1066 399 1088 406Q1110 413 1140 418Q1170 423 1210 423Q1254 423 1290.5 416.5Q1327 410 1353.5 395.5Q1380 381 1394.5 359Q1409 337 1409 307Q1409 273 1394 252Q1379 231 1358 224Q1390 212 1407 186Q1424 160 1424 121Q1424 56 1370 21Q1316 -14 1210 -14Q1168 -14 1135.5 -8.5Q1103 -3 1079 4.5Q1055 12 1040 20.5Q1025 29 1019 34L1082 142Q1093 136 1117.5 127.5Q1142 119 1191 119ZM1636 292Q1608 292 1586 281Q1564 270 1553 261L1491 369Q1502 378 1516 387.5Q1530 397 1549.5 405Q1569 413 1595 418Q1621 423 1655 423Q1714 423 1751.5 411.5Q1789 400 1811 381.5Q1833 363 1841 339.5Q1849 316 1849 292Q1849 258 1832.5 231Q1816 204 1792.5 183.5Q1769 163 1743 149Q1717 135 1697 127L1854 130V0H1496V97Q1556 132 1592.5 158.5Q1629 185 1649 204.5Q1669 224 1675.5 237.5Q1682 251 1682 261Q1682 274 1672 283Q1662 292 1636 292Z" glyph-name="eleventhirtyseconds" horiz-adv-x="1900" /><glyph d="M80 78Q80 116 106 142Q132 168 170 168Q208 168 234 142Q260 116 260 78Q260 40 234 14Q208 -12 170 -12Q132 -12 106 14Q80 40 80 78ZM410 78Q410 116 436 142Q462 168 500 168Q538 168 564 142Q590 116 590 78Q590 40 564 14Q538 -12 500 -12Q462 -12 436 14Q410 40 410 78ZM740 78Q740 116 766 142Q792 168 830 168Q868 168 894 142Q920 116 920 78Q920 40 894 14Q868 -12 830 -12Q792 -12 766 14Q740 40 740 78Z" glyph-name="ellipsis" horiz-adv-x="1000" unicode="&#8230;" /><glyph d="M415 585H103V705H415ZM261 394Q220 394 201.5 368.5Q183 343 183 295H325Q332 336 319.5 365Q307 394 261 394ZM25 250Q25 386 83.5 450Q142 514 259 514Q339 514 384.5 486.5Q430 459 452 414.5Q474 370 477 313Q480 256 475 197H183Q183 182 186 167Q189 152 199.5 140Q210 128 229.5 120.5Q249 113 282 113Q330 113 370 127.5Q410 142 428 158L487 58Q474 46 454 33.5Q434 21 406.5 10.5Q379 0 345 -7Q311 -14 270 -14Q201 -14 154.5 5Q108 24 79 58.5Q50 93 37.5 141.5Q25 190 25 250Z" glyph-name="emacron" horiz-adv-x="509" unicode="&#275;" /><glyph d="M413 585H101V705H413ZM424 187H213V132H452V0H55V500H452V368H213V313H424Z" glyph-name="emacron.smcp" horiz-adv-x="500" unicode="&#57922;" /><glyph d="M955 250H45V388H955Z" glyph-name="emdash" horiz-adv-x="1000" unicode="&#8212;" /><glyph d="M955 306H45V444H955Z" glyph-name="emdash.cap" horiz-adv-x="1000" unicode="&#58502;" /><glyph d="M955 181H45V319H955Z" glyph-name="emdash.smcp" horiz-adv-x="1000" unicode="&#60324;" /><glyph glyph-name="emspace" horiz-adv-x="1000" unicode="&#8195;" /><glyph d="M455 250H45V388H455Z" glyph-name="endash" horiz-adv-x="500" unicode="&#8211;" /><glyph d="M455 306H45V444H455Z" glyph-name="endash.cap" horiz-adv-x="500" unicode="&#58500;" /><glyph d="M455 181H45V319H455Z" glyph-name="endash.smcp" horiz-adv-x="500" unicode="&#60323;" /><glyph d="M255 -123Q309 -120 329.5 -96Q350 -72 350 -37V322Q350 350 338 367Q326 384 294 384Q265 384 240.5 375Q216 366 205 358V0H45V500H141L161 464Q203 490 248 502Q293 514 335 514Q386 514 419.5 501.5Q453 489 473.5 466.5Q494 444 502 413Q510 382 510 346V-62Q510 -113 491 -150Q472 -187 439.5 -211.5Q407 -236 364 -248.5Q321 -261 273 -263Z" glyph-name="eng" horiz-adv-x="550" unicode="&#331;" /><glyph d="M290 -123Q344 -120 365 -96Q386 -72 386 -37V48L206 253L210 0H55V500H172L394 247L390 500H545V-62Q545 -113 526 -150Q507 -187 474.5 -211.5Q442 -236 399 -248.5Q356 -261 308 -263Z" glyph-name="eng.smcp" horiz-adv-x="600" unicode="&#58155;" /><glyph glyph-name="enspace" horiz-adv-x="500" unicode="&#8194;" /><glyph d="M25 250Q25 386 83.5 450Q142 514 259 514Q339 514 384.5 486.5Q430 459 452 414.5Q474 370 477 313Q480 256 475 197H183Q183 182 186 167Q189 152 199.5 140Q210 128 229.5 120.5Q249 113 282 113Q330 113 370 127.5Q410 142 428 158L487 58Q470 43 442 27Q414 11 375 0Q323 -14 297.5 -45.5Q272 -77 272 -105Q272 -131 286.5 -142Q301 -153 317 -153Q336 -153 349 -147.5Q362 -142 369 -137L417 -216Q400 -230 370.5 -242.5Q341 -255 295 -255Q267 -255 241 -248Q215 -241 195.5 -226Q176 -211 164 -187.5Q152 -164 152 -132Q152 -91 169.5 -61Q187 -31 214 -10Q162 -3 125.5 19Q89 41 67 74.5Q45 108 35 152.5Q25 197 25 250ZM261 394Q220 394 201.5 368.5Q183 343 183 295H325Q332 336 319.5 365Q307 394 261 394Z" glyph-name="eogonek" horiz-adv-x="509" unicode="&#281;" /><glyph d="M424 187H213V132H452V0Q400 -14 374.5 -45.5Q349 -77 349 -105Q349 -131 363.5 -142Q378 -153 394 -153Q413 -153 426 -147.5Q439 -142 446 -137L494 -216Q477 -230 447.5 -242.5Q418 -255 372 -255Q344 -255 318 -248Q292 -241 272.5 -226Q253 -211 241 -187.5Q229 -164 229 -132Q229 -86 250.5 -54Q272 -22 304 0H55V500H452V368H213V313H424Z" glyph-name="eogonek.smcp" horiz-adv-x="500" unicode="&#57929;" /><glyph d="M50 402V554H550V402ZM50 196V348H550V196Z" glyph-name="equal" horiz-adv-x="600" unicode="=" /><glyph d="M75 442V594H825V442ZM75 156V308H825V156Z" glyph-name="equal.cap" horiz-adv-x="900" unicode="&#58773;" /><glyph d="M32 -27V125H372V-27ZM32 -215V-63H372V-215Z" glyph-name="equal.inf" horiz-adv-x="404" unicode="&#58749;" /><glyph d="M50 93V245H550V93ZM50 505V657H550V505ZM50 299V451H550V299Z" glyph-name="equivalence" horiz-adv-x="600" unicode="&#8801;" /><glyph d="M75 13V165H825V13ZM75 585V737H825V585ZM75 299V451H825V299Z" glyph-name="equivalence.cap" horiz-adv-x="900" unicode="&#62000;" /><glyph d="M732 191Q716 147 687.5 109.5Q659 72 618.5 44.5Q578 17 525 1.5Q472 -14 406 -14Q308 -14 240 19Q172 52 130 107Q88 162 69 232Q50 302 50 375Q50 449 69 518.5Q88 588 130 643Q172 698 240 731Q308 764 406 764Q504 764 572 731Q640 698 682 643Q724 588 743 518.5Q762 449 762 375V312H283V155Q306 132 337.5 124Q369 116 406 116Q451 116 484.5 133Q518 150 531 191ZM406 634Q369 634 337.5 626Q306 618 283 595V438H529V595Q505 618 474 626Q443 634 406 634Z" glyph-name="estimated" horiz-adv-x="812" unicode="&#8494;" /><glyph d="M495 250Q495 192 484.5 143Q474 94 447 59.5Q420 25 374.5 5.5Q329 -14 260 -14Q191 -14 145.5 5.5Q100 25 73 59.5Q46 94 35.5 143Q25 192 25 250Q25 309 36 357.5Q47 406 72.5 440.5Q98 475 139 494.5Q180 514 240 514Q259 514 275.5 511.5Q292 509 299 505Q288 528 274 547.5Q260 567 248 581L111 511V590L201 636Q159 676 116 704.5Q73 733 36 750H255Q271 740 288.5 728Q306 716 324 699L424 750V671L375 646Q399 616 421 578Q443 540 459.5 491Q476 442 485.5 382.5Q495 323 495 250ZM260 386Q218 386 201.5 355.5Q185 325 185 250Q185 175 201.5 144.5Q218 114 260 114Q302 114 318.5 144.5Q335 175 335 250Q335 325 318.5 355.5Q302 386 260 386Z" glyph-name="eth" horiz-adv-x="576" unicode="&#240;" /><glyph d="M25 311H93V500H314Q380 500 426.5 482.5Q473 465 502.5 432.5Q532 400 546 353.5Q560 307 560 250Q560 193 546 146.5Q532 100 502.5 67.5Q473 35 426.5 17.5Q380 0 314 0H93V191H25ZM310 140Q363 140 382.5 172Q402 204 402 250Q402 297 382.5 328.5Q363 360 310 360H251V311H334V191H251V140Z" glyph-name="eth.smcp" horiz-adv-x="596" unicode="&#58156;" /><glyph d="M62 210 26 750H214L178 210ZM30 78Q30 116 56 142Q82 168 120 168Q158 168 184 142Q210 116 210 78Q210 40 184 14Q158 -12 120 -12Q82 -12 56 14Q30 40 30 78Z" glyph-name="exclam" horiz-adv-x="240" unicode="!" /><glyph d="M64 198 33 500H207L176 198ZM30 78Q30 116 56 142Q82 168 120 168Q158 168 184 142Q210 116 210 78Q210 40 184 14Q158 -12 120 -12Q82 -12 56 14Q30 40 30 78Z" glyph-name="exclam.smcp" horiz-adv-x="240" unicode="&#58434;" /><glyph d="M178 290 214 -250H26L62 290ZM210 422Q210 384 184 358Q158 332 120 332Q82 332 56 358Q30 384 30 422Q30 460 56 486Q82 512 120 512Q158 512 184 486Q210 460 210 422Z" glyph-name="exclamdown" horiz-adv-x="240" unicode="&#161;" /><glyph d="M178 540 214 0H26L62 540ZM210 672Q210 634 184 608Q158 582 120 582Q82 582 56 608Q30 634 30 672Q30 710 56 736Q82 762 120 762Q158 762 184 736Q210 710 210 672Z" glyph-name="exclamdown.cap" horiz-adv-x="240" unicode="&#58433;" /><glyph d="M176 302 207 0H33L64 302ZM210 422Q210 384 184 358Q158 332 120 332Q82 332 56 358Q30 384 30 422Q30 460 56 486Q82 512 120 512Q158 512 184 486Q210 460 210 422Z" glyph-name="exclamdown.smcp" horiz-adv-x="240" unicode="&#58435;" /><glyph d="M359 611Q351 619 339 625Q327 631 307 631Q286 631 268.5 618Q251 605 251 573V500H380V367H251V0H91V367H10V485L91 497V586Q91 671 134.5 717.5Q178 764 275 764Q305 764 327.5 759.5Q350 755 365.5 748Q381 741 391.5 733.5Q402 726 408 720Z" glyph-name="f" horiz-adv-x="390" unicode="f" /><glyph d="M414 179H213V0H54V500H442V368H213V305H414Z" glyph-name="f.smcp" horiz-adv-x="472" unicode="&#57862;" /><glyph d="M359 611Q351 619 339 625Q327 631 307 631Q286 631 268.5 618Q251 605 251 573V500H380V367H251V0H91V367H10V485L91 497V586Q91 671 134.5 717.5Q178 764 275 764Q305 764 327.5 759.5Q350 755 365.5 748Q381 741 391.5 733.5Q402 726 408 720ZM440 0V500H599V0Z" glyph-name="f_dotlessi" horiz-adv-x="650" unicode="&#59248;" /><glyph d="M359 611Q351 619 339 625Q327 631 307 631Q286 631 268.5 618Q251 605 251 573V500H380V367H251V0H91V367H10V485L91 497V586Q91 671 134.5 717.5Q178 764 275 764Q305 764 327.5 759.5Q350 755 365.5 748Q381 741 391.5 733.5Q402 726 408 720ZM141 870Q141 910 162.5 932.5Q184 955 231 955Q276 955 298.5 932.5Q321 910 321 870Q321 829 298.5 807Q276 785 231 785Q184 785 162.5 807Q141 829 141 870Z" glyph-name="fdotaccent" horiz-adv-x="390" unicode="&#7711;" /><glyph d="M414 179H213V0H54V500H442V368H213V305H414ZM162 645Q162 683 188 709Q214 735 252 735Q290 735 316 709Q342 683 342 645Q342 607 316 581Q290 555 252 555Q214 555 188 581Q162 607 162 645Z" glyph-name="fdotaccent.smcp" horiz-adv-x="472" /><glyph d="M359 611Q351 619 339 625Q327 631 307 631Q286 631 268.5 618Q251 605 251 573V500H380V367H251V0H91V367H10V485L91 497V586Q91 671 134.5 717.5Q178 764 275 764Q305 764 327.5 759.5Q350 755 365.5 748Q381 741 391.5 733.5Q402 726 408 720ZM440 0V500H599V0ZM430 645Q430 683 456 709Q482 735 520 735Q558 735 584 709Q610 683 610 645Q610 607 584 581Q558 555 520 555Q482 555 456 581Q430 607 430 645Z" glyph-name="fi" horiz-adv-x="650" unicode="&#64257;" /><glyph d="M296 341H154V621L35 617V711L232 764H296ZM431 486Q442 478 469 469Q496 460 553 460Q591 460 602.5 466Q614 472 614 482Q614 498 584 498H402V750H758V615H542V597H565Q621 597 660.5 591.5Q700 586 724.5 572Q749 558 760.5 532.5Q772 507 772 468Q772 396 722 361.5Q672 327 558 327Q515 327 484 331.5Q453 336 430.5 343.5Q408 351 392.5 359.5Q377 368 366 375ZM618 0 1150 750H1282L750 0ZM1396 0H1254V280L1135 276V370L1332 423H1396ZM1721 296Q1709 296 1692 294.5Q1675 293 1659 288Q1643 283 1631.5 273Q1620 263 1618 245Q1629 259 1658 269.5Q1687 280 1722 280Q1769 280 1800.5 270.5Q1832 261 1850.5 243Q1869 225 1877 199.5Q1885 174 1885 141Q1885 71 1837 28.5Q1789 -14 1676 -14Q1565 -14 1517.5 41Q1470 96 1470 205Q1470 317 1525 370Q1580 423 1703 423Q1778 423 1820.5 410.5Q1863 398 1882 383L1821 277Q1807 285 1782.5 290.5Q1758 296 1721 296ZM1682 110Q1705 110 1715.5 119Q1726 128 1726 139Q1726 149 1719.5 158.5Q1713 168 1692 168Q1668 168 1655.5 159Q1643 150 1638 144Q1640 127 1653.5 118.5Q1667 110 1682 110Z" glyph-name="fifteensixteenths" horiz-adv-x="1900" unicode="&#61986;" /><glyph d="M296 341H154V621L35 617V711L232 764H296ZM431 486Q442 478 469 469Q496 460 553 460Q591 460 602.5 466Q614 472 614 482Q614 498 584 498H402V750H758V615H542V597H565Q621 597 660.5 591.5Q700 586 724.5 572Q749 558 760.5 532.5Q772 507 772 468Q772 396 722 361.5Q672 327 558 327Q515 327 484 331.5Q453 336 430.5 343.5Q408 351 392.5 359.5Q377 368 366 375ZM618 0 1150 750H1282L750 0ZM1291 119Q1317 119 1332 120.5Q1347 122 1355 124.5Q1363 127 1365.5 130.5Q1368 134 1368 138Q1368 146 1361.5 151Q1355 156 1344 156H1221V254H1335Q1350 254 1355 259.5Q1360 265 1360 271Q1360 279 1346 285Q1332 291 1291 291Q1249 291 1225.5 282.5Q1202 274 1190 268L1127 376Q1136 383 1151 391Q1166 399 1188 406Q1210 413 1240 418Q1270 423 1310 423Q1354 423 1390.5 416.5Q1427 410 1453.5 395.5Q1480 381 1494.5 359Q1509 337 1509 307Q1509 273 1494 252Q1479 231 1458 224Q1490 212 1507 186Q1524 160 1524 121Q1524 56 1470 21Q1416 -14 1310 -14Q1268 -14 1235.5 -8.5Q1203 -3 1179 4.5Q1155 12 1140 20.5Q1125 29 1119 34L1182 142Q1193 136 1217.5 127.5Q1242 119 1291 119ZM1736 292Q1708 292 1686 281Q1664 270 1653 261L1591 369Q1602 378 1616 387.5Q1630 397 1649.5 405Q1669 413 1695 418Q1721 423 1755 423Q1814 423 1851.5 411.5Q1889 400 1911 381.5Q1933 363 1941 339.5Q1949 316 1949 292Q1949 258 1932.5 231Q1916 204 1892.5 183.5Q1869 163 1843 149Q1817 135 1797 127L1954 130V0H1596V97Q1656 132 1692.5 158.5Q1729 185 1749 204.5Q1769 224 1775.5 237.5Q1782 251 1782 261Q1782 274 1772 283Q1762 292 1736 292Z" glyph-name="fifteenthirtyseconds" horiz-adv-x="2000" /><glyph d="M555 250H45V388H555Z" glyph-name="figuredash" horiz-adv-x="600" unicode="&#8210;" /><glyph d="M555 306H45V444H555Z" glyph-name="figuredash.cap" horiz-adv-x="600" unicode="&#58503;" /><glyph d="M555 181H45V319H555Z" glyph-name="figuredash.smcp" horiz-adv-x="600" unicode="&#60325;" /><glyph glyph-name="figurespace" horiz-adv-x="600" unicode="&#8199;" /><glyph d="M232 132Q252 132 273 135.5Q294 139 311 149.5Q328 160 339.5 178.5Q351 197 351 227Q351 257 342 274.5Q333 292 317 300.5Q301 309 278.5 311.5Q256 314 230 314H70V750H486V600H228V453Q234 454 244.5 454Q255 454 263 454Q317 454 363 445.5Q409 437 442 413Q475 389 494 346Q513 303 513 233Q513 160 491 112.5Q469 65 432 36.5Q395 8 346 -3.5Q297 -15 243 -15Q203 -15 169.5 -8.5Q136 -2 108.5 8.5Q81 19 60 31.5Q39 44 25 56L98 182Q117 167 150.5 149.5Q184 132 232 132Z" glyph-name="five" horiz-adv-x="550" unicode="5" /><glyph d="M232 132Q252 132 273 135.5Q294 139 311 149.5Q328 160 339.5 178.5Q351 197 351 227Q351 257 342 274.5Q333 292 317 300.5Q301 309 278.5 311.5Q256 314 230 314H70V750H486V600H228V453Q234 454 244.5 454Q255 454 263 454Q317 454 363 445.5Q409 437 442 413Q475 389 494 346Q513 303 513 233Q513 160 491 112.5Q469 65 432 36.5Q395 8 346 -3.5Q297 -15 243 -15Q203 -15 169.5 -8.5Q136 -2 108.5 8.5Q81 19 60 31.5Q39 44 25 56L98 182Q117 167 150.5 149.5Q184 132 232 132Z" glyph-name="five.LT" horiz-adv-x="550" unicode="&#58693;" /><glyph d="M232 -118Q252 -118 273 -114.5Q294 -111 311 -100.5Q328 -90 339.5 -71.5Q351 -53 351 -23Q351 7 342 24.5Q333 42 317 50.5Q301 59 278.5 61.5Q256 64 230 64H70V500H486V350H228V203Q234 204 244.5 204Q255 204 263 204Q317 204 363 195.5Q409 187 442 163Q475 139 494 96Q513 53 513 -17Q513 -90 491 -137.5Q469 -185 432 -213.5Q395 -242 346 -253.5Q297 -265 243 -265Q203 -265 169.5 -258.5Q136 -252 108.5 -241.5Q81 -231 60 -218.5Q39 -206 25 -194L98 -68Q117 -83 150.5 -100.5Q184 -118 232 -118Z" glyph-name="five.OP" horiz-adv-x="550" unicode="&#58688;" /><glyph d="M81 -105Q92 -113 119 -122Q146 -131 203 -131Q241 -131 252.5 -125Q264 -119 264 -109Q264 -93 234 -93H52V159H408V24H192V6H215Q271 6 310.5 0.5Q350 -5 374.5 -19Q399 -33 410.5 -58.5Q422 -84 422 -123Q422 -195 372 -229.5Q322 -264 208 -264Q165 -264 134 -259.5Q103 -255 80.5 -247.5Q58 -240 42.5 -232Q27 -224 16 -216Z" glyph-name="five.inf" horiz-adv-x="450" unicode="&#58742;" /><glyph d="M81 486Q92 478 119 469Q146 460 203 460Q241 460 252.5 466Q264 472 264 482Q264 498 234 498H52V750H408V615H192V597H215Q271 597 310.5 591.5Q350 586 374.5 572Q399 558 410.5 532.5Q422 507 422 468Q422 396 372 361.5Q322 327 208 327Q165 327 134 331.5Q103 336 80.5 343.5Q58 351 42.5 359.5Q27 368 16 375ZM268 0 800 750H932L400 0ZM1046 0H904V280L785 276V370L982 423H1046ZM1371 296Q1359 296 1342 294.5Q1325 293 1309 288Q1293 283 1281.5 273Q1270 263 1268 245Q1279 259 1308 269.5Q1337 280 1372 280Q1419 280 1450.5 270.5Q1482 261 1500.5 243Q1519 225 1527 199.5Q1535 174 1535 141Q1535 71 1487 28.5Q1439 -14 1326 -14Q1215 -14 1167.5 41Q1120 96 1120 205Q1120 317 1175 370Q1230 423 1353 423Q1428 423 1470.5 410.5Q1513 398 1532 383L1471 277Q1457 285 1432.5 290.5Q1408 296 1371 296ZM1332 110Q1355 110 1365.5 119Q1376 128 1376 139Q1376 149 1369.5 158.5Q1363 168 1342 168Q1318 168 1305.5 159Q1293 150 1288 144Q1290 127 1303.5 118.5Q1317 110 1332 110Z" glyph-name="fivesixteenths" horiz-adv-x="1550" unicode="&#61975;" /><glyph d="M81 486Q92 478 119 469Q146 460 203 460Q241 460 252.5 466Q264 472 264 482Q264 498 234 498H52V750H408V615H192V597H215Q271 597 310.5 591.5Q350 586 374.5 572Q399 558 410.5 532.5Q422 507 422 468Q422 396 372 361.5Q322 327 208 327Q165 327 134 331.5Q103 336 80.5 343.5Q58 351 42.5 359.5Q27 368 16 375ZM268 0 800 750H932L400 0ZM941 119Q967 119 982 120.5Q997 122 1005 124.5Q1013 127 1015.5 130.5Q1018 134 1018 138Q1018 146 1011.5 151Q1005 156 994 156H871V254H985Q1000 254 1005 259.5Q1010 265 1010 271Q1010 279 996 285Q982 291 941 291Q899 291 875.5 282.5Q852 274 840 268L777 376Q786 383 801 391Q816 399 838 406Q860 413 890 418Q920 423 960 423Q1004 423 1040.5 416.5Q1077 410 1103.5 395.5Q1130 381 1144.5 359Q1159 337 1159 307Q1159 273 1144 252Q1129 231 1108 224Q1140 212 1157 186Q1174 160 1174 121Q1174 56 1120 21Q1066 -14 960 -14Q918 -14 885.5 -8.5Q853 -3 829 4.5Q805 12 790 20.5Q775 29 769 34L832 142Q843 136 867.5 127.5Q892 119 941 119ZM1386 292Q1358 292 1336 281Q1314 270 1303 261L1241 369Q1252 378 1266 387.5Q1280 397 1299.5 405Q1319 413 1345 418Q1371 423 1405 423Q1464 423 1501.5 411.5Q1539 400 1561 381.5Q1583 363 1591 339.5Q1599 316 1599 292Q1599 258 1582.5 231Q1566 204 1542.5 183.5Q1519 163 1493 149Q1467 135 1447 127L1604 130V0H1246V97Q1306 132 1342.5 158.5Q1379 185 1399 204.5Q1419 224 1425.5 237.5Q1432 251 1432 261Q1432 274 1422 283Q1412 292 1386 292Z" glyph-name="fivethirtyseconds" horiz-adv-x="1650" /><glyph d="M359 611Q351 619 339 625Q327 631 307 631Q286 631 268.5 618Q251 605 251 573V500H380V367H251V0H91V367H10V485L91 497V586Q91 671 134.5 717.5Q178 764 275 764Q305 764 327.5 759.5Q350 755 365.5 748Q381 741 391.5 733.5Q402 726 408 720ZM440 0V750H599V0Z" glyph-name="fl" horiz-adv-x="649" unicode="&#64258;" /><glyph d="M369 764Q417 764 451.5 756Q486 748 509.5 737.5Q533 727 546.5 716Q560 705 566 699L497 581Q483 593 456 606Q429 619 382 619Q332 619 303 599Q274 579 274 537V497H502V377H274V0H116V377H45V497H116V548Q116 590 127 629Q138 668 166.5 698Q195 728 244 746Q293 764 369 764Z" glyph-name="florin" horiz-adv-x="600" unicode="&#402;" /><glyph d="M441 310V190H262V-250H102V190H21V310H102V338Q102 427 162.5 470.5Q223 514 332 514Q364 514 390.5 508Q417 502 437 493.5Q457 485 471 475.5Q485 466 491 460L428 350Q419 358 397.5 369.5Q376 381 342 381Q307 381 284.5 367.5Q262 354 262 319V310Z" glyph-name="florin.OP" horiz-adv-x="494" unicode="&#59809;" /><glyph d="M297 525 176 325 294 327ZM294 0V176H24V290L310 765H449V327H526V176H449V0Z" glyph-name="four" horiz-adv-x="550" unicode="4" /><glyph d="M297 525 176 325 294 327ZM294 0V176H24V290L310 765H449V327H526V176H449V0Z" glyph-name="four.LT" horiz-adv-x="550" unicode="&#58692;" /><glyph d="M297 275 176 75 294 77ZM294 -250V-74H24V40L310 515H449V77H526V-74H449V-250Z" glyph-name="four.OP" horiz-adv-x="550" unicode="&#58703;" /><glyph d="M13 -90 210 173H379V-59H439V-186H379V-250H240V-186H13ZM240 -59 245 26 185 -61Z" glyph-name="four.inf" horiz-adv-x="450" unicode="&#58741;" /><glyph glyph-name="fourperemspace" horiz-adv-x="250" unicode="&#8197;" /><glyph d="M-182 0 350 750H482L-50 0Z" glyph-name="fraction" horiz-adv-x="300" unicode="&#8260;" /><glyph d="M263 0H98V262H36V362H98V390H36V490H98V750H563V600H263V490H522V390H263V362H522V262H263Z" glyph-name="franc" horiz-adv-x="600" unicode="&#8355;" /><glyph d="M25 322Q25 417 79 465.5Q133 514 250 514Q285 514 312.5 511.5Q340 509 367 500H530V393L468 380Q475 352 475 322Q475 227 421 178.5Q367 130 250 130Q236 130 223.5 130Q211 130 199 132Q197 129 194.5 124.5Q192 120 192 113Q192 98 212 95L405 70Q444 65 470 52.5Q496 40 511.5 21.5Q527 3 533.5 -22Q540 -47 540 -77Q540 -128 513.5 -163.5Q487 -199 443.5 -221.5Q400 -244 344.5 -254Q289 -264 232 -264Q185 -264 142 -256.5Q99 -249 66.5 -232.5Q34 -216 14.5 -190Q-5 -164 -5 -128Q-5 -103 4 -82Q13 -61 28 -46Q43 -31 61.5 -21Q80 -11 99 -7Q76 5 64.5 26.5Q53 48 53 74Q53 95 67.5 119Q82 143 106 160Q25 207 25 322ZM181 -34Q165 -40 154 -54Q143 -68 143 -85Q143 -112 166 -128Q189 -144 249 -144Q306 -144 344 -127Q382 -110 382 -85Q382 -60 354 -56ZM177 322Q177 248 250 248Q323 248 323 322Q323 396 250 396Q177 396 177 322Z" glyph-name="g" horiz-adv-x="540" unicode="g" /><glyph d="M504 500V-59Q504 -89 493.5 -125Q483 -161 455.5 -192Q428 -223 379 -243.5Q330 -264 252 -264Q206 -264 171 -259Q136 -254 108.5 -244.5Q81 -235 59.5 -222Q38 -209 20 -193L84 -84Q113 -110 149 -123Q185 -136 238 -136Q289 -136 316.5 -115.5Q344 -95 344 -54V18Q321 4 291 -5Q261 -14 219 -14Q121 -14 73 48.5Q25 111 25 250Q25 389 73 451.5Q121 514 219 514Q279 514 317 498.5Q355 483 381 460L408 500ZM344 363Q335 369 324 374Q313 378 300.5 381Q288 384 273 384Q218 384 200.5 349.5Q183 315 183 250Q183 186 200.5 151Q218 116 273 116Q288 116 301 119.5Q314 123 324 127Q335 131 344 137Z" glyph-name="g.school" horiz-adv-x="549" unicode="&#57697;" /><glyph d="M300 125Q320 125 332 128Q344 131 349 136V189H281V305H503V39Q471 12 419 -0.5Q367 -13 310 -13Q172 -13 106 50Q40 113 40 250Q40 376 102 444.5Q164 513 306 513Q377 513 425.5 496.5Q474 480 503 448L433 330Q426 341 400.5 356.5Q375 372 328 372Q301 372 277 367Q253 362 236 348.5Q219 335 209 311Q199 287 199 250Q199 181 225.5 153Q252 125 300 125Z" glyph-name="g.smcp" horiz-adv-x="550" unicode="&#57863;" /><glyph d="M255 664Q298 664 316.5 681Q335 698 335 750H453Q453 692 440.5 653.5Q428 615 403 592Q378 569 341 559.5Q304 550 255 550Q206 550 169 559.5Q132 569 107 592Q82 615 69.5 653.5Q57 692 57 750H175Q175 698 193.5 681Q212 664 255 664ZM25 322Q25 417 79 465.5Q133 514 250 514Q285 514 312.5 511.5Q340 509 367 500H530V393L468 380Q475 352 475 322Q475 227 421 178.5Q367 130 250 130Q236 130 223.5 130Q211 130 199 132Q197 129 194.5 124.5Q192 120 192 113Q192 98 212 95L405 70Q444 65 470 52.5Q496 40 511.5 21.5Q527 3 533.5 -22Q540 -47 540 -77Q540 -128 513.5 -163.5Q487 -199 443.5 -221.5Q400 -244 344.5 -254Q289 -264 232 -264Q185 -264 142 -256.5Q99 -249 66.5 -232.5Q34 -216 14.5 -190Q-5 -164 -5 -128Q-5 -103 4 -82Q13 -61 28 -46Q43 -31 61.5 -21Q80 -11 99 -7Q76 5 64.5 26.5Q53 48 53 74Q53 95 67.5 119Q82 143 106 160Q25 207 25 322ZM181 -34Q165 -40 154 -54Q143 -68 143 -85Q143 -112 166 -128Q189 -144 249 -144Q306 -144 344 -127Q382 -110 382 -85Q382 -60 354 -56ZM177 322Q177 248 250 248Q323 248 323 322Q323 396 250 396Q177 396 177 322Z" glyph-name="gbreve" horiz-adv-x="550" unicode="&#287;" /><glyph d="M270 664Q313 664 331.5 681Q350 698 350 750H468Q468 692 455.5 653.5Q443 615 418 592Q393 569 356 559.5Q319 550 270 550Q221 550 184 559.5Q147 569 122 592Q97 615 84.5 653.5Q72 692 72 750H190Q190 698 208.5 681Q227 664 270 664ZM504 500V-59Q504 -89 493.5 -125Q483 -161 455.5 -192Q428 -223 379 -243.5Q330 -264 252 -264Q206 -264 171 -259Q136 -254 108.5 -244.5Q81 -235 59.5 -222Q38 -209 20 -193L84 -84Q113 -110 149 -123Q185 -136 238 -136Q289 -136 316.5 -115.5Q344 -95 344 -54V18Q321 4 291 -5Q261 -14 219 -14Q121 -14 73 48.5Q25 111 25 250Q25 389 73 451.5Q121 514 219 514Q279 514 317 498.5Q355 483 381 460L408 500ZM344 363Q335 369 324 374Q313 378 300.5 381Q288 384 273 384Q218 384 200.5 349.5Q183 315 183 250Q183 186 200.5 151Q218 116 273 116Q288 116 301 119.5Q314 123 324 127Q335 131 344 137Z" glyph-name="gbreve.school" horiz-adv-x="549" unicode="&#57702;" /><glyph d="M300 125Q320 125 332 128Q344 131 349 136V189H281V305H503V39Q471 12 419 -0.5Q367 -13 310 -13Q172 -13 106 50Q40 113 40 250Q40 376 102 444.5Q164 513 306 513Q377 513 425.5 496.5Q474 480 503 448L433 330Q426 341 400.5 356.5Q375 372 328 372Q301 372 277 367Q253 362 236 348.5Q219 335 209 311Q199 287 199 250Q199 181 225.5 153Q252 125 300 125ZM301 664Q344 664 362.5 681Q381 698 381 750H499Q499 692 486.5 653.5Q474 615 449 592Q424 569 387 559.5Q350 550 301 550Q252 550 215 559.5Q178 569 153 592Q128 615 115.5 653.5Q103 692 103 750H221Q221 698 239.5 681Q258 664 301 664Z" glyph-name="gbreve.smcp" horiz-adv-x="550" unicode="&#57934;" /><glyph d="M47 550 180 750H330L463 550H340L255 645L170 550ZM25 322Q25 417 79 465.5Q133 514 250 514Q285 514 312.5 511.5Q340 509 367 500H530V393L468 380Q475 352 475 322Q475 227 421 178.5Q367 130 250 130Q236 130 223.5 130Q211 130 199 132Q197 129 194.5 124.5Q192 120 192 113Q192 98 212 95L405 70Q444 65 470 52.5Q496 40 511.5 21.5Q527 3 533.5 -22Q540 -47 540 -77Q540 -128 513.5 -163.5Q487 -199 443.5 -221.5Q400 -244 344.5 -254Q289 -264 232 -264Q185 -264 142 -256.5Q99 -249 66.5 -232.5Q34 -216 14.5 -190Q-5 -164 -5 -128Q-5 -103 4 -82Q13 -61 28 -46Q43 -31 61.5 -21Q80 -11 99 -7Q76 5 64.5 26.5Q53 48 53 74Q53 95 67.5 119Q82 143 106 160Q25 207 25 322ZM181 -34Q165 -40 154 -54Q143 -68 143 -85Q143 -112 166 -128Q189 -144 249 -144Q306 -144 344 -127Q382 -110 382 -85Q382 -60 354 -56ZM177 322Q177 248 250 248Q323 248 323 322Q323 396 250 396Q177 396 177 322Z" glyph-name="gcircumflex" horiz-adv-x="550" unicode="&#285;" /><glyph d="M62 550 195 750H345L478 550H355L270 645L185 550ZM504 500V-59Q504 -89 493.5 -125Q483 -161 455.5 -192Q428 -223 379 -243.5Q330 -264 252 -264Q206 -264 171 -259Q136 -254 108.5 -244.5Q81 -235 59.5 -222Q38 -209 20 -193L84 -84Q113 -110 149 -123Q185 -136 238 -136Q289 -136 316.5 -115.5Q344 -95 344 -54V18Q321 4 291 -5Q261 -14 219 -14Q121 -14 73 48.5Q25 111 25 250Q25 389 73 451.5Q121 514 219 514Q279 514 317 498.5Q355 483 381 460L408 500ZM344 363Q335 369 324 374Q313 378 300.5 381Q288 384 273 384Q218 384 200.5 349.5Q183 315 183 250Q183 186 200.5 151Q218 116 273 116Q288 116 301 119.5Q314 123 324 127Q335 131 344 137Z" glyph-name="gcircumflex.school" horiz-adv-x="549" unicode="&#57699;" /><glyph d="M300 125Q320 125 332 128Q344 131 349 136V189H281V305H503V39Q471 12 419 -0.5Q367 -13 310 -13Q172 -13 106 50Q40 113 40 250Q40 376 102 444.5Q164 513 306 513Q377 513 425.5 496.5Q474 480 503 448L433 330Q426 341 400.5 356.5Q375 372 328 372Q301 372 277 367Q253 362 236 348.5Q219 335 209 311Q199 287 199 250Q199 181 225.5 153Q252 125 300 125ZM93 550 226 750H376L509 550H386L301 645L216 550Z" glyph-name="gcircumflex.smcp" horiz-adv-x="550" unicode="&#57931;" /><glyph d="M346 750 322 550H164L225 750ZM25 322Q25 417 79 465.5Q133 514 250 514Q285 514 312.5 511.5Q340 509 367 500H530V393L468 380Q475 352 475 322Q475 227 421 178.5Q367 130 250 130Q236 130 223.5 130Q211 130 199 132Q197 129 194.5 124.5Q192 120 192 113Q192 98 212 95L405 70Q444 65 470 52.5Q496 40 511.5 21.5Q527 3 533.5 -22Q540 -47 540 -77Q540 -128 513.5 -163.5Q487 -199 443.5 -221.5Q400 -244 344.5 -254Q289 -264 232 -264Q185 -264 142 -256.5Q99 -249 66.5 -232.5Q34 -216 14.5 -190Q-5 -164 -5 -128Q-5 -103 4 -82Q13 -61 28 -46Q43 -31 61.5 -21Q80 -11 99 -7Q76 5 64.5 26.5Q53 48 53 74Q53 95 67.5 119Q82 143 106 160Q25 207 25 322ZM181 -34Q165 -40 154 -54Q143 -68 143 -85Q143 -112 166 -128Q189 -144 249 -144Q306 -144 344 -127Q382 -110 382 -85Q382 -60 354 -56ZM177 322Q177 248 250 248Q323 248 323 322Q323 396 250 396Q177 396 177 322Z" glyph-name="gcommaaccent" horiz-adv-x="550" unicode="&#291;" /><glyph d="M361 750 337 550H179L240 750ZM504 500V-59Q504 -89 493.5 -125Q483 -161 455.5 -192Q428 -223 379 -243.5Q330 -264 252 -264Q206 -264 171 -259Q136 -254 108.5 -244.5Q81 -235 59.5 -222Q38 -209 20 -193L84 -84Q113 -110 149 -123Q185 -136 238 -136Q289 -136 316.5 -115.5Q344 -95 344 -54V18Q321 4 291 -5Q261 -14 219 -14Q121 -14 73 48.5Q25 111 25 250Q25 389 73 451.5Q121 514 219 514Q279 514 317 498.5Q355 483 381 460L408 500ZM344 363Q335 369 324 374Q313 378 300.5 381Q288 384 273 384Q218 384 200.5 349.5Q183 315 183 250Q183 186 200.5 151Q218 116 273 116Q288 116 301 119.5Q314 123 324 127Q335 131 344 137Z" glyph-name="gcommaaccent.school" horiz-adv-x="549" unicode="&#57704;" /><glyph d="M300 125Q320 125 332 128Q344 131 349 136V189H281V305H503V39Q471 12 419 -0.5Q367 -13 310 -13Q172 -13 106 50Q40 113 40 250Q40 376 102 444.5Q164 513 306 513Q377 513 425.5 496.5Q474 480 503 448L433 330Q426 341 400.5 356.5Q375 372 328 372Q301 372 277 367Q253 362 236 348.5Q219 335 209 311Q199 287 199 250Q199 181 225.5 153Q252 125 300 125ZM210 -250 234 -50H392L331 -250Z" glyph-name="gcommaaccent.smcp" horiz-adv-x="550" unicode="&#57920;" /><glyph d="M25 322Q25 417 79 465.5Q133 514 250 514Q285 514 312.5 511.5Q340 509 367 500H530V393L468 380Q475 352 475 322Q475 227 421 178.5Q367 130 250 130Q236 130 223.5 130Q211 130 199 132Q197 129 194.5 124.5Q192 120 192 113Q192 98 212 95L405 70Q444 65 470 52.5Q496 40 511.5 21.5Q527 3 533.5 -22Q540 -47 540 -77Q540 -128 513.5 -163.5Q487 -199 443.5 -221.5Q400 -244 344.5 -254Q289 -264 232 -264Q185 -264 142 -256.5Q99 -249 66.5 -232.5Q34 -216 14.5 -190Q-5 -164 -5 -128Q-5 -103 4 -82Q13 -61 28 -46Q43 -31 61.5 -21Q80 -11 99 -7Q76 5 64.5 26.5Q53 48 53 74Q53 95 67.5 119Q82 143 106 160Q25 207 25 322ZM181 -34Q165 -40 154 -54Q143 -68 143 -85Q143 -112 166 -128Q189 -144 249 -144Q306 -144 344 -127Q382 -110 382 -85Q382 -60 354 -56ZM177 322Q177 248 250 248Q323 248 323 322Q323 396 250 396Q177 396 177 322ZM165 645Q165 683 191 709Q217 735 255 735Q293 735 319 709Q345 683 345 645Q345 607 319 581Q293 555 255 555Q217 555 191 581Q165 607 165 645Z" glyph-name="gdotaccent" horiz-adv-x="550" unicode="&#289;" /><glyph d="M504 500V-59Q504 -89 493.5 -125Q483 -161 455.5 -192Q428 -223 379 -243.5Q330 -264 252 -264Q206 -264 171 -259Q136 -254 108.5 -244.5Q81 -235 59.5 -222Q38 -209 20 -193L84 -84Q113 -110 149 -123Q185 -136 238 -136Q289 -136 316.5 -115.5Q344 -95 344 -54V18Q321 4 291 -5Q261 -14 219 -14Q121 -14 73 48.5Q25 111 25 250Q25 389 73 451.5Q121 514 219 514Q279 514 317 498.5Q355 483 381 460L408 500ZM344 363Q335 369 324 374Q313 378 300.5 381Q288 384 273 384Q218 384 200.5 349.5Q183 315 183 250Q183 186 200.5 151Q218 116 273 116Q288 116 301 119.5Q314 123 324 127Q335 131 344 137ZM180 645Q180 683 206 709Q232 735 270 735Q308 735 334 709Q360 683 360 645Q360 607 334 581Q308 555 270 555Q232 555 206 581Q180 607 180 645Z" glyph-name="gdotaccent.school" horiz-adv-x="549" unicode="&#57703;" /><glyph d="M300 125Q320 125 332 128Q344 131 349 136V189H281V305H503V39Q471 12 419 -0.5Q367 -13 310 -13Q172 -13 106 50Q40 113 40 250Q40 376 102 444.5Q164 513 306 513Q377 513 425.5 496.5Q474 480 503 448L433 330Q426 341 400.5 356.5Q375 372 328 372Q301 372 277 367Q253 362 236 348.5Q219 335 209 311Q199 287 199 250Q199 181 225.5 153Q252 125 300 125ZM211 645Q211 683 237 709Q263 735 301 735Q339 735 365 709Q391 683 391 645Q391 607 365 581Q339 555 301 555Q263 555 237 581Q211 607 211 645Z" glyph-name="gdotaccent.smcp" horiz-adv-x="550" unicode="&#57935;" /><glyph d="M229 373Q229 416 244 442.5Q259 469 277.5 490Q296 511 311 530.5Q326 550 326 578Q326 603 308.5 617Q291 631 263 631Q234 631 216 617Q198 603 198 578V0H41V585Q41 670 94.5 717Q148 764 264 764Q379 764 432 717Q485 670 485 585Q485 548 469.5 521.5Q454 495 435 473.5Q416 452 400.5 433.5Q385 415 385 394Q385 372 398 360.5Q411 349 443 335Q484 318 510 302Q536 286 551 266Q566 246 572 220.5Q578 195 578 160Q578 116 563 83Q548 50 521 28.5Q494 7 457.5 -3.5Q421 -14 379 -14Q321 -14 279 0.5Q237 15 214 38L276 145Q287 137 309 125.5Q331 114 361 114Q387 114 403.5 123.5Q420 133 420 160Q420 177 412.5 188.5Q405 200 394 207.5Q383 215 371.5 220Q360 225 351 228Q320 241 297 253.5Q274 266 259 282Q244 298 236.5 320Q229 342 229 373Z" glyph-name="germandbls" horiz-adv-x="590" unicode="&#223;" /><glyph d="M320 371Q256 371 232.5 355Q209 339 209 309V0H50V330Q50 418 115 466Q180 514 320 514Q432 514 495 483Q558 452 579 395L493 302Q536 296 564.5 285Q593 274 610.5 256.5Q628 239 635 213Q642 187 642 150Q642 67 590 26.5Q538 -14 427 -14Q368 -14 319 -1.5Q270 11 240 43L309 162Q324 148 353.5 137Q383 126 423 126Q457 126 472 133.5Q487 141 487 155Q487 172 472.5 178.5Q458 185 424 188Q367 193 333.5 200Q300 207 279 218V280L361 369Q352 370 342 370.5Q332 371 320 371Z" glyph-name="germandbls.smcp" horiz-adv-x="675" unicode="&#58120;" /><glyph d="M195 550 90 750H250L315 550Z" glyph-name="grave" horiz-adv-x="500" unicode="`" /><glyph d="M196 790 96 910H266L316 790Z" glyph-name="grave.cap" horiz-adv-x="500" unicode="&#58401;" /><glyph d="M50 267 345 375 50 483V643L550 436V314L50 107Z" glyph-name="greater" horiz-adv-x="600" unicode="&gt;" /><glyph d="M75 150 620 375 75 600V760L825 436V314L75 -10Z" glyph-name="greater.cap" horiz-adv-x="900" unicode="&#58775;" /><glyph d="M50 363 289 425 50 487V644L550 479V397L50 248ZM50 107V218L550 367V256Z" glyph-name="greaterequal" horiz-adv-x="600" unicode="&#8805;" /><glyph d="M75 240 564 424 75 609V766L825 478V396L75 125ZM75 -16V95L825 366V255Z" glyph-name="greaterequal.cap" horiz-adv-x="900" unicode="&#61992;" /><glyph d="M55 296 245 446V309L186 250L245 191V53L55 204ZM245 296 435 446V309L376 250L435 191V53L245 204Z" glyph-name="guillemotleft" horiz-adv-x="495" unicode="&#171;" /><glyph d="M55 421 245 571V434L186 375L245 316V178L55 329ZM245 421 435 571V434L376 375L435 316V178L245 329Z" glyph-name="guillemotleft.cap" horiz-adv-x="495" unicode="&#58451;" /><glyph d="M55 296 245 446V309L186 250L245 191V53L55 204ZM245 296 435 446V309L376 250L435 191V53L245 204Z" glyph-name="guillemotleft.smcp" horiz-adv-x="495" unicode="&#62993;" /><glyph d="M440 204 250 53V191L308 250L250 309V446L440 296ZM250 204 60 53V191L118 250L60 309V446L250 296Z" glyph-name="guillemotright" horiz-adv-x="495" unicode="&#187;" /><glyph d="M440 329 250 178V316L308 375L250 434V571L440 421ZM250 329 60 178V316L118 375L60 434V571L250 421Z" glyph-name="guillemotright.cap" horiz-adv-x="495" unicode="&#58452;" /><glyph d="M440 204 250 53V191L308 250L250 309V446L440 296ZM250 204 60 53V191L118 250L60 309V446L250 296Z" glyph-name="guillemotright.smcp" horiz-adv-x="495" unicode="&#62994;" /><glyph d="M55 296 245 446V309L186 250L245 191V53L55 204Z" glyph-name="guilsinglleft" horiz-adv-x="305" unicode="&#8249;" /><glyph d="M55 421 245 571V434L186 375L245 316V178L55 329Z" glyph-name="guilsinglleft.cap" horiz-adv-x="305" unicode="&#58449;" /><glyph d="M55 296 245 446V309L186 250L245 191V53L55 204Z" glyph-name="guilsinglleft.smcp" horiz-adv-x="305" unicode="&#62992;" /><glyph d="M250 204 60 53V191L118 250L60 309V446L250 296Z" glyph-name="guilsinglright" horiz-adv-x="305" unicode="&#8250;" /><glyph d="M250 329 60 178V316L118 375L60 434V571L250 421Z" glyph-name="guilsinglright.cap" horiz-adv-x="305" unicode="&#58450;" /><glyph d="M250 204 60 53V191L118 250L60 309V446L250 296Z" glyph-name="guilsinglright.smcp" horiz-adv-x="305" unicode="&#62995;" /><glyph d="M205 750V482Q231 496 262 505Q293 514 335 514Q386 514 419.5 501.5Q453 489 473.5 466.5Q494 444 502 413Q510 382 510 346V0H350V322Q350 350 338 367Q326 384 294 384Q265 384 240.5 375Q216 366 205 358V0H45V750Z" glyph-name="h" horiz-adv-x="550" unicode="h" /><glyph d="M377 0V189H213V0H55V500H213V325H377V500H535V0Z" glyph-name="h.smcp" horiz-adv-x="590" unicode="&#57864;" /><glyph glyph-name="hairspace" horiz-adv-x="50" unicode="&#8202;" /><glyph d="M205 750V670H307V550H205V482Q231 496 262 505Q293 514 335 514Q386 514 419.5 501.5Q453 489 473.5 466.5Q494 444 502 413Q510 382 510 346V0H350V322Q350 350 338 367Q326 384 294 384Q265 384 240.5 375Q216 366 205 358V0H45V550H-35V670H45V750Z" glyph-name="hbar" horiz-adv-x="550" unicode="&#295;" /><glyph d="M377 0V125H213V0H55V500H213V405H377V500H535V0ZM213 245H377V285H213Z" glyph-name="hbar.smcp" horiz-adv-x="590" unicode="&#57943;" /><glyph d="M-68 790 65 910H185L318 790H200L125 835L50 790ZM205 750V482Q231 496 262 505Q293 514 335 514Q386 514 419.5 501.5Q453 489 473.5 466.5Q494 444 502 413Q510 382 510 346V0H350V322Q350 350 338 367Q326 384 294 384Q265 384 240.5 375Q216 366 205 358V0H45V750Z" glyph-name="hcircumflex" horiz-adv-x="550" unicode="&#293;" /><glyph d="M377 0V189H213V0H55V500H213V325H377V500H535V0ZM87 550 220 750H370L503 550H380L295 645L210 550Z" glyph-name="hcircumflex.smcp" horiz-adv-x="590" unicode="&#57939;" /><glyph d="M439 -10Q427 8 405 38.5Q383 69 353.5 106.5Q324 144 288.5 187Q253 230 215 273Q190 301 162.5 335.5Q135 370 111.5 407.5Q88 445 72.5 484.5Q57 524 57 562Q57 605 69.5 641.5Q82 678 106 704.5Q130 731 164 746Q198 761 241 761Q286 761 318 748.5Q350 736 373.5 715.5Q397 695 412.5 667.5Q428 640 438 610H442Q453 640 468 667.5Q483 695 506.5 715.5Q530 736 562 748.5Q594 761 639 761Q682 761 716 746Q750 731 774 704.5Q798 678 810.5 641.5Q823 605 823 562Q823 524 807.5 484.5Q792 445 768.5 407.5Q745 370 717.5 335.5Q690 301 665 273Q627 230 591.5 187Q556 144 526.5 106.5Q497 69 475 38.5Q453 8 441 -10Z" glyph-name="heart" horiz-adv-x="880" unicode="&#9829;" /><glyph d="M95 550 160 750H320L215 550ZM275 550 340 750H500L395 550Z" glyph-name="hungarumlaut" horiz-adv-x="500" unicode="&#733;" /><glyph d="M85 790 135 910H305L205 790ZM275 790 325 910H495L395 790Z" glyph-name="hungarumlaut.cap" horiz-adv-x="500" unicode="&#58411;" /><glyph d="M290 250H30V388H290Z" glyph-name="hyphen" horiz-adv-x="320" unicode="-" /><glyph d="M290 306H30V444H290Z" glyph-name="hyphen.cap" horiz-adv-x="320" unicode="&#58498;" /><glyph d="M290 181H30V319H290Z" glyph-name="hyphen.smcp" horiz-adv-x="320" unicode="&#62996;" /><glyph d="M50 0V500H209V0ZM40 645Q40 683 66 709Q92 735 130 735Q168 735 194 709Q220 683 220 645Q220 607 194 581Q168 555 130 555Q92 555 66 581Q40 607 40 645Z" glyph-name="i" horiz-adv-x="260" unicode="i" /><glyph d="M55 0V500H213V0Z" glyph-name="i.smcp" horiz-adv-x="270" unicode="&#57865;" /><glyph d="M71 550 136 750H296L191 550ZM50 0V500H209V0Z" glyph-name="iacute" horiz-adv-x="260" unicode="&#237;" /><glyph d="M55 0V500H213V0ZM74 550 139 750H299L194 550Z" glyph-name="iacute.smcp" horiz-adv-x="270" unicode="&#57944;" /><glyph d="M130 664Q173 664 191.5 681Q210 698 210 750H328Q328 692 315.5 653.5Q303 615 278 592Q253 569 216 559.5Q179 550 130 550Q81 550 44 559.5Q7 569 -18 592Q-43 615 -55.5 653.5Q-68 692 -68 750H50Q50 698 68.5 681Q87 664 130 664ZM50 0V500H209V0Z" glyph-name="ibreve" horiz-adv-x="260" unicode="&#301;" /><glyph d="M55 0V500H213V0ZM134 664Q177 664 195.5 681Q214 698 214 750H332Q332 692 319.5 653.5Q307 615 282 592Q257 569 220 559.5Q183 550 134 550Q85 550 48 559.5Q11 569 -14 592Q-39 615 -51.5 653.5Q-64 692 -64 750H54Q54 698 72.5 681Q91 664 134 664Z" glyph-name="ibreve.smcp" horiz-adv-x="270" unicode="&#57951;" /><glyph d="M-78 550 55 750H205L338 550H215L130 645L45 550ZM50 0V500H209V0Z" glyph-name="icircumflex" horiz-adv-x="260" unicode="&#238;" /><glyph d="M55 0V500H213V0ZM-74 550 59 750H209L342 550H219L134 645L49 550Z" glyph-name="icircumflex.smcp" horiz-adv-x="270" unicode="&#57946;" /><glyph d="M150 645Q150 683 176 709Q202 735 240 735Q278 735 304 709Q330 683 330 645Q330 607 304 581Q278 555 240 555Q202 555 176 581Q150 607 150 645ZM-70 645Q-70 683 -44 709Q-18 735 20 735Q58 735 84 709Q110 683 110 645Q110 607 84 581Q58 555 20 555Q-18 555 -44 581Q-70 607 -70 645ZM50 0V500H209V0Z" glyph-name="idieresis" horiz-adv-x="260" unicode="&#239;" /><glyph d="M55 0V500H213V0ZM-66 645Q-66 683 -40 709Q-14 735 24 735Q62 735 88 709Q114 683 114 645Q114 607 88 581Q62 555 24 555Q-14 555 -40 581Q-66 607 -66 645ZM154 645Q154 683 180 709Q206 735 244 735Q282 735 308 709Q334 683 334 645Q334 607 308 581Q282 555 244 555Q206 555 180 581Q154 607 154 645Z" glyph-name="idieresis.smcp" horiz-adv-x="270" unicode="&#57947;" /><glyph d="M50 0V500H209V0ZM40 645Q40 683 66 709Q92 735 130 735Q168 735 194 709Q220 683 220 645Q220 607 194 581Q168 555 130 555Q92 555 66 581Q40 607 40 645Z" glyph-name="idotaccent" horiz-adv-x="260" unicode="&#59269;" /><glyph d="M55 0V500H213V0ZM44 645Q44 683 70 709Q96 735 134 735Q172 735 198 709Q224 683 224 645Q224 607 198 581Q172 555 134 555Q96 555 70 581Q44 607 44 645Z" glyph-name="idotaccent.smcp" horiz-adv-x="270" unicode="&#57954;" /><glyph d="M70 550 -35 750H125L190 550ZM50 0V500H209V0Z" glyph-name="igrave" horiz-adv-x="260" unicode="&#236;" /><glyph d="M55 0V500H213V0ZM74 550 -31 750H129L194 550Z" glyph-name="igrave.smcp" horiz-adv-x="270" unicode="&#57945;" /><glyph d="M194 -123Q248 -120 269 -96Q290 -72 290 -37V500H449V-62Q449 -113 430 -150Q411 -187 378.5 -211.5Q346 -236 303 -248.5Q260 -261 212 -263ZM280 645Q280 683 306 709Q332 735 370 735Q408 735 434 709Q460 683 460 645Q460 607 434 581Q408 555 370 555Q332 555 306 581Q280 607 280 645ZM50 0V500H209V0ZM40 645Q40 683 66 709Q92 735 130 735Q168 735 194 709Q220 683 220 645Q220 607 194 581Q168 555 130 555Q92 555 66 581Q40 607 40 645Z" glyph-name="ij" horiz-adv-x="500" unicode="&#307;" /><glyph d="M55 0V500H213V0ZM306 159Q312 151 327 143Q342 135 359 135Q381 135 396 146.5Q411 158 411 183V500H569V157Q569 81 520.5 33.5Q472 -14 385 -14Q325 -14 290 3.5Q255 21 239 44Z" glyph-name="ij.smcp" horiz-adv-x="619" unicode="&#58151;" /><glyph d="M286 585H-26V705H286ZM50 0V500H209V0Z" glyph-name="imacron" horiz-adv-x="260" unicode="&#299;" /><glyph d="M290 585H-22V705H290ZM55 0V500H213V0Z" glyph-name="imacron.smcp" horiz-adv-x="270" unicode="&#57950;" /><glyph d="M325 357Q309 375 289.5 393.5Q270 412 238 414Q212 415 195.5 400.5Q179 386 179 357Q179 328 195.5 314Q212 300 238 300Q270 302 289.5 320.5Q309 339 325 357ZM400 254Q370 219 332 196Q294 173 239 173Q153 173 101 219Q49 265 49 357Q49 449 101 495Q153 541 239 541Q294 541 332 518Q370 495 400 460Q430 495 468 518Q506 541 561 541Q647 541 699 495Q751 449 751 357Q751 265 699 219Q647 173 561 173Q506 173 468 196Q430 219 400 254ZM475 357Q491 339 510.5 320.5Q530 302 562 300Q588 299 604.5 313.5Q621 328 621 357Q621 386 604.5 400Q588 414 562 414Q530 412 510.5 393.5Q491 375 475 357Z" glyph-name="infinity" horiz-adv-x="800" unicode="&#8734;" /><glyph d="M-43 -130Q-11 -130 9 -123.5Q29 -117 40.5 -105.5Q52 -94 56 -78.5Q60 -63 60 -46V588Q60 677 110.5 720.5Q161 764 270 764Q287 764 315.5 760Q344 756 364 747V613Q353 618 334 624.5Q315 631 285 631Q259 631 239 617.5Q219 604 219 569V-62Q219 -116 196 -154.5Q173 -193 136 -217Q99 -241 52 -252.5Q5 -264 -43 -264Z" glyph-name="integral" horiz-adv-x="359" unicode="&#8747;" /><glyph d="M250 636Q207 636 188.5 619.5Q170 603 170 550H52Q52 608 64.5 646.5Q77 685 102 708Q127 731 164 740.5Q201 750 250 750Q299 750 336 740.5Q373 731 398 708Q423 685 435.5 646.5Q448 608 448 550H330Q330 603 311.5 619.5Q293 636 250 636Z" glyph-name="invertedbreve" horiz-adv-x="500" unicode="&#58385;" /><glyph d="M250 830Q212 830 201 821.5Q190 813 190 790H62Q62 861 103.5 893.5Q145 926 250 926Q355 926 396.5 893.5Q438 861 438 790H310Q310 813 299 821.5Q288 830 250 830Z" glyph-name="invertedbreve.cap" horiz-adv-x="500" unicode="&#58407;" /><glyph d="M209 0Q157 -14 132.5 -45.5Q108 -77 108 -105Q108 -131 122.5 -142Q137 -153 153 -153Q172 -153 185 -147.5Q198 -142 205 -137L253 -216Q236 -230 206.5 -242.5Q177 -255 131 -255Q103 -255 77 -248Q51 -241 31.5 -226Q12 -211 0 -187.5Q-12 -164 -12 -132Q-12 -90 5.5 -60Q23 -30 50 -9V500H209ZM40 645Q40 683 66 709Q92 735 130 735Q168 735 194 709Q220 683 220 645Q220 607 194 581Q168 555 130 555Q92 555 66 581Q40 607 40 645Z" glyph-name="iogonek" horiz-adv-x="260" unicode="&#303;" /><glyph d="M213 0Q161 -14 135.5 -45.5Q110 -77 110 -105Q110 -131 124.5 -142Q139 -153 155 -153Q174 -153 187 -147.5Q200 -142 207 -137L255 -216Q238 -230 208.5 -242.5Q179 -255 133 -255Q105 -255 79 -248Q53 -241 33.5 -226Q14 -211 2 -187.5Q-10 -164 -10 -132Q-10 -90 8.5 -59.5Q27 -29 55 -7V500H213Z" glyph-name="iogonek.smcp" horiz-adv-x="270" unicode="&#63054;" /><glyph d="M-85 573Q-85 661 -52.5 700.5Q-20 740 45 740Q81 740 104 727.5Q127 715 144.5 699.5Q162 684 176.5 671.5Q191 659 209 659Q240 659 249 676.5Q258 694 258 717H345Q345 629 312 589.5Q279 550 215 550Q179 550 156 562.5Q133 575 116 590.5Q99 606 84 618.5Q69 631 51 631Q20 631 11 613.5Q2 596 2 573ZM50 0V500H209V0Z" glyph-name="itilde" horiz-adv-x="260" unicode="&#297;" /><glyph d="M-81 573Q-81 661 -48.5 700.5Q-16 740 49 740Q85 740 108 727.5Q131 715 148.5 699.5Q166 684 180.5 671.5Q195 659 213 659Q244 659 253 676.5Q262 694 262 717H349Q349 629 316 589.5Q283 550 219 550Q183 550 160 562.5Q137 575 120 590.5Q103 606 88 618.5Q73 631 55 631Q24 631 15 613.5Q6 596 6 573ZM55 0V500H213V0Z" glyph-name="itilde.smcp" horiz-adv-x="270" unicode="&#57948;" /><glyph d="M-46 -123Q8 -120 29 -96Q50 -72 50 -37V500H209V-62Q209 -113 190 -150Q171 -187 138.5 -211.5Q106 -236 63 -248.5Q20 -261 -28 -263ZM40 645Q40 683 66 709Q92 735 130 735Q168 735 194 709Q220 683 220 645Q220 607 194 581Q168 555 130 555Q92 555 66 581Q40 607 40 645Z" glyph-name="j" horiz-adv-x="260" unicode="j" /><glyph d="M86 159Q92 151 107 143Q122 135 139 135Q161 135 176 146.5Q191 158 191 183V500H349V157Q349 81 300.5 33.5Q252 -14 165 -14Q105 -14 70 3.5Q35 21 19 44Z" glyph-name="j.smcp" horiz-adv-x="399" unicode="&#57866;" /><glyph d="M-78 550 55 750H205L338 550H215L130 645L45 550ZM-46 -123Q8 -120 29 -96Q50 -72 50 -37V500H209V-62Q209 -113 190 -150Q171 -187 138.5 -211.5Q106 -236 63 -248.5Q20 -261 -28 -263Z" glyph-name="jcircumflex" horiz-adv-x="260" unicode="&#309;" /><glyph d="M62 550 195 750H345L478 550H355L270 645L185 550ZM86 159Q92 151 107 143Q122 135 139 135Q161 135 176 146.5Q191 158 191 183V500H349V157Q349 81 300.5 33.5Q252 -14 165 -14Q105 -14 70 3.5Q35 21 19 44Z" glyph-name="jcircumflex.smcp" horiz-adv-x="399" unicode="&#63027;" /><glyph d="M200 340 328 500H528L334 296L543 0H348L232 189L200 155V0H45V750H200Z" glyph-name="k" horiz-adv-x="542" unicode="k" /><glyph d="M347 283 563 0H362L243 169L208 130V0H55V500H208V332L341 500H543Z" glyph-name="k.smcp" horiz-adv-x="577" unicode="&#57867;" /><glyph d="M200 340 328 500H528L334 296L543 0H348L232 189L200 155V0H45V750H200ZM179 -250 203 -50H361L300 -250Z" glyph-name="kcommaaccent" horiz-adv-x="542" unicode="&#311;" /><glyph d="M347 283 563 0H362L243 169L208 130V0H55V500H208V332L341 500H543ZM184 -250 208 -50H366L305 -250Z" glyph-name="kcommaaccent.smcp" horiz-adv-x="577" unicode="&#57960;" /><glyph d="M200 340 328 500H528L334 296L543 0H348L232 189L200 155V0H45V500H200Z" glyph-name="kgreenlandic" horiz-adv-x="542" unicode="&#312;" /><glyph d="M50 0V750H209V0Z" glyph-name="l" horiz-adv-x="260" unicode="l" /><glyph d="M213 142H452V0H55V500H213Z" glyph-name="l.smcp" horiz-adv-x="472" unicode="&#57868;" /><glyph d="M82 790 132 910H282L182 790ZM50 0V750H209V0Z" glyph-name="lacute" horiz-adv-x="260" unicode="&#314;" /><glyph d="M213 142H452V0H55V500H213ZM77 550 142 750H302L197 550Z" glyph-name="lacute.smcp" horiz-adv-x="472" unicode="&#57963;" /><glyph d="M363 750 315 550H249L265 750ZM50 0V750H209V0Z" glyph-name="lcaron" horiz-adv-x="260" unicode="&#318;" /><glyph d="M213 142H452V0H55V500H213ZM387 625 339 425H273L289 625Z" glyph-name="lcaron.smcp" horiz-adv-x="472" unicode="&#57964;" /><glyph d="M24 -250 48 -50H206L145 -250ZM50 0V750H209V0Z" glyph-name="lcommaaccent" horiz-adv-x="260" unicode="&#316;" /><glyph d="M213 142H452V0H55V500H213ZM153 -250 177 -50H335L274 -250Z" glyph-name="lcommaaccent.smcp" horiz-adv-x="472" unicode="&#57965;" /><glyph d="M244 313Q244 351 270 377Q296 403 334 403Q372 403 398 377Q424 351 424 313Q424 275 398 249Q372 223 334 223Q296 223 270 249Q244 275 244 313ZM50 0V750H209V0Z" glyph-name="ldot" horiz-adv-x="409" unicode="&#320;" /><glyph d="M213 142H452V0H55V500H213ZM280 300Q280 338 306 364Q332 390 370 390Q408 390 434 364Q460 338 460 300Q460 262 434 236Q408 210 370 210Q332 210 306 236Q280 262 280 300Z" glyph-name="ldot.smcp" horiz-adv-x="472" unicode="&#57969;" /><glyph d="M550 107 50 314V436L550 643V483L255 375L550 267Z" glyph-name="less" horiz-adv-x="600" unicode="&lt;" /><glyph d="M825 -10 75 314V436L825 760V600L280 375L825 150Z" glyph-name="less.cap" horiz-adv-x="900" unicode="&#58774;" /><glyph d="M550 248 50 397V479L550 644V487L311 425L550 363ZM50 256V367L550 218V107Z" glyph-name="lessequal" horiz-adv-x="600" unicode="&#8804;" /><glyph d="M825 125 75 396V478L825 766V609L336 424L825 240ZM75 255V366L825 95V-16Z" glyph-name="lessequal.cap" horiz-adv-x="900" unicode="&#61991;" /><glyph d="M111 548Q111 590 122 629Q133 668 161.5 698Q190 728 239 746Q288 764 364 764Q412 764 446.5 756Q481 748 504.5 737.5Q528 727 541.5 716Q555 705 561 699L492 581Q478 593 451 606Q424 619 377 619Q327 619 298 599Q269 579 269 537V490H497V390H269V362H497V262H269V142H560V0H40V142H111V262H40V362H111V390H40V490H111Z" glyph-name="lira" horiz-adv-x="600" unicode="&#8356;" /><glyph d="M550 157H394V348H50V500H550Z" glyph-name="logicalnot" horiz-adv-x="600" unicode="&#172;" /><glyph d="M669 348H75V500H825V47H669Z" glyph-name="logicalnot.cap" horiz-adv-x="900" unicode="&#61993;" /><glyph d="M350 0H40V125H350Z" glyph-name="lowline" horiz-adv-x="390" unicode="&#58641;" /><glyph d="M25 375 345 760 665 375 345 -10ZM345 540 210 375 345 209 480 375Z" glyph-name="lozenge" horiz-adv-x="690" unicode="&#9674;" /><glyph d="M75 0V268L7 230V332L75 370V750H234V460L329 514V412L234 358V0Z" glyph-name="lslash" horiz-adv-x="334" unicode="&#322;" /><glyph d="M272 218V145H509V0H110V138L25 96V198L110 240V500H272V320L442 405V303Z" glyph-name="lslash.smcp" horiz-adv-x="529" unicode="&#63225;" /><glyph d="M603 0V344Q603 384 558 384Q532 384 512 375Q492 366 484 358V0H324V344Q324 384 279 384Q253 384 233 375Q213 366 205 358V0H45V500H141L161 464Q175 476 193.5 485Q212 494 233.5 500.5Q255 507 277 510.5Q299 514 318 514Q369 514 395.5 502Q422 490 434 473Q461 493 506 503.5Q551 514 596 514Q645 514 677 500.5Q709 487 728 464Q747 441 755 410.5Q763 380 763 346V0Z" glyph-name="m" horiz-adv-x="803" unicode="m" /><glyph d="M416 48H292L205 266L207 0H55V500H251L354 241L457 500H653V0H501L503 266Z" glyph-name="m.smcp" horiz-adv-x="708" unicode="&#57869;" /><glyph d="M406 585H94V705H406Z" glyph-name="macron" horiz-adv-x="500" unicode="&#175;" /><glyph d="M406 790H94V910H406Z" glyph-name="macron.cap" horiz-adv-x="500" unicode="&#58405;" /><glyph d="M603 0V344Q603 384 558 384Q532 384 512 375Q492 366 484 358V0H324V344Q324 384 279 384Q253 384 233 375Q213 366 205 358V0H45V500H141L161 464Q175 476 193.5 485Q212 494 233.5 500.5Q255 507 277 510.5Q299 514 318 514Q369 514 395.5 502Q422 490 434 473Q461 493 506 503.5Q551 514 596 514Q645 514 677 500.5Q709 487 728 464Q747 441 755 410.5Q763 380 763 346V0ZM309 645Q309 683 335 709Q361 735 399 735Q437 735 463 709Q489 683 489 645Q489 607 463 581Q437 555 399 555Q361 555 335 581Q309 607 309 645Z" glyph-name="mdotaccent" horiz-adv-x="803" unicode="&#7745;" /><glyph d="M416 48H292L205 266L207 0H55V500H251L354 241L457 500H653V0H501L503 266ZM264 645Q264 683 290 709Q316 735 354 735Q392 735 418 709Q444 683 444 645Q444 607 418 581Q392 555 354 555Q316 555 290 581Q264 607 264 645Z" glyph-name="mdotaccent.smcp" horiz-adv-x="708" /><glyph d="M51 250Q51 305 71.5 353Q92 401 128 437Q164 473 212 493.5Q260 514 315 514Q370 514 418 493.5Q466 473 502 437Q538 401 558.5 353Q579 305 579 250Q579 195 558.5 147Q538 99 502 63Q466 27 418 6.5Q370 -14 315 -14Q260 -14 212 6.5Q164 27 128 63Q92 99 71.5 147Q51 195 51 250Z" glyph-name="mediumblackcircle" horiz-adv-x="630" unicode="&#9899;" /><glyph d="M51 250Q51 305 71.5 353Q92 401 128 437Q164 473 212 493.5Q260 514 315 514Q370 514 418 493.5Q466 473 502 437Q538 401 558.5 353Q579 305 579 250Q579 195 558.5 147Q538 99 502 63Q466 27 418 6.5Q370 -14 315 -14Q260 -14 212 6.5Q164 27 128 63Q92 99 71.5 147Q51 195 51 250ZM195 250Q195 225 204.5 203.5Q214 182 230.5 165.5Q247 149 268.5 139.5Q290 130 315 130Q340 130 361.5 139.5Q383 149 399.5 165.5Q416 182 425.5 203.5Q435 225 435 250Q435 275 425.5 296.5Q416 318 399.5 334.5Q383 351 361.5 360.5Q340 370 315 370Q290 370 268.5 360.5Q247 351 230.5 334.5Q214 318 204.5 296.5Q195 275 195 250Z" glyph-name="mediumwhitecircle" horiz-adv-x="630" unicode="&#9898;" /><glyph d="M50 299V451H550V299Z" glyph-name="minus" horiz-adv-x="600" unicode="&#8722;" /><glyph d="M75 451H825V299H75Z" glyph-name="minus.cap" horiz-adv-x="900" unicode="&#58770;" /><glyph d="M32 -121V31H372V-121Z" glyph-name="minus.inf" horiz-adv-x="404" unicode="&#58748;" /><glyph d="M190 375 47 518 157 628 300 485 443 628 553 518 410 375 553 232 443 122 300 265 157 122 47 232Z" glyph-name="multiply" horiz-adv-x="600" unicode="&#215;" /><glyph d="M450 265 171 -14 61 96 340 375 61 654 171 764 450 485 729 764 839 654 560 375 839 96 729 -14Z" glyph-name="multiply.cap" horiz-adv-x="900" unicode="&#58771;" /><glyph d="M476 340Q476 274 439.5 210.5Q403 147 343.5 92Q284 37 207.5 -7Q131 -51 50 -78V822H155V496Q173 516 209 529.5Q245 543 280 543Q387 543 431.5 490.5Q476 438 476 340ZM155 97Q184 111 219 135.5Q254 160 284.5 191.5Q315 223 335.5 261.5Q356 300 356 342Q356 380 336.5 403Q317 426 269 426Q249 426 231 418Q213 410 198 397Q183 384 172 367Q161 350 155 333Z" glyph-name="musicflatsign" horiz-adv-x="500" unicode="&#9837;" /><glyph d="M336 -58H231V198L50 53V822H155V565L336 711ZM155 296 231 357V467L155 406Z" glyph-name="musicnaturalsign" horiz-adv-x="386" unicode="&#59753;" /><glyph d="M376 719 446 775V616L376 560V450L446 506V347L376 291V0H271V206L195 145V-100H90V61L20 5V164L90 220V330L20 274V433L90 489V780H195V573L271 634V880H376ZM195 304 271 365V475L195 414Z" glyph-name="musicsharpsign" horiz-adv-x="466" unicode="&#9839;" /><glyph d="M141 500 161 464Q203 490 248 502Q293 514 335 514Q386 514 419.5 501.5Q453 489 473.5 466.5Q494 444 502 413Q510 382 510 346V0H350V322Q350 350 338 367Q326 384 294 384Q265 384 240.5 375Q216 366 205 358V0H45V500Z" glyph-name="n" horiz-adv-x="550" unicode="n" /><glyph d="M428 0 206 253 210 0H55V500H172L394 247L390 500H545V0Z" glyph-name="n.smcp" horiz-adv-x="600" unicode="&#57870;" /><glyph d="M141 500 161 464Q203 490 248 502Q293 514 335 514Q386 514 419.5 501.5Q453 489 473.5 466.5Q494 444 502 413Q510 382 510 346V0H350V322Q350 350 338 367Q326 384 294 384Q265 384 240.5 375Q216 366 205 358V0H45V500ZM223 550 288 750H448L343 550Z" glyph-name="nacute" horiz-adv-x="550" unicode="&#324;" /><glyph d="M428 0 206 253 210 0H55V500H172L394 247L390 500H545V0ZM233 550 298 750H458L353 550Z" glyph-name="nacute.smcp" horiz-adv-x="600" unicode="&#63059;" /><glyph d="M141 500 161 464Q203 490 248 502Q293 514 335 514Q386 514 419.5 501.5Q453 489 473.5 466.5Q494 444 502 413Q510 382 510 346V0H350V322Q350 350 338 367Q326 384 294 384Q265 384 240.5 375Q216 366 205 358V0H45V500ZM496 750 363 550H213L80 750H203L288 655L373 750Z" glyph-name="ncaron" horiz-adv-x="550" unicode="&#328;" /><glyph d="M428 0 206 253 210 0H55V500H172L394 247L390 500H545V0ZM506 750 373 550H223L90 750H213L298 655L383 750Z" glyph-name="ncaron.smcp" horiz-adv-x="600" unicode="&#57978;" /><glyph d="M141 500 161 464Q203 490 248 502Q293 514 335 514Q386 514 419.5 501.5Q453 489 473.5 466.5Q494 444 502 413Q510 382 510 346V0H350V322Q350 350 338 367Q326 384 294 384Q265 384 240.5 375Q216 366 205 358V0H45V500ZM177 -250 201 -50H359L298 -250Z" glyph-name="ncommaaccent" horiz-adv-x="550" unicode="&#326;" /><glyph d="M428 0 206 253 210 0H55V500H172L394 247L390 500H545V0ZM209 -250 233 -50H391L330 -250Z" glyph-name="ncommaaccent.smcp" horiz-adv-x="600" unicode="&#57981;" /><glyph d="M217 133Q288 133 327.5 182Q367 231 367 338Q351 312 316.5 292.5Q282 273 223 273Q170 273 133.5 290.5Q97 308 74 339.5Q51 371 40.5 415Q30 459 30 511Q30 558 41.5 603.5Q53 649 80.5 685Q108 721 154.5 743Q201 765 271 765Q338 765 385 740.5Q432 716 462 670Q492 624 505.5 559Q519 494 519 413Q519 316 502.5 237Q486 158 450.5 102Q415 46 359 15.5Q303 -15 224 -15Q186 -15 155.5 -9Q125 -3 101.5 6Q78 15 61.5 25Q45 35 36 44L109 170Q120 159 148.5 146Q177 133 217 133ZM361 512Q359 559 340.5 590Q322 621 274 621Q224 621 206 591Q188 561 188 517Q188 473 204.5 443Q221 413 268 413Q319 413 338.5 439.5Q358 466 361 512Z" glyph-name="nine" horiz-adv-x="550" unicode="9" /><glyph d="M217 133Q288 133 327.5 182Q367 231 367 338Q351 312 316.5 292.5Q282 273 223 273Q170 273 133.5 290.5Q97 308 74 339.5Q51 371 40.5 415Q30 459 30 511Q30 558 41.5 603.5Q53 649 80.5 685Q108 721 154.5 743Q201 765 271 765Q338 765 385 740.5Q432 716 462 670Q492 624 505.5 559Q519 494 519 413Q519 316 502.5 237Q486 158 450.5 102Q415 46 359 15.5Q303 -15 224 -15Q186 -15 155.5 -9Q125 -3 101.5 6Q78 15 61.5 25Q45 35 36 44L109 170Q120 159 148.5 146Q177 133 217 133ZM361 512Q359 559 340.5 590Q322 621 274 621Q224 621 206 591Q188 561 188 517Q188 473 204.5 443Q221 413 268 413Q319 413 338.5 439.5Q358 466 361 512Z" glyph-name="nine.LT" horiz-adv-x="550" unicode="&#58697;" /><glyph d="M217 -117Q288 -117 327.5 -68Q367 -19 367 88Q351 62 316.5 42.5Q282 23 223 23Q170 23 133.5 40.5Q97 58 74 89.5Q51 121 40.5 165Q30 209 30 261Q30 308 41.5 353.5Q53 399 80.5 435Q108 471 154.5 493Q201 515 271 515Q338 515 385 490.5Q432 466 462 420Q492 374 505.5 309Q519 244 519 163Q519 66 502.5 -13Q486 -92 450.5 -148Q415 -204 359 -234.5Q303 -265 224 -265Q186 -265 155.5 -259Q125 -253 101.5 -244Q78 -235 61.5 -225Q45 -215 36 -206L109 -80Q120 -91 148.5 -104Q177 -117 217 -117ZM361 262Q359 309 340.5 340Q322 371 274 371Q224 371 206 341Q188 311 188 267Q188 223 204.5 193Q221 163 268 163Q319 163 338.5 189.5Q358 216 361 262Z" glyph-name="nine.OP" horiz-adv-x="550" unicode="&#58708;" /><glyph d="M179 -137Q191 -137 208 -135.5Q225 -134 241 -129Q257 -124 269 -114Q281 -104 282 -86Q271 -100 242 -110.5Q213 -121 178 -121Q131 -121 99.5 -111.5Q68 -102 49.5 -84Q31 -66 23 -40.5Q15 -15 15 18Q15 89 63.5 131Q112 173 224 173Q335 173 382.5 118Q430 63 430 -46Q430 -158 374 -211Q318 -264 195 -264Q120 -264 74 -250.5Q28 -237 9 -222L70 -116Q84 -124 113 -130.5Q142 -137 179 -137ZM218 49Q195 49 184.5 40Q174 31 174 20Q174 10 180.5 0.5Q187 -9 208 -9Q232 -9 244.5 0Q257 9 262 15Q260 32 246.5 40.5Q233 49 218 49Z" glyph-name="nine.inf" horiz-adv-x="450" unicode="&#58746;" /><glyph d="M179 454Q191 454 208 455.5Q225 457 241 462Q257 467 269 477Q281 487 282 505Q271 491 242 480.5Q213 470 178 470Q131 470 99.5 479.5Q68 489 49.5 507Q31 525 23 550.5Q15 576 15 609Q15 680 63.5 722Q112 764 224 764Q335 764 382.5 709Q430 654 430 545Q430 433 374 380Q318 327 195 327Q120 327 74 340.5Q28 354 9 369L70 475Q84 467 113 460.5Q142 454 179 454ZM218 640Q195 640 184.5 631Q174 622 174 611Q174 601 180.5 591.5Q187 582 208 582Q232 582 244.5 591Q257 600 262 606Q260 623 246.5 631.5Q233 640 218 640ZM268 0 800 750H932L400 0ZM1046 0H904V280L785 276V370L982 423H1046ZM1371 296Q1359 296 1342 294.5Q1325 293 1309 288Q1293 283 1281.5 273Q1270 263 1268 245Q1279 259 1308 269.5Q1337 280 1372 280Q1419 280 1450.5 270.5Q1482 261 1500.5 243Q1519 225 1527 199.5Q1535 174 1535 141Q1535 71 1487 28.5Q1439 -14 1326 -14Q1215 -14 1167.5 41Q1120 96 1120 205Q1120 317 1175 370Q1230 423 1353 423Q1428 423 1470.5 410.5Q1513 398 1532 383L1471 277Q1457 285 1432.5 290.5Q1408 296 1371 296ZM1332 110Q1355 110 1365.5 119Q1376 128 1376 139Q1376 149 1369.5 158.5Q1363 168 1342 168Q1318 168 1305.5 159Q1293 150 1288 144Q1290 127 1303.5 118.5Q1317 110 1332 110Z" glyph-name="ninesixteenths" horiz-adv-x="1550" unicode="&#61977;" /><glyph d="M296 341H154V621L35 617V711L232 764H296ZM529 454Q541 454 558 455.5Q575 457 591 462Q607 467 619 477Q631 487 632 505Q621 491 592 480.5Q563 470 528 470Q481 470 449.5 479.5Q418 489 399.5 507Q381 525 373 550.5Q365 576 365 609Q365 680 413.5 722Q462 764 574 764Q685 764 732.5 709Q780 654 780 545Q780 433 724 380Q668 327 545 327Q470 327 424 340.5Q378 354 359 369L420 475Q434 467 463 460.5Q492 454 529 454ZM568 640Q545 640 534.5 631Q524 622 524 611Q524 601 530.5 591.5Q537 582 558 582Q582 582 594.5 591Q607 600 612 606Q610 623 596.5 631.5Q583 640 568 640ZM618 0 1150 750H1282L750 0ZM1291 119Q1317 119 1332 120.5Q1347 122 1355 124.5Q1363 127 1365.5 130.5Q1368 134 1368 138Q1368 146 1361.5 151Q1355 156 1344 156H1221V254H1335Q1350 254 1355 259.5Q1360 265 1360 271Q1360 279 1346 285Q1332 291 1291 291Q1249 291 1225.5 282.5Q1202 274 1190 268L1127 376Q1136 383 1151 391Q1166 399 1188 406Q1210 413 1240 418Q1270 423 1310 423Q1354 423 1390.5 416.5Q1427 410 1453.5 395.5Q1480 381 1494.5 359Q1509 337 1509 307Q1509 273 1494 252Q1479 231 1458 224Q1490 212 1507 186Q1524 160 1524 121Q1524 56 1470 21Q1416 -14 1310 -14Q1268 -14 1235.5 -8.5Q1203 -3 1179 4.5Q1155 12 1140 20.5Q1125 29 1119 34L1182 142Q1193 136 1217.5 127.5Q1242 119 1291 119ZM1736 292Q1708 292 1686 281Q1664 270 1653 261L1591 369Q1602 378 1616 387.5Q1630 397 1649.5 405Q1669 413 1695 418Q1721 423 1755 423Q1814 423 1851.5 411.5Q1889 400 1911 381.5Q1933 363 1941 339.5Q1949 316 1949 292Q1949 258 1932.5 231Q1916 204 1892.5 183.5Q1869 163 1843 149Q1817 135 1797 127L1954 130V0H1596V97Q1656 132 1692.5 158.5Q1729 185 1749 204.5Q1769 224 1775.5 237.5Q1782 251 1782 261Q1782 274 1772 283Q1762 292 1736 292Z" glyph-name="nineteenthirtyseconds" horiz-adv-x="2000" /><glyph d="M179 454Q191 454 208 455.5Q225 457 241 462Q257 467 269 477Q281 487 282 505Q271 491 242 480.5Q213 470 178 470Q131 470 99.5 479.5Q68 489 49.5 507Q31 525 23 550.5Q15 576 15 609Q15 680 63.5 722Q112 764 224 764Q335 764 382.5 709Q430 654 430 545Q430 433 374 380Q318 327 195 327Q120 327 74 340.5Q28 354 9 369L70 475Q84 467 113 460.5Q142 454 179 454ZM218 640Q195 640 184.5 631Q174 622 174 611Q174 601 180.5 591.5Q187 582 208 582Q232 582 244.5 591Q257 600 262 606Q260 623 246.5 631.5Q233 640 218 640ZM268 0 800 750H932L400 0ZM941 119Q967 119 982 120.5Q997 122 1005 124.5Q1013 127 1015.5 130.5Q1018 134 1018 138Q1018 146 1011.5 151Q1005 156 994 156H871V254H985Q1000 254 1005 259.5Q1010 265 1010 271Q1010 279 996 285Q982 291 941 291Q899 291 875.5 282.5Q852 274 840 268L777 376Q786 383 801 391Q816 399 838 406Q860 413 890 418Q920 423 960 423Q1004 423 1040.5 416.5Q1077 410 1103.5 395.5Q1130 381 1144.5 359Q1159 337 1159 307Q1159 273 1144 252Q1129 231 1108 224Q1140 212 1157 186Q1174 160 1174 121Q1174 56 1120 21Q1066 -14 960 -14Q918 -14 885.5 -8.5Q853 -3 829 4.5Q805 12 790 20.5Q775 29 769 34L832 142Q843 136 867.5 127.5Q892 119 941 119ZM1386 292Q1358 292 1336 281Q1314 270 1303 261L1241 369Q1252 378 1266 387.5Q1280 397 1299.5 405Q1319 413 1345 418Q1371 423 1405 423Q1464 423 1501.5 411.5Q1539 400 1561 381.5Q1583 363 1591 339.5Q1599 316 1599 292Q1599 258 1582.5 231Q1566 204 1542.5 183.5Q1519 163 1493 149Q1467 135 1447 127L1604 130V0H1246V97Q1306 132 1342.5 158.5Q1379 185 1399 204.5Q1419 224 1425.5 237.5Q1432 251 1432 261Q1432 274 1422 283Q1412 292 1386 292Z" glyph-name="ninethirtyseconds" horiz-adv-x="1650" /><glyph glyph-name="nonbreakingspace" horiz-adv-x="220" unicode="&#160;" /><glyph glyph-name="nonmarkingreturn" horiz-adv-x="250" unicode="" /><glyph d="M257 196 209 109H102L154 196H50V348H550V196ZM50 402V554H342L391 641H498L445 554H550V402Z" glyph-name="notequal" horiz-adv-x="600" unicode="&#8800;" /><glyph d="M75 442V594H513L601 750H711L620 594H825V442ZM825 308V156H391L303 0H193L284 156H75V308Z" glyph-name="notequal.cap" horiz-adv-x="900" unicode="&#61989;" /><glyph d="M73 573Q73 661 105.5 700.5Q138 740 203 740Q239 740 262 727.5Q285 715 302.5 699.5Q320 684 334.5 671.5Q349 659 367 659Q398 659 407 676.5Q416 694 416 717H503Q503 629 470 589.5Q437 550 373 550Q337 550 314 562.5Q291 575 274 590.5Q257 606 242 618.5Q227 631 209 631Q178 631 169 613.5Q160 596 160 573ZM141 500 161 464Q203 490 248 502Q293 514 335 514Q386 514 419.5 501.5Q453 489 473.5 466.5Q494 444 502 413Q510 382 510 346V0H350V322Q350 350 338 367Q326 384 294 384Q265 384 240.5 375Q216 366 205 358V0H45V500Z" glyph-name="ntilde" horiz-adv-x="550" unicode="&#241;" /><glyph d="M85 573Q85 661 117.5 700.5Q150 740 215 740Q251 740 274 727.5Q297 715 314.5 699.5Q332 684 346.5 671.5Q361 659 379 659Q410 659 419 676.5Q428 694 428 717H515Q515 629 482 589.5Q449 550 385 550Q349 550 326 562.5Q303 575 286 590.5Q269 606 254 618.5Q239 631 221 631Q190 631 181 613.5Q172 596 172 573ZM428 0 206 253 210 0H55V500H172L394 247L390 500H545V0Z" glyph-name="ntilde.smcp" horiz-adv-x="600" unicode="&#57977;" /><glyph d="M392 750 356 586H437L473 750H638L602 586H697L653 439H569L541 311H629L585 164H509L473 0H308L344 164H263L227 0H62L98 164H3L47 311H130L158 439H71L115 586H191L227 750ZM295 311H376L404 439H323Z" glyph-name="numbersign" horiz-adv-x="700" unicode="#" /><glyph d="M85 378H161L198 500H354L317 378H359L396 500H552L515 378H590L560 278H485L468 222H545L515 122H438L402 0H246L282 122H240L204 0H48L84 122H10L40 222H114L131 278H55ZM270 222H312L329 278H287Z" glyph-name="numbersign.OP" horiz-adv-x="600" unicode="&#59811;" /><glyph d="M442 0 200 448 204 0H46V750H204L446 302L442 750H600V0ZM1057 563Q1057 458 1009.5 409.5Q962 361 866 361Q770 361 722.5 409Q675 457 675 562Q675 667 722.5 715.5Q770 764 866 764Q962 764 1009.5 716Q1057 668 1057 563ZM818 562Q818 514 830.5 499.5Q843 485 866 485Q889 485 901.5 500Q914 515 914 563Q914 611 901.5 625.5Q889 640 866 640Q843 640 830.5 625Q818 610 818 562Z" glyph-name="numero" horiz-adv-x="1099" unicode="&#8470;" /><glyph d="M260 -14Q191 -14 145.5 5.5Q100 25 73 59.5Q46 94 35.5 143Q25 192 25 250Q25 309 35.5 357.5Q46 406 73 440.5Q100 475 145.5 494.5Q191 514 260 514Q329 514 374.5 494.5Q420 475 447 440.5Q474 406 484.5 357.5Q495 309 495 250Q495 192 484.5 143Q474 94 447 59.5Q420 25 374.5 5.5Q329 -14 260 -14ZM260 386Q218 386 201.5 355.5Q185 325 185 250Q185 175 201.5 144.5Q218 114 260 114Q302 114 318.5 144.5Q335 175 335 250Q335 325 318.5 355.5Q302 386 260 386Z" glyph-name="o" horiz-adv-x="520" unicode="o" /><glyph d="M305 121Q360 121 385.5 151Q411 181 411 250Q411 319 385.5 349Q360 379 305 379Q250 379 224.5 349Q199 319 199 250Q199 181 224.5 151Q250 121 305 121ZM305 -14Q169 -14 104.5 50.5Q40 115 40 250Q40 385 104.5 449.5Q169 514 305 514Q441 514 505.5 449.5Q570 385 570 250Q570 115 505.5 50.5Q441 -14 305 -14Z" glyph-name="o.smcp" horiz-adv-x="610" unicode="&#57871;" /><glyph d="M260 -14Q191 -14 145.5 5.5Q100 25 73 59.5Q46 94 35.5 143Q25 192 25 250Q25 309 35.5 357.5Q46 406 73 440.5Q100 475 145.5 494.5Q191 514 260 514Q329 514 374.5 494.5Q420 475 447 440.5Q474 406 484.5 357.5Q495 309 495 250Q495 192 484.5 143Q474 94 447 59.5Q420 25 374.5 5.5Q329 -14 260 -14ZM260 386Q218 386 201.5 355.5Q185 325 185 250Q185 175 201.5 144.5Q218 114 260 114Q302 114 318.5 144.5Q335 175 335 250Q335 325 318.5 355.5Q302 386 260 386ZM195 550 260 750H420L315 550Z" glyph-name="oacute" horiz-adv-x="520" unicode="&#243;" /><glyph d="M305 121Q360 121 385.5 151Q411 181 411 250Q411 319 385.5 349Q360 379 305 379Q250 379 224.5 349Q199 319 199 250Q199 181 224.5 151Q250 121 305 121ZM305 -14Q169 -14 104.5 50.5Q40 115 40 250Q40 385 104.5 449.5Q169 514 305 514Q441 514 505.5 449.5Q570 385 570 250Q570 115 505.5 50.5Q441 -14 305 -14ZM240 550 305 750H465L360 550Z" glyph-name="oacute.smcp" horiz-adv-x="610" unicode="&#57985;" /><glyph d="M260 -14Q191 -14 145.5 5.5Q100 25 73 59.5Q46 94 35.5 143Q25 192 25 250Q25 309 35.5 357.5Q46 406 73 440.5Q100 475 145.5 494.5Q191 514 260 514Q329 514 374.5 494.5Q420 475 447 440.5Q474 406 484.5 357.5Q495 309 495 250Q495 192 484.5 143Q474 94 447 59.5Q420 25 374.5 5.5Q329 -14 260 -14ZM260 386Q218 386 201.5 355.5Q185 325 185 250Q185 175 201.5 144.5Q218 114 260 114Q302 114 318.5 144.5Q335 175 335 250Q335 325 318.5 355.5Q302 386 260 386ZM260 664Q303 664 321.5 681Q340 698 340 750H458Q458 692 445.5 653.5Q433 615 408 592Q383 569 346 559.5Q309 550 260 550Q211 550 174 559.5Q137 569 112 592Q87 615 74.5 653.5Q62 692 62 750H180Q180 698 198.5 681Q217 664 260 664Z" glyph-name="obreve" horiz-adv-x="520" unicode="&#335;" /><glyph d="M305 121Q360 121 385.5 151Q411 181 411 250Q411 319 385.5 349Q360 379 305 379Q250 379 224.5 349Q199 319 199 250Q199 181 224.5 151Q250 121 305 121ZM305 -14Q169 -14 104.5 50.5Q40 115 40 250Q40 385 104.5 449.5Q169 514 305 514Q441 514 505.5 449.5Q570 385 570 250Q570 115 505.5 50.5Q441 -14 305 -14ZM305 664Q348 664 366.5 681Q385 698 385 750H503Q503 692 490.5 653.5Q478 615 453 592Q428 569 391 559.5Q354 550 305 550Q256 550 219 559.5Q182 569 157 592Q132 615 119.5 653.5Q107 692 107 750H225Q225 698 243.5 681Q262 664 305 664Z" glyph-name="obreve.smcp" horiz-adv-x="610" unicode="&#57992;" /><glyph d="M260 -14Q191 -14 145.5 5.5Q100 25 73 59.5Q46 94 35.5 143Q25 192 25 250Q25 309 35.5 357.5Q46 406 73 440.5Q100 475 145.5 494.5Q191 514 260 514Q329 514 374.5 494.5Q420 475 447 440.5Q474 406 484.5 357.5Q495 309 495 250Q495 192 484.5 143Q474 94 447 59.5Q420 25 374.5 5.5Q329 -14 260 -14ZM260 386Q218 386 201.5 355.5Q185 325 185 250Q185 175 201.5 144.5Q218 114 260 114Q302 114 318.5 144.5Q335 175 335 250Q335 325 318.5 355.5Q302 386 260 386ZM52 550 185 750H335L468 550H345L260 645L175 550Z" glyph-name="ocircumflex" horiz-adv-x="520" unicode="&#244;" /><glyph d="M305 121Q360 121 385.5 151Q411 181 411 250Q411 319 385.5 349Q360 379 305 379Q250 379 224.5 349Q199 319 199 250Q199 181 224.5 151Q250 121 305 121ZM305 -14Q169 -14 104.5 50.5Q40 115 40 250Q40 385 104.5 449.5Q169 514 305 514Q441 514 505.5 449.5Q570 385 570 250Q570 115 505.5 50.5Q441 -14 305 -14ZM97 550 230 750H380L513 550H390L305 645L220 550Z" glyph-name="ocircumflex.smcp" horiz-adv-x="610" unicode="&#57987;" /><glyph d="M260 -14Q191 -14 145.5 5.5Q100 25 73 59.5Q46 94 35.5 143Q25 192 25 250Q25 309 35.5 357.5Q46 406 73 440.5Q100 475 145.5 494.5Q191 514 260 514Q329 514 374.5 494.5Q420 475 447 440.5Q474 406 484.5 357.5Q495 309 495 250Q495 192 484.5 143Q474 94 447 59.5Q420 25 374.5 5.5Q329 -14 260 -14ZM260 386Q218 386 201.5 355.5Q185 325 185 250Q185 175 201.5 144.5Q218 114 260 114Q302 114 318.5 144.5Q335 175 335 250Q335 325 318.5 355.5Q302 386 260 386ZM50 645Q50 683 76 709Q102 735 140 735Q178 735 204 709Q230 683 230 645Q230 607 204 581Q178 555 140 555Q102 555 76 581Q50 607 50 645ZM290 645Q290 683 316 709Q342 735 380 735Q418 735 444 709Q470 683 470 645Q470 607 444 581Q418 555 380 555Q342 555 316 581Q290 607 290 645Z" glyph-name="odieresis" horiz-adv-x="520" unicode="&#246;" /><glyph d="M305 121Q360 121 385.5 151Q411 181 411 250Q411 319 385.5 349Q360 379 305 379Q250 379 224.5 349Q199 319 199 250Q199 181 224.5 151Q250 121 305 121ZM305 -14Q169 -14 104.5 50.5Q40 115 40 250Q40 385 104.5 449.5Q169 514 305 514Q441 514 505.5 449.5Q570 385 570 250Q570 115 505.5 50.5Q441 -14 305 -14ZM95 645Q95 683 121 709Q147 735 185 735Q223 735 249 709Q275 683 275 645Q275 607 249 581Q223 555 185 555Q147 555 121 581Q95 607 95 645ZM335 645Q335 683 361 709Q387 735 425 735Q463 735 489 709Q515 683 515 645Q515 607 489 581Q463 555 425 555Q387 555 361 581Q335 607 335 645Z" glyph-name="odieresis.smcp" horiz-adv-x="610" unicode="&#57988;" /><glyph d="M260 386Q218 386 201.5 355.5Q185 325 185 250Q185 175 201.5 144.5Q218 114 260 114Q302 114 318.5 144.5Q335 175 335 250Q335 325 318.5 355.5Q302 386 260 386ZM576 394Q535 394 516.5 368.5Q498 343 498 295H640Q647 336 634.5 365Q622 394 576 394ZM585 -14Q480 -14 420 37Q393 13 353.5 -0.5Q314 -14 260 -14Q191 -14 145.5 5.5Q100 25 73 59.5Q46 94 35.5 143Q25 192 25 250Q25 309 35.5 357.5Q46 406 73 440.5Q100 475 145.5 494.5Q191 514 260 514Q314 514 353 500.5Q392 487 419 463Q476 514 574 514Q654 514 699.5 486.5Q745 459 767 414.5Q789 370 792 313Q795 256 790 197H498Q498 182 501 167Q504 152 514.5 140Q525 128 544.5 120.5Q564 113 597 113Q645 113 685 127.5Q725 142 743 158L802 58Q789 46 769 33.5Q749 21 721.5 10.5Q694 0 660 -7Q626 -14 585 -14Z" glyph-name="oe" horiz-adv-x="824" unicode="&#339;" /><glyph d="M694 187H493V132H722V0H282Q216 0 169.5 17.5Q123 35 93.5 67.5Q64 100 50 146.5Q36 193 36 250Q36 307 50 353.5Q64 400 93.5 432.5Q123 465 169.5 482.5Q216 500 282 500H722V368H493V313H694ZM286 368Q233 368 213.5 334.5Q194 301 194 250Q194 199 213.5 165.5Q233 132 286 132H335V368Z" glyph-name="oe.smcp" horiz-adv-x="770" unicode="&#58008;" /><glyph d="M373 0Q321 -14 295.5 -45.5Q270 -77 270 -105Q270 -131 284.5 -142Q299 -153 315 -153Q334 -153 347 -147.5Q360 -142 367 -137L415 -216Q398 -230 368.5 -242.5Q339 -255 293 -255Q265 -255 239 -248Q213 -241 193.5 -226Q174 -211 162 -187.5Q150 -164 150 -132Q150 -89 170.5 -57Q191 -25 220.5 -3.5Q250 18 284 30.5Q318 43 345 49Z" glyph-name="ogonek" horiz-adv-x="500" unicode="&#731;" /><glyph d="M260 -14Q191 -14 145.5 5.5Q100 25 73 59.5Q46 94 35.5 143Q25 192 25 250Q25 309 35.5 357.5Q46 406 73 440.5Q100 475 145.5 494.5Q191 514 260 514Q329 514 374.5 494.5Q420 475 447 440.5Q474 406 484.5 357.5Q495 309 495 250Q495 192 484.5 143Q474 94 447 59.5Q420 25 374.5 5.5Q329 -14 260 -14ZM260 386Q218 386 201.5 355.5Q185 325 185 250Q185 175 201.5 144.5Q218 114 260 114Q302 114 318.5 144.5Q335 175 335 250Q335 325 318.5 355.5Q302 386 260 386ZM205 550 100 750H260L325 550Z" glyph-name="ograve" horiz-adv-x="520" unicode="&#242;" /><glyph d="M305 121Q360 121 385.5 151Q411 181 411 250Q411 319 385.5 349Q360 379 305 379Q250 379 224.5 349Q199 319 199 250Q199 181 224.5 151Q250 121 305 121ZM305 -14Q169 -14 104.5 50.5Q40 115 40 250Q40 385 104.5 449.5Q169 514 305 514Q441 514 505.5 449.5Q570 385 570 250Q570 115 505.5 50.5Q441 -14 305 -14ZM250 550 145 750H305L370 550Z" glyph-name="ograve.smcp" horiz-adv-x="610" unicode="&#57986;" /><glyph d="M355 619Q277 619 233.5 567.5Q190 516 190 430Q190 377 202.5 332Q215 287 236 249Q257 211 283 179.5Q309 148 336 121V0H35V138L150 135Q127 160 106.5 193.5Q86 227 70.5 265Q55 303 46 345Q37 387 37 430Q37 506 57.5 567.5Q78 629 118.5 672.5Q159 716 218 740Q277 764 355 764Q433 764 492 740Q551 716 591.5 672.5Q632 629 652.5 567.5Q673 506 673 430Q673 387 664 345Q655 303 639.5 265Q624 227 603.5 193.5Q583 160 560 135L675 138V0H374V121Q401 148 427 179.5Q453 211 474 249Q495 287 507.5 332Q520 377 520 430Q520 516 476.5 567.5Q433 619 355 619Z" glyph-name="ohm" horiz-adv-x="710" unicode="&#59425;" /><glyph d="M260 -14Q191 -14 145.5 5.5Q100 25 73 59.5Q46 94 35.5 143Q25 192 25 250Q25 309 35.5 357.5Q46 406 73 440.5Q100 475 145.5 494.5Q191 514 260 514Q329 514 374.5 494.5Q420 475 447 440.5Q474 406 484.5 357.5Q495 309 495 250Q495 192 484.5 143Q474 94 447 59.5Q420 25 374.5 5.5Q329 -14 260 -14ZM260 386Q218 386 201.5 355.5Q185 325 185 250Q185 175 201.5 144.5Q218 114 260 114Q302 114 318.5 144.5Q335 175 335 250Q335 325 318.5 355.5Q302 386 260 386ZM105 550 170 750H330L225 550ZM285 550 350 750H510L405 550Z" glyph-name="ohungarumlaut" horiz-adv-x="520" unicode="&#337;" /><glyph d="M305 121Q360 121 385.5 151Q411 181 411 250Q411 319 385.5 349Q360 379 305 379Q250 379 224.5 349Q199 319 199 250Q199 181 224.5 151Q250 121 305 121ZM305 -14Q169 -14 104.5 50.5Q40 115 40 250Q40 385 104.5 449.5Q169 514 305 514Q441 514 505.5 449.5Q570 385 570 250Q570 115 505.5 50.5Q441 -14 305 -14ZM150 550 215 750H375L270 550ZM330 550 395 750H555L450 550Z" glyph-name="ohungarumlaut.smcp" horiz-adv-x="610" unicode="&#57994;" /><glyph d="M416 585H104V705H416ZM260 -14Q191 -14 145.5 5.5Q100 25 73 59.5Q46 94 35.5 143Q25 192 25 250Q25 309 35.5 357.5Q46 406 73 440.5Q100 475 145.5 494.5Q191 514 260 514Q329 514 374.5 494.5Q420 475 447 440.5Q474 406 484.5 357.5Q495 309 495 250Q495 192 484.5 143Q474 94 447 59.5Q420 25 374.5 5.5Q329 -14 260 -14ZM260 386Q218 386 201.5 355.5Q185 325 185 250Q185 175 201.5 144.5Q218 114 260 114Q302 114 318.5 144.5Q335 175 335 250Q335 325 318.5 355.5Q302 386 260 386Z" glyph-name="omacron" horiz-adv-x="520" unicode="&#333;" /><glyph d="M461 585H149V705H461ZM305 121Q360 121 385.5 151Q411 181 411 250Q411 319 385.5 349Q360 379 305 379Q250 379 224.5 349Q199 319 199 250Q199 181 224.5 151Q250 121 305 121ZM305 -14Q169 -14 104.5 50.5Q40 115 40 250Q40 385 104.5 449.5Q169 514 305 514Q441 514 505.5 449.5Q570 385 570 250Q570 115 505.5 50.5Q441 -14 305 -14Z" glyph-name="omacron.smcp" horiz-adv-x="610" unicode="&#57991;" /><glyph d="M281 756V0H123V594L35 582V693L211 756Z" glyph-name="one" horiz-adv-x="350" unicode="1" /><glyph d="M67 125 197 129V596L53 575V688L280 756H355V129L485 125V0H67Z" glyph-name="one.LT" horiz-adv-x="550" unicode="&#58689;" /><glyph d="M281 506V0H123V344L35 332V443L211 506Z" glyph-name="one.OP" horiz-adv-x="350" unicode="&#58700;" /><glyph d="M296 -250H154V30L35 26V120L232 173H296Z" glyph-name="one.inf" horiz-adv-x="350" unicode="&#58738;" /><glyph d="M296 341H154V621L35 617V711L232 764H296ZM168 0 700 750H832L300 0ZM836 292Q808 292 786 281Q764 270 753 261L691 369Q702 378 716 387.5Q730 397 749.5 405Q769 413 795 418Q821 423 855 423Q914 423 951.5 411.5Q989 400 1011 381.5Q1033 363 1041 339.5Q1049 316 1049 292Q1049 258 1032.5 231Q1016 204 992.5 183.5Q969 163 943 149Q917 135 897 127L1054 130V0H696V97Q756 132 792.5 158.5Q829 185 849 204.5Q869 224 875.5 237.5Q882 251 882 261Q882 274 872 283Q862 292 836 292Z" glyph-name="onehalf" horiz-adv-x="1100" unicode="&#189;" /><glyph d="M296 341H154V621L35 617V711L232 764H296ZM168 0 700 750H832L300 0ZM663 160 860 423H1029V191H1089V64H1029V0H890V64H663ZM890 191 895 276 835 189Z" glyph-name="onequarter" horiz-adv-x="1100" unicode="&#188;" /><glyph d="M296 341H154V621L35 617V711L232 764H296ZM168 0 700 750H832L300 0ZM946 0H804V280L685 276V370L882 423H946ZM1271 296Q1259 296 1242 294.5Q1225 293 1209 288Q1193 283 1181.5 273Q1170 263 1168 245Q1179 259 1208 269.5Q1237 280 1272 280Q1319 280 1350.5 270.5Q1382 261 1400.5 243Q1419 225 1427 199.5Q1435 174 1435 141Q1435 71 1387 28.5Q1339 -14 1226 -14Q1115 -14 1067.5 41Q1020 96 1020 205Q1020 317 1075 370Q1130 423 1253 423Q1328 423 1370.5 410.5Q1413 398 1432 383L1371 277Q1357 285 1332.5 290.5Q1308 296 1271 296ZM1232 110Q1255 110 1265.5 119Q1276 128 1276 139Q1276 149 1269.5 158.5Q1263 168 1242 168Q1218 168 1205.5 159Q1193 150 1188 144Q1190 127 1203.5 118.5Q1217 110 1232 110Z" glyph-name="onesixteenth" horiz-adv-x="1450" unicode="&#61973;" /><glyph d="M296 341H154V621L35 617V711L232 764H296Z" glyph-name="onesuperior" horiz-adv-x="350" unicode="&#185;" /><glyph d="M288 250H45V388H288Z" glyph-name="onethirdemdash" horiz-adv-x="333" unicode="&#58481;" /><glyph d="M288 306H45V444H288Z" glyph-name="onethirdemdash.cap" horiz-adv-x="333" unicode="&#58499;" /><glyph d="M288 181H45V319H288Z" glyph-name="onethirdemdash.smcp" horiz-adv-x="333" unicode="&#61830;" /><glyph d="M296 341H154V621L35 617V711L232 764H296ZM168 0 700 750H832L300 0ZM841 119Q867 119 882 120.5Q897 122 905 124.5Q913 127 915.5 130.5Q918 134 918 138Q918 146 911.5 151Q905 156 894 156H771V254H885Q900 254 905 259.5Q910 265 910 271Q910 279 896 285Q882 291 841 291Q799 291 775.5 282.5Q752 274 740 268L677 376Q686 383 701 391Q716 399 738 406Q760 413 790 418Q820 423 860 423Q904 423 940.5 416.5Q977 410 1003.5 395.5Q1030 381 1044.5 359Q1059 337 1059 307Q1059 273 1044 252Q1029 231 1008 224Q1040 212 1057 186Q1074 160 1074 121Q1074 56 1020 21Q966 -14 860 -14Q818 -14 785.5 -8.5Q753 -3 729 4.5Q705 12 690 20.5Q675 29 669 34L732 142Q743 136 767.5 127.5Q792 119 841 119ZM1286 292Q1258 292 1236 281Q1214 270 1203 261L1141 369Q1152 378 1166 387.5Q1180 397 1199.5 405Q1219 413 1245 418Q1271 423 1305 423Q1364 423 1401.5 411.5Q1439 400 1461 381.5Q1483 363 1491 339.5Q1499 316 1499 292Q1499 258 1482.5 231Q1466 204 1442.5 183.5Q1419 163 1393 149Q1367 135 1347 127L1504 130V0H1146V97Q1206 132 1242.5 158.5Q1279 185 1299 204.5Q1319 224 1325.5 237.5Q1332 251 1332 261Q1332 274 1322 283Q1312 292 1286 292Z" glyph-name="onethirtysecond" horiz-adv-x="1550" /><glyph d="M230 623Q230 637 218.5 646Q207 655 172 655Q138 655 111.5 640.5Q85 626 72 612L19 702Q44 727 85 745.5Q126 764 187 764Q240 764 274 754Q308 744 328 725Q348 706 355.5 680.5Q363 655 363 623V376H260L249 398Q235 387 207 375Q179 363 143 363Q77 363 47.5 394.5Q18 426 18 485Q18 548 55 573.5Q92 599 162 605L230 610ZM185 538Q137 534 137 497Q137 473 149.5 464Q162 455 179 455Q190 455 206 459Q222 463 230 469V542Z" glyph-name="ordfeminine" horiz-adv-x="398" unicode="&#170;" /><glyph d="M163 565Q163 511 179 493Q195 475 219 475Q239 475 251 479Q263 483 270 487V640Q263 645 251 649Q239 653 219 653Q195 653 179 634.5Q163 616 163 565ZM403 376H300L289 398Q258 378 231.5 370.5Q205 363 176 363Q104 366 67 412Q30 458 30 565Q30 674 69.5 719Q109 764 185 764Q211 764 235.5 755.5Q260 747 289 730L300 752H403Z" glyph-name="ordfeminine.school" horiz-adv-x="443" unicode="&#57730;" /><glyph d="M5 375 109 757H327L431 375H277L265 427H171L159 375ZM218 644 193 527H242Z" glyph-name="ordfeminine.smcp" horiz-adv-x="436" unicode="&#58193;" /><glyph d="M20 563Q20 666 62 715Q104 764 207 764Q310 764 352.5 715.5Q395 667 395 564Q395 461 352.5 412Q310 363 207 363Q104 363 62 411.5Q20 460 20 563ZM151 563Q151 512 164 493Q177 474 207 474Q237 474 251 493.5Q265 513 265 564Q265 615 251 634Q237 653 207 653Q177 653 164 633.5Q151 614 151 563Z" glyph-name="ordmasculine" horiz-adv-x="415" unicode="&#186;" /><glyph d="M36 562Q36 666 81 715Q126 764 232 764Q338 764 383 715.5Q428 667 428 563Q428 459 383 410Q338 361 232 361Q126 361 81 409.5Q36 458 36 562ZM285 563Q285 613 272 630.5Q259 648 232 648Q205 648 192 630Q179 612 179 562Q179 512 192 494.5Q205 477 232 477Q259 477 272 495Q285 513 285 563Z" glyph-name="ordmasculine.smcp" horiz-adv-x="464" unicode="&#58194;" /><glyph d="M448 439Q474 404 484.5 356Q495 308 495 250Q495 192 484.5 143Q474 94 447 59.5Q420 25 374.5 5.5Q329 -14 260 -14Q217 -14 184 -6.5Q151 1 125 15L114 0H25L71 61Q45 96 35 144Q25 192 25 250Q25 309 35.5 357.5Q46 406 73 440.5Q100 475 145.5 494.5Q191 514 260 514Q303 514 336 506.5Q369 499 395 485L406 500H495ZM335 250Q335 261 334.5 270.5Q334 280 333 288L213 130Q229 114 260 114Q302 114 318.5 144.5Q335 175 335 250ZM260 386Q218 386 201.5 355.5Q185 325 185 250Q185 239 185 229.5Q185 220 186 212L307 370Q290 386 260 386Z" glyph-name="oslash" horiz-adv-x="520" unicode="&#248;" /><glyph d="M510 444Q570 378 570 250Q570 115 505.5 50.5Q441 -14 305 -14Q262 -14 227 -7.5Q192 -1 163 11L154 0H55L100 56Q40 119 40 250Q40 385 104.5 449.5Q169 514 305 514Q389 514 447 488L456 500H555ZM305 121Q360 121 385.5 151Q411 181 411 250Q411 287 404 311L257 128Q275 121 305 121ZM199 250Q199 212 206 188L353 371Q331 379 305 379Q250 379 224.5 349Q199 319 199 250Z" glyph-name="oslash.smcp" horiz-adv-x="610" unicode="&#58005;" /><glyph d="M45 573Q45 661 77.5 700.5Q110 740 175 740Q211 740 234 727.5Q257 715 274.5 699.5Q292 684 306.5 671.5Q321 659 339 659Q370 659 379 676.5Q388 694 388 717H475Q475 629 442 589.5Q409 550 345 550Q309 550 286 562.5Q263 575 246 590.5Q229 606 214 618.5Q199 631 181 631Q150 631 141 613.5Q132 596 132 573ZM260 -14Q191 -14 145.5 5.5Q100 25 73 59.5Q46 94 35.5 143Q25 192 25 250Q25 309 35.5 357.5Q46 406 73 440.5Q100 475 145.5 494.5Q191 514 260 514Q329 514 374.5 494.5Q420 475 447 440.5Q474 406 484.5 357.5Q495 309 495 250Q495 192 484.5 143Q474 94 447 59.5Q420 25 374.5 5.5Q329 -14 260 -14ZM260 386Q218 386 201.5 355.5Q185 325 185 250Q185 175 201.5 144.5Q218 114 260 114Q302 114 318.5 144.5Q335 175 335 250Q335 325 318.5 355.5Q302 386 260 386Z" glyph-name="otilde" horiz-adv-x="520" unicode="&#245;" /><glyph d="M90 573Q90 661 122.5 700.5Q155 740 220 740Q256 740 279 727.5Q302 715 319.5 699.5Q337 684 351.5 671.5Q366 659 384 659Q415 659 424 676.5Q433 694 433 717H520Q520 629 487 589.5Q454 550 390 550Q354 550 331 562.5Q308 575 291 590.5Q274 606 259 618.5Q244 631 226 631Q195 631 186 613.5Q177 596 177 573ZM305 121Q360 121 385.5 151Q411 181 411 250Q411 319 385.5 349Q360 379 305 379Q250 379 224.5 349Q199 319 199 250Q199 181 224.5 151Q250 121 305 121ZM305 -14Q169 -14 104.5 50.5Q40 115 40 250Q40 385 104.5 449.5Q169 514 305 514Q441 514 505.5 449.5Q570 385 570 250Q570 115 505.5 50.5Q441 -14 305 -14Z" glyph-name="otilde.smcp" horiz-adv-x="610" unicode="&#57989;" /><glyph d="M141 500 168 460Q194 483 232 498.5Q270 514 330 514Q428 514 476 451.5Q524 389 524 250Q524 111 476 48.5Q428 -14 330 -14Q288 -14 258 -5Q228 4 205 18V-250H45V500ZM205 136Q214 130 226 126Q236 121 248.5 118Q261 115 276 115Q332 115 349 150.5Q366 186 366 250Q366 315 349 349Q332 383 276 383Q261 383 248 379.5Q235 376 226 373Q214 368 205 362Z" glyph-name="p" horiz-adv-x="549" unicode="p" /><glyph d="M213 141V0H55V500H310Q362 500 398 487Q434 474 456 450.5Q478 427 488 394Q498 361 498 321Q498 281 488 247.5Q478 214 455.5 190.5Q433 167 397.5 154Q362 141 310 141ZM337 317Q337 351 324.5 360.5Q312 370 297 370H213V265H297Q312 265 324.5 274.5Q337 284 337 317Z" glyph-name="p.smcp" horiz-adv-x="519" unicode="&#57856;" /><glyph d="M177 0V274Q135 288 106 311.5Q77 335 59 365.5Q41 396 33 431.5Q25 467 25 504Q25 552 39 596.5Q53 641 85 675Q117 709 168.5 729.5Q220 750 295 750H549V0H378V257H348V0Z" glyph-name="paragraph" horiz-adv-x="614" unicode="&#182;" /><glyph d="M50 300Q50 389 61.5 467Q73 545 90.5 608.5Q108 672 128.5 721Q149 770 168 800H323Q304 770 283 720.5Q262 671 244.5 606.5Q227 542 215.5 464.5Q204 387 204 300Q204 213 215.5 135.5Q227 58 244.5 -6.5Q262 -71 283 -120.5Q304 -170 323 -200H168Q149 -170 128.5 -121Q108 -72 90.5 -8.5Q73 55 61.5 133Q50 211 50 300Z" glyph-name="parenleft" horiz-adv-x="360" unicode="(" /><glyph d="M224 375Q224 237 249 129.5Q274 22 305 -50H155Q140 -14 124.5 31Q109 76 97 129.5Q85 183 77.5 244.5Q70 306 70 375Q70 444 77.5 505.5Q85 567 97 620.5Q109 674 124.5 719Q140 764 155 800H305Q274 728 249 620.5Q224 513 224 375Z" glyph-name="parenleft.cap" horiz-adv-x="360" unicode="&#58513;" /><glyph d="M173 -45Q173 -116 192.5 -175.5Q212 -235 235 -270H85Q62 -235 43 -177Q24 -119 24 -45Q24 29 43 87Q62 145 85 180H235Q212 145 192.5 85.5Q173 26 173 -45Z" glyph-name="parenleft.inf" horiz-adv-x="250" unicode="&#58750;" /><glyph d="M234 250Q234 162 252.5 83.5Q271 5 295 -50H150Q124 5 102 83.5Q80 162 80 250Q80 338 102 416.5Q124 495 150 550H295Q271 495 252.5 416.5Q234 338 234 250Z" glyph-name="parenleft.smcp" horiz-adv-x="360" unicode="&#58521;" /><glyph d="M310 300Q310 211 298.5 133Q287 55 269.5 -8.5Q252 -72 231.5 -121Q211 -170 192 -200H37Q56 -170 77 -120.5Q98 -71 115.5 -6.5Q133 58 144.5 135.5Q156 213 156 300Q156 387 144.5 464.5Q133 542 115.5 606.5Q98 671 77 720.5Q56 770 37 800H192Q211 770 231.5 721Q252 672 269.5 608.5Q287 545 298.5 467Q310 389 310 300Z" glyph-name="parenright" horiz-adv-x="360" unicode=")" /><glyph d="M136 375Q136 513 111 620.5Q86 728 55 800H205Q220 764 235.5 719Q251 674 263 620.5Q275 567 282.5 505.5Q290 444 290 375Q290 306 282.5 244.5Q275 183 263 129.5Q251 76 235.5 31Q220 -14 205 -50H55Q86 22 111 129.5Q136 237 136 375Z" glyph-name="parenright.cap" horiz-adv-x="360" unicode="&#58514;" /><glyph d="M77 -45Q77 26 57.5 85.5Q38 145 15 180H165Q188 145 207 87Q226 29 226 -45Q226 -119 207 -177Q188 -235 165 -270H15Q38 -235 57.5 -175.5Q77 -116 77 -45Z" glyph-name="parenright.inf" horiz-adv-x="250" unicode="&#58751;" /><glyph d="M126 250Q126 338 107.5 416.5Q89 495 65 550H210Q236 495 258 416.5Q280 338 280 250Q280 162 258 83.5Q236 5 210 -50H65Q89 5 107.5 83.5Q126 162 126 250Z" glyph-name="parenright.smcp" horiz-adv-x="360" unicode="&#58522;" /><glyph d="M500 250Q500 192 490 143Q480 94 454 59.5Q428 25 382 5.5Q336 -14 265 -14Q195 -14 149 5.5Q103 25 77 59.5Q51 94 40.5 143Q30 192 30 250Q30 309 40.5 357.5Q51 406 75 440.5Q99 475 139 494.5Q179 514 238 514Q269 514 298.5 509Q328 504 345 490Q343 532 329.5 556.5Q316 581 297.5 593.5Q279 606 256.5 610Q234 614 214 614Q168 614 128 606Q88 598 46 578V731Q70 743 118.5 753.5Q167 764 227 764Q315 764 368.5 730Q422 696 451.5 630Q481 564 490.5 468.5Q500 373 500 250ZM265 386Q223 386 206.5 355.5Q190 325 190 250Q190 175 206.5 144.5Q223 114 265 114Q307 114 323.5 144.5Q340 175 340 250Q340 325 323.5 355.5Q307 386 265 386Z" glyph-name="partialdiff" horiz-adv-x="530" unicode="&#8706;" /><glyph d="M141 500 168 460Q194 483 232 498.5Q270 514 330 514Q428 514 476 451.5Q524 389 524 250Q524 111 476 48.5Q428 -14 330 -14Q288 -14 258 -5Q228 4 205 18V-250H45V500ZM205 136Q214 130 226 126Q236 121 248.5 118Q261 115 276 115Q332 115 349 150.5Q366 186 366 250Q366 315 349 349Q332 383 276 383Q261 383 248 379.5Q235 376 226 373Q214 368 205 362ZM187 645Q187 683 213 709Q239 735 277 735Q315 735 341 709Q367 683 367 645Q367 607 341 581Q315 555 277 555Q239 555 213 581Q187 607 187 645Z" glyph-name="pdotaccent" horiz-adv-x="549" unicode="&#7767;" /><glyph d="M213 141V0H55V500H310Q362 500 398 487Q434 474 456 450.5Q478 427 488 394Q498 361 498 321Q498 281 488 247.5Q478 214 455.5 190.5Q433 167 397.5 154Q362 141 310 141ZM337 317Q337 351 324.5 360.5Q312 370 297 370H213V265H297Q312 265 324.5 274.5Q337 284 337 317ZM173 645Q173 683 199 709Q225 735 263 735Q301 735 327 709Q353 683 353 645Q353 607 327 581Q301 555 263 555Q225 555 199 581Q173 607 173 645Z" glyph-name="pdotaccent.smcp" horiz-adv-x="519" /><glyph d="M163 0 695 750H827L295 0ZM952 188Q952 83 904.5 34.5Q857 -14 761 -14Q665 -14 617.5 34Q570 82 570 187Q570 292 617.5 340.5Q665 389 761 389Q857 389 904.5 341Q952 293 952 188ZM713 187Q713 139 725.5 124.5Q738 110 761 110Q784 110 796.5 125Q809 140 809 188Q809 236 796.5 250.5Q784 265 761 265Q738 265 725.5 250Q713 235 713 187ZM420 563Q420 458 372.5 409.5Q325 361 229 361Q133 361 85.5 409Q38 457 38 562Q38 667 85.5 715.5Q133 764 229 764Q325 764 372.5 716Q420 668 420 563ZM181 562Q181 514 193.5 499.5Q206 485 229 485Q252 485 264.5 500Q277 515 277 563Q277 611 264.5 625.5Q252 640 229 640Q206 640 193.5 625Q181 610 181 562Z" glyph-name="percent" horiz-adv-x="990" unicode="%" /><glyph d="M313 0 668 500H800L445 0ZM426 335Q426 241 378.5 198.5Q331 156 232 156Q134 156 86 198.5Q38 241 38 335Q38 429 86 471.5Q134 514 232 514Q331 514 378.5 471.5Q426 429 426 335ZM182 335Q182 304 194 292Q206 280 232 280Q258 280 270 292Q282 304 282 335Q282 365 270 377.5Q258 390 232 390Q206 390 194 377.5Q182 365 182 335ZM687 165Q687 259 734.5 301.5Q782 344 881 344Q979 344 1027 301.5Q1075 259 1075 165Q1075 71 1027 28.5Q979 -14 881 -14Q782 -14 734.5 28.5Q687 71 687 165ZM931 165Q931 196 919 208Q907 220 881 220Q855 220 843 208Q831 196 831 165Q831 135 843 122.5Q855 110 881 110Q907 110 919 122.5Q931 135 931 165Z" glyph-name="percent.OP" horiz-adv-x="1113" unicode="&#59822;" /><glyph d="M30 78Q30 116 56 142Q82 168 120 168Q158 168 184 142Q210 116 210 78Q210 40 184 14Q158 -12 120 -12Q82 -12 56 14Q30 40 30 78Z" glyph-name="period" horiz-adv-x="240" unicode="." /><glyph d="M30 319Q30 357 56 383Q82 409 120 409Q158 409 184 383Q210 357 210 319Q210 281 184 255Q158 229 120 229Q82 229 56 255Q30 281 30 319Z" glyph-name="periodcentered" horiz-adv-x="240" unicode="&#183;" /><glyph d="M30 375Q30 413 56 439Q82 465 120 465Q158 465 184 439Q210 413 210 375Q210 337 184 311Q158 285 120 285Q82 285 56 311Q30 337 30 375Z" glyph-name="periodcentered.cap" horiz-adv-x="240" unicode="&#58497;" /><glyph d="M30 250Q30 288 56 314Q82 340 120 340Q158 340 184 314Q210 288 210 250Q210 212 184 186Q158 160 120 160Q82 160 56 186Q30 212 30 250Z" glyph-name="periodcentered.smcp" horiz-adv-x="240" unicode="&#60322;" /><glyph d="M163 0 695 750H827L295 0ZM952 188Q952 83 904.5 34.5Q857 -14 761 -14Q665 -14 617.5 34Q570 82 570 187Q570 292 617.5 340.5Q665 389 761 389Q857 389 904.5 341Q952 293 952 188ZM713 187Q713 139 725.5 124.5Q738 110 761 110Q784 110 796.5 125Q809 140 809 188Q809 236 796.5 250.5Q784 265 761 265Q738 265 725.5 250Q713 235 713 187ZM420 563Q420 458 372.5 409.5Q325 361 229 361Q133 361 85.5 409Q38 457 38 562Q38 667 85.5 715.5Q133 764 229 764Q325 764 372.5 716Q420 668 420 563ZM181 562Q181 514 193.5 499.5Q206 485 229 485Q252 485 264.5 500Q277 515 277 563Q277 611 264.5 625.5Q252 640 229 640Q206 640 193.5 625Q181 610 181 562ZM1382 188Q1382 83 1334.5 34.5Q1287 -14 1191 -14Q1095 -14 1047.5 34Q1000 82 1000 187Q1000 292 1047.5 340.5Q1095 389 1191 389Q1287 389 1334.5 341Q1382 293 1382 188ZM1143 187Q1143 139 1155.5 124.5Q1168 110 1191 110Q1214 110 1226.5 125Q1239 140 1239 188Q1239 236 1226.5 250.5Q1214 265 1191 265Q1168 265 1155.5 250Q1143 235 1143 187Z" glyph-name="perthousand" horiz-adv-x="1420" unicode="&#8240;" /></font>
</defs>
</svg>
