<?xml version="1.0" standalone="no"?><!DOCTYPE svg PUBLIC "-//W3C//DTD SVG 1.1//EN" "http://www.w3.org/Graphics/SVG/1.1/DTD/svg11.dtd" ><svg version="1.1" xmlns="http://www.w3.org/2000/svg"><defs><font horiz-adv-x="0" id="font"><font-face ascent="750" bbox="-184 -269 2001.0588 921" cap-height="750" descent="-250" font-family="Optic Sans" font-stretch="normal" font-style="normal" font-weight="600" units-per-em="1000" x-height="500" /><missing-glyph d="M65 750H815V0H65ZM440 422 702 684H178ZM178 66H702L440 328ZM744 118V632L487 375ZM136 632V118L393 375Z" horiz-adv-x="880" /><glyph glyph-name=".null" horiz-adv-x="0" /><glyph d="M-5 0 353 760H403L575 0H498L454 210H166L72 0ZM193 269H442L364 646Z" glyph-name="A" horiz-adv-x="630" unicode="A" /><glyph d="M539 422H901L894 359H543L554 63H892L885 0H489L479 210H192L66 0H-10L458 750H977L969 687H529ZM229 269H478L462 655Z" glyph-name="AE" horiz-adv-x="975" unicode="&#198;" /><glyph d="M-5 0 353 760H403L575 0H498L454 210H166L72 0ZM193 269H442L364 646ZM358 800 420 900H510L408 800Z" glyph-name="Aacute" horiz-adv-x="630" unicode="&#193;" /><glyph d="M-5 0 353 760H403L575 0H498L454 210H166L72 0ZM193 269H442L364 646ZM381 790Q241 790 250 900H301Q299 869 322 857Q345 845 388 845Q431 845 457.5 857Q484 869 489 900H540Q522 790 381 790Z" glyph-name="Abreve" horiz-adv-x="630" unicode="&#258;" /><glyph d="M-5 0 353 760H403L575 0H498L454 210H166L72 0ZM193 269H442L364 646ZM482 800 390 856 284 800H228L355 900H435L538 800Z" glyph-name="Acircumflex" horiz-adv-x="630" unicode="&#194;" /><glyph d="M-5 0 353 760H403L575 0H498L454 210H166L72 0ZM193 269H442L364 646ZM250 850Q250 868 263 881Q276 894 294 894Q312 894 325 881Q338 868 338 850Q338 832 325 819Q312 806 294 806Q276 806 263 819Q250 832 250 850ZM440 850Q440 868 453 881Q466 894 484 894Q502 894 515 881Q528 868 528 850Q528 832 515 819Q502 806 484 806Q466 806 453 819Q440 832 440 850Z" glyph-name="Adieresis" horiz-adv-x="630" unicode="&#196;" /><glyph d="M-5 0 353 760H403L575 0H498L454 210H166L72 0ZM193 269H442L364 646ZM358 800 280 900H370L408 800Z" glyph-name="Agrave" horiz-adv-x="630" unicode="&#192;" /><glyph d="M-5 0 353 760H403L575 0H498L454 210H166L72 0ZM193 269H442L364 646ZM256 880H530L522 820H248Z" glyph-name="Amacron" horiz-adv-x="630" unicode="&#256;" /><glyph d="M-5 0 353 760H403L575 0H498L364 646L72 0Z" glyph-name="Anocross" horiz-adv-x="630" unicode="&#59185;" /><glyph d="M193 269H442L364 646ZM486 -252Q435 -252 409 -226Q383 -200 388 -155Q394 -110 421.5 -70Q449 -30 497 1L454 210H166L72 0H-5L353 760H403L575 0Q522 -27 489 -65Q456 -103 451 -142Q448 -165 458.5 -182Q469 -199 501 -199Q526 -199 543.5 -190.5Q561 -182 570 -176L590 -220Q572 -233 548 -242.5Q524 -252 486 -252Z" glyph-name="Aogonek" horiz-adv-x="630" unicode="&#260;" /><glyph d="M-5 0 353 760H403L575 0H498L454 210H166L72 0ZM193 269H442L364 646ZM398 921Q417 921 433.5 917.5Q450 914 462 906Q474 898 480 884.5Q486 871 483 850Q478 809 448 794Q418 779 380 779Q361 779 344.5 782.5Q328 786 316 794Q304 802 298 815.5Q292 829 295 850Q300 891 330.5 906Q361 921 398 921ZM386 828Q430 828 433 850Q436 872 392 872Q348 872 345 850Q342 828 386 828Z" glyph-name="Aring" horiz-adv-x="630" unicode="&#197;" /><glyph d="M-5 0 353 760H403L575 0H498L454 210H166L72 0ZM193 269H442L364 646ZM465 849Q482 849 492.5 854Q503 859 509 867Q515 875 517 884Q519 893 520 900H576Q573 847 540 818.5Q507 790 453 790Q426 790 408 799.5Q390 809 375 820.5Q360 832 346 841.5Q332 851 313 851Q296 851 285.5 846Q275 841 269 833Q263 825 261 816.5Q259 808 258 800H202Q204 853 237 881.5Q270 910 324 910Q351 910 369.5 900.5Q388 891 403 879.5Q418 868 432 858.5Q446 849 465 849Z" glyph-name="Atilde" horiz-adv-x="630" unicode="&#195;" /><glyph d="M137 750H374Q440 750 482.5 734.5Q525 719 549 692Q573 665 580 629Q587 593 582 552Q576 503 546.5 460Q517 417 465 396Q496 387 517 368.5Q538 350 550 325Q562 300 565.5 270.5Q569 241 565 211Q560 167 542.5 128.5Q525 90 492 61.5Q459 33 409 16.5Q359 0 289 0H45ZM120 63H305Q358 63 392.5 76Q427 89 448 110Q469 131 478.5 157.5Q488 184 491 211Q501 287 468.5 323Q436 359 344 359H157ZM508 552Q511 577 508.5 601Q506 625 492.5 644Q479 663 451.5 675Q424 687 376 687H197L164 422H351Q393 422 422 433.5Q451 445 469 463Q487 481 496 504.5Q505 528 508 552Z" glyph-name="B" horiz-adv-x="615" unicode="B" /><glyph d="M137 750H374Q440 750 482.5 734.5Q525 719 549 692Q573 665 580 629Q587 593 582 552Q576 503 546.5 460Q517 417 465 396Q496 387 517 368.5Q538 350 550 325Q562 300 565.5 270.5Q569 241 565 211Q560 167 542.5 128.5Q525 90 492 61.5Q459 33 409 16.5Q359 0 289 0H45ZM120 63H305Q358 63 392.5 76Q427 89 448 110Q469 131 478.5 157.5Q488 184 491 211Q501 287 468.5 323Q436 359 344 359H157ZM508 552Q511 577 508.5 601Q506 625 492.5 644Q479 663 451.5 675Q424 687 376 687H197L164 422H351Q393 422 422 433.5Q451 445 469 463Q487 481 496 504.5Q505 528 508 552ZM330 850Q330 868 343 881Q356 894 374 894Q392 894 405 881Q418 868 418 850Q418 832 405 819Q392 806 374 806Q356 806 343 819Q330 832 330 850Z" glyph-name="Bdotaccent" horiz-adv-x="615" unicode="&#7682;" /><glyph d="M148 375Q139 303 143 244Q147 185 169 142.5Q191 100 234 76.5Q277 53 346 53Q374 53 399 58.5Q424 64 445 71.5Q466 79 482.5 88.5Q499 98 510 105L536 50Q509 30 457 10Q405 -10 333 -10Q245 -10 190 19.5Q135 49 106.5 101Q78 153 72 223Q66 293 76 375Q86 457 109 527.5Q132 598 174 649.5Q216 701 278 730.5Q340 760 428 760Q500 760 547 740Q594 720 615 700L577 645Q558 660 520 678.5Q482 697 425 697Q356 697 307.5 673.5Q259 650 226.5 607.5Q194 565 175.5 506Q157 447 148 375Z" glyph-name="C" horiz-adv-x="610" unicode="C" /><glyph d="M398 800 460 900H550L448 800ZM148 375Q139 303 143 244Q147 185 169 142.5Q191 100 234 76.5Q277 53 346 53Q374 53 399 58.5Q424 64 445 71.5Q466 79 482.5 88.5Q499 98 510 105L536 50Q509 30 457 10Q405 -10 333 -10Q245 -10 190 19.5Q135 49 106.5 101Q78 153 72 223Q66 293 76 375Q86 457 109 527.5Q132 598 174 649.5Q216 701 278 730.5Q340 760 428 760Q500 760 547 740Q594 720 615 700L577 645Q558 660 520 678.5Q482 697 425 697Q356 697 307.5 673.5Q259 650 226.5 607.5Q194 565 175.5 506Q157 447 148 375Z" glyph-name="Cacute" horiz-adv-x="610" unicode="&#262;" /><glyph d="M336 900 428 844 534 900H590L463 800H383L280 900ZM148 375Q139 303 143 244Q147 185 169 142.5Q191 100 234 76.5Q277 53 346 53Q374 53 399 58.5Q424 64 445 71.5Q466 79 482.5 88.5Q499 98 510 105L536 50Q509 30 457 10Q405 -10 333 -10Q245 -10 190 19.5Q135 49 106.5 101Q78 153 72 223Q66 293 76 375Q86 457 109 527.5Q132 598 174 649.5Q216 701 278 730.5Q340 760 428 760Q500 760 547 740Q594 720 615 700L577 645Q558 660 520 678.5Q482 697 425 697Q356 697 307.5 673.5Q259 650 226.5 607.5Q194 565 175.5 506Q157 447 148 375Z" glyph-name="Ccaron" horiz-adv-x="610" unicode="&#268;" /><glyph d="M148 375Q139 303 143 244Q147 185 169 142.5Q191 100 234 76.5Q277 53 346 53Q374 53 399 58.5Q424 64 445 71.5Q466 79 482.5 88.5Q499 98 510 105L536 50Q509 30 457 10Q405 -10 333 -10L331 -64Q345 -68 361 -75Q377 -82 389.5 -93Q402 -104 409.5 -121Q417 -138 414 -161Q409 -202 377 -227Q345 -252 292 -252Q251 -252 231 -242.5Q211 -233 196 -220L228 -176Q236 -182 251.5 -190.5Q267 -199 294 -199Q317 -199 333.5 -190.5Q350 -182 352 -163Q354 -147 348 -136Q342 -125 331 -117.5Q320 -110 304 -106Q288 -102 271 -100L292 -8Q217 -1 170.5 31Q124 63 99.5 114Q75 165 70.5 231.5Q66 298 76 375Q86 457 109 527.5Q132 598 174 649.5Q216 701 278 730.5Q340 760 428 760Q500 760 547 740Q594 720 615 700L577 645Q558 660 520 678.5Q482 697 425 697Q356 697 307.5 673.5Q259 650 226.5 607.5Q194 565 175.5 506Q157 447 148 375Z" glyph-name="Ccedilla" horiz-adv-x="610" unicode="&#199;" /><glyph d="M522 800 430 856 324 800H268L395 900H475L578 800ZM148 375Q139 303 143 244Q147 185 169 142.5Q191 100 234 76.5Q277 53 346 53Q374 53 399 58.5Q424 64 445 71.5Q466 79 482.5 88.5Q499 98 510 105L536 50Q509 30 457 10Q405 -10 333 -10Q245 -10 190 19.5Q135 49 106.5 101Q78 153 72 223Q66 293 76 375Q86 457 109 527.5Q132 598 174 649.5Q216 701 278 730.5Q340 760 428 760Q500 760 547 740Q594 720 615 700L577 645Q558 660 520 678.5Q482 697 425 697Q356 697 307.5 673.5Q259 650 226.5 607.5Q194 565 175.5 506Q157 447 148 375Z" glyph-name="Ccircumflex" horiz-adv-x="610" unicode="&#264;" /><glyph d="M148 375Q139 303 143 244Q147 185 169 142.5Q191 100 234 76.5Q277 53 346 53Q374 53 399 58.5Q424 64 445 71.5Q466 79 482.5 88.5Q499 98 510 105L536 50Q509 30 457 10Q405 -10 333 -10Q245 -10 190 19.5Q135 49 106.5 101Q78 153 72 223Q66 293 76 375Q86 457 109 527.5Q132 598 174 649.5Q216 701 278 730.5Q340 760 428 760Q500 760 547 740Q594 720 615 700L577 645Q558 660 520 678.5Q482 697 425 697Q356 697 307.5 673.5Q259 650 226.5 607.5Q194 565 175.5 506Q157 447 148 375ZM385 850Q385 868 398 881Q411 894 429 894Q447 894 460 881Q473 868 473 850Q473 832 460 819Q447 806 429 806Q411 806 398 819Q385 832 385 850Z" glyph-name="Cdotaccent" horiz-adv-x="610" unicode="&#266;" /><glyph d="M45 0 137 750H341Q433 750 490.5 721.5Q548 693 578 642.5Q608 592 614.5 523.5Q621 455 611 375Q601 295 577.5 226.5Q554 158 511.5 107.5Q469 57 405 28.5Q341 0 249 0ZM120 63H260Q328 63 376.5 86.5Q425 110 458.5 151.5Q492 193 511 250.5Q530 308 539 375Q547 443 542 500Q537 557 514 598.5Q491 640 448 663.5Q405 687 337 687H197Z" glyph-name="D" horiz-adv-x="655" unicode="D" /><glyph d="M45 0 137 750H341Q433 750 490.5 721.5Q548 693 578 642.5Q608 592 614.5 523.5Q621 455 611 375Q601 295 577.5 226.5Q554 158 511.5 107.5Q469 57 405 28.5Q341 0 249 0ZM120 63H260Q328 63 376.5 86.5Q425 110 458.5 151.5Q492 193 511 250.5Q530 308 539 375Q547 443 542 500Q537 557 514 598.5Q491 640 448 663.5Q405 687 337 687H197ZM281 900 373 844 479 900H535L408 800H328L225 900Z" glyph-name="Dcaron" horiz-adv-x="655" unicode="&#270;" /><glyph d="M35 415H125L167 750H371Q463 750 520.5 721.5Q578 693 608 642.5Q638 592 644.5 523.5Q651 455 641 375Q631 295 607.5 226.5Q584 158 541.5 107.5Q499 57 435 28.5Q371 0 279 0H75L119 362H29ZM193 415H376L370 362H187L150 63H290Q358 63 406.5 86.5Q455 110 488.5 151.5Q522 193 541 250.5Q560 308 569 375Q577 443 572 500Q567 557 544 598.5Q521 640 478 663.5Q435 687 367 687H227Z" glyph-name="Dcroat" horiz-adv-x="685" unicode="&#272;" /><glyph d="M45 0 137 750H341Q433 750 490.5 721.5Q548 693 578 642.5Q608 592 614.5 523.5Q621 455 611 375Q601 295 577.5 226.5Q554 158 511.5 107.5Q469 57 405 28.5Q341 0 249 0ZM120 63H260Q328 63 376.5 86.5Q425 110 458.5 151.5Q492 193 511 250.5Q530 308 539 375Q547 443 542 500Q537 557 514 598.5Q491 640 448 663.5Q405 687 337 687H197ZM330 850Q330 868 343 881Q356 894 374 894Q392 894 405 881Q418 868 418 850Q418 832 405 819Q392 806 374 806Q356 806 343 819Q330 832 330 850Z" glyph-name="Ddotaccent" horiz-adv-x="655" unicode="&#7690;" /><glyph d="M20 43 314 760H386L680 43V0H20ZM604 61 350 686 96 61Z" glyph-name="Delta" horiz-adv-x="700" unicode="&#8710;" /><glyph d="M489 359H157L120 63H487L480 0H45L137 750H572L564 687H197L164 422H496Z" glyph-name="E" horiz-adv-x="570" unicode="E" /><glyph d="M489 359H157L120 63H487L480 0H45L137 750H572L564 687H197L164 422H496ZM343 800 405 900H495L393 800Z" glyph-name="Eacute" horiz-adv-x="570" unicode="&#201;" /><glyph d="M489 359H157L120 63H487L480 0H45L137 750H572L564 687H197L164 422H496ZM366 790Q226 790 235 900H286Q284 869 307 857Q330 845 373 845Q416 845 442.5 857Q469 869 474 900H525Q507 790 366 790Z" glyph-name="Ebreve" horiz-adv-x="570" unicode="&#276;" /><glyph d="M489 359H157L120 63H487L480 0H45L137 750H572L564 687H197L164 422H496ZM281 900 373 844 479 900H535L408 800H328L225 900Z" glyph-name="Ecaron" horiz-adv-x="570" unicode="&#282;" /><glyph d="M489 359H157L120 63H487L480 0H45L137 750H572L564 687H197L164 422H496ZM467 800 375 856 269 800H213L340 900H420L523 800Z" glyph-name="Ecircumflex" horiz-adv-x="570" unicode="&#202;" /><glyph d="M489 359H157L120 63H487L480 0H45L137 750H572L564 687H197L164 422H496ZM235 850Q235 868 248 881Q261 894 279 894Q297 894 310 881Q323 868 323 850Q323 832 310 819Q297 806 279 806Q261 806 248 819Q235 832 235 850ZM425 850Q425 868 438 881Q451 894 469 894Q487 894 500 881Q513 868 513 850Q513 832 500 819Q487 806 469 806Q451 806 438 819Q425 832 425 850Z" glyph-name="Edieresis" horiz-adv-x="570" unicode="&#203;" /><glyph d="M489 359H157L120 63H487L480 0H45L137 750H572L564 687H197L164 422H496ZM330 850Q330 868 343 881Q356 894 374 894Q392 894 405 881Q418 868 418 850Q418 832 405 819Q392 806 374 806Q356 806 343 819Q330 832 330 850Z" glyph-name="Edotaccent" horiz-adv-x="570" unicode="&#278;" /><glyph d="M489 359H157L120 63H487L480 0H45L137 750H572L564 687H197L164 422H496ZM343 800 265 900H355L393 800Z" glyph-name="Egrave" horiz-adv-x="570" unicode="&#200;" /><glyph d="M489 359H157L120 63H487L480 0H45L137 750H572L564 687H197L164 422H496ZM241 880H515L507 820H233Z" glyph-name="Emacron" horiz-adv-x="570" unicode="&#274;" /><glyph d="M360 -200Q412 -194 446.5 -168Q481 -142 488 -82L501 23L186 611L113 0H45L137 750H188L516 139L589 750H657L565 0H564L553 -91Q543 -171 489.5 -213.5Q436 -256 361 -260Z" glyph-name="Eng" horiz-adv-x="670" unicode="&#330;" /><glyph d="M293 -155Q299 -111 325.5 -71.5Q352 -32 400 0H45L137 750H572L564 687H197L164 422H496L489 359H157L120 63H487L480 0Q427 -27 394 -65Q361 -103 356 -142Q353 -165 363.5 -182Q374 -199 406 -199Q431 -199 448.5 -190.5Q466 -182 475 -176L495 -220Q477 -233 453 -242.5Q429 -252 391 -252Q340 -252 314 -226Q288 -200 293 -155Z" glyph-name="Eogonek" horiz-adv-x="570" unicode="&#280;" /><glyph d="M400 697Q366 697 328.5 690.5Q291 684 258 663.5Q225 643 201 605Q177 567 169 504L108 0H40L102 512Q111 587 142.5 635Q174 683 217.5 711Q261 739 311 749.5Q361 760 408 760Q478 760 535 740.5Q592 721 630 664L420 400L452 396Q562 383 615.5 337Q669 291 657 192Q653 157 638.5 121Q624 85 594 56Q564 27 517 8.5Q470 -10 401 -10Q339 -10 288 5Q237 20 198 56L237 111Q266 87 306.5 70Q347 53 404 53Q452 53 484.5 64.5Q517 76 538 95.5Q559 115 569.5 140.5Q580 166 583 193Q592 263 558 295.5Q524 328 433 337Q402 340 376 345Q350 350 332 356L337 397L544 656Q515 682 476 689.5Q437 697 400 697Z" glyph-name="Eszett" horiz-adv-x="704" unicode="&#7838;" /><glyph d="M35 415H125L167 750H371Q463 750 520.5 721.5Q578 693 608 642.5Q638 592 644.5 523.5Q651 455 641 375Q631 295 607.5 226.5Q584 158 541.5 107.5Q499 57 435 28.5Q371 0 279 0H75L119 362H29ZM193 415H376L370 362H187L150 63H290Q358 63 406.5 86.5Q455 110 488.5 151.5Q522 193 541 250.5Q560 308 569 375Q577 443 572 500Q567 557 544 598.5Q521 640 478 663.5Q435 687 367 687H227Z" glyph-name="Eth" horiz-adv-x="685" unicode="&#208;" /><glyph d="M190 266Q190 222 198 183Q206 144 225 115Q244 86 275.5 69Q307 52 354 52Q414 52 451.5 70Q489 88 509 104L535 50Q509 29 462.5 9.5Q416 -10 346 -10Q282 -10 238.5 11Q195 32 168.5 69Q142 106 130.5 156.5Q119 207 119 266H45L53 332H123Q124 338 124 345Q125 352 126 359.5Q127 367 128 375Q129 383 130 391Q131 399 132 405Q133 412 134 418H64L72 484H146Q161 543 184.5 593.5Q208 644 244 681Q280 718 328.5 739Q377 760 441 760Q511 760 552.5 740.5Q594 721 614 700L576 646Q560 662 526 680Q492 698 433 698Q386 698 350.5 681Q315 664 288.5 635Q262 606 245 567Q228 528 217 484H518L472 418H204Q203 412 202 405Q201 398 200 390.5Q199 383 198 375Q197 367 196 359Q195 351 194 345Q194 338 193 332H432L385 266Z" glyph-name="Euro" horiz-adv-x="600" unicode="&#8364;" /><glyph d="M170 283Q168 275 167 266.5Q166 258 165 250Q162 234 162 217H378L347 151H171Q184 108 219.5 80Q255 52 324 52Q381 52 413 67.5Q445 83 466 100L490 47Q476 36 460 25.5Q444 15 423.5 7Q403 -1 376 -5.5Q349 -10 312 -10Q210 -10 159 35Q108 80 96 151H13L21 217H92Q93 225 93 233.5Q93 242 95 250Q96 258 97 266.5Q98 275 100 283H29L37 349H120Q149 420 211.5 465Q274 510 376 510Q413 510 438.5 505.5Q464 501 483 493Q502 485 515 474.5Q528 464 540 453L503 400Q494 408 483.5 416.5Q473 425 457.5 432Q442 439 421.5 443.5Q401 448 373 448Q304 448 261 420Q218 392 195 349H440L409 283Z" glyph-name="Euro.OP" horiz-adv-x="555" unicode="&#59805;" /><glyph d="M479 359H157L113 0H45L137 750H562L554 687H197L164 422H486Z" glyph-name="F" horiz-adv-x="550" unicode="F" /><glyph d="M479 359H157L113 0H45L137 750H562L554 687H197L164 422H486ZM330 850Q330 868 343 881Q356 894 374 894Q392 894 405 881Q418 868 418 850Q418 832 405 819Q392 806 374 806Q356 806 343 819Q330 832 330 850Z" glyph-name="Fdotaccent" horiz-adv-x="550" unicode="&#7710;" /><glyph d="M338 -10Q247 -10 190.5 20Q134 50 105.5 102.5Q77 155 71.5 225Q66 295 76 375Q86 455 109 525Q132 595 174.5 647.5Q217 700 281.5 730Q346 760 438 760Q513 760 561 740Q609 720 630 700L592 645Q572 662 533.5 679.5Q495 697 435 697Q360 697 309 672Q258 647 225 603.5Q192 560 174 501.5Q156 443 148 375Q139 307 143 248.5Q147 190 169 146.5Q191 103 234 78Q277 53 346 53Q440 53 497 83L527 331H350L358 394H603L561 50Q527 24 470 7Q413 -10 338 -10Z" glyph-name="G" horiz-adv-x="660" unicode="G" /><glyph d="M421 790Q281 790 290 900H341Q339 869 362 857Q385 845 428 845Q471 845 497.5 857Q524 869 529 900H580Q562 790 421 790ZM338 -10Q247 -10 190.5 20Q134 50 105.5 102.5Q77 155 71.5 225Q66 295 76 375Q86 455 109 525Q132 595 174.5 647.5Q217 700 281.5 730Q346 760 438 760Q513 760 561 740Q609 720 630 700L592 645Q572 662 533.5 679.5Q495 697 435 697Q360 697 309 672Q258 647 225 603.5Q192 560 174 501.5Q156 443 148 375Q139 307 143 248.5Q147 190 169 146.5Q191 103 234 78Q277 53 346 53Q440 53 497 83L527 331H350L358 394H603L561 50Q527 24 470 7Q413 -10 338 -10Z" glyph-name="Gbreve" horiz-adv-x="660" unicode="&#286;" /><glyph d="M522 800 430 856 324 800H268L395 900H475L578 800ZM338 -10Q247 -10 190.5 20Q134 50 105.5 102.5Q77 155 71.5 225Q66 295 76 375Q86 455 109 525Q132 595 174.5 647.5Q217 700 281.5 730Q346 760 438 760Q513 760 561 740Q609 720 630 700L592 645Q572 662 533.5 679.5Q495 697 435 697Q360 697 309 672Q258 647 225 603.5Q192 560 174 501.5Q156 443 148 375Q139 307 143 248.5Q147 190 169 146.5Q191 103 234 78Q277 53 346 53Q440 53 497 83L527 331H350L358 394H603L561 50Q527 24 470 7Q413 -10 338 -10Z" glyph-name="Gcircumflex" horiz-adv-x="660" unicode="&#284;" /><glyph d="M371 -50 279 -250H229L279 -50ZM338 -10Q247 -10 190.5 20Q134 50 105.5 102.5Q77 155 71.5 225Q66 295 76 375Q86 455 109 525Q132 595 174.5 647.5Q217 700 281.5 730Q346 760 438 760Q513 760 561 740Q609 720 630 700L592 645Q572 662 533.5 679.5Q495 697 435 697Q360 697 309 672Q258 647 225 603.5Q192 560 174 501.5Q156 443 148 375Q139 307 143 248.5Q147 190 169 146.5Q191 103 234 78Q277 53 346 53Q440 53 497 83L527 331H350L358 394H603L561 50Q527 24 470 7Q413 -10 338 -10Z" glyph-name="Gcommaaccent" horiz-adv-x="660" unicode="&#290;" /><glyph d="M338 -10Q247 -10 190.5 20Q134 50 105.5 102.5Q77 155 71.5 225Q66 295 76 375Q86 455 109 525Q132 595 174.5 647.5Q217 700 281.5 730Q346 760 438 760Q513 760 561 740Q609 720 630 700L592 645Q572 662 533.5 679.5Q495 697 435 697Q360 697 309 672Q258 647 225 603.5Q192 560 174 501.5Q156 443 148 375Q139 307 143 248.5Q147 190 169 146.5Q191 103 234 78Q277 53 346 53Q440 53 497 83L527 331H350L358 394H603L561 50Q527 24 470 7Q413 -10 338 -10ZM385 850Q385 868 398 881Q411 894 429 894Q447 894 460 881Q473 868 473 850Q473 832 460 819Q447 806 429 806Q411 806 398 819Q385 832 385 850Z" glyph-name="Gdotaccent" horiz-adv-x="660" unicode="&#288;" /><glyph d="M487 0 531 359H157L113 0H45L137 750H205L164 422H538L579 750H647L555 0Z" glyph-name="H" horiz-adv-x="660" unicode="H" /><glyph d="M487 0 531 359H157L113 0H45L137 750H205L187 606H561L579 750H647L555 0ZM538 422 553 543H179L164 422Z" glyph-name="Hbar" horiz-adv-x="660" unicode="&#294;" /><glyph d="M487 0 531 359H157L113 0H45L137 750H205L164 422H538L579 750H647L555 0ZM497 800 405 856 299 800H243L370 900H450L553 800Z" glyph-name="Hcircumflex" horiz-adv-x="660" unicode="&#292;" /><glyph d="M65 0 157 750H227L135 0Z" glyph-name="I" horiz-adv-x="260" unicode="I" /><glyph d="M65 0 157 750H227L135 0ZM246 88Q257 77 276 65Q295 53 324 53Q356 53 380 70Q404 87 410 132L486 750H556L480 134Q472 66 431.5 28Q391 -10 319 -10Q276 -10 249 4Q222 18 208 33Z" glyph-name="IJ" horiz-adv-x="589" unicode="&#306;" /><glyph d="M65 0 157 750H227L135 0ZM173 800 235 900H325L223 800Z" glyph-name="Iacute" horiz-adv-x="260" unicode="&#205;" /><glyph d="M65 0 157 750H227L135 0ZM154 850Q156 871 172.5 885.5Q189 900 210 900Q231 900 243.5 885.5Q256 871 254 850Q251 829 235 814.5Q219 800 198 800Q177 800 164 814.5Q151 829 154 850Z" glyph-name="Ibreve" horiz-adv-x="260" unicode="&#300;" /><glyph d="M65 0 157 750H227L135 0ZM297 800 205 856 99 800H43L170 900H250L353 800Z" glyph-name="Icircumflex" horiz-adv-x="260" unicode="&#206;" /><glyph d="M65 0 157 750H227L135 0ZM85 850Q85 868 98 881Q111 894 129 894Q147 894 160 881Q173 868 173 850Q173 832 160 819Q147 806 129 806Q111 806 98 819Q85 832 85 850ZM235 850Q235 868 248 881Q261 894 279 894Q297 894 310 881Q323 868 323 850Q323 832 310 819Q297 806 279 806Q261 806 248 819Q235 832 235 850Z" glyph-name="Idieresis" horiz-adv-x="260" unicode="&#207;" /><glyph d="M65 0 157 750H227L135 0ZM160 850Q160 868 173 881Q186 894 204 894Q222 894 235 881Q248 868 248 850Q248 832 235 819Q222 806 204 806Q186 806 173 819Q160 832 160 850Z" glyph-name="Idotaccent" horiz-adv-x="260" unicode="&#304;" /><glyph d="M65 0 157 750H227L135 0ZM173 800 95 900H185L223 800Z" glyph-name="Igrave" horiz-adv-x="260" unicode="&#204;" /><glyph d="M65 0 157 750H227L135 0ZM71 880H345L337 820H63Z" glyph-name="Imacron" horiz-adv-x="260" unicode="&#298;" /><glyph d="M31 -142Q28 -165 38.5 -182Q49 -199 81 -199Q106 -199 123.5 -190.5Q141 -182 150 -176L170 -220Q152 -233 128 -242.5Q104 -252 66 -252Q15 -252 -10.5 -226Q-36 -200 -31 -155Q-26 -110 -4.5 -71Q17 -32 65 1L157 750H227L135 0Q81 -35 58.5 -69Q36 -103 31 -142Z" glyph-name="Iogonek" horiz-adv-x="260" unicode="&#302;" /><glyph d="M65 0 157 750H227L135 0ZM280 849Q297 849 307.5 854Q318 859 324 867Q330 875 332 884Q334 893 335 900H391Q388 847 355 818.5Q322 790 268 790Q241 790 223 799.5Q205 809 190 820.5Q175 832 161 841.5Q147 851 128 851Q111 851 100.5 846Q90 841 84 833Q78 825 76 816.5Q74 808 73 800H17Q19 853 52 881.5Q85 910 139 910Q166 910 184.5 900.5Q203 891 218 879.5Q233 868 247 858.5Q261 849 280 849Z" glyph-name="Itilde" horiz-adv-x="260" unicode="&#296;" /><glyph d="M36 88Q47 77 66 65Q85 53 114 53Q146 53 170 70Q194 87 200 132L276 750H346L270 134Q262 66 221.5 28Q181 -10 109 -10Q66 -10 39 4Q12 18 -2 33Z" glyph-name="J" horiz-adv-x="379" unicode="J" /><glyph d="M416 800 324 856 218 800H162L289 900H369L472 800ZM36 88Q47 77 66 65Q85 53 114 53Q146 53 170 70Q194 87 200 132L276 750H346L270 134Q262 66 221.5 28Q181 -10 109 -10Q66 -10 39 4Q12 18 -2 33Z" glyph-name="Jcircumflex" horiz-adv-x="379" unicode="&#308;" /><glyph d="M222 363 148 288 113 0H45L137 750H205L159 376L518 750H606L272 414L544 0H455Z" glyph-name="K" horiz-adv-x="595" unicode="K" /><glyph d="M148 288 113 0H45L137 750H205L159 376L518 750H606L272 414L544 0H455L222 363ZM316 -50 224 -250H174L224 -50Z" glyph-name="Kcommaaccent" horiz-adv-x="595" unicode="&#310;" /><glyph d="M120 63H467L460 0H45L137 750H205Z" glyph-name="L" horiz-adv-x="530" unicode="L" /><glyph d="M120 63H467L460 0H45L137 750H205ZM152 800 214 900H304L202 800Z" glyph-name="Lacute" horiz-adv-x="530" unicode="&#313;" /><glyph d="M120 63H467L460 0H45L137 750H205ZM379 750 306 550H260L301 750Z" glyph-name="Lcaron" horiz-adv-x="530" unicode="&#317;" /><glyph d="M120 63H467L460 0H45L137 750H205ZM301 -50 209 -250H159L209 -50Z" glyph-name="Lcommaaccent" horiz-adv-x="530" unicode="&#315;" /><glyph d="M120 63H467L460 0H45L137 750H205ZM346 375Q346 393 359 406Q372 419 390 419Q408 419 421 406Q434 393 434 375Q434 357 421 344Q408 331 390 331Q372 331 359 344Q346 357 346 375Z" glyph-name="Ldot" horiz-adv-x="530" unicode="&#319;" /><glyph d="M188 383 412 510 405 449 180 322 148 63H495L488 0H73L107 280L2 221L9 282L114 341L165 750H233Z" glyph-name="Lslash" horiz-adv-x="560" unicode="&#321;" /><glyph d="M432 0H368L189 655L113 0H45L137 750H235L410 83L749 750H847L755 0H687L771 655Z" glyph-name="M" horiz-adv-x="860" unicode="M" /><glyph d="M432 0H368L189 655L113 0H45L137 750H235L410 83L749 750H847L755 0H687L771 655ZM460 850Q460 868 473 881Q486 894 504 894Q522 894 535 881Q548 868 548 850Q548 832 535 819Q522 806 504 806Q486 806 473 819Q460 832 460 850Z" glyph-name="Mdotaccent" horiz-adv-x="860" unicode="&#7744;" /><glyph d="M514 0 186 611 113 0H45L137 750H188L516 139L589 750H657L565 0Z" glyph-name="N" horiz-adv-x="670" unicode="N" /><glyph d="M514 0 186 611 113 0H45L137 750H188L516 139L589 750H657L565 0ZM378 800 440 900H530L428 800Z" glyph-name="Nacute" horiz-adv-x="670" unicode="&#323;" /><glyph d="M514 0 186 611 113 0H45L137 750H188L516 139L589 750H657L565 0ZM316 900 408 844 514 900H570L443 800H363L260 900Z" glyph-name="Ncaron" horiz-adv-x="670" unicode="&#327;" /><glyph d="M514 0 186 611 113 0H45L137 750H188L516 139L589 750H657L565 0ZM351 -50 259 -250H209L259 -50Z" glyph-name="Ncommaaccent" horiz-adv-x="670" unicode="&#325;" /><glyph d="M514 0 186 611 113 0H45L137 750H188L516 139L589 750H657L565 0ZM485 849Q502 849 512.5 854Q523 859 529 867Q535 875 537 884Q539 893 540 900H596Q593 847 560 818.5Q527 790 473 790Q446 790 428 799.5Q410 809 395 820.5Q380 832 366 841.5Q352 851 333 851Q316 851 305.5 846Q295 841 289 833Q283 825 281 816.5Q279 808 278 800H222Q224 853 257 881.5Q290 910 344 910Q371 910 389.5 900.5Q408 891 423 879.5Q438 868 452 858.5Q466 849 485 849Z" glyph-name="Ntilde" horiz-adv-x="670" unicode="&#209;" /><glyph d="M316 53Q384 53 428 78Q472 103 499.5 146.5Q527 190 541 249Q555 308 564 375Q572 443 572 501.5Q572 560 555.5 603.5Q539 647 501 672Q463 697 395 697Q327 697 283 672Q239 647 212 603.5Q185 560 170.5 501.5Q156 443 148 375Q139 308 139 249Q139 190 155.5 146.5Q172 103 210 78Q248 53 316 53ZM308 -10Q216 -10 165 22.5Q114 55 91 109Q68 163 67.5 232.5Q67 302 76 375Q85 449 103 518Q121 587 157 641Q193 695 252 727.5Q311 760 403 760Q495 760 546 727.5Q597 695 620 641Q643 587 644 518Q645 449 636 375Q627 302 609 232.5Q591 163 554.5 109Q518 55 459 22.5Q400 -10 308 -10Z" glyph-name="O" horiz-adv-x="680" unicode="O" /><glyph d="M809 359H519L482 63H807L800 0H346Q254 0 196.5 28.5Q139 57 109 107.5Q79 158 72.5 226.5Q66 295 76 375Q86 455 109 523.5Q132 592 174.5 642.5Q217 693 281.5 721.5Q346 750 438 750H892L884 687H559L526 422H816ZM491 687H426Q359 687 310 663.5Q261 640 228 598.5Q195 557 175.5 500Q156 443 148 375Q139 308 144 250.5Q149 193 172 151.5Q195 110 238.5 86.5Q282 63 349 63H414Z" glyph-name="OE" horiz-adv-x="890" unicode="&#338;" /><glyph d="M316 53Q384 53 428 78Q472 103 499.5 146.5Q527 190 541 249Q555 308 564 375Q572 443 572 501.5Q572 560 555.5 603.5Q539 647 501 672Q463 697 395 697Q327 697 283 672Q239 647 212 603.5Q185 560 170.5 501.5Q156 443 148 375Q139 308 139 249Q139 190 155.5 146.5Q172 103 210 78Q248 53 316 53ZM308 -10Q216 -10 165 22.5Q114 55 91 109Q68 163 67.5 232.5Q67 302 76 375Q85 449 103 518Q121 587 157 641Q193 695 252 727.5Q311 760 403 760Q495 760 546 727.5Q597 695 620 641Q643 587 644 518Q645 449 636 375Q627 302 609 232.5Q591 163 554.5 109Q518 55 459 22.5Q400 -10 308 -10ZM383 800 445 900H535L433 800Z" glyph-name="Oacute" horiz-adv-x="680" unicode="&#211;" /><glyph d="M316 53Q384 53 428 78Q472 103 499.5 146.5Q527 190 541 249Q555 308 564 375Q572 443 572 501.5Q572 560 555.5 603.5Q539 647 501 672Q463 697 395 697Q327 697 283 672Q239 647 212 603.5Q185 560 170.5 501.5Q156 443 148 375Q139 308 139 249Q139 190 155.5 146.5Q172 103 210 78Q248 53 316 53ZM308 -10Q216 -10 165 22.5Q114 55 91 109Q68 163 67.5 232.5Q67 302 76 375Q85 449 103 518Q121 587 157 641Q193 695 252 727.5Q311 760 403 760Q495 760 546 727.5Q597 695 620 641Q643 587 644 518Q645 449 636 375Q627 302 609 232.5Q591 163 554.5 109Q518 55 459 22.5Q400 -10 308 -10ZM406 790Q266 790 275 900H326Q324 869 347 857Q370 845 413 845Q456 845 482.5 857Q509 869 514 900H565Q547 790 406 790Z" glyph-name="Obreve" horiz-adv-x="680" unicode="&#334;" /><glyph d="M316 53Q384 53 428 78Q472 103 499.5 146.5Q527 190 541 249Q555 308 564 375Q572 443 572 501.5Q572 560 555.5 603.5Q539 647 501 672Q463 697 395 697Q327 697 283 672Q239 647 212 603.5Q185 560 170.5 501.5Q156 443 148 375Q139 308 139 249Q139 190 155.5 146.5Q172 103 210 78Q248 53 316 53ZM308 -10Q216 -10 165 22.5Q114 55 91 109Q68 163 67.5 232.5Q67 302 76 375Q85 449 103 518Q121 587 157 641Q193 695 252 727.5Q311 760 403 760Q495 760 546 727.5Q597 695 620 641Q643 587 644 518Q645 449 636 375Q627 302 609 232.5Q591 163 554.5 109Q518 55 459 22.5Q400 -10 308 -10ZM507 800 415 856 309 800H253L380 900H460L563 800Z" glyph-name="Ocircumflex" horiz-adv-x="680" unicode="&#212;" /><glyph d="M316 53Q384 53 428 78Q472 103 499.5 146.5Q527 190 541 249Q555 308 564 375Q572 443 572 501.5Q572 560 555.5 603.5Q539 647 501 672Q463 697 395 697Q327 697 283 672Q239 647 212 603.5Q185 560 170.5 501.5Q156 443 148 375Q139 308 139 249Q139 190 155.5 146.5Q172 103 210 78Q248 53 316 53ZM308 -10Q216 -10 165 22.5Q114 55 91 109Q68 163 67.5 232.5Q67 302 76 375Q85 449 103 518Q121 587 157 641Q193 695 252 727.5Q311 760 403 760Q495 760 546 727.5Q597 695 620 641Q643 587 644 518Q645 449 636 375Q627 302 609 232.5Q591 163 554.5 109Q518 55 459 22.5Q400 -10 308 -10ZM275 850Q275 868 288 881Q301 894 319 894Q337 894 350 881Q363 868 363 850Q363 832 350 819Q337 806 319 806Q301 806 288 819Q275 832 275 850ZM465 850Q465 868 478 881Q491 894 509 894Q527 894 540 881Q553 868 553 850Q553 832 540 819Q527 806 509 806Q491 806 478 819Q465 832 465 850Z" glyph-name="Odieresis" horiz-adv-x="680" unicode="&#214;" /><glyph d="M316 53Q384 53 428 78Q472 103 499.5 146.5Q527 190 541 249Q555 308 564 375Q572 443 572 501.5Q572 560 555.5 603.5Q539 647 501 672Q463 697 395 697Q327 697 283 672Q239 647 212 603.5Q185 560 170.5 501.5Q156 443 148 375Q139 308 139 249Q139 190 155.5 146.5Q172 103 210 78Q248 53 316 53ZM308 -10Q216 -10 165 22.5Q114 55 91 109Q68 163 67.5 232.5Q67 302 76 375Q85 449 103 518Q121 587 157 641Q193 695 252 727.5Q311 760 403 760Q495 760 546 727.5Q597 695 620 641Q643 587 644 518Q645 449 636 375Q627 302 609 232.5Q591 163 554.5 109Q518 55 459 22.5Q400 -10 308 -10ZM383 800 305 900H395L433 800Z" glyph-name="Ograve" horiz-adv-x="680" unicode="&#210;" /><glyph d="M316 53Q384 53 428 78Q472 103 499.5 146.5Q527 190 541 249Q555 308 564 375Q572 443 572 501.5Q572 560 555.5 603.5Q539 647 501 672Q463 697 395 697Q327 697 283 672Q239 647 212 603.5Q185 560 170.5 501.5Q156 443 148 375Q139 308 139 249Q139 190 155.5 146.5Q172 103 210 78Q248 53 316 53ZM308 -10Q216 -10 165 22.5Q114 55 91 109Q68 163 67.5 232.5Q67 302 76 375Q85 449 103 518Q121 587 157 641Q193 695 252 727.5Q311 760 403 760Q495 760 546 727.5Q597 695 620 641Q643 587 644 518Q645 449 636 375Q627 302 609 232.5Q591 163 554.5 109Q518 55 459 22.5Q400 -10 308 -10ZM323 800 385 900H475L373 800ZM443 800 505 900H595L493 800Z" glyph-name="Ohungarumlaut" horiz-adv-x="680" unicode="&#336;" /><glyph d="M316 53Q384 53 428 78Q472 103 499.5 146.5Q527 190 541 249Q555 308 564 375Q572 443 572 501.5Q572 560 555.5 603.5Q539 647 501 672Q463 697 395 697Q327 697 283 672Q239 647 212 603.5Q185 560 170.5 501.5Q156 443 148 375Q139 308 139 249Q139 190 155.5 146.5Q172 103 210 78Q248 53 316 53ZM308 -10Q216 -10 165 22.5Q114 55 91 109Q68 163 67.5 232.5Q67 302 76 375Q85 449 103 518Q121 587 157 641Q193 695 252 727.5Q311 760 403 760Q495 760 546 727.5Q597 695 620 641Q643 587 644 518Q645 449 636 375Q627 302 609 232.5Q591 163 554.5 109Q518 55 459 22.5Q400 -10 308 -10ZM281 880H555L547 820H273Z" glyph-name="Omacron" horiz-adv-x="680" unicode="&#332;" /><glyph d="M308 -10Q250 -10 209.5 3Q169 16 141 39L113 0H50L107 78Q89 106 80 140Q71 174 68.5 212Q66 250 68.5 291.5Q71 333 76 375Q85 449 103 518Q121 587 157 641Q193 695 252 727.5Q311 760 403 760Q460 760 500.5 746.5Q541 733 570 710L599 750H662L604 671Q622 644 631 610Q640 576 642.5 537.5Q645 499 643 458Q641 417 636 375Q627 302 609 232.5Q591 163 554.5 109Q518 55 459 22.5Q400 -10 308 -10ZM316 53Q384 53 428 78Q472 103 499.5 146.5Q527 190 541 249Q555 308 564 375Q572 443 572 501.5Q572 560 555 604L185 98Q205 76 237 64.5Q269 53 316 53ZM148 375Q139 306 138.5 247.5Q138 189 155 145L526 651Q506 673 474 685Q442 697 395 697Q327 697 283 672Q239 647 212 603.5Q185 560 170.5 501.5Q156 443 148 375Z" glyph-name="Oslash" horiz-adv-x="660" unicode="&#216;" /><glyph d="M316 53Q384 53 428 78Q472 103 499.5 146.5Q527 190 541 249Q555 308 564 375Q572 443 572 501.5Q572 560 555.5 603.5Q539 647 501 672Q463 697 395 697Q327 697 283 672Q239 647 212 603.5Q185 560 170.5 501.5Q156 443 148 375Q139 308 139 249Q139 190 155.5 146.5Q172 103 210 78Q248 53 316 53ZM308 -10Q216 -10 165 22.5Q114 55 91 109Q68 163 67.5 232.5Q67 302 76 375Q85 449 103 518Q121 587 157 641Q193 695 252 727.5Q311 760 403 760Q495 760 546 727.5Q597 695 620 641Q643 587 644 518Q645 449 636 375Q627 302 609 232.5Q591 163 554.5 109Q518 55 459 22.5Q400 -10 308 -10ZM490 849Q507 849 517.5 854Q528 859 534 867Q540 875 542 884Q544 893 545 900H601Q598 847 565 818.5Q532 790 478 790Q451 790 433 799.5Q415 809 400 820.5Q385 832 371 841.5Q357 851 338 851Q321 851 310.5 846Q300 841 294 833Q288 825 286 816.5Q284 808 283 800H227Q229 853 262 881.5Q295 910 349 910Q376 910 394.5 900.5Q413 891 428 879.5Q443 868 457 858.5Q471 849 490 849Z" glyph-name="Otilde" horiz-adv-x="680" unicode="&#213;" /><glyph d="M113 0H45L137 750H366Q436 750 481.5 731.5Q527 713 552.5 681.5Q578 650 586 609.5Q594 569 589 525Q584 481 566 440.5Q548 400 514.5 368.5Q481 337 430.5 318.5Q380 300 310 300H149ZM157 363H327Q380 363 414.5 378Q449 393 470.5 417Q492 441 502 469.5Q512 498 515 525Q518 552 515.5 580.5Q513 609 497.5 633Q482 657 451 672Q420 687 367 687H197Z" glyph-name="P" horiz-adv-x="590" unicode="P" /><glyph d="M113 0H45L137 750H366Q436 750 481.5 731.5Q527 713 552.5 681.5Q578 650 586 609.5Q594 569 589 525Q584 481 566 440.5Q548 400 514.5 368.5Q481 337 430.5 318.5Q380 300 310 300H149ZM157 363H327Q380 363 414.5 378Q449 393 470.5 417Q492 441 502 469.5Q512 498 515 525Q518 552 515.5 580.5Q513 609 497.5 633Q482 657 451 672Q420 687 367 687H197ZM320 850Q320 868 333 881Q346 894 364 894Q382 894 395 881Q408 868 408 850Q408 832 395 819Q382 806 364 806Q346 806 333 819Q320 832 320 850Z" glyph-name="Pdotaccent" horiz-adv-x="630" unicode="&#7766;" /><glyph d="M308 -10Q216 -10 165 22.5Q114 55 91 109Q68 163 67.5 232.5Q67 302 76 375Q85 449 103 518Q121 587 157 641Q193 695 252 727.5Q311 760 403 760Q495 760 546 727.5Q597 695 620 641Q643 587 644 518Q645 449 636 375Q629 318 616.5 263.5Q604 209 583 162Q562 115 529 77.5Q496 40 448 17L505 -105H429L382 -3Q350 -10 308 -10ZM355 220 422 75Q457 92 481 122Q505 152 521.5 191Q538 230 547.5 276.5Q557 323 564 375Q572 443 572 501.5Q572 560 555.5 603.5Q539 647 501 672Q463 697 395 697Q327 697 283 672Q239 647 212 603.5Q185 560 170.5 501.5Q156 443 148 375Q139 308 139 249Q139 190 155.5 146.5Q172 103 210 78Q248 53 316 53Q327 53 336.5 53.5Q346 54 355 55L279 220Z" glyph-name="Q" horiz-adv-x="680" unicode="Q" /><glyph d="M113 0H45L137 750H372Q442 750 487.5 735Q533 720 558 692.5Q583 665 590 626Q597 587 591 539Q581 460 540.5 406.5Q500 353 410 336L566 0H487L337 328H320H153ZM346 391Q396 391 427.5 403Q459 415 477.5 435Q496 455 504.5 482Q513 509 517 539Q521 569 519 596Q517 623 503 643Q489 663 460.5 675Q432 687 382 687H197L161 391Z" glyph-name="R" horiz-adv-x="621" unicode="R" /><glyph d="M113 0H45L137 750H372Q442 750 487.5 735Q533 720 558 692.5Q583 665 590 626Q597 587 591 539Q581 460 540.5 406.5Q500 353 410 336L566 0H487L337 328H320H153ZM346 391Q396 391 427.5 403Q459 415 477.5 435Q496 455 504.5 482Q513 509 517 539Q521 569 519 596Q517 623 503 643Q489 663 460.5 675Q432 687 382 687H197L161 391ZM333 800 395 900H485L383 800Z" glyph-name="Racute" horiz-adv-x="621" unicode="&#340;" /><glyph d="M113 0H45L137 750H372Q442 750 487.5 735Q533 720 558 692.5Q583 665 590 626Q597 587 591 539Q581 460 540.5 406.5Q500 353 410 336L566 0H487L337 328H320H153ZM346 391Q396 391 427.5 403Q459 415 477.5 435Q496 455 504.5 482Q513 509 517 539Q521 569 519 596Q517 623 503 643Q489 663 460.5 675Q432 687 382 687H197L161 391ZM271 900 363 844 469 900H525L398 800H318L215 900Z" glyph-name="Rcaron" horiz-adv-x="621" unicode="&#344;" /><glyph d="M113 0H45L137 750H372Q442 750 487.5 735Q533 720 558 692.5Q583 665 590 626Q597 587 591 539Q581 460 540.5 406.5Q500 353 410 336L566 0H487L337 328H320H153ZM346 391Q396 391 427.5 403Q459 415 477.5 435Q496 455 504.5 482Q513 509 517 539Q521 569 519 596Q517 623 503 643Q489 663 460.5 675Q432 687 382 687H197L161 391ZM326 -50 234 -250H184L234 -50Z" glyph-name="Rcommaaccent" horiz-adv-x="621" unicode="&#342;" /><glyph d="M360 697Q305 697 268 685Q231 673 208.5 653Q186 633 175 606.5Q164 580 160 550Q155 511 164 487.5Q173 464 194.5 450.5Q216 437 249.5 430.5Q283 424 326 418Q378 411 420 398.5Q462 386 490 363.5Q518 341 531 305.5Q544 270 537 216Q532 178 516 138Q500 98 466 65Q432 32 376.5 11Q321 -10 237 -10Q211 -10 181 -6Q151 -2 121 6Q91 14 64.5 26.5Q38 39 19 56L58 111Q81 93 127.5 73Q174 53 246 53Q305 53 344.5 66Q384 79 409.5 101Q435 123 447.5 152.5Q460 182 464 216Q469 255 463 280Q457 305 438.5 321Q420 337 388.5 345.5Q357 354 311 360Q248 368 203.5 381.5Q159 395 132 417Q105 439 95 471.5Q85 504 91 551Q95 584 109.5 620.5Q124 657 155.5 688Q187 719 238.5 739.5Q290 760 369 760Q410 760 442 753.5Q474 747 498.5 738Q523 729 539.5 718.5Q556 708 565 700L527 645Q518 653 503 662Q488 671 467.5 678.5Q447 686 420.5 691.5Q394 697 360 697Z" glyph-name="S" horiz-adv-x="595" unicode="S" /><glyph d="M349 800 411 900H501L399 800ZM360 697Q305 697 268 685Q231 673 208.5 653Q186 633 175 606.5Q164 580 160 550Q155 511 164 487.5Q173 464 194.5 450.5Q216 437 249.5 430.5Q283 424 326 418Q378 411 420 398.5Q462 386 490 363.5Q518 341 531 305.5Q544 270 537 216Q532 178 516 138Q500 98 466 65Q432 32 376.5 11Q321 -10 237 -10Q211 -10 181 -6Q151 -2 121 6Q91 14 64.5 26.5Q38 39 19 56L58 111Q81 93 127.5 73Q174 53 246 53Q305 53 344.5 66Q384 79 409.5 101Q435 123 447.5 152.5Q460 182 464 216Q469 255 463 280Q457 305 438.5 321Q420 337 388.5 345.5Q357 354 311 360Q248 368 203.5 381.5Q159 395 132 417Q105 439 95 471.5Q85 504 91 551Q95 584 109.5 620.5Q124 657 155.5 688Q187 719 238.5 739.5Q290 760 369 760Q410 760 442 753.5Q474 747 498.5 738Q523 729 539.5 718.5Q556 708 565 700L527 645Q518 653 503 662Q488 671 467.5 678.5Q447 686 420.5 691.5Q394 697 360 697Z" glyph-name="Sacute" horiz-adv-x="595" unicode="&#346;" /><glyph d="M287 900 379 844 485 900H541L414 800H334L231 900ZM360 697Q305 697 268 685Q231 673 208.5 653Q186 633 175 606.5Q164 580 160 550Q155 511 164 487.5Q173 464 194.5 450.5Q216 437 249.5 430.5Q283 424 326 418Q378 411 420 398.5Q462 386 490 363.5Q518 341 531 305.5Q544 270 537 216Q532 178 516 138Q500 98 466 65Q432 32 376.5 11Q321 -10 237 -10Q211 -10 181 -6Q151 -2 121 6Q91 14 64.5 26.5Q38 39 19 56L58 111Q81 93 127.5 73Q174 53 246 53Q305 53 344.5 66Q384 79 409.5 101Q435 123 447.5 152.5Q460 182 464 216Q469 255 463 280Q457 305 438.5 321Q420 337 388.5 345.5Q357 354 311 360Q248 368 203.5 381.5Q159 395 132 417Q105 439 95 471.5Q85 504 91 551Q95 584 109.5 620.5Q124 657 155.5 688Q187 719 238.5 739.5Q290 760 369 760Q410 760 442 753.5Q474 747 498.5 738Q523 729 539.5 718.5Q556 708 565 700L527 645Q518 653 503 662Q488 671 467.5 678.5Q447 686 420.5 691.5Q394 697 360 697Z" glyph-name="Scaron" horiz-adv-x="595" unicode="&#352;" /><glyph d="M360 697Q305 697 268 685Q231 673 208.5 653Q186 633 175 606.5Q164 580 160 550Q155 511 164 487.5Q173 464 194.5 450.5Q216 437 249.5 430.5Q283 424 326 418Q378 411 420 398.5Q462 386 490 363.5Q518 341 531 305.5Q544 270 537 216Q532 180 517.5 141.5Q503 103 472 71Q441 39 392 17Q343 -5 269 -9L267 -64Q281 -68 297 -75Q313 -82 325.5 -93Q338 -104 345.5 -121Q353 -138 350 -161Q345 -202 313 -227Q281 -252 228 -252Q187 -252 167 -242.5Q147 -233 132 -220L164 -176Q172 -182 187.5 -190.5Q203 -199 230 -199Q253 -199 269.5 -190.5Q286 -182 288 -163Q290 -147 284 -136Q278 -125 267 -117.5Q256 -110 240 -106Q224 -102 207 -100L227 -10Q202 -9 172.5 -5Q143 -1 115 7Q87 15 62 27.5Q37 40 19 56L58 111Q81 93 127.5 73Q174 53 246 53Q305 53 344.5 66Q384 79 409.5 101Q435 123 447.5 152.5Q460 182 464 216Q469 255 463 280Q457 305 438.5 321Q420 337 388.5 345.5Q357 354 311 360Q248 368 203.5 381.5Q159 395 132 417Q105 439 95 471.5Q85 504 91 551Q95 584 109.5 620.5Q124 657 155.5 688Q187 719 238.5 739.5Q290 760 369 760Q410 760 442 753.5Q474 747 498.5 738Q523 729 539.5 718.5Q556 708 565 700L527 645Q518 653 503 662Q488 671 467.5 678.5Q447 686 420.5 691.5Q394 697 360 697Z" glyph-name="Scedilla" horiz-adv-x="595" unicode="&#350;" /><glyph d="M81 422H572Q576 481 568 531.5Q560 582 537 619Q514 656 473 676.5Q432 697 369 697Q307 697 252.5 676.5Q198 656 160 625L137 678Q182 716 247 738Q312 760 379 760Q469 760 525 730Q581 700 610 647.5Q639 595 645 525Q651 455 641 375Q631 295 607.5 225Q584 155 543.5 102.5Q503 50 442.5 20Q382 -10 298 -10Q210 -10 160.5 22.5Q111 55 89.5 109Q68 163 67.5 232.5Q67 302 76 375ZM306 53Q366 53 410.5 76.5Q455 100 486.5 141Q518 182 537.5 238Q557 294 567 359H148Q140 295 140.5 239Q141 183 157 141.5Q173 100 208.5 76.5Q244 53 306 53Z" glyph-name="Schwa" horiz-adv-x="685" unicode="&#399;" /><glyph d="M473 800 381 856 275 800H219L346 900H426L529 800ZM360 697Q305 697 268 685Q231 673 208.5 653Q186 633 175 606.5Q164 580 160 550Q155 511 164 487.5Q173 464 194.5 450.5Q216 437 249.5 430.5Q283 424 326 418Q378 411 420 398.5Q462 386 490 363.5Q518 341 531 305.5Q544 270 537 216Q532 178 516 138Q500 98 466 65Q432 32 376.5 11Q321 -10 237 -10Q211 -10 181 -6Q151 -2 121 6Q91 14 64.5 26.5Q38 39 19 56L58 111Q81 93 127.5 73Q174 53 246 53Q305 53 344.5 66Q384 79 409.5 101Q435 123 447.5 152.5Q460 182 464 216Q469 255 463 280Q457 305 438.5 321Q420 337 388.5 345.5Q357 354 311 360Q248 368 203.5 381.5Q159 395 132 417Q105 439 95 471.5Q85 504 91 551Q95 584 109.5 620.5Q124 657 155.5 688Q187 719 238.5 739.5Q290 760 369 760Q410 760 442 753.5Q474 747 498.5 738Q523 729 539.5 718.5Q556 708 565 700L527 645Q518 653 503 662Q488 671 467.5 678.5Q447 686 420.5 691.5Q394 697 360 697Z" glyph-name="Scircumflex" horiz-adv-x="595" unicode="&#348;" /><glyph d="M286 -50 194 -250H144L194 -50ZM360 697Q305 697 268 685Q231 673 208.5 653Q186 633 175 606.5Q164 580 160 550Q155 511 164 487.5Q173 464 194.5 450.5Q216 437 249.5 430.5Q283 424 326 418Q378 411 420 398.5Q462 386 490 363.5Q518 341 531 305.5Q544 270 537 216Q532 178 516 138Q500 98 466 65Q432 32 376.5 11Q321 -10 237 -10Q211 -10 181 -6Q151 -2 121 6Q91 14 64.5 26.5Q38 39 19 56L58 111Q81 93 127.5 73Q174 53 246 53Q305 53 344.5 66Q384 79 409.5 101Q435 123 447.5 152.5Q460 182 464 216Q469 255 463 280Q457 305 438.5 321Q420 337 388.5 345.5Q357 354 311 360Q248 368 203.5 381.5Q159 395 132 417Q105 439 95 471.5Q85 504 91 551Q95 584 109.5 620.5Q124 657 155.5 688Q187 719 238.5 739.5Q290 760 369 760Q410 760 442 753.5Q474 747 498.5 738Q523 729 539.5 718.5Q556 708 565 700L527 645Q518 653 503 662Q488 671 467.5 678.5Q447 686 420.5 691.5Q394 697 360 697Z" glyph-name="Scommaaccent" horiz-adv-x="595" unicode="&#536;" /><glyph d="M368 687 284 0H216L300 687H93L101 750H583L575 687Z" glyph-name="T" horiz-adv-x="560" unicode="T" /><glyph d="M284 0H216L260 360H135L142 421H267L300 687H93L101 750H583L575 687H368L335 421H460L453 360H328Z" glyph-name="Tbar" horiz-adv-x="560" unicode="&#358;" /><glyph d="M368 687 284 0H216L300 687H93L101 750H583L575 687ZM261 900 353 844 459 900H515L388 800H308L205 900Z" glyph-name="Tcaron" horiz-adv-x="560" unicode="&#356;" /><glyph d="M368 687 284 0H216L300 687H93L101 750H583L575 687ZM291 -50 199 -250H149L199 -50Z" glyph-name="Tcommaaccent" horiz-adv-x="560" unicode="&#354;" /><glyph d="M368 687 284 0H216L300 687H93L101 750H583L575 687ZM310 850Q310 868 323 881Q336 894 354 894Q372 894 385 881Q398 868 398 850Q398 832 385 819Q372 806 354 806Q336 806 323 819Q310 832 310 850Z" glyph-name="Tdotaccent" horiz-adv-x="560" unicode="&#7786;" /><glyph d="M113 0H45L137 750H205L186 600H347Q417 600 463 581.5Q509 563 534.5 531.5Q560 500 568 459.5Q576 419 571 375Q565 331 547 290.5Q529 250 496 218.5Q463 187 412.5 168.5Q362 150 292 150H131ZM139 213H309Q362 213 396.5 228Q431 243 452.5 267Q474 291 484 319.5Q494 348 497 375Q500 402 497 430.5Q494 459 478.5 483Q463 507 432 522Q401 537 348 537H178Z" glyph-name="Thorn" horiz-adv-x="570" unicode="&#222;" /><glyph d="M555 342Q548 282 523.5 221Q499 160 453.5 111Q408 62 339 31Q270 0 174 0H143L182 324L58 259L66 321L190 386L198 454L74 389L82 451L206 516L235 750H306L282 556L463 652L455 590L274 494L266 426L447 522L439 460L258 364L221 65Q288 72 336 99.5Q384 127 416 166Q448 205 465.5 251.5Q483 298 488 342Z" glyph-name="Turkishlira" horiz-adv-x="600" /><glyph d="M110 0 131 174 13 112 21 174 138 236 144 284 27 222 34 284 152 346 171 500H242L228 386L390 472L383 410L220 324L214 276L377 362L369 300L207 214L188 63Q235 66 268 79.5Q301 93 322 114Q343 135 354.5 161.5Q366 188 369 217H436Q430 170 411 130.5Q392 91 357.5 62Q323 33 272 16.5Q221 0 152 0Z" glyph-name="Turkishlira.OP" horiz-adv-x="470" /><glyph d="M311 53Q336 53 370.5 58Q405 63 438 82Q471 101 497.5 140Q524 179 532 246L594 750H662L598 235Q588 155 553.5 107Q519 59 474.5 33Q430 7 383.5 -1.5Q337 -10 303 -10Q269 -10 224.5 -1.5Q180 7 142 33Q104 59 81 107Q58 155 68 235L132 750H200L138 246Q130 179 146.5 140Q163 101 191 82Q219 63 252.5 58Q286 53 311 53Z" glyph-name="U" horiz-adv-x="670" unicode="U" /><glyph d="M311 53Q336 53 370.5 58Q405 63 438 82Q471 101 497.5 140Q524 179 532 246L594 750H662L598 235Q588 155 553.5 107Q519 59 474.5 33Q430 7 383.5 -1.5Q337 -10 303 -10Q269 -10 224.5 -1.5Q180 7 142 33Q104 59 81 107Q58 155 68 235L132 750H200L138 246Q130 179 146.5 140Q163 101 191 82Q219 63 252.5 58Q286 53 311 53ZM378 800 440 900H530L428 800Z" glyph-name="Uacute" horiz-adv-x="670" unicode="&#218;" /><glyph d="M311 53Q336 53 370.5 58Q405 63 438 82Q471 101 497.5 140Q524 179 532 246L594 750H662L598 235Q588 155 553.5 107Q519 59 474.5 33Q430 7 383.5 -1.5Q337 -10 303 -10Q269 -10 224.5 -1.5Q180 7 142 33Q104 59 81 107Q58 155 68 235L132 750H200L138 246Q130 179 146.5 140Q163 101 191 82Q219 63 252.5 58Q286 53 311 53ZM401 790Q261 790 270 900H321Q319 869 342 857Q365 845 408 845Q451 845 477.5 857Q504 869 509 900H560Q542 790 401 790Z" glyph-name="Ubreve" horiz-adv-x="670" unicode="&#364;" /><glyph d="M311 53Q336 53 370.5 58Q405 63 438 82Q471 101 497.5 140Q524 179 532 246L594 750H662L598 235Q588 155 553.5 107Q519 59 474.5 33Q430 7 383.5 -1.5Q337 -10 303 -10Q269 -10 224.5 -1.5Q180 7 142 33Q104 59 81 107Q58 155 68 235L132 750H200L138 246Q130 179 146.5 140Q163 101 191 82Q219 63 252.5 58Q286 53 311 53ZM502 800 410 856 304 800H248L375 900H455L558 800Z" glyph-name="Ucircumflex" horiz-adv-x="670" unicode="&#219;" /><glyph d="M311 53Q336 53 370.5 58Q405 63 438 82Q471 101 497.5 140Q524 179 532 246L594 750H662L598 235Q588 155 553.5 107Q519 59 474.5 33Q430 7 383.5 -1.5Q337 -10 303 -10Q269 -10 224.5 -1.5Q180 7 142 33Q104 59 81 107Q58 155 68 235L132 750H200L138 246Q130 179 146.5 140Q163 101 191 82Q219 63 252.5 58Q286 53 311 53ZM270 850Q270 868 283 881Q296 894 314 894Q332 894 345 881Q358 868 358 850Q358 832 345 819Q332 806 314 806Q296 806 283 819Q270 832 270 850ZM460 850Q460 868 473 881Q486 894 504 894Q522 894 535 881Q548 868 548 850Q548 832 535 819Q522 806 504 806Q486 806 473 819Q460 832 460 850Z" glyph-name="Udieresis" horiz-adv-x="670" unicode="&#220;" /><glyph d="M311 53Q336 53 370.5 58Q405 63 438 82Q471 101 497.5 140Q524 179 532 246L594 750H662L598 235Q588 155 553.5 107Q519 59 474.5 33Q430 7 383.5 -1.5Q337 -10 303 -10Q269 -10 224.5 -1.5Q180 7 142 33Q104 59 81 107Q58 155 68 235L132 750H200L138 246Q130 179 146.5 140Q163 101 191 82Q219 63 252.5 58Q286 53 311 53ZM378 800 300 900H390L428 800Z" glyph-name="Ugrave" horiz-adv-x="670" unicode="&#217;" /><glyph d="M311 53Q336 53 370.5 58Q405 63 438 82Q471 101 497.5 140Q524 179 532 246L594 750H662L598 235Q588 155 553.5 107Q519 59 474.5 33Q430 7 383.5 -1.5Q337 -10 303 -10Q269 -10 224.5 -1.5Q180 7 142 33Q104 59 81 107Q58 155 68 235L132 750H200L138 246Q130 179 146.5 140Q163 101 191 82Q219 63 252.5 58Q286 53 311 53ZM318 800 380 900H470L368 800ZM438 800 500 900H590L488 800Z" glyph-name="Uhungarumlaut" horiz-adv-x="670" unicode="&#368;" /><glyph d="M311 53Q336 53 370.5 58Q405 63 438 82Q471 101 497.5 140Q524 179 532 246L594 750H662L598 235Q588 155 553.5 107Q519 59 474.5 33Q430 7 383.5 -1.5Q337 -10 303 -10Q269 -10 224.5 -1.5Q180 7 142 33Q104 59 81 107Q58 155 68 235L132 750H200L138 246Q130 179 146.5 140Q163 101 191 82Q219 63 252.5 58Q286 53 311 53ZM276 880H550L542 820H268Z" glyph-name="Umacron" horiz-adv-x="670" unicode="&#362;" /><glyph d="M267 -142Q264 -165 274.5 -182Q285 -199 317 -199Q342 -199 359.5 -190.5Q377 -182 386 -176L406 -220Q388 -233 364 -242.5Q340 -252 302 -252Q251 -252 225 -226Q199 -200 204 -155Q209 -115 232.5 -77.5Q256 -40 297 -10Q263 -9 219.5 0Q176 9 139 35Q102 61 80.5 109Q59 157 68 235L132 750H200L138 246Q130 179 146.5 140Q163 101 191 82Q219 63 252.5 58Q286 53 311 53Q336 53 370.5 58Q405 63 438 82Q471 101 497.5 140Q524 179 532 246L594 750H662L598 235Q591 177 570 135.5Q549 94 520 66.5Q491 39 457.5 23.5Q424 8 391 0Q338 -27 305 -65Q272 -103 267 -142Z" glyph-name="Uogonek" horiz-adv-x="670" unicode="&#370;" /><glyph d="M311 53Q336 53 370.5 58Q405 63 438 82Q471 101 497.5 140Q524 179 532 246L594 750H662L598 235Q588 155 553.5 107Q519 59 474.5 33Q430 7 383.5 -1.5Q337 -10 303 -10Q269 -10 224.5 -1.5Q180 7 142 33Q104 59 81 107Q58 155 68 235L132 750H200L138 246Q130 179 146.5 140Q163 101 191 82Q219 63 252.5 58Q286 53 311 53ZM418 921Q437 921 453.5 917.5Q470 914 482 906Q494 898 500 884.5Q506 871 503 850Q498 809 468 794Q438 779 400 779Q381 779 364.5 782.5Q348 786 336 794Q324 802 318 815.5Q312 829 315 850Q320 891 350.5 906Q381 921 418 921ZM406 828Q450 828 453 850Q456 872 412 872Q368 872 365 850Q362 828 406 828Z" glyph-name="Uring" horiz-adv-x="670" unicode="&#366;" /><glyph d="M311 53Q336 53 370.5 58Q405 63 438 82Q471 101 497.5 140Q524 179 532 246L594 750H662L598 235Q588 155 553.5 107Q519 59 474.5 33Q430 7 383.5 -1.5Q337 -10 303 -10Q269 -10 224.5 -1.5Q180 7 142 33Q104 59 81 107Q58 155 68 235L132 750H200L138 246Q130 179 146.5 140Q163 101 191 82Q219 63 252.5 58Q286 53 311 53ZM485 849Q502 849 512.5 854Q523 859 529 867Q535 875 537 884Q539 893 540 900H596Q593 847 560 818.5Q527 790 473 790Q446 790 428 799.5Q410 809 395 820.5Q380 832 366 841.5Q352 851 333 851Q316 851 305.5 846Q295 841 289 833Q283 825 281 816.5Q279 808 278 800H222Q224 853 257 881.5Q290 910 344 910Q371 910 389.5 900.5Q408 891 423 879.5Q438 868 452 858.5Q466 849 485 849Z" glyph-name="Utilde" horiz-adv-x="670" unicode="&#360;" /><glyph d="M672 750 313 -10H263L92 750H169L302 104L595 750Z" glyph-name="V" horiz-adv-x="640" unicode="V" /><glyph d="M540 750 628 96 840 750H912L654 -10H581L491 660L235 -10H162L92 750H164L214 96L464 750Z" glyph-name="W" horiz-adv-x="880" unicode="W" /><glyph d="M540 750 628 96 840 750H912L654 -10H581L491 660L235 -10H162L92 750H164L214 96L464 750ZM483 800 545 900H635L533 800Z" glyph-name="Wacute" horiz-adv-x="880" unicode="&#7810;" /><glyph d="M540 750 628 96 840 750H912L654 -10H581L491 660L235 -10H162L92 750H164L214 96L464 750ZM607 800 515 856 409 800H353L480 900H560L663 800Z" glyph-name="Wcircumflex" horiz-adv-x="880" unicode="&#372;" /><glyph d="M540 750 628 96 840 750H912L654 -10H581L491 660L235 -10H162L92 750H164L214 96L464 750ZM375 850Q375 868 388 881Q401 894 419 894Q437 894 450 881Q463 868 463 850Q463 832 450 819Q437 806 419 806Q401 806 388 819Q375 832 375 850ZM565 850Q565 868 578 881Q591 894 609 894Q627 894 640 881Q653 868 653 850Q653 832 640 819Q627 806 609 806Q591 806 578 819Q565 832 565 850Z" glyph-name="Wdieresis" horiz-adv-x="880" unicode="&#7812;" /><glyph d="M540 750 628 96 840 750H912L654 -10H581L491 660L235 -10H162L92 750H164L214 96L464 750ZM483 800 405 900H495L533 800Z" glyph-name="Wgrave" horiz-adv-x="880" unicode="&#7808;" /><glyph d="M562 750H647L361 380L560 0H472L311 334L68 0H-20L271 380L77 750H162L322 424Z" glyph-name="X" horiz-adv-x="630" unicode="X" /><glyph d="M377 310 339 0H271L309 310L92 750H167L349 365L627 750H702Z" glyph-name="Y" horiz-adv-x="670" unicode="Y" /><glyph d="M377 310 339 0H271L309 310L92 750H167L349 365L627 750H702ZM378 800 440 900H530L428 800Z" glyph-name="Yacute" horiz-adv-x="670" unicode="&#221;" /><glyph d="M377 310 339 0H271L309 310L92 750H167L349 365L627 750H702ZM502 800 410 856 304 800H248L375 900H455L558 800Z" glyph-name="Ycircumflex" horiz-adv-x="670" unicode="&#374;" /><glyph d="M377 310 339 0H271L309 310L92 750H167L349 365L627 750H702ZM270 850Q270 868 283 881Q296 894 314 894Q332 894 345 881Q358 868 358 850Q358 832 345 819Q332 806 314 806Q296 806 283 819Q270 832 270 850ZM460 850Q460 868 473 881Q486 894 504 894Q522 894 535 881Q548 868 548 850Q548 832 535 819Q522 806 504 806Q486 806 473 819Q460 832 460 850Z" glyph-name="Ydieresis" horiz-adv-x="670" unicode="&#376;" /><glyph d="M377 310 339 0H271L309 310L92 750H167L349 365L627 750H702ZM383 800 305 900H395L433 800Z" glyph-name="Ygrave" horiz-adv-x="670" unicode="&#7922;" /><glyph d="M276 880H550L542 820H268ZM377 310 339 0H271L309 310L92 750H167L349 365L627 750H702Z" glyph-name="Ymacron" horiz-adv-x="670" unicode="&#562;" /><glyph d="M10 0 15 46 521 689 114 687 122 750H617L611 704L105 61L547 63L540 0Z" glyph-name="Z" horiz-adv-x="610" unicode="Z" /><glyph d="M10 0 15 46 521 689 114 687 122 750H617L611 704L105 61L547 63L540 0ZM348 800 410 900H500L398 800Z" glyph-name="Zacute" horiz-adv-x="610" unicode="&#377;" /><glyph d="M10 0 15 46 521 689 114 687 122 750H617L611 704L105 61L547 63L540 0ZM286 900 378 844 484 900H540L413 800H333L230 900Z" glyph-name="Zcaron" horiz-adv-x="610" unicode="&#381;" /><glyph d="M10 0 15 46 521 689 114 687 122 750H617L611 704L105 61L547 63L540 0ZM335 850Q335 868 348 881Q361 894 379 894Q397 894 410 881Q423 868 423 850Q423 832 410 819Q397 806 379 806Q361 806 348 819Q335 832 335 850Z" glyph-name="Zdotaccent" horiz-adv-x="610" unicode="&#379;" /><glyph d="M440 0H401L391 41Q348 16 308.5 3Q269 -10 228 -10Q168 -10 131 10.5Q94 31 75 66Q56 101 52.5 148.5Q49 196 55 250Q62 304 77 351.5Q92 399 120 434Q148 469 190 489.5Q232 510 292 510Q332 510 371 497Q410 484 442 458L462 500H501ZM236 52Q285 52 316.5 60Q348 68 380 84L421 416Q393 432 363.5 440Q334 448 285 448Q240 448 211 431Q182 414 164.5 386Q147 358 138.5 322.5Q130 287 125 250Q121 213 120.5 177.5Q120 142 131 114Q142 86 166.5 69Q191 52 236 52Z" glyph-name="a" horiz-adv-x="535" unicode="a" /><glyph d="M372 343Q379 398 354.5 423Q330 448 268 448Q226 448 190.5 434.5Q155 421 124 398L100 451Q137 479 180.5 494.5Q224 510 270 510Q325 510 360.5 498Q396 486 415.5 463.5Q435 441 440.5 410.5Q446 380 441 342L400 0H361L350 40Q313 15 272 2.5Q231 -10 193 -10Q144 -10 112 3.5Q80 17 62.5 39Q45 61 39.5 90.5Q34 120 38 151Q46 215 92 258.5Q138 302 235 309L369 319ZM224 253Q170 248 142 221.5Q114 195 109 151Q107 134 108 116.5Q109 99 118.5 84.5Q128 70 147.5 61Q167 52 203 52Q244 52 275 62.5Q306 73 341 92L362 266Z" glyph-name="a.school" horiz-adv-x="495" unicode="&#57681;" /><glyph d="M397 0 365 118H132L73 0H-2L270 510H324L472 0ZM159 174H352L287 427Z" glyph-name="a.smcp" horiz-adv-x="530" unicode="&#57857;" /><glyph d="M440 0H401L391 41Q348 16 308.5 3Q269 -10 228 -10Q168 -10 131 10.5Q94 31 75 66Q56 101 52.5 148.5Q49 196 55 250Q62 304 77 351.5Q92 399 120 434Q148 469 190 489.5Q232 510 292 510Q332 510 371 497Q410 484 442 458L462 500H501ZM236 52Q285 52 316.5 60Q348 68 380 84L421 416Q393 432 363.5 440Q334 448 285 448Q240 448 211 431Q182 414 164.5 386Q147 358 138.5 322.5Q130 287 125 250Q121 213 120.5 177.5Q120 142 131 114Q142 86 166.5 69Q191 52 236 52ZM277 550 352 750H432L327 550Z" glyph-name="aacute" horiz-adv-x="535" unicode="&#225;" /><glyph d="M253 550 328 750H408L303 550ZM372 343Q379 398 354.5 423Q330 448 268 448Q226 448 190.5 434.5Q155 421 124 398L100 451Q137 479 180.5 494.5Q224 510 270 510Q325 510 360.5 498Q396 486 415.5 463.5Q435 441 440.5 410.5Q446 380 441 342L400 0H361L350 40Q313 15 272 2.5Q231 -10 193 -10Q144 -10 112 3.5Q80 17 62.5 39Q45 61 39.5 90.5Q34 120 38 151Q46 215 92 258.5Q138 302 235 309L369 319ZM224 253Q170 248 142 221.5Q114 195 109 151Q107 134 108 116.5Q109 99 118.5 84.5Q128 70 147.5 61Q167 52 203 52Q244 52 275 62.5Q306 73 341 92L362 266Z" glyph-name="aacute.school" horiz-adv-x="495" unicode="&#57683;" /><glyph d="M277 550 352 750H432L327 550ZM397 0 365 118H132L73 0H-2L270 510H324L472 0ZM159 174H352L287 427Z" glyph-name="aacute.smcp" horiz-adv-x="530" unicode="&#57889;" /><glyph d="M440 0H401L391 41Q348 16 308.5 3Q269 -10 228 -10Q168 -10 131 10.5Q94 31 75 66Q56 101 52.5 148.5Q49 196 55 250Q62 304 77 351.5Q92 399 120 434Q148 469 190 489.5Q232 510 292 510Q332 510 371 497Q410 484 442 458L462 500H501ZM236 52Q285 52 316.5 60Q348 68 380 84L421 416Q393 432 363.5 440Q334 448 285 448Q240 448 211 431Q182 414 164.5 386Q147 358 138.5 322.5Q130 287 125 250Q121 213 120.5 177.5Q120 142 131 114Q142 86 166.5 69Q191 52 236 52ZM302 550Q131 550 152 750H203Q199 716 201.5 690Q204 664 216 646Q228 628 250.5 619Q273 610 309 610Q345 610 370 619Q395 628 411 646Q427 664 436.5 690Q446 716 451 750H502Q472 550 302 550Z" glyph-name="abreve" horiz-adv-x="535" unicode="&#259;" /><glyph d="M278 550Q107 550 128 750H179Q175 716 177.5 690Q180 664 192 646Q204 628 226.5 619Q249 610 285 610Q321 610 346 619Q371 628 387 646Q403 664 412.5 690Q422 716 427 750H478Q448 550 278 550ZM372 343Q379 398 354.5 423Q330 448 268 448Q226 448 190.5 434.5Q155 421 124 398L100 451Q137 479 180.5 494.5Q224 510 270 510Q325 510 360.5 498Q396 486 415.5 463.5Q435 441 440.5 410.5Q446 380 441 342L400 0H361L350 40Q313 15 272 2.5Q231 -10 193 -10Q144 -10 112 3.5Q80 17 62.5 39Q45 61 39.5 90.5Q34 120 38 151Q46 215 92 258.5Q138 302 235 309L369 319ZM224 253Q170 248 142 221.5Q114 195 109 151Q107 134 108 116.5Q109 99 118.5 84.5Q128 70 147.5 61Q167 52 203 52Q244 52 275 62.5Q306 73 341 92L362 266Z" glyph-name="abreve.school" horiz-adv-x="495" unicode="&#57690;" /><glyph d="M302 550Q131 550 152 750H203Q199 716 201.5 690Q204 664 216 646Q228 628 250.5 619Q273 610 309 610Q345 610 370 619Q395 628 411 646Q427 664 436.5 690Q446 716 451 750H502Q472 550 302 550ZM397 0 365 118H132L73 0H-2L270 510H324L472 0ZM159 174H352L287 427Z" glyph-name="abreve.smcp" horiz-adv-x="530" unicode="&#57897;" /><glyph d="M440 0H401L391 41Q348 16 308.5 3Q269 -10 228 -10Q168 -10 131 10.5Q94 31 75 66Q56 101 52.5 148.5Q49 196 55 250Q62 304 77 351.5Q92 399 120 434Q148 469 190 489.5Q232 510 292 510Q332 510 371 497Q410 484 442 458L462 500H501ZM236 52Q285 52 316.5 60Q348 68 380 84L421 416Q393 432 363.5 440Q334 448 285 448Q240 448 211 431Q182 414 164.5 386Q147 358 138.5 322.5Q130 287 125 250Q121 213 120.5 177.5Q120 142 131 114Q142 86 166.5 69Q191 52 236 52ZM432 550 319 691 172 550H117L287 750H367L487 550Z" glyph-name="acircumflex" horiz-adv-x="535" unicode="&#226;" /><glyph d="M408 550 295 691 148 550H93L263 750H343L463 550ZM372 343Q379 398 354.5 423Q330 448 268 448Q226 448 190.5 434.5Q155 421 124 398L100 451Q137 479 180.5 494.5Q224 510 270 510Q325 510 360.5 498Q396 486 415.5 463.5Q435 441 440.5 410.5Q446 380 441 342L400 0H361L350 40Q313 15 272 2.5Q231 -10 193 -10Q144 -10 112 3.5Q80 17 62.5 39Q45 61 39.5 90.5Q34 120 38 151Q46 215 92 258.5Q138 302 235 309L369 319ZM224 253Q170 248 142 221.5Q114 195 109 151Q107 134 108 116.5Q109 99 118.5 84.5Q128 70 147.5 61Q167 52 203 52Q244 52 275 62.5Q306 73 341 92L362 266Z" glyph-name="acircumflex.school" horiz-adv-x="495" unicode="&#57684;" /><glyph d="M432 550 319 691 172 550H117L287 750H367L487 550ZM397 0 365 118H132L73 0H-2L270 510H324L472 0ZM159 174H352L287 427Z" glyph-name="acircumflex.smcp" horiz-adv-x="530" unicode="&#57891;" /><glyph d="M297 550 372 750H452L347 550Z" glyph-name="acute" horiz-adv-x="570" unicode="&#180;" /><glyph d="M328 800 390 900H480L378 800Z" glyph-name="acute.cap" horiz-adv-x="570" unicode="&#58402;" /><glyph d="M440 0H401L391 41Q348 16 308.5 3Q269 -10 228 -10Q168 -10 131 10.5Q94 31 75 66Q56 101 52.5 148.5Q49 196 55 250Q62 304 77 351.5Q92 399 120 434Q148 469 190 489.5Q232 510 292 510Q332 510 371 497Q410 484 442 458L462 500H501ZM236 52Q285 52 316.5 60Q348 68 380 84L421 416Q393 432 363.5 440Q334 448 285 448Q240 448 211 431Q182 414 164.5 386Q147 358 138.5 322.5Q130 287 125 250Q121 213 120.5 177.5Q120 142 131 114Q142 86 166.5 69Q191 52 236 52ZM175 650Q175 668 188 681Q201 694 219 694Q237 694 250 681Q263 668 263 650Q263 632 250 619Q237 606 219 606Q201 606 188 619Q175 632 175 650ZM365 650Q365 668 378 681Q391 694 409 694Q427 694 440 681Q453 668 453 650Q453 632 440 619Q427 606 409 606Q391 606 378 619Q365 632 365 650Z" glyph-name="adieresis" horiz-adv-x="535" unicode="&#228;" /><glyph d="M372 343Q379 398 354.5 423Q330 448 268 448Q226 448 190.5 434.5Q155 421 124 398L100 451Q137 479 180.5 494.5Q224 510 270 510Q325 510 360.5 498Q396 486 415.5 463.5Q435 441 440.5 410.5Q446 380 441 342L400 0H361L350 40Q313 15 272 2.5Q231 -10 193 -10Q144 -10 112 3.5Q80 17 62.5 39Q45 61 39.5 90.5Q34 120 38 151Q46 215 92 258.5Q138 302 235 309L369 319ZM224 253Q170 248 142 221.5Q114 195 109 151Q107 134 108 116.5Q109 99 118.5 84.5Q128 70 147.5 61Q167 52 203 52Q244 52 275 62.5Q306 73 341 92L362 266ZM151 650Q151 668 164 681Q177 694 195 694Q213 694 226 681Q239 668 239 650Q239 632 226 619Q213 606 195 606Q177 606 164 619Q151 632 151 650ZM341 650Q341 668 354 681Q367 694 385 694Q403 694 416 681Q429 668 429 650Q429 632 416 619Q403 606 385 606Q367 606 354 619Q341 632 341 650Z" glyph-name="adieresis.school" horiz-adv-x="495" unicode="&#57685;" /><glyph d="M397 0 365 118H132L73 0H-2L270 510H324L472 0ZM159 174H352L287 427ZM175 650Q175 668 188 681Q201 694 219 694Q237 694 250 681Q263 668 263 650Q263 632 250 619Q237 606 219 606Q201 606 188 619Q175 632 175 650ZM365 650Q365 668 378 681Q391 694 409 694Q427 694 440 681Q453 668 453 650Q453 632 440 619Q427 606 409 606Q391 606 378 619Q365 632 365 650Z" glyph-name="adieresis.smcp" horiz-adv-x="530" unicode="&#57892;" /><glyph d="M226 224Q162 224 137.5 201Q113 178 108 141Q106 124 108 108Q110 92 120 79.5Q130 67 150 59.5Q170 52 203 52Q245 52 287.5 67.5Q330 83 363 114Q358 139 356.5 165.5Q355 192 357 223V224ZM573 275Q610 275 634.5 281.5Q659 288 673.5 300Q688 312 695 328Q702 344 704 362Q706 380 703.5 396Q701 412 689 423.5Q677 435 654.5 441.5Q632 448 595 448Q552 448 523 433.5Q494 419 476 395Q458 371 448 340Q438 309 433 275ZM555 52Q606 52 644.5 68.5Q683 85 706 102L731 49Q697 24 652 7Q607 -10 551 -10Q481 -10 443 10Q405 30 385 62Q361 41 335.5 27.5Q310 14 284.5 5.5Q259 -3 235.5 -6.5Q212 -10 193 -10Q145 -10 113 1.5Q81 13 62.5 33.5Q44 54 38.5 81.5Q33 109 37 141Q40 170 51 195.5Q62 221 85 240Q108 259 145.5 270Q183 281 238 281H364L372 343Q379 398 354.5 423Q330 448 268 448Q226 448 190.5 434.5Q155 421 124 398L100 451Q137 479 181 494.5Q225 510 276 510Q314 510 339 504.5Q364 499 381.5 489.5Q399 480 409.5 466.5Q420 453 429 436Q458 471 499.5 490.5Q541 510 602 510Q655 510 689 497Q723 484 742 463Q761 442 767 415.5Q773 389 770 362Q767 335 754.5 309.5Q742 284 717.5 263.5Q693 243 656 230.5Q619 218 566 218H426Q424 184 426.5 154Q429 124 442.5 101.5Q456 79 482.5 65.5Q509 52 555 52Z" glyph-name="ae" horiz-adv-x="815" unicode="&#230;" /><glyph d="M666 225H409L423 63H681L674 0H359L350 119H138L64 0H-12L316 500H735L727 437H391L404 288H674ZM172 173H347L330 424Z" glyph-name="ae.smcp" horiz-adv-x="764" unicode="&#57905;" /><glyph d="M10 253Q15 257 26.5 264.5Q38 272 54 285V519Q54 590 64.5 636Q75 682 93.5 710Q112 738 137 749Q162 760 190 760Q244 760 266.5 725.5Q289 691 289 629Q289 569 274 516.5Q259 464 235.5 419Q212 374 182.5 337Q153 300 124 271V123Q124 77 141 61Q158 45 195 45Q211 45 228.5 48Q246 51 254 53V0Q243 -4 225.5 -7Q208 -10 195 -10Q167 -10 141 -3.5Q115 3 96 18.5Q77 34 65.5 59Q54 84 54 121V211Q37 198 25.5 190Q14 182 10 180ZM124 353Q145 377 164.5 406.5Q184 436 199.5 472Q215 508 224.5 549.5Q234 591 234 639Q234 674 225 689.5Q216 705 190 705Q161 705 142.5 660.5Q124 616 124 517Z" glyph-name="afii61289" horiz-adv-x="310" unicode="&#8467;" /><glyph d="M440 0H401L391 41Q348 16 308.5 3Q269 -10 228 -10Q168 -10 131 10.5Q94 31 75 66Q56 101 52.5 148.5Q49 196 55 250Q62 304 77 351.5Q92 399 120 434Q148 469 190 489.5Q232 510 292 510Q332 510 371 497Q410 484 442 458L462 500H501ZM236 52Q285 52 316.5 60Q348 68 380 84L421 416Q393 432 363.5 440Q334 448 285 448Q240 448 211 431Q182 414 164.5 386Q147 358 138.5 322.5Q130 287 125 250Q121 213 120.5 177.5Q120 142 131 114Q142 86 166.5 69Q191 52 236 52ZM277 550 222 750H302L327 550Z" glyph-name="agrave" horiz-adv-x="535" unicode="&#224;" /><glyph d="M253 550 198 750H278L303 550ZM372 343Q379 398 354.5 423Q330 448 268 448Q226 448 190.5 434.5Q155 421 124 398L100 451Q137 479 180.5 494.5Q224 510 270 510Q325 510 360.5 498Q396 486 415.5 463.5Q435 441 440.5 410.5Q446 380 441 342L400 0H361L350 40Q313 15 272 2.5Q231 -10 193 -10Q144 -10 112 3.5Q80 17 62.5 39Q45 61 39.5 90.5Q34 120 38 151Q46 215 92 258.5Q138 302 235 309L369 319ZM224 253Q170 248 142 221.5Q114 195 109 151Q107 134 108 116.5Q109 99 118.5 84.5Q128 70 147.5 61Q167 52 203 52Q244 52 275 62.5Q306 73 341 92L362 266Z" glyph-name="agrave.school" horiz-adv-x="495" unicode="&#57682;" /><glyph d="M277 550 222 750H302L327 550ZM397 0 365 118H132L73 0H-2L270 510H324L472 0ZM159 174H352L287 427Z" glyph-name="agrave.smcp" horiz-adv-x="530" unicode="&#57890;" /><glyph d="M345 -161Q340 -202 308 -227Q276 -252 223 -252Q182 -252 162 -242.5Q142 -233 127 -220L159 -176Q167 -182 182.5 -190.5Q198 -199 225 -199Q248 -199 264.5 -190.5Q281 -182 283 -163Q288 -131 263 -115.5Q238 -100 203 -95L213 -50Q283 -58 316.5 -87Q350 -116 345 -161Z" glyph-name="altcedilla" horiz-adv-x="570" unicode="&#58390;" /><glyph d="M440 0H401L391 41Q348 16 308.5 3Q269 -10 228 -10Q168 -10 131 10.5Q94 31 75 66Q56 101 52.5 148.5Q49 196 55 250Q62 304 77 351.5Q92 399 120 434Q148 469 190 489.5Q232 510 292 510Q332 510 371 497Q410 484 442 458L462 500H501ZM236 52Q285 52 316.5 60Q348 68 380 84L421 416Q393 432 363.5 440Q334 448 285 448Q240 448 211 431Q182 414 164.5 386Q147 358 138.5 322.5Q130 287 125 250Q121 213 120.5 177.5Q120 142 131 114Q142 86 166.5 69Q191 52 236 52ZM181 680H455L448 620H174Z" glyph-name="amacron" horiz-adv-x="535" unicode="&#257;" /><glyph d="M157 680H431L424 620H150ZM372 343Q379 398 354.5 423Q330 448 268 448Q226 448 190.5 434.5Q155 421 124 398L100 451Q137 479 180.5 494.5Q224 510 270 510Q325 510 360.5 498Q396 486 415.5 463.5Q435 441 440.5 410.5Q446 380 441 342L400 0H361L350 40Q313 15 272 2.5Q231 -10 193 -10Q144 -10 112 3.5Q80 17 62.5 39Q45 61 39.5 90.5Q34 120 38 151Q46 215 92 258.5Q138 302 235 309L369 319ZM224 253Q170 248 142 221.5Q114 195 109 151Q107 134 108 116.5Q109 99 118.5 84.5Q128 70 147.5 61Q167 52 203 52Q244 52 275 62.5Q306 73 341 92L362 266Z" glyph-name="amacron.school" horiz-adv-x="495" unicode="&#57689;" /><glyph d="M181 680H455L448 620H174ZM397 0 365 118H132L73 0H-2L270 510H324L472 0ZM159 174H352L287 427Z" glyph-name="amacron.smcp" horiz-adv-x="530" unicode="&#57896;" /><glyph d="M183 592Q187 622 199.5 652Q212 682 235.5 706Q259 730 294 745Q329 760 378 760Q427 760 458 745Q489 730 506.5 706Q524 682 529 652Q534 622 530 592Q525 552 506 523Q487 494 458 471.5Q429 449 393 431.5Q357 414 318 397L291 385Q311 346 335 312Q370 262 408.5 223Q447 184 490 153Q551 212 591.5 300.5Q632 389 646 500H714Q699 377 654.5 280Q610 183 544 116Q571 97 604 79Q637 61 675 44L636 -9Q561 22 492 71Q438 32 377 11Q316 -10 247 -10Q200 -10 159 0.5Q118 11 89 35.5Q60 60 46 100Q32 140 39 198Q45 246 60.5 280Q76 314 98 339Q120 364 147.5 381Q175 398 204 412Q189 454 183 498.5Q177 543 183 592ZM281 269Q266 290 253 311.5Q240 333 228 356Q206 345 186 331.5Q166 318 150.5 300Q135 282 124 257.5Q113 233 109 198Q104 155 115.5 127.5Q127 100 148.5 83.5Q170 67 198.5 60.5Q227 54 255 54Q353 54 435 109Q392 141 353.5 179.5Q315 218 281 269ZM252 592Q243 513 269 440L297 453Q327 466 355 479Q383 492 405.5 508Q428 524 443.5 544.5Q459 565 462 592Q465 612 462 631Q459 650 449 665Q439 680 419.5 689Q400 698 370 698Q340 698 318.5 689Q297 680 283 665Q269 650 262 631Q255 612 252 592Z" glyph-name="ampersand" horiz-adv-x="705" unicode="&amp;" /><glyph d="M119 -206 47 305 245 816H320L125 305L194 -206Z" glyph-name="anglebracketleft" horiz-adv-x="280" unicode="&#12296;" /><glyph d="M62 375 226 800H302L140 375L197 -50H121Z" glyph-name="anglebracketleft.cap" horiz-adv-x="280" unicode="&#58519;" /><glyph d="M56 250 172 550H248L134 250L174 -50H98Z" glyph-name="anglebracketleft.smcp" horiz-adv-x="280" unicode="&#58527;" /><glyph d="M175 816 247 305 49 -206H-26L169 305L100 816Z" glyph-name="anglebracketright" horiz-adv-x="280" unicode="&#12297;" /><glyph d="M85 -50H9L172 375L114 800H190L250 375Z" glyph-name="anglebracketright.cap" horiz-adv-x="280" unicode="&#58520;" /><glyph d="M108 -50H32L146 250L106 550H182L224 250Z" glyph-name="anglebracketright.smcp" horiz-adv-x="280" unicode="&#58512;" /><glyph d="M287 427 73 0H-2L270 510H324L472 0H397Z" glyph-name="anocross.smcp" horiz-adv-x="530" unicode="&#57888;" /><glyph d="M236 52Q285 52 316.5 60Q348 68 380 84L421 416Q393 432 363.5 440Q334 448 285 448Q240 448 211 431Q182 414 164.5 386Q147 358 138.5 322.5Q130 287 125 250Q121 213 120.5 177.5Q120 142 131 114Q142 86 166.5 69Q191 52 236 52ZM253 -155Q260 -104 296 -57.5Q332 -11 395 21L391 41Q348 16 308.5 3Q269 -10 228 -10Q168 -10 131 10.5Q94 31 75 66Q56 101 52.5 148.5Q49 196 55 250Q62 304 77 351.5Q92 399 120 434Q148 469 190 489.5Q232 510 292 510Q332 510 371 497Q410 484 442 458L462 500H501L440 0Q387 -27 354 -65Q321 -103 316 -142Q313 -165 323.5 -182Q334 -199 366 -199Q391 -199 408.5 -190.5Q426 -182 435 -176L455 -220Q437 -233 413 -242.5Q389 -252 351 -252Q300 -252 274 -226Q248 -200 253 -155Z" glyph-name="aogonek" horiz-adv-x="535" unicode="&#261;" /><glyph d="M276 -142Q273 -165 283.5 -182Q294 -199 326 -199Q351 -199 368.5 -190.5Q386 -182 395 -176L415 -220Q397 -233 373 -242.5Q349 -252 311 -252Q260 -252 234 -226Q208 -200 213 -155Q220 -104 256 -57.5Q292 -11 355 21L350 40Q313 15 272 2.5Q231 -10 193 -10Q144 -10 112 3.5Q80 17 62.5 39Q45 61 39.5 90.5Q34 120 38 151Q46 215 92 258.5Q138 302 235 309L369 319L372 343Q379 398 354.5 423Q330 448 268 448Q226 448 190.5 434.5Q155 421 124 398L100 451Q137 479 180.5 494.5Q224 510 270 510Q325 510 360.5 498Q396 486 415.5 463.5Q435 441 440.5 410.5Q446 380 441 342L400 0Q347 -27 314 -65Q281 -103 276 -142ZM224 253Q170 248 142 221.5Q114 195 109 151Q107 134 108 116.5Q109 99 118.5 84.5Q128 70 147.5 61Q167 52 203 52Q244 52 275 62.5Q306 73 341 92L362 266Z" glyph-name="aogonek.school" horiz-adv-x="495" unicode="&#57680;" /><glyph d="M348 -142Q345 -165 355.5 -182Q366 -199 398 -199Q423 -199 440.5 -190.5Q458 -182 467 -176L487 -220Q469 -233 445 -242.5Q421 -252 383 -252Q332 -252 306 -226Q280 -200 285 -155Q291 -110 319 -69.5Q347 -29 396 3L365 118H132L73 0H-2L270 510H324L472 0Q419 -27 386 -65Q353 -103 348 -142ZM159 174H352L287 427Z" glyph-name="aogonek.smcp" horiz-adv-x="530" unicode="&#57903;" /><glyph d="M372 434Q410 434 437.5 448.5Q465 463 475 474V409Q462 397 435.5 386Q409 375 374 375Q336 375 311.5 386.5Q287 398 267 411.5Q247 425 227 436.5Q207 448 178 448Q140 448 112.5 433.5Q85 419 75 408V473Q88 485 114.5 496Q141 507 176 507Q214 507 238.5 495.5Q263 484 283 470.5Q303 457 323 445.5Q343 434 372 434ZM372 302Q410 302 437.5 316.5Q465 331 475 342V277Q462 265 435.5 254Q409 243 374 243Q336 243 311.5 254.5Q287 266 267 279.5Q247 293 227 304.5Q207 316 178 316Q140 316 112.5 301.5Q85 287 75 276V341Q88 353 114.5 364Q141 375 176 375Q214 375 238.5 363.5Q263 352 283 338.5Q303 325 323 313.5Q343 302 372 302Z" glyph-name="approxequal" horiz-adv-x="550" unicode="&#8776;" /><glyph d="M637 439Q665 439 692.5 445Q720 451 745 460.5Q770 470 790.5 483Q811 496 825 510V443Q810 430 788.5 418Q767 406 741.5 397Q716 388 689 383Q662 378 636 378Q588 378 553 388Q518 398 489.5 413Q461 428 436.5 445Q412 462 386.5 477Q361 492 331.5 502Q302 512 263 512Q235 512 207.5 506Q180 500 155 490.5Q130 481 109.5 468Q89 455 75 441V508Q90 522 111.5 533.5Q133 545 158.5 554Q184 563 211.5 568Q239 573 264 573Q312 573 347 563Q382 553 410.5 538Q439 523 463.5 506Q488 489 513.5 474Q539 459 568.5 449Q598 439 637 439ZM637 239Q665 239 692.5 245Q720 251 745 260.5Q770 270 790.5 283Q811 296 825 310V243Q810 230 788.5 218Q767 206 741.5 197Q716 188 689 183Q662 178 636 178Q588 178 553 188Q518 198 489.5 213Q461 228 436.5 245Q412 262 386.5 277Q361 292 331.5 302Q302 312 263 312Q235 312 207.5 306Q180 300 155 290.5Q130 281 109.5 268Q89 255 75 241V308Q90 322 111.5 333.5Q133 345 158.5 354Q184 363 211.5 368Q239 373 264 373Q312 373 347 363Q382 353 410.5 338Q439 323 463.5 306Q488 289 513.5 274Q539 259 568.5 249Q598 239 637 239Z" glyph-name="approxequal.cap" horiz-adv-x="900" unicode="&#61990;" /><glyph d="M440 0H401L391 41Q348 16 308.5 3Q269 -10 228 -10Q168 -10 131 10.5Q94 31 75 66Q56 101 52.5 148.5Q49 196 55 250Q62 304 77 351.5Q92 399 120 434Q148 469 190 489.5Q232 510 292 510Q332 510 371 497Q410 484 442 458L462 500H501ZM236 52Q285 52 316.5 60Q348 68 380 84L421 416Q393 432 363.5 440Q334 448 285 448Q240 448 211 431Q182 414 164.5 386Q147 358 138.5 322.5Q130 287 125 250Q121 213 120.5 177.5Q120 142 131 114Q142 86 166.5 69Q191 52 236 52ZM321 702Q298 702 281 690Q264 678 260 650Q257 622 271 610Q285 598 308 598Q331 598 348 610Q365 622 368 650Q372 678 358 690Q344 702 321 702ZM302 549Q257 549 230.5 573.5Q204 598 210 650Q217 702 249.5 726.5Q282 751 327 751Q372 751 398.5 726.5Q425 702 418 650Q412 598 379.5 573.5Q347 549 302 549Z" glyph-name="aring" horiz-adv-x="535" unicode="&#229;" /><glyph d="M297 702Q274 702 257 690Q240 678 236 650Q233 622 247 610Q261 598 284 598Q307 598 324 610Q341 622 344 650Q348 678 334 690Q320 702 297 702ZM278 549Q233 549 206.5 573.5Q180 598 186 650Q193 702 225.5 726.5Q258 751 303 751Q348 751 374.5 726.5Q401 702 394 650Q388 598 355.5 573.5Q323 549 278 549ZM372 343Q379 398 354.5 423Q330 448 268 448Q226 448 190.5 434.5Q155 421 124 398L100 451Q137 479 180.5 494.5Q224 510 270 510Q325 510 360.5 498Q396 486 415.5 463.5Q435 441 440.5 410.5Q446 380 441 342L400 0H361L350 40Q313 15 272 2.5Q231 -10 193 -10Q144 -10 112 3.5Q80 17 62.5 39Q45 61 39.5 90.5Q34 120 38 151Q46 215 92 258.5Q138 302 235 309L369 319ZM224 253Q170 248 142 221.5Q114 195 109 151Q107 134 108 116.5Q109 99 118.5 84.5Q128 70 147.5 61Q167 52 203 52Q244 52 275 62.5Q306 73 341 92L362 266Z" glyph-name="aring.school" horiz-adv-x="495" unicode="&#57687;" /><glyph d="M321 702Q298 702 281 690Q264 678 260 650Q257 622 271 610Q285 598 308 598Q331 598 348 610Q365 622 368 650Q372 678 358 690Q344 702 321 702ZM302 549Q257 549 230.5 573.5Q204 598 210 650Q217 702 249.5 726.5Q282 751 327 751Q372 751 398.5 726.5Q425 702 418 650Q412 598 379.5 573.5Q347 549 302 549ZM397 0 365 118H132L73 0H-2L270 510H324L472 0ZM159 174H352L287 427Z" glyph-name="aring.smcp" horiz-adv-x="530" unicode="&#57894;" /><glyph d="M785 347 430 -8H390L35 347V437L377 95V750H443V95L785 437Z" glyph-name="arrowdown" horiz-adv-x="830" unicode="&#8595;" /><glyph d="M393 0 38 355V395L393 750H483L141 408H795V342H141L483 0Z" glyph-name="arrowleft" horiz-adv-x="830" unicode="&#8592;" /><glyph d="M440 750 795 395V355L440 0H350L692 342H38V408H692L350 750Z" glyph-name="arrowright" horiz-adv-x="830" unicode="&#8594;" /><glyph d="M35 403 390 758H430L785 403V313L443 655V0H377V655L35 313Z" glyph-name="arrowup" horiz-adv-x="830" unicode="&#8593;" /><glyph d="M30 375 310 760H376L562 375H489L334 686L103 375Z" glyph-name="asciicircum" horiz-adv-x="560" unicode="^" /><glyph d="M353 334Q391 334 420 348.5Q449 363 460 374L452 309Q438 297 410 286Q382 275 347 275Q309 275 286 286.5Q263 298 244.5 311.5Q226 325 207.5 336.5Q189 348 160 348Q122 348 92.5 333.5Q63 319 52 308L60 373Q74 385 102 396Q130 407 165 407Q203 407 226.5 395.5Q250 384 268 370.5Q286 357 305 345.5Q324 334 353 334Z" glyph-name="asciitilde" horiz-adv-x="490" unicode="~" /><glyph d="M254 550 340 445 272 402 219 528ZM205 528 122 400 66 446 176 550ZM203 609 201 750H279L241 609ZM253 601 390 662 403 588 260 564ZM174 564 36 588 69 661 189 601Z" glyph-name="asterisk" horiz-adv-x="355" unicode="*" /><glyph d="M462 47 454 87Q431 67 398.5 54.5Q366 42 330 42Q257 42 223.5 91.5Q190 141 203 250Q217 359 262.5 408.5Q308 458 381 458Q421 458 448.5 445.5Q476 433 494 413L507 453H554L510 96H520Q564 96 591 111.5Q618 127 634.5 155.5Q651 184 659 223.5Q667 263 673 311Q681 379 672.5 430Q664 481 634.5 515.5Q605 550 554 567Q503 584 426 584Q349 584 292 564.5Q235 545 194.5 504Q154 463 130 400Q106 337 95 250Q85 163 93.5 100Q102 37 133.5 -4Q165 -45 220.5 -64.5Q276 -84 358 -84Q407 -84 450.5 -76.5Q494 -69 530 -57.5Q566 -46 594 -32Q622 -18 641 -4L648 -55Q629 -69 598.5 -83Q568 -97 529.5 -108.5Q491 -120 446 -127.5Q401 -135 353 -135Q163 -135 89 -38.5Q15 58 38 250Q62 442 157.5 538.5Q253 635 432 635Q607 635 677.5 552.5Q748 470 728 310Q721 250 707 201.5Q693 153 668.5 118.5Q644 84 606.5 65.5Q569 47 513 47ZM474 365Q457 380 437.5 389Q418 398 389 398Q335 398 308 360Q281 322 272 250Q263 178 281 140Q299 102 353 102Q382 102 404 111Q426 120 446 135Z" glyph-name="at" horiz-adv-x="758" unicode="@" /><glyph d="M478 172 470 212Q446 192 413.5 179.5Q381 167 345 167Q272 167 238.5 216.5Q205 266 219 375Q232 484 277.5 533.5Q323 583 396 583Q436 583 463.5 570.5Q491 558 510 538L522 578H569L526 221H536Q580 221 607 236.5Q634 252 650 280.5Q666 309 674 348.5Q682 388 688 436Q696 504 687.5 555Q679 606 650 640.5Q621 675 570 692Q519 709 442 709Q288 709 210 628.5Q132 548 111 375Q100 288 109 225Q118 162 149.5 121Q181 80 236.5 60.5Q292 41 374 41Q423 41 466.5 48.5Q510 56 546 67.5Q582 79 610 93Q638 107 656 121L663 70Q645 56 614.5 42Q584 28 545 16.5Q506 5 461 -2.5Q416 -10 368 -10Q178 -10 104 86.5Q30 183 54 375Q77 567 173 663.5Q269 760 448 760Q623 760 693 677.5Q763 595 743 435Q736 375 722.5 326.5Q709 278 684.5 243.5Q660 209 622.5 190.5Q585 172 529 172ZM490 490Q473 505 453.5 514Q434 523 405 523Q351 523 323.5 485Q296 447 288 375Q279 303 296.5 265Q314 227 368 227Q397 227 419 236Q441 245 461 260Z" glyph-name="at.cap" horiz-adv-x="758" unicode="&#58643;" /><glyph d="M440 0H401L391 41Q348 16 308.5 3Q269 -10 228 -10Q168 -10 131 10.5Q94 31 75 66Q56 101 52.5 148.5Q49 196 55 250Q62 304 77 351.5Q92 399 120 434Q148 469 190 489.5Q232 510 292 510Q332 510 371 497Q410 484 442 458L462 500H501ZM236 52Q285 52 316.5 60Q348 68 380 84L421 416Q393 432 363.5 440Q334 448 285 448Q240 448 211 431Q182 414 164.5 386Q147 358 138.5 322.5Q130 287 125 250Q121 213 120.5 177.5Q120 142 131 114Q142 86 166.5 69Q191 52 236 52ZM390 644Q407 644 417 649Q427 654 433 662Q439 670 441.5 679Q444 688 445 695H501Q498 642 465 613.5Q432 585 378 585Q347 585 329.5 596Q312 607 298.5 620.5Q285 634 272.5 645Q260 656 239 656Q222 656 211.5 651Q201 646 195 638Q189 630 187 621.5Q185 613 184 605H128Q130 658 163 686.5Q196 715 250 715Q281 715 299 704Q317 693 330.5 679.5Q344 666 356.5 655Q369 644 390 644Z" glyph-name="atilde" horiz-adv-x="535" unicode="&#227;" /><glyph d="M366 644Q383 644 393 649Q403 654 409 662Q415 670 417.5 679Q420 688 421 695H477Q474 642 441 613.5Q408 585 354 585Q323 585 305.5 596Q288 607 274.5 620.5Q261 634 248.5 645Q236 656 215 656Q198 656 187.5 651Q177 646 171 638Q165 630 163 621.5Q161 613 160 605H104Q106 658 139 686.5Q172 715 226 715Q257 715 275 704Q293 693 306.5 679.5Q320 666 332.5 655Q345 644 366 644ZM372 343Q379 398 354.5 423Q330 448 268 448Q226 448 190.5 434.5Q155 421 124 398L100 451Q137 479 180.5 494.5Q224 510 270 510Q325 510 360.5 498Q396 486 415.5 463.5Q435 441 440.5 410.5Q446 380 441 342L400 0H361L350 40Q313 15 272 2.5Q231 -10 193 -10Q144 -10 112 3.5Q80 17 62.5 39Q45 61 39.5 90.5Q34 120 38 151Q46 215 92 258.5Q138 302 235 309L369 319ZM224 253Q170 248 142 221.5Q114 195 109 151Q107 134 108 116.5Q109 99 118.5 84.5Q128 70 147.5 61Q167 52 203 52Q244 52 275 62.5Q306 73 341 92L362 266Z" glyph-name="atilde.school" horiz-adv-x="495" unicode="&#57686;" /><glyph d="M390 644Q407 644 417 649Q427 654 433 662Q439 670 441.5 679Q444 688 445 695H501Q498 642 465 613.5Q432 585 378 585Q347 585 329.5 596Q312 607 298.5 620.5Q285 634 272.5 645Q260 656 239 656Q222 656 211.5 651Q201 646 195 638Q189 630 187 621.5Q185 613 184 605H128Q130 658 163 686.5Q196 715 250 715Q281 715 299 704Q317 693 330.5 679.5Q344 666 356.5 655Q369 644 390 644ZM397 0 365 118H132L73 0H-2L270 510H324L472 0ZM159 174H352L287 427Z" glyph-name="atilde.smcp" horiz-adv-x="530" unicode="&#57893;" /><glyph d="M307 510Q367 510 404.5 489.5Q442 469 461 434Q480 399 483.5 351.5Q487 304 480 250Q474 196 458.5 148.5Q443 101 415.5 66Q388 31 345.5 10.5Q303 -10 243 -10Q202 -10 165.5 3Q129 16 94 41L74 0H35L127 750H197L162 469Q197 490 234.5 500Q272 510 307 510ZM300 448Q251 448 219 440Q187 432 156 416L115 84Q142 68 172 60Q202 52 251 52Q296 52 325 69Q354 86 371 114Q388 142 397 177.5Q406 213 410 250Q415 287 415 322.5Q415 358 404.5 386Q394 414 369.5 431Q345 448 300 448Z" glyph-name="b" horiz-adv-x="535" unicode="b" /><glyph d="M106 500H325Q412 500 443 466.5Q474 433 466 370Q462 341 444.5 315Q427 289 404 277Q437 263 452.5 227.5Q468 192 463 151Q459 119 447.5 91.5Q436 64 414.5 43.5Q393 23 360.5 11.5Q328 0 281 0H45ZM390 151Q392 169 390.5 185.5Q389 202 380 214Q371 226 352.5 233Q334 240 303 240H142L120 63H281Q312 63 332 70Q352 77 364 89Q376 101 382 117Q388 133 390 151ZM313 303Q362 303 377.5 321Q393 339 397 370Q399 385 397.5 397.5Q396 410 388 419Q380 428 364.5 432.5Q349 437 323 437H166L150 303Z" glyph-name="b.smcp" horiz-adv-x="520" unicode="&#57858;" /><glyph d="M516 -206 53 816H128L591 -206Z" glyph-name="backslash" horiz-adv-x="550" unicode="\" /><glyph d="M446 -50 60 800H135L521 -50Z" glyph-name="backslash.cap" horiz-adv-x="550" unicode="&#58466;" /><glyph d="M104 550 377 -50H302L29 550Z" glyph-name="backslash.smcp" horiz-adv-x="406" unicode="&#58472;" /><glyph d="M65 500H565V0H65ZM131 61H499V439H131ZM160 142 268 250 160 358 207 405 315 297 423 405 470 358 362 250 470 142 423 95 315 203 207 95Z" glyph-name="ballotboxwithx" horiz-adv-x="630" unicode="&#9746;" /><glyph d="M31 -206 157 816H228L102 -206Z" glyph-name="bar" horiz-adv-x="245" unicode="|" /><glyph d="M50 -50 155 800H226L121 -50Z" glyph-name="bar.cap" horiz-adv-x="245" unicode="&#58467;" /><glyph d="M50 -50 124 550H195L121 -50Z" glyph-name="bar.smcp" horiz-adv-x="245" unicode="&#58473;" /><glyph d="M307 510Q367 510 404.5 489.5Q442 469 461 434Q480 399 483.5 351.5Q487 304 480 250Q474 196 458.5 148.5Q443 101 415.5 66Q388 31 345.5 10.5Q303 -10 243 -10Q202 -10 165.5 3Q129 16 94 41L74 0H35L127 750H197L162 469Q197 490 234.5 500Q272 510 307 510ZM300 448Q251 448 219 440Q187 432 156 416L115 84Q142 68 172 60Q202 52 251 52Q296 52 325 69Q354 86 371 114Q388 142 397 177.5Q406 213 410 250Q415 287 415 322.5Q415 358 404.5 386Q394 414 369.5 431Q345 448 300 448ZM130 850Q130 868 143 881Q156 894 174 894Q192 894 205 881Q218 868 218 850Q218 832 205 819Q192 806 174 806Q156 806 143 819Q130 832 130 850Z" glyph-name="bdotaccent" horiz-adv-x="535" unicode="&#7683;" /><glyph d="M106 500H325Q412 500 443 466.5Q474 433 466 370Q462 341 444.5 315Q427 289 404 277Q437 263 452.5 227.5Q468 192 463 151Q459 119 447.5 91.5Q436 64 414.5 43.5Q393 23 360.5 11.5Q328 0 281 0H45ZM390 151Q392 169 390.5 185.5Q389 202 380 214Q371 226 352.5 233Q334 240 303 240H142L120 63H281Q312 63 332 70Q352 77 364 89Q376 101 382 117Q388 133 390 151ZM313 303Q362 303 377.5 321Q393 339 397 370Q399 385 397.5 397.5Q396 410 388 419Q380 428 364.5 432.5Q349 437 323 437H166L150 303ZM269 650Q269 668 282 681Q295 694 313 694Q331 694 344 681Q357 668 357 650Q357 632 344 619Q331 606 313 606Q295 606 282 619Q269 632 269 650Z" glyph-name="bdotaccent.smcp" horiz-adv-x="520" /><glyph d="M55 375Q55 455 85 525Q115 595 167.5 647.5Q220 700 290 730Q360 760 440 760Q520 760 590 730Q660 700 712.5 647.5Q765 595 795 525Q825 455 825 375Q825 295 795 225Q765 155 712.5 102.5Q660 50 590 20Q520 -10 440 -10Q360 -10 290 20Q220 50 167.5 102.5Q115 155 85 225Q55 295 55 375Z" glyph-name="blackcircle" horiz-adv-x="880" unicode="&#9679;" /><glyph d="M65 0V500H565V0Z" glyph-name="blacksmallsquare" horiz-adv-x="630" unicode="&#9642;" /><glyph d="M65 0V750H815V0Z" glyph-name="blacksquare" horiz-adv-x="880" unicode="&#9632;" /><glyph d="M39 338Q83 338 86 377L108 707Q113 765 147.5 790.5Q182 816 235 816H250L242 750H227Q183 750 180 711L157 381Q155 358 144.5 338.5Q134 319 118 305Q145 275 139 229L80 -101Q77 -120 85.5 -130Q94 -140 117 -140H132L124 -206H109Q56 -206 27.5 -180.5Q-1 -155 10 -97L68 233Q74 269 36 272H21L29 338Z" glyph-name="braceleft" horiz-adv-x="210" unicode="{" /><glyph d="M48 408Q71 408 81.5 417.5Q92 427 94 447L111 691Q116 749 150.5 774.5Q185 800 238 800H253L245 734H230Q186 734 183 695L166 451Q164 428 151.5 407Q139 386 124 375Q137 364 144.5 343Q152 322 147 299L104 55Q101 36 109.5 26Q118 16 141 16H156L148 -50H133Q80 -50 51.5 -24.5Q23 1 34 59L77 303Q83 339 44 342H29L38 408Z" glyph-name="braceleft.cap" horiz-adv-x="210" unicode="&#58517;" /><glyph d="M14 217 22 283H37Q76 286 79 322L87 441Q91 499 125.5 524.5Q160 550 213 550H228L220 484H205Q161 484 158 445L151 326Q149 303 136.5 282Q124 261 108 250Q121 239 129 218Q137 197 132 174L111 55Q108 36 116.5 26Q125 16 148 16H163L155 -50H140Q87 -50 58.5 -24.5Q30 1 41 59L61 178Q69 217 24 217Z" glyph-name="braceleft.smcp" horiz-adv-x="210" unicode="&#58525;" /><glyph d="M203 338 195 272H180Q141 269 138 233L116 -97Q111 -155 76.5 -180.5Q42 -206 -11 -206H-26L-18 -140H-3Q41 -140 44 -101L67 229Q69 252 81 273Q93 294 109 305Q96 316 88.5 337Q81 358 85 381L144 711Q147 730 138.5 740Q130 750 107 750H92L100 816H115Q168 816 196.5 790.5Q225 765 214 707L156 377Q153 357 161.5 347.5Q170 338 193 338Z" glyph-name="braceright" horiz-adv-x="210" unicode="}" /><glyph d="M212 408 203 342H188Q150 339 147 303L130 59Q125 1 90.5 -24.5Q56 -50 3 -50H-12L-4 16H11Q55 16 58 55L75 299Q77 322 89.5 343Q102 364 118 375Q104 386 96.5 407Q89 428 94 451L137 695Q140 714 131.5 724Q123 734 100 734H85L93 800H108Q161 800 189.5 774.5Q218 749 207 691L164 447Q158 408 202 408Z" glyph-name="braceright.cap" horiz-adv-x="210" unicode="&#58518;" /><glyph d="M196 283 188 217H173Q134 214 131 178L124 59Q119 1 84.5 -24.5Q50 -50 -3 -50H-18L-10 16H5Q49 16 52 55L60 174Q62 197 74 218Q86 239 102 250Q89 261 81.5 282Q74 303 79 326L99 445Q102 464 93.5 474Q85 484 62 484H47L55 550H70Q123 550 151.5 524.5Q180 499 170 441L149 322Q146 302 154.5 292.5Q163 283 186 283Z" glyph-name="braceright.smcp" horiz-adv-x="210" unicode="&#58526;" /><glyph d="M88 -140H152L144 -206H9L135 816H270L262 750H198Z" glyph-name="bracketleft" horiz-adv-x="230" unicode="[" /><glyph d="M107 16H171L163 -50H28L133 800H268L260 734H196Z" glyph-name="bracketleft.cap" horiz-adv-x="230" unicode="&#58515;" /><glyph d="M107 16H171L163 -50H28L102 550H237L229 484H165Z" glyph-name="bracketleft.smcp" horiz-adv-x="230" unicode="&#58523;" /><glyph d="M156 750H92L100 816H235L109 -206H-26L-18 -140H46Z" glyph-name="bracketright" horiz-adv-x="230" unicode="]" /><glyph d="M154 734H90L98 800H233L128 -50H-7L1 16H65Z" glyph-name="bracketright.cap" horiz-adv-x="230" unicode="&#58516;" /><glyph d="M123 484H59L67 550H202L128 -50H-7L1 16H65Z" glyph-name="bracketright.smcp" horiz-adv-x="230" unicode="&#58524;" /><glyph d="M322 550Q151 550 172 750H223Q219 716 221.5 690Q224 664 236 646Q248 628 270.5 619Q293 610 329 610Q365 610 390 619Q415 628 431 646Q447 664 456.5 690Q466 716 471 750H522Q492 550 322 550Z" glyph-name="breve" horiz-adv-x="570" unicode="&#728;" /><glyph d="M351 790Q211 790 220 900H271Q269 869 292 857Q315 845 358 845Q401 845 427.5 857Q454 869 459 900H510Q492 790 351 790Z" glyph-name="breve.cap" horiz-adv-x="570" unicode="&#58406;" /><glyph d="M31 -206 90 272H161L102 -206ZM169 338H98L157 815H228Z" glyph-name="brokenbar" horiz-adv-x="245" unicode="&#166;" /><glyph d="M50 -50 98 342H169L121 -50ZM178 408H107L155 799H226Z" glyph-name="brokenbar.cap" horiz-adv-x="245" unicode="&#58469;" /><glyph d="M50 -50 83 217H154L121 -50ZM162 283H91L124 549H195Z" glyph-name="brokenbar.smcp" horiz-adv-x="245" unicode="&#58475;" /><glyph d="M66 375Q66 403 76.5 427.5Q87 452 105.5 470.5Q124 489 148.5 499.5Q173 510 201 510Q229 510 253.5 499.5Q278 489 296.5 470.5Q315 452 325.5 427.5Q336 403 336 375Q336 347 325.5 322.5Q315 298 296.5 279.5Q278 261 253.5 250.5Q229 240 201 240Q173 240 148.5 250.5Q124 261 105.5 279.5Q87 298 76.5 322.5Q66 347 66 375Z" glyph-name="bullet" horiz-adv-x="370" unicode="&#8226;" /><glyph d="M66 375Q66 403 76.5 427.5Q87 452 105.5 470.5Q124 489 148.5 499.5Q173 510 201 510Q229 510 253.5 499.5Q278 489 296.5 470.5Q315 452 325.5 427.5Q336 403 336 375Q336 347 325.5 322.5Q315 298 296.5 279.5Q278 261 253.5 250.5Q229 240 201 240Q173 240 148.5 250.5Q124 261 105.5 279.5Q87 298 76.5 322.5Q66 347 66 375Z" glyph-name="bullet.cap" horiz-adv-x="370" unicode="&#58470;" /><glyph d="M50 250Q50 278 60.5 302.5Q71 327 89.5 345.5Q108 364 132.5 374.5Q157 385 185 385Q213 385 237.5 374.5Q262 364 280.5 345.5Q299 327 309.5 302.5Q320 278 320 250Q320 222 309.5 197.5Q299 173 280.5 154.5Q262 136 237.5 125.5Q213 115 185 115Q157 115 132.5 125.5Q108 136 89.5 154.5Q71 173 60.5 197.5Q50 222 50 250Z" glyph-name="bullet.smcp" horiz-adv-x="370" unicode="&#58476;" /><glyph d="M55 250Q62 304 77.5 351.5Q93 399 122.5 434Q152 469 198 489.5Q244 510 311 510Q365 510 396.5 496Q428 482 451 462L414 409Q399 422 375 435Q351 448 308 448Q256 448 222.5 431Q189 414 169 386Q149 358 139.5 322.5Q130 287 125 250Q121 213 121.5 177.5Q122 142 135.5 114Q149 86 178 69Q207 52 259 52Q302 52 329.5 65Q357 78 375 91L399 38Q372 18 336.5 4Q301 -10 247 -10Q180 -10 139 10.5Q98 31 77.5 66Q57 101 53 148.5Q49 196 55 250Z" glyph-name="c" horiz-adv-x="460" unicode="c" /><glyph d="M60 250Q67 304 86.5 351.5Q106 399 139.5 434Q173 469 221 489.5Q269 510 332 510Q393 510 431 490Q469 470 485 452L448 398Q443 403 432.5 411.5Q422 420 406.5 428Q391 436 370 441.5Q349 447 322 447Q275 447 241 430Q207 413 184.5 385.5Q162 358 149.5 322.5Q137 287 132 250Q128 213 131.5 177.5Q135 142 151 114.5Q167 87 197 70Q227 53 274 53Q301 53 323.5 58.5Q346 64 363.5 72Q381 80 393 88.5Q405 97 412 102L435 48Q414 30 371.5 10Q329 -10 268 -10Q205 -10 162 10.5Q119 31 94.5 66Q70 101 62 148.5Q54 196 60 250Z" glyph-name="c.smcp" horiz-adv-x="505" unicode="&#57859;" /><glyph d="M278 550 353 750H433L328 550ZM55 250Q62 304 77.5 351.5Q93 399 122.5 434Q152 469 198 489.5Q244 510 311 510Q365 510 396.5 496Q428 482 451 462L414 409Q399 422 375 435Q351 448 308 448Q256 448 222.5 431Q189 414 169 386Q149 358 139.5 322.5Q130 287 125 250Q121 213 121.5 177.5Q122 142 135.5 114Q149 86 178 69Q207 52 259 52Q302 52 329.5 65Q357 78 375 91L399 38Q372 18 336.5 4Q301 -10 247 -10Q180 -10 139 10.5Q98 31 77.5 66Q57 101 53 148.5Q49 196 55 250Z" glyph-name="cacute" horiz-adv-x="460" unicode="&#263;" /><glyph d="M298 550 373 750H453L348 550ZM60 250Q67 304 86.5 351.5Q106 399 139.5 434Q173 469 221 489.5Q269 510 332 510Q393 510 431 490Q469 470 485 452L448 398Q443 403 432.5 411.5Q422 420 406.5 428Q391 436 370 441.5Q349 447 322 447Q275 447 241 430Q207 413 184.5 385.5Q162 358 149.5 322.5Q137 287 132 250Q128 213 131.5 177.5Q135 142 151 114.5Q167 87 197 70Q227 53 274 53Q301 53 323.5 58.5Q346 64 363.5 72Q381 80 393 88.5Q405 97 412 102L435 48Q414 30 371.5 10Q329 -10 268 -10Q205 -10 162 10.5Q119 31 94.5 66Q70 101 62 148.5Q54 196 60 250Z" glyph-name="cacute.smcp" horiz-adv-x="505" unicode="&#57908;" /><glyph d="M532 750 362 550H282L162 750H217L329 609L477 750Z" glyph-name="caron" horiz-adv-x="570" unicode="&#711;" /><glyph d="M266 900 358 844 464 900H520L393 800H313L210 900Z" glyph-name="caron.cap" horiz-adv-x="570" unicode="&#58413;" /><glyph d="M491 750 418 550H372L413 750Z" glyph-name="caronSlovak" horiz-adv-x="570" unicode="&#58387;" /><glyph d="M513 750 343 550H263L143 750H198L310 609L458 750ZM55 250Q62 304 77.5 351.5Q93 399 122.5 434Q152 469 198 489.5Q244 510 311 510Q365 510 396.5 496Q428 482 451 462L414 409Q399 422 375 435Q351 448 308 448Q256 448 222.5 431Q189 414 169 386Q149 358 139.5 322.5Q130 287 125 250Q121 213 121.5 177.5Q122 142 135.5 114Q149 86 178 69Q207 52 259 52Q302 52 329.5 65Q357 78 375 91L399 38Q372 18 336.5 4Q301 -10 247 -10Q180 -10 139 10.5Q98 31 77.5 66Q57 101 53 148.5Q49 196 55 250Z" glyph-name="ccaron" horiz-adv-x="460" unicode="&#269;" /><glyph d="M533 750 363 550H283L163 750H218L330 609L478 750ZM60 250Q67 304 86.5 351.5Q106 399 139.5 434Q173 469 221 489.5Q269 510 332 510Q393 510 431 490Q469 470 485 452L448 398Q443 403 432.5 411.5Q422 420 406.5 428Q391 436 370 441.5Q349 447 322 447Q275 447 241 430Q207 413 184.5 385.5Q162 358 149.5 322.5Q137 287 132 250Q128 213 131.5 177.5Q135 142 151 114.5Q167 87 197 70Q227 53 274 53Q301 53 323.5 58.5Q346 64 363.5 72Q381 80 393 88.5Q405 97 412 102L435 48Q414 30 371.5 10Q329 -10 268 -10Q205 -10 162 10.5Q119 31 94.5 66Q70 101 62 148.5Q54 196 60 250Z" glyph-name="ccaron.smcp" horiz-adv-x="505" unicode="&#57910;" /><glyph d="M55 250Q62 304 77.5 351.5Q93 399 122.5 434Q152 469 198 489.5Q244 510 311 510Q365 510 396.5 496Q428 482 451 462L414 409Q399 422 375 435Q351 448 308 448Q256 448 222.5 431Q189 414 169 386Q149 358 139.5 322.5Q130 287 125 250Q121 213 121.5 177.5Q122 142 135.5 114Q149 86 178 69Q207 52 259 52Q302 52 329.5 65Q357 78 375 91L399 38Q372 18 336.5 4Q301 -10 247 -10L245 -64Q259 -68 275 -75Q291 -82 303.5 -93Q316 -104 323.5 -121Q331 -138 328 -161Q323 -202 291 -227Q259 -252 206 -252Q165 -252 145 -242.5Q125 -233 110 -220L142 -176Q150 -182 165.5 -190.5Q181 -199 208 -199Q231 -199 247.5 -190.5Q264 -182 266 -163Q268 -147 262 -136Q256 -125 245 -117.5Q234 -110 218 -106Q202 -102 185 -100L206 -7Q152 -1 119.5 21Q87 43 70.5 77.5Q54 112 51.5 156Q49 200 55 250Z" glyph-name="ccedilla" horiz-adv-x="460" unicode="&#231;" /><glyph d="M60 250Q67 304 86.5 351.5Q106 399 139.5 434Q173 469 221 489.5Q269 510 332 510Q393 510 431 490Q469 470 485 452L448 398Q443 403 432.5 411.5Q422 420 406.5 428Q391 436 370 441.5Q349 447 322 447Q275 447 241 430Q207 413 184.5 385.5Q162 358 149.5 322.5Q137 287 132 250Q128 213 131.5 177.5Q135 142 151 114.5Q167 87 197 70Q227 53 274 53Q301 53 323.5 58.5Q346 64 363.5 72Q381 80 393 88.5Q405 97 412 102L435 48Q415 31 374.5 11.5Q334 -8 276 -10L274 -64Q288 -68 304 -75Q320 -82 332.5 -93Q345 -104 352.5 -121Q360 -138 357 -161Q352 -202 320 -227Q288 -252 235 -252Q194 -252 174 -242.5Q154 -233 139 -220L171 -176Q179 -182 194.5 -190.5Q210 -199 237 -199Q260 -199 276.5 -190.5Q293 -182 295 -163Q297 -147 291 -136Q285 -125 274 -117.5Q263 -110 247 -106Q231 -102 214 -100L235 -8Q181 -3 145 19.5Q109 42 88 76.5Q67 111 60.5 155.5Q54 200 60 250Z" glyph-name="ccedilla.smcp" horiz-adv-x="505" unicode="&#57912;" /><glyph d="M433 550 320 691 173 550H118L288 750H368L488 550ZM55 250Q62 304 77.5 351.5Q93 399 122.5 434Q152 469 198 489.5Q244 510 311 510Q365 510 396.5 496Q428 482 451 462L414 409Q399 422 375 435Q351 448 308 448Q256 448 222.5 431Q189 414 169 386Q149 358 139.5 322.5Q130 287 125 250Q121 213 121.5 177.5Q122 142 135.5 114Q149 86 178 69Q207 52 259 52Q302 52 329.5 65Q357 78 375 91L399 38Q372 18 336.5 4Q301 -10 247 -10Q180 -10 139 10.5Q98 31 77.5 66Q57 101 53 148.5Q49 196 55 250Z" glyph-name="ccircumflex" horiz-adv-x="460" unicode="&#265;" /><glyph d="M453 550 340 691 193 550H138L308 750H388L508 550ZM60 250Q67 304 86.5 351.5Q106 399 139.5 434Q173 469 221 489.5Q269 510 332 510Q393 510 431 490Q469 470 485 452L448 398Q443 403 432.5 411.5Q422 420 406.5 428Q391 436 370 441.5Q349 447 322 447Q275 447 241 430Q207 413 184.5 385.5Q162 358 149.5 322.5Q137 287 132 250Q128 213 131.5 177.5Q135 142 151 114.5Q167 87 197 70Q227 53 274 53Q301 53 323.5 58.5Q346 64 363.5 72Q381 80 393 88.5Q405 97 412 102L435 48Q414 30 371.5 10Q329 -10 268 -10Q205 -10 162 10.5Q119 31 94.5 66Q70 101 62 148.5Q54 196 60 250Z" glyph-name="ccircumflex.smcp" horiz-adv-x="505" unicode="&#57909;" /><glyph d="M55 250Q62 304 77.5 351.5Q93 399 122.5 434Q152 469 198 489.5Q244 510 311 510Q365 510 396.5 496Q428 482 451 462L414 409Q399 422 375 435Q351 448 308 448Q256 448 222.5 431Q189 414 169 386Q149 358 139.5 322.5Q130 287 125 250Q121 213 121.5 177.5Q122 142 135.5 114Q149 86 178 69Q207 52 259 52Q302 52 329.5 65Q357 78 375 91L399 38Q372 18 336.5 4Q301 -10 247 -10Q180 -10 139 10.5Q98 31 77.5 66Q57 101 53 148.5Q49 196 55 250ZM271 650Q271 668 284 681Q297 694 315 694Q333 694 346 681Q359 668 359 650Q359 632 346 619Q333 606 315 606Q297 606 284 619Q271 632 271 650Z" glyph-name="cdotaccent" horiz-adv-x="460" unicode="&#267;" /><glyph d="M60 250Q67 304 86.5 351.5Q106 399 139.5 434Q173 469 221 489.5Q269 510 332 510Q393 510 431 490Q469 470 485 452L448 398Q443 403 432.5 411.5Q422 420 406.5 428Q391 436 370 441.5Q349 447 322 447Q275 447 241 430Q207 413 184.5 385.5Q162 358 149.5 322.5Q137 287 132 250Q128 213 131.5 177.5Q135 142 151 114.5Q167 87 197 70Q227 53 274 53Q301 53 323.5 58.5Q346 64 363.5 72Q381 80 393 88.5Q405 97 412 102L435 48Q414 30 371.5 10Q329 -10 268 -10Q205 -10 162 10.5Q119 31 94.5 66Q70 101 62 148.5Q54 196 60 250ZM290 650Q290 668 303 681Q316 694 334 694Q352 694 365 681Q378 668 378 650Q378 632 365 619Q352 606 334 606Q316 606 303 619Q290 632 290 650Z" glyph-name="cdotaccent.smcp" horiz-adv-x="505" unicode="&#57911;" /><glyph d="M275 0 272 -64Q286 -68 302 -75Q318 -82 330.5 -93Q343 -104 350.5 -121Q358 -138 355 -161Q350 -202 318 -227Q286 -252 233 -252Q192 -252 172 -242.5Q152 -233 137 -220L169 -176Q177 -182 192.5 -190.5Q208 -199 235 -199Q258 -199 274.5 -190.5Q291 -182 293 -163Q295 -147 289 -136Q283 -125 272 -117.5Q261 -110 245 -106Q229 -102 212 -100L235 0Z" glyph-name="cedilla" horiz-adv-x="570" unicode="&#184;" /><glyph d="M359 635Q415 633 449.5 613.5Q484 594 500 577L464 523Q459 528 449.5 535.5Q440 543 426 550.5Q412 558 393.5 564Q375 570 351 571L303 178Q327 180 347 186Q367 192 383 199.5Q399 207 410 214.5Q421 222 427 227L451 173Q431 156 391.5 136.5Q352 117 295 115L281 0H215L229 120Q182 129 150 152Q118 175 99.5 208.5Q81 242 75.5 284.5Q70 327 76 375Q82 423 97.5 465.5Q113 508 139.5 542Q166 576 204 599Q242 622 292 630L307 750H373ZM148 375Q144 344 146 313.5Q148 283 158 257.5Q168 232 187 213Q206 194 237 185L284 565Q251 556 227 537Q203 518 186.5 492.5Q170 467 161 436.5Q152 406 148 375Z" glyph-name="cent" horiz-adv-x="505" unicode="&#162;" /><glyph d="M55 250Q61 299 77.5 342.5Q94 386 122 420Q150 454 191 476.5Q232 499 286 506L301 625H367L352 510Q384 509 407 504Q430 499 447 491Q464 483 476.5 473.5Q489 464 500 453L463 400Q446 416 420.5 431Q395 446 345 448L296 52Q347 54 376.5 69Q406 84 426 100L450 47Q437 37 422 27Q407 17 388.5 9Q370 1 345.5 -4Q321 -9 289 -10L275 -125H209L223 -6Q171 1 135.5 23.5Q100 46 80.5 80Q61 114 55 157.5Q49 201 55 250ZM125 250Q121 218 124 187Q127 156 139 130Q151 104 173.5 85Q196 66 231 58L278 442Q241 433 214 414Q187 395 168.5 369Q150 343 139.5 312.5Q129 282 125 250Z" glyph-name="cent.OP" horiz-adv-x="515" unicode="&#59807;" /><glyph d="M452 550 339 691 192 550H137L307 750H387L507 550Z" glyph-name="circumflex" horiz-adv-x="570" unicode="&#710;" /><glyph d="M452 800 360 856 254 800H198L325 900H405L508 800Z" glyph-name="circumflex.cap" horiz-adv-x="570" unicode="&#58403;" /><glyph d="M342 0Q360 36 373.5 70Q387 104 396 140.5Q405 177 411 217.5Q417 258 421 307L418 308Q406 278 388 250Q370 222 346 200.5Q322 179 292 166Q262 153 226 153Q190 153 159 166Q128 179 105 201.5Q82 224 69 254.5Q56 285 56 321Q56 359 68 390.5Q80 422 102.5 445Q125 468 156 481Q187 494 224 494Q249 494 268.5 487.5Q288 481 305 472L307 474Q291 498 280.5 526.5Q270 555 270 587Q270 623 283 654.5Q296 686 318.5 709.5Q341 733 372 746.5Q403 760 440 760Q477 760 508 746.5Q539 733 561.5 709.5Q584 686 597 654.5Q610 623 610 587Q610 555 599.5 526.5Q589 498 573 474L575 472Q592 481 611.5 487.5Q631 494 656 494Q694 494 724.5 481Q755 468 777.5 445Q800 422 812 390.5Q824 359 824 321Q824 285 811 254.5Q798 224 775 201.5Q752 179 721 166Q690 153 654 153Q618 153 588 166Q558 179 534 200.5Q510 222 492 250Q474 278 462 308L459 307Q463 258 469 217.5Q475 177 484 140.5Q493 104 506.5 70Q520 36 538 0Z" glyph-name="club" horiz-adv-x="880" unicode="&#9827;" /><glyph d="M25 39Q25 57 38 70Q51 83 69 83Q87 83 100 70Q113 57 113 39Q113 21 100 8Q87 -5 69 -5Q51 -5 38 8Q25 21 25 39ZM67 375Q67 393 80 406Q93 419 111 419Q129 419 142 406Q155 393 155 375Q155 357 142 344Q129 331 111 331Q93 331 80 344Q67 357 67 375Z" glyph-name="colon" horiz-adv-x="190" unicode=":" /><glyph d="M118 66 29 -125H-21L28 66Z" glyph-name="comma" horiz-adv-x="190" unicode="," /><glyph d="M295 -50 215 -250H165L215 -50Z" glyph-name="commaaccent" horiz-adv-x="570" unicode="&#58388;" /><glyph d="M458 900 396 800H306L408 900Z" glyph-name="commaaccent.cap" horiz-adv-x="570" unicode="&#58414;" /><glyph d="M363 52Q423 52 473 69Q523 86 561 119.5Q599 153 623.5 201.5Q648 250 656 313Q664 375 651.5 423.5Q639 472 609 505Q579 538 533 555.5Q487 573 427 573Q367 573 317 555.5Q267 538 228.5 505Q190 472 166 423.5Q142 375 134 313Q126 250 138.5 201.5Q151 153 181 119.5Q211 86 257 69Q303 52 363 52ZM355 -10Q286 -10 228.5 11.5Q171 33 131 74Q91 115 72.5 175Q54 235 63 313Q72 391 105.5 451Q139 511 189 552Q239 593 302 614Q365 635 434 635Q503 635 560.5 614Q618 593 658.5 552Q699 511 717.5 451Q736 391 727 313Q718 235 684.5 175Q651 115 600.5 74Q550 33 487 11.5Q424 -10 355 -10ZM204 313Q211 367 232 404.5Q253 442 282.5 466Q312 490 348 500.5Q384 511 420 511Q477 511 509.5 494.5Q542 478 557 461L520 410Q512 421 486 435Q460 449 415 449Q389 449 365.5 441.5Q342 434 323 418Q304 402 291.5 376Q279 350 274 313Q270 276 276 250Q282 224 297 208Q312 192 333.5 184.5Q355 177 381 177Q426 177 455.5 191Q485 205 496 216L521 165Q501 148 465 131.5Q429 115 372 115Q336 115 302.5 125.5Q269 136 245 160Q221 184 209 221.5Q197 259 204 313Z" glyph-name="copyright" horiz-adv-x="774" unicode="&#169;" /><glyph d="M303 114Q346 114 383.5 121Q421 128 450 149Q479 170 498.5 209Q518 248 526 312Q534 376 524 415Q514 454 490 475Q466 496 430.5 503Q395 510 352 510Q309 510 272 503Q235 496 206 475Q177 454 157.5 415Q138 376 130 312Q122 248 132 209Q142 170 165.5 149Q189 128 224.5 121Q260 114 303 114ZM515 -10 450 80Q415 64 376.5 58Q338 52 296 52Q254 52 216.5 58Q179 64 148 80L61 -10L16 33L99 119Q74 149 64.5 196Q55 243 63 312Q71 381 92.5 428Q114 475 145 504L84 591L140 634L204 544Q239 560 278.5 566Q318 572 360 572Q402 572 439.5 566Q477 560 507 544L594 634L640 591L556 504Q581 475 591 428Q601 381 593 312Q585 243 563 196Q541 149 509 119L572 33Z" glyph-name="currency" horiz-adv-x="640" unicode="&#164;" /><glyph d="M292 510Q327 510 362.5 500Q398 490 427 469L462 750H532L440 0H401L391 41Q348 16 308.5 3Q269 -10 228 -10Q168 -10 131 10.5Q94 31 75 66Q56 101 52.5 148.5Q49 196 55 250Q62 304 77 351.5Q92 399 120 434Q148 469 190 489.5Q232 510 292 510ZM285 448Q240 448 211 431Q182 414 164.5 386Q147 358 138.5 322.5Q130 287 125 250Q121 213 120.5 177.5Q120 142 131 114Q142 86 166.5 69Q191 52 236 52Q285 52 316.5 60Q348 68 380 84L421 416Q393 432 363.5 440Q334 448 285 448Z" glyph-name="d" horiz-adv-x="535" unicode="d" /><glyph d="M45 0 106 500H274Q339 500 382.5 482.5Q426 465 451 432.5Q476 400 484 353.5Q492 307 485 250Q478 193 458.5 146.5Q439 100 406 67.5Q373 35 325.5 17.5Q278 0 213 0ZM217 63Q267 63 302 76.5Q337 90 360 114.5Q383 139 395.5 173.5Q408 208 413 250Q418 292 414 326.5Q410 361 393 385.5Q376 410 344.5 423.5Q313 437 263 437H166L120 63Z" glyph-name="d.smcp" horiz-adv-x="545" unicode="&#57860;" /><glyph d="M236 551V301H136L198 551ZM205 609 203 750H281L243 609ZM189 561 46 541 56 619 194 599ZM252 599 396 619 386 541 247 561Z" glyph-name="dagger" horiz-adv-x="360" unicode="&#8224;" /><glyph d="M212 352V102H112L174 352ZM252 599 396 619 386 541 247 561ZM205 609 203 750H281L243 609ZM228 400 371 420 361 342 223 362ZM165 362 21 342 31 420 170 400ZM189 561 46 541 56 619 194 599ZM236 551 237 480 219 410H181L179 480L198 551Z" glyph-name="daggerdbl" horiz-adv-x="360" unicode="&#8225;" /><glyph d="M292 510Q327 510 362.5 500Q398 490 427 469L462 750H532L440 0H401L391 41Q348 16 308.5 3Q269 -10 228 -10Q168 -10 131 10.5Q94 31 75 66Q56 101 52.5 148.5Q49 196 55 250Q62 304 77 351.5Q92 399 120 434Q148 469 190 489.5Q232 510 292 510ZM285 448Q240 448 211 431Q182 414 164.5 386Q147 358 138.5 322.5Q130 287 125 250Q121 213 120.5 177.5Q120 142 131 114Q142 86 166.5 69Q191 52 236 52Q285 52 316.5 60Q348 68 380 84L421 416Q393 432 363.5 440Q334 448 285 448ZM676 750 603 550H557L598 750Z" glyph-name="dcaron" horiz-adv-x="555" unicode="&#271;" /><glyph d="M497 750 327 550H247L127 750H182L294 609L442 750ZM45 0 106 500H274Q339 500 382.5 482.5Q426 465 451 432.5Q476 400 484 353.5Q492 307 485 250Q478 193 458.5 146.5Q439 100 406 67.5Q373 35 325.5 17.5Q278 0 213 0ZM217 63Q267 63 302 76.5Q337 90 360 114.5Q383 139 395.5 173.5Q408 208 413 250Q418 292 414 326.5Q410 361 393 385.5Q376 410 344.5 423.5Q313 437 263 437H166L120 63Z" glyph-name="dcaron.smcp" horiz-adv-x="545" unicode="&#57913;" /><glyph d="M292 510Q360 510 427 469L444 603H309L315 654H450L462 750H532L520 654H610L604 603H514L440 0H401L391 41Q348 16 308.5 3Q269 -10 228 -10Q168 -10 131 10.5Q94 31 75 66Q56 101 52.5 148.5Q49 196 55 250Q62 304 77 351.5Q92 399 120 434Q148 469 190 489.5Q232 510 292 510ZM236 52Q285 52 316.5 60Q348 68 380 84L421 416Q393 432 363.5 440Q334 448 285 448Q240 448 211 431Q182 414 164.5 386Q147 358 138.5 322.5Q130 287 125 250Q121 213 120.5 177.5Q120 142 131 114Q142 86 166.5 69Q191 52 236 52Z" glyph-name="dcroat" horiz-adv-x="535" unicode="&#273;" /><glyph d="M85 0 112 221H22L29 278H119L146 500H314Q379 500 422.5 482.5Q466 465 491 432.5Q516 400 524 353.5Q532 307 525 250Q518 193 498.5 146.5Q479 100 446 67.5Q413 35 365.5 17.5Q318 0 253 0ZM257 63Q307 63 342 76.5Q377 90 400 114.5Q423 139 435.5 173.5Q448 208 453 250Q458 292 454 326.5Q450 361 433 385.5Q416 410 384.5 423.5Q353 437 303 437H206L186 278H305L298 221H179L160 63Z" glyph-name="dcroat.smcp" horiz-adv-x="585" unicode="&#57916;" /><glyph d="M292 510Q327 510 362.5 500Q398 490 427 469L462 750H532L440 0H401L391 41Q348 16 308.5 3Q269 -10 228 -10Q168 -10 131 10.5Q94 31 75 66Q56 101 52.5 148.5Q49 196 55 250Q62 304 77 351.5Q92 399 120 434Q148 469 190 489.5Q232 510 292 510ZM285 448Q240 448 211 431Q182 414 164.5 386Q147 358 138.5 322.5Q130 287 125 250Q121 213 120.5 177.5Q120 142 131 114Q142 86 166.5 69Q191 52 236 52Q285 52 316.5 60Q348 68 380 84L421 416Q393 432 363.5 440Q334 448 285 448ZM465 850Q465 868 478 881Q491 894 509 894Q527 894 540 881Q553 868 553 850Q553 832 540 819Q527 806 509 806Q491 806 478 819Q465 832 465 850Z" glyph-name="ddotaccent" horiz-adv-x="535" unicode="&#7691;" /><glyph d="M45 0 106 500H274Q339 500 382.5 482.5Q426 465 451 432.5Q476 400 484 353.5Q492 307 485 250Q478 193 458.5 146.5Q439 100 406 67.5Q373 35 325.5 17.5Q278 0 213 0ZM217 63Q267 63 302 76.5Q337 90 360 114.5Q383 139 395.5 173.5Q408 208 413 250Q418 292 414 326.5Q410 361 393 385.5Q376 410 344.5 423.5Q313 437 263 437H166L120 63ZM257 650Q257 668 270 681Q283 694 301 694Q319 694 332 681Q345 668 345 650Q345 632 332 619Q319 606 301 606Q283 606 270 619Q257 632 257 650Z" glyph-name="ddotaccent.smcp" horiz-adv-x="545" /><glyph d="M168 490Q143 490 118 496.5Q93 503 73.5 518.5Q54 534 42 560Q30 586 30 625Q30 665 42 691Q54 717 73.5 732.5Q93 748 118 754Q143 760 168 760Q194 760 218.5 754Q243 748 262.5 732.5Q282 717 294 691Q306 665 306 625Q306 586 294 560Q282 534 262.5 518.5Q243 503 218.5 496.5Q194 490 168 490ZM168 705Q132 705 110.5 687Q89 669 89 625Q89 581 110.5 563Q132 545 168 545Q204 545 225.5 563Q247 581 247 625Q247 669 225.5 687Q204 705 168 705Z" glyph-name="degree" horiz-adv-x="336" unicode="&#176;" /><glyph d="M793 374Q742 334 692.5 288.5Q643 243 597.5 193.5Q552 144 512.5 92.5Q473 41 441 -10H439Q407 41 367.5 92.5Q328 144 282.5 193.5Q237 243 187.5 288.5Q138 334 87 374V376Q138 416 187.5 461.5Q237 507 282.5 556.5Q328 606 367.5 657.5Q407 709 439 760H441Q473 709 512.5 657.5Q552 606 597.5 556.5Q643 507 692.5 461.5Q742 416 793 376Z" glyph-name="diamond" horiz-adv-x="880" unicode="&#9830;" /><glyph d="M195 650Q195 668 208 681Q221 694 239 694Q257 694 270 681Q283 668 283 650Q283 632 270 619Q257 606 239 606Q221 606 208 619Q195 632 195 650ZM385 650Q385 668 398 681Q411 694 429 694Q447 694 460 681Q473 668 473 650Q473 632 460 619Q447 606 429 606Q411 606 398 619Q385 632 385 650Z" glyph-name="dieresis" horiz-adv-x="570" unicode="&#168;" /><glyph d="M220 850Q220 868 233 881Q246 894 264 894Q282 894 295 881Q308 868 308 850Q308 832 295 819Q282 806 264 806Q246 806 233 819Q220 832 220 850ZM410 850Q410 868 423 881Q436 894 454 894Q472 894 485 881Q498 868 498 850Q498 832 485 819Q472 806 454 806Q436 806 423 819Q410 832 410 850Z" glyph-name="dieresis.cap" horiz-adv-x="570" unicode="&#58409;" /><glyph d="M450 408V342H50V408ZM206 215Q206 233 219 246Q232 259 250 259Q268 259 281 246Q294 233 294 215Q294 197 281 184Q268 171 250 171Q232 171 219 184Q206 197 206 215ZM206 535Q206 553 219 566Q232 579 250 579Q268 579 281 566Q294 553 294 535Q294 517 281 504Q268 491 250 491Q232 491 219 504Q206 517 206 535Z" glyph-name="divide" horiz-adv-x="500" unicode="&#247;" /><glyph d="M825 408V342H75V408ZM406 36Q406 54 419 67Q432 80 450 80Q468 80 481 67Q494 54 494 36Q494 18 481 5Q468 -8 450 -8Q432 -8 419 5Q406 18 406 36ZM494 714Q494 696 481 683Q468 670 450 670Q432 670 419 683Q406 696 406 714Q406 732 419 745Q432 758 450 758Q468 758 481 745Q494 732 494 714Z" glyph-name="divide.cap" horiz-adv-x="900" unicode="&#58772;" /><glyph d="M384 760Q458 757 503 736.5Q548 716 565 700L527 645Q509 659 472.5 676.5Q436 694 376 696L342 415Q390 408 429 395Q468 382 494 359.5Q520 337 531.5 302.5Q543 268 537 216Q533 181 519 144Q505 107 476.5 75.5Q448 44 402.5 21.5Q357 -1 289 -7L275 -125H209L223 -10Q198 -9 169 -4.5Q140 0 112.5 8Q85 16 60.5 28Q36 40 19 56L58 111Q79 94 122 74.5Q165 55 231 53L269 366Q217 375 181 389Q145 403 123 425Q101 447 93.5 477.5Q86 508 91 551Q95 581 107 614Q119 647 144.5 676.5Q170 706 212 728Q254 750 317 757L332 875H398ZM464 216Q469 252 464 276.5Q459 301 443 316.5Q427 332 400 341Q373 350 334 356L297 56Q341 61 371 75.5Q401 90 420.5 111.5Q440 133 450 159.5Q460 186 464 216ZM160 550Q156 517 161.5 495.5Q167 474 182 460Q197 446 221 438Q245 430 276 425L309 694Q269 689 242 675.5Q215 662 197.5 642.5Q180 623 171.5 599.5Q163 576 160 550Z" glyph-name="dollar" horiz-adv-x="595" unicode="$" /><glyph d="M314 509Q370 506 404 490Q438 474 454 459L417 406Q408 414 381 428Q354 442 306 446L286 287Q376 275 408.5 241Q441 207 433 145Q430 117 418 91.5Q406 66 384.5 45.5Q363 25 330 11.5Q297 -2 250 -7L236 -125H170L184 -9Q116 -7 77.5 12.5Q39 32 22 48L59 101Q64 97 74 89.5Q84 82 100.5 74.5Q117 67 139.5 61Q162 55 191 53L213 228Q125 239 93 271Q61 303 68 363Q76 420 117.5 459.5Q159 499 247 507L262 625H328ZM360 141Q365 177 347.5 194.5Q330 212 278 220L258 56Q311 63 333 84.5Q355 106 360 141ZM142 368Q138 336 156.5 319.5Q175 303 221 295L240 445Q189 440 168 422Q147 404 142 368Z" glyph-name="dollar.OP" horiz-adv-x="500" unicode="&#59806;" /><glyph d="M290 650Q290 668 303 681Q316 694 334 694Q352 694 365 681Q378 668 378 650Q378 632 365 619Q352 606 334 606Q316 606 303 619Q290 632 290 650Z" glyph-name="dotaccent" horiz-adv-x="570" unicode="&#729;" /><glyph d="M315 850Q315 868 328 881Q341 894 359 894Q377 894 390 881Q403 868 403 850Q403 832 390 819Q377 806 359 806Q341 806 328 819Q315 832 315 850Z" glyph-name="dotaccent.cap" horiz-adv-x="570" unicode="&#58408;" /><glyph d="M119 0H51L112 500H180Z" glyph-name="dotlessi" horiz-adv-x="230" unicode="&#305;" /><glyph d="M-85 -198Q-34 -192 -0.5 -166Q33 -140 41 -80L112 500H180L107 -91Q102 -131 85.5 -162Q69 -193 43.5 -214Q18 -235 -14.5 -246.5Q-47 -258 -84 -260Z" glyph-name="dotlessj" horiz-adv-x="230" unicode="&#567;" /><glyph d="M31 -206 157 816H228L102 -206ZM161 -206 287 816H358L232 -206Z" glyph-name="doublebar" horiz-adv-x="375" unicode="&#8214;" /><glyph d="M50 -50 155 800H226L121 -50ZM180 -50 285 800H356L251 -50Z" glyph-name="doublebar.cap" horiz-adv-x="375" unicode="&#58468;" /><glyph d="M50 -50 124 550H195L121 -50ZM180 -50 254 550H325L251 -50Z" glyph-name="doublebar.smcp" horiz-adv-x="375" unicode="&#58474;" /><glyph d="M237 550 182 750H262L287 550ZM357 550 302 750H382L407 550Z" glyph-name="doublegrave" horiz-adv-x="570" unicode="&#58386;" /><glyph d="M388 800 310 900H400L438 800ZM268 800 190 900H280L318 800Z" glyph-name="doublegrave.cap" horiz-adv-x="570" unicode="&#58412;" /><glyph d="M268 275Q305 275 329.5 281.5Q354 288 368.5 300Q383 312 390 328Q397 344 399 362Q401 380 398.5 396Q396 412 384 423.5Q372 435 349.5 441.5Q327 448 290 448Q247 448 218 433.5Q189 419 171 395Q153 371 143 340Q133 309 128 275ZM121 218Q119 185 121.5 155Q124 125 137 102Q150 79 177 65.5Q204 52 250 52Q301 52 339.5 68.5Q378 85 401 102L426 49Q392 24 347 7Q302 -10 246 -10Q179 -10 138.5 10.5Q98 31 77.5 66Q57 101 53 148.5Q49 196 55 250Q62 304 77 351.5Q92 399 119.5 434Q147 469 190.5 489.5Q234 510 297 510Q350 510 384 497Q418 484 437 463Q456 442 462 415.5Q468 389 465 362Q462 335 449.5 309.5Q437 284 412.5 263.5Q388 243 351 230.5Q314 218 261 218Z" glyph-name="e" horiz-adv-x="510" unicode="e" /><glyph d="M402 225H140L120 63H417L410 0H45L106 500H471L463 437H166L148 288H410Z" glyph-name="e.smcp" horiz-adv-x="500" unicode="&#57861;" /><glyph d="M277 550 352 750H432L327 550ZM268 275Q305 275 329.5 281.5Q354 288 368.5 300Q383 312 390 328Q397 344 399 362Q401 380 398.5 396Q396 412 384 423.5Q372 435 349.5 441.5Q327 448 290 448Q247 448 218 433.5Q189 419 171 395Q153 371 143 340Q133 309 128 275ZM121 218Q119 185 121.5 155Q124 125 137 102Q150 79 177 65.5Q204 52 250 52Q301 52 339.5 68.5Q378 85 401 102L426 49Q392 24 347 7Q302 -10 246 -10Q179 -10 138.5 10.5Q98 31 77.5 66Q57 101 53 148.5Q49 196 55 250Q62 304 77 351.5Q92 399 119.5 434Q147 469 190.5 489.5Q234 510 297 510Q350 510 384 497Q418 484 437 463Q456 442 462 415.5Q468 389 465 362Q462 335 449.5 309.5Q437 284 412.5 263.5Q388 243 351 230.5Q314 218 261 218Z" glyph-name="eacute" horiz-adv-x="510" unicode="&#233;" /><glyph d="M277 550 352 750H432L327 550ZM402 225H140L120 63H417L410 0H45L106 500H471L463 437H166L148 288H410Z" glyph-name="eacute.smcp" horiz-adv-x="500" unicode="&#57917;" /><glyph d="M302 550Q131 550 152 750H203Q199 716 201.5 690Q204 664 216 646Q228 628 250.5 619Q273 610 309 610Q345 610 370 619Q395 628 411 646Q427 664 436.5 690Q446 716 451 750H502Q472 550 302 550ZM268 275Q305 275 329.5 281.5Q354 288 368.5 300Q383 312 390 328Q397 344 399 362Q401 380 398.5 396Q396 412 384 423.5Q372 435 349.5 441.5Q327 448 290 448Q247 448 218 433.5Q189 419 171 395Q153 371 143 340Q133 309 128 275ZM121 218Q119 185 121.5 155Q124 125 137 102Q150 79 177 65.5Q204 52 250 52Q301 52 339.5 68.5Q378 85 401 102L426 49Q392 24 347 7Q302 -10 246 -10Q179 -10 138.5 10.5Q98 31 77.5 66Q57 101 53 148.5Q49 196 55 250Q62 304 77 351.5Q92 399 119.5 434Q147 469 190.5 489.5Q234 510 297 510Q350 510 384 497Q418 484 437 463Q456 442 462 415.5Q468 389 465 362Q462 335 449.5 309.5Q437 284 412.5 263.5Q388 243 351 230.5Q314 218 261 218Z" glyph-name="ebreve" horiz-adv-x="510" unicode="&#277;" /><glyph d="M302 550Q131 550 152 750H203Q199 716 201.5 690Q204 664 216 646Q228 628 250.5 619Q273 610 309 610Q345 610 370 619Q395 628 411 646Q427 664 436.5 690Q446 716 451 750H502Q472 550 302 550ZM402 225H140L120 63H417L410 0H45L106 500H471L463 437H166L148 288H410Z" glyph-name="ebreve.smcp" horiz-adv-x="500" unicode="&#57923;" /><glyph d="M512 750 342 550H262L142 750H197L309 609L457 750ZM268 275Q305 275 329.5 281.5Q354 288 368.5 300Q383 312 390 328Q397 344 399 362Q401 380 398.5 396Q396 412 384 423.5Q372 435 349.5 441.5Q327 448 290 448Q247 448 218 433.5Q189 419 171 395Q153 371 143 340Q133 309 128 275ZM121 218Q119 185 121.5 155Q124 125 137 102Q150 79 177 65.5Q204 52 250 52Q301 52 339.5 68.5Q378 85 401 102L426 49Q392 24 347 7Q302 -10 246 -10Q179 -10 138.5 10.5Q98 31 77.5 66Q57 101 53 148.5Q49 196 55 250Q62 304 77 351.5Q92 399 119.5 434Q147 469 190.5 489.5Q234 510 297 510Q350 510 384 497Q418 484 437 463Q456 442 462 415.5Q468 389 465 362Q462 335 449.5 309.5Q437 284 412.5 263.5Q388 243 351 230.5Q314 218 261 218Z" glyph-name="ecaron" horiz-adv-x="510" unicode="&#283;" /><glyph d="M512 750 342 550H262L142 750H197L309 609L457 750ZM402 225H140L120 63H417L410 0H45L106 500H471L463 437H166L148 288H410Z" glyph-name="ecaron.smcp" horiz-adv-x="500" unicode="&#57921;" /><glyph d="M432 550 319 691 172 550H117L287 750H367L487 550ZM268 275Q305 275 329.5 281.5Q354 288 368.5 300Q383 312 390 328Q397 344 399 362Q401 380 398.5 396Q396 412 384 423.5Q372 435 349.5 441.5Q327 448 290 448Q247 448 218 433.5Q189 419 171 395Q153 371 143 340Q133 309 128 275ZM121 218Q119 185 121.5 155Q124 125 137 102Q150 79 177 65.5Q204 52 250 52Q301 52 339.5 68.5Q378 85 401 102L426 49Q392 24 347 7Q302 -10 246 -10Q179 -10 138.5 10.5Q98 31 77.5 66Q57 101 53 148.5Q49 196 55 250Q62 304 77 351.5Q92 399 119.5 434Q147 469 190.5 489.5Q234 510 297 510Q350 510 384 497Q418 484 437 463Q456 442 462 415.5Q468 389 465 362Q462 335 449.5 309.5Q437 284 412.5 263.5Q388 243 351 230.5Q314 218 261 218Z" glyph-name="ecircumflex" horiz-adv-x="510" unicode="&#234;" /><glyph d="M432 550 319 691 172 550H117L287 750H367L487 550ZM402 225H140L120 63H417L410 0H45L106 500H471L463 437H166L148 288H410Z" glyph-name="ecircumflex.smcp" horiz-adv-x="500" unicode="&#57919;" /><glyph d="M268 275Q305 275 329.5 281.5Q354 288 368.5 300Q383 312 390 328Q397 344 399 362Q401 380 398.5 396Q396 412 384 423.5Q372 435 349.5 441.5Q327 448 290 448Q247 448 218 433.5Q189 419 171 395Q153 371 143 340Q133 309 128 275ZM121 218Q119 185 121.5 155Q124 125 137 102Q150 79 177 65.5Q204 52 250 52Q301 52 339.5 68.5Q378 85 401 102L426 49Q392 24 347 7Q302 -10 246 -10Q179 -10 138.5 10.5Q98 31 77.5 66Q57 101 53 148.5Q49 196 55 250Q62 304 77 351.5Q92 399 119.5 434Q147 469 190.5 489.5Q234 510 297 510Q350 510 384 497Q418 484 437 463Q456 442 462 415.5Q468 389 465 362Q462 335 449.5 309.5Q437 284 412.5 263.5Q388 243 351 230.5Q314 218 261 218ZM175 650Q175 668 188 681Q201 694 219 694Q237 694 250 681Q263 668 263 650Q263 632 250 619Q237 606 219 606Q201 606 188 619Q175 632 175 650ZM365 650Q365 668 378 681Q391 694 409 694Q427 694 440 681Q453 668 453 650Q453 632 440 619Q427 606 409 606Q391 606 378 619Q365 632 365 650Z" glyph-name="edieresis" horiz-adv-x="510" unicode="&#235;" /><glyph d="M402 225H140L120 63H417L410 0H45L106 500H471L463 437H166L148 288H410ZM175 650Q175 668 188 681Q201 694 219 694Q237 694 250 681Q263 668 263 650Q263 632 250 619Q237 606 219 606Q201 606 188 619Q175 632 175 650ZM365 650Q365 668 378 681Q391 694 409 694Q427 694 440 681Q453 668 453 650Q453 632 440 619Q427 606 409 606Q391 606 378 619Q365 632 365 650Z" glyph-name="edieresis.smcp" horiz-adv-x="500" unicode="&#57904;" /><glyph d="M268 275Q305 275 329.5 281.5Q354 288 368.5 300Q383 312 390 328Q397 344 399 362Q401 380 398.5 396Q396 412 384 423.5Q372 435 349.5 441.5Q327 448 290 448Q247 448 218 433.5Q189 419 171 395Q153 371 143 340Q133 309 128 275ZM121 218Q119 185 121.5 155Q124 125 137 102Q150 79 177 65.5Q204 52 250 52Q301 52 339.5 68.5Q378 85 401 102L426 49Q392 24 347 7Q302 -10 246 -10Q179 -10 138.5 10.5Q98 31 77.5 66Q57 101 53 148.5Q49 196 55 250Q62 304 77 351.5Q92 399 119.5 434Q147 469 190.5 489.5Q234 510 297 510Q350 510 384 497Q418 484 437 463Q456 442 462 415.5Q468 389 465 362Q462 335 449.5 309.5Q437 284 412.5 263.5Q388 243 351 230.5Q314 218 261 218ZM270 650Q270 668 283 681Q296 694 314 694Q332 694 345 681Q358 668 358 650Q358 632 345 619Q332 606 314 606Q296 606 283 619Q270 632 270 650Z" glyph-name="edotaccent" horiz-adv-x="510" unicode="&#279;" /><glyph d="M402 225H140L120 63H417L410 0H45L106 500H471L463 437H166L148 288H410ZM270 650Q270 668 283 681Q296 694 314 694Q332 694 345 681Q358 668 358 650Q358 632 345 619Q332 606 314 606Q296 606 283 619Q270 632 270 650Z" glyph-name="edotaccent.smcp" horiz-adv-x="500" unicode="&#57926;" /><glyph d="M277 550 222 750H302L327 550ZM268 275Q305 275 329.5 281.5Q354 288 368.5 300Q383 312 390 328Q397 344 399 362Q401 380 398.5 396Q396 412 384 423.5Q372 435 349.5 441.5Q327 448 290 448Q247 448 218 433.5Q189 419 171 395Q153 371 143 340Q133 309 128 275ZM121 218Q119 185 121.5 155Q124 125 137 102Q150 79 177 65.5Q204 52 250 52Q301 52 339.5 68.5Q378 85 401 102L426 49Q392 24 347 7Q302 -10 246 -10Q179 -10 138.5 10.5Q98 31 77.5 66Q57 101 53 148.5Q49 196 55 250Q62 304 77 351.5Q92 399 119.5 434Q147 469 190.5 489.5Q234 510 297 510Q350 510 384 497Q418 484 437 463Q456 442 462 415.5Q468 389 465 362Q462 335 449.5 309.5Q437 284 412.5 263.5Q388 243 351 230.5Q314 218 261 218Z" glyph-name="egrave" horiz-adv-x="510" unicode="&#232;" /><glyph d="M277 550 222 750H302L327 550ZM402 225H140L120 63H417L410 0H45L106 500H471L463 437H166L148 288H410Z" glyph-name="egrave.smcp" horiz-adv-x="500" unicode="&#57918;" /><glyph d="M288 358Q208 358 162.5 321Q117 284 108 209Q105 180 109.5 152Q114 124 130.5 102Q147 80 176 66.5Q205 53 251 53Q297 53 329.5 66.5Q362 80 384 102Q406 124 417.5 152Q429 180 432 209Q441 284 404.5 321Q368 358 288 358ZM243 -10Q180 -10 137.5 8Q95 26 70.5 56Q46 86 38 125.5Q30 165 35 208Q39 239 50.5 269Q62 299 81 324.5Q100 350 125 369Q150 388 181 395Q136 415 114 460Q92 505 99 559Q104 599 120 635.5Q136 672 165 699.5Q194 727 237 743.5Q280 760 338 760Q397 760 435.5 743.5Q474 727 496 699.5Q518 672 525 635.5Q532 599 527 559Q520 505 487 460Q454 415 405 395Q434 388 455 369Q476 350 488 324.5Q500 299 504.5 269Q509 239 505 208Q500 165 482 125.5Q464 86 432 56Q400 26 353 8Q306 -10 243 -10ZM296 420Q334 420 362.5 432.5Q391 445 410.5 465Q430 485 440.5 509.5Q451 534 454 559Q457 585 453.5 609.5Q450 634 435.5 653.5Q421 673 395.5 685Q370 697 330 697Q290 697 261.5 685Q233 673 214.5 653.5Q196 634 185.5 609.5Q175 585 172 559Q169 534 173.5 509.5Q178 485 192.5 465Q207 445 232.5 432.5Q258 420 296 420Z" glyph-name="eight" horiz-adv-x="550" unicode="8" /><glyph d="M288 358Q208 358 162.5 321Q117 284 108 209Q105 180 109.5 152Q114 124 130.5 102Q147 80 176 66.5Q205 53 251 53Q297 53 329.5 66.5Q362 80 384 102Q406 124 417.5 152Q429 180 432 209Q441 284 404.5 321Q368 358 288 358ZM243 -10Q180 -10 137.5 8Q95 26 70.5 56Q46 86 38 125.5Q30 165 35 208Q39 239 50.5 269Q62 299 81 324.5Q100 350 125 369Q150 388 181 395Q136 415 114 460Q92 505 99 559Q104 599 120 635.5Q136 672 165 699.5Q194 727 237 743.5Q280 760 338 760Q397 760 435.5 743.5Q474 727 496 699.5Q518 672 525 635.5Q532 599 527 559Q520 505 487 460Q454 415 405 395Q434 388 455 369Q476 350 488 324.5Q500 299 504.5 269Q509 239 505 208Q500 165 482 125.5Q464 86 432 56Q400 26 353 8Q306 -10 243 -10ZM296 420Q334 420 362.5 432.5Q391 445 410.5 465Q430 485 440.5 509.5Q451 534 454 559Q457 585 453.5 609.5Q450 634 435.5 653.5Q421 673 395.5 685Q370 697 330 697Q290 697 261.5 685Q233 673 214.5 653.5Q196 634 185.5 609.5Q175 585 172 559Q169 534 173.5 509.5Q178 485 192.5 465Q207 445 232.5 432.5Q258 420 296 420Z" glyph-name="eight.LT" horiz-adv-x="550" unicode="&#58696;" /><glyph d="M288 358Q208 358 162.5 321Q117 284 108 209Q105 180 109.5 152Q114 124 130.5 102Q147 80 176 66.5Q205 53 251 53Q297 53 329.5 66.5Q362 80 384 102Q406 124 417.5 152Q429 180 432 209Q441 284 404.5 321Q368 358 288 358ZM243 -10Q180 -10 137.5 8Q95 26 70.5 56Q46 86 38 125.5Q30 165 35 208Q39 239 50.5 269Q62 299 81 324.5Q100 350 125 369Q150 388 181 395Q136 415 114 460Q92 505 99 559Q104 599 120 635.5Q136 672 165 699.5Q194 727 237 743.5Q280 760 338 760Q397 760 435.5 743.5Q474 727 496 699.5Q518 672 525 635.5Q532 599 527 559Q520 505 487 460Q454 415 405 395Q434 388 455 369Q476 350 488 324.5Q500 299 504.5 269Q509 239 505 208Q500 165 482 125.5Q464 86 432 56Q400 26 353 8Q306 -10 243 -10ZM296 420Q334 420 362.5 432.5Q391 445 410.5 465Q430 485 440.5 509.5Q451 534 454 559Q457 585 453.5 609.5Q450 634 435.5 653.5Q421 673 395.5 685Q370 697 330 697Q290 697 261.5 685Q233 673 214.5 653.5Q196 634 185.5 609.5Q175 585 172 559Q169 534 173.5 509.5Q178 485 192.5 465Q207 445 232.5 432.5Q258 420 296 420Z" glyph-name="eight.OP" horiz-adv-x="550" unicode="&#58707;" /><glyph d="M215 170Q301 170 333 138Q365 106 358 52Q354 24 339.5 3Q325 -18 307 -27Q332 -38 345.5 -66.5Q359 -95 354 -131Q347 -186 302.5 -222.5Q258 -259 163 -259Q115 -259 83 -249.5Q51 -240 31.5 -222.5Q12 -205 5.5 -181.5Q-1 -158 2 -131Q7 -95 27 -66.5Q47 -38 75 -27Q60 -18 50 3Q40 24 44 52Q51 106 90.5 138Q130 170 215 170ZM170 -198Q230 -198 256.5 -177.5Q283 -157 287 -129Q290 -102 268.5 -82Q247 -62 187 -62Q127 -62 100.5 -82Q74 -102 71 -129Q67 -157 88.5 -177.5Q110 -198 170 -198ZM208 108Q154 108 132.5 91Q111 74 109 52Q106 30 123 13Q140 -4 194 -4Q248 -4 269 12.5Q290 29 293 52Q295 74 278.5 91Q262 108 208 108Z" glyph-name="eight.inf" horiz-adv-x="450" unicode="&#58745;" /><glyph d="M262 755 211 340H143L185 677L85 655L91 702L237 755ZM612 755 561 340H493L535 677L435 655L441 702L587 755ZM486 0 1109 750H1186L563 0ZM1220 415 1170 0H1102L1143 337L1043 315L1049 362L1195 415ZM1578 358Q1519 358 1480 326Q1441 294 1428 219Q1451 239 1484.5 251Q1518 263 1561 263Q1651 263 1685.5 226.5Q1720 190 1712 129Q1704 66 1658 28.5Q1612 -9 1521 -9Q1429 -9 1387.5 42.5Q1346 94 1359 203Q1373 315 1432.5 367.5Q1492 420 1586 420Q1641 420 1675 407Q1709 394 1734 374L1697 320Q1676 339 1648.5 348.5Q1621 358 1578 358ZM1646 129Q1651 165 1628 182.5Q1605 200 1550 200Q1503 200 1471 183.5Q1439 167 1425 139Q1430 92 1455.5 72Q1481 52 1529 52Q1637 52 1646 129Z" glyph-name="elevensixteenths" horiz-adv-x="1800" unicode="&#61984;" /><glyph d="M262 755 211 340H143L185 677L85 655L91 702L237 755ZM612 755 561 340H493L535 677L435 655L441 702L587 755ZM486 0 1109 750H1186L563 0ZM1149 -9Q1102 -9 1060.5 3Q1019 15 989 38L1028 92Q1054 72 1088.5 62Q1123 52 1158 52Q1218 52 1249.5 70Q1281 88 1285 120Q1290 157 1273 171.5Q1256 186 1203 186H1086L1093 244H1209Q1254 244 1271 259Q1288 274 1292 303Q1295 329 1271 343.5Q1247 358 1193 358Q1148 358 1117 348Q1086 338 1061 322L1037 376Q1067 396 1108.5 408Q1150 420 1200 420Q1371 420 1357 303Q1352 271 1336.5 251Q1321 231 1304 223Q1327 214 1342.5 188.5Q1358 163 1353 119Q1346 62 1295.5 26.5Q1245 -9 1149 -9ZM1441 1 1447 51Q1536 101 1590.5 135.5Q1645 170 1676.5 195.5Q1708 221 1720 241.5Q1732 262 1735 286Q1739 318 1718 337.5Q1697 357 1640 357Q1606 357 1572.5 347Q1539 337 1514 320L1488 374Q1520 396 1561.5 408Q1603 420 1647 420Q1695 420 1726 409Q1757 398 1774.5 379.5Q1792 361 1797.5 336.5Q1803 312 1800 285Q1796 254 1776 226Q1756 198 1723 171Q1690 144 1645 117Q1600 90 1547 61H1789L1782 1Z" glyph-name="eleventhirtyseconds" horiz-adv-x="1900" /><glyph d="M80 39Q80 57 93 70Q106 83 124 83Q142 83 155 70Q168 57 168 39Q168 21 155 8Q142 -5 124 -5Q106 -5 93 8Q80 21 80 39ZM410 39Q410 57 423 70Q436 83 454 83Q472 83 485 70Q498 57 498 39Q498 21 485 8Q472 -5 454 -5Q436 -5 423 8Q410 21 410 39ZM740 39Q740 57 753 70Q766 83 784 83Q802 83 815 70Q828 57 828 39Q828 21 815 8Q802 -5 784 -5Q766 -5 753 8Q740 21 740 39Z" glyph-name="ellipsis" horiz-adv-x="960" unicode="&#8230;" /><glyph d="M181 680H455L448 620H174ZM268 275Q305 275 329.5 281.5Q354 288 368.5 300Q383 312 390 328Q397 344 399 362Q401 380 398.5 396Q396 412 384 423.5Q372 435 349.5 441.5Q327 448 290 448Q247 448 218 433.5Q189 419 171 395Q153 371 143 340Q133 309 128 275ZM121 218Q119 185 121.5 155Q124 125 137 102Q150 79 177 65.5Q204 52 250 52Q301 52 339.5 68.5Q378 85 401 102L426 49Q392 24 347 7Q302 -10 246 -10Q179 -10 138.5 10.5Q98 31 77.5 66Q57 101 53 148.5Q49 196 55 250Q62 304 77 351.5Q92 399 119.5 434Q147 469 190.5 489.5Q234 510 297 510Q350 510 384 497Q418 484 437 463Q456 442 462 415.5Q468 389 465 362Q462 335 449.5 309.5Q437 284 412.5 263.5Q388 243 351 230.5Q314 218 261 218Z" glyph-name="emacron" horiz-adv-x="510" unicode="&#275;" /><glyph d="M181 680H455L448 620H174ZM402 225H140L120 63H417L410 0H45L106 500H471L463 437H166L148 288H410Z" glyph-name="emacron.smcp" horiz-adv-x="500" unicode="&#57922;" /><glyph d="M958 272H48L56 338H966Z" glyph-name="emdash" horiz-adv-x="1000" unicode="&#8212;" /><glyph d="M966 342H56L65 408H975Z" glyph-name="emdash.cap" horiz-adv-x="1000" unicode="&#58502;" /><glyph d="M951 217H41L49 283H959Z" glyph-name="emdash.smcp" horiz-adv-x="1000" unicode="&#60324;" /><glyph glyph-name="emspace" horiz-adv-x="1000" unicode="&#8195;" /><glyph d="M458 272H48L56 338H466Z" glyph-name="endash" horiz-adv-x="500" unicode="&#8211;" /><glyph d="M466 342H56L65 408H475Z" glyph-name="endash.cap" horiz-adv-x="500" unicode="&#58500;" /><glyph d="M451 217H41L49 283H459Z" glyph-name="endash.smcp" horiz-adv-x="500" unicode="&#60323;" /><glyph d="M205 -198Q257 -192 289.5 -165Q322 -138 330 -78L352 102L384 363Q390 412 366 430Q342 448 295 448Q246 448 215.5 440Q185 432 156 416L105 0H35L96 500H135L145 458Q221 510 302 510Q392 510 427 471Q462 432 454 360L410 0H409L398 -91Q388 -171 334.5 -213.5Q281 -256 206 -260Z" glyph-name="eng" horiz-adv-x="500" unicode="&#331;" /><glyph d="M260 -200Q312 -194 346.5 -168Q381 -142 388 -82L401 21L158 376L113 0H45L106 500H155L413 124L458 500H526L476 90L475 86L465 0H464L453 -91Q443 -171 389.5 -213.5Q336 -256 261 -260Z" glyph-name="eng.smcp" horiz-adv-x="570" unicode="&#58155;" /><glyph glyph-name="enspace" horiz-adv-x="500" unicode="&#8194;" /><glyph d="M121 218Q119 185 121.5 155Q124 125 137 102Q150 79 177 65.5Q204 52 250 52Q301 52 339.5 68.5Q378 85 401 102L426 49Q405 33 379 20.5Q353 8 324 0Q271 -27 238 -65Q205 -103 200 -142Q197 -165 207.5 -182Q218 -199 250 -199Q275 -199 292.5 -190.5Q310 -182 319 -176L339 -220Q321 -233 297 -242.5Q273 -252 235 -252Q184 -252 158 -226Q132 -200 137 -155Q142 -114 165.5 -77Q189 -40 230 -10Q169 -7 131.5 14Q94 35 75 70Q56 105 52.5 151.5Q49 198 55 250Q62 304 77 351.5Q92 399 119.5 434Q147 469 190.5 489.5Q234 510 297 510Q350 510 384 497Q418 484 437 463Q456 442 462 415.5Q468 389 465 362Q462 335 449.5 309.5Q437 284 412.5 263.5Q388 243 351 230.5Q314 218 261 218ZM268 275Q305 275 329.5 281.5Q354 288 368.5 300Q383 312 390 328Q397 344 399 362Q401 380 398.5 396Q396 412 384 423.5Q372 435 349.5 441.5Q327 448 290 448Q247 448 218 433.5Q189 419 171 395Q153 371 143 340Q133 309 128 275Z" glyph-name="eogonek" horiz-adv-x="510" unicode="&#281;" /><glyph d="M286 -142Q283 -165 293.5 -182Q304 -199 336 -199Q361 -199 378.5 -190.5Q396 -182 405 -176L425 -220Q407 -233 383 -242.5Q359 -252 321 -252Q270 -252 244 -226Q218 -200 223 -155Q228 -111 255.5 -71.5Q283 -32 330 0H45L106 500H471L463 437H166L148 288H410L402 225H140L120 63H417L410 0Q357 -27 324 -65Q291 -103 286 -142Z" glyph-name="eogonek.smcp" horiz-adv-x="500" unicode="&#57929;" /><glyph d="M450 408H50V474H450ZM450 276H50V342H450Z" glyph-name="equal" horiz-adv-x="500" unicode="=" /><glyph d="M825 508V442H75V508ZM825 308V242H75V308Z" glyph-name="equal.cap" horiz-adv-x="900" unicode="&#58773;" /><glyph d="M12 -77H312L304 -143H4ZM28 55H328L320 -11H20Z" glyph-name="equal.inf" horiz-adv-x="404" unicode="&#58749;" /><glyph d="M450 474H50V540H450ZM450 342H50V408H450ZM450 210H50V276H450Z" glyph-name="equivalence" horiz-adv-x="500" unicode="&#8801;" /><glyph d="M825 608V542H75V608ZM825 408V342H75V408ZM825 208V142H75V208Z" glyph-name="equivalence.cap" horiz-adv-x="900" unicode="&#62000;" /><glyph d="M385 760Q478 760 544 727.5Q610 695 652.5 641Q695 587 715 518Q735 449 735 375V342H194V126Q229 91 276.5 72.5Q324 54 385 54Q470 54 528.5 89Q587 124 620 187H700Q682 144 653.5 108Q625 72 586 45.5Q547 19 497 4.5Q447 -10 385 -10Q293 -10 227 22.5Q161 55 118 109Q75 163 55 232.5Q35 302 35 375Q35 449 55 518Q75 587 118 641Q161 695 227 727.5Q293 760 385 760ZM385 696Q324 696 276.5 677.5Q229 659 194 624V408H576V624Q541 659 493.5 677.5Q446 696 385 696Z" glyph-name="estimated" horiz-adv-x="770" unicode="&#8494;" /><glyph d="M479 691 398 652Q421 623 442 584.5Q463 546 477.5 497Q492 448 497.5 386.5Q503 325 495 250Q488 193 472 145Q456 97 426.5 62.5Q397 28 352.5 9Q308 -10 243 -10Q179 -10 139 9Q99 28 78 62.5Q57 97 52.5 145Q48 193 55 250Q62 307 78.5 355Q95 403 124 437.5Q153 472 198 491Q243 510 307 510Q338 510 363.5 503Q389 496 410 484Q398 524 378 558Q358 592 334 621L171 543L178 602L297 659Q265 689 232.5 711.5Q200 734 174 750H288Q302 740 322 725.5Q342 711 362 690L487 750ZM425 250Q430 292 429.5 328.5Q429 365 416.5 391.5Q404 418 376.5 433Q349 448 300 448Q251 448 219 433Q187 418 168 391.5Q149 365 139.5 328.5Q130 292 125 250Q120 208 120.5 171.5Q121 135 133.5 108.5Q146 82 174 67Q202 52 251 52Q300 52 331 67Q362 82 381.5 108.5Q401 135 410.5 171.5Q420 208 425 250Z" glyph-name="eth" horiz-adv-x="550" unicode="&#240;" /><glyph d="M85 0 112 221H22L29 278H119L146 500H314Q379 500 422.5 482.5Q466 465 491 432.5Q516 400 524 353.5Q532 307 525 250Q518 193 498.5 146.5Q479 100 446 67.5Q413 35 365.5 17.5Q318 0 253 0ZM257 63Q307 63 342 76.5Q377 90 400 114.5Q423 139 435.5 173.5Q448 208 453 250Q458 292 454 326.5Q450 361 433 385.5Q416 410 384.5 423.5Q353 437 303 437H206L186 278H305L298 221H179L160 63Z" glyph-name="eth.smcp" horiz-adv-x="585" unicode="&#58156;" /><glyph d="M70 210 107 750H207L110 210ZM25 39Q25 57 38 70Q51 83 69 83Q87 83 100 70Q113 57 113 39Q113 21 100 8Q87 -5 69 -5Q51 -5 38 8Q25 21 25 39Z" glyph-name="exclam" horiz-adv-x="190" unicode="!" /><glyph d="M64 160 81 500H171L104 160ZM25 39Q25 57 38 70Q51 83 69 83Q87 83 100 70Q113 57 113 39Q113 21 100 8Q87 -5 69 -5Q51 -5 38 8Q25 21 25 39Z" glyph-name="exclam.smcp" horiz-adv-x="190" unicode="&#58434;" /><glyph d="M120 290 84 -250H-16L80 290ZM77 461Q77 479 90 492Q103 505 121 505Q139 505 152 492Q165 479 165 461Q165 443 152 430Q139 417 121 417Q103 417 90 430Q77 443 77 461Z" glyph-name="exclamdown" horiz-adv-x="190" unicode="&#161;" /><glyph d="M151 540 115 0H15L111 540ZM108 711Q108 729 121 742Q134 755 152 755Q170 755 183 742Q196 729 196 711Q196 693 183 680Q170 667 152 667Q134 667 121 680Q108 693 108 711Z" glyph-name="exclamdown.cap" horiz-adv-x="190" unicode="&#58433;" /><glyph d="M126 340 110 0H20L86 340ZM77 461Q77 479 90 492Q103 505 121 505Q139 505 152 492Q165 479 165 461Q165 443 152 430Q139 417 121 417Q103 417 90 430Q77 443 77 461Z" glyph-name="exclamdown.smcp" horiz-adv-x="190" unicode="&#58435;" /><glyph d="M400 674Q392 682 375.5 690Q359 698 336 698Q293 698 266 679.5Q239 661 232 610L219 500H376L369 445H212L127 -250H59L144 445H44L49 486L151 500L164 610Q173 682 216 721Q259 760 338 760Q380 760 404 748.5Q428 737 438 727Z" glyph-name="f" horiz-adv-x="375" unicode="f" /><glyph d="M392 225H140L113 0H45L106 500H461L453 437H166L148 288H400Z" glyph-name="f.smcp" horiz-adv-x="480" unicode="&#57862;" /><glyph d="M370 674Q362 682 345.5 690Q329 698 306 698Q263 698 236 679.5Q209 661 202 610L189 500H346L339 445H182L97 -250H29L114 445H14L19 486L121 500L134 610Q143 682 186 721Q229 760 308 760Q350 760 374 748.5Q398 737 408 727ZM464 0H396L457 500H525Z" glyph-name="f_dotlessi" horiz-adv-x="615" unicode="&#59248;" /><glyph d="M400 674Q392 682 375.5 690Q359 698 336 698Q293 698 266 679.5Q239 661 232 610L219 500H376L369 445H212L127 -250H59L144 445H44L49 486L151 500L164 610Q173 682 216 721Q259 760 338 760Q380 760 404 748.5Q428 737 438 727ZM260 850Q260 868 273 881Q286 894 304 894Q322 894 335 881Q348 868 348 850Q348 832 335 819Q322 806 304 806Q286 806 273 819Q260 832 260 850Z" glyph-name="fdotaccent" horiz-adv-x="375" unicode="&#7711;" /><glyph d="M392 225H140L113 0H45L106 500H461L453 437H166L148 288H400ZM270 650Q270 668 283 681Q296 694 314 694Q332 694 345 681Q358 668 358 650Q358 632 345 619Q332 606 314 606Q296 606 283 619Q270 632 270 650Z" glyph-name="fdotaccent.smcp" horiz-adv-x="480" /><glyph d="M370 674Q362 682 345.5 690Q329 698 306 698Q263 698 236 679.5Q209 661 202 610L189 500H346L339 445H182L97 -250H29L114 445H14L19 486L121 500L134 610Q143 682 186 721Q229 760 308 760Q350 760 374 748.5Q398 737 408 727ZM464 0H396L457 500H525ZM465 650Q465 668 478 681Q491 694 509 694Q527 694 540 681Q553 668 553 650Q553 632 540 619Q527 606 509 606Q491 606 478 619Q465 632 465 650Z" glyph-name="fi" horiz-adv-x="615" unicode="&#64257;" /><glyph d="M262 755 211 340H143L185 677L85 655L91 702L237 755ZM552 392Q668 392 677 462Q682 499 660 513.5Q638 528 575 528H418L446 750H767L759 689H503L491 587Q495 587 505 587.5Q515 588 528.5 588.5Q542 589 557 589.5Q572 590 586 590Q685 590 719 557.5Q753 525 745 462Q737 398 687.5 364.5Q638 331 542 331Q494 331 451.5 341.5Q409 352 377 377L415 431Q443 411 479 401.5Q515 392 551 392ZM586 0 1209 750H1286L663 0ZM1320 415 1270 0H1202L1243 337L1143 315L1149 362L1295 415ZM1678 358Q1619 358 1580 326Q1541 294 1528 219Q1551 239 1584.5 251Q1618 263 1661 263Q1751 263 1785.5 226.5Q1820 190 1812 129Q1804 66 1758 28.5Q1712 -9 1621 -9Q1529 -9 1487.5 42.5Q1446 94 1459 203Q1473 315 1532.5 367.5Q1592 420 1686 420Q1741 420 1775 407Q1809 394 1834 374L1797 320Q1776 339 1748.5 348.5Q1721 358 1678 358ZM1746 129Q1751 165 1728 182.5Q1705 200 1650 200Q1603 200 1571 183.5Q1539 167 1525 139Q1530 92 1555.5 72Q1581 52 1629 52Q1737 52 1746 129Z" glyph-name="fifteensixteenths" horiz-adv-x="1900" unicode="&#61986;" /><glyph d="M262 755 211 340H143L185 677L85 655L91 702L237 755ZM552 392Q668 392 677 462Q682 499 660 513.5Q638 528 575 528H418L446 750H767L759 689H503L491 587Q495 587 505 587.5Q515 588 528.5 588.5Q542 589 557 589.5Q572 590 586 590Q685 590 719 557.5Q753 525 745 462Q737 398 687.5 364.5Q638 331 542 331Q494 331 451.5 341.5Q409 352 377 377L415 431Q443 411 479 401.5Q515 392 551 392ZM586 0 1209 750H1286L663 0ZM1249 -9Q1202 -9 1160.5 3Q1119 15 1089 38L1128 92Q1154 72 1188.5 62Q1223 52 1258 52Q1318 52 1349.5 70Q1381 88 1385 120Q1390 157 1373 171.5Q1356 186 1303 186H1186L1193 244H1309Q1354 244 1371 259Q1388 274 1392 303Q1395 329 1371 343.5Q1347 358 1293 358Q1248 358 1217 348Q1186 338 1161 322L1137 376Q1167 396 1208.5 408Q1250 420 1300 420Q1471 420 1457 303Q1452 271 1436.5 251Q1421 231 1404 223Q1427 214 1442.5 188.5Q1458 163 1453 119Q1446 62 1395.5 26.5Q1345 -9 1249 -9ZM1541 1 1547 51Q1636 101 1690.5 135.5Q1745 170 1776.5 195.5Q1808 221 1820 241.5Q1832 262 1835 286Q1839 318 1818 337.5Q1797 357 1740 357Q1706 357 1672.5 347Q1639 337 1614 320L1588 374Q1620 396 1661.5 408Q1703 420 1747 420Q1795 420 1826 409Q1857 398 1874.5 379.5Q1892 361 1897.5 336.5Q1903 312 1900 285Q1896 254 1876 226Q1856 198 1823 171Q1790 144 1745 117Q1700 90 1647 61H1889L1882 1Z" glyph-name="fifteenthirtyseconds" horiz-adv-x="2000" /><glyph d="M558 272H48L56 338H566Z" glyph-name="figuredash" horiz-adv-x="600" unicode="&#8210;" /><glyph d="M536 342H56L65 408H545Z" glyph-name="figuredash.cap" horiz-adv-x="570" unicode="&#58503;" /><glyph d="M551 217H41L49 283H559Z" glyph-name="figuredash.smcp" horiz-adv-x="600" unicode="&#60325;" /><glyph glyph-name="figurespace" horiz-adv-x="570" unicode="&#8199;" /><glyph d="M217 53Q249 53 281 60.5Q313 68 340 87.5Q367 107 386.5 140.5Q406 174 412 226Q418 279 407.5 310Q397 341 374 357Q351 373 318 378Q285 383 246 383H119L164 750H517L509 688H224L194 443Q212 445 233.5 446.5Q255 448 278 448Q326 448 367 438Q408 428 436.5 403Q465 378 477.5 335Q490 292 482 226Q474 157 446.5 111.5Q419 66 381 39Q343 12 298 1Q253 -10 209 -10Q141 -10 98 8Q55 26 30 46L69 101Q90 85 128 69Q166 53 217 53Z" glyph-name="five" horiz-adv-x="550" unicode="5" /><glyph d="M217 53Q249 53 281 60.5Q313 68 340 87.5Q367 107 386.5 140.5Q406 174 412 226Q418 279 407.5 310Q397 341 374 357Q351 373 318 378Q285 383 246 383H119L164 750H517L509 688H224L194 443Q212 445 233.5 446.5Q255 448 278 448Q326 448 367 438Q408 428 436.5 403Q465 378 477.5 335Q490 292 482 226Q474 157 446.5 111.5Q419 66 381 39Q343 12 298 1Q253 -10 209 -10Q141 -10 98 8Q55 26 30 46L69 101Q90 85 128 69Q166 53 217 53Z" glyph-name="five.LT" horiz-adv-x="550" unicode="&#58693;" /><glyph d="M186 -197Q218 -197 250 -189.5Q282 -182 309 -162.5Q336 -143 355.5 -109.5Q375 -76 382 -24Q388 29 377.5 60Q367 91 343.5 107Q320 123 287 128Q254 133 215 133H88L133 500H486L478 438H193L163 193Q182 195 203 196.5Q224 198 247 198Q295 198 336 188Q377 178 405.5 153Q434 128 447 85Q460 42 452 -24Q443 -93 416 -138.5Q389 -184 350.5 -211Q312 -238 267.5 -249Q223 -260 179 -260Q111 -260 67.5 -242Q24 -224 -1 -204L38 -149Q60 -165 97.5 -181Q135 -197 186 -197Z" glyph-name="five.OP" horiz-adv-x="550" unicode="&#58688;" /><glyph d="M159 -198Q276 -198 285 -128Q290 -91 268 -76.5Q246 -62 183 -62H26L53 160H374L367 99H111L98 -3Q102 -3 112.5 -2.5Q123 -2 136.5 -1.5Q150 -1 165 -0.5Q180 0 194 0Q244 0 276 -8Q308 -16 326.5 -32.5Q345 -49 351 -73Q357 -97 353 -128Q345 -192 295.5 -225.5Q246 -259 150 -259Q102 -259 59 -248.5Q16 -238 -16 -213L23 -159Q51 -179 86.5 -188.5Q122 -198 158 -198Z" glyph-name="five.inf" horiz-adv-x="450" unicode="&#58742;" /><glyph d="M202 392Q318 392 327 462Q332 499 310 513.5Q288 528 225 528H68L96 750H417L409 689H153L141 587Q145 587 155 587.5Q165 588 178.5 588.5Q192 589 207 589.5Q222 590 236 590Q335 590 369 557.5Q403 525 395 462Q387 398 337.5 364.5Q288 331 192 331Q144 331 101.5 341.5Q59 352 27 377L65 431Q93 411 129 401.5Q165 392 201 392ZM236 0 859 750H936L313 0ZM970 415 920 0H852L893 337L793 315L799 362L945 415ZM1328 358Q1269 358 1230 326Q1191 294 1178 219Q1201 239 1234.5 251Q1268 263 1311 263Q1401 263 1435.5 226.5Q1470 190 1462 129Q1454 66 1408 28.5Q1362 -9 1271 -9Q1179 -9 1137.5 42.5Q1096 94 1109 203Q1123 315 1182.5 367.5Q1242 420 1336 420Q1391 420 1425 407Q1459 394 1484 374L1447 320Q1426 339 1398.5 348.5Q1371 358 1328 358ZM1396 129Q1401 165 1378 182.5Q1355 200 1300 200Q1253 200 1221 183.5Q1189 167 1175 139Q1180 92 1205.5 72Q1231 52 1279 52Q1387 52 1396 129Z" glyph-name="fivesixteenths" horiz-adv-x="1550" unicode="&#61975;" /><glyph d="M202 392Q318 392 327 462Q332 499 310 513.5Q288 528 225 528H68L96 750H417L409 689H153L141 587Q145 587 155 587.5Q165 588 178.5 588.5Q192 589 207 589.5Q222 590 236 590Q335 590 369 557.5Q403 525 395 462Q387 398 337.5 364.5Q288 331 192 331Q144 331 101.5 341.5Q59 352 27 377L65 431Q93 411 129 401.5Q165 392 201 392ZM236 0 859 750H936L313 0ZM899 -9Q852 -9 810.5 3Q769 15 739 38L778 92Q804 72 838.5 62Q873 52 908 52Q968 52 999.5 70Q1031 88 1035 120Q1040 157 1023 171.5Q1006 186 953 186H836L843 244H959Q1004 244 1021 259Q1038 274 1042 303Q1045 329 1021 343.5Q997 358 943 358Q898 358 867 348Q836 338 811 322L787 376Q817 396 858.5 408Q900 420 950 420Q1121 420 1107 303Q1102 271 1086.5 251Q1071 231 1054 223Q1077 214 1092.5 188.5Q1108 163 1103 119Q1096 62 1045.5 26.5Q995 -9 899 -9ZM1191 1 1197 51Q1286 101 1340.5 135.5Q1395 170 1426.5 195.5Q1458 221 1470 241.5Q1482 262 1485 286Q1489 318 1468 337.5Q1447 357 1390 357Q1356 357 1322.5 347Q1289 337 1264 320L1238 374Q1270 396 1311.5 408Q1353 420 1397 420Q1445 420 1476 409Q1507 398 1524.5 379.5Q1542 361 1547.5 336.5Q1553 312 1550 285Q1546 254 1526 226Q1506 198 1473 171Q1440 144 1395 117Q1350 90 1297 61H1539L1532 1Z" glyph-name="fivethirtyseconds" horiz-adv-x="1650" /><glyph d="M370 674Q362 682 345.5 690Q329 698 306 698Q263 698 236 679.5Q209 661 202 610L189 500H346L339 445H182L97 -250H29L114 445H14L19 486L121 500L134 610Q143 682 186 721Q229 760 308 760Q350 760 374 748.5Q398 737 408 727ZM464 0H396L488 750H556Z" glyph-name="fl" horiz-adv-x="615" unicode="&#64258;" /><glyph d="M436 760Q492 760 527 744Q562 728 582 705L543 650Q529 667 503.5 682.5Q478 698 427 698Q370 698 335.5 672Q301 646 295 595L283 500H521L513 438H275L222 0H155L208 438H88L96 500H216L228 595Q237 671 289.5 715.5Q342 760 436 760Z" glyph-name="florin" horiz-adv-x="600" unicode="&#402;" /><glyph d="M344 510Q403 510 437.5 493Q472 476 495 452L456 397Q437 417 409.5 432.5Q382 448 337 448Q270 448 241.5 420.5Q213 393 206 338L200 287H434L426 226H192L134 -250H64L122 226H32L40 287H130L136 337Q141 375 153 406.5Q165 438 189 461Q213 484 251 497Q289 510 344 510Z" glyph-name="florin.OP" horiz-adv-x="500" unicode="&#59809;" /><glyph d="M310 0 336 219H31L37 261L420 760H471L412 281H519L511 219H404L378 0ZM389 633 118 279 344 281Z" glyph-name="four" horiz-adv-x="550" unicode="4" /><glyph d="M310 0 336 219H31L37 261L420 760H471L412 281H519L511 219H404L378 0ZM389 633 118 279 344 281Z" glyph-name="four.LT" horiz-adv-x="550" unicode="&#58692;" /><glyph d="M279 -250 309 -1H4L10 41L389 510H440L385 61H492L484 -1H377L347 -250ZM360 391 92 59 317 61Z" glyph-name="four.OP" horiz-adv-x="550" unicode="&#58703;" /><glyph d="M276 -249H211L224 -141H-21L-16 -100L279 170H327L297 -80H382L374 -141H289ZM232 -80 250 71 85 -80Z" glyph-name="four.inf" horiz-adv-x="450" unicode="&#58741;" /><glyph glyph-name="fourperemspace" horiz-adv-x="250" unicode="&#8197;" /><glyph d="M-184 0 439 750H516L-107 0Z" glyph-name="fraction" horiz-adv-x="300" unicode="&#8260;" /><glyph d="M72 291 80 352H160L168 418H88L95 479H175L209 750H594L585 684H271L246 479H524L517 418H239L231 352H509L501 291H223L188 0H117L152 291Z" glyph-name="franc" horiz-adv-x="600" unicode="&#8355;" /><glyph d="M228 -10Q168 -10 131 10.5Q94 31 75 66Q56 101 52.5 148.5Q49 196 55 250Q62 304 77 351.5Q92 399 120 434Q148 469 190 489.5Q232 510 292 510Q332 510 371 497Q410 484 442 458L462 500H501L434 -48Q428 -96 411.5 -135Q395 -174 365 -202Q335 -230 288.5 -245.5Q242 -261 176 -261Q110 -261 64.5 -241Q19 -221 -4 -195L33 -142Q53 -162 92 -180.5Q131 -199 189 -199Q235 -199 266.5 -188Q298 -177 318 -158.5Q338 -140 348.5 -114.5Q359 -89 362 -59L373 31Q297 -10 228 -10ZM236 52Q285 52 316.5 60Q348 68 380 84L421 416Q393 432 363.5 440Q334 448 285 448Q240 448 211 431Q182 414 164.5 386Q147 358 138.5 322.5Q130 287 125 250Q121 213 120.5 177.5Q120 142 131 114Q142 86 166.5 69Q191 52 236 52Z" glyph-name="g" horiz-adv-x="535" unicode="g" /><glyph d="M228 134Q190 134 163 140Q142 122 139 103Q137 84 145 75Q153 66 172 64L340 44Q410 36 439 6Q468 -24 460 -90Q454 -136 429 -168Q404 -200 366 -220.5Q328 -241 280 -250.5Q232 -260 180 -260Q75 -260 20 -226Q-35 -192 -26 -109Q-20 -58 14.5 -24.5Q49 9 93 23V24Q80 34 73 49.5Q66 65 70 90Q72 111 85.5 128Q99 145 116 158Q74 183 61.5 226Q49 269 56 322Q61 361 74.5 395Q88 429 113.5 454.5Q139 480 178 495Q217 510 274 510Q297 510 316.5 507.5Q336 505 353 500H523L518 459L427 447Q440 423 445.5 395Q451 367 446 322Q441 283 427.5 249Q414 215 388.5 189.5Q363 164 324 149Q285 134 228 134ZM175 5Q150 -1 126.5 -9.5Q103 -18 84.5 -31.5Q66 -45 54.5 -63Q43 -81 40 -105Q33 -161 71 -180.5Q109 -200 187 -200Q225 -200 260.5 -195Q296 -190 324.5 -177Q353 -164 371.5 -143Q390 -122 394 -90Q399 -52 381.5 -34.5Q364 -17 319 -12ZM235 195Q279 195 306 205.5Q333 216 349 233.5Q365 251 371.5 274Q378 297 381 322Q384 347 383 370Q382 393 371 410.5Q360 428 335.5 438.5Q311 449 267 449Q223 449 196 438.5Q169 428 153 410.5Q137 393 130.5 370Q124 347 121 322Q118 297 119 274Q120 251 131 233.5Q142 216 166.5 205.5Q191 195 235 195Z" glyph-name="g.school" horiz-adv-x="510" unicode="&#57697;" /><glyph d="M337 510Q402 510 441 491.5Q480 473 497 456L461 403Q456 408 445.5 415Q435 422 418.5 429.5Q402 437 380 442Q358 447 329 447Q280 447 244.5 430Q209 413 185.5 385.5Q162 358 149.5 322.5Q137 287 132 250Q128 213 131 177.5Q134 142 149.5 114.5Q165 87 194.5 70Q224 53 271 53Q309 53 338.5 61Q368 69 386 80Q389 99 391.5 119.5Q394 140 396 158Q399 178 401 197H284L291 260H476Q469 200 463 153Q460 124 458 107.5Q456 91 454 76.5Q452 62 451 52.5Q450 43 450 42Q420 22 370 6Q320 -10 263 -10Q200 -10 158 10.5Q116 31 92 66Q68 101 61 148.5Q54 196 60 250Q67 304 86.5 351.5Q106 399 140 434Q174 469 223 489.5Q272 510 337 510Z" glyph-name="g.smcp" horiz-adv-x="550" unicode="&#57863;" /><glyph d="M297 550Q126 550 147 750H198Q194 716 196.5 690Q199 664 211 646Q223 628 245.5 619Q268 610 304 610Q340 610 365 619Q390 628 406 646Q422 664 431.5 690Q441 716 446 750H497Q467 550 297 550ZM228 -10Q168 -10 131 10.5Q94 31 75 66Q56 101 52.5 148.5Q49 196 55 250Q62 304 77 351.5Q92 399 120 434Q148 469 190 489.5Q232 510 292 510Q332 510 371 497Q410 484 442 458L462 500H501L434 -48Q428 -96 411.5 -135Q395 -174 365 -202Q335 -230 288.5 -245.5Q242 -261 176 -261Q110 -261 64.5 -241Q19 -221 -4 -195L33 -142Q53 -162 92 -180.5Q131 -199 189 -199Q235 -199 266.5 -188Q298 -177 318 -158.5Q338 -140 348.5 -114.5Q359 -89 362 -59L373 31Q297 -10 228 -10ZM236 52Q285 52 316.5 60Q348 68 380 84L421 416Q393 432 363.5 440Q334 448 285 448Q240 448 211 431Q182 414 164.5 386Q147 358 138.5 322.5Q130 287 125 250Q121 213 120.5 177.5Q120 142 131 114Q142 86 166.5 69Q191 52 236 52Z" glyph-name="gbreve" horiz-adv-x="535" unicode="&#287;" /><glyph d="M279 550Q108 550 129 750H180Q176 716 178.5 690Q181 664 193 646Q205 628 227.5 619Q250 610 286 610Q322 610 347 619Q372 628 388 646Q404 664 413.5 690Q423 716 428 750H479Q449 550 279 550ZM228 134Q190 134 163 140Q142 122 139 103Q137 84 145 75Q153 66 172 64L340 44Q410 36 439 6Q468 -24 460 -90Q454 -136 429 -168Q404 -200 366 -220.5Q328 -241 280 -250.5Q232 -260 180 -260Q75 -260 20 -226Q-35 -192 -26 -109Q-20 -58 14.5 -24.5Q49 9 93 23V24Q80 34 73 49.5Q66 65 70 90Q72 111 85.5 128Q99 145 116 158Q74 183 61.5 226Q49 269 56 322Q61 361 74.5 395Q88 429 113.5 454.5Q139 480 178 495Q217 510 274 510Q297 510 316.5 507.5Q336 505 353 500H523L518 459L427 447Q440 423 445.5 395Q451 367 446 322Q441 283 427.5 249Q414 215 388.5 189.5Q363 164 324 149Q285 134 228 134ZM175 5Q150 -1 126.5 -9.5Q103 -18 84.5 -31.5Q66 -45 54.5 -63Q43 -81 40 -105Q33 -161 71 -180.5Q109 -200 187 -200Q225 -200 260.5 -195Q296 -190 324.5 -177Q353 -164 371.5 -143Q390 -122 394 -90Q399 -52 381.5 -34.5Q364 -17 319 -12ZM235 195Q279 195 306 205.5Q333 216 349 233.5Q365 251 371.5 274Q378 297 381 322Q384 347 383 370Q382 393 371 410.5Q360 428 335.5 438.5Q311 449 267 449Q223 449 196 438.5Q169 428 153 410.5Q137 393 130.5 370Q124 347 121 322Q118 297 119 274Q120 251 131 233.5Q142 216 166.5 205.5Q191 195 235 195Z" glyph-name="gbreve.school" horiz-adv-x="510" unicode="&#57702;" /><glyph d="M332 550Q161 550 182 750H233Q229 716 231.5 690Q234 664 246 646Q258 628 280.5 619Q303 610 339 610Q375 610 400 619Q425 628 441 646Q457 664 466.5 690Q476 716 481 750H532Q502 550 332 550ZM337 510Q402 510 441 491.5Q480 473 497 456L461 403Q456 408 445.5 415Q435 422 418.5 429.5Q402 437 380 442Q358 447 329 447Q280 447 244.5 430Q209 413 185.5 385.5Q162 358 149.5 322.5Q137 287 132 250Q128 213 131 177.5Q134 142 149.5 114.5Q165 87 194.5 70Q224 53 271 53Q309 53 338.5 61Q368 69 386 80Q389 99 391.5 119.5Q394 140 396 158Q399 178 401 197H284L291 260H476Q469 200 463 153Q460 124 458 107.5Q456 91 454 76.5Q452 62 451 52.5Q450 43 450 42Q420 22 370 6Q320 -10 263 -10Q200 -10 158 10.5Q116 31 92 66Q68 101 61 148.5Q54 196 60 250Q67 304 86.5 351.5Q106 399 140 434Q174 469 223 489.5Q272 510 337 510Z" glyph-name="gbreve.smcp" horiz-adv-x="550" unicode="&#57934;" /><glyph d="M427 550 314 691 167 550H112L282 750H362L482 550ZM228 -10Q168 -10 131 10.5Q94 31 75 66Q56 101 52.5 148.5Q49 196 55 250Q62 304 77 351.5Q92 399 120 434Q148 469 190 489.5Q232 510 292 510Q332 510 371 497Q410 484 442 458L462 500H501L434 -48Q428 -96 411.5 -135Q395 -174 365 -202Q335 -230 288.5 -245.5Q242 -261 176 -261Q110 -261 64.5 -241Q19 -221 -4 -195L33 -142Q53 -162 92 -180.5Q131 -199 189 -199Q235 -199 266.5 -188Q298 -177 318 -158.5Q338 -140 348.5 -114.5Q359 -89 362 -59L373 31Q297 -10 228 -10ZM236 52Q285 52 316.5 60Q348 68 380 84L421 416Q393 432 363.5 440Q334 448 285 448Q240 448 211 431Q182 414 164.5 386Q147 358 138.5 322.5Q130 287 125 250Q121 213 120.5 177.5Q120 142 131 114Q142 86 166.5 69Q191 52 236 52Z" glyph-name="gcircumflex" horiz-adv-x="535" unicode="&#285;" /><glyph d="M409 550 296 691 149 550H94L264 750H344L464 550ZM228 134Q190 134 163 140Q142 122 139 103Q137 84 145 75Q153 66 172 64L340 44Q410 36 439 6Q468 -24 460 -90Q454 -136 429 -168Q404 -200 366 -220.5Q328 -241 280 -250.5Q232 -260 180 -260Q75 -260 20 -226Q-35 -192 -26 -109Q-20 -58 14.5 -24.5Q49 9 93 23V24Q80 34 73 49.5Q66 65 70 90Q72 111 85.5 128Q99 145 116 158Q74 183 61.5 226Q49 269 56 322Q61 361 74.5 395Q88 429 113.5 454.5Q139 480 178 495Q217 510 274 510Q297 510 316.5 507.5Q336 505 353 500H523L518 459L427 447Q440 423 445.5 395Q451 367 446 322Q441 283 427.5 249Q414 215 388.5 189.5Q363 164 324 149Q285 134 228 134ZM175 5Q150 -1 126.5 -9.5Q103 -18 84.5 -31.5Q66 -45 54.5 -63Q43 -81 40 -105Q33 -161 71 -180.5Q109 -200 187 -200Q225 -200 260.5 -195Q296 -190 324.5 -177Q353 -164 371.5 -143Q390 -122 394 -90Q399 -52 381.5 -34.5Q364 -17 319 -12ZM235 195Q279 195 306 205.5Q333 216 349 233.5Q365 251 371.5 274Q378 297 381 322Q384 347 383 370Q382 393 371 410.5Q360 428 335.5 438.5Q311 449 267 449Q223 449 196 438.5Q169 428 153 410.5Q137 393 130.5 370Q124 347 121 322Q118 297 119 274Q120 251 131 233.5Q142 216 166.5 205.5Q191 195 235 195Z" glyph-name="gcircumflex.school" horiz-adv-x="510" unicode="&#57699;" /><glyph d="M462 550 349 691 202 550H147L317 750H397L517 550ZM337 510Q402 510 441 491.5Q480 473 497 456L461 403Q456 408 445.5 415Q435 422 418.5 429.5Q402 437 380 442Q358 447 329 447Q280 447 244.5 430Q209 413 185.5 385.5Q162 358 149.5 322.5Q137 287 132 250Q128 213 131 177.5Q134 142 149.5 114.5Q165 87 194.5 70Q224 53 271 53Q309 53 338.5 61Q368 69 386 80Q389 99 391.5 119.5Q394 140 396 158Q399 178 401 197H284L291 260H476Q469 200 463 153Q460 124 458 107.5Q456 91 454 76.5Q452 62 451 52.5Q450 43 450 42Q420 22 370 6Q320 -10 263 -10Q200 -10 158 10.5Q116 31 92 66Q68 101 61 148.5Q54 196 60 250Q67 304 86.5 351.5Q106 399 140 434Q174 469 223 489.5Q272 510 337 510Z" glyph-name="gcircumflex.smcp" horiz-adv-x="550" unicode="&#57931;" /><glyph d="M256 550 337 750H387L336 550ZM228 -10Q168 -10 131 10.5Q94 31 75 66Q56 101 52.5 148.5Q49 196 55 250Q62 304 77 351.5Q92 399 120 434Q148 469 190 489.5Q232 510 292 510Q332 510 371 497Q410 484 442 458L462 500H501L434 -48Q428 -96 411.5 -135Q395 -174 365 -202Q335 -230 288.5 -245.5Q242 -261 176 -261Q110 -261 64.5 -241Q19 -221 -4 -195L33 -142Q53 -162 92 -180.5Q131 -199 189 -199Q235 -199 266.5 -188Q298 -177 318 -158.5Q338 -140 348.5 -114.5Q359 -89 362 -59L373 31Q297 -10 228 -10ZM236 52Q285 52 316.5 60Q348 68 380 84L421 416Q393 432 363.5 440Q334 448 285 448Q240 448 211 431Q182 414 164.5 386Q147 358 138.5 322.5Q130 287 125 250Q121 213 120.5 177.5Q120 142 131 114Q142 86 166.5 69Q191 52 236 52Z" glyph-name="gcommaaccent" horiz-adv-x="535" unicode="&#291;" /><glyph d="M238 550 319 750H369L318 550ZM228 134Q190 134 163 140Q142 122 139 103Q137 84 145 75Q153 66 172 64L340 44Q410 36 439 6Q468 -24 460 -90Q454 -136 429 -168Q404 -200 366 -220.5Q328 -241 280 -250.5Q232 -260 180 -260Q75 -260 20 -226Q-35 -192 -26 -109Q-20 -58 14.5 -24.5Q49 9 93 23V24Q80 34 73 49.5Q66 65 70 90Q72 111 85.5 128Q99 145 116 158Q74 183 61.5 226Q49 269 56 322Q61 361 74.5 395Q88 429 113.5 454.5Q139 480 178 495Q217 510 274 510Q297 510 316.5 507.5Q336 505 353 500H523L518 459L427 447Q440 423 445.5 395Q451 367 446 322Q441 283 427.5 249Q414 215 388.5 189.5Q363 164 324 149Q285 134 228 134ZM175 5Q150 -1 126.5 -9.5Q103 -18 84.5 -31.5Q66 -45 54.5 -63Q43 -81 40 -105Q33 -161 71 -180.5Q109 -200 187 -200Q225 -200 260.5 -195Q296 -190 324.5 -177Q353 -164 371.5 -143Q390 -122 394 -90Q399 -52 381.5 -34.5Q364 -17 319 -12ZM235 195Q279 195 306 205.5Q333 216 349 233.5Q365 251 371.5 274Q378 297 381 322Q384 347 383 370Q382 393 371 410.5Q360 428 335.5 438.5Q311 449 267 449Q223 449 196 438.5Q169 428 153 410.5Q137 393 130.5 370Q124 347 121 322Q118 297 119 274Q120 251 131 233.5Q142 216 166.5 205.5Q191 195 235 195Z" glyph-name="gcommaaccent.school" horiz-adv-x="510" unicode="&#57704;" /><glyph d="M305 -50 225 -250H175L225 -50ZM337 510Q402 510 441 491.5Q480 473 497 456L461 403Q456 408 445.5 415Q435 422 418.5 429.5Q402 437 380 442Q358 447 329 447Q280 447 244.5 430Q209 413 185.5 385.5Q162 358 149.5 322.5Q137 287 132 250Q128 213 131 177.5Q134 142 149.5 114.5Q165 87 194.5 70Q224 53 271 53Q309 53 338.5 61Q368 69 386 80Q389 99 391.5 119.5Q394 140 396 158Q399 178 401 197H284L291 260H476Q469 200 463 153Q460 124 458 107.5Q456 91 454 76.5Q452 62 451 52.5Q450 43 450 42Q420 22 370 6Q320 -10 263 -10Q200 -10 158 10.5Q116 31 92 66Q68 101 61 148.5Q54 196 60 250Q67 304 86.5 351.5Q106 399 140 434Q174 469 223 489.5Q272 510 337 510Z" glyph-name="gcommaaccent.smcp" horiz-adv-x="550" unicode="&#57920;" /><glyph d="M228 -10Q168 -10 131 10.5Q94 31 75 66Q56 101 52.5 148.5Q49 196 55 250Q62 304 77 351.5Q92 399 120 434Q148 469 190 489.5Q232 510 292 510Q332 510 371 497Q410 484 442 458L462 500H501L434 -48Q428 -96 411.5 -135Q395 -174 365 -202Q335 -230 288.5 -245.5Q242 -261 176 -261Q110 -261 64.5 -241Q19 -221 -4 -195L33 -142Q53 -162 92 -180.5Q131 -199 189 -199Q235 -199 266.5 -188Q298 -177 318 -158.5Q338 -140 348.5 -114.5Q359 -89 362 -59L373 31Q297 -10 228 -10ZM236 52Q285 52 316.5 60Q348 68 380 84L421 416Q393 432 363.5 440Q334 448 285 448Q240 448 211 431Q182 414 164.5 386Q147 358 138.5 322.5Q130 287 125 250Q121 213 120.5 177.5Q120 142 131 114Q142 86 166.5 69Q191 52 236 52ZM265 650Q265 668 278 681Q291 694 309 694Q327 694 340 681Q353 668 353 650Q353 632 340 619Q327 606 309 606Q291 606 278 619Q265 632 265 650Z" glyph-name="gdotaccent" horiz-adv-x="535" unicode="&#289;" /><glyph d="M228 134Q190 134 163 140Q142 122 139 103Q137 84 145 75Q153 66 172 64L340 44Q410 36 439 6Q468 -24 460 -90Q454 -136 429 -168Q404 -200 366 -220.5Q328 -241 280 -250.5Q232 -260 180 -260Q75 -260 20 -226Q-35 -192 -26 -109Q-20 -58 14.5 -24.5Q49 9 93 23V24Q80 34 73 49.5Q66 65 70 90Q72 111 85.5 128Q99 145 116 158Q74 183 61.5 226Q49 269 56 322Q61 361 74.5 395Q88 429 113.5 454.5Q139 480 178 495Q217 510 274 510Q297 510 316.5 507.5Q336 505 353 500H523L518 459L427 447Q440 423 445.5 395Q451 367 446 322Q441 283 427.5 249Q414 215 388.5 189.5Q363 164 324 149Q285 134 228 134ZM175 5Q150 -1 126.5 -9.5Q103 -18 84.5 -31.5Q66 -45 54.5 -63Q43 -81 40 -105Q33 -161 71 -180.5Q109 -200 187 -200Q225 -200 260.5 -195Q296 -190 324.5 -177Q353 -164 371.5 -143Q390 -122 394 -90Q399 -52 381.5 -34.5Q364 -17 319 -12ZM235 195Q279 195 306 205.5Q333 216 349 233.5Q365 251 371.5 274Q378 297 381 322Q384 347 383 370Q382 393 371 410.5Q360 428 335.5 438.5Q311 449 267 449Q223 449 196 438.5Q169 428 153 410.5Q137 393 130.5 370Q124 347 121 322Q118 297 119 274Q120 251 131 233.5Q142 216 166.5 205.5Q191 195 235 195ZM247 650Q247 668 260 681Q273 694 291 694Q309 694 322 681Q335 668 335 650Q335 632 322 619Q309 606 291 606Q273 606 260 619Q247 632 247 650Z" glyph-name="gdotaccent.school" horiz-adv-x="510" unicode="&#57703;" /><glyph d="M337 510Q402 510 441 491.5Q480 473 497 456L461 403Q456 408 445.5 415Q435 422 418.5 429.5Q402 437 380 442Q358 447 329 447Q280 447 244.5 430Q209 413 185.5 385.5Q162 358 149.5 322.5Q137 287 132 250Q128 213 131 177.5Q134 142 149.5 114.5Q165 87 194.5 70Q224 53 271 53Q309 53 338.5 61Q368 69 386 80Q389 99 391.5 119.5Q394 140 396 158Q399 178 401 197H284L291 260H476Q469 200 463 153Q460 124 458 107.5Q456 91 454 76.5Q452 62 451 52.5Q450 43 450 42Q420 22 370 6Q320 -10 263 -10Q200 -10 158 10.5Q116 31 92 66Q68 101 61 148.5Q54 196 60 250Q67 304 86.5 351.5Q106 399 140 434Q174 469 223 489.5Q272 510 337 510ZM300 650Q300 668 313 681Q326 694 344 694Q362 694 375 681Q388 668 388 650Q388 632 375 619Q362 606 344 606Q326 606 313 619Q300 632 300 650Z" glyph-name="gdotaccent.smcp" horiz-adv-x="550" unicode="&#57935;" /><glyph d="M314 -10Q265 -10 234.5 3Q204 16 183 36L220 89Q238 74 260 63Q282 52 322 52Q353 52 373 59.5Q393 67 406 79.5Q419 92 425 108Q431 124 433 142Q435 160 433 173Q431 186 422 196.5Q413 207 395.5 215.5Q378 224 351 233Q314 245 290 258Q266 271 253 287.5Q240 304 236.5 324.5Q233 345 236 372Q240 407 254.5 429.5Q269 452 288 468.5Q307 485 329 497.5Q351 510 370 525Q389 540 403 559.5Q417 579 421 610Q424 634 417 651Q410 668 396 678.5Q382 689 362 693.5Q342 698 319 698Q273 698 237 678.5Q201 659 195 610L90 -250H23L128 610Q137 682 187 721Q237 760 327 760Q417 760 455.5 721Q494 682 485 610Q480 571 465.5 545.5Q451 520 431.5 502Q412 484 390.5 471Q369 458 350 444.5Q331 431 317.5 414Q304 397 301 372Q297 341 312 324.5Q327 308 374 292Q411 280 436.5 267Q462 254 477.5 237Q493 220 498.5 197.5Q504 175 500 143Q497 114 484.5 86.5Q472 59 449.5 37.5Q427 16 393.5 3Q360 -10 314 -10Z" glyph-name="germandbls" horiz-adv-x="538" unicode="&#223;" /><glyph d="M455 370 365 272Q463 262 502 231.5Q541 201 533 139Q529 108 515 81Q501 54 475.5 34Q450 14 413.5 2Q377 -10 328 -10Q289 -10 246 1Q203 12 174 38L211 91Q225 77 257.5 64.5Q290 52 332 52Q400 52 430 74Q460 96 465 138Q470 172 447 189Q424 206 357 214Q326 217 305.5 220Q285 223 268 227L272 259L422 419Q401 436 373 441.5Q345 447 319 447Q293 447 264.5 441.5Q236 436 211 418.5Q186 401 167.5 369Q149 337 142 284L108 0H40L75 292Q83 358 109 400.5Q135 443 171 467Q207 491 248 500.5Q289 510 327 510Q353 510 379 506Q405 502 429 492.5Q453 483 473.5 466.5Q494 450 508 426Z" glyph-name="germandbls.smcp" horiz-adv-x="586" unicode="&#58120;" /><glyph d="M297 550 242 750H322L347 550Z" glyph-name="grave" horiz-adv-x="570" unicode="`" /><glyph d="M328 800 250 900H340L378 800Z" glyph-name="grave.cap" horiz-adv-x="570" unicode="&#58401;" /><glyph d="M50 641 450 408V342L50 109V182L381 375L50 568Z" glyph-name="greater" horiz-adv-x="500" unicode="&gt;" /><glyph d="M75 687V760L825 408V342L75 -10V63L756 375Z" glyph-name="greater.cap" horiz-adv-x="900" unicode="&#58775;" /><glyph d="M50 309 375 440 50 571V641L450 473V407L50 239ZM50 179 450 347V277L50 109Z" glyph-name="greaterequal" horiz-adv-x="500" unicode="&#8805;" /><glyph d="M75 191 750 440 75 690V760L825 473V407L75 121ZM75 60 825 346V276L75 -10Z" glyph-name="greaterequal.cap" horiz-adv-x="900" unicode="&#61992;" /><glyph d="M44 283 251 423 243 357 104 250 217 143 209 76 36 217ZM234 283 441 423 433 357 294 250 407 143 399 76 226 217Z" glyph-name="guillemotleft" horiz-adv-x="465" unicode="&#171;" /><glyph d="M60 408 267 548 259 482 120 375 232 268 224 201 51 342ZM250 408 457 548 449 482 310 375 422 268 414 201 241 342Z" glyph-name="guillemotleft.cap" horiz-adv-x="465" unicode="&#58451;" /><glyph d="M44 283 251 423 243 357 104 250 217 143 209 76 36 217ZM234 283 441 423 433 357 294 250 407 143 399 76 226 217Z" glyph-name="guillemotleft.smcp" horiz-adv-x="465" unicode="&#62993;" /><glyph d="M421 216 214 76 222 142 361 249 248 356 256 423 429 282ZM231 216 24 76 32 142 171 249 58 356 66 423 239 282Z" glyph-name="guillemotright" horiz-adv-x="465" unicode="&#187;" /><glyph d="M436 341 229 201 237 267 376 374 264 481 272 548 444 407ZM246 341 39 201 47 267 186 374 74 481 82 548 254 407Z" glyph-name="guillemotright.cap" horiz-adv-x="465" unicode="&#58452;" /><glyph d="M421 216 214 76 222 142 361 249 248 356 256 423 429 282ZM231 216 24 76 32 142 171 249 58 356 66 423 239 282Z" glyph-name="guillemotright.smcp" horiz-adv-x="465" unicode="&#62994;" /><glyph d="M44 283 251 423 243 357 104 250 217 143 209 76 36 217Z" glyph-name="guilsinglleft" horiz-adv-x="275" unicode="&#8249;" /><glyph d="M60 408 267 548 259 482 120 375 232 268 224 201 51 342Z" glyph-name="guilsinglleft.cap" horiz-adv-x="275" unicode="&#58449;" /><glyph d="M44 283 251 423 243 357 104 250 217 143 209 76 36 217Z" glyph-name="guilsinglleft.smcp" horiz-adv-x="275" unicode="&#62992;" /><glyph d="M231 216 24 76 32 142 171 249 58 356 66 423 239 282Z" glyph-name="guilsinglright" horiz-adv-x="275" unicode="&#8250;" /><glyph d="M246 341 39 201 47 267 186 374 74 481 82 548 254 407Z" glyph-name="guilsinglright.cap" horiz-adv-x="275" unicode="&#58450;" /><glyph d="M231 216 24 76 32 142 171 249 58 356 66 423 239 282Z" glyph-name="guilsinglright.smcp" horiz-adv-x="275" unicode="&#62995;" /><glyph d="M384 363Q390 412 366 430Q342 448 295 448Q246 448 214.5 440Q183 432 154 416L103 0H35L127 750H195L160 469Q195 490 231 500Q267 510 302 510Q392 510 427 471Q462 432 454 360L410 0H340Z" glyph-name="h" horiz-adv-x="500" unicode="h" /><glyph d="M397 0 424 225H140L113 0H45L106 500H174L148 288H432L458 500H526L465 0Z" glyph-name="h.smcp" horiz-adv-x="570" unicode="&#57864;" /><glyph glyph-name="hairspace" horiz-adv-x="50" unicode="&#8202;" /><glyph d="M115 654 127 750H195L183 654H320L314 603H177L160 469Q195 490 231 500Q267 510 302 510Q392 510 427 471Q462 432 454 360L410 0H340L384 363Q390 412 366 430Q342 448 295 448Q246 448 214.5 440Q183 432 154 416L103 0H35L109 603H19L25 654Z" glyph-name="hbar" horiz-adv-x="500" unicode="&#295;" /><glyph d="M397 0 424 225H140L113 0H45L106 500H174L164 421H448L458 500H526L465 0ZM432 288 440 358H156L148 288Z" glyph-name="hbar.smcp" horiz-adv-x="570" unicode="&#57943;" /><glyph d="M384 363Q390 412 366 430Q342 448 295 448Q246 448 214.5 440Q183 432 154 416L103 0H35L127 750H195L160 469Q195 490 231 500Q267 510 302 510Q392 510 427 471Q462 432 454 360L410 0H340ZM266 800 174 856 68 800H12L139 900H219L322 800Z" glyph-name="hcircumflex" horiz-adv-x="500" unicode="&#293;" /><glyph d="M452 550 339 691 192 550H137L307 750H387L507 550ZM397 0 424 225H140L113 0H45L106 500H174L148 288H432L458 500H526L465 0Z" glyph-name="hcircumflex.smcp" horiz-adv-x="570" unicode="&#57939;" /><glyph d="M439 -10Q427 8 405 38.5Q383 69 353.5 106.5Q324 144 288.5 187Q253 230 215 273Q190 301 162.5 335.5Q135 370 111.5 407.5Q88 445 72.5 484.5Q57 524 57 562Q57 605 69.5 641.5Q82 678 106 704.5Q130 731 164 746Q198 761 241 761Q286 761 318 748.5Q350 736 373.5 715.5Q397 695 412.5 667.5Q428 640 438 610H442Q453 640 468 667.5Q483 695 506.5 715.5Q530 736 562 748.5Q594 761 639 761Q682 761 716 746Q750 731 774 704.5Q798 678 810.5 641.5Q823 605 823 562Q823 524 807.5 484.5Q792 445 768.5 407.5Q745 370 717.5 335.5Q690 301 665 273Q627 230 591.5 187Q556 144 526.5 106.5Q497 69 475 38.5Q453 8 441 -10Z" glyph-name="heart" horiz-adv-x="880" unicode="&#9829;" /><glyph d="M357 550 432 750H512L407 550ZM237 550 312 750H392L287 550Z" glyph-name="hungarumlaut" horiz-adv-x="570" unicode="&#733;" /><glyph d="M268 800 330 900H420L318 800ZM388 800 450 900H540L438 800Z" glyph-name="hungarumlaut.cap" horiz-adv-x="570" unicode="&#58411;" /><glyph d="M283 272H33L41 338H291Z" glyph-name="hyphen" horiz-adv-x="310" unicode="-" /><glyph d="M291 342H41L50 408H300Z" glyph-name="hyphen.cap" horiz-adv-x="310" unicode="&#58498;" /><glyph d="M276 217H26L34 283H284Z" glyph-name="hyphen.smcp" horiz-adv-x="310" unicode="&#62996;" /><glyph d="M119 0H51L112 500H180ZM120 650Q120 668 133 681Q146 694 164 694Q182 694 195 681Q208 668 208 650Q208 632 195 619Q182 606 164 606Q146 606 133 619Q120 632 120 650Z" glyph-name="i" horiz-adv-x="230" unicode="i" /><glyph d="M65 0 126 500H196L135 0Z" glyph-name="i.smcp" horiz-adv-x="260" unicode="&#57865;" /><glyph d="M127 550 202 750H282L177 550ZM119 0H51L112 500H180Z" glyph-name="iacute" horiz-adv-x="230" unicode="&#237;" /><glyph d="M142 550 217 750H297L192 550ZM65 0 126 500H196L135 0Z" glyph-name="iacute.smcp" horiz-adv-x="260" unicode="&#57944;" /><glyph d="M152 550Q-19 550 2 750H53Q49 716 51.5 690Q54 664 66 646Q78 628 100.5 619Q123 610 159 610Q195 610 220 619Q245 628 261 646Q277 664 286.5 690Q296 716 301 750H352Q322 550 152 550ZM119 0H51L112 500H180Z" glyph-name="ibreve" horiz-adv-x="230" unicode="&#301;" /><glyph d="M167 550Q-4 550 17 750H68Q64 716 66.5 690Q69 664 81 646Q93 628 115.5 619Q138 610 174 610Q210 610 235 619Q260 628 276 646Q292 664 301.5 690Q311 716 316 750H367Q337 550 167 550ZM65 0 126 500H196L135 0Z" glyph-name="ibreve.smcp" horiz-adv-x="260" unicode="&#57951;" /><glyph d="M282 550 169 691 22 550H-32L137 750H217L337 550ZM119 0H51L112 500H180Z" glyph-name="icircumflex" horiz-adv-x="230" unicode="&#238;" /><glyph d="M297 550 184 691 37 550H-18L152 750H232L352 550ZM65 0 126 500H196L135 0Z" glyph-name="icircumflex.smcp" horiz-adv-x="260" unicode="&#57946;" /><glyph d="M119 0H51L112 500H180ZM195 650Q195 668 208 681Q221 694 239 694Q257 694 270 681Q283 668 283 650Q283 632 270 619Q257 606 239 606Q221 606 208 619Q195 632 195 650ZM45 650Q45 668 58 681Q71 694 89 694Q107 694 120 681Q133 668 133 650Q133 632 120 619Q107 606 89 606Q71 606 58 619Q45 632 45 650Z" glyph-name="idieresis" horiz-adv-x="230" unicode="&#239;" /><glyph d="M65 0 126 500H196L135 0ZM60 650Q60 668 73 681Q86 694 104 694Q122 694 135 681Q148 668 148 650Q148 632 135 619Q122 606 104 606Q86 606 73 619Q60 632 60 650ZM210 650Q210 668 223 681Q236 694 254 694Q272 694 285 681Q298 668 298 650Q298 632 285 619Q272 606 254 606Q236 606 223 619Q210 632 210 650Z" glyph-name="idieresis.smcp" horiz-adv-x="260" unicode="&#57947;" /><glyph d="M119 0H51L112 500H180ZM120 650Q120 668 133 681Q146 694 164 694Q182 694 195 681Q208 668 208 650Q208 632 195 619Q182 606 164 606Q146 606 133 619Q120 632 120 650Z" glyph-name="idotaccent" horiz-adv-x="230" unicode="&#59269;" /><glyph d="M65 0 126 500H196L135 0ZM135 650Q135 668 148 681Q161 694 179 694Q197 694 210 681Q223 668 223 650Q223 632 210 619Q197 606 179 606Q161 606 148 619Q135 632 135 650Z" glyph-name="idotaccent.smcp" horiz-adv-x="260" unicode="&#57954;" /><glyph d="M127 550 72 750H152L177 550ZM119 0H51L112 500H180Z" glyph-name="igrave" horiz-adv-x="230" unicode="&#236;" /><glyph d="M142 550 87 750H167L192 550ZM65 0 126 500H196L135 0Z" glyph-name="igrave.smcp" horiz-adv-x="260" unicode="&#57945;" /><glyph d="M104 -198Q156 -192 189.5 -166Q223 -140 231 -80L302 500H370L297 -91Q287 -171 233.5 -213.5Q180 -256 105 -260ZM119 0H51L112 500H180ZM120 650Q120 668 133 681Q146 694 164 694Q182 694 195 681Q208 668 208 650Q208 632 195 619Q182 606 164 606Q146 606 133 619Q120 632 120 650ZM310 650Q310 668 323 681Q336 694 354 694Q372 694 385 681Q398 668 398 650Q398 632 385 619Q372 606 354 606Q336 606 323 619Q310 632 310 650Z" glyph-name="ij" horiz-adv-x="420" unicode="&#307;" /><glyph d="M67 0 128 500H194L133 0ZM256 88Q267 77 286 65Q305 53 334 53Q366 53 390 70Q414 87 420 132L465 500H535L490 134Q482 66 441.5 28Q401 -10 329 -10Q286 -10 259 4Q232 18 218 33Z" glyph-name="ij.smcp" horiz-adv-x="595" unicode="&#58151;" /><glyph d="M31 680H305L298 620H24ZM119 0H51L112 500H180Z" glyph-name="imacron" horiz-adv-x="230" unicode="&#299;" /><glyph d="M46 680H320L313 620H39ZM65 0 126 500H196L135 0Z" glyph-name="imacron.smcp" horiz-adv-x="260" unicode="&#57950;" /><glyph d="M752 357Q752 280 708.5 242Q665 204 590 204Q533 204 484.5 232.5Q436 261 400 303Q364 261 315.5 232.5Q267 204 210 204Q135 204 91.5 242Q48 280 48 357Q48 434 91.5 472Q135 510 210 510Q267 510 316 481Q365 452 400 410Q436 452 484.5 481Q533 510 590 510Q665 510 708.5 472Q752 434 752 357ZM683 357Q683 410 656 430Q629 450 590 448Q541 446 502 417.5Q463 389 440 357Q463 325 502 296.5Q541 268 590 266Q629 265 656 284.5Q683 304 683 357ZM210 266Q260 268 298.5 296.5Q337 325 360 357Q337 389 298.5 417.5Q260 446 210 448Q171 450 144 430Q117 410 117 357Q117 304 144 284.5Q171 265 210 266Z" glyph-name="infinity" horiz-adv-x="800" unicode="&#8734;" /><glyph d="M-47 -201Q-25 -198 -2 -190.5Q21 -183 39.5 -169.5Q58 -156 69.5 -136Q81 -116 81 -87V610Q81 682 124.5 721Q168 760 262 760Q278 760 297.5 758.5Q317 757 332 753V690Q317 694 301 696Q285 698 262 698Q213 698 181 678.5Q149 659 149 610V-96Q149 -135 131 -165Q113 -195 85 -215.5Q57 -236 22 -247Q-13 -258 -47 -260Z" glyph-name="integral" horiz-adv-x="337" unicode="&#8747;" /><glyph d="M347 750Q434 750 470.5 700.5Q507 651 497 550H446Q449 584 446.5 610Q444 636 432 654Q420 672 397.5 681Q375 690 339 690Q303 690 278 681Q253 672 237 654Q221 636 212 610Q203 584 198 550H147Q175 750 347 750Z" glyph-name="invertedbreve" horiz-adv-x="570" unicode="&#58385;" /><glyph d="M366 910Q507 910 498 800H447Q449 831 425.5 843Q402 855 359 855Q316 855 290 843Q264 831 259 800H208Q226 910 366 910Z" glyph-name="invertedbreve.cap" horiz-adv-x="570" unicode="&#58407;" /><glyph d="M15 -142Q12 -165 22.5 -182Q33 -199 65 -199Q90 -199 107.5 -190.5Q125 -182 134 -176L154 -220Q136 -233 112 -242.5Q88 -252 50 -252Q-1 -252 -26.5 -226Q-52 -200 -47 -155Q-41 -110 -19.5 -71Q2 -32 51 0L112 500H180L119 0Q65 -35 42.5 -69Q20 -103 15 -142ZM120 650Q120 668 133 681Q146 694 164 694Q182 694 195 681Q208 668 208 650Q208 632 195 619Q182 606 164 606Q146 606 133 619Q120 632 120 650Z" glyph-name="iogonek" horiz-adv-x="230" unicode="&#303;" /><glyph d="M27 -142Q24 -165 34.5 -182Q45 -199 77 -199Q102 -199 119.5 -190.5Q137 -182 146 -176L166 -220Q148 -233 124 -242.5Q100 -252 62 -252Q11 -252 -14.5 -226Q-40 -200 -35 -155Q-30 -109 -6.5 -67.5Q17 -26 65 6L126 500H196L135 0Q82 -27 57 -65Q32 -103 27 -142Z" glyph-name="iogonek.smcp" horiz-adv-x="260" unicode="&#63054;" /><glyph d="M240 644Q257 644 267 649Q277 654 283 662Q289 670 291.5 679Q294 688 295 695H351Q348 642 315 613.5Q282 585 228 585Q197 585 179.5 596Q162 607 148.5 620.5Q135 634 122.5 645Q110 656 89 656Q72 656 61.5 651Q51 646 45 638Q39 630 37 621.5Q35 613 34 605H-22Q-20 658 13 686.5Q46 715 100 715Q131 715 149 704Q167 693 180.5 679.5Q194 666 206.5 655Q219 644 240 644ZM119 0H51L112 500H180Z" glyph-name="itilde" horiz-adv-x="230" unicode="&#297;" /><glyph d="M255 644Q272 644 282 649Q292 654 298 662Q304 670 306.5 679Q309 688 310 695H366Q363 642 330 613.5Q297 585 243 585Q212 585 194.5 596Q177 607 163.5 620.5Q150 634 137.5 645Q125 656 104 656Q87 656 76.5 651Q66 646 60 638Q54 630 52 621.5Q50 613 49 605H-7Q-5 658 28 686.5Q61 715 115 715Q146 715 164 704Q182 693 195.5 679.5Q209 666 221.5 655Q234 644 255 644ZM65 0 126 500H196L135 0Z" glyph-name="itilde.smcp" horiz-adv-x="260" unicode="&#57948;" /><glyph d="M-85 -198Q-34 -192 -0.5 -166Q33 -140 41 -80L112 500H180L107 -91Q102 -131 85.5 -162Q69 -193 43.5 -214Q18 -235 -14.5 -246.5Q-47 -258 -84 -260ZM120 650Q120 668 133 681Q146 694 164 694Q182 694 195 681Q208 668 208 650Q208 632 195 619Q182 606 164 606Q146 606 133 619Q120 632 120 650Z" glyph-name="j" horiz-adv-x="230" unicode="j" /><glyph d="M36 88Q47 77 66 65Q85 53 114 53Q146 53 170 70Q194 87 200 132L245 500H315L270 134Q262 66 221.5 28Q181 -10 109 -10Q66 -10 39 4Q12 18 -2 33Z" glyph-name="j.smcp" horiz-adv-x="375" unicode="&#57866;" /><glyph d="M282 550 169 691 22 550H-32L137 750H217L337 550ZM-85 -198Q-34 -192 -0.5 -166Q33 -140 41 -80L112 500H180L107 -91Q102 -131 85.5 -162Q69 -193 43.5 -214Q18 -235 -14.5 -246.5Q-47 -258 -84 -260Z" glyph-name="jcircumflex" horiz-adv-x="230" unicode="&#309;" /><glyph d="M414 550 301 691 154 550H99L269 750H349L469 550ZM36 88Q47 77 66 65Q85 53 114 53Q146 53 170 70Q194 87 200 132L245 500H315L270 134Q262 66 221.5 28Q181 -10 109 -10Q66 -10 39 4Q12 18 -2 33Z" glyph-name="jcircumflex.smcp" horiz-adv-x="375" unicode="&#63027;" /><glyph d="M244 294 450 0H363L197 254L126 194L103 0H35L127 750H195L136 276L390 500H484Z" glyph-name="k" horiz-adv-x="500" unicode="k" /><glyph d="M257 295 458 0H371L206 254L136 194L113 0H45L106 500H174L146 275L401 500H494Z" glyph-name="k.smcp" horiz-adv-x="515" unicode="&#57867;" /><glyph d="M244 294 450 0H363L197 254L126 194L103 0H35L127 750H195L136 276L390 500H484ZM266 -50 186 -250H136L186 -50Z" glyph-name="kcommaaccent" horiz-adv-x="500" unicode="&#311;" /><glyph d="M260 -50 180 -250H130L180 -50ZM257 295 458 0H371L206 254L136 194L113 0H45L106 500H174L146 275L401 500H494Z" glyph-name="kcommaaccent.smcp" horiz-adv-x="515" unicode="&#57960;" /><glyph d="M244 294 450 0H363L197 254L126 194L103 0H35L96 500H164L136 276L390 500H484Z" glyph-name="kgreenlandic" horiz-adv-x="500" unicode="&#312;" /><glyph d="M119 0H51L143 750H211Z" glyph-name="l" horiz-adv-x="230" unicode="l" /><glyph d="M120 63H417L410 0H45L106 500H174Z" glyph-name="l.smcp" horiz-adv-x="480" unicode="&#57868;" /><glyph d="M158 800 220 900H310L208 800ZM119 0H51L143 750H211Z" glyph-name="lacute" horiz-adv-x="230" unicode="&#314;" /><glyph d="M120 550 195 750H275L170 550ZM120 63H417L410 0H45L106 500H174Z" glyph-name="lacute.smcp" horiz-adv-x="480" unicode="&#57963;" /><glyph d="M355 750 282 550H236L277 750ZM119 0H51L143 750H211Z" glyph-name="lcaron" horiz-adv-x="230" unicode="&#318;" /><glyph d="M381 625 309 425H263L303 625ZM120 63H417L410 0H45L106 500H174Z" glyph-name="lcaron.smcp" horiz-adv-x="480" unicode="&#57964;" /><glyph d="M117 -50 37 -250H-13L37 -50ZM119 0H51L143 750H211Z" glyph-name="lcommaaccent" horiz-adv-x="230" unicode="&#316;" /><glyph d="M265 -50 185 -250H135L185 -50ZM120 63H417L410 0H45L106 500H174Z" glyph-name="lcommaaccent.smcp" horiz-adv-x="480" unicode="&#57965;" /><glyph d="M119 0H51L143 750H211ZM257 300Q257 318 270 331Q283 344 301 344Q319 344 332 331Q345 318 345 300Q345 282 332 269Q319 256 301 256Q283 256 270 269Q257 282 257 300Z" glyph-name="ldot" horiz-adv-x="360" unicode="&#320;" /><glyph d="M120 63H417L410 0H45L106 500H174ZM314 275Q314 293 327 306Q340 319 358 319Q376 319 389 306Q402 293 402 275Q402 257 389 244Q376 231 358 231Q340 231 327 244Q314 257 314 275Z" glyph-name="ldot.smcp" horiz-adv-x="480" unicode="&#57969;" /><glyph d="M450 109 50 342V408L450 641V568L119 375L450 182Z" glyph-name="less" horiz-adv-x="500" unicode="&lt;" /><glyph d="M825 63V-10L75 342V408L825 760V687L144 375Z" glyph-name="less.cap" horiz-adv-x="900" unicode="&#58774;" /><glyph d="M450 239 50 407V473L450 641V571L125 440L450 309ZM450 109 50 277V347L450 179Z" glyph-name="lessequal" horiz-adv-x="500" unicode="&#8804;" /><glyph d="M825 121 75 407V473L825 760V690L150 440L825 191ZM825 -10 75 276V346L825 60Z" glyph-name="lessequal.cap" horiz-adv-x="900" unicode="&#61991;" /><glyph d="M408 698Q322 698 279.5 665.5Q237 633 228 561L218 479H497L490 418H211L203 352H482L474 291H195L167 61H536L529 0H10L17 61H97L125 291H45L53 352H133L141 418H61L68 479H148L158 560Q163 603 181.5 639.5Q200 676 232 703Q264 730 310 745Q356 760 416 760Q488 760 534 740Q580 720 601 700L563 645Q554 653 539 662Q524 671 504.5 679Q485 687 460.5 692.5Q436 698 408 698Z" glyph-name="lira" horiz-adv-x="600" unicode="&#8356;" /><glyph d="M384 243V434H50V500H450V243Z" glyph-name="logicalnot" horiz-adv-x="500" unicode="&#172;" /><glyph d="M759 92V434H75V500H825V92Z" glyph-name="logicalnot.cap" horiz-adv-x="900" unicode="&#61993;" /><glyph d="M17 60H297L290 0H10Z" glyph-name="lowline" horiz-adv-x="360" unicode="&#58641;" /><glyph d="M590 375 345 673 100 375 345 77ZM25 375 345 760 665 375 345 -10Z" glyph-name="lozenge" horiz-adv-x="690" unicode="&#9674;" /><glyph d="M193 443 306 510 298 446 185 379 139 0H71L112 336L30 288L38 352L120 400L163 750H231Z" glyph-name="lslash" horiz-adv-x="290" unicode="&#322;" /><glyph d="M183 255 376 357 368 292 175 190 160 63H457L450 0H85L103 152L7 101L15 166L111 217L146 500H214Z" glyph-name="lslash.smcp" horiz-adv-x="520" unicode="&#63225;" /><glyph d="M669 363Q675 412 651.5 430Q628 448 585 448Q538 448 507 439.5Q476 431 444 415Q447 391 444 363L400 0H330L374 363Q380 412 356.5 430Q333 448 290 448Q246 448 216.5 440.5Q187 433 156 418L105 0H35L96 500H135L145 459Q184 485 223 497.5Q262 510 297 510Q399 510 430 453Q473 480 513.5 495Q554 510 592 510Q673 510 710.5 472.5Q748 435 739 360L695 0H625Z" glyph-name="m" horiz-adv-x="785" unicode="m" /><glyph d="M295 0 158 409 112 0H45L106 500H197L334 79L575 500H666L605 0H538L592 409L355 0Z" glyph-name="m.smcp" horiz-adv-x="710" unicode="&#57869;" /><glyph d="M201 680H475L468 620H194Z" glyph-name="macron" horiz-adv-x="570" unicode="&#175;" /><glyph d="M226 880H500L492 820H218Z" glyph-name="macron.cap" horiz-adv-x="570" unicode="&#58405;" /><glyph d="M669 363Q675 412 651.5 430Q628 448 585 448Q538 448 507 439.5Q476 431 444 415Q447 391 444 363L400 0H330L374 363Q380 412 356.5 430Q333 448 290 448Q246 448 216.5 440.5Q187 433 156 418L105 0H35L96 500H135L145 459Q184 485 223 497.5Q262 510 297 510Q399 510 430 453Q473 480 513.5 495Q554 510 592 510Q673 510 710.5 472.5Q748 435 739 360L695 0H625ZM400 650Q400 668 413 681Q426 694 444 694Q462 694 475 681Q488 668 488 650Q488 632 475 619Q462 606 444 606Q426 606 413 619Q400 632 400 650Z" glyph-name="mdotaccent" horiz-adv-x="785" unicode="&#7745;" /><glyph d="M295 0 158 409 112 0H45L106 500H197L334 79L575 500H666L605 0H538L592 409L355 0ZM360 650Q360 668 373 681Q386 694 404 694Q422 694 435 681Q448 668 448 650Q448 632 435 619Q422 606 404 606Q386 606 373 619Q360 632 360 650Z" glyph-name="mdotaccent.smcp" horiz-adv-x="710" /><glyph d="M55 250Q55 304 75.5 351.5Q96 399 131 434Q166 469 213.5 489.5Q261 510 315 510Q369 510 416.5 489.5Q464 469 499 434Q534 399 554.5 351.5Q575 304 575 250Q575 196 554.5 148.5Q534 101 499 66Q464 31 416.5 10.5Q369 -10 315 -10Q261 -10 213.5 10.5Q166 31 131 66Q96 101 75.5 148.5Q55 196 55 250Z" glyph-name="mediumblackcircle" horiz-adv-x="630" unicode="&#9899;" /><glyph d="M55 250Q55 304 75.5 351.5Q96 399 131 434Q166 469 213.5 489.5Q261 510 315 510Q369 510 416.5 489.5Q464 469 499 434Q534 399 554.5 351.5Q575 304 575 250Q575 196 554.5 148.5Q534 101 499 66Q464 31 416.5 10.5Q369 -10 315 -10Q261 -10 213.5 10.5Q166 31 131 66Q96 101 75.5 148.5Q55 196 55 250ZM117 250Q117 209 132.5 173Q148 137 175 110Q202 83 238 67.5Q274 52 315 52Q356 52 392 67.5Q428 83 455 110Q482 137 497.5 173Q513 209 513 250Q513 291 497.5 327Q482 363 455 390Q428 417 392 432.5Q356 448 315 448Q274 448 238 432.5Q202 417 175 390Q148 363 132.5 327Q117 291 117 250Z" glyph-name="mediumwhitecircle" horiz-adv-x="630" unicode="&#9898;" /><glyph d="M50 342V408H450V342Z" glyph-name="minus" horiz-adv-x="500" unicode="&#8722;" /><glyph d="M825 408V342H75V408Z" glyph-name="minus.cap" horiz-adv-x="900" unicode="&#58770;" /><glyph d="M20 -11H320L312 -77H12Z" glyph-name="minus.inf" horiz-adv-x="404" unicode="&#58748;" /><glyph d="M203 375 53 525 100 572 250 422 400 572 447 525 297 375 447 225 400 178 250 328 100 178 53 225Z" glyph-name="multiply" horiz-adv-x="500" unicode="&#215;" /><glyph d="M403 375 65 713 112 760 450 422 788 760 835 713 497 375 835 37 788 -10 450 328 112 -10 65 37Z" glyph-name="multiply.cap" horiz-adv-x="900" unicode="&#58771;" /><glyph d="M50 800H100V434Q111 455 128.5 473Q146 491 167 503.5Q188 516 210.5 523Q233 530 254 530Q338 530 376.5 486.5Q415 443 415 355Q415 284 383.5 221Q352 158 300.5 107.5Q249 57 183.5 21Q118 -15 50 -33ZM100 42Q134 55 178 80.5Q222 106 261.5 143.5Q301 181 328.5 232Q356 283 356 347Q356 371 350.5 394Q345 417 333 434.5Q321 452 301 462.5Q281 473 252 473Q220 473 192.5 460Q165 447 145 427Q125 407 113 381.5Q101 356 100 332Z" glyph-name="musicflatsign" horiz-adv-x="455" unicode="&#9837;" /><glyph d="M277 649V-60H227V231L50 89V800H100V507ZM100 216 227 317V522L100 421Z" glyph-name="musicnaturalsign" horiz-adv-x="327" unicode="&#59753;" /><glyph d="M346 649 441 726V640L346 562V370L441 446V359L346 283V0H296V243L169 141V-100H119V101L24 24V110L119 188V380L24 304V391L119 467V750H169V507L296 609V850H346ZM169 228 296 330V522L169 420Z" glyph-name="musicsharpsign" horiz-adv-x="465" unicode="&#9839;" /><glyph d="M384 363Q390 412 366 430Q342 448 295 448Q246 448 215.5 440Q185 432 156 416L105 0H35L96 500H135L145 458Q221 510 302 510Q392 510 427 471Q462 432 454 360L410 0H340Z" glyph-name="n" horiz-adv-x="500" unicode="n" /><glyph d="M416 0 158 376 113 0H45L106 500H155L413 124L458 500H526L465 0Z" glyph-name="n.smcp" horiz-adv-x="570" unicode="&#57870;" /><glyph d="M384 363Q390 412 366 430Q342 448 295 448Q246 448 215.5 440Q185 432 156 416L105 0H35L96 500H135L145 458Q221 510 302 510Q392 510 427 471Q462 432 454 360L410 0H340ZM257 550 332 750H412L307 550Z" glyph-name="nacute" horiz-adv-x="500" unicode="&#324;" /><glyph d="M297 550 372 750H452L347 550ZM416 0 158 376 113 0H45L106 500H155L413 124L458 500H526L465 0Z" glyph-name="nacute.smcp" horiz-adv-x="570" unicode="&#63059;" /><glyph d="M384 363Q390 412 366 430Q342 448 295 448Q246 448 215.5 440Q185 432 156 416L105 0H35L96 500H135L145 458Q221 510 302 510Q392 510 427 471Q462 432 454 360L410 0H340ZM492 750 322 550H242L122 750H177L289 609L437 750Z" glyph-name="ncaron" horiz-adv-x="500" unicode="&#328;" /><glyph d="M532 750 362 550H282L162 750H217L329 609L477 750ZM416 0 158 376 113 0H45L106 500H155L413 124L458 500H526L465 0Z" glyph-name="ncaron.smcp" horiz-adv-x="570" unicode="&#57978;" /><glyph d="M384 363Q390 412 366 430Q342 448 295 448Q246 448 215.5 440Q185 432 156 416L105 0H35L96 500H135L145 458Q221 510 302 510Q392 510 427 471Q462 432 454 360L410 0H340ZM255 -50 175 -250H125L175 -50Z" glyph-name="ncommaaccent" horiz-adv-x="500" unicode="&#326;" /><glyph d="M295 -50 215 -250H165L215 -50ZM416 0 158 376 113 0H45L106 500H155L413 124L458 500H526L465 0Z" glyph-name="ncommaaccent.smcp" horiz-adv-x="570" unicode="&#57981;" /><glyph d="M455 511Q458 544 456.5 577.5Q455 611 442.5 638Q430 665 402.5 681.5Q375 698 325 698Q281 698 250 681.5Q219 665 198.5 639.5Q178 614 167.5 582Q157 550 153 519Q149 488 151 456.5Q153 425 165.5 399.5Q178 374 204 357.5Q230 341 273 341Q318 341 350 356Q382 371 403.5 395Q425 419 437.5 449.5Q450 480 455 511ZM206 53Q256 53 296.5 76Q337 99 367.5 141Q398 183 419 242.5Q440 302 449 376Q439 359 421.5 341.5Q404 324 380 310Q356 296 325 287Q294 278 257 278Q195 278 158 301Q121 324 103 359Q85 394 81.5 437Q78 480 83 519Q88 558 104 600.5Q120 643 149.5 678.5Q179 714 224.5 737Q270 760 333 760Q403 760 444 734Q485 708 504.5 661Q524 614 525 549Q526 484 516 405Q505 313 481 236.5Q457 160 418.5 105.5Q380 51 325.5 20.5Q271 -10 198 -10Q164 -10 137 -4.5Q110 1 90.5 9.5Q71 18 57.5 27.5Q44 37 36 45L75 99Q87 86 117.5 69.5Q148 53 206 53Z" glyph-name="nine" horiz-adv-x="550" unicode="9" /><glyph d="M455 511Q458 544 456.5 577.5Q455 611 442.5 638Q430 665 402.5 681.5Q375 698 325 698Q281 698 250 681.5Q219 665 198.5 639.5Q178 614 167.5 582Q157 550 153 519Q149 488 151 456.5Q153 425 165.5 399.5Q178 374 204 357.5Q230 341 273 341Q318 341 350 356Q382 371 403.5 395Q425 419 437.5 449.5Q450 480 455 511ZM206 53Q256 53 296.5 76Q337 99 367.5 141Q398 183 419 242.5Q440 302 449 376Q439 359 421.5 341.5Q404 324 380 310Q356 296 325 287Q294 278 257 278Q195 278 158 301Q121 324 103 359Q85 394 81.5 437Q78 480 83 519Q88 558 104 600.5Q120 643 149.5 678.5Q179 714 224.5 737Q270 760 333 760Q403 760 444 734Q485 708 504.5 661Q524 614 525 549Q526 484 516 405Q505 313 481 236.5Q457 160 418.5 105.5Q380 51 325.5 20.5Q271 -10 198 -10Q164 -10 137 -4.5Q110 1 90.5 9.5Q71 18 57.5 27.5Q44 37 36 45L75 99Q87 86 117.5 69.5Q148 53 206 53Z" glyph-name="nine.LT" horiz-adv-x="550" unicode="&#58697;" /><glyph d="M425 261Q428 294 426.5 327.5Q425 361 412 388Q399 415 372 431.5Q345 448 295 448Q251 448 220 431.5Q189 415 168.5 389.5Q148 364 137.5 332Q127 300 123 269Q119 238 121 206.5Q123 175 135.5 149.5Q148 124 174 107.5Q200 91 243 91Q288 91 319.5 106Q351 121 373 145Q395 169 407 199.5Q419 230 425 261ZM175 -197Q225 -197 265.5 -174Q306 -151 337 -109Q368 -67 388.5 -7.5Q409 52 418 126Q408 109 390.5 91.5Q373 74 349 60Q325 46 294 37Q263 28 226 28Q164 28 127 51Q90 74 72 109Q54 144 51 187Q48 230 53 269Q58 308 73.5 350.5Q89 393 118.5 428.5Q148 464 193.5 487Q239 510 302 510Q372 510 413 484Q454 458 473.5 411Q493 364 494 299Q495 234 486 155Q474 63 450.5 -13.5Q427 -90 388.5 -145Q350 -200 295.5 -230Q241 -260 168 -260Q134 -260 107 -254.5Q80 -249 60.5 -241Q41 -233 27.5 -223Q14 -213 5 -205L44 -151Q56 -164 86.5 -180.5Q117 -197 175 -197Z" glyph-name="nine.OP" horiz-adv-x="550" unicode="&#58708;" /><glyph d="M148 -197Q207 -197 247.5 -165Q288 -133 300 -58Q278 -78 244.5 -90Q211 -102 168 -102Q78 -102 43.5 -65.5Q9 -29 16 32Q24 95 70 132.5Q116 170 207 170Q299 170 341 118.5Q383 67 369 -42Q355 -154 295 -206.5Q235 -259 141 -259Q86 -259 49 -245Q12 -231 -13 -211L24 -157Q45 -176 75 -186.5Q105 -197 148 -197ZM82 32Q78 -4 101 -21.5Q124 -39 179 -39Q226 -39 258 -22.5Q290 -6 304 22Q299 69 273.5 89Q248 109 200 109Q93 109 82 32Z" glyph-name="nine.inf" horiz-adv-x="450" unicode="&#58746;" /><glyph d="M191 393Q250 393 290.5 425Q331 457 343 532Q321 512 287 500Q253 488 210 488Q120 488 86 524.5Q52 561 59 622Q67 685 113 722.5Q159 760 250 760Q342 760 383.5 708.5Q425 657 412 548Q398 436 337.5 383.5Q277 331 183 331Q128 331 91.5 345Q55 359 29 379L67 433Q88 414 118 403.5Q148 393 191 393ZM125 622Q120 586 143 568.5Q166 551 221 551Q268 551 300 567.5Q332 584 347 612Q342 659 316 679Q290 699 242 699Q134 699 125 622ZM236 0 859 750H936L313 0ZM970 415 920 0H852L893 337L793 315L799 362L945 415ZM1328 358Q1269 358 1230 326Q1191 294 1178 219Q1201 239 1234.5 251Q1268 263 1311 263Q1401 263 1435.5 226.5Q1470 190 1462 129Q1454 66 1408 28.5Q1362 -9 1271 -9Q1179 -9 1137.5 42.5Q1096 94 1109 203Q1123 315 1182.5 367.5Q1242 420 1336 420Q1391 420 1425 407Q1459 394 1484 374L1447 320Q1426 339 1398.5 348.5Q1371 358 1328 358ZM1396 129Q1401 165 1378 182.5Q1355 200 1300 200Q1253 200 1221 183.5Q1189 167 1175 139Q1180 92 1205.5 72Q1231 52 1279 52Q1387 52 1396 129Z" glyph-name="ninesixteenths" horiz-adv-x="1550" unicode="&#61977;" /><glyph d="M262 755 211 340H143L185 677L85 655L91 702L237 755ZM541 393Q600 393 640.5 425Q681 457 693 532Q671 512 637 500Q603 488 560 488Q470 488 436 524.5Q402 561 409 622Q417 685 463 722.5Q509 760 600 760Q692 760 733.5 708.5Q775 657 762 548Q748 436 687.5 383.5Q627 331 533 331Q478 331 441.5 345Q405 359 379 379L417 433Q438 414 468 403.5Q498 393 541 393ZM475 622Q470 586 493 568.5Q516 551 571 551Q618 551 650 567.5Q682 584 697 612Q692 659 666 679Q640 699 592 699Q484 699 475 622ZM586 0 1209 750H1286L663 0ZM1249 -9Q1202 -9 1160.5 3Q1119 15 1089 38L1128 92Q1154 72 1188.5 62Q1223 52 1258 52Q1318 52 1349.5 70Q1381 88 1385 120Q1390 157 1373 171.5Q1356 186 1303 186H1186L1193 244H1309Q1354 244 1371 259Q1388 274 1392 303Q1395 329 1371 343.5Q1347 358 1293 358Q1248 358 1217 348Q1186 338 1161 322L1137 376Q1167 396 1208.5 408Q1250 420 1300 420Q1471 420 1457 303Q1452 271 1436.5 251Q1421 231 1404 223Q1427 214 1442.5 188.5Q1458 163 1453 119Q1446 62 1395.5 26.5Q1345 -9 1249 -9ZM1541 1 1547 51Q1636 101 1690.5 135.5Q1745 170 1776.5 195.5Q1808 221 1820 241.5Q1832 262 1835 286Q1839 318 1818 337.5Q1797 357 1740 357Q1706 357 1672.5 347Q1639 337 1614 320L1588 374Q1620 396 1661.5 408Q1703 420 1747 420Q1795 420 1826 409Q1857 398 1874.5 379.5Q1892 361 1897.5 336.5Q1903 312 1900 285Q1896 254 1876 226Q1856 198 1823 171Q1790 144 1745 117Q1700 90 1647 61H1889L1882 1Z" glyph-name="nineteenthirtyseconds" horiz-adv-x="2000" /><glyph d="M191 393Q250 393 290.5 425Q331 457 343 532Q321 512 287 500Q253 488 210 488Q120 488 86 524.5Q52 561 59 622Q67 685 113 722.5Q159 760 250 760Q342 760 383.5 708.5Q425 657 412 548Q398 436 337.5 383.5Q277 331 183 331Q128 331 91.5 345Q55 359 29 379L67 433Q88 414 118 403.5Q148 393 191 393ZM125 622Q120 586 143 568.5Q166 551 221 551Q268 551 300 567.5Q332 584 347 612Q342 659 316 679Q290 699 242 699Q134 699 125 622ZM236 0 859 750H936L313 0ZM899 -9Q852 -9 810.5 3Q769 15 739 38L778 92Q804 72 838.5 62Q873 52 908 52Q968 52 999.5 70Q1031 88 1035 120Q1040 157 1023 171.5Q1006 186 953 186H836L843 244H959Q1004 244 1021 259Q1038 274 1042 303Q1045 329 1021 343.5Q997 358 943 358Q898 358 867 348Q836 338 811 322L787 376Q817 396 858.5 408Q900 420 950 420Q1121 420 1107 303Q1102 271 1086.5 251Q1071 231 1054 223Q1077 214 1092.5 188.5Q1108 163 1103 119Q1096 62 1045.5 26.5Q995 -9 899 -9ZM1191 1 1197 51Q1286 101 1340.5 135.5Q1395 170 1426.5 195.5Q1458 221 1470 241.5Q1482 262 1485 286Q1489 318 1468 337.5Q1447 357 1390 357Q1356 357 1322.5 347Q1289 337 1264 320L1238 374Q1270 396 1311.5 408Q1353 420 1397 420Q1445 420 1476 409Q1507 398 1524.5 379.5Q1542 361 1547.5 336.5Q1553 312 1550 285Q1546 254 1526 226Q1506 198 1473 171Q1440 144 1395 117Q1350 90 1297 61H1539L1532 1Z" glyph-name="ninethirtyseconds" horiz-adv-x="1650" /><glyph glyph-name="nonbreakingspace" horiz-adv-x="220" unicode="&#160;" /><glyph glyph-name="nonmarkingreturn" horiz-adv-x="250" unicode="" /><glyph d="M450 408H50V474H255L311 641H389L325 474H450ZM450 276H249L193 109H115L179 276H50V342H450Z" glyph-name="notequal" horiz-adv-x="500" unicode="&#8800;" /><glyph d="M825 442H75V508H484L587 750H665L555 508H825ZM75 308H825V242H432L329 0H251L361 242H75Z" glyph-name="notequal.cap" horiz-adv-x="900" unicode="&#61989;" /><glyph d="M384 363Q390 412 366 430Q342 448 295 448Q246 448 215.5 440Q185 432 156 416L105 0H35L96 500H135L145 458Q221 510 302 510Q392 510 427 471Q462 432 454 360L410 0H340ZM380 644Q397 644 407 649Q417 654 423 662Q429 670 431.5 679Q434 688 435 695H491Q488 642 455 613.5Q422 585 368 585Q337 585 319.5 596Q302 607 288.5 620.5Q275 634 262.5 645Q250 656 229 656Q212 656 201.5 651Q191 646 185 638Q179 630 177 621.5Q175 613 174 605H118Q120 658 153 686.5Q186 715 240 715Q271 715 289 704Q307 693 320.5 679.5Q334 666 346.5 655Q359 644 380 644Z" glyph-name="ntilde" horiz-adv-x="500" unicode="&#241;" /><glyph d="M410 644Q427 644 437 649Q447 654 453 662Q459 670 461.5 679Q464 688 465 695H521Q518 642 485 613.5Q452 585 398 585Q367 585 349.5 596Q332 607 318.5 620.5Q305 634 292.5 645Q280 656 259 656Q242 656 231.5 651Q221 646 215 638Q209 630 207 621.5Q205 613 204 605H148Q150 658 183 686.5Q216 715 270 715Q301 715 319 704Q337 693 350.5 679.5Q364 666 376.5 655Q389 644 410 644ZM416 0 158 376 113 0H45L106 500H155L413 124L458 500H526L465 0Z" glyph-name="ntilde.smcp" horiz-adv-x="570" unicode="&#57977;" /><glyph d="M115 250 201 500H95L123 566H223L287 750H351L287 566H444L508 750H572L508 566H599L571 500H486L400 250H506L478 184H377L315 0H251L313 184H156L94 0H30L92 184H2L30 250ZM179 250H336L422 500H265Z" glyph-name="numbersign" horiz-adv-x="570" unicode="#" /><glyph d="M238 0 290 125H159L107 0H38L90 125H-5L23 191H118L168 309H72L101 375H196L249 500H318L265 375H396L449 500H518L465 375H561L532 309H436L387 191H483L455 125H359L307 0ZM187 191H318L368 309H237Z" glyph-name="numbersign.OP" horiz-adv-x="555" unicode="&#59811;" /><glyph d="M514 0 185 608 113 0H45L137 750H188L516 142L589 750H657L565 0ZM734 565Q746 662 792 711Q838 760 929 760Q1020 760 1057.5 711Q1095 662 1083 565Q1071 468 1021.5 419Q972 370 881 370Q790 370 756 419Q722 468 734 565ZM798 565Q789 490 810 460Q831 430 888 430Q947 430 979 461Q1011 492 1020 565Q1029 638 1004.5 669Q980 700 921 700Q864 700 835.5 670Q807 640 798 565Z" glyph-name="numero" horiz-adv-x="1089" unicode="&#8470;" /><glyph d="M475 250Q468 193 453.5 145Q439 97 411.5 62.5Q384 28 341 9Q298 -10 233 -10Q169 -10 130.5 9Q92 28 73 62.5Q54 97 51 145Q48 193 55 250Q62 307 76.5 355Q91 403 119 437.5Q147 472 190 491Q233 510 297 510Q362 510 400.5 491Q439 472 458 437.5Q477 403 479.5 355Q482 307 475 250ZM405 250Q410 292 411 328.5Q412 365 401.5 391.5Q391 418 365 433Q339 448 290 448Q241 448 211 433Q181 418 163.5 391.5Q146 365 138 328.5Q130 292 125 250Q120 208 119 171.5Q118 135 128.5 108.5Q139 82 165.5 67Q192 52 241 52Q290 52 319.5 67Q349 82 366.5 108.5Q384 135 392 171.5Q400 208 405 250Z" glyph-name="o" horiz-adv-x="530" unicode="o" /><glyph d="M266 53Q313 53 346 68.5Q379 84 401 110.5Q423 137 434.5 173Q446 209 451 250Q456 291 453 327Q450 363 435 389.5Q420 416 390.5 431.5Q361 447 314 447Q267 447 234 431.5Q201 416 179.5 389.5Q158 363 146 327Q134 291 129 250Q124 209 127 173Q130 137 145 110.5Q160 84 189.5 68.5Q219 53 266 53ZM258 -10Q197 -10 155.5 10Q114 30 90 65Q66 100 58 147.5Q50 195 57 250Q64 305 83.5 352.5Q103 400 135.5 435Q168 470 214.5 490Q261 510 322 510Q383 510 424.5 490Q466 470 490 435Q514 400 522 352.5Q530 305 523 250Q516 195 496.5 147.5Q477 100 444.5 65Q412 30 365.5 10Q319 -10 258 -10Z" glyph-name="o.smcp" horiz-adv-x="580" unicode="&#57871;" /><glyph d="M475 250Q468 193 453.5 145Q439 97 411.5 62.5Q384 28 341 9Q298 -10 233 -10Q169 -10 130.5 9Q92 28 73 62.5Q54 97 51 145Q48 193 55 250Q62 307 76.5 355Q91 403 119 437.5Q147 472 190 491Q233 510 297 510Q362 510 400.5 491Q439 472 458 437.5Q477 403 479.5 355Q482 307 475 250ZM405 250Q410 292 411 328.5Q412 365 401.5 391.5Q391 418 365 433Q339 448 290 448Q241 448 211 433Q181 418 163.5 391.5Q146 365 138 328.5Q130 292 125 250Q120 208 119 171.5Q118 135 128.5 108.5Q139 82 165.5 67Q192 52 241 52Q290 52 319.5 67Q349 82 366.5 108.5Q384 135 392 171.5Q400 208 405 250ZM277 550 352 750H432L327 550Z" glyph-name="oacute" horiz-adv-x="530" unicode="&#243;" /><glyph d="M302 550 377 750H457L352 550ZM523 250Q516 193 498 145Q480 97 448 62.5Q416 28 369.5 9Q323 -10 258 -10Q194 -10 152 9Q110 28 86.5 62.5Q63 97 56.5 145Q50 193 57 250Q64 307 82.5 355Q101 403 132.5 437.5Q164 472 211 491Q258 510 322 510Q387 510 429 491Q471 472 494 437.5Q517 403 523.5 355Q530 307 523 250ZM453 250Q458 292 456 328.5Q454 365 439 391.5Q424 418 394.5 433Q365 448 315 448Q264 448 230.5 433Q197 418 175.5 391.5Q154 365 143 328.5Q132 292 127 250Q122 208 124 171.5Q126 135 140.5 108.5Q155 82 185 67Q215 52 266 52Q316 52 349.5 67Q383 82 404 108.5Q425 135 436.5 171.5Q448 208 453 250Z" glyph-name="oacute.smcp" horiz-adv-x="580" unicode="&#57985;" /><glyph d="M475 250Q468 193 453.5 145Q439 97 411.5 62.5Q384 28 341 9Q298 -10 233 -10Q169 -10 130.5 9Q92 28 73 62.5Q54 97 51 145Q48 193 55 250Q62 307 76.5 355Q91 403 119 437.5Q147 472 190 491Q233 510 297 510Q362 510 400.5 491Q439 472 458 437.5Q477 403 479.5 355Q482 307 475 250ZM405 250Q410 292 411 328.5Q412 365 401.5 391.5Q391 418 365 433Q339 448 290 448Q241 448 211 433Q181 418 163.5 391.5Q146 365 138 328.5Q130 292 125 250Q120 208 119 171.5Q118 135 128.5 108.5Q139 82 165.5 67Q192 52 241 52Q290 52 319.5 67Q349 82 366.5 108.5Q384 135 392 171.5Q400 208 405 250ZM302 550Q131 550 152 750H203Q199 716 201.5 690Q204 664 216 646Q228 628 250.5 619Q273 610 309 610Q345 610 370 619Q395 628 411 646Q427 664 436.5 690Q446 716 451 750H502Q472 550 302 550Z" glyph-name="obreve" horiz-adv-x="530" unicode="&#335;" /><glyph d="M327 550Q156 550 177 750H228Q224 716 226.5 690Q229 664 241 646Q253 628 275.5 619Q298 610 334 610Q370 610 395 619Q420 628 436 646Q452 664 461.5 690Q471 716 476 750H527Q497 550 327 550ZM523 250Q516 193 498 145Q480 97 448 62.5Q416 28 369.5 9Q323 -10 258 -10Q194 -10 152 9Q110 28 86.5 62.5Q63 97 56.5 145Q50 193 57 250Q64 307 82.5 355Q101 403 132.5 437.5Q164 472 211 491Q258 510 322 510Q387 510 429 491Q471 472 494 437.5Q517 403 523.5 355Q530 307 523 250ZM453 250Q458 292 456 328.5Q454 365 439 391.5Q424 418 394.5 433Q365 448 315 448Q264 448 230.5 433Q197 418 175.5 391.5Q154 365 143 328.5Q132 292 127 250Q122 208 124 171.5Q126 135 140.5 108.5Q155 82 185 67Q215 52 266 52Q316 52 349.5 67Q383 82 404 108.5Q425 135 436.5 171.5Q448 208 453 250Z" glyph-name="obreve.smcp" horiz-adv-x="580" unicode="&#57992;" /><glyph d="M475 250Q468 193 453.5 145Q439 97 411.5 62.5Q384 28 341 9Q298 -10 233 -10Q169 -10 130.5 9Q92 28 73 62.5Q54 97 51 145Q48 193 55 250Q62 307 76.5 355Q91 403 119 437.5Q147 472 190 491Q233 510 297 510Q362 510 400.5 491Q439 472 458 437.5Q477 403 479.5 355Q482 307 475 250ZM405 250Q410 292 411 328.5Q412 365 401.5 391.5Q391 418 365 433Q339 448 290 448Q241 448 211 433Q181 418 163.5 391.5Q146 365 138 328.5Q130 292 125 250Q120 208 119 171.5Q118 135 128.5 108.5Q139 82 165.5 67Q192 52 241 52Q290 52 319.5 67Q349 82 366.5 108.5Q384 135 392 171.5Q400 208 405 250ZM432 550 319 691 172 550H117L287 750H367L487 550Z" glyph-name="ocircumflex" horiz-adv-x="530" unicode="&#244;" /><glyph d="M457 550 344 691 197 550H142L312 750H392L512 550ZM523 250Q516 193 498 145Q480 97 448 62.5Q416 28 369.5 9Q323 -10 258 -10Q194 -10 152 9Q110 28 86.5 62.5Q63 97 56.5 145Q50 193 57 250Q64 307 82.5 355Q101 403 132.5 437.5Q164 472 211 491Q258 510 322 510Q387 510 429 491Q471 472 494 437.5Q517 403 523.5 355Q530 307 523 250ZM453 250Q458 292 456 328.5Q454 365 439 391.5Q424 418 394.5 433Q365 448 315 448Q264 448 230.5 433Q197 418 175.5 391.5Q154 365 143 328.5Q132 292 127 250Q122 208 124 171.5Q126 135 140.5 108.5Q155 82 185 67Q215 52 266 52Q316 52 349.5 67Q383 82 404 108.5Q425 135 436.5 171.5Q448 208 453 250Z" glyph-name="ocircumflex.smcp" horiz-adv-x="580" unicode="&#57987;" /><glyph d="M475 250Q468 193 453.5 145Q439 97 411.5 62.5Q384 28 341 9Q298 -10 233 -10Q169 -10 130.5 9Q92 28 73 62.5Q54 97 51 145Q48 193 55 250Q62 307 76.5 355Q91 403 119 437.5Q147 472 190 491Q233 510 297 510Q362 510 400.5 491Q439 472 458 437.5Q477 403 479.5 355Q482 307 475 250ZM405 250Q410 292 411 328.5Q412 365 401.5 391.5Q391 418 365 433Q339 448 290 448Q241 448 211 433Q181 418 163.5 391.5Q146 365 138 328.5Q130 292 125 250Q120 208 119 171.5Q118 135 128.5 108.5Q139 82 165.5 67Q192 52 241 52Q290 52 319.5 67Q349 82 366.5 108.5Q384 135 392 171.5Q400 208 405 250ZM175 650Q175 668 188 681Q201 694 219 694Q237 694 250 681Q263 668 263 650Q263 632 250 619Q237 606 219 606Q201 606 188 619Q175 632 175 650ZM365 650Q365 668 378 681Q391 694 409 694Q427 694 440 681Q453 668 453 650Q453 632 440 619Q427 606 409 606Q391 606 378 619Q365 632 365 650Z" glyph-name="odieresis" horiz-adv-x="530" unicode="&#246;" /><glyph d="M523 250Q516 193 498 145Q480 97 448 62.5Q416 28 369.5 9Q323 -10 258 -10Q194 -10 152 9Q110 28 86.5 62.5Q63 97 56.5 145Q50 193 57 250Q64 307 82.5 355Q101 403 132.5 437.5Q164 472 211 491Q258 510 322 510Q387 510 429 491Q471 472 494 437.5Q517 403 523.5 355Q530 307 523 250ZM453 250Q458 292 456 328.5Q454 365 439 391.5Q424 418 394.5 433Q365 448 315 448Q264 448 230.5 433Q197 418 175.5 391.5Q154 365 143 328.5Q132 292 127 250Q122 208 124 171.5Q126 135 140.5 108.5Q155 82 185 67Q215 52 266 52Q316 52 349.5 67Q383 82 404 108.5Q425 135 436.5 171.5Q448 208 453 250ZM200 650Q200 668 213 681Q226 694 244 694Q262 694 275 681Q288 668 288 650Q288 632 275 619Q262 606 244 606Q226 606 213 619Q200 632 200 650ZM390 650Q390 668 403 681Q416 694 434 694Q452 694 465 681Q478 668 478 650Q478 632 465 619Q452 606 434 606Q416 606 403 619Q390 632 390 650Z" glyph-name="odieresis.smcp" horiz-adv-x="580" unicode="&#57988;" /><glyph d="M405 250Q410 292 411 328.5Q412 365 401.5 391.5Q391 418 365 433Q339 448 290 448Q241 448 211 433Q181 418 163.5 391.5Q146 365 138 328.5Q130 292 125 250Q120 208 119 171.5Q118 135 128.5 108.5Q139 82 165.5 67Q192 52 241 52Q290 52 319.5 67Q349 82 366.5 108.5Q384 135 392 171.5Q400 208 405 250ZM618 275Q655 275 679.5 281.5Q704 288 718.5 300Q733 312 740 328Q747 344 749 362Q751 380 748.5 396Q746 412 734 423.5Q722 435 699.5 441.5Q677 448 640 448Q597 448 568 433.5Q539 419 521 395Q503 371 493 340Q483 309 478 275ZM596 -10Q519 -10 478 15.5Q437 41 420 78Q392 35 347.5 12.5Q303 -10 233 -10Q169 -10 130.5 9Q92 28 73 62.5Q54 97 51 145Q48 193 55 250Q62 307 76.5 355Q91 403 119 437.5Q147 472 190 491Q233 510 297 510Q367 510 406 488Q445 466 463 426Q491 465 535 487.5Q579 510 647 510Q700 510 734 497Q768 484 787 463Q806 442 812 415.5Q818 389 815 362Q812 335 799.5 309.5Q787 284 762.5 263.5Q738 243 701 230.5Q664 218 611 218H471Q469 185 471.5 155Q474 125 487 102Q500 79 527 65.5Q554 52 600 52Q651 52 689.5 68.5Q728 85 751 102L776 49Q742 24 697 7Q652 -10 596 -10Z" glyph-name="oe" horiz-adv-x="860" unicode="&#339;" /><glyph d="M328 437Q278 437 243 423.5Q208 410 185 385.5Q162 361 149.5 326.5Q137 292 132 250Q127 208 131 173.5Q135 139 152 114.5Q169 90 200.5 76.5Q232 63 282 63H346L392 437ZM667 225H434L414 63H682L675 0H272Q208 0 164 17.5Q120 35 94.5 67.5Q69 100 61 146.5Q53 193 60 250Q67 307 86.5 353.5Q106 400 139 432.5Q172 465 220.5 482.5Q269 500 333 500H736L728 437H460L442 288H675Z" glyph-name="oe.smcp" horiz-adv-x="765" unicode="&#58008;" /><glyph d="M202 -142Q199 -165 209.5 -182Q220 -199 252 -199Q277 -199 294.5 -190.5Q312 -182 321 -176L341 -220Q323 -233 299 -242.5Q275 -252 237 -252Q186 -252 160 -226Q134 -200 139 -155Q147 -98 190.5 -48Q234 2 309 34L326 0Q273 -27 240 -65Q207 -103 202 -142Z" glyph-name="ogonek" horiz-adv-x="570" unicode="&#731;" /><glyph d="M475 250Q468 193 453.5 145Q439 97 411.5 62.5Q384 28 341 9Q298 -10 233 -10Q169 -10 130.5 9Q92 28 73 62.5Q54 97 51 145Q48 193 55 250Q62 307 76.5 355Q91 403 119 437.5Q147 472 190 491Q233 510 297 510Q362 510 400.5 491Q439 472 458 437.5Q477 403 479.5 355Q482 307 475 250ZM405 250Q410 292 411 328.5Q412 365 401.5 391.5Q391 418 365 433Q339 448 290 448Q241 448 211 433Q181 418 163.5 391.5Q146 365 138 328.5Q130 292 125 250Q120 208 119 171.5Q118 135 128.5 108.5Q139 82 165.5 67Q192 52 241 52Q290 52 319.5 67Q349 82 366.5 108.5Q384 135 392 171.5Q400 208 405 250ZM277 550 222 750H302L327 550Z" glyph-name="ograve" horiz-adv-x="530" unicode="&#242;" /></font>
</defs>
</svg>
