<?xml version="1.0" standalone="no"?><!DOCTYPE svg PUBLIC "-//W3C//DTD SVG 1.1//EN" "http://www.w3.org/Graphics/SVG/1.1/DTD/svg11.dtd" ><svg version="1.1" xmlns="http://www.w3.org/2000/svg"><defs><font horiz-adv-x="0" id="font"><font-face ascent="750" bbox="-136 -270 2040 921" cap-height="750" descent="-250" font-family="Optic Sans" font-stretch="normal" font-style="normal" font-weight="600" units-per-em="1000" x-height="500" /><missing-glyph d="M65 750H815V0H65ZM440 422 702 684H178ZM178 66H702L440 328ZM744 118V632L487 375ZM136 632V118L393 375Z" horiz-adv-x="880" /><glyph glyph-name=".null" horiz-adv-x="0" /><glyph d="M25 0 290 756H318L583 0H537L464 215H144L71 0ZM155 250H452L304 687Z" glyph-name="A" horiz-adv-x="608" unicode="A" /><glyph d="M498 406H849V372H504L563 34H886V0H529L492 216H174L68 0H25L402 750H886V716H445ZM191 249H487L411 695Z" glyph-name="AE" horiz-adv-x="941" unicode="&#198;" /><glyph d="M25 0 290 756H318L583 0H537L464 215H144L71 0ZM155 250H452L304 687ZM288 800 346 900H406L320 800Z" glyph-name="Aacute" horiz-adv-x="608" unicode="&#193;" /><glyph d="M25 0 290 756H318L583 0H537L464 215H144L71 0ZM155 250H452L304 687ZM304 790Q163 790 159 900H187Q189 864 216 843.5Q243 823 304 823Q365 823 392 843.5Q419 864 421 900H449Q445 790 304 790Z" glyph-name="Abreve" horiz-adv-x="608" unicode="&#258;" /><glyph d="M25 0 290 756H318L583 0H537L464 215H144L71 0ZM155 250H452L304 687ZM416 800 304 872 192 800H157L282 900H326L451 800Z" glyph-name="Acircumflex" horiz-adv-x="608" unicode="&#194;" /><glyph d="M25 0 290 756H318L583 0H537L464 215H144L71 0ZM155 250H452L304 687ZM182 850Q182 861 190 869Q198 877 209 877Q220 877 228 869Q236 861 236 850Q236 839 228 831Q220 823 209 823Q198 823 190 831Q182 839 182 850ZM372 850Q372 861 380 869Q388 877 399 877Q410 877 418 869Q426 861 426 850Q426 839 418 831Q410 823 399 823Q388 823 380 831Q372 839 372 850Z" glyph-name="Adieresis" horiz-adv-x="608" unicode="&#196;" /><glyph d="M25 0 290 756H318L583 0H537L464 215H144L71 0ZM155 250H452L304 687ZM288 800 202 900H262L320 800Z" glyph-name="Agrave" horiz-adv-x="608" unicode="&#192;" /><glyph d="M25 0 290 756H318L583 0H537L464 215H144L71 0ZM155 250H452L304 687ZM167 868H441V833H167Z" glyph-name="Amacron" horiz-adv-x="608" unicode="&#256;" /><glyph d="M25 0 290 756H318L583 0H539L304 688L69 0Z" glyph-name="Anocross" horiz-adv-x="608" unicode="&#59185;" /><glyph d="M25 0 290 756H318L583 0Q568 -6 547.5 -19.5Q527 -33 508 -51.5Q489 -70 475.5 -94.5Q462 -119 462 -148Q462 -185 481.5 -202Q501 -219 531 -219Q559 -219 576 -211.5Q593 -204 603 -196L618 -221Q607 -230 583.5 -240Q560 -250 528 -250Q485 -250 457.5 -226.5Q430 -203 430 -154Q430 -100 461.5 -62Q493 -24 536 2L464 215H144L71 0ZM155 250H452L304 687Z" glyph-name="Aogonek" horiz-adv-x="608" unicode="&#260;" /><glyph d="M304 921Q342 921 370 906Q398 891 398 850Q398 809 370 794Q342 779 304 779Q267 779 238.5 794Q210 809 210 850Q210 891 238.5 906Q267 921 304 921ZM304 808Q338 808 352.5 819Q367 830 367 850Q367 870 352.5 881Q338 892 304 892Q270 892 255 881Q240 870 240 850Q240 830 255 819Q270 808 304 808ZM25 0 290 756H318L583 0H537L464 215H144L71 0ZM155 250H452L304 687Z" glyph-name="Aring" horiz-adv-x="608" unicode="&#197;" /><glyph d="M25 0 290 756H318L583 0H537L464 215H144L71 0ZM155 250H452L304 687ZM375 833Q430 833 433 893H467Q465 847 441 823.5Q417 800 375 800Q348 800 330.5 810.5Q313 821 298 833.5Q283 846 268.5 856.5Q254 867 233 867Q178 867 175 807H141Q143 853 167 876.5Q191 900 233 900Q260 900 277.5 889.5Q295 879 310 866.5Q325 854 339.5 843.5Q354 833 375 833Z" glyph-name="Atilde" horiz-adv-x="608" unicode="&#195;" /><glyph d="M71 750H301Q365 750 408.5 735Q452 720 478.5 694.5Q505 669 516.5 634.5Q528 600 528 560Q528 496 494 449Q460 402 401 392Q439 390 468 374.5Q497 359 516 333.5Q535 308 544.5 275Q554 242 554 204Q554 161 541.5 123.5Q529 86 500 58.5Q471 31 424 15.5Q377 0 309 0H71ZM111 37H316Q377 37 415.5 51Q454 65 476 88.5Q498 112 506 142Q514 172 514 204Q514 293 469.5 332Q425 371 318 371H111ZM488 560Q488 589 481.5 616.5Q475 644 455.5 665.5Q436 687 401.5 700Q367 713 310 713H111V407H318Q368 407 400.5 420Q433 433 452.5 454.5Q472 476 480 503.5Q488 531 488 560Z" glyph-name="B" horiz-adv-x="595" unicode="B" /><glyph d="M71 750H301Q365 750 408.5 735Q452 720 478.5 694.5Q505 669 516.5 634.5Q528 600 528 560Q528 496 493 449Q458 402 393 392Q435 390 465 374.5Q495 359 515 333.5Q535 308 544.5 275Q554 242 554 204Q554 161 541.5 123.5Q529 86 500 58.5Q471 31 424 15.5Q377 0 309 0H71ZM111 37H316Q377 37 415 51Q453 65 474.5 88.5Q496 112 504 142Q512 172 512 204Q512 248 502 280Q492 312 469 332Q446 352 409 361.5Q372 371 318 371H111ZM487 560Q487 589 480.5 616.5Q474 644 455 665.5Q436 687 401.5 700Q367 713 310 713H111V407H318Q368 407 400.5 420Q433 433 452.5 454.5Q472 476 479.5 503.5Q487 531 487 560ZM261 850Q261 861 269 869Q277 877 288 877Q299 877 307 869Q315 861 315 850Q315 839 307 831Q299 823 288 823Q277 823 269 831Q261 839 261 850Z" glyph-name="Bdotaccent" horiz-adv-x="595" unicode="&#7682;" /><glyph d="M56 375Q56 464 72 534.5Q88 605 124 654.5Q160 704 217 730Q274 756 356 756Q394 756 425 748.5Q456 741 479 730.5Q502 720 518 708.5Q534 697 543 688L525 655Q514 665 498 676.5Q482 688 461 697.5Q440 707 414.5 713.5Q389 720 358 720Q217 720 156.5 631.5Q96 543 96 375Q96 207 156.5 118.5Q217 30 358 30Q389 30 414.5 36.5Q440 43 461 52.5Q482 62 498 73.5Q514 85 525 95L543 62Q534 53 518 41.5Q502 30 479 19.5Q456 9 425 1.5Q394 -6 356 -6Q274 -6 217 20Q160 46 124 95.5Q88 145 72 215.5Q56 286 56 375Z" glyph-name="C" horiz-adv-x="590" unicode="C" /><glyph d="M332 800 389 900H449L363 800ZM56 375Q56 464 72 534.5Q88 605 124 654.5Q160 704 217 730Q274 756 356 756Q394 756 425 748.5Q456 741 479 730.5Q502 720 518 708.5Q534 697 543 688L525 655Q514 665 498 676.5Q482 688 461 697.5Q440 707 414.5 713.5Q389 720 358 720Q217 720 156.5 631.5Q96 543 96 375Q96 207 156.5 118.5Q217 30 358 30Q389 30 414.5 36.5Q440 43 461 52.5Q482 62 498 73.5Q514 85 525 95L543 62Q534 53 518 41.5Q502 30 479 19.5Q456 9 425 1.5Q394 -6 356 -6Q274 -6 217 20Q160 46 124 95.5Q88 145 72 215.5Q56 286 56 375Z" glyph-name="Cacute" horiz-adv-x="590" unicode="&#262;" /><glyph d="M235 900 347 828 459 900H494L369 800H325L200 900ZM56 375Q56 464 72 534.5Q88 605 124 654.5Q160 704 217 730Q274 756 356 756Q394 756 425 748.5Q456 741 479 730.5Q502 720 518 708.5Q534 697 543 688L525 655Q514 665 498 676.5Q482 688 461 697.5Q440 707 414.5 713.5Q389 720 358 720Q217 720 156.5 631.5Q96 543 96 375Q96 207 156.5 118.5Q217 30 358 30Q389 30 414.5 36.5Q440 43 461 52.5Q482 62 498 73.5Q514 85 525 95L543 62Q534 53 518 41.5Q502 30 479 19.5Q456 9 425 1.5Q394 -6 356 -6Q274 -6 217 20Q160 46 124 95.5Q88 145 72 215.5Q56 286 56 375Z" glyph-name="Ccaron" horiz-adv-x="590" unicode="&#268;" /><glyph d="M56 375Q56 464 72 534.5Q88 605 124 654.5Q160 704 217 730Q274 756 356 756Q394 756 425 748.5Q456 741 479 730.5Q502 720 518 708.5Q534 697 543 688L525 655Q514 665 498 676.5Q482 688 461 697.5Q440 707 414.5 713.5Q389 720 358 720Q217 720 156.5 631.5Q96 543 96 375Q96 207 156.5 118.5Q217 30 358 30Q389 30 414.5 36.5Q440 43 461 52.5Q482 62 498 73.5Q514 85 525 95L543 62Q534 53 518 41.5Q502 30 479 19.5Q456 9 425 1.5Q394 -6 356 -6H355L359 -71Q376 -74 393 -81.5Q410 -89 424 -100.5Q438 -112 447 -128.5Q456 -145 456 -166Q456 -205 428 -227.5Q400 -250 353 -250Q316 -250 291 -240Q266 -230 255 -221L270 -196Q280 -204 300 -211.5Q320 -219 350 -219Q388 -219 404.5 -205.5Q421 -192 421 -167Q421 -131 395 -115.5Q369 -100 326 -92L332 -5Q257 -2 204.5 26Q152 54 119 103Q86 152 71 221Q56 290 56 375Z" glyph-name="Ccedilla" horiz-adv-x="590" unicode="&#199;" /><glyph d="M459 800 347 872 235 800H200L325 900H369L494 800ZM56 375Q56 464 72 534.5Q88 605 124 654.5Q160 704 217 730Q274 756 356 756Q394 756 425 748.5Q456 741 479 730.5Q502 720 518 708.5Q534 697 543 688L525 655Q514 665 498 676.5Q482 688 461 697.5Q440 707 414.5 713.5Q389 720 358 720Q217 720 156.5 631.5Q96 543 96 375Q96 207 156.5 118.5Q217 30 358 30Q389 30 414.5 36.5Q440 43 461 52.5Q482 62 498 73.5Q514 85 525 95L543 62Q534 53 518 41.5Q502 30 479 19.5Q456 9 425 1.5Q394 -6 356 -6Q274 -6 217 20Q160 46 124 95.5Q88 145 72 215.5Q56 286 56 375Z" glyph-name="Ccircumflex" horiz-adv-x="590" unicode="&#264;" /><glyph d="M56 375Q56 464 72 534.5Q88 605 124 654.5Q160 704 217 730Q274 756 356 756Q394 756 425 748.5Q456 741 479 730.5Q502 720 518 708.5Q534 697 543 688L525 655Q514 665 498 676.5Q482 688 461 697.5Q440 707 414.5 713.5Q389 720 358 720Q217 720 156.5 631.5Q96 543 96 375Q96 207 156.5 118.5Q217 30 358 30Q389 30 414.5 36.5Q440 43 461 52.5Q482 62 498 73.5Q514 85 525 95L543 62Q534 53 518 41.5Q502 30 479 19.5Q456 9 425 1.5Q394 -6 356 -6Q274 -6 217 20Q160 46 124 95.5Q88 145 72 215.5Q56 286 56 375ZM320 850Q320 861 328 869Q336 877 347 877Q358 877 366 869Q374 861 374 850Q374 839 366 831Q358 823 347 823Q336 823 328 831Q320 839 320 850Z" glyph-name="Cdotaccent" horiz-adv-x="590" unicode="&#266;" /><glyph d="M71 0V750H285Q375 750 432 724Q489 698 521.5 649Q554 600 566.5 530.5Q579 461 579 375Q579 289 566.5 219.5Q554 150 521.5 101.5Q489 53 432 26.5Q375 0 285 0ZM111 37H282Q358 37 407.5 59Q457 81 486 123.5Q515 166 526.5 229.5Q538 293 538 375Q538 458 526.5 521Q515 584 486 626.5Q457 669 407.5 691Q358 713 282 713H111Z" glyph-name="D" horiz-adv-x="636" unicode="D" /><glyph d="M71 0V750H285Q375 750 432 724Q489 698 521.5 649Q554 600 566.5 530.5Q579 461 579 375Q579 289 566.5 219.5Q554 150 521.5 101.5Q489 53 432 26.5Q375 0 285 0ZM111 37H282Q358 37 407.5 59Q457 81 486 123.5Q515 166 526.5 229.5Q538 293 538 375Q538 458 526.5 521Q515 584 486 626.5Q457 669 407.5 691Q358 713 282 713H111ZM178 900 290 828 402 900H437L312 800H268L143 900Z" glyph-name="Dcaron" horiz-adv-x="636" unicode="&#270;" /><glyph d="M19 396H109V750H323Q413 750 470 724Q527 698 559.5 649Q592 600 604.5 530.5Q617 461 617 375Q617 289 604.5 219.5Q592 150 559.5 101.5Q527 53 470 26.5Q413 0 323 0H109V362H19ZM149 396H329V362H149V37H320Q396 37 445.5 59Q495 81 524 123.5Q553 166 564.5 229.5Q576 293 576 375Q576 458 564.5 521Q553 584 524 626.5Q495 669 445.5 691Q396 713 320 713H149Z" glyph-name="Dcroat" horiz-adv-x="673" unicode="&#272;" /><glyph d="M71 0V750H285Q375 750 432 724Q489 698 521.5 649Q554 600 566.5 530.5Q579 461 579 375Q579 289 566.5 219.5Q554 150 521.5 101.5Q489 53 432 26.5Q375 0 285 0ZM111 37H282Q358 37 407.5 59Q457 81 486 123.5Q515 166 526.5 229.5Q538 293 538 375Q538 458 526.5 521Q515 584 486 626.5Q457 669 407.5 691Q358 713 282 713H111ZM261 850Q261 861 269 869Q277 877 288 877Q299 877 307 869Q315 861 315 850Q315 839 307 831Q299 823 288 823Q277 823 269 831Q261 839 261 850Z" glyph-name="Ddotaccent" horiz-adv-x="636" unicode="&#7690;" /><glyph d="M41 25 385 756H425L770 25V0H41ZM725 34 405 714 86 34Z" glyph-name="Delta" horiz-adv-x="811" unicode="&#8710;" /><glyph d="M455 371H111V37H491V0H71V750H491V713H111V407H455Z" glyph-name="E" horiz-adv-x="547" unicode="E" /><glyph d="M455 371H111V37H491V0H71V750H491V713H111V407H455ZM273 800 330 900H390L304 800Z" glyph-name="Eacute" horiz-adv-x="547" unicode="&#201;" /><glyph d="M455 371H111V37H491V0H71V750H491V713H111V407H455ZM288 790Q147 790 143 900H171Q173 864 200 843.5Q227 823 288 823Q349 823 376.5 843.5Q404 864 406 900H433Q429 790 288 790Z" glyph-name="Ebreve" horiz-adv-x="547" unicode="&#276;" /><glyph d="M455 371H111V37H491V0H71V750H491V713H111V407H455ZM176 900 288 828 401 900H436L311 800H266L141 900Z" glyph-name="Ecaron" horiz-adv-x="547" unicode="&#282;" /><glyph d="M455 371H111V37H491V0H71V750H491V713H111V407H455ZM401 800 288 872 176 800H141L266 900H311L436 800Z" glyph-name="Ecircumflex" horiz-adv-x="547" unicode="&#202;" /><glyph d="M455 371H111V37H491V0H71V750H491V713H111V407H455ZM166 850Q166 861 174 869Q182 877 193 877Q204 877 212 869Q220 861 220 850Q220 839 212 831Q204 823 193 823Q182 823 174 831Q166 839 166 850ZM356 850Q356 861 364 869Q372 877 383 877Q394 877 402 869Q410 861 410 850Q410 839 402 831Q394 823 383 823Q372 823 364 831Q356 839 356 850Z" glyph-name="Edieresis" horiz-adv-x="547" unicode="&#203;" /><glyph d="M455 371H111V37H491V0H71V750H491V713H111V407H455ZM261 850Q261 861 269 869Q277 877 288 877Q299 877 307 869Q315 861 315 850Q315 839 307 831Q299 823 288 823Q277 823 269 831Q261 839 261 850Z" glyph-name="Edotaccent" horiz-adv-x="547" unicode="&#278;" /><glyph d="M455 371H111V37H491V0H71V750H491V713H111V407H455ZM273 800 187 900H246L304 800Z" glyph-name="Egrave" horiz-adv-x="547" unicode="&#200;" /><glyph d="M455 371H111V37H491V0H71V750H491V713H111V407H455ZM151 868H425V833H151Z" glyph-name="Emacron" horiz-adv-x="547" unicode="&#274;" /><glyph d="M407 -221Q435 -221 459.5 -215.5Q484 -210 502 -198Q520 -186 530.5 -166.5Q541 -147 541 -118V15L110 665L112 0H71V750H99L540 85L538 750H579V-116Q579 -254 412 -256Z" glyph-name="Eng" horiz-adv-x="650" unicode="&#330;" /><glyph d="M439 -219Q467 -219 484 -211.5Q501 -204 511 -196L526 -221Q515 -230 491.5 -240Q468 -250 436 -250Q393 -250 365.5 -226.5Q338 -203 338 -154Q338 -101 368 -63.5Q398 -26 440 0H71V750H491V713H111V407H455V371H111V37H491V0Q476 -6 455.5 -19.5Q435 -33 416 -51.5Q397 -70 383.5 -94.5Q370 -119 370 -148Q370 -185 389.5 -202Q409 -219 439 -219Z" glyph-name="Eogonek" horiz-adv-x="547" unicode="&#280;" /><glyph d="M329 720Q293 720 253.5 712.5Q214 705 181 682Q148 659 127 616.5Q106 574 106 504V0H66V512Q66 586 90 633Q114 680 151.5 707.5Q189 735 236 745.5Q283 756 329 756Q389 756 447 738.5Q505 721 544 673L358 395L419 387Q472 380 512.5 368Q553 356 580 333.5Q607 311 621 276Q635 241 635 189Q635 155 625 120Q615 85 589 57.5Q563 30 518 12.5Q473 -5 402 -5Q376 -5 348 -0.5Q320 4 293.5 12.5Q267 21 245.5 32Q224 43 211 55L230 88Q240 78 257.5 68Q275 58 297.5 50Q320 42 347 36.5Q374 31 402 31Q456 31 493 43.5Q530 56 552.5 77Q575 98 584.5 127Q594 156 594 189Q594 230 584.5 258.5Q575 287 553.5 306Q532 325 496 336Q460 347 407 353Q345 361 310 368V390L494 667Q460 699 415 709.5Q370 720 329 720Z" glyph-name="Eszett" horiz-adv-x="671" unicode="&#7838;" /><glyph d="M19 396H109V750H323Q413 750 470 724Q527 698 559.5 649Q592 600 604.5 530.5Q617 461 617 375Q617 289 604.5 219.5Q592 150 559.5 101.5Q527 53 470 26.5Q413 0 323 0H109V362H19ZM149 396H329V362H149V37H320Q396 37 445.5 59Q495 81 524 123.5Q553 166 564.5 229.5Q576 293 576 375Q576 458 564.5 521Q553 584 524 626.5Q495 669 445.5 691Q396 713 320 713H149Z" glyph-name="Eth" horiz-adv-x="673" unicode="&#208;" /><glyph d="M178 285Q183 225 197.5 177.5Q212 130 238.5 97.5Q265 65 305.5 47.5Q346 30 403 30Q457 30 494 47.5Q531 65 550 82L568 49Q560 42 546 32Q532 22 512 14Q492 6 464.5 0Q437 -6 401 -6Q333 -6 285.5 14Q238 34 206.5 72Q175 110 158.5 164Q142 218 137 285H51V321H135Q134 332 134 347.5Q134 363 134 375Q134 385 134 394.5Q134 404 135 412Q135 421 135 429H51V465H137Q142 533 158.5 586.5Q175 640 206.5 678Q238 716 285.5 736Q333 756 401 756Q437 756 464.5 750Q492 744 512 736Q532 728 546 718.5Q560 709 568 701L550 668Q531 685 494 702.5Q457 720 403 720Q346 720 305.5 702.5Q265 685 238.5 652.5Q212 620 197.5 572.5Q183 525 178 465H471L458 429H175Q175 421 175 412Q174 403 174 394Q174 385 174 375Q174 363 174 347.5Q174 332 175 321H421L407 285Z" glyph-name="Euro" horiz-adv-x="600" unicode="&#8364;" /><glyph d="M96 250Q96 277 99 302H26V338H107Q127 412 187.5 459Q248 506 359 506Q398 506 429 499.5Q460 493 482.5 483.5Q505 474 520 464Q535 454 542 446L524 415Q518 421 506.5 430Q495 439 475.5 448Q456 457 426.5 463Q397 469 356 469Q311 469 276.5 459Q242 449 217.5 431.5Q193 414 176.5 390Q160 366 151 338H446L433 302H142Q140 289 139 276Q138 263 138 250Q138 236 139 223.5Q140 211 142 198H397L383 162H151Q160 134 176.5 110Q193 86 217.5 68.5Q242 51 276.5 41Q311 31 356 31Q397 31 426.5 37Q456 43 475.5 52Q495 61 506.5 70Q518 79 524 85L542 54Q535 47 520 36.5Q505 26 482.5 16.5Q460 7 429 0.5Q398 -6 359 -6Q248 -6 187.5 41Q127 88 107 162H26V198H99Q96 222 96 250Z" glyph-name="Euro.OP" horiz-adv-x="590" unicode="&#59805;" /><glyph d="M445 371H111V0H71V750H481V713H111V407H445Z" glyph-name="F" horiz-adv-x="524" unicode="F" /><glyph d="M445 371H111V0H71V750H481V713H111V407H445ZM261 850Q261 861 269 869Q277 877 288 877Q299 877 307 869Q315 861 315 850Q315 839 307 831Q299 823 288 823Q277 823 269 831Q261 839 261 850Z" glyph-name="Fdotaccent" horiz-adv-x="524" unicode="&#7710;" /><glyph d="M351 -6Q269 -6 212.5 20.5Q156 47 121 96Q86 145 71 216Q56 287 56 375Q56 464 71.5 534.5Q87 605 124 654Q161 703 221 729.5Q281 756 370 756Q409 756 440 749Q471 742 495 731.5Q519 721 535.5 710Q552 699 561 690L543 657Q520 678 477 699Q434 720 371 720Q293 720 240.5 697.5Q188 675 156 631Q124 587 110 522.5Q96 458 96 375Q96 292 109.5 227.5Q123 163 153.5 119Q184 75 232.5 52.5Q281 30 351 30Q375 30 401 33Q427 36 451.5 41.5Q476 47 497 54.5Q518 62 530 71V343H331V379H570V51Q539 30 482.5 12Q426 -6 351 -6Z" glyph-name="G" horiz-adv-x="641" unicode="G" /><glyph d="M347 790Q206 790 202 900H230Q232 864 259 843.5Q286 823 347 823Q408 823 435.5 843.5Q463 864 465 900H492Q488 790 347 790ZM351 -6Q269 -6 212.5 20.5Q156 47 121 96Q86 145 71 216Q56 287 56 375Q56 464 71.5 534.5Q87 605 124 654Q161 703 221 729.5Q281 756 370 756Q409 756 440 749Q471 742 495 731.5Q519 721 535.5 710Q552 699 561 690L543 657Q520 678 477 699Q434 720 371 720Q293 720 240.5 697.5Q188 675 156 631Q124 587 110 522.5Q96 458 96 375Q96 292 109.5 227.5Q123 163 153.5 119Q184 75 232.5 52.5Q281 30 351 30Q375 30 401 33Q427 36 451.5 41.5Q476 47 497 54.5Q518 62 530 71V343H331V379H570V51Q539 30 482.5 12Q426 -6 351 -6Z" glyph-name="Gbreve" horiz-adv-x="641" unicode="&#286;" /><glyph d="M459 800 347 872 235 800H200L325 900H369L494 800ZM351 -6Q269 -6 212.5 20.5Q156 47 121 96Q86 145 71 216Q56 287 56 375Q56 464 71.5 534.5Q87 605 124 654Q161 703 221 729.5Q281 756 370 756Q409 756 440 749Q471 742 495 731.5Q519 721 535.5 710Q552 699 561 690L543 657Q520 678 477 699Q434 720 371 720Q293 720 240.5 697.5Q188 675 156 631Q124 587 110 522.5Q96 458 96 375Q96 292 109.5 227.5Q123 163 153.5 119Q184 75 232.5 52.5Q281 30 351 30Q375 30 401 33Q427 36 451.5 41.5Q476 47 497 54.5Q518 62 530 71V343H331V379H570V51Q539 30 482.5 12Q426 -6 351 -6Z" glyph-name="Gcircumflex" horiz-adv-x="641" unicode="&#284;" /><glyph d="M377 -50 328 -250H302L328 -50ZM351 -6Q269 -6 212.5 20.5Q156 47 121 96Q86 145 71 216Q56 287 56 375Q56 464 71.5 534.5Q87 605 124 654Q161 703 221 729.5Q281 756 370 756Q409 756 440 749Q471 742 495 731.5Q519 721 535.5 710Q552 699 561 690L543 657Q520 678 477 699Q434 720 371 720Q293 720 240.5 697.5Q188 675 156 631Q124 587 110 522.5Q96 458 96 375Q96 292 109.5 227.5Q123 163 153.5 119Q184 75 232.5 52.5Q281 30 351 30Q375 30 401 33Q427 36 451.5 41.5Q476 47 497 54.5Q518 62 530 71V343H331V379H570V51Q539 30 482.5 12Q426 -6 351 -6Z" glyph-name="Gcommaaccent" horiz-adv-x="641" unicode="&#290;" /><glyph d="M351 -6Q269 -6 212.5 20.5Q156 47 121 96Q86 145 71 216Q56 287 56 375Q56 464 71.5 534.5Q87 605 124 654Q161 703 221 729.5Q281 756 370 756Q409 756 440 749Q471 742 495 731.5Q519 721 535.5 710Q552 699 561 690L543 657Q520 678 477 699Q434 720 371 720Q293 720 240.5 697.5Q188 675 156 631Q124 587 110 522.5Q96 458 96 375Q96 292 109.5 227.5Q123 163 153.5 119Q184 75 232.5 52.5Q281 30 351 30Q375 30 401 33Q427 36 451.5 41.5Q476 47 497 54.5Q518 62 530 71V343H331V379H570V51Q539 30 482.5 12Q426 -6 351 -6ZM320 850Q320 861 328 869Q336 877 347 877Q358 877 366 869Q374 861 374 850Q374 839 366 831Q358 823 347 823Q336 823 328 831Q320 839 320 850Z" glyph-name="Gdotaccent" horiz-adv-x="641" unicode="&#288;" /><glyph d="M529 0V371H111V0H71V750H111V407H529V750H569V0Z" glyph-name="H" horiz-adv-x="640" unicode="H" /><glyph d="M529 0V371H111V0H71V750H111V592H529V750H569V0ZM529 407V557H111V407Z" glyph-name="Hbar" horiz-adv-x="640" unicode="&#294;" /><glyph d="M529 0V371H111V0H71V750H111V407H529V750H569V0ZM432 800 320 872 208 800H173L298 900H342L467 800Z" glyph-name="Hcircumflex" horiz-adv-x="640" unicode="&#292;" /><glyph d="M93 0V750H133V0Z" glyph-name="I" horiz-adv-x="226" unicode="I" /><glyph d="M93 0V750H133V0ZM237 65Q244 57 264.5 43Q285 29 323 29Q340 29 357 34Q374 39 387.5 50.5Q401 62 409.5 81.5Q418 101 418 130V750H458V132Q458 66 421.5 30Q385 -6 325 -6Q282 -6 256 8Q230 22 219 34Z" glyph-name="IJ" horiz-adv-x="557" unicode="&#306;" /><glyph d="M93 0V750H133V0ZM97 800 155 900H215L129 800Z" glyph-name="Iacute" horiz-adv-x="226" unicode="&#205;" /><glyph d="M93 0V750H133V0ZM113 790Q-28 790 -32 900H-4Q-2 864 25 843.5Q52 823 113 823Q174 823 201 843.5Q228 864 230 900H258Q254 790 113 790Z" glyph-name="Ibreve" horiz-adv-x="226" unicode="&#300;" /><glyph d="M93 0V750H133V0ZM225 800 113 872 1 800H-34L91 900H135L260 800Z" glyph-name="Icircumflex" horiz-adv-x="226" unicode="&#206;" /><glyph d="M93 0V750H133V0ZM161 850Q161 861 169 869Q177 877 188 877Q199 877 207 869Q215 861 215 850Q215 839 207 831Q199 823 188 823Q177 823 169 831Q161 839 161 850ZM11 850Q11 861 19 869Q27 877 38 877Q49 877 57 869Q65 861 65 850Q65 839 57 831Q49 823 38 823Q27 823 19 831Q11 839 11 850Z" glyph-name="Idieresis" horiz-adv-x="226" unicode="&#207;" /><glyph d="M93 0V750H133V0ZM86 850Q86 861 94 869Q102 877 113 877Q124 877 132 869Q140 861 140 850Q140 839 132 831Q124 823 113 823Q102 823 94 831Q86 839 86 850Z" glyph-name="Idotaccent" horiz-adv-x="226" unicode="&#304;" /><glyph d="M93 0V750H133V0ZM97 800 11 900H71L129 800Z" glyph-name="Igrave" horiz-adv-x="226" unicode="&#204;" /><glyph d="M93 0V750H133V0ZM-24 868H250V833H-24Z" glyph-name="Imacron" horiz-adv-x="226" unicode="&#298;" /><glyph d="M123 -219Q151 -219 168 -211.5Q185 -204 195 -196L210 -221Q199 -230 175.5 -240Q152 -250 120 -250Q77 -250 49.5 -225Q22 -200 22 -151Q22 -97 43 -59.5Q64 -22 93 4V750H133V0Q124 -6 111 -18.5Q98 -31 85 -49.5Q72 -68 63 -92Q54 -116 54 -145Q54 -182 73.5 -200.5Q93 -219 123 -219Z" glyph-name="Iogonek" horiz-adv-x="226" unicode="&#302;" /><glyph d="M93 0V750H133V0ZM184 833Q239 833 242 893H276Q274 847 250 823.5Q226 800 184 800Q157 800 139.5 810.5Q122 821 107 833.5Q92 846 77.5 856.5Q63 867 42 867Q-13 867 -16 807H-50Q-48 853 -24 876.5Q0 900 42 900Q69 900 86.5 889.5Q104 879 119 866.5Q134 854 148.5 843.5Q163 833 184 833Z" glyph-name="Itilde" horiz-adv-x="226" unicode="&#296;" /><glyph d="M37 65Q44 57 64.5 43Q85 29 123 29Q140 29 157 34Q174 39 187.5 50.5Q201 62 209.5 81.5Q218 101 218 130V750H258V132Q258 66 221.5 30Q185 -6 125 -6Q82 -6 56 8Q30 22 19 34Z" glyph-name="J" horiz-adv-x="357" unicode="J" /><glyph d="M350 800 238 872 126 800H91L216 900H260L385 800ZM37 65Q44 57 64.5 43Q85 29 123 29Q140 29 157 34Q174 39 187.5 50.5Q201 62 209.5 81.5Q218 101 218 130V750H258V132Q258 66 221.5 30Q185 -6 125 -6Q82 -6 56 8Q30 22 19 34Z" glyph-name="Jcircumflex" horiz-adv-x="357" unicode="&#308;" /><glyph d="M194 389 109 290 111 0H71V750H111L109 343L460 750H508L218 416L542 0H492Z" glyph-name="K" horiz-adv-x="558" unicode="K" /><glyph d="M109 290V0H71V750H109V341L460 750H508L218 416L542 0H492L194 389ZM313 -50 264 -250H237L263 -50Z" glyph-name="Kcommaaccent" horiz-adv-x="559" unicode="&#310;" /><glyph d="M110 37H470V0H71V750H110Z" glyph-name="L" horiz-adv-x="498" unicode="L" /><glyph d="M110 37H470V0H71V750H110ZM75 800 133 900H193L107 800Z" glyph-name="Lacute" horiz-adv-x="498" unicode="&#313;" /><glyph d="M110 37H470V0H71V750H110ZM274 750 232 550H206L230 750Z" glyph-name="Lcaron" horiz-adv-x="498" unicode="&#317;" /><glyph d="M110 37H470V0H71V750H110ZM296 -50 247 -250H221L247 -50Z" glyph-name="Lcommaaccent" horiz-adv-x="498" unicode="&#315;" /><glyph d="M110 37H470V0H71V750H110ZM317 375Q317 386 325 394Q333 402 344 402Q355 402 363 394Q371 386 371 375Q371 364 363 356Q355 348 344 348Q333 348 325 356Q317 364 317 375Z" glyph-name="Ldot" horiz-adv-x="498" unicode="&#319;" /><glyph d="M132 353 386 487V451L132 317V37H492V0H93V296L1 247V282L93 331V750H132Z" glyph-name="Lslash" horiz-adv-x="520" unicode="&#321;" /><glyph d="M387 0 110 649 112 0H71V750H112L405 56L698 750H739V0H698L700 649L423 0Z" glyph-name="M" horiz-adv-x="810" unicode="M" /><glyph d="M387 0 110 649 112 0H71V750H112L405 56L698 750H739V0H698L700 649L423 0ZM378 850Q378 861 386 869Q394 877 405 877Q416 877 424 869Q432 861 432 850Q432 839 424 831Q416 823 405 823Q394 823 386 831Q378 839 378 850Z" glyph-name="Mdotaccent" horiz-adv-x="770" unicode="&#7744;" /><glyph d="M551 0 110 665 112 0H71V750H99L540 85L538 750H579V0Z" glyph-name="N" horiz-adv-x="650" unicode="N" /><glyph d="M552 0 110 665 112 0H71V750H98L540 85L538 750H579V0ZM309 800 367 900H427L341 800Z" glyph-name="Nacute" horiz-adv-x="650" unicode="&#323;" /><glyph d="M552 0 110 665 112 0H71V750H98L540 85L538 750H579V0ZM213 900 325 828 437 900H472L347 800H303L178 900Z" glyph-name="Ncaron" horiz-adv-x="650" unicode="&#327;" /><glyph d="M552 0 110 665 112 0H71V750H98L540 85L538 750H579V0ZM355 -50 306 -250H279L305 -50Z" glyph-name="Ncommaaccent" horiz-adv-x="650" unicode="&#325;" /><glyph d="M552 0 110 665 112 0H71V750H98L540 85L538 750H579V0ZM396 833Q451 833 454 893H488Q486 847 462 823.5Q438 800 396 800Q369 800 351.5 810.5Q334 821 319 833.5Q304 846 289.5 856.5Q275 867 254 867Q199 867 196 807H162Q164 853 188 876.5Q212 900 254 900Q281 900 298.5 889.5Q316 879 331 866.5Q346 854 360.5 843.5Q375 833 396 833Z" glyph-name="Ntilde" horiz-adv-x="650" unicode="&#209;" /><glyph d="M331 30Q406 30 452.5 53Q499 76 524.5 120.5Q550 165 558.5 229Q567 293 567 375Q567 457 558.5 521Q550 585 524.5 629.5Q499 674 452.5 697Q406 720 331 720Q256 720 210 697Q164 674 138.5 629.5Q113 585 104.5 521Q96 457 96 375Q96 293 104.5 229Q113 165 138.5 120.5Q164 76 210 53Q256 30 331 30ZM331 -6Q241 -6 187 22.5Q133 51 103.5 101.5Q74 152 65 222Q56 292 56 375Q56 458 65 528Q74 598 103.5 648.5Q133 699 187 727.5Q241 756 331 756Q422 756 476.5 727.5Q531 699 560 648.5Q589 598 598 528Q607 458 607 375Q607 292 598 222Q589 152 560 101.5Q531 51 476.5 22.5Q422 -6 331 -6Z" glyph-name="O" horiz-adv-x="663" unicode="O" /><glyph d="M781 371H478V37H818V0H350Q261 0 204 26.5Q147 53 114 101.5Q81 150 68.5 219.5Q56 289 56 375Q56 461 68.5 530.5Q81 600 114 649Q147 698 204 724Q261 750 350 750H818V713H478V407H781ZM438 713H353Q278 713 228.5 691Q179 669 150 626.5Q121 584 109.5 521Q98 458 98 375Q98 293 109.5 229.5Q121 166 150 123.5Q179 81 228.5 59Q278 37 353 37H438Z" glyph-name="OE" horiz-adv-x="874" unicode="&#338;" /><glyph d="M331 30Q406 30 452.5 53Q499 76 524 120.5Q549 165 557.5 229Q566 293 566 375Q566 457 557.5 521Q549 585 524 629.5Q499 674 452.5 697Q406 720 331 720Q256 720 210 697Q164 674 139 629.5Q114 585 105.5 521Q97 457 97 375Q97 293 105.5 229Q114 165 139 120.5Q164 76 210 53Q256 30 331 30ZM331 -6Q241 -6 187 22.5Q133 51 103.5 101.5Q74 152 65 222Q56 292 56 375Q56 458 65 528Q74 598 103.5 648.5Q133 699 187 727.5Q241 756 331 756Q422 756 476.5 727.5Q531 699 560 648.5Q589 598 598 528Q607 458 607 375Q607 292 598 222Q589 152 560 101.5Q531 51 476.5 22.5Q422 -6 331 -6ZM316 800 374 900H433L347 800Z" glyph-name="Oacute" horiz-adv-x="663" unicode="&#211;" /><glyph d="M331 30Q406 30 452.5 53Q499 76 524 120.5Q549 165 557.5 229Q566 293 566 375Q566 457 557.5 521Q549 585 524 629.5Q499 674 452.5 697Q406 720 331 720Q256 720 210 697Q164 674 139 629.5Q114 585 105.5 521Q97 457 97 375Q97 293 105.5 229Q114 165 139 120.5Q164 76 210 53Q256 30 331 30ZM331 -6Q241 -6 187 22.5Q133 51 103.5 101.5Q74 152 65 222Q56 292 56 375Q56 458 65 528Q74 598 103.5 648.5Q133 699 187 727.5Q241 756 331 756Q422 756 476.5 727.5Q531 699 560 648.5Q589 598 598 528Q607 458 607 375Q607 292 598 222Q589 152 560 101.5Q531 51 476.5 22.5Q422 -6 331 -6ZM331 790Q190 790 186 900H214Q216 864 243 843.5Q270 823 331 823Q393 823 420 843.5Q447 864 449 900H476Q472 790 331 790Z" glyph-name="Obreve" horiz-adv-x="663" unicode="&#334;" /><glyph d="M331 30Q406 30 452.5 53Q499 76 524 120.5Q549 165 557.5 229Q566 293 566 375Q566 457 557.5 521Q549 585 524 629.5Q499 674 452.5 697Q406 720 331 720Q256 720 210 697Q164 674 139 629.5Q114 585 105.5 521Q97 457 97 375Q97 293 105.5 229Q114 165 139 120.5Q164 76 210 53Q256 30 331 30ZM331 -6Q241 -6 187 22.5Q133 51 103.5 101.5Q74 152 65 222Q56 292 56 375Q56 458 65 528Q74 598 103.5 648.5Q133 699 187 727.5Q241 756 331 756Q422 756 476.5 727.5Q531 699 560 648.5Q589 598 598 528Q607 458 607 375Q607 292 598 222Q589 152 560 101.5Q531 51 476.5 22.5Q422 -6 331 -6ZM444 800 331 872 219 800H184L309 900H354L479 800Z" glyph-name="Ocircumflex" horiz-adv-x="663" unicode="&#212;" /><glyph d="M331 30Q406 30 452.5 53Q499 76 524 120.5Q549 165 557.5 229Q566 293 566 375Q566 457 557.5 521Q549 585 524 629.5Q499 674 452.5 697Q406 720 331 720Q256 720 210 697Q164 674 139 629.5Q114 585 105.5 521Q97 457 97 375Q97 293 105.5 229Q114 165 139 120.5Q164 76 210 53Q256 30 331 30ZM331 -6Q241 -6 187 22.5Q133 51 103.5 101.5Q74 152 65 222Q56 292 56 375Q56 458 65 528Q74 598 103.5 648.5Q133 699 187 727.5Q241 756 331 756Q422 756 476.5 727.5Q531 699 560 648.5Q589 598 598 528Q607 458 607 375Q607 292 598 222Q589 152 560 101.5Q531 51 476.5 22.5Q422 -6 331 -6ZM209 850Q209 861 217 869Q225 877 236 877Q247 877 255 869Q263 861 263 850Q263 839 255 831Q247 823 236 823Q225 823 217 831Q209 839 209 850ZM399 850Q399 861 407 869Q415 877 426 877Q437 877 445 869Q453 861 453 850Q453 839 445 831Q437 823 426 823Q415 823 407 831Q399 839 399 850Z" glyph-name="Odieresis" horiz-adv-x="663" unicode="&#214;" /><glyph d="M331 30Q406 30 452.5 53Q499 76 524 120.5Q549 165 557.5 229Q566 293 566 375Q566 457 557.5 521Q549 585 524 629.5Q499 674 452.5 697Q406 720 331 720Q256 720 210 697Q164 674 139 629.5Q114 585 105.5 521Q97 457 97 375Q97 293 105.5 229Q114 165 139 120.5Q164 76 210 53Q256 30 331 30ZM331 -6Q241 -6 187 22.5Q133 51 103.5 101.5Q74 152 65 222Q56 292 56 375Q56 458 65 528Q74 598 103.5 648.5Q133 699 187 727.5Q241 756 331 756Q422 756 476.5 727.5Q531 699 560 648.5Q589 598 598 528Q607 458 607 375Q607 292 598 222Q589 152 560 101.5Q531 51 476.5 22.5Q422 -6 331 -6ZM316 800 230 900H289L347 800Z" glyph-name="Ograve" horiz-adv-x="663" unicode="&#210;" /><glyph d="M331 30Q406 30 452.5 53Q499 76 524 120.5Q549 165 557.5 229Q566 293 566 375Q566 457 557.5 521Q549 585 524 629.5Q499 674 452.5 697Q406 720 331 720Q256 720 210 697Q164 674 139 629.5Q114 585 105.5 521Q97 457 97 375Q97 293 105.5 229Q114 165 139 120.5Q164 76 210 53Q256 30 331 30ZM331 -6Q241 -6 187 22.5Q133 51 103.5 101.5Q74 152 65 222Q56 292 56 375Q56 458 65 528Q74 598 103.5 648.5Q133 699 187 727.5Q241 756 331 756Q422 756 476.5 727.5Q531 699 560 648.5Q589 598 598 528Q607 458 607 375Q607 292 598 222Q589 152 560 101.5Q531 51 476.5 22.5Q422 -6 331 -6ZM264 800 321 900H381L295 800ZM368 800 426 900H486L399 800Z" glyph-name="Ohungarumlaut" horiz-adv-x="663" unicode="&#336;" /><glyph d="M331 30Q406 30 452.5 53Q499 76 524 120.5Q549 165 557.5 229Q566 293 566 375Q566 457 557.5 521Q549 585 524 629.5Q499 674 452.5 697Q406 720 331 720Q256 720 210 697Q164 674 139 629.5Q114 585 105.5 521Q97 457 97 375Q97 293 105.5 229Q114 165 139 120.5Q164 76 210 53Q256 30 331 30ZM331 -6Q241 -6 187 22.5Q133 51 103.5 101.5Q74 152 65 222Q56 292 56 375Q56 458 65 528Q74 598 103.5 648.5Q133 699 187 727.5Q241 756 331 756Q422 756 476.5 727.5Q531 699 560 648.5Q589 598 598 528Q607 458 607 375Q607 292 598 222Q589 152 560 101.5Q531 51 476.5 22.5Q422 -6 331 -6ZM194 868H468V833H194Z" glyph-name="Omacron" horiz-adv-x="663" unicode="&#332;" /><glyph d="M331 -6Q271 -6 228 6.5Q185 19 154 42L129 0H88L128 66Q83 116 69.5 196Q56 276 56 375Q56 459 65 529Q74 599 103.5 649.5Q133 700 187 728Q241 756 331 756Q391 756 434.5 743Q478 730 509 707L534 750H575L534 682Q579 632 592.5 552.5Q606 473 606 375Q606 291 597 221Q588 151 559 100.5Q530 50 475.5 22Q421 -6 331 -6ZM331 29Q407 29 453 52Q499 75 524.5 119Q550 163 558.5 227.5Q567 292 567 375Q567 467 556.5 535Q546 603 514 648L173 74Q200 51 238.5 40Q277 29 331 29ZM94 375Q94 282 104.5 213.5Q115 145 149 101L490 675Q463 698 424 709.5Q385 721 331 721Q255 721 208.5 698Q162 675 136.5 631Q111 587 102.5 522.5Q94 458 94 375Z" glyph-name="Oslash" horiz-adv-x="658" unicode="&#216;" /><glyph d="M331 30Q406 30 452.5 53Q499 76 524 120.5Q549 165 557.5 229Q566 293 566 375Q566 457 557.5 521Q549 585 524 629.5Q499 674 452.5 697Q406 720 331 720Q256 720 210 697Q164 674 139 629.5Q114 585 105.5 521Q97 457 97 375Q97 293 105.5 229Q114 165 139 120.5Q164 76 210 53Q256 30 331 30ZM331 -6Q241 -6 187 22.5Q133 51 103.5 101.5Q74 152 65 222Q56 292 56 375Q56 458 65 528Q74 598 103.5 648.5Q133 699 187 727.5Q241 756 331 756Q422 756 476.5 727.5Q531 699 560 648.5Q589 598 598 528Q607 458 607 375Q607 292 598 222Q589 152 560 101.5Q531 51 476.5 22.5Q422 -6 331 -6ZM403 833Q458 833 460 893H495Q493 847 469 823.5Q445 800 403 800Q376 800 358 810.5Q340 821 325.5 833.5Q311 846 296 856.5Q281 867 260 867Q205 867 203 807H168Q170 853 194 876.5Q218 900 260 900Q287 900 305 889.5Q323 879 337.5 866.5Q352 854 367 843.5Q382 833 403 833Z" glyph-name="Otilde" horiz-adv-x="663" unicode="&#213;" /><glyph d="M111 0H71V750H304Q373 750 418 732Q463 714 489.5 683.5Q516 653 527 613.5Q538 574 538 531Q538 488 527 448.5Q516 409 489.5 379Q463 349 418 331Q373 313 304 313H111ZM111 349H310Q370 349 407 366Q444 383 464 409.5Q484 436 491 468Q498 500 498 531Q498 562 491 594.5Q484 627 464 653Q444 679 407 696Q370 713 310 713H111Z" glyph-name="P" horiz-adv-x="569" unicode="P" /><glyph d="M111 0H71V750H304Q373 750 418 732Q463 714 489.5 683.5Q516 653 527 613.5Q538 574 538 531Q538 488 527 448.5Q516 409 489.5 379Q463 349 418 331Q373 313 304 313H111ZM111 349H310Q370 349 406.5 366Q443 383 463.5 409.5Q484 436 490.5 468Q497 500 497 531Q497 562 490.5 594.5Q484 627 463.5 653Q443 679 406.5 696Q370 713 310 713H111ZM259 850Q259 861 267 869Q275 877 286 877Q297 877 305 869Q313 861 313 850Q313 839 305 831Q297 823 286 823Q275 823 267 831Q259 839 259 850Z" glyph-name="Pdotaccent" horiz-adv-x="578" unicode="&#7766;" /><glyph d="M331 -6Q241 -6 187 22.5Q133 51 103.5 101.5Q74 152 65 222Q56 292 56 375Q56 458 65 528Q74 598 103.5 648.5Q133 699 187 727.5Q241 756 331 756Q422 756 476.5 727.5Q531 699 560 648.5Q589 598 598 528Q607 458 607 375Q607 310 602 253Q597 196 581 149.5Q565 103 536.5 68.5Q508 34 461 15L532 -105H489L425 4Q405 -1 381 -3.5Q357 -6 331 -6ZM354 197 441 48Q480 64 504.5 93Q529 122 542.5 163Q556 204 561 257.5Q566 311 566 375Q566 457 557.5 521Q549 585 524 629.5Q499 674 452.5 697Q406 720 331 720Q256 720 210 697Q164 674 139 629.5Q114 585 105.5 521Q97 457 97 375Q97 293 105.5 229Q114 165 139 120.5Q164 76 210 53Q256 30 331 30Q374 30 405 37L312 197Z" glyph-name="Q" horiz-adv-x="663" unicode="Q" /><glyph d="M111 0H71V750H307Q377 750 422 736Q467 722 493 696Q519 670 529 632Q539 594 539 546Q539 504 531.5 470Q524 436 505.5 410.5Q487 385 455 368.5Q423 352 373 346L577 0H533L333 342H307H111ZM323 379Q380 379 414.5 392Q449 405 468 428Q487 451 493 481.5Q499 512 499 546Q499 581 493 611Q487 641 468 664Q449 687 414.5 700Q380 713 323 713H111V379Z" glyph-name="R" horiz-adv-x="591" unicode="R" /><glyph d="M111 0H71V750H307Q377 750 422 736Q467 722 493 696Q519 670 529 632Q539 594 539 546Q539 504 531.5 470Q524 436 505.5 410.5Q487 385 455 368.5Q423 352 373 346L577 0H533L333 342H307H111ZM323 379Q380 379 414.5 392Q449 405 468 428Q487 451 493 481.5Q499 512 499 546Q499 581 493 611Q487 641 468 664Q449 687 414.5 700Q380 713 323 713H111V379ZM264 800 322 900H382L296 800Z" glyph-name="Racute" horiz-adv-x="592" unicode="&#340;" /><glyph d="M111 0H71V750H307Q377 750 422 736Q467 722 493 696Q519 670 529 632Q539 594 539 546Q539 504 531.5 470Q524 436 505.5 410.5Q487 385 455 368.5Q423 352 373 346L577 0H533L333 342H307H111ZM323 379Q380 379 414.5 392Q449 405 468 428Q487 451 493 481.5Q499 512 499 546Q499 581 493 611Q487 641 468 664Q449 687 414.5 700Q380 713 323 713H111V379ZM168 900 280 828 392 900H427L302 800H258L133 900Z" glyph-name="Rcaron" horiz-adv-x="592" unicode="&#344;" /><glyph d="M111 0H71V750H307Q377 750 422 736Q467 722 493 696Q519 670 529 632Q539 594 539 546Q539 504 531.5 470Q524 436 505.5 410.5Q487 385 455 368.5Q423 352 373 346L577 0H533L333 342H307H111ZM323 379Q380 379 414.5 392Q449 405 468 428Q487 451 493 481.5Q499 512 499 546Q499 581 493 611Q487 641 468 664Q449 687 414.5 700Q380 713 323 713H111V379ZM315 -50 266 -250H240L266 -50Z" glyph-name="Rcommaaccent" horiz-adv-x="592" unicode="&#342;" /><glyph d="M305 720Q245 720 205.5 707Q166 694 142.5 671.5Q119 649 109.5 620Q100 591 100 558Q100 518 110.5 491.5Q121 465 144.5 448Q168 431 206 421.5Q244 412 300 406Q358 400 400.5 387.5Q443 375 470.5 352Q498 329 511.5 294.5Q525 260 525 209Q525 172 514 133.5Q503 95 473.5 64Q444 33 393.5 13.5Q343 -6 263 -6Q225 -6 190.5 1Q156 8 127.5 19Q99 30 77.5 43.5Q56 57 45 69L64 102Q74 91 92.5 78.5Q111 66 136 55Q161 44 193 37Q225 30 262 30Q325 30 368 44Q411 58 436.5 82Q462 106 473 138.5Q484 171 484 209Q484 250 475 278Q466 306 444 325Q422 344 385 355Q348 366 292 372Q232 379 188 391Q144 403 115.5 424Q87 445 73.5 477.5Q60 510 60 559Q60 594 70 629Q80 664 107.5 692Q135 720 183 738Q231 756 306 756Q345 756 377 749.5Q409 743 433 733.5Q457 724 474 712.5Q491 701 500 691L481 658Q458 680 416 700Q374 720 305 720Z" glyph-name="S" horiz-adv-x="575" unicode="S" /><glyph d="M280 800 338 900H398L312 800ZM305 720Q245 720 205.5 707Q166 694 142.5 671.5Q119 649 109.5 620Q100 591 100 558Q100 518 110.5 491.5Q121 465 144.5 448Q168 431 206 421.5Q244 412 300 406Q358 400 400.5 387.5Q443 375 470.5 352Q498 329 511.5 294.5Q525 260 525 209Q525 172 514 133.5Q503 95 473.5 64Q444 33 393.5 13.5Q343 -6 263 -6Q225 -6 190.5 1Q156 8 127.5 19Q99 30 77.5 43.5Q56 57 45 69L64 102Q74 91 92.5 78.5Q111 66 136 55Q161 44 193 37Q225 30 262 30Q325 30 368 44Q411 58 436.5 82Q462 106 473 138.5Q484 171 484 209Q484 250 475 278Q466 306 444 325Q422 344 385 355Q348 366 292 372Q232 379 188 391Q144 403 115.5 424Q87 445 73.5 477.5Q60 510 60 559Q60 594 70 629Q80 664 107.5 692Q135 720 183 738Q231 756 306 756Q345 756 377 749.5Q409 743 433 733.5Q457 724 474 712.5Q491 701 500 691L481 658Q458 680 416 700Q374 720 305 720Z" glyph-name="Sacute" horiz-adv-x="575" unicode="&#346;" /><glyph d="M184 900 296 828 408 900H443L318 800H274L149 900ZM305 720Q245 720 205.5 707Q166 694 142.5 671.5Q119 649 109.5 620Q100 591 100 558Q100 518 110.5 491.5Q121 465 144.5 448Q168 431 206 421.5Q244 412 300 406Q358 400 400.5 387.5Q443 375 470.5 352Q498 329 511.5 294.5Q525 260 525 209Q525 172 514 133.5Q503 95 473.5 64Q444 33 393.5 13.5Q343 -6 263 -6Q225 -6 190.5 1Q156 8 127.5 19Q99 30 77.5 43.5Q56 57 45 69L64 102Q74 91 92.5 78.5Q111 66 136 55Q161 44 193 37Q225 30 262 30Q325 30 368 44Q411 58 436.5 82Q462 106 473 138.5Q484 171 484 209Q484 250 475 278Q466 306 444 325Q422 344 385 355Q348 366 292 372Q232 379 188 391Q144 403 115.5 424Q87 445 73.5 477.5Q60 510 60 559Q60 594 70 629Q80 664 107.5 692Q135 720 183 738Q231 756 306 756Q345 756 377 749.5Q409 743 433 733.5Q457 724 474 712.5Q491 701 500 691L481 658Q458 680 416 700Q374 720 305 720Z" glyph-name="Scaron" horiz-adv-x="575" unicode="&#352;" /><glyph d="M305 720Q245 720 205.5 707Q166 694 142.5 671.5Q119 649 109.5 620Q100 591 100 558Q100 518 110.5 491.5Q121 465 144.5 448Q168 431 206 421.5Q244 412 300 406Q358 400 400.5 387.5Q443 375 470.5 352Q498 329 511.5 294.5Q525 260 525 209Q525 173 514.5 136Q504 99 477.5 69Q451 39 404.5 18.5Q358 -2 286 -5L290 -71Q307 -74 324 -81.5Q341 -89 355 -100.5Q369 -112 378 -128.5Q387 -145 387 -166Q387 -205 359 -227.5Q331 -250 284 -250Q247 -250 222 -240Q197 -230 186 -221L201 -196Q211 -204 231 -211.5Q251 -219 281 -219Q319 -219 335.5 -205.5Q352 -192 352 -167Q352 -131 326 -115.5Q300 -100 257 -92L263 -6Q225 -6 190.5 1Q156 8 127.5 19Q99 30 77.5 43.5Q56 57 45 69L64 102Q74 91 92.5 78.5Q111 66 136 55Q161 44 193 37Q225 30 262 30Q325 30 368 44Q411 58 436.5 82Q462 106 473 138.5Q484 171 484 209Q484 250 475 278Q466 306 444 325Q422 344 385 355Q348 366 292 372Q232 379 188 391Q144 403 115.5 424Q87 445 73.5 477.5Q60 510 60 559Q60 594 70 629Q80 664 107.5 692Q135 720 183 738Q231 756 306 756Q345 756 377 749.5Q409 743 433 733.5Q457 724 474 712.5Q491 701 500 691L481 658Q458 680 416 700Q374 720 305 720Z" glyph-name="Scedilla" horiz-adv-x="575" unicode="&#350;" /><glyph d="M56 396H575Q574 461 562 519.5Q550 578 520 622.5Q490 667 437 693.5Q384 720 301 720Q263 720 228.5 712Q194 704 165.5 692.5Q137 681 115.5 667Q94 653 81 641L64 673Q77 685 99.5 699.5Q122 714 153 726.5Q184 739 221 747.5Q258 756 299 756Q395 756 456.5 726.5Q518 697 553.5 646Q589 595 603 525.5Q617 456 617 375Q617 294 604 224.5Q591 155 558 104Q525 53 468.5 23.5Q412 -6 325 -6Q238 -6 185.5 23.5Q133 53 104 104.5Q75 156 65.5 225.5Q56 295 56 375ZM325 30Q403 30 451.5 57Q500 84 527.5 130Q555 176 565 235.5Q575 295 576 361H98Q98 294 105 234Q112 174 135.5 128.5Q159 83 204 56.5Q249 30 325 30Z" glyph-name="Schwa" horiz-adv-x="673" unicode="&#399;" /><glyph d="M408 800 296 872 184 800H149L274 900H318L443 800ZM305 720Q245 720 205.5 707Q166 694 142.5 671.5Q119 649 109.5 620Q100 591 100 558Q100 518 110.5 491.5Q121 465 144.5 448Q168 431 206 421.5Q244 412 300 406Q358 400 400.5 387.5Q443 375 470.5 352Q498 329 511.5 294.5Q525 260 525 209Q525 172 514 133.5Q503 95 473.5 64Q444 33 393.5 13.5Q343 -6 263 -6Q225 -6 190.5 1Q156 8 127.5 19Q99 30 77.5 43.5Q56 57 45 69L64 102Q74 91 92.5 78.5Q111 66 136 55Q161 44 193 37Q225 30 262 30Q325 30 368 44Q411 58 436.5 82Q462 106 473 138.5Q484 171 484 209Q484 250 475 278Q466 306 444 325Q422 344 385 355Q348 366 292 372Q232 379 188 391Q144 403 115.5 424Q87 445 73.5 477.5Q60 510 60 559Q60 594 70 629Q80 664 107.5 692Q135 720 183 738Q231 756 306 756Q345 756 377 749.5Q409 743 433 733.5Q457 724 474 712.5Q491 701 500 691L481 658Q458 680 416 700Q374 720 305 720Z" glyph-name="Scircumflex" horiz-adv-x="575" unicode="&#348;" /><glyph d="M296 -50 247 -250H221L247 -50ZM305 720Q245 720 205.5 707Q166 694 142.5 671.5Q119 649 109.5 620Q100 591 100 558Q100 518 110.5 491.5Q121 465 144.5 448Q168 431 206 421.5Q244 412 300 406Q358 400 400.5 387.5Q443 375 470.5 352Q498 329 511.5 294.5Q525 260 525 209Q525 172 514 133.5Q503 95 473.5 64Q444 33 393.5 13.5Q343 -6 263 -6Q225 -6 190.5 1Q156 8 127.5 19Q99 30 77.5 43.5Q56 57 45 69L64 102Q74 91 92.5 78.5Q111 66 136 55Q161 44 193 37Q225 30 262 30Q325 30 368 44Q411 58 436.5 82Q462 106 473 138.5Q484 171 484 209Q484 250 475 278Q466 306 444 325Q422 344 385 355Q348 366 292 372Q232 379 188 391Q144 403 115.5 424Q87 445 73.5 477.5Q60 510 60 559Q60 594 70 629Q80 664 107.5 692Q135 720 183 738Q231 756 306 756Q345 756 377 749.5Q409 743 433 733.5Q457 724 474 712.5Q491 701 500 691L481 658Q458 680 416 700Q374 720 305 720Z" glyph-name="Scommaaccent" horiz-adv-x="575" unicode="&#536;" /><glyph d="M288 714V0H248V714H32V750H503V714Z" glyph-name="T" horiz-adv-x="535" unicode="T" /><glyph d="M288 0H248V372H114V407H248V714H32V750H503V714H288V407H421V372H288Z" glyph-name="Tbar" horiz-adv-x="535" unicode="&#358;" /><glyph d="M288 714V0H248V714H32V750H503V714ZM155 900 268 828 380 900H415L290 800H245L120 900Z" glyph-name="Tcaron" horiz-adv-x="535" unicode="&#356;" /><glyph d="M288 714V0H248V714H32V750H503V714ZM292 -50 244 -250H217L243 -50Z" glyph-name="Tcommaaccent" horiz-adv-x="535" unicode="&#354;" /><glyph d="M288 714V0H248V714H32V750H503V714ZM241 850Q241 861 249 869Q257 877 268 877Q279 877 287 869Q295 861 295 850Q295 839 287 831Q279 823 268 823Q257 823 249 831Q241 839 241 850Z" glyph-name="Tdotaccent" horiz-adv-x="535" unicode="&#7786;" /><glyph d="M111 0H71V750H111V594H304Q373 594 418 576Q463 558 489.5 527.5Q516 497 527 457.5Q538 418 538 375Q538 332 527 292.5Q516 253 489.5 223Q463 193 418 175Q373 157 304 157H111ZM111 193H310Q370 193 406.5 210Q443 227 463.5 253.5Q484 280 490.5 312Q497 344 497 375Q497 406 490.5 438.5Q484 471 463.5 497Q443 523 406.5 540Q370 557 310 557H111Z" glyph-name="Thorn" horiz-adv-x="565" unicode="&#222;" /><glyph d="M531 342Q531 271 510.5 208.5Q490 146 449.5 99.5Q409 53 348.5 26.5Q288 0 207 0H192V347L60 272V310L192 384V478L60 403V441L192 515V750H232V538L418 643V606L232 500V407L418 513V475L232 370V37Q297 41 346 66.5Q395 92 428 133Q461 174 477.5 228Q494 282 494 342Z" glyph-name="Turkishlira" horiz-adv-x="600" /><glyph d="M154 0V189L34 121V158L154 227V316L34 247V285L154 353V500H194V376L362 471V434L194 338V249L362 345V307L194 212V35Q242 38 278 53.5Q314 69 338 93Q362 117 374 149Q386 181 386 217H423Q423 170 407 130.5Q391 91 359.5 62Q328 33 281 16.5Q234 0 172 0Z" glyph-name="Turkishlira.OP" horiz-adv-x="457" /><glyph d="M325 30Q373 30 413.5 39Q454 48 483.5 72Q513 96 529 137.5Q545 179 545 244V750H584V241Q584 163 561.5 114.5Q539 66 502.5 39.5Q466 13 419.5 3.5Q373 -6 325 -6Q277 -6 230.5 3.5Q184 13 147.5 39.5Q111 66 88.5 114.5Q66 163 66 241V750H105V244Q105 179 121 137.5Q137 96 166.5 72Q196 48 236.5 39Q277 30 325 30Z" glyph-name="U" horiz-adv-x="650" unicode="U" /><glyph d="M325 30Q373 30 413 39Q453 48 482.5 72Q512 96 528 137.5Q544 179 544 244V750H584V241Q584 163 561.5 114.5Q539 66 502.5 39.5Q466 13 419.5 3.5Q373 -6 325 -6Q277 -6 230.5 3.5Q184 13 147.5 39.5Q111 66 88.5 114.5Q66 163 66 241V750H105V244Q105 179 121.5 137.5Q138 96 167 72Q196 48 236.5 39Q277 30 325 30ZM309 800 367 900H427L341 800Z" glyph-name="Uacute" horiz-adv-x="650" unicode="&#218;" /><glyph d="M325 30Q373 30 413 39Q453 48 482.5 72Q512 96 528 137.5Q544 179 544 244V750H584V241Q584 163 561.5 114.5Q539 66 502.5 39.5Q466 13 419.5 3.5Q373 -6 325 -6Q277 -6 230.5 3.5Q184 13 147.5 39.5Q111 66 88.5 114.5Q66 163 66 241V750H105V244Q105 179 121.5 137.5Q138 96 167 72Q196 48 236.5 39Q277 30 325 30ZM325 790Q184 790 180 900H208Q210 864 237 843.5Q264 823 325 823Q386 823 413 843.5Q440 864 442 900H470Q466 790 325 790Z" glyph-name="Ubreve" horiz-adv-x="650" unicode="&#364;" /><glyph d="M325 30Q373 30 413 39Q453 48 482.5 72Q512 96 528 137.5Q544 179 544 244V750H584V241Q584 163 561.5 114.5Q539 66 502.5 39.5Q466 13 419.5 3.5Q373 -6 325 -6Q277 -6 230.5 3.5Q184 13 147.5 39.5Q111 66 88.5 114.5Q66 163 66 241V750H105V244Q105 179 121.5 137.5Q138 96 167 72Q196 48 236.5 39Q277 30 325 30ZM437 800 325 872 213 800H178L303 900H347L472 800Z" glyph-name="Ucircumflex" horiz-adv-x="650" unicode="&#219;" /><glyph d="M325 30Q373 30 413 39Q453 48 482.5 72Q512 96 528 137.5Q544 179 544 244V750H584V241Q584 163 561.5 114.5Q539 66 502.5 39.5Q466 13 419.5 3.5Q373 -6 325 -6Q277 -6 230.5 3.5Q184 13 147.5 39.5Q111 66 88.5 114.5Q66 163 66 241V750H105V244Q105 179 121.5 137.5Q138 96 167 72Q196 48 236.5 39Q277 30 325 30ZM203 850Q203 861 211 869Q219 877 230 877Q241 877 249 869Q257 861 257 850Q257 839 249 831Q241 823 230 823Q219 823 211 831Q203 839 203 850ZM393 850Q393 861 401 869Q409 877 420 877Q431 877 439 869Q447 861 447 850Q447 839 439 831Q431 823 420 823Q409 823 401 831Q393 839 393 850Z" glyph-name="Udieresis" horiz-adv-x="650" unicode="&#220;" /><glyph d="M325 30Q373 30 413 39Q453 48 482.5 72Q512 96 528 137.5Q544 179 544 244V750H584V241Q584 163 561.5 114.5Q539 66 502.5 39.5Q466 13 419.5 3.5Q373 -6 325 -6Q277 -6 230.5 3.5Q184 13 147.5 39.5Q111 66 88.5 114.5Q66 163 66 241V750H105V244Q105 179 121.5 137.5Q138 96 167 72Q196 48 236.5 39Q277 30 325 30ZM309 800 223 900H283L341 800Z" glyph-name="Ugrave" horiz-adv-x="650" unicode="&#217;" /><glyph d="M325 30Q373 30 413 39Q453 48 482.5 72Q512 96 528 137.5Q544 179 544 244V750H584V241Q584 163 561.5 114.5Q539 66 502.5 39.5Q466 13 419.5 3.5Q373 -6 325 -6Q277 -6 230.5 3.5Q184 13 147.5 39.5Q111 66 88.5 114.5Q66 163 66 241V750H105V244Q105 179 121.5 137.5Q138 96 167 72Q196 48 236.5 39Q277 30 325 30ZM257 800 315 900H374L288 800ZM361 800 419 900H479L393 800Z" glyph-name="Uhungarumlaut" horiz-adv-x="650" unicode="&#368;" /><glyph d="M325 30Q373 30 413 39Q453 48 482.5 72Q512 96 528 137.5Q544 179 544 244V750H584V241Q584 163 561.5 114.5Q539 66 502.5 39.5Q466 13 419.5 3.5Q373 -6 325 -6Q277 -6 230.5 3.5Q184 13 147.5 39.5Q111 66 88.5 114.5Q66 163 66 241V750H105V244Q105 179 121.5 137.5Q138 96 167 72Q196 48 236.5 39Q277 30 325 30ZM188 868H462V833H188Z" glyph-name="Umacron" horiz-adv-x="650" unicode="&#362;" /><glyph d="M350 -219Q378 -219 395 -211.5Q412 -204 422 -196L437 -221Q426 -230 402.5 -240Q379 -250 347 -250Q304 -250 276.5 -226.5Q249 -203 249 -154Q249 -104 276.5 -68Q304 -32 342 -6H325Q277 -6 230.5 3.5Q184 13 147.5 39.5Q111 66 88.5 114.5Q66 163 66 241V750H105V244Q105 179 121 137.5Q137 96 166.5 72Q196 48 236.5 39Q277 30 325 30Q373 30 413.5 39Q454 48 483.5 72Q513 96 529 137.5Q545 179 545 244V750H584V241Q584 178 569.5 135Q555 92 530 64Q505 36 471.5 21Q438 6 401 0Q386 -7 365.5 -20Q345 -33 326 -52Q307 -71 294 -95Q281 -119 281 -148Q281 -185 300.5 -202Q320 -219 350 -219Z" glyph-name="Uogonek" horiz-adv-x="650" unicode="&#370;" /><glyph d="M325 30Q373 30 413 39Q453 48 482.5 72Q512 96 528 137.5Q544 179 544 244V750H584V241Q584 163 561.5 114.5Q539 66 502.5 39.5Q466 13 419.5 3.5Q373 -6 325 -6Q277 -6 230.5 3.5Q184 13 147.5 39.5Q111 66 88.5 114.5Q66 163 66 241V750H105V244Q105 179 121.5 137.5Q138 96 167 72Q196 48 236.5 39Q277 30 325 30ZM325 921Q363 921 391 906Q419 891 419 850Q419 809 391 794Q363 779 325 779Q288 779 259.5 794Q231 809 231 850Q231 891 259.5 906Q288 921 325 921ZM325 808Q359 808 373.5 819Q388 830 388 850Q388 870 373.5 881Q359 892 325 892Q291 892 276 881Q261 870 261 850Q261 830 276 819Q291 808 325 808Z" glyph-name="Uring" horiz-adv-x="650" unicode="&#366;" /><glyph d="M325 30Q373 30 413 39Q453 48 482.5 72Q512 96 528 137.5Q544 179 544 244V750H584V241Q584 163 561.5 114.5Q539 66 502.5 39.5Q466 13 419.5 3.5Q373 -6 325 -6Q277 -6 230.5 3.5Q184 13 147.5 39.5Q111 66 88.5 114.5Q66 163 66 241V750H105V244Q105 179 121.5 137.5Q138 96 167 72Q196 48 236.5 39Q277 30 325 30ZM396 833Q451 833 454 893H488Q486 847 462 823.5Q438 800 396 800Q369 800 351.5 810.5Q334 821 319 833.5Q304 846 289.5 856.5Q275 867 254 867Q199 867 196 807H162Q164 853 188 876.5Q212 900 254 900Q281 900 298.5 889.5Q316 879 331 866.5Q346 854 360.5 843.5Q375 833 396 833Z" glyph-name="Utilde" horiz-adv-x="650" unicode="&#360;" /><glyph d="M584 750 319 -6H291L26 750H70L305 62L540 750Z" glyph-name="V" horiz-adv-x="610" unicode="V" /><glyph d="M431 750 609 64 756 750H798L628 -6H591L412 681L233 -6H196L26 750H68L215 64L393 750Z" glyph-name="W" horiz-adv-x="824" unicode="W" /><glyph d="M431 750 609 64 756 750H798L628 -6H591L412 681L233 -6H196L26 750H68L215 64L393 750ZM396 800 454 900H514L428 800Z" glyph-name="Wacute" horiz-adv-x="824" unicode="&#7810;" /><glyph d="M431 750 609 64 756 750H798L628 -6H591L412 681L233 -6H196L26 750H68L215 64L393 750ZM524 800 412 872 300 800H265L390 900H434L559 800Z" glyph-name="Wcircumflex" horiz-adv-x="824" unicode="&#372;" /><glyph d="M431 750 609 64 756 750H798L628 -6H591L412 681L233 -6H196L26 750H68L215 64L393 750ZM290 850Q290 861 298 869Q306 877 317 877Q328 877 336 869Q344 861 344 850Q344 839 336 831Q328 823 317 823Q306 823 298 831Q290 839 290 850ZM480 850Q480 861 488 869Q496 877 507 877Q518 877 526 869Q534 861 534 850Q534 839 526 831Q518 823 507 823Q496 823 488 831Q480 839 480 850Z" glyph-name="Wdieresis" horiz-adv-x="824" unicode="&#7812;" /><glyph d="M431 750 609 64 756 750H798L628 -6H591L412 681L233 -6H196L26 750H68L215 64L393 750ZM396 800 310 900H370L428 800Z" glyph-name="Wgrave" horiz-adv-x="824" unicode="&#7808;" /><glyph d="M507 750H557L315 380L564 0H512L291 351L70 0H18L267 380L25 750H75L291 408Z" glyph-name="X" horiz-adv-x="589" unicode="X" /><glyph d="M335 308V0H295V308L26 750H73L315 342L556 750H603Z" glyph-name="Y" horiz-adv-x="630" unicode="Y" /><glyph d="M335 308V0H295V308L26 750H73L315 342L556 750H604ZM299 800 357 900H417L331 800Z" glyph-name="Yacute" horiz-adv-x="630" unicode="&#221;" /><glyph d="M335 308V0H295V308L26 750H73L315 342L556 750H604ZM427 800 315 872 203 800H168L293 900H337L462 800Z" glyph-name="Ycircumflex" horiz-adv-x="630" unicode="&#374;" /><glyph d="M335 308V0H295V308L26 750H73L315 342L556 750H604ZM193 850Q193 861 201 869Q209 877 220 877Q231 877 239 869Q247 861 247 850Q247 839 239 831Q231 823 220 823Q209 823 201 831Q193 839 193 850ZM383 850Q383 861 391 869Q399 877 410 877Q421 877 429 869Q437 861 437 850Q437 839 429 831Q421 823 410 823Q399 823 391 831Q383 839 383 850Z" glyph-name="Ydieresis" horiz-adv-x="630" unicode="&#376;" /><glyph d="M335 308V0H295V308L26 750H73L315 342L556 750H604ZM300 800 214 900H274L332 800Z" glyph-name="Ygrave" horiz-adv-x="630" unicode="&#7922;" /><glyph d="M178 868H452V833H178ZM335 308V0H295V308L26 750H73L315 342L556 750H604Z" glyph-name="Ymacron" horiz-adv-x="630" unicode="&#562;" /><glyph d="M36 0V27L491 715L57 714V750H540V723L85 35L555 36V0Z" glyph-name="Z" horiz-adv-x="591" unicode="Z" /><glyph d="M36 0V27L491 715L57 714V750H540V723L85 35L555 36V0ZM280 800 338 900H397L311 800Z" glyph-name="Zacute" horiz-adv-x="591" unicode="&#377;" /><glyph d="M36 0V27L491 715L57 714V750H540V723L85 35L555 36V0ZM183 900 296 828 408 900H443L318 800H274L148 900Z" glyph-name="Zcaron" horiz-adv-x="591" unicode="&#381;" /><glyph d="M36 0V27L491 715L57 714V750H540V723L85 35L555 36V0ZM269 850Q269 861 277 869Q285 877 296 877Q307 877 315 869Q323 861 323 850Q323 839 315 831Q307 823 296 823Q285 823 277 831Q269 839 269 850Z" glyph-name="Zdotaccent" horiz-adv-x="591" unicode="&#379;" /><glyph d="M389 342Q389 410 358.5 441.5Q328 473 250 473Q217 473 191 466.5Q165 460 146 450.5Q127 441 114.5 431Q102 421 96 415L79 444Q87 452 101.5 462.5Q116 473 136.5 482.5Q157 492 184 499Q211 506 245 506Q301 506 336 494Q371 482 391.5 460.5Q412 439 419.5 408.5Q427 378 427 341V0H409L395 39Q379 28 358 19.5Q337 11 314.5 5.5Q292 0 269.5 -3Q247 -6 228 -6Q180 -6 146.5 7Q113 20 92.5 41Q72 62 63 90Q54 118 54 148Q54 177 62.5 203.5Q71 230 91.5 250.5Q112 271 146 284.5Q180 298 232 301L389 312ZM221 269Q149 264 120.5 230.5Q92 197 92 148Q92 127 97 105.5Q102 84 117 66.5Q132 49 159 38Q186 27 230 27Q277 27 317 39.5Q357 52 389 72V281Z" glyph-name="a" horiz-adv-x="492" unicode="a" /><glyph d="M469 0H451L437 39Q402 17 355 5.5Q308 -6 266 -6Q204 -6 164 14Q124 34 100.5 68.5Q77 103 68 149.5Q59 196 59 250Q59 304 68 351Q77 398 100.5 432.5Q124 467 164 486.5Q204 506 266 506Q308 506 355.5 494.5Q403 483 437 460L451 500H469ZM266 28Q317 28 357.5 38Q398 48 431 68V432Q398 452 357.5 462Q317 472 266 472Q212 472 179 453Q146 434 128 402.5Q110 371 104 331Q98 291 98 250Q98 209 104 169Q110 129 128 97.5Q146 66 179 47Q212 28 266 28Z" glyph-name="a.school" horiz-adv-x="538" unicode="&#57681;" /><glyph d="M431 0 381 125H119L69 0H26L234 506H266L475 0ZM131 156H368L250 454Z" glyph-name="a.smcp" horiz-adv-x="501" unicode="&#57857;" /><glyph d="M230 550 296 750H340L257 550ZM389 342Q389 410 358.5 441.5Q328 473 250 473Q217 473 191 466.5Q165 460 146 450.5Q127 441 114.5 431Q102 421 96 415L79 444Q87 452 101.5 462.5Q116 473 136.5 482.5Q157 492 184 499Q211 506 245 506Q301 506 336 494Q371 482 391.5 460.5Q412 439 419.5 408.5Q427 378 427 341V0H409L395 39Q379 28 358 19.5Q337 11 314.5 5.5Q292 0 269.5 -3Q247 -6 228 -6Q180 -6 146.5 7Q113 20 92.5 41Q72 62 63 90Q54 118 54 148Q54 177 62.5 203.5Q71 230 91.5 250.5Q112 271 146 284.5Q180 298 232 301L389 312ZM221 269Q149 264 120.5 230.5Q92 197 92 148Q92 127 97 105.5Q102 84 117 66.5Q132 49 159 38Q186 27 230 27Q277 27 317 39.5Q357 52 389 72V281Z" glyph-name="aacute" horiz-adv-x="493" unicode="&#225;" /><glyph d="M469 0H451L437 39Q402 17 355 5.5Q308 -6 266 -6Q204 -6 164 14Q124 34 100.5 68.5Q77 103 68 149.5Q59 196 59 250Q59 304 68 351Q77 398 100.5 432.5Q124 467 164 486.5Q204 506 266 506Q308 506 355.5 494.5Q403 483 437 460L451 500H469ZM266 28Q317 28 357.5 38Q398 48 431 68V432Q398 452 357.5 462Q317 472 266 472Q212 472 179 453Q146 434 128 402.5Q110 371 104 331Q98 291 98 250Q98 209 104 169Q110 129 128 97.5Q146 66 179 47Q212 28 266 28ZM253 550 311 750H356L280 550Z" glyph-name="aacute.school" horiz-adv-x="538" unicode="&#57683;" /><glyph d="M431 0 381 125H119L69 0H26L234 506H266L475 0ZM131 156H368L250 454ZM238 550 296 750H340L264 550Z" glyph-name="aacute.smcp" horiz-adv-x="501" unicode="&#57889;" /><glyph d="M243 550Q69 550 68 750H96Q98 669 131 626.5Q164 584 243 584Q322 584 355 626.5Q388 669 391 750H418Q418 550 243 550ZM389 342Q389 410 358.5 441.5Q328 473 250 473Q217 473 191 466.5Q165 460 146 450.5Q127 441 114.5 431Q102 421 96 415L79 444Q87 452 101.5 462.5Q116 473 136.5 482.5Q157 492 184 499Q211 506 245 506Q301 506 336 494Q371 482 391.5 460.5Q412 439 419.5 408.5Q427 378 427 341V0H409L395 39Q379 28 358 19.5Q337 11 314.5 5.5Q292 0 269.5 -3Q247 -6 228 -6Q180 -6 146.5 7Q113 20 92.5 41Q72 62 63 90Q54 118 54 148Q54 177 62.5 203.5Q71 230 91.5 250.5Q112 271 146 284.5Q180 298 232 301L389 312ZM221 269Q149 264 120.5 230.5Q92 197 92 148Q92 127 97 105.5Q102 84 117 66.5Q132 49 159 38Q186 27 230 27Q277 27 317 39.5Q357 52 389 72V281Z" glyph-name="abreve" horiz-adv-x="493" unicode="&#259;" /><glyph d="M469 0H451L437 39Q402 17 355 5.5Q308 -6 266 -6Q204 -6 164 14Q124 34 100.5 68.5Q77 103 68 149.5Q59 196 59 250Q59 304 68 351Q77 398 100.5 432.5Q124 467 164 486.5Q204 506 266 506Q308 506 355.5 494.5Q403 483 437 460L451 500H469ZM266 28Q317 28 357.5 38Q398 48 431 68V432Q398 452 357.5 462Q317 472 266 472Q212 472 179 453Q146 434 128 402.5Q110 371 104 331Q98 291 98 250Q98 209 104 169Q110 129 128 97.5Q146 66 179 47Q212 28 266 28ZM267 550Q92 550 92 750H119Q121 669 154.5 626.5Q188 584 267 584Q345 584 378.5 626.5Q412 669 414 750H442Q441 550 267 550Z" glyph-name="abreve.school" horiz-adv-x="538" unicode="&#57690;" /><glyph d="M431 0 381 125H119L69 0H26L234 506H266L475 0ZM131 156H368L250 454ZM250 550Q76 550 75 750H102Q105 669 138 626.5Q171 584 250 584Q329 584 362 626.5Q395 669 398 750H425Q424 550 250 550Z" glyph-name="abreve.smcp" horiz-adv-x="501" unicode="&#57897;" /><glyph d="M382 550 243 712 105 550H74L223 750H264L413 550ZM389 342Q389 410 358.5 441.5Q328 473 250 473Q217 473 191 466.5Q165 460 146 450.5Q127 441 114.5 431Q102 421 96 415L79 444Q87 452 101.5 462.5Q116 473 136.5 482.5Q157 492 184 499Q211 506 245 506Q301 506 336 494Q371 482 391.5 460.5Q412 439 419.5 408.5Q427 378 427 341V0H409L395 39Q379 28 358 19.5Q337 11 314.5 5.5Q292 0 269.5 -3Q247 -6 228 -6Q180 -6 146.5 7Q113 20 92.5 41Q72 62 63 90Q54 118 54 148Q54 177 62.5 203.5Q71 230 91.5 250.5Q112 271 146 284.5Q180 298 232 301L389 312ZM221 269Q149 264 120.5 230.5Q92 197 92 148Q92 127 97 105.5Q102 84 117 66.5Q132 49 159 38Q186 27 230 27Q277 27 317 39.5Q357 52 389 72V281Z" glyph-name="acircumflex" horiz-adv-x="493" unicode="&#226;" /><glyph d="M469 0H451L437 39Q402 17 355 5.5Q308 -6 266 -6Q204 -6 164 14Q124 34 100.5 68.5Q77 103 68 149.5Q59 196 59 250Q59 304 68 351Q77 398 100.5 432.5Q124 467 164 486.5Q204 506 266 506Q308 506 355.5 494.5Q403 483 437 460L451 500H469ZM266 28Q317 28 357.5 38Q398 48 431 68V432Q398 452 357.5 462Q317 472 266 472Q212 472 179 453Q146 434 128 402.5Q110 371 104 331Q98 291 98 250Q98 209 104 169Q110 129 128 97.5Q146 66 179 47Q212 28 266 28ZM405 550 267 712 128 550H97L246 750H287L436 550Z" glyph-name="acircumflex.school" horiz-adv-x="538" unicode="&#57684;" /><glyph d="M431 0 381 125H119L69 0H26L234 506H266L475 0ZM131 156H368L250 454ZM389 550 250 712 111 550H81L230 750H270L419 550Z" glyph-name="acircumflex.smcp" horiz-adv-x="501" unicode="&#57891;" /><glyph d="M273 550 331 750H373L297 550Z" glyph-name="acute" horiz-adv-x="570" unicode="&#180;" /><glyph d="M269 800 327 900H387L301 800Z" glyph-name="acute.cap" horiz-adv-x="570" unicode="&#58402;" /><glyph d="M389 342Q389 410 358.5 441.5Q328 473 250 473Q217 473 191 466.5Q165 460 146 450.5Q127 441 114.5 431Q102 421 96 415L79 444Q87 452 101.5 462.5Q116 473 136.5 482.5Q157 492 184 499Q211 506 245 506Q301 506 336 494Q371 482 391.5 460.5Q412 439 419.5 408.5Q427 378 427 341V0H409L395 39Q379 28 358 19.5Q337 11 314.5 5.5Q292 0 269.5 -3Q247 -6 228 -6Q180 -6 146.5 7Q113 20 92.5 41Q72 62 63 90Q54 118 54 148Q54 177 62.5 203.5Q71 230 91.5 250.5Q112 271 146 284.5Q180 298 232 301L389 312ZM221 269Q149 264 120.5 230.5Q92 197 92 148Q92 127 97 105.5Q102 84 117 66.5Q132 49 159 38Q186 27 230 27Q277 27 317 39.5Q357 52 389 72V281ZM121 650Q121 661 129 669Q137 677 148 677Q159 677 167 669Q175 661 175 650Q175 639 167 631Q159 623 148 623Q137 623 129 631Q121 639 121 650ZM311 650Q311 661 319 669Q327 677 338 677Q349 677 357 669Q365 661 365 650Q365 639 357 631Q349 623 338 623Q327 623 319 631Q311 639 311 650Z" glyph-name="adieresis" horiz-adv-x="493" unicode="&#228;" /><glyph d="M469 0H451L437 39Q402 17 355 5.5Q308 -6 266 -6Q204 -6 164 14Q124 34 100.5 68.5Q77 103 68 149.5Q59 196 59 250Q59 304 68 351Q77 398 100.5 432.5Q124 467 164 486.5Q204 506 266 506Q308 506 355.5 494.5Q403 483 437 460L451 500H469ZM266 28Q317 28 357.5 38Q398 48 431 68V432Q398 452 357.5 462Q317 472 266 472Q212 472 179 453Q146 434 128 402.5Q110 371 104 331Q98 291 98 250Q98 209 104 169Q110 129 128 97.5Q146 66 179 47Q212 28 266 28ZM145 650Q145 661 153 669Q161 677 172 677Q183 677 191 669Q199 661 199 650Q199 639 191 631Q183 623 172 623Q161 623 153 631Q145 639 145 650ZM335 650Q335 661 343 669Q351 677 362 677Q373 677 381 669Q389 661 389 650Q389 639 381 631Q373 623 362 623Q351 623 343 631Q335 639 335 650Z" glyph-name="adieresis.school" horiz-adv-x="538" unicode="&#57685;" /><glyph d="M431 0 381 125H119L69 0H26L234 506H266L475 0ZM131 156H368L250 454ZM128 650Q128 661 136 669Q144 677 155 677Q166 677 174 669Q182 661 182 650Q182 639 174 631Q166 623 155 623Q144 623 136 631Q128 639 128 650ZM318 650Q318 661 326 669Q334 677 345 677Q356 677 364 669Q372 661 372 650Q372 639 364 631Q356 623 345 623Q334 623 326 631Q318 639 318 650Z" glyph-name="adieresis.smcp" horiz-adv-x="501" unicode="&#57892;" /><glyph d="M389 342Q389 410 358.5 441.5Q328 473 250 473Q217 473 191 466.5Q165 460 146 450.5Q127 441 114.5 431Q102 421 96 415L79 444Q87 452 101.5 462.5Q116 473 136.5 482.5Q157 492 184 499Q211 506 245 506Q328 506 366 479.5Q404 453 416 408Q437 454 480 480Q523 506 597 506Q659 506 696 486.5Q733 467 752 433Q771 399 776.5 352Q782 305 782 250V233H426Q427 192 434.5 155Q442 118 460.5 89.5Q479 61 512.5 44Q546 27 598 27Q657 27 697.5 46.5Q738 66 757 84L773 57Q753 35 707 14.5Q661 -6 599 -6Q536 -6 495.5 12.5Q455 31 432 65Q410 46 384 32Q358 18 330.5 10Q303 2 276 -2Q249 -6 226 -6Q178 -6 145 5Q112 16 92 35Q72 54 63 79.5Q54 105 54 133Q54 157 61.5 181Q69 205 87.5 224Q106 243 139 255Q172 267 223 267H389ZM232 27Q277 27 326 42Q375 57 417 90Q403 119 396.5 155Q390 191 389 233H216Q178 233 154 224.5Q130 216 116 202.5Q102 189 97 171Q92 153 92 133Q92 114 97 95Q102 76 117 61Q132 46 159.5 36.5Q187 27 232 27ZM597 473Q545 473 512 456Q479 439 460.5 410.5Q442 382 434.5 345Q427 308 426 267H745Q745 307 741.5 344Q738 381 723 409.5Q708 438 678.5 455.5Q649 473 597 473Z" glyph-name="ae" horiz-adv-x="841" unicode="&#230;" /><glyph d="M675 240H398L440 34H712V0H407L383 125H136L67 0H23L305 500H712V466H351L391 274H675ZM153 156H377L318 455Z" glyph-name="ae.smcp" horiz-adv-x="762" unicode="&#57905;" /><glyph d="M22 246Q22 246 28.5 250.5Q35 255 42.5 260.5Q50 266 57 271.5Q64 277 66 278V509Q66 578 75 625.5Q84 673 100 702Q116 731 138.5 743.5Q161 756 188 756Q233 756 253.5 722Q274 688 274 625Q274 558 258.5 503Q243 448 218.5 404Q194 360 164 325.5Q134 291 104 265V131Q104 72 126.5 49.5Q149 27 191 27Q202 27 214 27.5Q226 28 234 30V-1Q224 -3 212 -4.5Q200 -6 191 -6Q136 -6 101 25Q66 56 66 129V235Q53 225 41.5 217Q30 209 22 204ZM104 311Q129 334 153.5 363.5Q178 393 198 432Q218 471 230.5 520.5Q243 570 243 631Q243 648 240.5 664.5Q238 681 232 694Q226 707 215.5 715Q205 723 188 723Q151 723 127.5 674Q104 625 104 509Z" glyph-name="afii61289" horiz-adv-x="307" unicode="&#8467;" /><glyph d="M230 550 146 750H191L257 550ZM389 342Q389 410 358.5 441.5Q328 473 250 473Q217 473 191 466.5Q165 460 146 450.5Q127 441 114.5 431Q102 421 96 415L79 444Q87 452 101.5 462.5Q116 473 136.5 482.5Q157 492 184 499Q211 506 245 506Q301 506 336 494Q371 482 391.5 460.5Q412 439 419.5 408.5Q427 378 427 341V0H409L395 39Q379 28 358 19.5Q337 11 314.5 5.5Q292 0 269.5 -3Q247 -6 228 -6Q180 -6 146.5 7Q113 20 92.5 41Q72 62 63 90Q54 118 54 148Q54 177 62.5 203.5Q71 230 91.5 250.5Q112 271 146 284.5Q180 298 232 301L389 312ZM221 269Q149 264 120.5 230.5Q92 197 92 148Q92 127 97 105.5Q102 84 117 66.5Q132 49 159 38Q186 27 230 27Q277 27 317 39.5Q357 52 389 72V281Z" glyph-name="agrave" horiz-adv-x="493" unicode="&#224;" /><glyph d="M469 0H451L437 39Q402 17 355 5.5Q308 -6 266 -6Q204 -6 164 14Q124 34 100.5 68.5Q77 103 68 149.5Q59 196 59 250Q59 304 68 351Q77 398 100.5 432.5Q124 467 164 486.5Q204 506 266 506Q308 506 355.5 494.5Q403 483 437 460L451 500H469ZM266 28Q317 28 357.5 38Q398 48 431 68V432Q398 452 357.5 462Q317 472 266 472Q212 472 179 453Q146 434 128 402.5Q110 371 104 331Q98 291 98 250Q98 209 104 169Q110 129 128 97.5Q146 66 179 47Q212 28 266 28ZM253 550 177 750H222L280 550Z" glyph-name="agrave.school" horiz-adv-x="538" unicode="&#57682;" /><glyph d="M431 0 381 125H119L69 0H26L234 506H266L475 0ZM131 156H368L250 454ZM237 550 161 750H205L263 550Z" glyph-name="agrave.smcp" horiz-adv-x="501" unicode="&#57890;" /><glyph d="M270 -63Q333 -74 365 -98.5Q397 -123 397 -166Q397 -205 369 -227.5Q341 -250 294 -250Q257 -250 232 -240Q207 -230 196 -221L211 -196Q221 -204 241 -211.5Q261 -219 291 -219Q329 -219 345.5 -205.5Q362 -192 362 -167Q362 -131 336 -115.5Q310 -100 267 -92Z" glyph-name="altcedilla" horiz-adv-x="570" unicode="&#58390;" /><glyph d="M106 667H380V633H106ZM389 342Q389 410 358.5 441.5Q328 473 250 473Q217 473 191 466.5Q165 460 146 450.5Q127 441 114.5 431Q102 421 96 415L79 444Q87 452 101.5 462.5Q116 473 136.5 482.5Q157 492 184 499Q211 506 245 506Q301 506 336 494Q371 482 391.5 460.5Q412 439 419.5 408.5Q427 378 427 341V0H409L395 39Q379 28 358 19.5Q337 11 314.5 5.5Q292 0 269.5 -3Q247 -6 228 -6Q180 -6 146.5 7Q113 20 92.5 41Q72 62 63 90Q54 118 54 148Q54 177 62.5 203.5Q71 230 91.5 250.5Q112 271 146 284.5Q180 298 232 301L389 312ZM221 269Q149 264 120.5 230.5Q92 197 92 148Q92 127 97 105.5Q102 84 117 66.5Q132 49 159 38Q186 27 230 27Q277 27 317 39.5Q357 52 389 72V281Z" glyph-name="amacron" horiz-adv-x="493" unicode="&#257;" /><glyph d="M469 0H451L437 39Q402 17 355 5.5Q308 -6 266 -6Q204 -6 164 14Q124 34 100.5 68.5Q77 103 68 149.5Q59 196 59 250Q59 304 68 351Q77 398 100.5 432.5Q124 467 164 486.5Q204 506 266 506Q308 506 355.5 494.5Q403 483 437 460L451 500H469ZM266 28Q317 28 357.5 38Q398 48 431 68V432Q398 452 357.5 462Q317 472 266 472Q212 472 179 453Q146 434 128 402.5Q110 371 104 331Q98 291 98 250Q98 209 104 169Q110 129 128 97.5Q146 66 179 47Q212 28 266 28ZM130 667H404V633H130Z" glyph-name="amacron.school" horiz-adv-x="538" unicode="&#57689;" /><glyph d="M431 0 381 125H119L69 0H26L234 506H266L475 0ZM131 156H368L250 454ZM113 667H387V633H113Z" glyph-name="amacron.smcp" horiz-adv-x="501" unicode="&#57896;" /><glyph d="M142 596Q142 625 150 653.5Q158 682 177 704.5Q196 727 227 741.5Q258 756 304 756Q350 756 381 742Q412 728 431 706Q450 684 458 656Q466 628 466 599Q466 558 447.5 528.5Q429 499 399 477Q369 455 331 437Q293 419 253 400L239 393Q253 369 269.5 345.5Q286 322 304 300Q352 242 400 199.5Q448 157 501 123Q563 185 597 280.5Q631 376 631 500H668Q668 369 632.5 269Q597 169 533 103Q571 80 613.5 61Q656 42 701 24L684 -5Q643 12 597 33.5Q551 55 509 80Q459 38 399 16Q339 -6 267 -6Q222 -6 180.5 4.5Q139 15 106.5 38Q74 61 55 99Q36 137 36 192Q36 240 48 273.5Q60 307 80.5 331.5Q101 356 129.5 374Q158 392 191 408Q168 451 155 497.5Q142 544 142 596ZM280 277Q259 301 241 326.5Q223 352 207 378Q176 363 151 347Q126 331 109 310Q92 289 82.5 260.5Q73 232 73 192Q73 143 91 111Q109 79 137.5 60.5Q166 42 200.5 34.5Q235 27 267 27Q328 27 380.5 46Q433 65 476 100Q423 134 374 176.5Q325 219 280 277ZM179 599Q179 551 190.5 507.5Q202 464 223 422L239 430Q273 446 307 461.5Q341 477 368 495.5Q395 514 412 539Q429 564 429 599Q429 623 423 645.5Q417 668 403 685Q389 702 364.5 712.5Q340 723 304 723Q268 723 243.5 713Q219 703 205 685.5Q191 668 185 645.5Q179 623 179 599Z" glyph-name="ampersand" horiz-adv-x="724" unicode="&amp;" /><glyph d="M188 -201 64 301 188 803H229L106 301L229 -201Z" glyph-name="anglebracketleft" horiz-adv-x="280" unicode="&#12296;" /><glyph d="M71 375 177 800H218L114 375L218 -50H177Z" glyph-name="anglebracketleft.cap" horiz-adv-x="280" unicode="&#58519;" /><glyph d="M83 250 157 550H198L125 250L198 -50H157Z" glyph-name="anglebracketleft.smcp" horiz-adv-x="280" unicode="&#58527;" /><glyph d="M92 803 216 301 92 -201H51L174 301L51 803Z" glyph-name="anglebracketright" horiz-adv-x="280" unicode="&#12297;" /><glyph d="M103 -50H62L166 375L62 800H103L209 375Z" glyph-name="anglebracketright.cap" horiz-adv-x="280" unicode="&#58520;" /><glyph d="M123 -50H82L155 250L82 550H123L197 250Z" glyph-name="anglebracketright.smcp" horiz-adv-x="280" unicode="&#58512;" /><glyph d="M26 0 234 506H266L475 0H431L250 454L69 0Z" glyph-name="anocross.smcp" horiz-adv-x="501" unicode="&#57888;" /><glyph d="M375 -219Q403 -219 420 -211.5Q437 -204 447 -196L462 -221Q451 -230 427.5 -240Q404 -250 372 -250Q329 -250 301.5 -226.5Q274 -203 274 -154Q274 -124 285 -98.5Q296 -73 314 -52Q332 -31 355 -14.5Q378 2 403 15L395 39Q379 28 358 19.5Q337 11 314.5 5.5Q292 0 269.5 -3Q247 -6 228 -6Q180 -6 146.5 7Q113 20 92.5 41Q72 62 63 90Q54 118 54 148Q54 177 62.5 203.5Q71 230 91.5 250.5Q112 271 146 284.5Q180 298 232 301L389 312V342Q389 410 358.5 441.5Q328 473 250 473Q217 473 191 466.5Q165 460 146 450.5Q127 441 114.5 431Q102 421 96 415L79 444Q87 452 101.5 462.5Q116 473 136.5 482.5Q157 492 184 499Q211 506 245 506Q301 506 336 494Q371 482 391.5 460.5Q412 439 419.5 408.5Q427 378 427 341V0Q412 -6 391.5 -19.5Q371 -33 352 -51.5Q333 -70 319.5 -94.5Q306 -119 306 -148Q306 -185 325.5 -202Q345 -219 375 -219ZM221 269Q149 264 120.5 230.5Q92 197 92 148Q92 127 97 105.5Q102 84 117 66.5Q132 49 159 38Q186 27 230 27Q277 27 317 39.5Q357 52 389 72V281Z" glyph-name="aogonek" horiz-adv-x="493" unicode="&#261;" /><glyph d="M417 -219Q445 -219 462 -211.5Q479 -204 489 -196L504 -221Q493 -230 469.5 -240Q446 -250 414 -250Q371 -250 343.5 -226.5Q316 -203 316 -154Q316 -124 327 -98.5Q338 -73 356 -52Q374 -31 397 -14.5Q420 2 445 15L437 39Q402 17 355 5.5Q308 -6 266 -6Q204 -6 164 14Q124 34 100.5 68.5Q77 103 68 149.5Q59 196 59 250Q59 304 68 351Q77 398 100.5 432.5Q124 467 164 486.5Q204 506 266 506Q308 506 355.5 494.5Q403 483 437 460L451 500H469V0Q454 -6 433.5 -19.5Q413 -33 394 -51.5Q375 -70 361.5 -94.5Q348 -119 348 -148Q348 -185 367.5 -202Q387 -219 417 -219ZM266 28Q317 28 357.5 38Q398 48 431 68V432Q398 452 357.5 462Q317 472 266 472Q212 472 179 453Q146 434 128 402.5Q110 371 104 331Q98 291 98 250Q98 209 104 169Q110 129 128 97.5Q146 66 179 47Q212 28 266 28Z" glyph-name="aogonek.school" horiz-adv-x="538" unicode="&#57680;" /><glyph d="M423 -219Q451 -219 468 -211.5Q485 -204 495 -196L510 -221Q499 -230 475.5 -240Q452 -250 420 -250Q377 -250 349.5 -226.5Q322 -203 322 -154Q322 -100 354 -61.5Q386 -23 429 3L381 125H119L69 0H26L234 506H266L475 0Q460 -6 439.5 -19.5Q419 -33 400 -51.5Q381 -70 367.5 -94.5Q354 -119 354 -148Q354 -185 373.5 -202Q393 -219 423 -219ZM131 156H368L250 454Z" glyph-name="aogonek.smcp" horiz-adv-x="501" unicode="&#57903;" /><glyph d="M385 421Q423 421 449 434.5Q475 448 485 459V422Q472 410 447 399Q422 388 387 388Q349 388 325.5 399.5Q302 411 283 424.5Q264 438 244 449.5Q224 461 193 461Q155 461 129 447.5Q103 434 93 423V460Q106 472 131 483Q156 494 191 494Q229 494 252.5 482.5Q276 471 295 457.5Q314 444 334 432.5Q354 421 385 421ZM385 289Q423 289 449 302.5Q475 316 485 327V290Q472 278 447 267Q422 256 387 256Q349 256 325.5 267.5Q302 279 283 292.5Q264 306 244 317.5Q224 329 193 329Q155 329 129 315.5Q103 302 93 291V328Q106 340 131 351Q156 362 191 362Q229 362 252.5 350.5Q276 339 295 325.5Q314 312 334 300.5Q354 289 385 289Z" glyph-name="approxequal" horiz-adv-x="579" unicode="&#8776;" /><glyph d="M638 429Q673 429 702 435.5Q731 442 754.5 451.5Q778 461 796 472Q814 483 825 493V456Q800 433 752 413Q704 393 641 393Q593 393 557.5 402.5Q522 412 494.5 426Q467 440 443 457Q419 474 393 488Q367 502 336 511.5Q305 521 262 521Q228 521 198.5 515Q169 509 145.5 499.5Q122 490 104 478.5Q86 467 75 457V494Q100 517 148 537Q196 557 259 557Q308 557 343 547.5Q378 538 405.5 524Q433 510 457 493Q481 476 507 462Q533 448 564 438.5Q595 429 638 429ZM638 229Q673 229 702 235.5Q731 242 754.5 251.5Q778 261 796 272Q814 283 825 293V256Q800 233 752 213Q704 193 641 193Q593 193 557.5 202.5Q522 212 494.5 226Q467 240 443 257Q419 274 393 288Q367 302 336 311.5Q305 321 262 321Q228 321 198.5 315Q169 309 145.5 299.5Q122 290 104 278.5Q86 267 75 257V294Q100 317 148 337Q196 357 259 357Q308 357 343 347.5Q378 338 405.5 324Q433 310 457 293Q481 276 507 262Q533 248 564 238.5Q595 229 638 229Z" glyph-name="approxequal.cap" horiz-adv-x="900" unicode="&#61990;" /><glyph d="M243 715Q214 715 195.5 701Q177 687 177 650Q177 613 195.5 599Q214 585 243 585Q272 585 290 599Q308 613 308 650Q308 687 290 701Q272 715 243 715ZM243 556Q200 556 173.5 578Q147 600 147 650Q147 701 173.5 723Q200 745 243 745Q286 745 312.5 723Q339 701 339 650Q339 600 312.5 578Q286 556 243 556ZM389 342Q389 410 358.5 441.5Q328 473 250 473Q217 473 191 466.5Q165 460 146 450.5Q127 441 114.5 431Q102 421 96 415L79 444Q87 452 101.5 462.5Q116 473 136.5 482.5Q157 492 184 499Q211 506 245 506Q301 506 336 494Q371 482 391.5 460.5Q412 439 419.5 408.5Q427 378 427 341V0H409L395 39Q379 28 358 19.5Q337 11 314.5 5.5Q292 0 269.5 -3Q247 -6 228 -6Q180 -6 146.5 7Q113 20 92.5 41Q72 62 63 90Q54 118 54 148Q54 177 62.5 203.5Q71 230 91.5 250.5Q112 271 146 284.5Q180 298 232 301L389 312ZM221 269Q149 264 120.5 230.5Q92 197 92 148Q92 127 97 105.5Q102 84 117 66.5Q132 49 159 38Q186 27 230 27Q277 27 317 39.5Q357 52 389 72V281Z" glyph-name="aring" horiz-adv-x="493" unicode="&#229;" /><glyph d="M469 0H451L437 39Q402 17 355 5.5Q308 -6 266 -6Q204 -6 164 14Q124 34 100.5 68.5Q77 103 68 149.5Q59 196 59 250Q59 304 68 351Q77 398 100.5 432.5Q124 467 164 486.5Q204 506 266 506Q308 506 355.5 494.5Q403 483 437 460L451 500H469ZM266 28Q317 28 357.5 38Q398 48 431 68V432Q398 452 357.5 462Q317 472 266 472Q212 472 179 453Q146 434 128 402.5Q110 371 104 331Q98 291 98 250Q98 209 104 169Q110 129 128 97.5Q146 66 179 47Q212 28 266 28ZM267 715Q238 715 219 701Q200 687 200 650Q200 613 219 599Q238 585 267 585Q296 585 314 599Q332 613 332 650Q332 687 314 701Q296 715 267 715ZM267 556Q223 556 196.5 578Q170 600 170 650Q170 701 196.5 723Q223 745 267 745Q309 745 335.5 723Q362 701 362 650Q362 600 335.5 578Q309 556 267 556Z" glyph-name="aring.school" horiz-adv-x="538" unicode="&#57687;" /><glyph d="M431 0 381 125H119L69 0H26L234 506H266L475 0ZM131 156H368L250 454ZM250 715Q221 715 202 701Q183 687 183 650Q183 613 202 599Q221 585 250 585Q279 585 297 599Q315 613 315 650Q315 687 297 701Q279 715 250 715ZM250 556Q206 556 180 578Q154 600 154 650Q154 701 180 723Q206 745 250 745Q293 745 319 723Q345 701 345 650Q345 600 319 578Q293 556 250 556Z" glyph-name="aring.smcp" horiz-adv-x="501" unicode="&#57894;" /><glyph d="M789 359 426 -5H402L39 359V410L396 52V753H432V52L789 410Z" glyph-name="arrowdown" horiz-adv-x="830" unicode="&#8595;" /><glyph d="M401 0 38 363V387L401 750H452L94 393H795V357H94L452 0Z" glyph-name="arrowleft" horiz-adv-x="830" unicode="&#8592;" /><glyph d="M430 750 793 387V363L430 0H378L736 357H36V393H736L378 750Z" glyph-name="arrowright" horiz-adv-x="830" unicode="&#8594;" /><glyph d="M39 392 402 755H426L789 392V341L432 698V-3H396V698L39 341Z" glyph-name="arrowup" horiz-adv-x="830" unicode="&#8593;" /><glyph d="M57 474 250 752H286L479 474H445L268 715L91 474Z" glyph-name="asciicircum" horiz-adv-x="521" unicode="^" /><glyph d="M341 321Q379 321 405 334.5Q431 348 441 359V322Q428 310 403 299Q378 288 343 288Q305 288 281.5 299.5Q258 311 239 324.5Q220 338 200 349.5Q180 361 149 361Q111 361 85 347.5Q59 334 49 323V360Q62 372 87 383Q112 394 147 394Q185 394 208.5 382.5Q232 371 251 357.5Q270 344 290 332.5Q310 321 341 321Z" glyph-name="asciitilde" horiz-adv-x="490" unicode="~" /><glyph d="M215 529 303 433 267 408 203 522ZM154 522 90 408 55 433 142 529ZM171 621 156 750H200L185 621ZM227 592 345 646 358 605 230 579ZM126 579 -2 605 12 645 129 592Z" glyph-name="asterisk" horiz-adv-x="355" unicode="*" /><glyph d="M489 46 480 86Q459 63 428 52Q397 41 359 41Q284 41 244.5 91Q205 141 205 250Q205 359 244.5 409.5Q284 460 359 460Q437 460 480 415L488 455H514V75H532Q577 75 605 91Q633 107 648 137.5Q663 168 668 211.5Q673 255 673 310Q673 379 658 432.5Q643 486 608.5 523Q574 560 519.5 579Q465 598 385 598Q225 598 151.5 513.5Q78 429 78 250Q78 71 151.5 -13.5Q225 -98 388 -98Q433 -98 475 -92Q517 -86 553 -76Q589 -66 617.5 -53Q646 -40 665 -26L673 -57Q655 -72 625.5 -85Q596 -98 558.5 -108.5Q521 -119 477.5 -125Q434 -131 388 -131Q205 -131 123 -34.5Q41 62 41 250Q41 438 122.5 534.5Q204 631 385 631Q471 631 532 610Q593 589 632 548.5Q671 508 689 448Q707 388 707 310Q707 238 697.5 188Q688 138 667 106.5Q646 75 613 60.5Q580 46 533 46ZM476 382Q453 403 428.5 414.5Q404 426 369 426Q299 426 271.5 379.5Q244 333 244 250Q244 168 271.5 121Q299 74 369 74Q404 74 428.5 85.5Q453 97 476 118Z" glyph-name="at" horiz-adv-x="749" unicode="@" /><glyph d="M489 171 480 211Q459 188 428 177Q397 166 359 166Q284 166 244.5 216Q205 266 205 375Q205 484 244.5 534.5Q284 585 359 585Q437 585 480 540L488 580H514V200H532Q577 200 605 216Q633 232 648 262.5Q663 293 668 336.5Q673 380 673 435Q673 504 658 557.5Q643 611 608.5 648Q574 685 519.5 704Q465 723 385 723Q225 723 151.5 638.5Q78 554 78 375Q78 196 151.5 111.5Q225 27 388 27Q433 27 475 33Q517 39 553 49Q589 59 617.5 72Q646 85 665 99L673 68Q655 53 625.5 40Q596 27 558.5 16.5Q521 6 477.5 0Q434 -6 388 -6Q205 -6 123 90.5Q41 187 41 375Q41 563 122.5 659.5Q204 756 385 756Q471 756 532 735Q593 714 632 673.5Q671 633 689 573Q707 513 707 435Q707 363 697.5 313Q688 263 667 231.5Q646 200 613 185.5Q580 171 533 171ZM476 507Q453 528 428.5 539.5Q404 551 369 551Q299 551 271.5 504.5Q244 458 244 375Q244 293 271.5 246Q299 199 369 199Q404 199 428.5 210.5Q453 222 476 243Z" glyph-name="at.cap" horiz-adv-x="749" unicode="&#58643;" /><glyph d="M315 631Q370 631 372 692H406Q404 646 380.5 622.5Q357 599 315 599Q287 599 269 610Q251 621 236.5 634Q222 647 207.5 658Q193 669 172 669Q117 669 114 608H81Q83 654 106.5 677.5Q130 701 172 701Q200 701 217.5 690Q235 679 249.5 666Q264 653 278.5 642Q293 631 315 631ZM389 342Q389 410 358.5 441.5Q328 473 250 473Q217 473 191 466.5Q165 460 146 450.5Q127 441 114.5 431Q102 421 96 415L79 444Q87 452 101.5 462.5Q116 473 136.5 482.5Q157 492 184 499Q211 506 245 506Q301 506 336 494Q371 482 391.5 460.5Q412 439 419.5 408.5Q427 378 427 341V0H409L395 39Q379 28 358 19.5Q337 11 314.5 5.5Q292 0 269.5 -3Q247 -6 228 -6Q180 -6 146.5 7Q113 20 92.5 41Q72 62 63 90Q54 118 54 148Q54 177 62.5 203.5Q71 230 91.5 250.5Q112 271 146 284.5Q180 298 232 301L389 312ZM221 269Q149 264 120.5 230.5Q92 197 92 148Q92 127 97 105.5Q102 84 117 66.5Q132 49 159 38Q186 27 230 27Q277 27 317 39.5Q357 52 389 72V281Z" glyph-name="atilde" horiz-adv-x="493" unicode="&#227;" /><glyph d="M469 0H451L437 39Q402 17 355 5.5Q308 -6 266 -6Q204 -6 164 14Q124 34 100.5 68.5Q77 103 68 149.5Q59 196 59 250Q59 304 68 351Q77 398 100.5 432.5Q124 467 164 486.5Q204 506 266 506Q308 506 355.5 494.5Q403 483 437 460L451 500H469ZM266 28Q317 28 357.5 38Q398 48 431 68V432Q398 452 357.5 462Q317 472 266 472Q212 472 179 453Q146 434 128 402.5Q110 371 104 331Q98 291 98 250Q98 209 104 169Q110 129 128 97.5Q146 66 179 47Q212 28 266 28ZM338 631Q393 631 396 692H429Q427 646 403.5 622.5Q380 599 338 599Q310 599 292.5 610Q275 621 260.5 634Q246 647 231.5 658Q217 669 195 669Q140 669 138 608H104Q106 654 129.5 677.5Q153 701 195 701Q223 701 240.5 690Q258 679 272.5 666Q287 653 301.5 642Q316 631 338 631Z" glyph-name="atilde.school" horiz-adv-x="538" unicode="&#57686;" /><glyph d="M431 0 381 125H119L69 0H26L234 506H266L475 0ZM131 156H368L250 454ZM321 631Q376 631 379 692H413Q411 646 387 622.5Q363 599 321 599Q293 599 275.5 610Q258 621 243.5 634Q229 647 214.5 658Q200 669 179 669Q124 669 121 608H87Q89 654 113 677.5Q137 701 179 701Q207 701 224.5 690Q242 679 256.5 666Q271 653 285.5 642Q300 631 321 631Z" glyph-name="atilde.smcp" horiz-adv-x="501" unicode="&#57893;" /><glyph d="M272 506Q334 506 374 486.5Q414 467 437.5 432.5Q461 398 470 351Q479 304 479 250Q479 196 470 149.5Q461 103 437.5 68.5Q414 34 374 14Q334 -6 272 -6Q230 -6 182 5.5Q134 17 100 39L86 0H67V750H105V464Q138 485 184.5 495.5Q231 506 272 506ZM272 473Q170 473 105 433V67Q170 27 272 27Q326 27 359.5 46Q393 65 411 96.5Q429 128 435 168Q441 208 441 250Q441 292 435 332Q429 372 411 403.5Q393 435 359.5 454Q326 473 272 473Z" glyph-name="b" horiz-adv-x="538" unicode="b" /><glyph d="M71 500H279Q321 500 348 492Q375 484 391.5 468.5Q408 453 414.5 430Q421 407 421 377Q421 330 403.5 307Q386 284 363 275Q384 269 400 255.5Q416 242 426.5 224Q437 206 442 185.5Q447 165 447 145Q447 114 439 87.5Q431 61 412 41.5Q393 22 362.5 11Q332 0 287 0H71ZM405 145Q405 169 400 189.5Q395 210 381.5 224.5Q368 239 346 247.5Q324 256 289 256H110V34H289Q324 34 346 42.5Q368 51 381.5 65.5Q395 80 400 100.5Q405 121 405 145ZM293 290Q349 290 366.5 313.5Q384 337 384 377Q384 397 380 413.5Q376 430 365 441.5Q354 453 335 459.5Q316 466 286 466H110V290Z" glyph-name="b.smcp" horiz-adv-x="511" unicode="&#57858;" /><glyph d="M580 -206 -9 816H32L621 -206Z" glyph-name="backslash" horiz-adv-x="530" unicode="\" /><glyph d="M489 -50 0 800H41L530 -50Z" glyph-name="backslash.cap" horiz-adv-x="530" unicode="&#58466;" /><glyph d="M41 550 386 -50H345L0 550Z" glyph-name="backslash.smcp" horiz-adv-x="386" unicode="&#58472;" /><glyph d="M65 500H565V0H65ZM103 36H527V464H103ZM142 103 289 250 142 397 168 423 315 276 462 423 488 397 341 250 488 103 462 77 315 224 168 77Z" glyph-name="ballotboxwithx" horiz-adv-x="630" unicode="&#9746;" /><glyph d="M92 -206V816H130V-206Z" glyph-name="bar" horiz-adv-x="222" unicode="|" /><glyph d="M92 -50V800H130V-50Z" glyph-name="bar.cap" horiz-adv-x="222" unicode="&#58467;" /><glyph d="M92 -50V550H130V-50Z" glyph-name="bar.smcp" horiz-adv-x="222" unicode="&#58473;" /><glyph d="M272 506Q334 506 374 486.5Q414 467 437.5 432.5Q461 398 470 351Q479 304 479 250Q479 196 470 149.5Q461 103 437.5 68.5Q414 34 374 14Q334 -6 272 -6Q230 -6 182 5.5Q134 17 100 39L86 0H67V750H105V464Q138 485 184.5 495.5Q231 506 272 506ZM272 473Q170 473 105 433V67Q170 27 272 27Q326 27 359.5 46Q393 65 411 96.5Q429 128 435 168Q441 208 441 250Q441 292 435 332Q429 372 411 403.5Q393 435 359.5 454Q326 473 272 473ZM59 850Q59 861 67 869Q75 877 86 877Q97 877 105 869Q113 861 113 850Q113 839 105 831Q97 823 86 823Q75 823 67 831Q59 839 59 850Z" glyph-name="bdotaccent" horiz-adv-x="538" unicode="&#7683;" /><glyph d="M71 500H279Q321 500 348 492Q375 484 391.5 468.5Q408 453 414.5 430Q421 407 421 377Q421 330 403.5 307Q386 284 363 275Q384 269 400 255.5Q416 242 426.5 224Q437 206 442 185.5Q447 165 447 145Q447 114 439 87.5Q431 61 412 41.5Q393 22 362.5 11Q332 0 287 0H71ZM405 145Q405 169 400 189.5Q395 210 381.5 224.5Q368 239 346 247.5Q324 256 289 256H110V34H289Q324 34 346 42.5Q368 51 381.5 65.5Q395 80 400 100.5Q405 121 405 145ZM293 290Q349 290 366.5 313.5Q384 337 384 377Q384 397 380 413.5Q376 430 365 441.5Q354 453 335 459.5Q316 466 286 466H110V290ZM214 650Q214 661 222 669Q230 677 241 677Q252 677 260 669Q268 661 268 650Q268 639 260 631Q252 623 241 623Q230 623 222 631Q214 639 214 650Z" glyph-name="bdotaccent.smcp" horiz-adv-x="511" /><glyph d="M59 375Q59 454 89 523.5Q119 593 170.5 644.5Q222 696 291.5 726Q361 756 440 756Q519 756 588.5 726Q658 696 709.5 644.5Q761 593 791 523.5Q821 454 821 375Q821 296 791 226.5Q761 157 709.5 105.5Q658 54 588.5 24Q519 -6 440 -6Q361 -6 291.5 24Q222 54 170.5 105.5Q119 157 89 226.5Q59 296 59 375Z" glyph-name="blackcircle" horiz-adv-x="880" unicode="&#9679;" /><glyph d="M65 0V500H565V0Z" glyph-name="blacksmallsquare" horiz-adv-x="630" unicode="&#9642;" /><glyph d="M65 0V750H815V0Z" glyph-name="blacksquare" horiz-adv-x="880" unicode="&#9632;" /><glyph d="M60 319Q119 319 116 379L98 705Q95 758 124 780.5Q153 803 201 803H217V767H201Q136 767 139 708L157 381Q159 348 146 328.5Q133 309 112 301Q133 293 146 273.5Q159 254 157 221L139 -106Q136 -165 201 -165H217V-201H201Q153 -201 124 -178Q95 -155 98 -103L116 224Q119 283 61 283H43V319Z" glyph-name="braceleft" horiz-adv-x="265" unicode="{" /><glyph d="M60 393Q119 393 116 453L102 702Q99 754 128 777Q157 800 205 800H221V764H205Q140 764 143 704L157 455Q159 422 146 402.5Q133 383 111 375Q133 367 146 347Q159 327 157 295L143 46Q140 -14 205 -14H221V-50H205Q157 -50 128 -27Q99 -4 102 48L116 297Q119 357 61 357H43V393Z" glyph-name="braceleft.cap" horiz-adv-x="265" unicode="&#58517;" /><glyph d="M43 232V268H61Q119 268 116 328L109 452Q106 504 135 527Q164 550 212 550H228V514H212Q147 514 150 454L157 330Q159 298 146 278Q133 258 111 250Q133 242 146 222.5Q159 203 157 170L150 46Q147 -14 212 -14H228V-50H212Q164 -50 135 -27Q106 -4 109 48L116 172Q119 232 60 232Z" glyph-name="braceleft.smcp" horiz-adv-x="265" unicode="&#58525;" /><glyph d="M222 319V283H205Q174 283 161 268Q148 253 149 224L167 -103Q170 -155 141.5 -178Q113 -201 65 -201H48V-165H65Q129 -165 126 -106L108 221Q106 254 119.5 273.5Q133 293 154 301Q133 309 119.5 328.5Q106 348 108 381L126 708Q129 767 65 767H48V803H65Q113 803 141.5 780.5Q170 758 167 705L149 379Q148 349 161 334Q174 319 206 319Z" glyph-name="braceright" horiz-adv-x="265" unicode="}" /><glyph d="M222 393V357H205Q174 357 161 341.5Q148 326 149 297L163 48Q166 -4 137.5 -27Q109 -50 61 -50H44V-14H61Q125 -14 122 46L108 295Q106 327 119.5 347Q133 367 154 375Q133 383 119.5 402.5Q106 422 108 455L122 704Q125 764 61 764H44V800H61Q109 800 137.5 777Q166 754 163 702L149 453Q148 423 161 408Q174 393 206 393Z" glyph-name="braceright.cap" horiz-adv-x="265" unicode="&#58518;" /><glyph d="M229 268V232H212Q181 232 168 216.5Q155 201 157 172L164 48Q167 -4 138 -27Q109 -50 61 -50H44V-14H61Q125 -14 123 46L116 170Q114 202 127 222Q140 242 161 250Q140 258 127 277.5Q114 297 116 330L122 454Q125 514 61 514H44V550H61Q109 550 137.5 527Q166 504 163 452L157 328Q154 268 213 268Z" glyph-name="braceright.smcp" horiz-adv-x="265" unicode="&#58526;" /><glyph d="M126 -164H221V-201H86V803H221V767H126Z" glyph-name="bracketleft" horiz-adv-x="269" unicode="[" /><glyph d="M126 -13H221V-50H86V800H221V763H126Z" glyph-name="bracketleft.cap" horiz-adv-x="269" unicode="&#58515;" /><glyph d="M126 -13H221V-50H86V550H221V513H126Z" glyph-name="bracketleft.smcp" horiz-adv-x="269" unicode="&#58523;" /><glyph d="M144 767H48V803H183V-201H48V-164H144Z" glyph-name="bracketright" horiz-adv-x="269" unicode="]" /><glyph d="M175 763H79V800H214V-50H79V-13H175Z" glyph-name="bracketright.cap" horiz-adv-x="269" unicode="&#58516;" /><glyph d="M144 513H48V550H183V-50H48V-13H144Z" glyph-name="bracketright.smcp" horiz-adv-x="269" unicode="&#58524;" /><glyph d="M285 550Q110 550 110 750H136Q138 669 172 625.5Q206 582 285 582Q364 582 398 625.5Q432 669 434 750H460Q460 550 285 550Z" glyph-name="breve" horiz-adv-x="570" unicode="&#728;" /><glyph d="M285 790Q144 790 140 900H167Q169 864 196.5 843.5Q224 823 285 823Q346 823 373.5 843.5Q401 864 403 900H430Q426 790 285 790Z" glyph-name="breve.cap" horiz-adv-x="570" unicode="&#58406;" /><glyph d="M92 -206V278H130V-206ZM130 332H92V816H130Z" glyph-name="brokenbar" horiz-adv-x="222" unicode="&#166;" /><glyph d="M92 -50V348H130V-50ZM130 402H92V800H130Z" glyph-name="brokenbar.cap" horiz-adv-x="222" unicode="&#58469;" /><glyph d="M91 -50V223H131V-50ZM131 277H91V550H131Z" glyph-name="brokenbar.smcp" horiz-adv-x="222" unicode="&#58475;" /><glyph d="M54 375Q54 402 64 426Q74 450 92 468Q110 486 134 496Q158 506 185 506Q212 506 236 496Q260 486 278 468Q296 450 306 426Q316 402 316 375Q316 348 306 324Q296 300 278 282Q260 264 236 254Q212 244 185 244Q158 244 134 254Q110 264 92 282Q74 300 64 324Q54 348 54 375Z" glyph-name="bullet" horiz-adv-x="370" unicode="&#8226;" /><glyph d="M54 375Q54 402 64 426Q74 450 92 468Q110 486 134 496Q158 506 185 506Q212 506 236 496Q260 486 278 468Q296 450 306 426Q316 402 316 375Q316 348 306 324Q296 300 278 282Q260 264 236 254Q212 244 185 244Q158 244 134 254Q110 264 92 282Q74 300 64 324Q54 348 54 375Z" glyph-name="bullet.cap" horiz-adv-x="370" unicode="&#58470;" /><glyph d="M54 250Q54 277 64 301Q74 325 92 343Q110 361 134 371Q158 381 185 381Q212 381 236 371Q260 361 278 343Q296 325 306 301Q316 277 316 250Q316 223 306 199Q296 175 278 157Q260 139 236 129Q212 119 185 119Q158 119 134 129Q110 139 92 157Q74 175 64 199Q54 223 54 250Z" glyph-name="bullet.smcp" horiz-adv-x="370" unicode="&#58476;" /><glyph d="M59 250Q59 306 68.5 352.5Q78 399 102.5 433.5Q127 468 168 487Q209 506 272 506Q323 506 361.5 489Q400 472 417 455L401 426Q384 442 352 457.5Q320 473 273 473Q218 473 183 454.5Q148 436 129 405Q110 374 103 333.5Q96 293 96 250Q96 207 103 166.5Q110 126 129 95Q148 64 183 45.5Q218 27 273 27Q320 27 352 42.5Q384 58 401 74L417 45Q400 28 361.5 11Q323 -6 272 -6Q209 -6 168 13Q127 32 102.5 66.5Q78 101 68.5 148Q59 195 59 250Z" glyph-name="c" horiz-adv-x="457" unicode="c" /><glyph d="M56 250Q56 304 69 351Q82 398 111 432.5Q140 467 185.5 486.5Q231 506 297 506Q323 506 346 500Q369 494 387.5 486Q406 478 420 468.5Q434 459 441 451L423 420Q417 426 406 434.5Q395 443 378.5 450.5Q362 458 341 463.5Q320 469 295 469Q238 469 200 450.5Q162 432 139.5 401.5Q117 371 107.5 331.5Q98 292 98 250Q98 208 107.5 168.5Q117 129 139.5 98.5Q162 68 200 49.5Q238 31 295 31Q320 31 341 36.5Q362 42 378.5 49.5Q395 57 406 65.5Q417 74 423 80L441 49Q434 42 420 32Q406 22 387.5 14Q369 6 346 0Q323 -6 297 -6Q231 -6 185.5 14Q140 34 111 68.5Q82 103 69 149.5Q56 196 56 250Z" glyph-name="c.smcp" horiz-adv-x="489" unicode="&#57859;" /><glyph d="M254 550 312 750H356L280 550ZM59 250Q59 306 68.5 352.5Q78 399 102.5 433.5Q127 468 168 487Q209 506 272 506Q323 506 361.5 489Q400 472 417 455L401 426Q384 442 352 457.5Q320 473 273 473Q218 473 183 454.5Q148 436 129 405Q110 374 103 333.5Q96 293 96 250Q96 207 103 166.5Q110 126 129 95Q148 64 183 45.5Q218 27 273 27Q320 27 352 42.5Q384 58 401 74L417 45Q400 28 361.5 11Q323 -6 272 -6Q209 -6 168 13Q127 32 102.5 66.5Q78 101 68.5 148Q59 195 59 250Z" glyph-name="cacute" horiz-adv-x="457" unicode="&#263;" /><glyph d="M272 550 330 750H374L298 550ZM56 250Q56 304 69 351Q82 398 111 432.5Q140 467 185.5 486.5Q231 506 297 506Q323 506 346 500Q369 494 387.5 486Q406 478 420 468.5Q434 459 441 451L423 420Q417 426 406 434.5Q395 443 378.5 450.5Q362 458 341 463.5Q320 469 295 469Q238 469 200 450.5Q162 432 139.5 401.5Q117 371 107.5 331.5Q98 292 98 250Q98 208 107.5 168.5Q117 129 139.5 98.5Q162 68 200 49.5Q238 31 295 31Q320 31 341 36.5Q362 42 378.5 49.5Q395 57 406 65.5Q417 74 423 80L441 49Q434 42 420 32Q406 22 387.5 14Q369 6 346 0Q323 -6 297 -6Q231 -6 185.5 14Q140 34 111 68.5Q82 103 69 149.5Q56 196 56 250Z" glyph-name="cacute.smcp" horiz-adv-x="489" unicode="&#57908;" /><glyph d="M453 750 304 550H266L117 750H146L285 586L424 750Z" glyph-name="caron" horiz-adv-x="570" unicode="&#711;" /><glyph d="M173 900 285 828 397 900H432L307 800H263L138 900Z" glyph-name="caron.cap" horiz-adv-x="570" unicode="&#58413;" /><glyph d="M402 750 360 550H335L359 750Z" glyph-name="caronSlovak" horiz-adv-x="570" unicode="&#58387;" /><glyph d="M436 750 287 550H247L98 750H128L267 588L405 750ZM59 250Q59 306 68.5 352.5Q78 399 102.5 433.5Q127 468 168 487Q209 506 272 506Q323 506 361.5 489Q400 472 417 455L401 426Q384 442 352 457.5Q320 473 273 473Q218 473 183 454.5Q148 436 129 405Q110 374 103 333.5Q96 293 96 250Q96 207 103 166.5Q110 126 129 95Q148 64 183 45.5Q218 27 273 27Q320 27 352 42.5Q384 58 401 74L417 45Q400 28 361.5 11Q323 -6 272 -6Q209 -6 168 13Q127 32 102.5 66.5Q78 101 68.5 148Q59 195 59 250Z" glyph-name="ccaron" horiz-adv-x="457" unicode="&#269;" /><glyph d="M454 750 305 550H265L116 750H147L285 588L424 750ZM56 250Q56 304 69 351Q82 398 111 432.5Q140 467 185.5 486.5Q231 506 297 506Q323 506 346 500Q369 494 387.5 486Q406 478 420 468.5Q434 459 441 451L423 420Q417 426 406 434.5Q395 443 378.5 450.5Q362 458 341 463.5Q320 469 295 469Q238 469 200 450.5Q162 432 139.5 401.5Q117 371 107.5 331.5Q98 292 98 250Q98 208 107.5 168.5Q117 129 139.5 98.5Q162 68 200 49.5Q238 31 295 31Q320 31 341 36.5Q362 42 378.5 49.5Q395 57 406 65.5Q417 74 423 80L441 49Q434 42 420 32Q406 22 387.5 14Q369 6 346 0Q323 -6 297 -6Q231 -6 185.5 14Q140 34 111 68.5Q82 103 69 149.5Q56 196 56 250Z" glyph-name="ccaron.smcp" horiz-adv-x="489" unicode="&#57910;" /><glyph d="M59 250Q59 306 68.5 352.5Q78 399 102.5 433.5Q127 468 168 487Q209 506 272 506Q323 506 361.5 489Q400 472 417 455L401 426Q384 442 352 457.5Q320 473 273 473Q218 473 183 454.5Q148 436 129 405Q110 374 103 333.5Q96 293 96 250Q96 207 103 166.5Q110 126 129 95Q148 64 183 45.5Q218 27 273 27Q320 27 352 42.5Q384 58 401 74L417 45Q400 28 361.5 11Q323 -6 272 -6H271L275 -71Q292 -74 309 -81.5Q326 -89 340 -100.5Q354 -112 363 -128.5Q372 -145 372 -166Q372 -205 344 -227.5Q316 -250 269 -250Q232 -250 207 -240Q182 -230 171 -221L186 -196Q196 -204 216 -211.5Q236 -219 266 -219Q304 -219 320.5 -205.5Q337 -192 337 -167Q337 -131 311 -115.5Q285 -100 242 -92L248 -5Q192 -2 155.5 18.5Q119 39 97.5 73Q76 107 67.5 152Q59 197 59 250Z" glyph-name="ccedilla" horiz-adv-x="457" unicode="&#231;" /><glyph d="M56 250Q56 304 69 351Q82 398 111 432.5Q140 467 185.5 486.5Q231 506 297 506Q323 506 346 500Q369 494 387.5 486Q406 478 420 468.5Q434 459 441 451L423 420Q417 426 406 434.5Q395 443 378.5 450.5Q362 458 341 463.5Q320 469 295 469Q238 469 200 450.5Q162 432 139.5 401.5Q117 371 107.5 331.5Q98 292 98 250Q98 208 107.5 168.5Q117 129 139.5 98.5Q162 68 200 49.5Q238 31 295 31Q320 31 341 36.5Q362 42 378.5 49.5Q395 57 406 65.5Q417 74 423 80L441 49Q434 42 420 32Q406 22 387.5 14Q369 6 346 0Q323 -6 297 -6H287L291 -71Q308 -74 325 -81.5Q342 -89 356 -100.5Q370 -112 379 -128.5Q388 -145 388 -166Q388 -205 360 -227.5Q332 -250 285 -250Q248 -250 223 -240Q198 -230 187 -221L202 -196Q212 -204 232 -211.5Q252 -219 282 -219Q320 -219 336.5 -205.5Q353 -192 353 -167Q353 -131 327 -115.5Q301 -100 258 -92L264 -4Q208 1 168.5 22Q129 43 104 77Q79 111 67.5 155Q56 199 56 250Z" glyph-name="ccedilla.smcp" horiz-adv-x="489" unicode="&#57912;" /><glyph d="M405 550 267 712 128 550H98L247 750H287L436 550ZM59 250Q59 306 68.5 352.5Q78 399 102.5 433.5Q127 468 168 487Q209 506 272 506Q323 506 361.5 489Q400 472 417 455L401 426Q384 442 352 457.5Q320 473 273 473Q218 473 183 454.5Q148 436 129 405Q110 374 103 333.5Q96 293 96 250Q96 207 103 166.5Q110 126 129 95Q148 64 183 45.5Q218 27 273 27Q320 27 352 42.5Q384 58 401 74L417 45Q400 28 361.5 11Q323 -6 272 -6Q209 -6 168 13Q127 32 102.5 66.5Q78 101 68.5 148Q59 195 59 250Z" glyph-name="ccircumflex" horiz-adv-x="457" unicode="&#265;" /><glyph d="M424 550 285 712 147 550H116L265 750H305L454 550ZM56 250Q56 304 69 351Q82 398 111 432.5Q140 467 185.5 486.5Q231 506 297 506Q323 506 346 500Q369 494 387.5 486Q406 478 420 468.5Q434 459 441 451L423 420Q417 426 406 434.5Q395 443 378.5 450.5Q362 458 341 463.5Q320 469 295 469Q238 469 200 450.5Q162 432 139.5 401.5Q117 371 107.5 331.5Q98 292 98 250Q98 208 107.5 168.5Q117 129 139.5 98.5Q162 68 200 49.5Q238 31 295 31Q320 31 341 36.5Q362 42 378.5 49.5Q395 57 406 65.5Q417 74 423 80L441 49Q434 42 420 32Q406 22 387.5 14Q369 6 346 0Q323 -6 297 -6Q231 -6 185.5 14Q140 34 111 68.5Q82 103 69 149.5Q56 196 56 250Z" glyph-name="ccircumflex.smcp" horiz-adv-x="489" unicode="&#57909;" /><glyph d="M59 250Q59 306 68.5 352.5Q78 399 102.5 433.5Q127 468 168 487Q209 506 272 506Q323 506 361.5 489Q400 472 417 455L401 426Q384 442 352 457.5Q320 473 273 473Q218 473 183 454.5Q148 436 129 405Q110 374 103 333.5Q96 293 96 250Q96 207 103 166.5Q110 126 129 95Q148 64 183 45.5Q218 27 273 27Q320 27 352 42.5Q384 58 401 74L417 45Q400 28 361.5 11Q323 -6 272 -6Q209 -6 168 13Q127 32 102.5 66.5Q78 101 68.5 148Q59 195 59 250ZM240 650Q240 661 248 669Q256 677 267 677Q278 677 286 669Q294 661 294 650Q294 639 286 631Q278 623 267 623Q256 623 248 631Q240 639 240 650Z" glyph-name="cdotaccent" horiz-adv-x="457" unicode="&#267;" /><glyph d="M258 650Q258 661 266 669Q274 677 285 677Q296 677 304 669Q312 661 312 650Q312 639 304 631Q296 623 285 623Q274 623 266 631Q258 639 258 650ZM56 250Q56 304 69 351Q82 398 111 432.5Q140 467 185.5 486.5Q231 506 297 506Q323 506 346 500Q369 494 387.5 486Q406 478 420 468.5Q434 459 441 451L423 420Q417 426 406 434.5Q395 443 378.5 450.5Q362 458 341 463.5Q320 469 295 469Q238 469 200 450.5Q162 432 139.5 401.5Q117 371 107.5 331.5Q98 292 98 250Q98 208 107.5 168.5Q117 129 139.5 98.5Q162 68 200 49.5Q238 31 295 31Q320 31 341 36.5Q362 42 378.5 49.5Q395 57 406 65.5Q417 74 423 80L441 49Q434 42 420 32Q406 22 387.5 14Q369 6 346 0Q323 -6 297 -6Q231 -6 185.5 14Q140 34 111 68.5Q82 103 69 149.5Q56 196 56 250Z" glyph-name="cdotaccent.smcp" horiz-adv-x="489" unicode="&#57911;" /><glyph d="M296 0 300 -71Q317 -74 334 -81.5Q351 -89 365 -100.5Q379 -112 388 -128.5Q397 -145 397 -166Q397 -205 369 -227.5Q341 -250 294 -250Q257 -250 232 -240Q207 -230 196 -221L211 -196Q221 -204 241 -211.5Q261 -219 291 -219Q329 -219 345.5 -205.5Q362 -192 362 -167Q362 -131 336 -115.5Q310 -100 267 -92L274 0Z" glyph-name="cedilla" horiz-adv-x="570" unicode="&#184;" /><glyph d="M255 0V121Q201 127 163 149Q125 171 101.5 205Q78 239 67 282.5Q56 326 56 375Q56 425 67 468Q78 511 101.5 544.5Q125 578 163 600Q201 622 255 628V750H291V631H297Q323 631 346 625Q369 619 387.5 611Q406 603 420 593.5Q434 584 441 576L423 545Q417 551 406 559.5Q395 568 378.5 575.5Q362 583 341 588.5Q320 594 295 594H291V156H295Q320 156 341 161.5Q362 167 378.5 174.5Q395 182 406 190.5Q417 199 423 205L441 174Q434 167 420 157Q406 147 387.5 139Q369 131 346 125Q323 119 297 119H291V0ZM98 375Q98 337 105.5 300.5Q113 264 131 235Q149 206 179.5 185.5Q210 165 255 159V591Q210 584 179.5 563.5Q149 543 131 514Q113 485 105.5 449Q98 413 98 375Z" glyph-name="cent" horiz-adv-x="489" unicode="&#162;" /><glyph d="M255 -125V-3Q201 3 163 24.5Q125 46 101.5 80Q78 114 67 157.5Q56 201 56 250Q56 300 67 343Q78 386 101.5 419.5Q125 453 163 475Q201 497 255 503V625H291V506H297Q323 506 346 500Q369 494 387.5 486Q406 478 420 468.5Q434 459 441 451L423 420Q417 426 406 434.5Q395 443 378.5 450.5Q362 458 341 463.5Q320 469 295 469H291V31H295Q320 31 341 36.5Q362 42 378.5 49.5Q395 57 406 65.5Q417 74 423 80L441 49Q434 42 420 32Q406 22 387.5 14Q369 6 346 0Q323 -6 297 -6H291V-125ZM98 250Q98 212 105.5 175.5Q113 139 131 110Q149 81 179.5 60.5Q210 40 255 33V466Q210 459 179.5 438.5Q149 418 131 389Q113 360 105.5 324Q98 288 98 250Z" glyph-name="cent.OP" horiz-adv-x="489" unicode="&#59807;" /><glyph d="M424 550 285 714 146 550H117L266 750H304L453 550Z" glyph-name="circumflex" horiz-adv-x="570" unicode="&#710;" /><glyph d="M397 800 285 872 173 800H138L263 900H307L432 800Z" glyph-name="circumflex.cap" horiz-adv-x="570" unicode="&#58403;" /><glyph d="M342 0Q360 36 373.5 70Q387 104 396 140.5Q405 177 411 217.5Q417 258 421 307L418 308Q406 278 388 250Q370 222 346 200.5Q322 179 292 166Q262 153 226 153Q190 153 159 166Q128 179 105 201.5Q82 224 69 254.5Q56 285 56 321Q56 359 68 390.5Q80 422 102.5 445Q125 468 156 481Q187 494 224 494Q249 494 268.5 487.5Q288 481 305 472L307 474Q291 498 280.5 526.5Q270 555 270 587Q270 623 283 654.5Q296 686 318.5 709.5Q341 733 372 746.5Q403 760 440 760Q477 760 508 746.5Q539 733 561.5 709.5Q584 686 597 654.5Q610 623 610 587Q610 555 599.5 526.5Q589 498 573 474L575 472Q592 481 611.5 487.5Q631 494 656 494Q694 494 724.5 481Q755 468 777.5 445Q800 422 812 390.5Q824 359 824 321Q824 285 811 254.5Q798 224 775 201.5Q752 179 721 166Q690 153 654 153Q618 153 588 166Q558 179 534 200.5Q510 222 492 250Q474 278 462 308L459 307Q463 258 469 217.5Q475 177 484 140.5Q493 104 506.5 70Q520 36 538 0Z" glyph-name="club" horiz-adv-x="880" unicode="&#9827;" /><glyph d="M68 23Q68 34 76 42Q84 50 95 50Q106 50 114 42Q122 34 122 23Q122 12 114 4Q106 -4 95 -4Q84 -4 76 4Q68 12 68 23ZM68 375Q68 386 76 394Q84 402 95 402Q106 402 114 394Q122 386 122 375Q122 364 114 356Q106 348 95 348Q84 348 76 356Q68 364 68 375Z" glyph-name="colon" horiz-adv-x="190" unicode=":" /><glyph d="M123 53 71 -125H45L68 53Z" glyph-name="comma" horiz-adv-x="190" unicode="," /><glyph d="M313 -50 267 -250H241L267 -50Z" glyph-name="commaaccent" horiz-adv-x="570" unicode="&#58388;" /><glyph d="M375 900 317 800H257L343 900Z" glyph-name="commaaccent.cap" horiz-adv-x="570" unicode="&#58414;" /><glyph d="M387 596Q322 596 268.5 577Q215 558 177 522Q139 486 118 433.5Q97 381 97 313Q97 245 118 192.5Q139 140 177 104Q215 68 268.5 49Q322 30 387 30Q452 30 505.5 49Q559 68 597 104Q635 140 656 192.5Q677 245 677 313Q677 381 656 433.5Q635 486 597 522Q559 558 505.5 577Q452 596 387 596ZM387 631Q456 631 516 610Q576 589 620 548.5Q664 508 689.5 449Q715 390 715 313Q715 236 689.5 177Q664 118 620 77.5Q576 37 516 16Q456 -5 387 -5Q318 -5 258 16Q198 37 154 77.5Q110 118 84.5 177Q59 236 59 313Q59 390 84.5 449Q110 508 154 548.5Q198 589 258 610Q318 631 387 631ZM196 313Q196 365 210.5 401.5Q225 438 251 461Q277 484 312.5 494.5Q348 505 390 505Q449 505 482.5 488Q516 471 529 458L512 428Q496 442 468.5 456Q441 470 389 470Q355 470 326.5 462Q298 454 278 435.5Q258 417 246.5 387Q235 357 235 313Q235 269 246.5 239Q258 209 278 190.5Q298 172 326.5 164Q355 156 389 156Q441 156 468.5 170Q496 184 512 198L529 168Q516 155 482.5 138Q449 121 390 121Q348 121 312.5 131.5Q277 142 251 165Q225 188 210.5 224.5Q196 261 196 313Z" glyph-name="copyright" horiz-adv-x="774" unicode="&#169;" /><glyph d="M320 90Q367 90 407 99Q447 108 476 132.5Q505 157 522 200Q539 243 539 312Q539 381 522 424Q505 467 476 491.5Q447 516 407 525Q367 534 320 534Q274 534 233.5 525Q193 516 164 491.5Q135 467 118 424Q101 381 101 312Q101 243 118 200Q135 157 164 132.5Q193 108 233.5 99Q274 90 320 90ZM559 -1 480 93Q448 73 408 64.5Q368 56 320 56Q272 56 232 64.5Q192 73 160 93L81 -1L50 26L127 117Q95 148 78.5 195.5Q62 243 62 312Q62 381 78.5 429Q95 477 126 506L50 598L81 625L159 531Q191 551 231 559.5Q271 568 320 568Q368 568 408 559.5Q448 551 480 531L559 625L590 598L513 506Q545 477 561.5 429Q578 381 578 312Q578 243 561 195.5Q544 148 513 117L590 26Z" glyph-name="currency" horiz-adv-x="640" unicode="&#164;" /><glyph d="M266 506Q307 506 353.5 495.5Q400 485 433 464V750H471V0H452L438 39Q404 17 356 5.5Q308 -6 266 -6Q204 -6 164 14Q124 34 100.5 68.5Q77 103 68 149.5Q59 196 59 250Q59 304 68 351Q77 398 100.5 432.5Q124 467 164 486.5Q204 506 266 506ZM266 473Q212 473 178.5 454Q145 435 127 403.5Q109 372 103 332Q97 292 97 250Q97 208 103 168Q109 128 127 96.5Q145 65 178.5 46Q212 27 266 27Q368 27 433 67V433Q368 473 266 473Z" glyph-name="d" horiz-adv-x="538" unicode="d" /><glyph d="M71 0V500H241Q306 500 350.5 482.5Q395 465 422.5 433Q450 401 462.5 354.5Q475 308 475 250Q475 192 462.5 145.5Q450 99 422.5 67Q395 35 350.5 17.5Q306 0 241 0ZM247 34Q300 34 335.5 49.5Q371 65 392.5 93Q414 121 423.5 161Q433 201 433 250Q433 299 423.5 339Q414 379 392.5 407Q371 435 335.5 450.5Q300 466 247 466H110V34Z" glyph-name="d.smcp" horiz-adv-x="531" unicode="&#57860;" /><glyph d="M190 551 216 301H141L167 551ZM167 609 150 750H206L190 609ZM149 569 8 552V608L149 591ZM207 591 348 608V552L207 569Z" glyph-name="dagger" horiz-adv-x="356" unicode="&#8224;" /><glyph d="M190 352 216 102H141L167 352ZM207 591 348 608V552L207 569ZM167 609 150 750H206L190 609ZM207 392 348 409V353L207 370ZM149 370 8 353V409L149 392ZM149 569 8 552V608L149 591ZM190 551 200 480 190 410H167L157 480L167 551Z" glyph-name="daggerdbl" horiz-adv-x="356" unicode="&#8225;" /><glyph d="M266 506Q306 506 352 495.5Q398 485 431 464V750H469V0H451L437 39Q402 17 355 5.5Q308 -6 266 -6Q204 -6 164 14Q124 34 100.5 68.5Q77 103 68 149.5Q59 196 59 250Q59 304 68 351Q77 398 100.5 432.5Q124 467 164 486.5Q204 506 266 506ZM266 472Q212 472 179 453Q146 434 128 402.5Q110 371 104 331Q98 291 98 250Q98 209 104 169Q110 129 128 97.5Q146 66 179 47Q212 28 266 28Q317 28 357.5 38Q398 48 431 68V432Q398 452 357.5 462Q317 472 266 472ZM586 750 545 550H519L543 750Z" glyph-name="dcaron" horiz-adv-x="542" unicode="&#271;" /><glyph d="M412 750 263 550H223L74 750H104L243 588L382 750ZM71 0V500H241Q306 500 350.5 482.5Q395 465 422.5 433Q450 401 462.5 354.5Q475 308 475 250Q475 192 462.5 145.5Q450 99 422.5 67Q395 35 350.5 17.5Q306 0 241 0ZM247 34Q300 34 335.5 49.5Q371 65 392.5 93Q414 121 423.5 161Q433 201 433 250Q433 299 423.5 339Q414 379 392.5 407Q371 435 335.5 450.5Q300 466 247 466H110V34Z" glyph-name="dcaron.smcp" horiz-adv-x="531" unicode="&#57913;" /><glyph d="M266 506Q307 506 352 495.5Q397 485 431 464V616H267V645H431V750H469V645H569V616H469V0H451L437 39Q402 17 355 5.5Q308 -6 266 -6Q204 -6 164 14Q124 34 100.5 68.5Q77 103 68 149.5Q59 196 59 250Q59 304 68 351Q77 398 100.5 432.5Q124 467 164 486.5Q204 506 266 506ZM266 28Q317 28 357.5 38Q398 48 431 68V432Q398 452 357.5 462Q317 472 266 472Q212 472 179 453Q146 434 128 402.5Q110 371 104 331Q98 291 98 250Q98 209 104 169Q110 129 128 97.5Q146 66 179 47Q212 28 266 28Z" glyph-name="dcroat" horiz-adv-x="538" unicode="&#273;" /><glyph d="M107 267V500H277Q342 500 386.5 482.5Q431 465 458.5 433Q486 401 498.5 354.5Q511 308 511 250Q511 192 498.5 145.5Q486 99 458.5 67Q431 35 386.5 17.5Q342 0 277 0H107V233H17V267ZM283 34Q336 34 371.5 49.5Q407 65 428.5 93Q450 121 459.5 161Q469 201 469 250Q469 299 459.5 339Q450 379 428.5 407Q407 435 371.5 450.5Q336 466 283 466H146V267H275V233H146V34Z" glyph-name="dcroat.smcp" horiz-adv-x="567" unicode="&#57916;" /><glyph d="M266 506Q306 506 352 495.5Q398 485 431 464V750H469V0H451L437 39Q402 17 355 5.5Q308 -6 266 -6Q204 -6 164 14Q124 34 100.5 68.5Q77 103 68 149.5Q59 196 59 250Q59 304 68 351Q77 398 100.5 432.5Q124 467 164 486.5Q204 506 266 506ZM266 472Q212 472 179 453Q146 434 128 402.5Q110 371 104 331Q98 291 98 250Q98 209 104 169Q110 129 128 97.5Q146 66 179 47Q212 28 266 28Q317 28 357.5 38Q398 48 431 68V432Q398 452 357.5 462Q317 472 266 472ZM423 850Q423 861 431 869Q439 877 450 877Q461 877 469 869Q477 861 477 850Q477 839 469 831Q461 823 450 823Q439 823 431 831Q423 839 423 850Z" glyph-name="ddotaccent" horiz-adv-x="538" unicode="&#7691;" /><glyph d="M71 0V500H241Q306 500 350.5 482.5Q395 465 422.5 433Q450 401 462.5 354.5Q475 308 475 250Q475 192 462.5 145.5Q450 99 422.5 67Q395 35 350.5 17.5Q306 0 241 0ZM247 34Q300 34 335.5 49.5Q371 65 392.5 93Q414 121 423.5 161Q433 201 433 250Q433 299 423.5 339Q414 379 392.5 407Q371 435 335.5 450.5Q300 466 247 466H110V34ZM220 650Q220 661 228 669Q236 677 247 677Q258 677 266 669Q274 661 274 650Q274 639 266 631Q258 623 247 623Q236 623 228 631Q220 639 220 650Z" glyph-name="ddotaccent.smcp" horiz-adv-x="531" /><glyph d="M168 494Q143 494 119 500Q95 506 76 521Q57 536 45.5 561.5Q34 587 34 625Q34 664 45.5 689Q57 714 76 729Q95 744 119 750Q143 756 168 756Q193 756 217 750Q241 744 260 729Q279 714 290.5 689Q302 664 302 625Q302 587 290.5 561.5Q279 536 260 521Q241 506 217 500Q193 494 168 494ZM168 723Q122 723 96.5 701Q71 679 71 625Q71 571 96.5 549Q122 527 168 527Q214 527 239.5 549Q265 571 265 625Q265 679 239.5 701Q214 723 168 723Z" glyph-name="degree" horiz-adv-x="336" unicode="&#176;" /><glyph d="M793 374Q742 334 692.5 288.5Q643 243 597.5 193.5Q552 144 512.5 92.5Q473 41 441 -10H439Q407 41 367.5 92.5Q328 144 282.5 193.5Q237 243 187.5 288.5Q138 334 87 374V376Q138 416 187.5 461.5Q237 507 282.5 556.5Q328 606 367.5 657.5Q407 709 439 760H441Q473 709 512.5 657.5Q552 606 597.5 556.5Q643 507 692.5 461.5Q742 416 793 376Z" glyph-name="diamond" horiz-adv-x="880" unicode="&#9830;" /><glyph d="M163 650Q163 661 171 669Q179 677 190 677Q201 677 209 669Q217 661 217 650Q217 639 209 631Q201 623 190 623Q179 623 171 631Q163 639 163 650ZM353 650Q353 661 361 669Q369 677 380 677Q391 677 399 669Q407 661 407 650Q407 639 399 631Q391 623 380 623Q369 623 361 631Q353 639 353 650Z" glyph-name="dieresis" horiz-adv-x="570" unicode="&#168;" /><glyph d="M163 850Q163 861 171 869Q179 877 190 877Q201 877 209 869Q217 861 217 850Q217 839 209 831Q201 823 190 823Q179 823 171 831Q163 839 163 850ZM353 850Q353 861 361 869Q369 877 380 877Q391 877 399 869Q407 861 407 850Q407 839 399 831Q391 823 380 823Q369 823 361 831Q353 839 353 850Z" glyph-name="dieresis.cap" horiz-adv-x="570" unicode="&#58409;" /><glyph d="M486 393V357H93V393ZM262 207Q262 218 270 226Q278 234 289 234Q300 234 308 226Q316 218 316 207Q316 196 308 188Q300 180 289 180Q278 180 270 188Q262 196 262 207ZM262 543Q262 554 270 562Q278 570 289 570Q300 570 308 562Q316 554 316 543Q316 532 308 524Q300 516 289 516Q278 516 270 524Q262 532 262 543Z" glyph-name="divide" horiz-adv-x="579" unicode="&#247;" /><glyph d="M825 393V357H75V393ZM423 23Q423 34 431 42Q439 50 450 50Q461 50 469 42Q477 34 477 23Q477 12 469 4Q461 -4 450 -4Q439 -4 431 4Q423 12 423 23ZM477 727Q477 716 469 708Q461 700 450 700Q439 700 431 708Q423 716 423 727Q423 738 431 746Q439 754 450 754Q461 754 469 746Q477 738 477 727Z" glyph-name="divide.cap" horiz-adv-x="900" unicode="&#58772;" /><glyph d="M268 -125V-6H263Q225 -6 190.5 1Q156 8 127.5 19Q99 30 77.5 43.5Q56 57 45 69L64 102Q74 91 92.5 78.5Q111 66 136 55Q161 44 193 37Q225 30 262 30H268V375Q214 383 175 395Q136 407 110.5 428Q85 449 72.5 481Q60 513 60 559Q60 591 68.5 624Q77 657 100.5 684.5Q124 712 164.5 731Q205 750 268 754V875H304V756H306Q345 756 377 749.5Q409 743 433 733.5Q457 724 474 712.5Q491 701 500 691L481 658Q458 680 416 700Q374 720 305 720H304V405Q361 399 402.5 386.5Q444 374 471 351.5Q498 329 511.5 294Q525 259 525 209Q525 174 515.5 138.5Q506 103 481 73Q456 43 413 22Q370 1 304 -4V-125ZM484 209Q484 248 475.5 276Q467 304 446.5 323Q426 342 391.5 353.5Q357 365 304 371V32Q355 37 389.5 52Q424 67 445 90.5Q466 114 475 144.5Q484 175 484 209ZM100 558Q100 521 108.5 495.5Q117 470 137 453Q157 436 189 426Q221 416 268 410V718Q219 714 187 699.5Q155 685 135.5 663.5Q116 642 108 615Q100 588 100 558Z" glyph-name="dollar" horiz-adv-x="575" unicode="$" /><glyph d="M218 -6Q182 -6 152 0.5Q122 7 98.5 16Q75 25 59 35.5Q43 46 35 55L53 86Q60 79 74 69.5Q88 60 108.5 51.5Q129 43 156 37Q183 31 216 31H220V242Q128 253 89.5 281Q51 309 51 368Q51 428 89.5 464Q128 500 220 505V625H256V506Q326 504 369.5 484.5Q413 465 430 448L412 417Q405 424 391.5 432.5Q378 441 358.5 449Q339 457 313.5 463Q288 469 256 469V275Q351 266 390 235Q429 204 429 139Q429 109 420 84Q411 59 391 40.5Q371 22 337.5 10Q304 -2 256 -5V-125H220V-6ZM387 137Q387 163 380 180.5Q373 198 357.5 209.5Q342 221 317 227.5Q292 234 256 238V32Q329 37 358 63Q387 89 387 137ZM91 371Q91 323 121 304.5Q151 286 220 279V468Q148 464 119.5 441Q91 418 91 371Z" glyph-name="dollar.OP" horiz-adv-x="476" unicode="&#59806;" /><glyph d="M258 650Q258 661 266 669Q274 677 285 677Q296 677 304 669Q312 661 312 650Q312 639 304 631Q296 623 285 623Q274 623 266 631Q258 639 258 650Z" glyph-name="dotaccent" horiz-adv-x="570" unicode="&#729;" /><glyph d="M258 850Q258 861 266 869Q274 877 285 877Q296 877 304 869Q312 861 312 850Q312 839 304 831Q296 823 285 823Q274 823 266 831Q258 839 258 850Z" glyph-name="dotaccent.cap" horiz-adv-x="570" unicode="&#58408;" /><glyph d="M85 0V500H123V0Z" glyph-name="dotlessi" horiz-adv-x="208" unicode="&#305;" /><glyph d="M-49 -221Q-21 -221 3.5 -215.5Q28 -210 46 -198Q64 -186 74.5 -166.5Q85 -147 85 -118V500H123V-116Q123 -254 -44 -256Z" glyph-name="dotlessj" horiz-adv-x="208" unicode="&#567;" /><glyph d="M92 -206V816H130V-206ZM184 -206V816H222V-206Z" glyph-name="doublebar" horiz-adv-x="314" unicode="&#8214;" /><glyph d="M92 -50V800H130V-50ZM184 -50V800H222V-50Z" glyph-name="doublebar.cap" horiz-adv-x="314" unicode="&#58468;" /><glyph d="M92 -50V550H130V-50ZM184 -50V550H222V-50Z" glyph-name="doublebar.smcp" horiz-adv-x="314" unicode="&#58474;" /><glyph d="M220 550 144 750H188L246 550ZM324 550 248 750H292L350 550Z" glyph-name="doublegrave" horiz-adv-x="570" unicode="&#58386;" /><glyph d="M322 800 236 900H295L353 800ZM217 800 131 900H191L248 800Z" glyph-name="doublegrave.cap" horiz-adv-x="570" unicode="&#58412;" /><glyph d="M59 250Q59 306 68 352.5Q77 399 100.5 433.5Q124 468 164 487Q204 506 267 506Q329 506 366 486.5Q403 467 422 433Q441 399 446.5 352Q452 305 452 250V233H96Q97 192 104.5 155Q112 118 130.5 89.5Q149 61 182.5 44Q216 27 268 27Q327 27 367.5 46.5Q408 66 427 84L443 57Q423 35 377 14.5Q331 -6 269 -6Q206 -6 165.5 13Q125 32 101 66.5Q77 101 68 148Q59 195 59 250ZM267 473Q215 473 182 456Q149 439 130.5 410.5Q112 382 104.5 345Q97 308 96 267H415Q415 307 411.5 344Q408 381 393 409.5Q378 438 348.5 455.5Q319 473 267 473Z" glyph-name="e" horiz-adv-x="511" unicode="e" /><glyph d="M389 240H110V34H427V0H71V500H427V466H110V274H389Z" glyph-name="e.smcp" horiz-adv-x="483" unicode="&#57861;" /><glyph d="M253 550 311 750H356L280 550ZM59 250Q59 306 68 352.5Q77 399 100.5 433.5Q124 468 164 487Q204 506 267 506Q329 506 366 486.5Q403 467 422 433Q441 399 446.5 352Q452 305 452 250V233H96Q97 192 104.5 155Q112 118 130.5 89.5Q149 61 182.5 44Q216 27 268 27Q327 27 367.5 46.5Q408 66 427 84L443 57Q423 35 377 14.5Q331 -6 269 -6Q206 -6 165.5 13Q125 32 101 66.5Q77 101 68 148Q59 195 59 250ZM267 473Q215 473 182 456Q149 439 130.5 410.5Q112 382 104.5 345Q97 308 96 267H415Q415 307 411.5 344Q408 381 393 409.5Q378 438 348.5 455.5Q319 473 267 473Z" glyph-name="eacute" horiz-adv-x="511" unicode="&#233;" /><glyph d="M389 240H110V34H427V0H71V500H427V466H110V274H389ZM238 550 296 750H341L265 550Z" glyph-name="eacute.smcp" horiz-adv-x="483" unicode="&#57917;" /><glyph d="M267 550Q92 550 92 750H119Q121 669 154.5 626.5Q188 584 267 584Q345 584 378.5 626.5Q412 669 414 750H442Q441 550 267 550ZM59 250Q59 306 68 352.5Q77 399 100.5 433.5Q124 468 164 487Q204 506 267 506Q329 506 366 486.5Q403 467 422 433Q441 399 446.5 352Q452 305 452 250V233H96Q97 192 104.5 155Q112 118 130.5 89.5Q149 61 182.5 44Q216 27 268 27Q327 27 367.5 46.5Q408 66 427 84L443 57Q423 35 377 14.5Q331 -6 269 -6Q206 -6 165.5 13Q125 32 101 66.5Q77 101 68 148Q59 195 59 250ZM267 473Q215 473 182 456Q149 439 130.5 410.5Q112 382 104.5 345Q97 308 96 267H415Q415 307 411.5 344Q408 381 393 409.5Q378 438 348.5 455.5Q319 473 267 473Z" glyph-name="ebreve" horiz-adv-x="511" unicode="&#277;" /><glyph d="M389 240H110V34H427V0H71V500H427V466H110V274H389ZM252 550Q77 550 77 750H104Q106 669 139.5 626.5Q173 584 252 584Q330 584 363.5 626.5Q397 669 399 750H427Q426 550 252 550Z" glyph-name="ebreve.smcp" horiz-adv-x="483" unicode="&#57923;" /><glyph d="M436 750 287 550H246L97 750H128L267 588L405 750ZM59 250Q59 306 68 352.5Q77 399 100.5 433.5Q124 468 164 487Q204 506 267 506Q329 506 366 486.5Q403 467 422 433Q441 399 446.5 352Q452 305 452 250V233H96Q97 192 104.5 155Q112 118 130.5 89.5Q149 61 182.5 44Q216 27 268 27Q327 27 367.5 46.5Q408 66 427 84L443 57Q423 35 377 14.5Q331 -6 269 -6Q206 -6 165.5 13Q125 32 101 66.5Q77 101 68 148Q59 195 59 250ZM267 473Q215 473 182 456Q149 439 130.5 410.5Q112 382 104.5 345Q97 308 96 267H415Q415 307 411.5 344Q408 381 393 409.5Q378 438 348.5 455.5Q319 473 267 473Z" glyph-name="ecaron" horiz-adv-x="511" unicode="&#283;" /><glyph d="M389 240H110V34H427V0H71V500H427V466H110V274H389ZM421 750 272 550H231L82 750H113L252 588L390 750Z" glyph-name="ecaron.smcp" horiz-adv-x="483" unicode="&#57921;" /><glyph d="M405 550 267 712 128 550H97L246 750H287L436 550ZM59 250Q59 306 68 352.5Q77 399 100.5 433.5Q124 468 164 487Q204 506 267 506Q329 506 366 486.5Q403 467 422 433Q441 399 446.5 352Q452 305 452 250V233H96Q97 192 104.5 155Q112 118 130.5 89.5Q149 61 182.5 44Q216 27 268 27Q327 27 367.5 46.5Q408 66 427 84L443 57Q423 35 377 14.5Q331 -6 269 -6Q206 -6 165.5 13Q125 32 101 66.5Q77 101 68 148Q59 195 59 250ZM267 473Q215 473 182 456Q149 439 130.5 410.5Q112 382 104.5 345Q97 308 96 267H415Q415 307 411.5 344Q408 381 393 409.5Q378 438 348.5 455.5Q319 473 267 473Z" glyph-name="ecircumflex" horiz-adv-x="511" unicode="&#234;" /><glyph d="M389 240H110V34H427V0H71V500H427V466H110V274H389ZM390 550 252 712 113 550H82L231 750H272L421 550Z" glyph-name="ecircumflex.smcp" horiz-adv-x="483" unicode="&#57919;" /><glyph d="M59 250Q59 306 68 352.5Q77 399 100.5 433.5Q124 468 164 487Q204 506 267 506Q329 506 366 486.5Q403 467 422 433Q441 399 446.5 352Q452 305 452 250V233H96Q97 192 104.5 155Q112 118 130.5 89.5Q149 61 182.5 44Q216 27 268 27Q327 27 367.5 46.5Q408 66 427 84L443 57Q423 35 377 14.5Q331 -6 269 -6Q206 -6 165.5 13Q125 32 101 66.5Q77 101 68 148Q59 195 59 250ZM267 473Q215 473 182 456Q149 439 130.5 410.5Q112 382 104.5 345Q97 308 96 267H415Q415 307 411.5 344Q408 381 393 409.5Q378 438 348.5 455.5Q319 473 267 473ZM145 650Q145 661 153 669Q161 677 172 677Q183 677 191 669Q199 661 199 650Q199 639 191 631Q183 623 172 623Q161 623 153 631Q145 639 145 650ZM335 650Q335 661 343 669Q351 677 362 677Q373 677 381 669Q389 661 389 650Q389 639 381 631Q373 623 362 623Q351 623 343 631Q335 639 335 650Z" glyph-name="edieresis" horiz-adv-x="511" unicode="&#235;" /><glyph d="M389 240H110V34H427V0H71V500H427V466H110V274H389ZM130 650Q130 661 138 669Q146 677 157 677Q168 677 176 669Q184 661 184 650Q184 639 176 631Q168 623 157 623Q146 623 138 631Q130 639 130 650ZM320 650Q320 661 328 669Q336 677 347 677Q358 677 366 669Q374 661 374 650Q374 639 366 631Q358 623 347 623Q336 623 328 631Q320 639 320 650Z" glyph-name="edieresis.smcp" horiz-adv-x="483" unicode="&#57904;" /><glyph d="M59 250Q59 306 68 352.5Q77 399 100.5 433.5Q124 468 164 487Q204 506 267 506Q329 506 366 486.5Q403 467 422 433Q441 399 446.5 352Q452 305 452 250V233H96Q97 192 104.5 155Q112 118 130.5 89.5Q149 61 182.5 44Q216 27 268 27Q327 27 367.5 46.5Q408 66 427 84L443 57Q423 35 377 14.5Q331 -6 269 -6Q206 -6 165.5 13Q125 32 101 66.5Q77 101 68 148Q59 195 59 250ZM267 473Q215 473 182 456Q149 439 130.5 410.5Q112 382 104.5 345Q97 308 96 267H415Q415 307 411.5 344Q408 381 393 409.5Q378 438 348.5 455.5Q319 473 267 473ZM240 650Q240 661 248 669Q256 677 267 677Q278 677 286 669Q294 661 294 650Q294 639 286 631Q278 623 267 623Q256 623 248 631Q240 639 240 650Z" glyph-name="edotaccent" horiz-adv-x="511" unicode="&#279;" /><glyph d="M389 240H110V34H427V0H71V500H427V466H110V274H389ZM225 650Q225 661 233 669Q241 677 252 677Q263 677 271 669Q279 661 279 650Q279 639 271 631Q263 623 252 623Q241 623 233 631Q225 639 225 650Z" glyph-name="edotaccent.smcp" horiz-adv-x="483" unicode="&#57926;" /><glyph d="M253 550 177 750H222L280 550ZM59 250Q59 306 68 352.5Q77 399 100.5 433.5Q124 468 164 487Q204 506 267 506Q329 506 366 486.5Q403 467 422 433Q441 399 446.5 352Q452 305 452 250V233H96Q97 192 104.5 155Q112 118 130.5 89.5Q149 61 182.5 44Q216 27 268 27Q327 27 367.5 46.5Q408 66 427 84L443 57Q423 35 377 14.5Q331 -6 269 -6Q206 -6 165.5 13Q125 32 101 66.5Q77 101 68 148Q59 195 59 250ZM267 473Q215 473 182 456Q149 439 130.5 410.5Q112 382 104.5 345Q97 308 96 267H415Q415 307 411.5 344Q408 381 393 409.5Q378 438 348.5 455.5Q319 473 267 473Z" glyph-name="egrave" horiz-adv-x="511" unicode="&#232;" /><glyph d="M389 240H110V34H427V0H71V500H427V466H110V274H389ZM238 550 162 750H207L265 550Z" glyph-name="egrave.smcp" horiz-adv-x="483" unicode="&#57918;" /><glyph d="M275 372Q175 372 129 331.5Q83 291 83 200Q83 165 93.5 134Q104 103 127 79.5Q150 56 186.5 42.5Q223 29 275 29Q327 29 363.5 42.5Q400 56 423 79.5Q446 103 456.5 134Q467 165 467 200Q467 291 421 331.5Q375 372 275 372ZM275 -6Q213 -6 169 11Q125 28 97.5 56.5Q70 85 57 123Q44 161 44 203Q44 284 83 332Q122 380 185 391Q161 398 140 413.5Q119 429 103 451.5Q87 474 78 502Q69 530 69 563Q69 601 79.5 636Q90 671 114 697.5Q138 724 177.5 740Q217 756 275 756Q334 756 373.5 740Q413 724 437 697.5Q461 671 471 636Q481 601 481 563Q481 530 472 502Q463 474 447 451.5Q431 429 410 413.5Q389 398 365 391Q428 380 467 332Q506 284 506 203Q506 161 493 123Q480 85 452.5 56.5Q425 28 381 11Q337 -6 275 -6ZM275 721Q184 721 146 679.5Q108 638 108 565Q108 493 148 450Q188 407 275 407Q362 407 402 450Q442 493 442 565Q442 638 404.5 679.5Q367 721 275 721Z" glyph-name="eight" horiz-adv-x="550" unicode="8" /><glyph d="M275 372Q175 372 129 331.5Q83 291 83 200Q83 165 93.5 134Q104 103 127 79.5Q150 56 186.5 42.5Q223 29 275 29Q327 29 363.5 42.5Q400 56 423 79.5Q446 103 456.5 134Q467 165 467 200Q467 291 421 331.5Q375 372 275 372ZM275 -6Q213 -6 169 11Q125 28 97.5 56.5Q70 85 57 123Q44 161 44 203Q44 284 83 332Q122 380 185 391Q161 398 140 413.5Q119 429 103 451.5Q87 474 78 502Q69 530 69 563Q69 601 79.5 636Q90 671 114 697.5Q138 724 177.5 740Q217 756 275 756Q334 756 373.5 740Q413 724 437 697.5Q461 671 471 636Q481 601 481 563Q481 530 472 502Q463 474 447 451.5Q431 429 410 413.5Q389 398 365 391Q428 380 467 332Q506 284 506 203Q506 161 493 123Q480 85 452.5 56.5Q425 28 381 11Q337 -6 275 -6ZM275 721Q184 721 146 679.5Q108 638 108 565Q108 493 148 450Q188 407 275 407Q362 407 402 450Q442 493 442 565Q442 638 404.5 679.5Q367 721 275 721Z" glyph-name="eight.LT" horiz-adv-x="550" unicode="&#58696;" /><glyph d="M275 372Q175 372 129 331.5Q83 291 83 200Q83 165 93.5 134Q104 103 127 79.5Q150 56 186.5 42.5Q223 29 275 29Q327 29 363.5 42.5Q400 56 423 79.5Q446 103 456.5 134Q467 165 467 200Q467 291 421 331.5Q375 372 275 372ZM275 -6Q213 -6 169 11Q125 28 97.5 56.5Q70 85 57 123Q44 161 44 203Q44 284 83 332Q122 380 185 391Q161 398 140 413.5Q119 429 103 451.5Q87 474 78 502Q69 530 69 563Q69 601 79.5 636Q90 671 114 697.5Q138 724 177.5 740Q217 756 275 756Q334 756 373.5 740Q413 724 437 697.5Q461 671 471 636Q481 601 481 563Q481 530 472 502Q463 474 447 451.5Q431 429 410 413.5Q389 398 365 391Q428 380 467 332Q506 284 506 203Q506 161 493 123Q480 85 452.5 56.5Q425 28 381 11Q337 -6 275 -6ZM275 721Q184 721 146 679.5Q108 638 108 565Q108 493 148 450Q188 407 275 407Q362 407 402 450Q442 493 442 565Q442 638 404.5 679.5Q367 721 275 721Z" glyph-name="eight.OP" horiz-adv-x="550" unicode="&#58707;" /><glyph d="M225 164Q310 164 344 137.5Q378 111 378 60Q378 -6 320 -25Q361 -37 378 -64.5Q395 -92 395 -133Q395 -159 387 -181.5Q379 -204 359.5 -220.5Q340 -237 307 -246Q274 -255 225 -255Q176 -255 143 -246Q110 -237 90.5 -220.5Q71 -204 63 -181.5Q55 -159 55 -133Q55 -92 72 -64.5Q89 -37 130 -25Q72 -6 72 60Q72 111 106 137.5Q140 164 225 164ZM225 -221Q300 -221 327.5 -196.5Q355 -172 355 -133Q355 -91 327.5 -67Q300 -43 225 -43Q150 -43 122.5 -67Q95 -91 95 -133Q95 -172 122.5 -196.5Q150 -221 225 -221ZM225 129Q158 129 134 112Q110 95 110 60Q110 24 134.5 6.5Q159 -11 225 -11Q291 -11 315.5 6.5Q340 24 340 60Q340 95 316 112Q292 129 225 129Z" glyph-name="eight.inf" horiz-adv-x="450" unicode="&#58745;" /><glyph d="M180 755V341H141V711L40 686V715L168 755ZM430 755V341H391V711L290 686V715L418 755ZM364 0 894 750H937L407 0ZM980 414V0H941V370L840 345V374L968 414ZM1304 380Q1268 380 1238 371Q1208 362 1187 339Q1166 316 1155 277.5Q1144 239 1146 180Q1163 212 1199 234Q1235 256 1294 256Q1339 256 1369.5 246.5Q1400 237 1418.5 220Q1437 203 1445 179.5Q1453 156 1453 128Q1453 100 1444.5 75.5Q1436 51 1416.5 33Q1397 15 1366 5Q1335 -5 1289 -5Q1247 -5 1213 6Q1179 17 1156 41.5Q1133 66 1120.5 105.5Q1108 145 1108 203Q1108 262 1121.5 302Q1135 342 1160.5 367Q1186 392 1222 403Q1258 414 1304 414Q1334 414 1357.5 409Q1381 404 1398.5 397Q1416 390 1427.5 382.5Q1439 375 1445 369L1428 340Q1416 350 1386.5 365Q1357 380 1304 380ZM1415 128Q1415 172 1387.5 196Q1360 220 1292 220Q1231 220 1196 192.5Q1161 165 1153 127Q1167 70 1201.5 49Q1236 28 1289 28Q1358 28 1386.5 55.5Q1415 83 1415 128Z" glyph-name="elevensixteenths" horiz-adv-x="1500" unicode="&#61984;" /><glyph d="M180 755V341H141V711L40 686V715L168 755ZM430 755V341H391V711L290 686V715L418 755ZM364 0 894 750H937L407 0ZM1014 -5Q957 -5 912 10.5Q867 26 849 41L866 71Q891 54 926.5 41.5Q962 29 1007 29Q1082 29 1117 51Q1152 73 1152 117Q1152 165 1122.5 185.5Q1093 206 1019 206H937V238H1014Q1080 238 1108.5 253.5Q1137 269 1137 310Q1137 379 1009 379Q962 379 927 365.5Q892 352 875 339L858 370Q866 376 880 383.5Q894 391 913.5 397.5Q933 404 957.5 409Q982 414 1009 414Q1174 414 1174 310Q1174 274 1158 254Q1142 234 1113 225Q1191 203 1191 117Q1191 61 1148 28Q1105 -5 1014 -5ZM1304 0V26Q1396 93 1451.5 133.5Q1507 174 1537 201.5Q1567 229 1577 248.5Q1587 268 1587 293Q1587 342 1555.5 361Q1524 380 1462 380Q1420 380 1381 366Q1342 352 1324 338L1308 367Q1328 381 1368 397.5Q1408 414 1462 414Q1551 414 1588 380.5Q1625 347 1625 292Q1625 264 1612.5 240.5Q1600 217 1570 189.5Q1540 162 1489 125.5Q1438 89 1361 34H1640V0Z" glyph-name="eleventhirtyseconds" horiz-adv-x="1700" /><glyph d="M123 23Q123 34 131 42Q139 50 150 50Q161 50 169 42Q177 34 177 23Q177 12 169 4Q161 -4 150 -4Q139 -4 131 4Q123 12 123 23ZM453 23Q453 34 461 42Q469 50 480 50Q491 50 499 42Q507 34 507 23Q507 12 499 4Q491 -4 480 -4Q469 -4 461 4Q453 12 453 23ZM783 23Q783 34 791 42Q799 50 810 50Q821 50 829 42Q837 34 837 23Q837 12 829 4Q821 -4 810 -4Q799 -4 791 4Q783 12 783 23Z" glyph-name="ellipsis" horiz-adv-x="960" unicode="&#8230;" /><glyph d="M130 667H404V633H130ZM59 250Q59 306 68 352.5Q77 399 100.5 433.5Q124 468 164 487Q204 506 267 506Q329 506 366 486.5Q403 467 422 433Q441 399 446.5 352Q452 305 452 250V233H96Q97 192 104.5 155Q112 118 130.5 89.5Q149 61 182.5 44Q216 27 268 27Q327 27 367.5 46.5Q408 66 427 84L443 57Q423 35 377 14.5Q331 -6 269 -6Q206 -6 165.5 13Q125 32 101 66.5Q77 101 68 148Q59 195 59 250ZM267 473Q215 473 182 456Q149 439 130.5 410.5Q112 382 104.5 345Q97 308 96 267H415Q415 307 411.5 344Q408 381 393 409.5Q378 438 348.5 455.5Q319 473 267 473Z" glyph-name="emacron" horiz-adv-x="511" unicode="&#275;" /><glyph d="M389 240H110V34H427V0H71V500H427V466H110V274H389ZM115 667H389V633H115Z" glyph-name="emacron.smcp" horiz-adv-x="483" unicode="&#57922;" /><glyph d="M947 315H53V351H947Z" glyph-name="emdash" horiz-adv-x="1000" unicode="&#8212;" /><glyph d="M947 357H53V393H947Z" glyph-name="emdash.cap" horiz-adv-x="1000" unicode="&#58502;" /><glyph d="M947 232H53V268H947Z" glyph-name="emdash.smcp" horiz-adv-x="1000" unicode="&#60324;" /><glyph glyph-name="emspace" horiz-adv-x="1000" unicode="&#8195;" /><glyph d="M447 315H53V351H447Z" glyph-name="endash" horiz-adv-x="500" unicode="&#8211;" /><glyph d="M447 357H53V393H447Z" glyph-name="endash.cap" horiz-adv-x="500" unicode="&#58500;" /><glyph d="M447 232H53V268H447Z" glyph-name="endash.smcp" horiz-adv-x="500" unicode="&#60323;" /><glyph d="M269 -221Q297 -221 321.5 -215.5Q346 -210 364 -198Q382 -186 392.5 -166.5Q403 -147 403 -118V367Q403 431 369.5 452Q336 473 276 473Q224 473 182 463.5Q140 454 107 434V0H69V500H88L102 461Q136 483 185 494.5Q234 506 276 506Q364 506 402.5 472.5Q441 439 441 364V-116Q441 -254 274 -256Z" glyph-name="eng" horiz-adv-x="505" unicode="&#331;" /><glyph d="M291 -221Q319 -221 343.5 -215.5Q368 -210 386 -198Q404 -186 414.5 -166.5Q425 -147 425 -118V16L109 422L111 0H71V500H95L424 79L423 500H463V-116Q463 -254 296 -256Z" glyph-name="eng.smcp" horiz-adv-x="534" unicode="&#58155;" /><glyph glyph-name="enspace" horiz-adv-x="500" unicode="&#8194;" /><glyph d="M59 250Q59 306 68 352.5Q77 399 100.5 433.5Q124 468 164 487Q204 506 267 506Q329 506 366 486.5Q403 467 422 433Q441 399 446.5 352Q452 305 452 250V233H96Q97 192 104.5 155Q112 118 130.5 89.5Q149 61 182.5 44Q216 27 268 27Q327 27 367.5 46.5Q408 66 427 84L443 57Q428 40 398 24Q368 8 328 0Q313 -6 292.5 -19.5Q272 -33 253 -51.5Q234 -70 220.5 -94.5Q207 -119 207 -148Q207 -185 226.5 -202Q246 -219 276 -219Q304 -219 321 -211.5Q338 -204 348 -196L363 -221Q352 -230 328.5 -240Q305 -250 273 -250Q230 -250 202.5 -226.5Q175 -203 175 -154Q175 -104 202.5 -68Q230 -32 268 -6Q205 -6 164.5 13.5Q124 33 100.5 67Q77 101 68 148Q59 195 59 250ZM267 473Q215 473 182 456Q149 439 130.5 410.5Q112 382 104.5 345Q97 308 96 267H415Q415 307 411.5 344Q408 381 393 409.5Q378 438 348.5 455.5Q319 473 267 473Z" glyph-name="eogonek" horiz-adv-x="511" unicode="&#281;" /><glyph d="M375 -219Q403 -219 420 -211.5Q437 -204 447 -196L462 -221Q451 -230 427.5 -240Q404 -250 372 -250Q329 -250 301.5 -226.5Q274 -203 274 -154Q274 -101 304 -63.5Q334 -26 376 0H71V500H427V466H110V274H389V240H110V34H427V0Q412 -6 391.5 -19.5Q371 -33 352 -51.5Q333 -70 319.5 -94.5Q306 -119 306 -148Q306 -185 325.5 -202Q345 -219 375 -219Z" glyph-name="eogonek.smcp" horiz-adv-x="483" unicode="&#57929;" /><glyph d="M486 427H93V463H486ZM486 287H93V323H486Z" glyph-name="equal" horiz-adv-x="579" unicode="=" /><glyph d="M825 493V457H75V493ZM825 293V257H75V293Z" glyph-name="equal.cap" horiz-adv-x="900" unicode="&#58773;" /><glyph d="M56 -92H348V-128H56ZM56 38H348V2H56Z" glyph-name="equal.inf" horiz-adv-x="404" unicode="&#58749;" /><glyph d="M486 497H93V533H486ZM486 357H93V393H486ZM486 217H93V253H486Z" glyph-name="equivalence" horiz-adv-x="579" unicode="&#8801;" /><glyph d="M825 593V557H75V593ZM825 393V357H75V393ZM825 193V157H75V193Z" glyph-name="equivalence.cap" horiz-adv-x="900" unicode="&#62000;" /><glyph d="M396 756Q487 756 553 727.5Q619 699 661.5 648.5Q704 598 724.5 528Q745 458 745 375V357H155V134Q233 30 396 30Q497 30 566 70Q635 110 670 188H712Q677 98 599 46Q521 -6 396 -6Q306 -6 240 22.5Q174 51 131.5 101.5Q89 152 68 222Q47 292 47 375Q47 458 68 528Q89 598 131.5 648.5Q174 699 240 727.5Q306 756 396 756ZM396 720Q233 720 155 616V393H638V616Q557 720 396 720Z" glyph-name="estimated" horiz-adv-x="792" unicode="&#8494;" /><glyph d="M402 715 303 665Q331 637 358.5 599Q386 561 408 512Q430 463 444.5 402Q459 341 461 266V250Q461 195 453 148Q445 101 422 66.5Q399 32 358 13Q317 -6 252 -6Q187 -6 146 13Q105 32 82 66.5Q59 101 51 148Q43 195 43 250Q43 306 51 352.5Q59 399 82 433.5Q105 468 146 487Q187 506 252 506Q301 506 335 492Q369 478 393 455Q374 514 341.5 562Q309 610 270 648L112 567V602L245 670Q216 696 185 716Q154 736 125 750H192Q209 740 231.5 724.5Q254 709 280 687L402 750ZM422 250Q422 296 416.5 336.5Q411 377 393.5 407Q376 437 342.5 454.5Q309 472 252 472Q195 472 161.5 454.5Q128 437 110 407Q92 377 87 336.5Q82 296 82 250Q82 204 87 163.5Q92 123 110 93Q128 63 161.5 45.5Q195 28 252 28Q309 28 342.5 45.5Q376 63 393.5 93Q411 123 416.5 163.5Q422 204 422 250Z" glyph-name="eth" horiz-adv-x="504" unicode="&#240;" /><glyph d="M107 267V500H277Q342 500 386.5 482.5Q431 465 458.5 433Q486 401 498.5 354.5Q511 308 511 250Q511 192 498.5 145.5Q486 99 458.5 67Q431 35 386.5 17.5Q342 0 277 0H107V233H17V267ZM283 34Q336 34 371.5 49.5Q407 65 428.5 93Q450 121 459.5 161Q469 201 469 250Q469 299 459.5 339Q450 379 428.5 407Q407 435 371.5 450.5Q336 466 283 466H146V267H275V233H146V34Z" glyph-name="eth.smcp" horiz-adv-x="567" unicode="&#58156;" /><glyph d="M84 210 67 750H123L106 210ZM68 23Q68 34 76 42Q84 50 95 50Q106 50 114 42Q122 34 122 23Q122 12 114 4Q106 -4 95 -4Q84 -4 76 4Q68 12 68 23Z" glyph-name="exclam" horiz-adv-x="190" unicode="!" /><glyph d="M84 160 71 500H119L106 160ZM68 23Q68 34 76 42Q84 50 95 50Q106 50 114 42Q122 34 122 23Q122 12 114 4Q106 -4 95 -4Q84 -4 76 4Q68 12 68 23Z" glyph-name="exclam.smcp" horiz-adv-x="190" unicode="&#58434;" /><glyph d="M106 290 123 -250H67L84 290ZM122 477Q122 466 114 458Q106 450 95 450Q84 450 76 458Q68 466 68 477Q68 488 76 496Q84 504 95 504Q106 504 114 496Q122 488 122 477Z" glyph-name="exclamdown" horiz-adv-x="190" unicode="&#161;" /><glyph d="M106 540 123 0H67L84 540ZM122 727Q122 716 114 708Q106 700 95 700Q84 700 76 708Q68 716 68 727Q68 738 76 746Q84 754 95 754Q106 754 114 746Q122 738 122 727Z" glyph-name="exclamdown.cap" horiz-adv-x="190" unicode="&#58433;" /><glyph d="M106 340 119 0H71L84 340ZM68 477Q68 488 76 496Q84 504 95 504Q106 504 114 496Q122 488 122 477Q122 466 114 458Q106 450 95 450Q84 450 76 458Q68 466 68 477Z" glyph-name="exclamdown.smcp" horiz-adv-x="190" unicode="&#58435;" /><glyph d="M355 683Q347 693 326.5 708Q306 723 267 723Q246 723 226 717.5Q206 712 191 699Q176 686 167 664.5Q158 643 158 611V500H325V466H158V0H120V466H24V493L120 500V613Q120 682 158 719Q196 756 264 756Q288 756 306.5 751Q325 746 338 739Q351 732 359.5 724.5Q368 717 372 712Z" glyph-name="f" horiz-adv-x="371" unicode="f" /><glyph d="M379 240H110V0H71V500H417V466H110V274H379Z" glyph-name="f.smcp" horiz-adv-x="463" unicode="&#57862;" /><glyph d="M355 683Q347 693 326.5 708Q306 723 267 723Q246 723 226 717.5Q206 712 191 699Q176 686 167 664.5Q158 643 158 611V500H325V466H158V0H120V466H24V493L120 500V613Q120 682 158 719Q196 756 264 756Q288 756 306.5 751Q325 746 338 739Q351 732 359.5 724.5Q368 717 372 712ZM456 0V500H494V0Z" glyph-name="f_dotlessi" horiz-adv-x="579" unicode="&#59248;" /><glyph d="M355 683Q347 693 326.5 708Q306 723 267 723Q246 723 226 717.5Q206 712 191 699Q176 686 167 664.5Q158 643 158 611V500H325V466H158V0H120V466H24V493L120 500V613Q120 682 158 719Q196 756 264 756Q288 756 306.5 751Q325 746 338 739Q351 732 359.5 724.5Q368 717 372 712ZM209 850Q209 861 217 869Q225 877 236 877Q247 877 255 869Q263 861 263 850Q263 839 255 831Q247 823 236 823Q225 823 217 831Q209 839 209 850Z" glyph-name="fdotaccent" horiz-adv-x="371" unicode="&#7711;" /><glyph d="M379 240H110V0H71V500H417V466H110V274H379ZM223 650Q223 661 231 669Q239 677 250 677Q261 677 269 669Q277 661 277 650Q277 639 269 631Q261 623 250 623Q239 623 231 631Q223 639 223 650Z" glyph-name="fdotaccent.smcp" horiz-adv-x="463" /><glyph d="M355 683Q347 693 326.5 708Q306 723 267 723Q246 723 226 717.5Q206 712 191 699Q176 686 167 664.5Q158 643 158 611V500H325V466H158V0H120V466H24V493L120 500V613Q120 682 158 719Q196 756 264 756Q288 756 306.5 751Q325 746 338 739Q351 732 359.5 724.5Q368 717 372 712ZM456 0V500H494V0ZM448 650Q448 661 456 669Q464 677 475 677Q486 677 494 669Q502 661 502 650Q502 639 494 631Q486 623 475 623Q464 623 456 631Q448 639 448 650Z" glyph-name="fi" horiz-adv-x="579" unicode="&#64257;" /><glyph d="M180 755V341H141V711L40 686V715L168 755ZM460 336Q405 336 360.5 351.5Q316 367 298 382L315 412Q340 395 376 382.5Q412 370 458 370Q534 370 567.5 393Q601 416 601 461Q601 510 569.5 528.5Q538 547 462 547H332V750H633V716H370V579Q379 579 406 580Q433 581 457 581Q510 581 545 574Q580 567 601 552.5Q622 538 631 515.5Q640 493 640 462Q640 404 599 370Q558 336 460 336ZM564 0 1094 750H1137L607 0ZM1180 414V0H1141V370L1040 345V374L1168 414ZM1504 380Q1468 380 1438 371Q1408 362 1387 339Q1366 316 1355 277.5Q1344 239 1346 180Q1363 212 1399 234Q1435 256 1494 256Q1539 256 1569.5 246.5Q1600 237 1618.5 220Q1637 203 1645 179.5Q1653 156 1653 128Q1653 100 1644.5 75.5Q1636 51 1616.5 33Q1597 15 1566 5Q1535 -5 1489 -5Q1447 -5 1413 6Q1379 17 1356 41.5Q1333 66 1320.5 105.5Q1308 145 1308 203Q1308 262 1321.5 302Q1335 342 1360.5 367Q1386 392 1422 403Q1458 414 1504 414Q1534 414 1557.5 409Q1581 404 1598.5 397Q1616 390 1627.5 382.5Q1639 375 1645 369L1628 340Q1616 350 1586.5 365Q1557 380 1504 380ZM1615 128Q1615 172 1587.5 196Q1560 220 1492 220Q1431 220 1396 192.5Q1361 165 1353 127Q1367 70 1401.5 49Q1436 28 1489 28Q1558 28 1586.5 55.5Q1615 83 1615 128Z" glyph-name="fifteensixteenths" horiz-adv-x="1700" unicode="&#61986;" /><glyph d="M180 755V341H141V711L40 686V715L168 755ZM460 336Q405 336 360.5 351.5Q316 367 298 382L315 412Q340 395 376 382.5Q412 370 458 370Q534 370 567.5 393Q601 416 601 461Q601 510 569.5 528.5Q538 547 462 547H332V750H633V716H370V579Q379 579 406 580Q433 581 457 581Q510 581 545 574Q580 567 601 552.5Q622 538 631 515.5Q640 493 640 462Q640 404 599 370Q558 336 460 336ZM564 0 1094 750H1137L607 0ZM1214 -5Q1157 -5 1112 10.5Q1067 26 1049 41L1066 71Q1091 54 1126.5 41.5Q1162 29 1207 29Q1282 29 1317 51Q1352 73 1352 117Q1352 165 1322.5 185.5Q1293 206 1219 206H1137V238H1214Q1280 238 1308.5 253.5Q1337 269 1337 310Q1337 379 1209 379Q1162 379 1127 365.5Q1092 352 1075 339L1058 370Q1066 376 1080 383.5Q1094 391 1113.5 397.5Q1133 404 1157.5 409Q1182 414 1209 414Q1374 414 1374 310Q1374 274 1358 254Q1342 234 1313 225Q1391 203 1391 117Q1391 61 1348 28Q1305 -5 1214 -5ZM1504 0V26Q1596 93 1651.5 133.5Q1707 174 1737 201.5Q1767 229 1777 248.5Q1787 268 1787 293Q1787 342 1755.5 361Q1724 380 1662 380Q1620 380 1581 366Q1542 352 1524 338L1508 367Q1528 381 1568 397.5Q1608 414 1662 414Q1751 414 1788 380.5Q1825 347 1825 292Q1825 264 1812.5 240.5Q1800 217 1770 189.5Q1740 162 1689 125.5Q1638 89 1561 34H1840V0Z" glyph-name="fifteenthirtyseconds" horiz-adv-x="1900" /><glyph d="M523 315H53V351H523Z" glyph-name="figuredash" horiz-adv-x="576" unicode="&#8210;" /><glyph d="M517 357H53V393H517Z" glyph-name="figuredash.cap" horiz-adv-x="570" unicode="&#58503;" /><glyph d="M523 232H53V268H523Z" glyph-name="figuredash.smcp" horiz-adv-x="576" unicode="&#60325;" /><glyph glyph-name="figurespace" horiz-adv-x="594" unicode="&#8199;" /><glyph d="M244 29Q279 29 313.5 36.5Q348 44 376 64.5Q404 85 421 121Q438 157 438 214Q438 271 422 307Q406 343 379 363.5Q352 384 315.5 391.5Q279 399 238 399H113V750H446V715H152V431Q166 433 197 433.5Q228 434 256 434Q293 434 332 424Q371 414 403.5 389Q436 364 456.5 321.5Q477 279 477 214Q477 149 455.5 106.5Q434 64 399.5 39Q365 14 323 4Q281 -6 240 -6Q176 -6 134.5 10.5Q93 27 66 47L84 78Q108 59 149 44Q190 29 244 29Z" glyph-name="five" horiz-adv-x="550" unicode="5" /><glyph d="M244 29Q279 29 313.5 36.5Q348 44 376 64.5Q404 85 421 121Q438 157 438 214Q438 271 422 307Q406 343 379 363.5Q352 384 315.5 391.5Q279 399 238 399H113V750H446V715H152V431Q166 433 197 433.5Q228 434 256 434Q293 434 332 424Q371 414 403.5 389Q436 364 456.5 321.5Q477 279 477 214Q477 149 455.5 106.5Q434 64 399.5 39Q365 14 323 4Q281 -6 240 -6Q176 -6 134.5 10.5Q93 27 66 47L84 78Q108 59 149 44Q190 29 244 29Z" glyph-name="five.LT" horiz-adv-x="550" unicode="&#58693;" /><glyph d="M244 -221Q279 -221 313.5 -213.5Q348 -206 376 -185.5Q404 -165 421 -129Q438 -93 438 -36Q438 21 422 57Q406 93 379 113.5Q352 134 315.5 141.5Q279 149 238 149H113V500H446V465H152V181Q166 183 197 183.5Q228 184 256 184Q293 184 332 174Q371 164 403.5 139Q436 114 456.5 71.5Q477 29 477 -36Q477 -101 455.5 -143.5Q434 -186 399.5 -211Q365 -236 323 -246Q281 -256 240 -256Q176 -256 134.5 -239.5Q93 -223 66 -203L84 -172Q108 -191 149 -206Q190 -221 244 -221Z" glyph-name="five.OP" horiz-adv-x="550" unicode="&#58688;" /><glyph d="M210 -255Q155 -255 110.5 -239.5Q66 -224 48 -209L65 -179Q90 -196 126 -208.5Q162 -221 208 -221Q284 -221 317.5 -198Q351 -175 351 -130Q351 -81 319.5 -62.5Q288 -44 212 -44H82V159H383V125H120V-12Q129 -12 156 -11Q183 -10 207 -10Q260 -10 295 -17Q330 -24 351 -38.5Q372 -53 381 -75.5Q390 -98 390 -129Q390 -187 349 -221Q308 -255 210 -255Z" glyph-name="five.inf" horiz-adv-x="450" unicode="&#58742;" /><glyph d="M210 336Q155 336 110.5 351.5Q66 367 48 382L65 412Q90 395 126 382.5Q162 370 208 370Q284 370 317.5 393Q351 416 351 461Q351 510 319.5 528.5Q288 547 212 547H82V750H383V716H120V579Q129 579 156 580Q183 581 207 581Q260 581 295 574Q330 567 351 552.5Q372 538 381 515.5Q390 493 390 462Q390 404 349 370Q308 336 210 336ZM314 0 844 750H887L357 0ZM930 414V0H891V370L790 345V374L918 414ZM1254 380Q1218 380 1188 371Q1158 362 1137 339Q1116 316 1105 277.5Q1094 239 1096 180Q1113 212 1149 234Q1185 256 1244 256Q1289 256 1319.5 246.5Q1350 237 1368.5 220Q1387 203 1395 179.5Q1403 156 1403 128Q1403 100 1394.5 75.5Q1386 51 1366.5 33Q1347 15 1316 5Q1285 -5 1239 -5Q1197 -5 1163 6Q1129 17 1106 41.5Q1083 66 1070.5 105.5Q1058 145 1058 203Q1058 262 1071.5 302Q1085 342 1110.5 367Q1136 392 1172 403Q1208 414 1254 414Q1284 414 1307.5 409Q1331 404 1348.5 397Q1366 390 1377.5 382.5Q1389 375 1395 369L1378 340Q1366 350 1336.5 365Q1307 380 1254 380ZM1365 128Q1365 172 1337.5 196Q1310 220 1242 220Q1181 220 1146 192.5Q1111 165 1103 127Q1117 70 1151.5 49Q1186 28 1239 28Q1308 28 1336.5 55.5Q1365 83 1365 128Z" glyph-name="fivesixteenths" horiz-adv-x="1450" unicode="&#61975;" /><glyph d="M210 336Q155 336 110.5 351.5Q66 367 48 382L65 412Q90 395 126 382.5Q162 370 208 370Q284 370 317.5 393Q351 416 351 461Q351 510 319.5 528.5Q288 547 212 547H82V750H383V716H120V579Q129 579 156 580Q183 581 207 581Q260 581 295 574Q330 567 351 552.5Q372 538 381 515.5Q390 493 390 462Q390 404 349 370Q308 336 210 336ZM314 0 844 750H887L357 0ZM964 -5Q907 -5 862 10.5Q817 26 799 41L816 71Q841 54 876.5 41.5Q912 29 957 29Q1032 29 1067 51Q1102 73 1102 117Q1102 165 1072.5 185.5Q1043 206 969 206H887V238H964Q1030 238 1058.5 253.5Q1087 269 1087 310Q1087 379 959 379Q912 379 877 365.5Q842 352 825 339L808 370Q816 376 830 383.5Q844 391 863.5 397.5Q883 404 907.5 409Q932 414 959 414Q1124 414 1124 310Q1124 274 1108 254Q1092 234 1063 225Q1141 203 1141 117Q1141 61 1098 28Q1055 -5 964 -5ZM1254 0V26Q1346 93 1401.5 133.5Q1457 174 1487 201.5Q1517 229 1527 248.5Q1537 268 1537 293Q1537 342 1505.5 361Q1474 380 1412 380Q1370 380 1331 366Q1292 352 1274 338L1258 367Q1278 381 1318 397.5Q1358 414 1412 414Q1501 414 1538 380.5Q1575 347 1575 292Q1575 264 1562.5 240.5Q1550 217 1520 189.5Q1490 162 1439 125.5Q1388 89 1311 34H1590V0Z" glyph-name="fivethirtyseconds" horiz-adv-x="1650" /><glyph d="M355 683Q347 693 326.5 708Q306 723 267 723Q246 723 226 717.5Q206 712 191 699Q176 686 167 664.5Q158 643 158 611V500H325V466H158V0H120V466H24V493L120 500V613Q120 682 158 719Q196 756 264 756Q288 756 306.5 751Q325 746 338 739Q351 732 359.5 724.5Q368 717 372 712ZM456 0V750H494V0Z" glyph-name="fl" horiz-adv-x="579" unicode="&#64258;" /><glyph d="M524 677Q517 683 506 691.5Q495 700 477.5 707.5Q460 715 435.5 720Q411 725 378 725Q303 725 260 689.5Q217 654 217 574V412H505V377H217V0H179V377H63V412H179V574Q179 659 226 708Q273 757 378 757Q414 757 441 751.5Q468 746 487.5 738Q507 730 520.5 721.5Q534 713 542 706Z" glyph-name="florin" horiz-adv-x="600" unicode="&#402;" /><glyph d="M433 437Q418 448 387.5 460Q357 472 301 472Q235 472 198.5 441Q162 410 162 347V269H411V234H162V-250H124V234H28V269H124V347Q124 420 166 463Q208 506 301 506Q361 506 397 492.5Q433 479 448 468Z" glyph-name="florin.OP" horiz-adv-x="500" unicode="&#59809;" /><glyph d="M356 0V234H39V257L369 756H395V269H511V234H395V0ZM358 681 83 267 356 269Z" glyph-name="four" horiz-adv-x="550" unicode="4" /><glyph d="M356 0V234H39V257L369 756H395V269H511V234H395V0ZM358 681 83 267 356 269Z" glyph-name="four.LT" horiz-adv-x="550" unicode="&#58692;" /><glyph d="M356 -250V-16H39V7L369 506H395V19H511V-16H395V-250ZM358 431 83 17 356 19Z" glyph-name="four.OP" horiz-adv-x="550" unicode="&#58703;" /><glyph d="M313 -250H277V-126H45V-103L288 164H313V-93H405V-126H313ZM277 -93V103L99 -93Z" glyph-name="four.inf" horiz-adv-x="450" unicode="&#58741;" /><glyph glyph-name="fourperemspace" horiz-adv-x="250" unicode="&#8197;" /><glyph d="M-136 0 394 750H437L-93 0Z" glyph-name="fraction" horiz-adv-x="300" unicode="&#8260;" /><glyph d="M58 290V325H139V429H58V464H139V750H541V714H179V464H457V429H179V325H457V290H179V0H139V290Z" glyph-name="franc" horiz-adv-x="600" unicode="&#8355;" /><glyph d="M240 148Q191 148 156 160Q141 151 131.5 138Q122 125 122 106Q122 81 138.5 72.5Q155 64 173 62L378 35Q445 26 473.5 -5Q502 -36 502 -93Q502 -137 480 -167.5Q458 -198 421.5 -218Q385 -238 337.5 -247Q290 -256 239 -256Q187 -256 145 -248.5Q103 -241 73.5 -224.5Q44 -208 28.5 -180.5Q13 -153 13 -112Q13 -82 24 -58Q35 -34 53.5 -15.5Q72 3 95.5 16Q119 29 143 36V37Q86 49 86 103Q86 127 98.5 143.5Q111 160 128 171Q88 194 72 233.5Q56 273 56 327Q56 367 65 400Q74 433 95 456.5Q116 480 151.5 493Q187 506 240 506Q258 506 273.5 504Q289 502 303 500H474V471H368Q399 448 411.5 411.5Q424 375 424 327Q424 287 415 254Q406 221 385 197.5Q364 174 328.5 161Q293 148 240 148ZM192 28Q169 22 144 11Q119 0 98 -17Q77 -34 63 -57.5Q49 -81 49 -112Q49 -177 98 -200.5Q147 -224 239 -224Q283 -224 323.5 -217Q364 -210 395.5 -194.5Q427 -179 446 -154Q465 -129 465 -93Q465 -48 445 -26Q425 -4 371 4ZM240 180Q288 180 317.5 192Q347 204 363 224.5Q379 245 384.5 271.5Q390 298 390 327Q390 356 384.5 382.5Q379 409 363 429.5Q347 450 317.5 462Q288 474 240 474Q192 474 162.5 462Q133 450 117.5 429.5Q102 409 96.5 382.5Q91 356 91 327Q91 298 96.5 271.5Q102 245 117.5 224.5Q133 204 162.5 192Q192 180 240 180Z" glyph-name="g" horiz-adv-x="510" unicode="g" /><glyph d="M266 -6Q204 -6 164 14Q124 34 100.5 68.5Q77 103 68 149.5Q59 196 59 250Q59 304 68 351Q77 398 100.5 432.5Q124 467 164 486.5Q204 506 266 506Q308 506 355.5 494.5Q403 483 437 460L451 500H469V-64Q469 -164 417 -210Q365 -256 256 -256Q182 -256 138.5 -236.5Q95 -217 73 -197L90 -168Q101 -177 115.5 -186.5Q130 -196 149.5 -204Q169 -212 195 -217.5Q221 -223 256 -223Q307 -223 340.5 -211.5Q374 -200 394 -179.5Q414 -159 422.5 -130Q431 -101 431 -65V36Q396 15 351.5 4.5Q307 -6 266 -6ZM266 28Q317 28 357.5 38Q398 48 431 68V432Q398 452 357.5 462Q317 472 266 472Q212 472 179 453Q146 434 128 402.5Q110 371 104 331Q98 291 98 250Q98 209 104 169Q110 129 128 97.5Q146 66 179 47Q212 28 266 28Z" glyph-name="g.school" horiz-adv-x="538" unicode="&#57697;" /><glyph d="M289 31Q327 31 366.5 38.5Q406 46 426 58V210H290V244H465V39Q435 17 387.5 5.5Q340 -6 289 -6Q226 -6 182 14Q138 34 110 68.5Q82 103 69 149.5Q56 196 56 250Q56 304 69 351Q82 398 111 432.5Q140 467 185.5 486.5Q231 506 295 506Q365 506 406 485Q447 464 466 444L448 413Q441 421 428.5 430.5Q416 440 397 448.5Q378 457 353 463Q328 469 295 469Q239 469 201 450.5Q163 432 140.5 401.5Q118 371 108.5 331.5Q99 292 99 250Q99 208 108.5 168.5Q118 129 140 98.5Q162 68 198.5 49.5Q235 31 289 31Z" glyph-name="g.smcp" horiz-adv-x="536" unicode="&#57863;" /><glyph d="M240 550Q66 550 65 750H93Q95 669 128.5 626.5Q162 584 240 584Q319 584 352.5 626.5Q386 669 388 750H415Q415 550 240 550ZM240 148Q191 148 156 160Q141 151 131.5 138Q122 125 122 106Q122 81 138.5 72.5Q155 64 173 62L378 35Q445 26 473.5 -5Q502 -36 502 -93Q502 -137 480 -167.5Q458 -198 421.5 -218Q385 -238 337.5 -247Q290 -256 239 -256Q187 -256 145 -248.5Q103 -241 73.5 -224.5Q44 -208 28.5 -180.5Q13 -153 13 -112Q13 -82 24 -58Q35 -34 53.5 -15.5Q72 3 95.5 16Q119 29 143 36V37Q86 49 86 103Q86 127 98.5 143.5Q111 160 128 171Q88 194 72 233.5Q56 273 56 327Q56 367 65 400Q74 433 95 456.5Q116 480 151.5 493Q187 506 240 506Q258 506 273.5 504Q289 502 303 500H474V471H368Q399 448 411.5 411.5Q424 375 424 327Q424 287 415 254Q406 221 385 197.5Q364 174 328.5 161Q293 148 240 148ZM192 28Q169 22 144 11Q119 0 98 -17Q77 -34 63 -57.5Q49 -81 49 -112Q49 -177 98 -200.5Q147 -224 239 -224Q283 -224 323.5 -217Q364 -210 395.5 -194.5Q427 -179 446 -154Q465 -129 465 -93Q465 -48 445 -26Q425 -4 371 4ZM240 180Q288 180 317.5 192Q347 204 363 224.5Q379 245 384.5 271.5Q390 298 390 327Q390 356 384.5 382.5Q379 409 363 429.5Q347 450 317.5 462Q288 474 240 474Q192 474 162.5 462Q133 450 117.5 429.5Q102 409 96.5 382.5Q91 356 91 327Q91 298 96.5 271.5Q102 245 117.5 224.5Q133 204 162.5 192Q192 180 240 180Z" glyph-name="gbreve" horiz-adv-x="518" unicode="&#287;" /><glyph d="M266 550Q91 550 91 750H118Q120 669 153.5 626.5Q187 584 266 584Q344 584 377.5 626.5Q411 669 413 750H441Q440 550 266 550ZM266 -6Q204 -6 164 14Q124 34 100.5 68.5Q77 103 68 149.5Q59 196 59 250Q59 304 68 351Q77 398 100.5 432.5Q124 467 164 486.5Q204 506 266 506Q308 506 355.5 494.5Q403 483 437 460L451 500H469V-64Q469 -164 417 -210Q365 -256 256 -256Q182 -256 138.5 -236.5Q95 -217 73 -197L90 -168Q101 -177 115.5 -186.5Q130 -196 149.5 -204Q169 -212 195 -217.5Q221 -223 256 -223Q307 -223 340.5 -211.5Q374 -200 394 -179.5Q414 -159 422.5 -130Q431 -101 431 -65V36Q396 15 351.5 4.5Q307 -6 266 -6ZM266 28Q317 28 357.5 38Q398 48 431 68V432Q398 452 357.5 462Q317 472 266 472Q212 472 179 453Q146 434 128 402.5Q110 371 104 331Q98 291 98 250Q98 209 104 169Q110 129 128 97.5Q146 66 179 47Q212 28 266 28Z" glyph-name="gbreve.school" horiz-adv-x="538" unicode="&#57702;" /><glyph d="M288 550Q114 550 113 750H140Q143 669 176 626.5Q209 584 288 584Q367 584 400 626.5Q433 669 436 750H463Q462 550 288 550ZM289 31Q327 31 366.5 38.5Q406 46 426 58V210H290V244H465V39Q435 17 387.5 5.5Q340 -6 289 -6Q226 -6 182 14Q138 34 110 68.5Q82 103 69 149.5Q56 196 56 250Q56 304 69 351Q82 398 111 432.5Q140 467 185.5 486.5Q231 506 295 506Q365 506 406 485Q447 464 466 444L448 413Q441 421 428.5 430.5Q416 440 397 448.5Q378 457 353 463Q328 469 295 469Q239 469 201 450.5Q163 432 140.5 401.5Q118 371 108.5 331.5Q99 292 99 250Q99 208 108.5 168.5Q118 129 140 98.5Q162 68 198.5 49.5Q235 31 289 31Z" glyph-name="gbreve.smcp" horiz-adv-x="536" unicode="&#57934;" /><glyph d="M379 550 240 712 102 550H71L216 750H265L410 550ZM240 148Q191 148 156 160Q141 151 131.5 138Q122 125 122 106Q122 81 138.5 72.5Q155 64 173 62L378 35Q445 26 473.5 -5Q502 -36 502 -93Q502 -137 480 -167.5Q458 -198 421.5 -218Q385 -238 337.5 -247Q290 -256 239 -256Q187 -256 145 -248.5Q103 -241 73.5 -224.5Q44 -208 28.5 -180.5Q13 -153 13 -112Q13 -82 24 -58Q35 -34 53.5 -15.5Q72 3 95.5 16Q119 29 143 36V37Q86 49 86 103Q86 127 98.5 143.5Q111 160 128 171Q88 194 72 233.5Q56 273 56 327Q56 367 65 400Q74 433 95 456.5Q116 480 151.5 493Q187 506 240 506Q258 506 273.5 504Q289 502 303 500H474V471H368Q399 448 411.5 411.5Q424 375 424 327Q424 287 415 254Q406 221 385 197.5Q364 174 328.5 161Q293 148 240 148ZM192 28Q169 22 144 11Q119 0 98 -17Q77 -34 63 -57.5Q49 -81 49 -112Q49 -177 98 -200.5Q147 -224 239 -224Q283 -224 323.5 -217Q364 -210 395.5 -194.5Q427 -179 446 -154Q465 -129 465 -93Q465 -48 445 -26Q425 -4 371 4ZM240 180Q288 180 317.5 192Q347 204 363 224.5Q379 245 384.5 271.5Q390 298 390 327Q390 356 384.5 382.5Q379 409 363 429.5Q347 450 317.5 462Q288 474 240 474Q192 474 162.5 462Q133 450 117.5 429.5Q102 409 96.5 382.5Q91 356 91 327Q91 298 96.5 271.5Q102 245 117.5 224.5Q133 204 162.5 192Q192 180 240 180Z" glyph-name="gcircumflex" horiz-adv-x="518" unicode="&#285;" /><glyph d="M404 550 266 712 127 550H96L245 750H286L435 550ZM266 -6Q204 -6 164 14Q124 34 100.5 68.5Q77 103 68 149.5Q59 196 59 250Q59 304 68 351Q77 398 100.5 432.5Q124 467 164 486.5Q204 506 266 506Q308 506 355.5 494.5Q403 483 437 460L451 500H469V-64Q469 -164 417 -210Q365 -256 256 -256Q182 -256 138.5 -236.5Q95 -217 73 -197L90 -168Q101 -177 115.5 -186.5Q130 -196 149.5 -204Q169 -212 195 -217.5Q221 -223 256 -223Q307 -223 340.5 -211.5Q374 -200 394 -179.5Q414 -159 422.5 -130Q431 -101 431 -65V36Q396 15 351.5 4.5Q307 -6 266 -6ZM266 28Q317 28 357.5 38Q398 48 431 68V432Q398 452 357.5 462Q317 472 266 472Q212 472 179 453Q146 434 128 402.5Q110 371 104 331Q98 291 98 250Q98 209 104 169Q110 129 128 97.5Q146 66 179 47Q212 28 266 28Z" glyph-name="gcircumflex.school" horiz-adv-x="538" unicode="&#57699;" /><glyph d="M427 550 288 712 149 550H119L268 750H308L457 550ZM289 31Q327 31 366.5 38.5Q406 46 426 58V210H290V244H465V39Q435 17 387.5 5.5Q340 -6 289 -6Q226 -6 182 14Q138 34 110 68.5Q82 103 69 149.5Q56 196 56 250Q56 304 69 351Q82 398 111 432.5Q140 467 185.5 486.5Q231 506 295 506Q365 506 406 485Q447 464 466 444L448 413Q441 421 428.5 430.5Q416 440 397 448.5Q378 457 353 463Q328 469 295 469Q239 469 201 450.5Q163 432 140.5 401.5Q118 371 108.5 331.5Q99 292 99 250Q99 208 108.5 168.5Q118 129 140 98.5Q162 68 198.5 49.5Q235 31 289 31Z" glyph-name="gcircumflex.smcp" horiz-adv-x="536" unicode="&#57931;" /><glyph d="M214 550 259 750H286L260 550ZM240 148Q191 148 156 160Q141 151 131.5 138Q122 125 122 106Q122 81 138.5 72.5Q155 64 173 62L378 35Q445 26 473.5 -5Q502 -36 502 -93Q502 -137 480 -167.5Q458 -198 421.5 -218Q385 -238 337.5 -247Q290 -256 239 -256Q187 -256 145 -248.5Q103 -241 73.5 -224.5Q44 -208 28.5 -180.5Q13 -153 13 -112Q13 -82 24 -58Q35 -34 53.5 -15.5Q72 3 95.5 16Q119 29 143 36V37Q86 49 86 103Q86 127 98.5 143.5Q111 160 128 171Q88 194 72 233.5Q56 273 56 327Q56 367 65 400Q74 433 95 456.5Q116 480 151.5 493Q187 506 240 506Q258 506 273.5 504Q289 502 303 500H474V471H368Q399 448 411.5 411.5Q424 375 424 327Q424 287 415 254Q406 221 385 197.5Q364 174 328.5 161Q293 148 240 148ZM192 28Q169 22 144 11Q119 0 98 -17Q77 -34 63 -57.5Q49 -81 49 -112Q49 -177 98 -200.5Q147 -224 239 -224Q283 -224 323.5 -217Q364 -210 395.5 -194.5Q427 -179 446 -154Q465 -129 465 -93Q465 -48 445 -26Q425 -4 371 4ZM240 180Q288 180 317.5 192Q347 204 363 224.5Q379 245 384.5 271.5Q390 298 390 327Q390 356 384.5 382.5Q379 409 363 429.5Q347 450 317.5 462Q288 474 240 474Q192 474 162.5 462Q133 450 117.5 429.5Q102 409 96.5 382.5Q91 356 91 327Q91 298 96.5 271.5Q102 245 117.5 224.5Q133 204 162.5 192Q192 180 240 180Z" glyph-name="gcommaaccent" horiz-adv-x="518" unicode="&#291;" /><glyph d="M239 550 284 750H311L285 550ZM266 -6Q204 -6 164 14Q124 34 100.5 68.5Q77 103 68 149.5Q59 196 59 250Q59 304 68 351Q77 398 100.5 432.5Q124 467 164 486.5Q204 506 266 506Q308 506 355.5 494.5Q403 483 437 460L451 500H469V-64Q469 -164 417 -210Q365 -256 256 -256Q182 -256 138.5 -236.5Q95 -217 73 -197L90 -168Q101 -177 115.5 -186.5Q130 -196 149.5 -204Q169 -212 195 -217.5Q221 -223 256 -223Q307 -223 340.5 -211.5Q374 -200 394 -179.5Q414 -159 422.5 -130Q431 -101 431 -65V36Q396 15 351.5 4.5Q307 -6 266 -6ZM266 28Q317 28 357.5 38Q398 48 431 68V432Q398 452 357.5 462Q317 472 266 472Q212 472 179 453Q146 434 128 402.5Q110 371 104 331Q98 291 98 250Q98 209 104 169Q110 129 128 97.5Q146 66 179 47Q212 28 266 28Z" glyph-name="gcommaaccent.school" horiz-adv-x="538" unicode="&#57704;" /><glyph d="M312 -50 266 -250H240L266 -50ZM289 31Q327 31 366.5 38.5Q406 46 426 58V210H290V244H465V39Q435 17 387.5 5.5Q340 -6 289 -6Q226 -6 182 14Q138 34 110 68.5Q82 103 69 149.5Q56 196 56 250Q56 304 69 351Q82 398 111 432.5Q140 467 185.5 486.5Q231 506 295 506Q365 506 406 485Q447 464 466 444L448 413Q441 421 428.5 430.5Q416 440 397 448.5Q378 457 353 463Q328 469 295 469Q239 469 201 450.5Q163 432 140.5 401.5Q118 371 108.5 331.5Q99 292 99 250Q99 208 108.5 168.5Q118 129 140 98.5Q162 68 198.5 49.5Q235 31 289 31Z" glyph-name="gcommaaccent.smcp" horiz-adv-x="536" unicode="&#57920;" /><glyph d="M240 148Q191 148 156 160Q141 151 131.5 138Q122 125 122 106Q122 81 138.5 72.5Q155 64 173 62L378 35Q445 26 473.5 -5Q502 -36 502 -93Q502 -137 480 -167.5Q458 -198 421.5 -218Q385 -238 337.5 -247Q290 -256 239 -256Q187 -256 145 -248.5Q103 -241 73.5 -224.5Q44 -208 28.5 -180.5Q13 -153 13 -112Q13 -82 24 -58Q35 -34 53.5 -15.5Q72 3 95.5 16Q119 29 143 36V37Q86 49 86 103Q86 127 98.5 143.5Q111 160 128 171Q88 194 72 233.5Q56 273 56 327Q56 367 65 400Q74 433 95 456.5Q116 480 151.5 493Q187 506 240 506Q258 506 273.5 504Q289 502 303 500H474V471H368Q399 448 411.5 411.5Q424 375 424 327Q424 287 415 254Q406 221 385 197.5Q364 174 328.5 161Q293 148 240 148ZM192 28Q169 22 144 11Q119 0 98 -17Q77 -34 63 -57.5Q49 -81 49 -112Q49 -177 98 -200.5Q147 -224 239 -224Q283 -224 323.5 -217Q364 -210 395.5 -194.5Q427 -179 446 -154Q465 -129 465 -93Q465 -48 445 -26Q425 -4 371 4ZM240 180Q288 180 317.5 192Q347 204 363 224.5Q379 245 384.5 271.5Q390 298 390 327Q390 356 384.5 382.5Q379 409 363 429.5Q347 450 317.5 462Q288 474 240 474Q192 474 162.5 462Q133 450 117.5 429.5Q102 409 96.5 382.5Q91 356 91 327Q91 298 96.5 271.5Q102 245 117.5 224.5Q133 204 162.5 192Q192 180 240 180ZM213 650Q213 661 221 669Q229 677 240 677Q251 677 259 669Q267 661 267 650Q267 639 259 631Q251 623 240 623Q229 623 221 631Q213 639 213 650Z" glyph-name="gdotaccent" horiz-adv-x="518" unicode="&#289;" /><glyph d="M239 650Q239 661 247 669Q255 677 266 677Q277 677 285 669Q293 661 293 650Q293 639 285 631Q277 623 266 623Q255 623 247 631Q239 639 239 650ZM266 -6Q204 -6 164 14Q124 34 100.5 68.5Q77 103 68 149.5Q59 196 59 250Q59 304 68 351Q77 398 100.5 432.5Q124 467 164 486.5Q204 506 266 506Q308 506 355.5 494.5Q403 483 437 460L451 500H469V-64Q469 -164 417 -210Q365 -256 256 -256Q182 -256 138.5 -236.5Q95 -217 73 -197L90 -168Q101 -177 115.5 -186.5Q130 -196 149.5 -204Q169 -212 195 -217.5Q221 -223 256 -223Q307 -223 340.5 -211.5Q374 -200 394 -179.5Q414 -159 422.5 -130Q431 -101 431 -65V36Q396 15 351.5 4.5Q307 -6 266 -6ZM266 28Q317 28 357.5 38Q398 48 431 68V432Q398 452 357.5 462Q317 472 266 472Q212 472 179 453Q146 434 128 402.5Q110 371 104 331Q98 291 98 250Q98 209 104 169Q110 129 128 97.5Q146 66 179 47Q212 28 266 28Z" glyph-name="gdotaccent.school" horiz-adv-x="538" unicode="&#57703;" /><glyph d="M261 650Q261 661 269 669Q277 677 288 677Q299 677 307 669Q315 661 315 650Q315 639 307 631Q299 623 288 623Q277 623 269 631Q261 639 261 650ZM289 31Q327 31 366.5 38.5Q406 46 426 58V210H290V244H465V39Q435 17 387.5 5.5Q340 -6 289 -6Q226 -6 182 14Q138 34 110 68.5Q82 103 69 149.5Q56 196 56 250Q56 304 69 351Q82 398 111 432.5Q140 467 185.5 486.5Q231 506 295 506Q365 506 406 485Q447 464 466 444L448 413Q441 421 428.5 430.5Q416 440 397 448.5Q378 457 353 463Q328 469 295 469Q239 469 201 450.5Q163 432 140.5 401.5Q118 371 108.5 331.5Q99 292 99 250Q99 208 108.5 168.5Q118 129 140 98.5Q162 68 198.5 49.5Q235 31 289 31Z" glyph-name="gdotaccent.smcp" horiz-adv-x="536" unicode="&#57935;" /><glyph d="M329 -6Q292 -6 257 4.5Q222 15 199 37L215 66Q237 49 264 38.5Q291 28 329 28Q368 28 393.5 39.5Q419 51 433.5 68.5Q448 86 453.5 106Q459 126 459 144Q459 180 439 206Q419 232 362 249Q323 261 296 272Q269 283 252 297Q235 311 227.5 331Q220 351 220 379Q220 412 232 433.5Q244 455 262 470Q280 485 301.5 497Q323 509 341 523Q359 537 371 556Q383 575 383 605Q383 667 348 694.5Q313 722 253 722Q193 722 157.5 692.5Q122 663 122 601V0H86V601Q86 670 124.5 713Q163 756 253 756Q343 756 381.5 715Q420 674 420 605Q420 570 408 547.5Q396 525 378 509Q360 493 338.5 481Q317 469 299 455.5Q281 442 269 424.5Q257 407 257 379Q257 359 262 345.5Q267 332 278 322Q289 312 306.5 305Q324 298 349 290Q387 278 415 265.5Q443 253 461 236.5Q479 220 487.5 198.5Q496 177 496 145Q496 116 487 89Q478 62 458.5 41Q439 20 407 7Q375 -6 329 -6Z" glyph-name="germandbls" horiz-adv-x="544" unicode="&#223;" /><glyph d="M314 266 351 263Q440 253 482.5 224Q525 195 525 129Q525 103 516 78.5Q507 54 486 35.5Q465 17 429 5.5Q393 -6 339 -6Q283 -6 242 9Q201 24 184 41L202 73Q217 57 252.5 44Q288 31 339 31Q420 31 452 56.5Q484 82 484 129Q484 153 477 169.5Q470 186 453.5 197.5Q437 209 410 216Q383 223 343 228Q340 228 327.5 230Q315 232 301 233.5Q287 235 275.5 237Q264 239 262 239V260L406 437Q380 457 345.5 463Q311 469 279 469Q251 469 220.5 464Q190 459 164.5 443.5Q139 428 122.5 399.5Q106 371 106 324V0H66V330Q66 383 85.5 417.5Q105 452 135.5 471.5Q166 491 204 498.5Q242 506 279 506Q329 506 376.5 493Q424 480 456 443Z" glyph-name="germandbls.smcp" horiz-adv-x="569" unicode="&#58120;" /><glyph d="M273 550 197 750H239L297 550Z" glyph-name="grave" horiz-adv-x="570" unicode="`" /><glyph d="M269 800 183 900H243L301 800Z" glyph-name="grave.cap" horiz-adv-x="570" unicode="&#58401;" /><glyph d="M93 612 486 390V360L93 138V180L443 375L93 570Z" glyph-name="greater" horiz-adv-x="579" unicode="&gt;" /><glyph d="M75 719V760L825 390V360L75 -10V31L780 375Z" glyph-name="greater.cap" horiz-adv-x="900" unicode="&#58775;" /><glyph d="M93 292 438 432 93 572V612L486 447V417L93 252ZM93 178 486 343V303L93 138Z" glyph-name="greaterequal" horiz-adv-x="579" unicode="&#8805;" /><glyph d="M75 144 774 432 75 720V760L825 447V417L75 104ZM75 30 825 343V303L75 -10Z" glyph-name="greaterequal.cap" horiz-adv-x="900" unicode="&#61992;" /><glyph d="M40 266 230 423V385L78 250L230 115V76L40 234ZM230 266 420 423V385L268 250L420 115V76L230 234Z" glyph-name="guillemotleft" horiz-adv-x="465" unicode="&#171;" /><glyph d="M40 391 230 548V510L78 375L230 240V201L40 359ZM230 391 420 548V510L268 375L420 240V201L230 359Z" glyph-name="guillemotleft.cap" horiz-adv-x="465" unicode="&#58451;" /><glyph d="M40 266 230 423V385L78 250L230 115V76L40 234ZM230 266 420 423V385L268 250L420 115V76L230 234Z" glyph-name="guillemotleft.smcp" horiz-adv-x="465" unicode="&#62993;" /><glyph d="M425 234 235 76V114L387 250L235 385V423L425 265ZM235 234 45 76V114L197 250L45 385V423L235 265Z" glyph-name="guillemotright" horiz-adv-x="465" unicode="&#187;" /><glyph d="M425 359 235 201V239L387 375L235 510V548L425 390ZM235 359 45 201V239L197 375L45 510V548L235 390Z" glyph-name="guillemotright.cap" horiz-adv-x="465" unicode="&#58452;" /><glyph d="M425 234 235 76V114L387 250L235 385V423L425 265ZM235 234 45 76V114L197 250L45 385V423L235 265Z" glyph-name="guillemotright.smcp" horiz-adv-x="465" unicode="&#62994;" /><glyph d="M40 266 230 423V385L78 250L230 115V76L40 234Z" glyph-name="guilsinglleft" horiz-adv-x="275" unicode="&#8249;" /><glyph d="M40 391 230 548V510L78 375L230 240V201L40 359Z" glyph-name="guilsinglleft.cap" horiz-adv-x="275" unicode="&#58449;" /><glyph d="M40 266 230 423V385L78 250L230 115V76L40 234Z" glyph-name="guilsinglleft.smcp" horiz-adv-x="275" unicode="&#62992;" /><glyph d="M235 234 45 76V114L197 250L45 385V423L235 265Z" glyph-name="guilsinglright" horiz-adv-x="275" unicode="&#8250;" /><glyph d="M235 359 45 201V239L197 375L45 510V548L235 390Z" glyph-name="guilsinglright.cap" horiz-adv-x="275" unicode="&#58450;" /><glyph d="M235 234 45 76V114L197 250L45 385V423L235 265Z" glyph-name="guilsinglright.smcp" horiz-adv-x="275" unicode="&#62995;" /><glyph d="M107 464Q141 484 188 495Q235 506 276 506Q364 506 402.5 472.5Q441 439 441 364V0H403V367Q403 431 369.5 452Q336 473 276 473Q224 473 182 463.5Q140 454 107 434V0H69V750H107Z" glyph-name="h" horiz-adv-x="503" unicode="h" /><glyph d="M446 0V240H111V0H71V500H111V274H446V500H486V0Z" glyph-name="h.smcp" horiz-adv-x="557" unicode="&#57864;" /><glyph glyph-name="hairspace" horiz-adv-x="36" unicode="&#8202;" /><glyph d="M69 645V750H107V645H274V616H107V463Q140 484 186.5 495Q233 506 274 506Q362 506 400.5 472.5Q439 439 439 364V0H399V367Q399 429 366 450.5Q333 472 274 472Q172 472 107 433V0H69V616H-31V645Z" glyph-name="hbar" horiz-adv-x="503" unicode="&#295;" /><glyph d="M446 0V240H111V0H71V500H111V407H446V500H486V0ZM446 274V373H111V274Z" glyph-name="hbar.smcp" horiz-adv-x="557" unicode="&#57943;" /><glyph d="M399 367Q399 429 366 450.5Q333 472 274 472Q172 472 107 433V0H69V750H107V463Q140 484 186.5 495Q233 506 274 506Q362 506 400.5 472.5Q439 439 439 364V0H399ZM200 800 88 872 -24 800H-59L66 900H110L235 800Z" glyph-name="hcircumflex" horiz-adv-x="503" unicode="&#293;" /><glyph d="M446 0V240H111V0H71V500H111V274H446V500H486V0ZM417 550 279 712 140 550H109L258 750H299L448 550Z" glyph-name="hcircumflex.smcp" horiz-adv-x="557" unicode="&#57939;" /><glyph d="M439 -10Q427 8 405 38.5Q383 69 353.5 106.5Q324 144 288.5 187Q253 230 215 273Q190 301 162.5 335.5Q135 370 111.5 407.5Q88 445 72.5 484.5Q57 524 57 562Q57 605 69.5 641.5Q82 678 106 704.5Q130 731 164 746Q198 761 241 761Q286 761 318 748.5Q350 736 373.5 715.5Q397 695 412.5 667.5Q428 640 438 610H442Q453 640 468 667.5Q483 695 506.5 715.5Q530 736 562 748.5Q594 761 639 761Q682 761 716 746Q750 731 774 704.5Q798 678 810.5 641.5Q823 605 823 562Q823 524 807.5 484.5Q792 445 768.5 407.5Q745 370 717.5 335.5Q690 301 665 273Q627 230 591.5 187Q556 144 526.5 106.5Q497 69 475 38.5Q453 8 441 -10Z" glyph-name="heart" horiz-adv-x="880" unicode="&#9829;" /><glyph d="M324 550 383 750H425L349 550ZM221 550 279 750H322L246 550Z" glyph-name="hungarumlaut" horiz-adv-x="570" unicode="&#733;" /><glyph d="M217 800 275 900H334L248 800ZM322 800 379 900H439L353 800Z" glyph-name="hungarumlaut.cap" horiz-adv-x="570" unicode="&#58411;" /><glyph d="M284 315H50V351H284Z" glyph-name="hyphen" horiz-adv-x="334" unicode="-" /><glyph d="M284 357H50V393H284Z" glyph-name="hyphen.cap" horiz-adv-x="334" unicode="&#58498;" /><glyph d="M284 232H50V268H284Z" glyph-name="hyphen.smcp" horiz-adv-x="334" unicode="&#62996;" /><glyph d="M85 0V500H123V0ZM77 650Q77 661 85 669Q93 677 104 677Q115 677 123 669Q131 661 131 650Q131 639 123 631Q115 623 104 623Q93 623 85 631Q77 639 77 650Z" glyph-name="i" horiz-adv-x="208" unicode="i" /><glyph d="M93 0V500H132V0Z" glyph-name="i.smcp" horiz-adv-x="225" unicode="&#57865;" /><glyph d="M91 550 149 750H193L117 550ZM85 0V500H123V0Z" glyph-name="iacute" horiz-adv-x="208" unicode="&#237;" /><glyph d="M93 0V500H132V0ZM99 550 157 750H202L126 550Z" glyph-name="iacute.smcp" horiz-adv-x="225" unicode="&#57944;" /><glyph d="M104 550Q-70 550 -71 750H-43Q-41 669 -8 626.5Q25 584 104 584Q183 584 216 626.5Q249 669 252 750H279Q279 550 104 550ZM85 0V500H123V0Z" glyph-name="ibreve" horiz-adv-x="208" unicode="&#301;" /><glyph d="M93 0V500H132V0ZM113 550Q-62 550 -62 750H-35Q-32 669 1 626.5Q34 584 113 584Q192 584 225 626.5Q258 669 260 750H288Q287 550 113 550Z" glyph-name="ibreve.smcp" horiz-adv-x="225" unicode="&#57951;" /><glyph d="M243 550 104 712 -34 550H-65L84 750H124L273 550ZM85 0V500H123V0Z" glyph-name="icircumflex" horiz-adv-x="208" unicode="&#238;" /><glyph d="M93 0V500H132V0ZM251 550 113 712 -26 550H-57L92 750H133L282 550Z" glyph-name="icircumflex.smcp" horiz-adv-x="225" unicode="&#57946;" /><glyph d="M2 650Q2 661 10 669Q18 677 29 677Q40 677 48 669Q56 661 56 650Q56 639 48 631Q40 623 29 623Q18 623 10 631Q2 639 2 650ZM152 650Q152 661 160 669Q168 677 179 677Q190 677 198 669Q206 661 206 650Q206 639 198 631Q190 623 179 623Q168 623 160 631Q152 639 152 650ZM85 0V500H123V0Z" glyph-name="idieresis" horiz-adv-x="208" unicode="&#239;" /><glyph d="M93 0V500H132V0ZM161 650Q161 661 169 669Q177 677 188 677Q199 677 207 669Q215 661 215 650Q215 639 207 631Q199 623 188 623Q177 623 169 631Q161 639 161 650ZM11 650Q11 661 19 669Q27 677 38 677Q49 677 57 669Q65 661 65 650Q65 639 57 631Q49 623 38 623Q27 623 19 631Q11 639 11 650Z" glyph-name="idieresis.smcp" horiz-adv-x="225" unicode="&#57947;" /><glyph d="M85 0V500H123V0ZM77 650Q77 661 85 669Q93 677 104 677Q115 677 123 669Q131 661 131 650Q131 639 123 631Q115 623 104 623Q93 623 85 631Q77 639 77 650Z" glyph-name="idotaccent" horiz-adv-x="208" unicode="&#59269;" /><glyph d="M93 0V500H132V0ZM86 650Q86 661 94 669Q102 677 113 677Q124 677 132 669Q140 661 140 650Q140 639 132 631Q124 623 113 623Q102 623 94 631Q86 639 86 650Z" glyph-name="idotaccent.smcp" horiz-adv-x="225" unicode="&#57954;" /><glyph d="M91 550 15 750H59L117 550ZM85 0V500H123V0Z" glyph-name="igrave" horiz-adv-x="208" unicode="&#236;" /><glyph d="M93 0V500H132V0ZM99 550 23 750H68L126 550Z" glyph-name="igrave.smcp" horiz-adv-x="225" unicode="&#57945;" /><glyph d="M141 -221Q169 -221 193.5 -215.5Q218 -210 236 -198Q254 -186 264.5 -166.5Q275 -147 275 -118V500H313V-116Q313 -254 146 -256ZM77 650Q77 661 85 669Q93 677 104 677Q115 677 123 669Q131 661 131 650Q131 639 123 631Q115 623 104 623Q93 623 85 631Q77 639 77 650ZM267 650Q267 661 275 669Q283 677 294 677Q305 677 313 669Q321 661 321 650Q321 639 313 631Q305 623 294 623Q283 623 275 631Q267 639 267 650ZM85 0V500H123V0Z" glyph-name="ij" horiz-adv-x="398" unicode="&#307;" /><glyph d="M93 0V500H132V0ZM222 64Q229 56 250 42.5Q271 29 308 29Q325 29 341.5 33.5Q358 38 371 49.5Q384 61 392 80Q400 99 400 128V500H439V130Q439 65 404.5 29.5Q370 -6 310 -6Q268 -6 241.5 8Q215 22 204 33Z" glyph-name="ij.smcp" horiz-adv-x="527" unicode="&#58151;" /><glyph d="M-33 667H241V633H-33ZM85 0V500H123V0Z" glyph-name="imacron" horiz-adv-x="208" unicode="&#299;" /><glyph d="M93 0V500H132V0ZM-24 667H250V633H-24Z" glyph-name="imacron.smcp" horiz-adv-x="225" unicode="&#57950;" /><glyph d="M737 357Q737 286 696 252.5Q655 219 586 219Q558 219 532.5 228Q507 237 483.5 252.5Q460 268 439 288Q418 308 400 330Q363 286 316.5 252.5Q270 219 214 219Q145 219 104 252.5Q63 286 63 357Q63 428 104 461.5Q145 495 214 495Q241 495 267 486Q293 477 316 461.5Q339 446 360.5 426Q382 406 400 384Q418 406 439 426Q460 446 483.5 461.5Q507 477 532.5 486Q558 495 586 495Q655 495 696 461.5Q737 428 737 357ZM698 357Q698 387 688.5 407.5Q679 428 663.5 440Q648 452 628 457Q608 462 586 461Q558 460 533.5 449.5Q509 439 489 423.5Q469 408 452.5 390Q436 372 423 357Q436 342 452.5 324Q469 306 489 290.5Q509 275 533.5 264.5Q558 254 586 253Q608 252 628 257Q648 262 663.5 274Q679 286 688.5 306.5Q698 327 698 357ZM215 253Q243 254 267 264.5Q291 275 311 290.5Q331 306 347.5 324Q364 342 377 357Q364 372 347.5 390Q331 408 311 423.5Q291 439 267 449.5Q243 460 215 461Q193 462 172.5 457Q152 452 136.5 440Q121 428 111.5 407.5Q102 387 102 357Q102 327 111.5 306.5Q121 286 136.5 274Q152 262 172.5 257Q193 252 215 253Z" glyph-name="infinity" horiz-adv-x="800" unicode="&#8734;" /><glyph d="M-37 -226Q-10 -226 14.5 -220Q39 -214 58 -201.5Q77 -189 88 -169Q99 -149 99 -120V613Q99 682 141.5 719Q184 756 275 756Q287 756 308 754.5Q329 753 338 751V717Q328 719 310 720.5Q292 722 275 722Q245 722 219.5 716.5Q194 711 176 698.5Q158 686 147.5 665Q137 644 137 613V-116Q137 -186 90.5 -220.5Q44 -255 -37 -256Z" glyph-name="integral" horiz-adv-x="260" unicode="&#8747;" /><glyph d="M285 750Q459 750 460 550H433Q430 631 397 673.5Q364 716 285 716Q206 716 173 673.5Q140 631 137 550H110Q111 750 285 750Z" glyph-name="invertedbreve" horiz-adv-x="570" unicode="&#58385;" /><glyph d="M285 910Q426 910 430 800H403Q401 836 373.5 856.5Q346 877 285 877Q224 877 196.5 856.5Q169 836 167 800H140Q144 910 285 910Z" glyph-name="invertedbreve.cap" horiz-adv-x="570" unicode="&#58407;" /><glyph d="M113 -219Q141 -219 158 -211.5Q175 -204 185 -196L200 -221Q189 -230 165.5 -240Q142 -250 110 -250Q67 -250 39.5 -225Q12 -200 12 -151Q12 -97 34 -58.5Q56 -20 85 6V500H123V0Q114 -6 101 -18.5Q88 -31 75 -49.5Q62 -68 53 -92Q44 -116 44 -145Q44 -182 63.5 -200.5Q83 -219 113 -219ZM77 650Q77 661 85 669Q93 677 104 677Q115 677 123 669Q131 661 131 650Q131 639 123 631Q115 623 104 623Q93 623 85 631Q77 639 77 650Z" glyph-name="iogonek" horiz-adv-x="208" unicode="&#303;" /><glyph d="M122 -219Q150 -219 167 -211.5Q184 -204 194 -196L209 -221Q198 -230 174.5 -240Q151 -250 119 -250Q76 -250 48.5 -225Q21 -200 21 -151Q21 -97 42.5 -59Q64 -21 93 5V500H132V0Q123 -6 110 -18.5Q97 -31 84 -49.5Q71 -68 62 -92Q53 -116 53 -145Q53 -182 72.5 -200.5Q92 -219 122 -219Z" glyph-name="iogonek.smcp" horiz-adv-x="225" unicode="&#63054;" /><glyph d="M175 631Q231 631 233 692H267Q265 646 241 622.5Q217 599 175 599Q147 599 129.5 610Q112 621 97.5 634Q83 647 68.5 658Q54 669 33 669Q-22 669 -25 608H-59Q-57 654 -33 677.5Q-9 701 33 701Q61 701 78.5 690Q96 679 110.5 666Q125 653 139.5 642Q154 631 175 631ZM85 0V500H123V0Z" glyph-name="itilde" horiz-adv-x="208" unicode="&#297;" /><glyph d="M93 0V500H132V0ZM184 631Q239 631 242 692H275Q273 646 249.5 622.5Q226 599 184 599Q156 599 138.5 610Q121 621 106.5 634Q92 647 77.5 658Q63 669 41 669Q-14 669 -16 608H-50Q-48 654 -24.5 677.5Q-1 701 41 701Q69 701 87 690Q105 679 119.5 666Q134 653 148.5 642Q163 631 184 631Z" glyph-name="itilde.smcp" horiz-adv-x="225" unicode="&#57948;" /><glyph d="M-49 -221Q-21 -221 3.5 -215.5Q28 -210 46 -198Q64 -186 74.5 -166.5Q85 -147 85 -118V500H123V-116Q123 -254 -44 -256ZM77 650Q77 661 85 669Q93 677 104 677Q115 677 123 669Q131 661 131 650Q131 639 123 631Q115 623 104 623Q93 623 85 631Q77 639 77 650Z" glyph-name="j" horiz-adv-x="208" unicode="j" /><glyph d="M42 64Q49 56 70 42.5Q91 29 128 29Q145 29 161.5 33.5Q178 38 191 49.5Q204 61 212 80Q220 99 220 128V500H259V130Q259 65 224.5 29.5Q190 -6 130 -6Q88 -6 61.5 8Q35 22 24 33Z" glyph-name="j.smcp" horiz-adv-x="347" unicode="&#57866;" /><glyph d="M243 550 104 712 -34 550H-65L84 750H124L273 550ZM-49 -221Q-21 -221 3.5 -215.5Q28 -210 46 -198Q64 -186 74.5 -166.5Q85 -147 85 -118V500H123V-116Q123 -254 -44 -256Z" glyph-name="jcircumflex" horiz-adv-x="208" unicode="&#309;" /><glyph d="M378 550 239 712 100 550H70L219 750H259L408 550ZM42 64Q49 56 70 42.5Q91 29 128 29Q145 29 161.5 33.5Q178 38 191 49.5Q204 61 212 80Q220 99 220 128V500H259V130Q259 65 224.5 29.5Q190 -6 130 -6Q88 -6 61.5 8Q35 22 24 33Z" glyph-name="jcircumflex.smcp" horiz-adv-x="347" unicode="&#63027;" /><glyph d="M211 298 457 0H410L187 275L105 197L107 0H69V750H107L105 242L373 500H421Z" glyph-name="k" horiz-adv-x="473" unicode="k" /><glyph d="M217 298 464 0H412L191 272L110 196L112 0H71V500H112L110 245L375 500H428Z" glyph-name="k.smcp" horiz-adv-x="497" unicode="&#57867;" /><glyph d="M213 298 459 0H409L189 275L105 196L107 0H69V750H107L105 242L372 500H423ZM272 -50 226 -250H200L226 -50Z" glyph-name="kcommaaccent" horiz-adv-x="475" unicode="&#311;" /><glyph d="M217 298 464 0H412L191 272L110 196L112 0H71V500H112L110 245L375 500H428ZM265 -50 219 -250H193L219 -50Z" glyph-name="kcommaaccent.smcp" horiz-adv-x="497" unicode="&#57960;" /><glyph d="M213 298 459 0H409L189 275L105 196L107 0H69V500H107L105 242L372 500H423Z" glyph-name="kgreenlandic" horiz-adv-x="475" unicode="&#312;" /><glyph d="M85 0V750H123V0Z" glyph-name="l" horiz-adv-x="208" unicode="l" /><glyph d="M110 34H427V0H71V500H110Z" glyph-name="l.smcp" horiz-adv-x="463" unicode="&#57868;" /><glyph d="M89 800 147 900H206L120 800ZM85 0V750H123V0Z" glyph-name="lacute" horiz-adv-x="208" unicode="&#314;" /><glyph d="M110 34H427V0H71V500H110ZM77 550 135 750H179L103 550Z" glyph-name="lacute.smcp" horiz-adv-x="463" unicode="&#57963;" /><glyph d="M260 750 218 550H193L217 750ZM85 0V750H123V0Z" glyph-name="lcaron" horiz-adv-x="208" unicode="&#318;" /><glyph d="M110 34H427V0H71V500H110ZM277 625 235 425H209L233 625Z" glyph-name="lcaron.smcp" horiz-adv-x="463" unicode="&#57964;" /><glyph d="M126 -50 80 -250H54L80 -50ZM85 0V750H123V0Z" glyph-name="lcommaaccent" horiz-adv-x="208" unicode="&#316;" /><glyph d="M110 34H427V0H71V500H110ZM277 -50 232 -250H205L231 -50Z" glyph-name="lcommaaccent.smcp" horiz-adv-x="463" unicode="&#57965;" /><glyph d="M85 0V750H123V0ZM253 300Q253 311 261 319Q269 327 280 327Q291 327 299 319Q307 311 307 300Q307 289 299 281Q291 273 280 273Q269 273 261 281Q253 289 253 300Z" glyph-name="ldot" horiz-adv-x="352" unicode="&#320;" /><glyph d="M110 34H427V0H71V500H110ZM308 275Q308 286 316 294Q324 302 335 302Q346 302 354 294Q362 286 362 275Q362 264 354 256Q346 248 335 248Q324 248 316 256Q308 264 308 275Z" glyph-name="ldot.smcp" horiz-adv-x="463" unicode="&#57969;" /><glyph d="M486 138 93 360V390L486 612V570L136 375L486 180Z" glyph-name="less" horiz-adv-x="579" unicode="&lt;" /><glyph d="M825 31V-10L75 360V390L825 760V719L120 375Z" glyph-name="less.cap" horiz-adv-x="900" unicode="&#58774;" /><glyph d="M486 252 93 417V447L486 612V572L141 432L486 292ZM486 138 93 303V343L486 178Z" glyph-name="lessequal" horiz-adv-x="579" unicode="&#8804;" /><glyph d="M825 104 75 417V447L825 760V720L126 432L825 144ZM825 -10 75 303V343L825 30Z" glyph-name="lessequal.cap" horiz-adv-x="900" unicode="&#61991;" /><glyph d="M362 722Q265 722 220 683Q175 644 175 555V466H452V431H175V326H452V291H175V32H549V0H50V32H135V291H50V326H135V431H50V466H135V554Q135 601 146.5 638Q158 675 184.5 701.5Q211 728 254.5 742Q298 756 362 756Q399 756 428.5 750.5Q458 745 480.5 736.5Q503 728 518 718.5Q533 709 541 701L524 671Q516 678 502.5 687Q489 696 469.5 703.5Q450 711 423.5 716.5Q397 722 362 722Z" glyph-name="lira" horiz-adv-x="600" unicode="&#8356;" /><glyph d="M450 249V464H93V500H486V249Z" glyph-name="logicalnot" horiz-adv-x="579" unicode="&#172;" /><glyph d="M789 107V464H75V500H825V107Z" glyph-name="logicalnot.cap" horiz-adv-x="900" unicode="&#61993;" /><glyph d="M44 35H324V0H44Z" glyph-name="lowline" horiz-adv-x="368" unicode="&#58641;" /><glyph d="M737 375 428 704 119 375 428 46ZM70 375 428 756 786 375 428 -6Z" glyph-name="lozenge" horiz-adv-x="856" unicode="&#9674;" /><glyph d="M100 0V380L12 324V360L100 416V750H138V440L238 504V469L138 405V0Z" glyph-name="lslash" horiz-adv-x="251" unicode="&#322;" /><glyph d="M138 192V34H455V0H99V171L9 123V160L99 208V500H138V229L354 344V307Z" glyph-name="lslash.smcp" horiz-adv-x="487" unicode="&#63225;" /><glyph d="M669 376Q669 407 662.5 426Q656 445 642.5 455.5Q629 466 609 469.5Q589 473 562 473Q516 473 477.5 461.5Q439 450 401 427Q407 403 407 373V0H369V376Q369 407 362.5 426Q356 445 342.5 455.5Q329 466 309 469.5Q289 473 262 473Q213 473 176.5 463.5Q140 454 107 434V0H69V500H88L102 461Q136 483 179.5 494.5Q223 506 262 506Q314 506 345 492.5Q376 479 391 452Q436 481 480 493.5Q524 506 562 506Q643 506 675 473.5Q707 441 707 373V0H669Z" glyph-name="m" horiz-adv-x="772" unicode="m" /><glyph d="M300 41 105 437 108 0H71V500H113L318 84L523 500H564V0H527L530 436L335 41Z" glyph-name="m.smcp" horiz-adv-x="635" unicode="&#57869;" /><glyph d="M148 667H422V634H148Z" glyph-name="macron" horiz-adv-x="570" unicode="&#175;" /><glyph d="M148 867H422V833H148Z" glyph-name="macron.cap" horiz-adv-x="570" unicode="&#58405;" /><glyph d="M668 375Q668 405 661.5 424Q655 443 641.5 453.5Q628 464 608.5 468Q589 472 562 472Q515 472 477.5 460.5Q440 449 403 426Q409 402 409 372V0H369V375Q369 405 362.5 424Q356 443 342.5 453.5Q329 464 309 468Q289 472 262 472Q214 472 178 462.5Q142 453 109 433V0H69V500H89L103 461Q137 483 180 494.5Q223 506 262 506Q314 506 345 493Q376 480 392 452Q437 481 480.5 493.5Q524 506 562 506Q643 506 675.5 473.5Q708 441 708 372V0H668ZM362 650Q362 661 370 669Q378 677 389 677Q400 677 408 669Q416 661 416 650Q416 639 408 631Q400 623 389 623Q378 623 370 631Q362 639 362 650Z" glyph-name="mdotaccent" horiz-adv-x="772" unicode="&#7745;" /><glyph d="M300 41 105 437 108 0H71V500H113L318 84L523 500H564V0H527L530 436L335 41ZM291 650Q291 661 299 669Q307 677 318 677Q329 677 337 669Q345 661 345 650Q345 639 337 631Q329 623 318 623Q307 623 299 631Q291 639 291 650Z" glyph-name="mdotaccent.smcp" horiz-adv-x="635" /><glyph d="M59 250Q59 303 79 350Q99 397 133.5 431.5Q168 466 215 486Q262 506 315 506Q368 506 415 486Q462 466 496.5 431.5Q531 397 551 350Q571 303 571 250Q571 197 551 150Q531 103 496.5 68.5Q462 34 415 14Q368 -6 315 -6Q262 -6 215 14Q168 34 133.5 68.5Q99 103 79 150Q59 197 59 250Z" glyph-name="mediumblackcircle" horiz-adv-x="630" unicode="&#9899;" /><glyph d="M59 250Q59 303 79 350Q99 397 133.5 431.5Q168 466 215 486Q262 506 315 506Q368 506 415 486Q462 466 496.5 431.5Q531 397 551 350Q571 303 571 250Q571 197 551 150Q531 103 496.5 68.5Q462 34 415 14Q368 -6 315 -6Q262 -6 215 14Q168 34 133.5 68.5Q99 103 79 150Q59 197 59 250ZM95 250Q95 204 112 164Q129 124 159 94Q189 64 229 47Q269 30 315 30Q361 30 401 47Q441 64 471 94Q501 124 518 164Q535 204 535 250Q535 296 518 336Q501 376 471 406Q441 436 401 453Q361 470 315 470Q269 470 229 453Q189 436 159 406Q129 376 112 336Q95 296 95 250Z" glyph-name="mediumwhitecircle" horiz-adv-x="630" unicode="&#9898;" /><glyph d="M93 357V393H486V357Z" glyph-name="minus" horiz-adv-x="579" unicode="&#8722;" /><glyph d="M825 393V357H75V393Z" glyph-name="minus.cap" horiz-adv-x="900" unicode="&#58770;" /><glyph d="M56 -27H348V-63H56Z" glyph-name="minus.inf" horiz-adv-x="404" unicode="&#58748;" /><glyph d="M264 375 131 508 157 533 289 401 422 533 448 508 315 375 448 242 422 217 289 349 157 217 131 242Z" glyph-name="multiply" horiz-adv-x="579" unicode="&#215;" /><glyph d="M424 375 64 736 89 761 450 401 811 761 836 736 476 375 836 14 811 -11 450 349 89 -11 64 14Z" glyph-name="multiply.cap" horiz-adv-x="900" unicode="&#58771;" /><glyph d="M50 800H91V428Q101 449 118.5 468Q136 487 157.5 500.5Q179 514 203 522Q227 530 250 530Q332 530 373 483.5Q414 437 414 352Q414 277 383 214Q352 151 301 102Q250 53 184.5 19Q119 -15 50 -33ZM91 23Q128 36 176 59.5Q224 83 267 121Q310 159 339.5 213.5Q369 268 369 341Q369 368 363.5 394.5Q358 421 344 441Q330 461 306.5 473.5Q283 486 247 486Q214 486 186 471.5Q158 457 137.5 434.5Q117 412 104.5 385Q92 358 91 333Z" glyph-name="musicflatsign" horiz-adv-x="455" unicode="&#9837;" /><glyph d="M277 638V-60H238V252L50 98V800H89V484ZM89 195 238 317V542L89 419Z" glyph-name="musicnaturalsign" horiz-adv-x="327" unicode="&#59753;" /><glyph d="M346 641 441 717V653L346 576V354L441 430V365L346 289V0H307V258L158 139V-100H119V107L24 31V96L119 172V394L24 318V383L119 459V750H158V490L307 610V850H346ZM158 204 307 323V545L158 426Z" glyph-name="musicsharpsign" horiz-adv-x="465" unicode="&#9839;" /><glyph d="M403 367Q403 431 369.5 452Q336 473 276 473Q224 473 182 463.5Q140 454 107 434V0H69V500H88L102 461Q136 483 185 494.5Q234 506 276 506Q364 506 402.5 472.5Q441 439 441 364V0H403Z" glyph-name="n" horiz-adv-x="505" unicode="n" /><glyph d="M438 0 109 422 111 0H71V500H95L424 79L423 500H463V0Z" glyph-name="n.smcp" horiz-adv-x="534" unicode="&#57870;" /><glyph d="M401 367Q401 429 368 450.5Q335 472 276 472Q174 472 109 433V0H69V500H89L103 460Q137 483 185 494.5Q233 506 276 506Q364 506 402.5 472.5Q441 439 441 364V0H401ZM240 550 298 750H342L266 550Z" glyph-name="nacute" horiz-adv-x="505" unicode="&#324;" /><glyph d="M254 550 312 750H356L280 550ZM438 0 109 422 111 0H71V500H95L424 79L423 500H463V0Z" glyph-name="nacute.smcp" horiz-adv-x="534" unicode="&#63059;" /><glyph d="M401 367Q401 429 368 450.5Q335 472 276 472Q174 472 109 433V0H69V500H89L103 460Q137 483 185 494.5Q233 506 276 506Q364 506 402.5 472.5Q441 439 441 364V0H401ZM422 750 273 550H233L84 750H114L253 588L392 750Z" glyph-name="ncaron" horiz-adv-x="505" unicode="&#328;" /><glyph d="M436 750 287 550H247L98 750H128L267 588L406 750ZM438 0 109 422 111 0H71V500H95L424 79L423 500H463V0Z" glyph-name="ncaron.smcp" horiz-adv-x="534" unicode="&#57978;" /><glyph d="M401 367Q401 429 368 450.5Q335 472 276 472Q174 472 109 433V0H69V500H89L103 460Q137 483 185 494.5Q233 506 276 506Q364 506 402.5 472.5Q441 439 441 364V0H401ZM281 -50 235 -250H209L235 -50Z" glyph-name="ncommaaccent" horiz-adv-x="505" unicode="&#326;" /><glyph d="M438 0 109 422 111 0H71V500H95L424 79L423 500H463V0ZM295 -50 249 -250H223L249 -50Z" glyph-name="ncommaaccent.smcp" horiz-adv-x="534" unicode="&#57981;" /><glyph d="M451 490Q449 529 442 570Q435 611 416 644.5Q397 678 362.5 699.5Q328 721 271 721Q223 721 189.5 705.5Q156 690 135 663Q114 636 104.5 599Q95 562 95 518Q95 475 104 438Q113 401 132 373.5Q151 346 182 330.5Q213 315 256 315Q306 315 340.5 330.5Q375 346 397.5 371Q420 396 432.5 427.5Q445 459 451 490ZM221 29Q336 29 394 120Q452 211 452 403Q444 379 426.5 356.5Q409 334 383.5 317Q358 300 326.5 290Q295 280 258 280Q204 280 166 299Q128 318 103.5 351Q79 384 67.5 427Q56 470 56 518Q56 566 68.5 609Q81 652 107 685Q133 718 174 737Q215 756 272 756Q333 756 375 735Q417 714 442.5 670.5Q468 627 479 561Q490 495 490 405Q490 310 475.5 234Q461 158 428.5 104.5Q396 51 345 22.5Q294 -6 221 -6Q159 -6 121 12Q83 30 64 47L83 78Q90 72 102 63.5Q114 55 131 47.5Q148 40 170.5 34.5Q193 29 221 29Z" glyph-name="nine" horiz-adv-x="550" unicode="9" /><glyph d="M451 490Q449 529 442 570Q435 611 416 644.5Q397 678 362.5 699.5Q328 721 271 721Q223 721 189.5 705.5Q156 690 135 663Q114 636 104.5 599Q95 562 95 518Q95 475 104 438Q113 401 132 373.5Q151 346 182 330.5Q213 315 256 315Q306 315 340.5 330.5Q375 346 397.5 371Q420 396 432.5 427.5Q445 459 451 490ZM221 29Q336 29 394 120Q452 211 452 403Q444 379 426.5 356.5Q409 334 383.5 317Q358 300 326.5 290Q295 280 258 280Q204 280 166 299Q128 318 103.5 351Q79 384 67.5 427Q56 470 56 518Q56 566 68.5 609Q81 652 107 685Q133 718 174 737Q215 756 272 756Q333 756 375 735Q417 714 442.5 670.5Q468 627 479 561Q490 495 490 405Q490 310 475.5 234Q461 158 428.5 104.5Q396 51 345 22.5Q294 -6 221 -6Q159 -6 121 12Q83 30 64 47L83 78Q90 72 102 63.5Q114 55 131 47.5Q148 40 170.5 34.5Q193 29 221 29Z" glyph-name="nine.LT" horiz-adv-x="550" unicode="&#58697;" /><glyph d="M451 240Q449 279 442 320Q435 361 416 394.5Q397 428 362.5 449.5Q328 471 271 471Q223 471 189.5 455.5Q156 440 135 413Q114 386 104.5 349Q95 312 95 268Q95 225 104 188Q113 151 132 123.5Q151 96 182 80.5Q213 65 256 65Q306 65 340.5 80.5Q375 96 397.5 121Q420 146 432.5 177.5Q445 209 451 240ZM221 -221Q336 -221 394 -130Q452 -39 452 153Q444 129 426.5 106.5Q409 84 383.5 67Q358 50 326.5 40Q295 30 258 30Q204 30 166 49Q128 68 103.5 101Q79 134 67.5 177Q56 220 56 268Q56 316 68.5 359Q81 402 107 435Q133 468 174 487Q215 506 272 506Q333 506 375 485Q417 464 442.5 420.5Q468 377 479 311Q490 245 490 155Q490 60 475.5 -16.5Q461 -93 428.5 -146Q396 -199 345 -227.5Q294 -256 221 -256Q159 -256 121 -238Q83 -220 64 -203L83 -172Q90 -178 102 -186.5Q114 -195 131 -202.5Q148 -210 170.5 -215.5Q193 -221 221 -221Z" glyph-name="nine.OP" horiz-adv-x="550" unicode="&#58708;" /><glyph d="M192 -221Q228 -221 258.5 -212Q289 -203 311 -180Q333 -157 344.5 -118.5Q356 -80 354 -21Q337 -53 301 -75Q265 -97 206 -97Q161 -97 130.5 -87.5Q100 -78 81.5 -61Q63 -44 55 -20.5Q47 3 47 31Q47 59 55.5 83.5Q64 108 83.5 126Q103 144 134 154Q165 164 211 164Q253 164 287 153Q321 142 344 117.5Q367 93 379.5 53.5Q392 14 392 -44Q392 -103 378 -143Q364 -183 338 -208Q312 -233 275 -244Q238 -255 192 -255Q132 -255 95.5 -238Q59 -221 47 -210L64 -181Q76 -191 107.5 -206Q139 -221 192 -221ZM85 31Q85 -13 112.5 -37Q140 -61 208 -61Q269 -61 304 -33.5Q339 -6 347 32Q333 89 298.5 110Q264 131 211 131Q142 131 113.5 103.5Q85 76 85 31Z" glyph-name="nine.inf" horiz-adv-x="450" unicode="&#58746;" /><glyph d="M192 370Q228 370 258.5 379Q289 388 311 411Q333 434 344.5 472.5Q356 511 354 570Q337 538 301 516Q265 494 206 494Q161 494 130.5 503.5Q100 513 81.5 530Q63 547 55 570.5Q47 594 47 622Q47 650 55.5 674.5Q64 699 83.5 717Q103 735 134 745Q165 755 211 755Q253 755 287 744Q321 733 344 708.5Q367 684 379.5 644.5Q392 605 392 547Q392 489 378 448.5Q364 408 338 383Q312 358 275 347Q238 336 192 336Q132 336 95.5 353Q59 370 47 381L64 410Q76 400 107.5 385Q139 370 192 370ZM85 622Q85 578 112.5 554Q140 530 208 530Q269 530 304 557.5Q339 585 347 623Q333 680 298.5 701Q264 722 211 722Q142 722 113.5 694.5Q85 667 85 622ZM314 0 844 750H887L357 0ZM930 414V0H891V370L790 345V374L918 414ZM1254 380Q1218 380 1188 371Q1158 362 1137 339Q1116 316 1105 277.5Q1094 239 1096 180Q1113 212 1149 234Q1185 256 1244 256Q1289 256 1319.5 246.5Q1350 237 1368.5 220Q1387 203 1395 179.5Q1403 156 1403 128Q1403 100 1394.5 75.5Q1386 51 1366.5 33Q1347 15 1316 5Q1285 -5 1239 -5Q1197 -5 1163 6Q1129 17 1106 41.5Q1083 66 1070.5 105.5Q1058 145 1058 203Q1058 262 1071.5 302Q1085 342 1110.5 367Q1136 392 1172 403Q1208 414 1254 414Q1284 414 1307.5 409Q1331 404 1348.5 397Q1366 390 1377.5 382.5Q1389 375 1395 369L1378 340Q1366 350 1336.5 365Q1307 380 1254 380ZM1365 128Q1365 172 1337.5 196Q1310 220 1242 220Q1181 220 1146 192.5Q1111 165 1103 127Q1117 70 1151.5 49Q1186 28 1239 28Q1308 28 1336.5 55.5Q1365 83 1365 128Z" glyph-name="ninesixteenths" horiz-adv-x="1450" unicode="&#61977;" /><glyph d="M180 755V341H141V711L40 686V715L168 755ZM442 370Q478 370 508.5 379Q539 388 561 411Q583 434 594.5 472.5Q606 511 604 570Q587 538 551 516Q515 494 456 494Q411 494 380.5 503.5Q350 513 331.5 530Q313 547 305 570.5Q297 594 297 622Q297 650 305.5 674.5Q314 699 333.5 717Q353 735 384 745Q415 755 461 755Q503 755 537 744Q571 733 594 708.5Q617 684 629.5 644.5Q642 605 642 547Q642 489 628 448.5Q614 408 588 383Q562 358 525 347Q488 336 442 336Q382 336 345.5 353Q309 370 297 381L314 410Q326 400 357.5 385Q389 370 442 370ZM335 622Q335 578 362.5 554Q390 530 458 530Q519 530 554 557.5Q589 585 597 623Q583 680 548.5 701Q514 722 461 722Q392 722 363.5 694.5Q335 667 335 622ZM564 0 1094 750H1137L607 0ZM1214 -5Q1157 -5 1112 10.5Q1067 26 1049 41L1066 71Q1091 54 1126.5 41.5Q1162 29 1207 29Q1282 29 1317 51Q1352 73 1352 117Q1352 165 1322.5 185.5Q1293 206 1219 206H1137V238H1214Q1280 238 1308.5 253.5Q1337 269 1337 310Q1337 379 1209 379Q1162 379 1127 365.5Q1092 352 1075 339L1058 370Q1066 376 1080 383.5Q1094 391 1113.5 397.5Q1133 404 1157.5 409Q1182 414 1209 414Q1374 414 1374 310Q1374 274 1358 254Q1342 234 1313 225Q1391 203 1391 117Q1391 61 1348 28Q1305 -5 1214 -5ZM1504 0V26Q1596 93 1651.5 133.5Q1707 174 1737 201.5Q1767 229 1777 248.5Q1787 268 1787 293Q1787 342 1755.5 361Q1724 380 1662 380Q1620 380 1581 366Q1542 352 1524 338L1508 367Q1528 381 1568 397.5Q1608 414 1662 414Q1751 414 1788 380.5Q1825 347 1825 292Q1825 264 1812.5 240.5Q1800 217 1770 189.5Q1740 162 1689 125.5Q1638 89 1561 34H1840V0Z" glyph-name="nineteenthirtyseconds" horiz-adv-x="1900" /><glyph d="M192 370Q228 370 258.5 379Q289 388 311 411Q333 434 344.5 472.5Q356 511 354 570Q337 538 301 516Q265 494 206 494Q161 494 130.5 503.5Q100 513 81.5 530Q63 547 55 570.5Q47 594 47 622Q47 650 55.5 674.5Q64 699 83.5 717Q103 735 134 745Q165 755 211 755Q253 755 287 744Q321 733 344 708.5Q367 684 379.5 644.5Q392 605 392 547Q392 489 378 448.5Q364 408 338 383Q312 358 275 347Q238 336 192 336Q132 336 95.5 353Q59 370 47 381L64 410Q76 400 107.5 385Q139 370 192 370ZM85 622Q85 578 112.5 554Q140 530 208 530Q269 530 304 557.5Q339 585 347 623Q333 680 298.5 701Q264 722 211 722Q142 722 113.5 694.5Q85 667 85 622ZM314 0 844 750H887L357 0ZM964 -5Q907 -5 862 10.5Q817 26 799 41L816 71Q841 54 876.5 41.5Q912 29 957 29Q1032 29 1067 51Q1102 73 1102 117Q1102 165 1072.5 185.5Q1043 206 969 206H887V238H964Q1030 238 1058.5 253.5Q1087 269 1087 310Q1087 379 959 379Q912 379 877 365.5Q842 352 825 339L808 370Q816 376 830 383.5Q844 391 863.5 397.5Q883 404 907.5 409Q932 414 959 414Q1124 414 1124 310Q1124 274 1108 254Q1092 234 1063 225Q1141 203 1141 117Q1141 61 1098 28Q1055 -5 964 -5ZM1254 0V26Q1346 93 1401.5 133.5Q1457 174 1487 201.5Q1517 229 1527 248.5Q1537 268 1537 293Q1537 342 1505.5 361Q1474 380 1412 380Q1370 380 1331 366Q1292 352 1274 338L1258 367Q1278 381 1318 397.5Q1358 414 1412 414Q1501 414 1538 380.5Q1575 347 1575 292Q1575 264 1562.5 240.5Q1550 217 1520 189.5Q1490 162 1439 125.5Q1388 89 1311 34H1590V0Z" glyph-name="ninethirtyseconds" horiz-adv-x="1650" /><glyph glyph-name="nonbreakingspace" horiz-adv-x="220" unicode="&#160;" /><glyph glyph-name="nonmarkingreturn" horiz-adv-x="250" unicode="" /><glyph d="M486 427H93V463H302L357 607H398L342 463H486ZM486 287H277L223 143H181L237 287H93V323H486Z" glyph-name="notequal" horiz-adv-x="579" unicode="&#8800;" /><glyph d="M825 457H75V493H484L588 750H629L524 493H825ZM75 293H825V257H430L327 0H285L390 257H75Z" glyph-name="notequal.cap" horiz-adv-x="900" unicode="&#61989;" /><glyph d="M401 367Q401 429 368 450.5Q335 472 276 472Q174 472 109 433V0H69V500H89L103 460Q137 483 185 494.5Q233 506 276 506Q364 506 402.5 472.5Q441 439 441 364V0H401ZM326 631Q381 631 384 692H418Q416 646 392 622.5Q368 599 326 599Q298 599 280.5 610Q263 621 248.5 634Q234 647 219.5 658Q205 669 184 669Q129 669 126 608H92Q94 654 118 677.5Q142 701 184 701Q212 701 229.5 690Q247 679 261.5 666Q276 653 290.5 642Q305 631 326 631Z" glyph-name="ntilde" horiz-adv-x="505" unicode="&#241;" /><glyph d="M338 631Q393 631 396 692H430Q428 646 404 622.5Q380 599 338 599Q310 599 292.5 610Q275 621 260.5 634Q246 647 231.5 658Q217 669 196 669Q140 669 138 608H104Q106 654 130 677.5Q154 701 196 701Q224 701 241.5 690Q259 679 273.5 666Q288 653 302.5 642Q317 631 338 631ZM438 0 109 422 111 0H71V500H95L424 79L423 500H463V0Z" glyph-name="ntilde.smcp" horiz-adv-x="534" unicode="&#57977;" /><glyph d="M131 234 194 516H77L87 550H201L245 750H283L239 550H423L467 750H505L461 550H563L553 516H453L392 234H509L499 200H384L340 0H302L345 200H162L118 0H80L124 200H23L33 234ZM170 234H353L415 516H231Z" glyph-name="numbersign" horiz-adv-x="585" unicode="#" /><glyph d="M298 0 346 132H157L109 0H70L118 132H22L33 168H131L190 332H95L106 368H203L251 500H290L242 368H431L480 500H518L470 368H566L555 332H457L397 168H493L482 132H384L337 0ZM169 168H358L419 332H229Z" glyph-name="numbersign.OP" horiz-adv-x="588" unicode="&#59811;" /><glyph d="M552 0 109 665 111 0H71V750H98L540 85L538 750H578V0ZM698 565Q698 667 737 711.5Q776 756 864 756Q952 756 991.5 711.5Q1031 667 1031 565Q1031 463 991.5 418.5Q952 374 864 374Q776 374 737 418.5Q698 463 698 565ZM736 565Q736 477 766 442.5Q796 408 864 408Q932 408 962.5 442.5Q993 477 993 565Q993 653 962.5 687.5Q932 722 864 722Q796 722 766 687.5Q736 653 736 565Z" glyph-name="numero" horiz-adv-x="1083" unicode="&#8470;" /><glyph d="M473 250Q473 195 465.5 148Q458 101 435.5 66.5Q413 32 372.5 13Q332 -6 266 -6Q200 -6 159.5 13Q119 32 96.5 66.5Q74 101 66.5 148Q59 195 59 250Q59 306 66.5 352.5Q74 399 96.5 433.5Q119 468 159.5 487Q200 506 266 506Q332 506 372.5 487Q413 468 435.5 433.5Q458 399 465.5 352.5Q473 306 473 250ZM435 250Q435 297 430 337.5Q425 378 408 408Q391 438 357 455.5Q323 473 266 473Q209 473 175 455.5Q141 438 124 408Q107 378 102 337.5Q97 297 97 250Q97 204 102 163Q107 122 124 92Q141 62 175 44.5Q209 27 266 27Q323 27 357 44.5Q391 62 408 92Q425 122 430 163Q435 204 435 250Z" glyph-name="o" horiz-adv-x="532" unicode="o" /><glyph d="M512 250Q512 192 501.5 144.5Q491 97 465 63.5Q439 30 395 12Q351 -6 284 -6Q217 -6 173 12Q129 30 103 63.5Q77 97 66 144.5Q55 192 55 250Q55 308 66 355.5Q77 403 103 436.5Q129 470 173 488Q217 506 284 506Q351 506 395 488Q439 470 465 436.5Q491 403 501.5 355.5Q512 308 512 250ZM471 250Q471 298 463 338Q455 378 434.5 407.5Q414 437 377.5 453Q341 469 284 469Q226 469 189 453Q152 437 131.5 407.5Q111 378 103.5 338Q96 298 96 250Q96 202 103.5 162Q111 122 131.5 92.5Q152 63 189 47Q226 31 284 31Q341 31 377.5 47Q414 63 434.5 92.5Q455 122 463 162Q471 202 471 250Z" glyph-name="o.smcp" horiz-adv-x="567" unicode="&#57871;" /><glyph d="M253 550 311 750H355L279 550ZM473 250Q473 195 465.5 148Q458 101 435.5 66.5Q413 32 372.5 13Q332 -6 266 -6Q200 -6 159.5 13Q119 32 96.5 66.5Q74 101 66.5 148Q59 195 59 250Q59 306 66.5 352.5Q74 399 96.5 433.5Q119 468 159.5 487Q200 506 266 506Q332 506 372.5 487Q413 468 435.5 433.5Q458 399 465.5 352.5Q473 306 473 250ZM435 250Q435 297 430 337.5Q425 378 408 408Q391 438 357 455.5Q323 473 266 473Q209 473 175 455.5Q141 438 124 408Q107 378 102 337.5Q97 297 97 250Q97 204 102 163Q107 122 124 92Q141 62 175 44.5Q209 27 266 27Q323 27 357 44.5Q391 62 408 92Q425 122 430 163Q435 204 435 250Z" glyph-name="oacute" horiz-adv-x="532" unicode="&#243;" /><glyph d="M271 550 328 750H373L297 550ZM512 250Q512 192 501.5 144.5Q491 97 465 63.5Q439 30 395 12Q351 -6 284 -6Q217 -6 173 12Q129 30 103 63.5Q77 97 66 144.5Q55 192 55 250Q55 308 66 355.5Q77 403 103 436.5Q129 470 173 488Q217 506 284 506Q351 506 395 488Q439 470 465 436.5Q491 403 501.5 355.5Q512 308 512 250ZM471 250Q471 298 463 338Q455 378 434.5 407.5Q414 437 377.5 453Q341 469 284 469Q226 469 189 453Q152 437 131.5 407.5Q111 378 103.5 338Q96 298 96 250Q96 202 103.5 162Q111 122 131.5 92.5Q152 63 189 47Q226 31 284 31Q341 31 377.5 47Q414 63 434.5 92.5Q455 122 463 162Q471 202 471 250Z" glyph-name="oacute.smcp" horiz-adv-x="567" unicode="&#57985;" /><glyph d="M266 550Q91 550 91 750H118Q121 669 154 626.5Q187 584 266 584Q345 584 378 626.5Q411 669 413 750H441Q440 550 266 550ZM473 250Q473 195 465.5 148Q458 101 435.5 66.5Q413 32 372.5 13Q332 -6 266 -6Q200 -6 159.5 13Q119 32 96.5 66.5Q74 101 66.5 148Q59 195 59 250Q59 306 66.5 352.5Q74 399 96.5 433.5Q119 468 159.5 487Q200 506 266 506Q332 506 372.5 487Q413 468 435.5 433.5Q458 399 465.5 352.5Q473 306 473 250ZM435 250Q435 297 430 337.5Q425 378 408 408Q391 438 357 455.5Q323 473 266 473Q209 473 175 455.5Q141 438 124 408Q107 378 102 337.5Q97 297 97 250Q97 204 102 163Q107 122 124 92Q141 62 175 44.5Q209 27 266 27Q323 27 357 44.5Q391 62 408 92Q425 122 430 163Q435 204 435 250Z" glyph-name="obreve" horiz-adv-x="532" unicode="&#335;" /><glyph d="M284 550Q109 550 109 750H136Q139 669 172 626.5Q205 584 284 584Q363 584 396 626.5Q429 669 431 750H459Q458 550 284 550ZM512 250Q512 192 501.5 144.5Q491 97 465 63.5Q439 30 395 12Q351 -6 284 -6Q217 -6 173 12Q129 30 103 63.5Q77 97 66 144.5Q55 192 55 250Q55 308 66 355.5Q77 403 103 436.5Q129 470 173 488Q217 506 284 506Q351 506 395 488Q439 470 465 436.5Q491 403 501.5 355.5Q512 308 512 250ZM471 250Q471 298 463 338Q455 378 434.5 407.5Q414 437 377.5 453Q341 469 284 469Q226 469 189 453Q152 437 131.5 407.5Q111 378 103.5 338Q96 298 96 250Q96 202 103.5 162Q111 122 131.5 92.5Q152 63 189 47Q226 31 284 31Q341 31 377.5 47Q414 63 434.5 92.5Q455 122 463 162Q471 202 471 250Z" glyph-name="obreve.smcp" horiz-adv-x="567" unicode="&#57992;" /><glyph d="M404 550 266 712 127 550H97L246 750H286L435 550ZM473 250Q473 195 465.5 148Q458 101 435.5 66.5Q413 32 372.5 13Q332 -6 266 -6Q200 -6 159.5 13Q119 32 96.5 66.5Q74 101 66.5 148Q59 195 59 250Q59 306 66.5 352.5Q74 399 96.5 433.5Q119 468 159.5 487Q200 506 266 506Q332 506 372.5 487Q413 468 435.5 433.5Q458 399 465.5 352.5Q473 306 473 250ZM435 250Q435 297 430 337.5Q425 378 408 408Q391 438 357 455.5Q323 473 266 473Q209 473 175 455.5Q141 438 124 408Q107 378 102 337.5Q97 297 97 250Q97 204 102 163Q107 122 124 92Q141 62 175 44.5Q209 27 266 27Q323 27 357 44.5Q391 62 408 92Q425 122 430 163Q435 204 435 250Z" glyph-name="ocircumflex" horiz-adv-x="532" unicode="&#244;" /><glyph d="M422 550 284 712 145 550H114L263 750H304L453 550ZM512 250Q512 192 501.5 144.5Q491 97 465 63.5Q439 30 395 12Q351 -6 284 -6Q217 -6 173 12Q129 30 103 63.5Q77 97 66 144.5Q55 192 55 250Q55 308 66 355.5Q77 403 103 436.5Q129 470 173 488Q217 506 284 506Q351 506 395 488Q439 470 465 436.5Q491 403 501.5 355.5Q512 308 512 250ZM471 250Q471 298 463 338Q455 378 434.5 407.5Q414 437 377.5 453Q341 469 284 469Q226 469 189 453Q152 437 131.5 407.5Q111 378 103.5 338Q96 298 96 250Q96 202 103.5 162Q111 122 131.5 92.5Q152 63 189 47Q226 31 284 31Q341 31 377.5 47Q414 63 434.5 92.5Q455 122 463 162Q471 202 471 250Z" glyph-name="ocircumflex.smcp" horiz-adv-x="567" unicode="&#57987;" /><glyph d="M473 250Q473 195 465.5 148Q458 101 435.5 66.5Q413 32 372.5 13Q332 -6 266 -6Q200 -6 159.5 13Q119 32 96.5 66.5Q74 101 66.5 148Q59 195 59 250Q59 306 66.5 352.5Q74 399 96.5 433.5Q119 468 159.5 487Q200 506 266 506Q332 506 372.5 487Q413 468 435.5 433.5Q458 399 465.5 352.5Q473 306 473 250ZM435 250Q435 297 430 337.5Q425 378 408 408Q391 438 357 455.5Q323 473 266 473Q209 473 175 455.5Q141 438 124 408Q107 378 102 337.5Q97 297 97 250Q97 204 102 163Q107 122 124 92Q141 62 175 44.5Q209 27 266 27Q323 27 357 44.5Q391 62 408 92Q425 122 430 163Q435 204 435 250ZM144 650Q144 661 152 669Q160 677 171 677Q182 677 190 669Q198 661 198 650Q198 639 190 631Q182 623 171 623Q160 623 152 631Q144 639 144 650ZM334 650Q334 661 342 669Q350 677 361 677Q372 677 380 669Q388 661 388 650Q388 639 380 631Q372 623 361 623Q350 623 342 631Q334 639 334 650Z" glyph-name="odieresis" horiz-adv-x="532" unicode="&#246;" /><glyph d="M512 250Q512 192 501.5 144.5Q491 97 465 63.5Q439 30 395 12Q351 -6 284 -6Q217 -6 173 12Q129 30 103 63.5Q77 97 66 144.5Q55 192 55 250Q55 308 66 355.5Q77 403 103 436.5Q129 470 173 488Q217 506 284 506Q351 506 395 488Q439 470 465 436.5Q491 403 501.5 355.5Q512 308 512 250ZM471 250Q471 298 463 338Q455 378 434.5 407.5Q414 437 377.5 453Q341 469 284 469Q226 469 189 453Q152 437 131.5 407.5Q111 378 103.5 338Q96 298 96 250Q96 202 103.5 162Q111 122 131.5 92.5Q152 63 189 47Q226 31 284 31Q341 31 377.5 47Q414 63 434.5 92.5Q455 122 463 162Q471 202 471 250ZM162 650Q162 661 170 669Q178 677 189 677Q200 677 208 669Q216 661 216 650Q216 639 208 631Q200 623 189 623Q178 623 170 631Q162 639 162 650ZM352 650Q352 661 360 669Q368 677 379 677Q390 677 398 669Q406 661 406 650Q406 639 398 631Q390 623 379 623Q368 623 360 631Q352 639 352 650Z" glyph-name="odieresis.smcp" horiz-adv-x="567" unicode="&#57988;" /><glyph d="M266 506Q352 506 395 474Q438 442 454 386Q472 442 515 474Q558 506 641 506Q703 506 740 486.5Q777 467 796 433Q815 399 820.5 352Q826 305 826 250V233H470Q471 192 478.5 155Q486 118 504.5 89.5Q523 61 556.5 44Q590 27 642 27Q701 27 741.5 46.5Q782 66 801 84L817 57Q797 35 751 14.5Q705 -6 643 -6Q559 -6 515.5 26Q472 58 454 114Q438 59 395 26.5Q352 -6 266 -6Q200 -6 159.5 13Q119 32 96.5 66.5Q74 101 66.5 148Q59 195 59 250Q59 306 66.5 352.5Q74 399 96.5 433.5Q119 468 159.5 487Q200 506 266 506ZM435 250Q435 297 430 337.5Q425 378 408 408Q391 438 357 455.5Q323 473 266 473Q209 473 175 455.5Q141 438 124 408Q107 378 102 337.5Q97 297 97 250Q97 204 102 163Q107 122 124 92Q141 62 175 44.5Q209 27 266 27Q323 27 357 44.5Q391 62 408 92Q425 122 430 163Q435 204 435 250ZM641 473Q589 473 556 456Q523 439 504.5 410.5Q486 382 478.5 345Q471 308 470 267H789Q789 307 785.5 344Q782 381 767 409.5Q752 438 722.5 455.5Q693 473 641 473Z" glyph-name="oe" horiz-adv-x="885" unicode="&#339;" /><glyph d="M669 240H420V34H707V0H289Q225 0 180 17.5Q135 35 107.5 67Q80 99 67.5 145.5Q55 192 55 250Q55 308 67.5 354.5Q80 401 107.5 433Q135 465 180 482.5Q225 500 289 500H707V466H420V274H669ZM381 34V466H283Q231 466 195 450.5Q159 435 137.5 407Q116 379 106.5 339Q97 299 97 250Q97 201 106.5 161Q116 121 137.5 93Q159 65 195 49.5Q231 34 283 34Z" glyph-name="oe.smcp" horiz-adv-x="756" unicode="&#58008;" /><glyph d="M304 -219Q332 -219 349 -211.5Q366 -204 376 -196L391 -221Q380 -230 356.5 -240Q333 -250 301 -250Q258 -250 230.5 -226.5Q203 -203 203 -154Q203 -121 215.5 -94.5Q228 -68 248.5 -46Q269 -24 294.5 -7Q320 10 347 23L356 0Q341 -6 320.5 -19.5Q300 -33 281 -51.5Q262 -70 248.5 -94.5Q235 -119 235 -148Q235 -185 254.5 -202Q274 -219 304 -219Z" glyph-name="ogonek" horiz-adv-x="570" unicode="&#731;" /><glyph d="M253 550 177 750H221L279 550ZM473 250Q473 195 465.5 148Q458 101 435.5 66.5Q413 32 372.5 13Q332 -6 266 -6Q200 -6 159.5 13Q119 32 96.5 66.5Q74 101 66.5 148Q59 195 59 250Q59 306 66.5 352.5Q74 399 96.5 433.5Q119 468 159.5 487Q200 506 266 506Q332 506 372.5 487Q413 468 435.5 433.5Q458 399 465.5 352.5Q473 306 473 250ZM435 250Q435 297 430 337.5Q425 378 408 408Q391 438 357 455.5Q323 473 266 473Q209 473 175 455.5Q141 438 124 408Q107 378 102 337.5Q97 297 97 250Q97 204 102 163Q107 122 124 92Q141 62 175 44.5Q209 27 266 27Q323 27 357 44.5Q391 62 408 92Q425 122 430 163Q435 204 435 250Z" glyph-name="ograve" horiz-adv-x="532" unicode="&#242;" /><glyph d="M271 550 194 750H239L297 550ZM512 250Q512 192 501.5 144.5Q491 97 465 63.5Q439 30 395 12Q351 -6 284 -6Q217 -6 173 12Q129 30 103 63.5Q77 97 66 144.5Q55 192 55 250Q55 308 66 355.5Q77 403 103 436.5Q129 470 173 488Q217 506 284 506Q351 506 395 488Q439 470 465 436.5Q491 403 501.5 355.5Q512 308 512 250ZM471 250Q471 298 463 338Q455 378 434.5 407.5Q414 437 377.5 453Q341 469 284 469Q226 469 189 453Q152 437 131.5 407.5Q111 378 103.5 338Q96 298 96 250Q96 202 103.5 162Q111 122 131.5 92.5Q152 63 189 47Q226 31 284 31Q341 31 377.5 47Q414 63 434.5 92.5Q455 122 463 162Q471 202 471 250Z" glyph-name="ograve.smcp" horiz-adv-x="567" unicode="&#57986;" /><glyph d="M342 720Q211 720 142.5 649Q74 578 74 444Q74 378 94 315Q114 252 145.5 197Q177 142 215 97.5Q253 53 289 24V0H25V34H230Q193 69 157.5 115Q122 161 94.5 214.5Q67 268 50.5 326Q34 384 34 444Q34 594 113 675Q192 756 342 756Q493 756 572 675Q651 594 651 444Q651 384 634.5 326Q618 268 590 214.5Q562 161 527 115Q492 69 454 34H660V0H396V24Q432 53 470 97.5Q508 142 539.5 197Q571 252 591 315Q611 378 611 444Q611 578 542 649Q473 720 342 720Z" glyph-name="ohm" horiz-adv-x="684" unicode="&#59425;" /><glyph d="M473 250Q473 195 465.5 148Q458 101 435.5 66.5Q413 32 372.5 13Q332 -6 266 -6Q200 -6 159.5 13Q119 32 96.5 66.5Q74 101 66.5 148Q59 195 59 250Q59 306 66.5 352.5Q74 399 96.5 433.5Q119 468 159.5 487Q200 506 266 506Q332 506 372.5 487Q413 468 435.5 433.5Q458 399 465.5 352.5Q473 306 473 250ZM435 250Q435 297 430 337.5Q425 378 408 408Q391 438 357 455.5Q323 473 266 473Q209 473 175 455.5Q141 438 124 408Q107 378 102 337.5Q97 297 97 250Q97 204 102 163Q107 122 124 92Q141 62 175 44.5Q209 27 266 27Q323 27 357 44.5Q391 62 408 92Q425 122 430 163Q435 204 435 250ZM305 550 364 750H406L330 550ZM202 550 260 750H303L227 550Z" glyph-name="ohungarumlaut" horiz-adv-x="532" unicode="&#337;" /><glyph d="M512 250Q512 192 501.5 144.5Q491 97 465 63.5Q439 30 395 12Q351 -6 284 -6Q217 -6 173 12Q129 30 103 63.5Q77 97 66 144.5Q55 192 55 250Q55 308 66 355.5Q77 403 103 436.5Q129 470 173 488Q217 506 284 506Q351 506 395 488Q439 470 465 436.5Q491 403 501.5 355.5Q512 308 512 250ZM471 250Q471 298 463 338Q455 378 434.5 407.5Q414 437 377.5 453Q341 469 284 469Q226 469 189 453Q152 437 131.5 407.5Q111 378 103.5 338Q96 298 96 250Q96 202 103.5 162Q111 122 131.5 92.5Q152 63 189 47Q226 31 284 31Q341 31 377.5 47Q414 63 434.5 92.5Q455 122 463 162Q471 202 471 250ZM323 550 382 750H424L348 550ZM220 550 278 750H321L245 550Z" glyph-name="ohungarumlaut.smcp" horiz-adv-x="567" unicode="&#57994;" /><glyph d="M129 667H403V633H129ZM473 250Q473 195 465.5 148Q458 101 435.5 66.5Q413 32 372.5 13Q332 -6 266 -6Q200 -6 159.5 13Q119 32 96.5 66.5Q74 101 66.5 148Q59 195 59 250Q59 306 66.5 352.5Q74 399 96.5 433.5Q119 468 159.5 487Q200 506 266 506Q332 506 372.5 487Q413 468 435.5 433.5Q458 399 465.5 352.5Q473 306 473 250ZM435 250Q435 297 430 337.5Q425 378 408 408Q391 438 357 455.5Q323 473 266 473Q209 473 175 455.5Q141 438 124 408Q107 378 102 337.5Q97 297 97 250Q97 204 102 163Q107 122 124 92Q141 62 175 44.5Q209 27 266 27Q323 27 357 44.5Q391 62 408 92Q425 122 430 163Q435 204 435 250Z" glyph-name="omacron" horiz-adv-x="532" unicode="&#333;" /></font>
</defs>
</svg>
